<svg width="393" height="557" viewBox="0 0 393 557" fill="none" xmlns="http://www.w3.org/2000/svg">
<path d="M55.8645 130.925C62.5019 128.112 68.0145 121.869 68.0145 114.781C68.0145 104.769 57.777 97.0625 48.327 97.0625H29.0332V141.163C15.8707 144.031 5.68945 156.125 5.68945 170.581C5.68945 189.987 23.802 201.125 40.0582 201.125C64.4145 201.125 82.4144 183.125 82.4144 165.969C82.4144 146.113 66.1582 132.163 55.8645 130.925ZM47.3707 98.75C55.9207 98.75 61.2645 105.613 61.2645 114.781C61.2645 123.388 55.4145 130.812 47.3707 130.812H35.7832V98.75H47.3707ZM40.0582 199.437C25.4895 199.437 7.93945 189.537 7.93945 170.581C7.93945 156.856 17.1082 147.856 29.0332 145.606V173H35.7832V145.044C48.8894 145.437 56.652 156.069 56.652 161.525H58.3395C58.3957 153.2 50.1832 140.938 35.7832 140.544V132.5H53.2207C62.2207 132.5 75.6645 146.056 75.6645 165.969C75.6645 187.456 58.227 199.437 40.0582 199.437ZM133.588 98.75V97.0625H92.5254V173H133.588V171.313H99.2754V135.369H124.588V133.681H99.2754V98.75H133.588ZM148.934 171.313V97.0625H142.184V173H178.746V171.313H148.934ZM187.359 97.0625V173H194.109V97.0625H187.359ZM256.178 97.0625V160.512L202.853 97.2313L202.74 97.0625V173H204.428V109.606L257.865 173V97.0625H256.178ZM291.773 97.0625H266.461V173H291.773C312.023 173 325.973 155.281 325.973 135.031C325.973 114.781 312.023 97.0625 291.773 97.0625ZM290.648 171.313H273.211V98.75H290.648C308.086 98.75 319.223 117.594 319.223 135.031C319.223 152.469 308.086 171.313 290.648 171.313ZM379.998 173H387.311L356.373 97.0625L325.436 173H327.236L335.223 153.481H372.067L379.998 173ZM335.898 151.794L353.673 108.2L371.392 151.794H335.898Z" fill="#EC5772"/>
<path d="M55.8645 130.925L55.6694 130.465L53.9403 131.197L55.8048 131.421L55.8645 130.925ZM29.0332 97.0625V96.5625H28.5332V97.0625H29.0332ZM29.0332 141.162L29.1397 141.651L29.5332 141.565V141.162H29.0332ZM35.7832 130.812H35.2832V131.312H35.7832V130.812ZM35.7832 98.75V98.25H35.2832V98.75H35.7832ZM29.0332 145.606H29.5332V145.003L28.9405 145.115L29.0332 145.606ZM29.0332 173H28.5332V173.5H29.0332V173ZM35.7832 173V173.5H36.2832V173H35.7832ZM35.7832 145.044L35.7982 144.544L35.2832 144.529V145.044H35.7832ZM56.652 161.525H56.152V162.025H56.652V161.525ZM58.3395 161.525V162.025H58.8361L58.8394 161.528L58.3395 161.525ZM35.7832 140.544H35.2832V141.03L35.7695 141.044L35.7832 140.544ZM35.7832 132.5V132H35.2832V132.5H35.7832ZM56.0595 131.385C62.817 128.522 68.5145 122.132 68.5145 114.781H67.5145C67.5145 121.606 62.1869 127.703 55.6694 130.465L56.0595 131.385ZM68.5145 114.781C68.5145 109.596 65.8635 105.036 62.0382 101.786C58.2152 98.538 53.1807 96.5625 48.327 96.5625V97.5625C52.9232 97.5625 57.7325 99.4401 61.3907 102.548C65.0466 105.654 67.5145 109.954 67.5145 114.781H68.5145ZM48.327 96.5625H29.0332V97.5625H48.327V96.5625ZM28.5332 97.0625V141.162H29.5332V97.0625H28.5332ZM28.9267 140.674C15.5356 143.593 5.18945 155.889 5.18945 170.581H6.18945C6.18945 156.361 16.2059 144.47 29.1397 141.651L28.9267 140.674ZM5.18945 170.581C5.18945 190.365 23.6394 201.625 40.0582 201.625V200.625C23.9645 200.625 6.18945 189.61 6.18945 170.581H5.18945ZM40.0582 201.625C64.629 201.625 82.9145 183.459 82.9145 165.969H81.9145C81.9145 182.791 64.1999 200.625 40.0582 200.625V201.625ZM82.9145 165.969C82.9145 155.9 78.7923 147.335 73.3761 141.136C67.9725 134.951 61.2308 131.067 55.9241 130.429L55.8048 131.421C60.7919 132.021 67.3251 135.73 72.6231 141.794C77.9085 147.843 81.9145 156.182 81.9145 165.969H82.9145ZM47.3707 99.25C51.5005 99.25 54.8329 100.902 57.141 103.649C59.456 106.404 60.7645 110.291 60.7645 114.781H61.7645C61.7645 110.103 60.4011 105.974 57.9066 103.006C55.4054 100.029 51.7909 98.25 47.3707 98.25V99.25ZM60.7645 114.781C60.7645 123.196 55.0611 130.312 47.3707 130.312V131.312C55.7679 131.312 61.7645 123.579 61.7645 114.781H60.7645ZM47.3707 130.312H35.7832V131.312H47.3707V130.312ZM36.2832 130.812V98.75H35.2832V130.812H36.2832ZM35.7832 99.25H47.3707V98.25H35.7832V99.25ZM40.0582 198.938C32.8772 198.938 24.9577 196.495 18.8431 191.724C12.7402 186.962 8.43945 179.886 8.43945 170.581H7.43945C7.43945 180.232 11.9138 187.585 18.228 192.512C24.5306 197.43 32.6704 199.938 40.0582 199.938V198.938ZM8.43945 170.581C8.43945 157.127 17.4063 148.309 29.1259 146.098L28.9405 145.115C16.8101 147.404 7.43945 156.586 7.43945 170.581H8.43945ZM28.5332 145.606V173H29.5332V145.606H28.5332ZM29.0332 173.5H35.7832V172.5H29.0332V173.5ZM36.2832 173V145.044H35.2832V173H36.2832ZM35.7682 145.544C42.1831 145.736 47.2869 148.433 50.7886 151.749C54.3129 155.086 56.152 158.986 56.152 161.525H57.152C57.152 158.608 55.1097 154.464 51.4762 151.023C47.8202 147.561 42.4895 144.745 35.7982 144.544L35.7682 145.544ZM56.652 162.025H58.3395V161.025H56.652V162.025ZM58.8394 161.528C58.8686 157.217 56.766 151.952 52.8494 147.721C48.922 143.477 43.1455 140.245 35.7969 140.044L35.7695 141.044C42.8209 141.236 48.3507 144.332 52.1155 148.4C55.891 152.479 57.8666 157.508 57.8395 161.522L58.8394 161.528ZM36.2832 140.544V132.5H35.2832V140.544H36.2832ZM35.7832 133H53.2207V132H35.7832V133ZM53.2207 133C57.498 133 62.9791 136.251 67.4201 142.071C71.8419 147.865 75.1645 156.126 75.1645 165.969H76.1645C76.1645 155.899 72.7651 147.426 68.215 141.464C63.6842 135.527 57.9434 132 53.2207 132V133ZM75.1645 165.969C75.1645 187.11 58.0261 198.938 40.0582 198.938V199.938C58.4278 199.938 76.1645 187.802 76.1645 165.969H75.1645ZM133.588 98.75V99.25H134.088V98.75H133.588ZM133.588 97.0625H134.088V96.5625H133.588V97.0625ZM92.5254 97.0625V96.5625H92.0254V97.0625H92.5254ZM92.5254 173H92.0254V173.5H92.5254V173ZM133.588 173V173.5H134.088V173H133.588ZM133.588 171.312H134.088V170.812H133.588V171.312ZM99.2754 171.312H98.7754V171.812H99.2754V171.312ZM99.2754 135.369V134.869H98.7754V135.369H99.2754ZM124.588 135.369V135.869H125.088V135.369H124.588ZM124.588 133.681H125.088V133.181H124.588V133.681ZM99.2754 133.681H98.7754V134.181H99.2754V133.681ZM99.2754 98.75V98.25H98.7754V98.75H99.2754ZM134.088 98.75V97.0625H133.088V98.75H134.088ZM133.588 96.5625H92.5254V97.5625H133.588V96.5625ZM92.0254 97.0625V173H93.0254V97.0625H92.0254ZM92.5254 173.5H133.588V172.5H92.5254V173.5ZM134.088 173V171.312H133.088V173H134.088ZM133.588 170.812H99.2754V171.812H133.588V170.812ZM99.7754 171.312V135.369H98.7754V171.312H99.7754ZM99.2754 135.869H124.588V134.869H99.2754V135.869ZM125.088 135.369V133.681H124.088V135.369H125.088ZM124.588 133.181H99.2754V134.181H124.588V133.181ZM99.7754 133.681V98.75H98.7754V133.681H99.7754ZM99.2754 99.25H133.588V98.25H99.2754V99.25ZM148.934 171.312H148.434V171.812H148.934V171.312ZM148.934 97.0625H149.434V96.5625H148.934V97.0625ZM142.184 97.0625V96.5625H141.684V97.0625H142.184ZM142.184 173H141.684V173.5H142.184V173ZM178.746 173V173.5H179.246V173H178.746ZM178.746 171.312H179.246V170.812H178.746V171.312ZM149.434 171.312V97.0625H148.434V171.312H149.434ZM148.934 96.5625H142.184V97.5625H148.934V96.5625ZM141.684 97.0625V173H142.684V97.0625H141.684ZM142.184 173.5H178.746V172.5H142.184V173.5ZM179.246 173V171.312H178.246V173H179.246ZM178.746 170.812H148.934V171.812H178.746V170.812ZM187.359 97.0625V96.5625H186.859V97.0625H187.359ZM187.359 173H186.859V173.5H187.359V173ZM194.109 173V173.5H194.609V173H194.109ZM194.109 97.0625H194.609V96.5625H194.109V97.0625ZM186.859 97.0625V173H187.859V97.0625H186.859ZM187.359 173.5H194.109V172.5H187.359V173.5ZM194.609 173V97.0625H193.609V173H194.609ZM194.109 96.5625H187.359V97.5625H194.109V96.5625ZM256.178 97.0625V96.5625H255.678V97.0625H256.178ZM256.178 160.512L255.795 160.835L256.678 161.882V160.512H256.178ZM202.853 97.2313L202.437 97.5086L202.452 97.532L202.47 97.5534L202.853 97.2313ZM202.74 97.0625L203.156 96.7852L202.24 95.4111V97.0625H202.74ZM202.74 173H202.24V173.5H202.74V173ZM204.428 173V173.5H204.928V173H204.428ZM204.428 109.606L204.81 109.284L203.928 108.237V109.606H204.428ZM257.865 173L257.483 173.322L258.365 174.369V173H257.865ZM257.865 97.0625H258.365V96.5625H257.865V97.0625ZM255.678 97.0625V160.512H256.678V97.0625H255.678ZM256.56 160.19L203.235 96.9091L202.47 97.5534L255.795 160.835L256.56 160.19ZM203.269 96.9539L203.156 96.7852L202.324 97.3398L202.437 97.5086L203.269 96.9539ZM202.24 97.0625V173H203.24V97.0625H202.24ZM202.74 173.5H204.428V172.5H202.74V173.5ZM204.928 173V109.606H203.928V173H204.928ZM204.045 109.929L257.483 173.322L258.248 172.678L204.81 109.284L204.045 109.929ZM258.365 173V97.0625H257.365V173H258.365ZM257.865 96.5625H256.178V97.5625H257.865V96.5625ZM266.461 97.0625V96.5625H265.961V97.0625H266.461ZM266.461 173H265.961V173.5H266.461V173ZM273.211 171.312H272.711V171.812H273.211V171.312ZM273.211 98.75V98.25H272.711V98.75H273.211ZM291.773 96.5625H266.461V97.5625H291.773V96.5625ZM265.961 97.0625V173H266.961V97.0625H265.961ZM266.461 173.5H291.773V172.5H266.461V173.5ZM291.773 173.5C312.365 173.5 326.473 155.487 326.473 135.031H325.473C325.473 155.076 311.682 172.5 291.773 172.5V173.5ZM326.473 135.031C326.473 114.576 312.365 96.5625 291.773 96.5625V97.5625C311.682 97.5625 325.473 114.987 325.473 135.031H326.473ZM290.648 170.812H273.211V171.812H290.648V170.812ZM273.711 171.312V98.75H272.711V171.312H273.711ZM273.211 99.25H290.648V98.25H273.211V99.25ZM290.648 99.25C299.168 99.25 306.174 103.849 311.069 110.644C315.968 117.444 318.723 126.411 318.723 135.031H319.723C319.723 126.214 316.91 117.04 311.881 110.059C306.848 103.073 299.567 98.25 290.648 98.25V99.25ZM318.723 135.031C318.723 143.652 315.968 152.619 311.069 159.419C306.174 166.214 299.168 170.812 290.648 170.812V171.812C299.567 171.812 306.848 166.989 311.881 160.003C316.91 153.022 319.723 143.848 319.723 135.031H318.723ZM379.998 173L379.535 173.188L379.661 173.5H379.998V173ZM387.311 173V173.5H388.054L387.774 172.811L387.311 173ZM356.373 97.0625L356.836 96.8739L356.373 95.7373L355.91 96.8739L356.373 97.0625ZM325.436 173L324.973 172.811L324.692 173.5H325.436V173ZM327.236 173V173.5H327.571L327.698 173.189L327.236 173ZM335.223 153.481V152.981H334.887L334.76 153.292L335.223 153.481ZM372.067 153.481L372.53 153.293L372.403 152.981H372.067V153.481ZM335.898 151.794L335.435 151.605L335.154 152.294H335.898V151.794ZM353.673 108.2L354.136 108.012L353.674 106.874L353.21 108.011L353.673 108.2ZM371.392 151.794V152.294H372.135L371.855 151.605L371.392 151.794ZM379.998 173.5H387.311V172.5H379.998V173.5ZM387.774 172.811L356.836 96.8739L355.91 97.2511L386.848 173.189L387.774 172.811ZM355.91 96.8739L324.973 172.811L325.899 173.189L356.836 97.2511L355.91 96.8739ZM325.436 173.5H327.236V172.5H325.436V173.5ZM327.698 173.189L335.686 153.671L334.76 153.292L326.773 172.811L327.698 173.189ZM335.223 153.981H372.067V152.981H335.223V153.981ZM371.604 153.669L379.535 173.188L380.461 172.812L372.53 153.293L371.604 153.669ZM336.361 151.983L354.136 108.389L353.21 108.011L335.435 151.605L336.361 151.983ZM353.21 108.388L370.929 151.982L371.855 151.605L354.136 108.012L353.21 108.388ZM371.392 151.294H335.898V152.294H371.392V151.294Z" fill="#EC5772"/>
<path d="M38.7785 364.25H46.541C57.791 364.25 68.9848 354.631 68.9848 343.1C68.9848 331.231 57.791 322.062 46.541 322.062H20.1035V398H26.8535V364.25H36.416L69.4348 398H71.7973L38.7785 364.25ZM26.8535 362.563V323.75H45.416C55.541 323.75 62.2348 332.188 62.2348 343.1C62.2348 353.337 54.9785 362.563 45.416 362.563H26.8535ZM76.2656 360.031C76.2656 381.575 93.8156 399.125 115.359 399.125C136.903 399.125 154.453 381.575 154.453 360.031C154.453 338.488 136.903 320.938 115.359 320.938C93.8156 320.938 76.2656 338.488 76.2656 360.031ZM83.0156 360.031C83.0156 339.444 97.5281 322.625 115.359 322.625C133.191 322.625 147.703 339.444 147.703 360.031C147.703 380.619 133.191 397.438 115.359 397.438C97.5281 397.438 83.0156 380.619 83.0156 360.031ZM202.733 389.169L164.596 322.062V398H166.283V338.488L199.471 399.125L233.108 338.656V398H239.858V322.062L202.733 389.169ZM301.863 398H309.176L278.238 322.062L247.301 398H249.101L257.088 378.481H293.932L301.863 398ZM257.763 376.794L275.538 333.2L293.257 376.794H257.763ZM371.227 322.062V385.512L317.902 322.231L317.789 322.062V398H319.477V334.606L372.914 398V322.062H371.227Z" fill="#EC5772"/>
<path d="M38.7785 364.25V363.75H37.5899L38.4211 364.6L38.7785 364.25ZM20.1035 322.062V321.562H19.6035V322.062H20.1035ZM20.1035 398H19.6035V398.5H20.1035V398ZM26.8535 398V398.5H27.3535V398H26.8535ZM26.8535 364.25V363.75H26.3535V364.25H26.8535ZM36.416 364.25L36.7734 363.9L36.6263 363.75H36.416V364.25ZM69.4348 398L69.0774 398.35L69.2244 398.5H69.4348V398ZM71.7973 398V398.5H72.9859L72.1547 397.65L71.7973 398ZM26.8535 362.562H26.3535V363.062H26.8535V362.562ZM26.8535 323.75V323.25H26.3535V323.75H26.8535ZM38.7785 364.75H46.541V363.75H38.7785V364.75ZM46.541 364.75C52.3046 364.75 58.0329 362.289 62.3191 358.368C66.6066 354.446 69.4848 349.032 69.4848 343.1H68.4848C68.4848 348.699 65.7661 353.86 61.6442 357.63C57.521 361.402 52.0274 363.75 46.541 363.75V364.75ZM69.4848 343.1C69.4848 330.906 58.0152 321.562 46.541 321.562V322.562C57.5668 322.562 68.4848 331.557 68.4848 343.1H69.4848ZM46.541 321.562H20.1035V322.562H46.541V321.562ZM19.6035 322.062V398H20.6035V322.062H19.6035ZM20.1035 398.5H26.8535V397.5H20.1035V398.5ZM27.3535 398V364.25H26.3535V398H27.3535ZM26.8535 364.75H36.416V363.75H26.8535V364.75ZM36.0586 364.6L69.0774 398.35L69.7922 397.65L36.7734 363.9L36.0586 364.6ZM69.4348 398.5H71.7973V397.5H69.4348V398.5ZM72.1547 397.65L39.1359 363.9L38.4211 364.6L71.4399 398.35L72.1547 397.65ZM27.3535 362.562V323.75H26.3535V362.562H27.3535ZM26.8535 324.25H45.416V323.25H26.8535V324.25ZM45.416 324.25C55.1898 324.25 61.7348 332.382 61.7348 343.1H62.7348C62.7348 331.993 55.8922 323.25 45.416 323.25V324.25ZM61.7348 343.1C61.7348 353.147 54.6238 362.062 45.416 362.062V363.062C55.3332 363.062 62.7348 353.528 62.7348 343.1H61.7348ZM45.416 362.062H26.8535V363.062H45.416V362.062ZM75.7656 360.031C75.7656 381.851 93.5395 399.625 115.359 399.625V398.625C94.0918 398.625 76.7656 381.299 76.7656 360.031H75.7656ZM115.359 399.625C137.179 399.625 154.953 381.851 154.953 360.031H153.953C153.953 381.299 136.627 398.625 115.359 398.625V399.625ZM154.953 360.031C154.953 338.211 137.179 320.438 115.359 320.438V321.438C136.627 321.438 153.953 338.764 153.953 360.031H154.953ZM115.359 320.438C93.5395 320.438 75.7656 338.211 75.7656 360.031H76.7656C76.7656 338.764 94.0918 321.438 115.359 321.438V320.438ZM83.5156 360.031C83.5156 339.649 97.8703 323.125 115.359 323.125V322.125C97.1859 322.125 82.5156 339.239 82.5156 360.031H83.5156ZM115.359 323.125C132.848 323.125 147.203 339.649 147.203 360.031H148.203C148.203 339.239 133.533 322.125 115.359 322.125V323.125ZM147.203 360.031C147.203 380.414 132.848 396.938 115.359 396.938V397.938C133.533 397.938 148.203 380.824 148.203 360.031H147.203ZM115.359 396.938C97.8703 396.938 83.5156 380.414 83.5156 360.031H82.5156C82.5156 380.824 97.1859 397.938 115.359 397.938V396.938ZM202.733 389.169L202.298 389.416L202.739 390.191L203.171 389.411L202.733 389.169ZM164.596 322.062L165.03 321.815L164.096 320.171V322.062H164.596ZM164.596 398H164.096V398.5H164.596V398ZM166.283 398V398.5H166.783V398H166.283ZM166.283 338.487L166.722 338.247L165.783 338.487H166.283ZM199.471 399.125L199.032 399.365L199.467 400.16L199.908 399.368L199.471 399.125ZM233.108 338.656H233.608V336.729L232.671 338.413L233.108 338.656ZM233.108 398H232.608V398.5H233.108V398ZM239.858 398V398.5H240.358V398H239.858ZM239.858 322.062H240.358L239.421 321.82L239.858 322.062ZM203.168 388.922L165.03 321.815L164.161 322.31L202.298 389.416L203.168 388.922ZM164.096 322.062V398H165.096V322.062H164.096ZM164.596 398.5H166.283V397.5H164.596V398.5ZM166.783 398V338.487H165.783V398H166.783ZM165.845 338.728L199.032 399.365L199.909 398.885L166.722 338.247L165.845 338.728ZM199.908 399.368L233.545 338.899L232.671 338.413L199.034 398.882L199.908 399.368ZM232.608 338.656V398H233.608V338.656H232.608ZM233.108 398.5H239.858V397.5H233.108V398.5ZM240.358 398V322.062H239.358V398H240.358ZM239.421 321.82L202.296 388.927L203.171 389.411L240.296 322.305L239.421 321.82ZM301.863 398L301.4 398.188L301.527 398.5H301.863V398ZM309.176 398V398.5H309.919L309.639 397.811L309.176 398ZM278.238 322.062L278.701 321.874L278.238 320.737L277.775 321.874L278.238 322.062ZM247.301 398L246.838 397.811L246.557 398.5H247.301V398ZM249.101 398V398.5H249.436L249.564 398.189L249.101 398ZM257.088 378.481V377.981H256.753L256.626 378.292L257.088 378.481ZM293.932 378.481L294.395 378.293L294.269 377.981H293.932V378.481ZM257.763 376.794L257.3 376.605L257.019 377.294H257.763V376.794ZM275.538 333.2L276.001 333.012L275.539 331.874L275.075 333.011L275.538 333.2ZM293.257 376.794V377.294H294L293.72 376.605L293.257 376.794ZM301.863 398.5H309.176V397.5H301.863V398.5ZM309.639 397.811L278.701 321.874L277.775 322.251L308.713 398.189L309.639 397.811ZM277.775 321.874L246.838 397.811L247.764 398.189L278.701 322.251L277.775 321.874ZM247.301 398.5H249.101V397.5H247.301V398.5ZM249.564 398.189L257.551 378.671L256.626 378.292L248.638 397.811L249.564 398.189ZM257.088 378.981H293.932V377.981H257.088V378.981ZM293.469 378.669L301.4 398.188L302.327 397.812L294.395 378.293L293.469 378.669ZM258.226 376.983L276.001 333.389L275.075 333.011L257.3 376.605L258.226 376.983ZM275.075 333.388L292.794 376.982L293.72 376.605L276.001 333.012L275.075 333.388ZM293.257 376.294H257.763V377.294H293.257V376.294ZM371.227 322.062V321.562H370.727V322.062H371.227ZM371.227 385.512L370.844 385.835L371.727 386.882V385.512H371.227ZM317.902 322.231L317.486 322.509L317.501 322.532L317.519 322.553L317.902 322.231ZM317.789 322.062L318.205 321.785L317.289 320.411V322.062H317.789ZM317.789 398H317.289V398.5H317.789V398ZM319.477 398V398.5H319.977V398H319.477ZM319.477 334.606L319.859 334.284L318.977 333.237V334.606H319.477ZM372.914 398L372.532 398.322L373.414 399.369V398H372.914ZM372.914 322.062H373.414V321.562H372.914V322.062ZM370.727 322.062V385.512H371.727V322.062H370.727ZM371.609 385.19L318.284 321.909L317.519 322.553L370.844 385.835L371.609 385.19ZM318.318 321.954L318.205 321.785L317.373 322.34L317.486 322.509L318.318 321.954ZM317.289 322.062V398H318.289V322.062H317.289ZM317.789 398.5H319.477V397.5H317.789V398.5ZM319.977 398V334.606H318.977V398H319.977ZM319.094 334.929L372.532 398.322L373.296 397.678L319.859 334.284L319.094 334.929ZM373.414 398V322.062H372.414V398H373.414ZM372.914 321.562H371.227V322.562H372.914V321.562Z" fill="#EC5772"/>
<path d="M166.507 284.128C164.945 284.128 163.526 282.212 162.249 278.38C160.972 274.548 159.954 270.196 159.197 265.323C158.44 260.45 158.062 256.902 158.062 254.678C158.062 254.111 158.086 253.756 158.133 253.614L157.991 253.543C154.206 261.396 150.563 267.334 147.063 271.355C143.609 275.376 140.605 277.387 138.05 277.387C136.158 277.387 134.597 276.299 133.367 274.122C132.184 271.946 131.592 268.895 131.592 264.968V262.91C131.592 258.652 132.136 253.756 133.225 248.221C134.313 242.638 135.779 235.991 137.624 228.28C138.665 224.164 139.398 221.041 139.824 218.912C139.919 218.392 140.132 217.99 140.463 217.706C140.794 217.375 141.173 217.209 141.598 217.209C142.119 217.209 142.592 217.446 143.018 217.919C143.207 218.156 143.301 218.463 143.301 218.842C143.301 219.315 143.136 219.906 142.805 220.616C142.521 221.278 142.308 221.822 142.166 222.248L141.527 224.377C140.345 228.067 138.689 233.673 136.56 241.195C134.194 249.664 133.012 257.517 133.012 264.755C133.012 268.493 133.461 271.331 134.36 273.271C135.259 275.211 136.489 276.18 138.05 276.18C140.132 276.18 142.592 274.572 145.43 271.355C148.269 268.185 151.249 263.572 154.372 257.517C156.312 253.732 157.589 250.965 158.204 249.214C158.819 247.464 159.292 245.571 159.623 243.537C160.049 241.219 160.451 239.397 160.83 238.073C162.012 233.531 162.793 230.527 163.171 229.06C164.922 222.342 166.152 217.895 166.862 215.719C167.571 213.496 168.517 211.461 169.7 209.616C170.268 208.907 170.812 208.552 171.332 208.552C171.711 208.552 171.995 208.765 172.184 209.19C172.42 209.616 172.539 210.16 172.539 210.823C172.539 211.485 172.444 212.124 172.255 212.739C170.93 216.145 168.943 222.082 166.294 230.551C163.644 238.972 162.131 244.034 161.752 245.737C161.137 248.717 160.83 252.502 160.83 257.091C160.83 261.538 161.184 265.796 161.894 269.865C162.651 273.886 163.526 277.103 164.52 279.516C165.561 281.976 166.436 283.135 167.145 282.993C167.571 283.088 167.784 283.182 167.784 283.277C167.784 283.371 167.713 283.561 167.571 283.844C167.003 284.034 166.649 284.128 166.507 284.128ZM167.472 281.928C167.188 281.928 166.904 281.787 166.62 281.503C166.478 281.361 166.408 281.171 166.408 280.935C166.408 280.651 166.478 280.367 166.62 280.083C167.188 278.995 167.732 276.701 168.253 273.2C168.726 269.699 169.341 264.542 170.098 257.73C170.334 255.932 170.665 253.259 171.091 249.711C171.47 246.163 171.848 242.969 172.227 240.131L172.652 237.576C173.031 235.873 173.22 234.619 173.22 233.815C173.22 233.342 173.196 232.963 173.149 232.679L173.646 230.976C174.829 226.009 175.846 223.738 176.697 224.164C177.312 224.306 177.62 224.637 177.62 225.157C177.62 225.583 177.36 226.482 176.839 227.854C176.082 229.841 175.633 231.308 175.491 232.254C174.639 238.546 173.599 246.588 172.368 256.381C171.328 265.086 170.76 269.723 170.665 270.29C170.949 269.912 172.014 267.121 173.859 261.917C178.164 249.995 182.185 239.847 185.923 231.473C189.66 223.052 192.877 218.842 195.574 218.842H196.212C197.253 218.842 198.057 219.291 198.625 220.19C199.193 221.089 199.619 222.271 199.902 223.738C200.092 224.684 200.186 226.293 200.186 228.564C200.186 229.983 200.163 231.284 200.115 232.467C200.068 233.602 200.021 234.596 199.973 235.447C199.784 238.948 199.69 241.739 199.69 243.821V245.666C199.69 266.151 200.541 276.322 202.244 276.18C202.386 276.275 202.481 276.37 202.528 276.464C202.528 276.795 202.339 277.032 201.96 277.174C200.305 277.694 199.169 274.264 198.554 266.884C197.939 259.504 197.632 250.515 197.632 239.918L197.703 227.002V225.228C197.703 223.951 197.466 222.981 196.993 222.319C196.567 221.656 196.094 221.325 195.574 221.325C193.918 221.325 191.481 224.732 188.264 231.544C185.047 238.309 181.854 246.021 178.684 254.678C175.515 263.336 173.315 269.841 172.085 274.193C171.99 274.335 171.848 274.619 171.659 275.045C171.47 275.471 171.304 275.849 171.162 276.18C170.5 277.836 169.885 279.208 169.317 280.296C168.702 281.384 168.087 281.928 167.472 281.928ZM203.746 290.941C202.138 290.941 200.884 290.562 199.985 289.805C199.086 289.096 198.637 288.102 198.637 286.825C198.637 285.075 199.37 283.04 200.837 280.722C202.303 278.451 204.55 275.991 207.578 273.342C208.714 262.839 210.322 250.586 212.404 236.582C214.485 222.579 215.952 215.577 216.803 215.577C217.513 215.577 218.436 216.05 219.571 216.996C219.997 217.517 220.21 218.037 220.21 218.558C220.21 219.267 219.997 219.906 219.571 220.474C219.145 221.041 218.625 221.325 218.01 221.325C215.881 229.273 214.391 237.41 213.539 245.737C216.141 239.681 219.074 234.596 222.339 230.48C225.65 226.316 228.962 223.241 232.274 221.254C235.633 219.22 238.779 218.203 241.712 218.203C244.976 218.203 247.625 219.433 249.66 221.893C251.741 224.306 252.782 227.688 252.782 232.041C252.782 238.144 250.819 245.382 246.892 253.756C247.413 253.803 248.666 253.637 250.653 253.259C251.032 253.212 252.002 253.07 253.563 252.833C255.124 252.549 256.425 252.407 257.466 252.407C258.175 252.407 258.696 252.455 259.027 252.549C259.358 252.644 259.524 252.881 259.524 253.259L259.382 254.04C259.098 254.134 258.909 254.182 258.814 254.182C258.578 254.182 258.436 253.992 258.388 253.614C257.253 253.614 255.644 253.779 253.563 254.111C251.481 254.442 249.612 254.844 247.957 255.317C246.301 255.743 245.496 256.074 245.544 256.31C240.056 265.252 233.385 273.082 225.532 279.8C221.038 283.584 216.922 286.376 213.184 288.173C209.447 290.018 206.301 290.941 203.746 290.941ZM199.701 286.47C199.701 287.369 200.032 288.055 200.695 288.528C201.31 289.001 202.209 289.238 203.391 289.238C206.182 289.238 209.802 288.008 214.249 285.548C218.696 283.135 223.427 279.492 228.441 274.619C233.456 269.746 238.093 263.856 242.35 256.949C236.579 258.321 230.831 260.45 225.106 263.336C219.382 266.222 214.462 269.273 210.346 272.49C210.156 273.768 210.038 274.785 209.991 275.542C209.802 277.387 209.612 278.759 209.423 279.658C209.187 280.604 208.832 281.077 208.359 281.077C208.028 281.077 207.673 280.888 207.294 280.509C207.247 280.225 207.223 279.87 207.223 279.445C207.223 279.114 207.271 278.569 207.365 277.813C207.365 277.671 207.413 277.316 207.507 276.748C207.554 276.18 207.531 275.636 207.436 275.116C202.279 280.131 199.701 283.915 199.701 286.47ZM210.63 270.716C218.152 265.512 224.207 261.893 228.796 259.859C233.385 257.777 237.43 256.31 240.931 255.459C241.925 255.27 242.682 255.057 243.202 254.82C244.054 253.874 245.023 252.1 246.112 249.498C247.247 246.896 248.193 244.034 248.95 240.911C249.754 237.742 250.156 234.927 250.156 232.467C250.156 231.378 250.133 230.574 250.085 230.054C249.754 226.884 248.855 224.448 247.389 222.745C245.97 221.041 244.172 220.19 241.996 220.19C238.022 220.19 233.646 222.319 228.867 226.577C224.089 230.834 219.949 236.819 216.449 244.53C212.948 252.195 211.008 260.923 210.63 270.716Z" fill="#FF858C"/>
<path d="M162.249 278.38L162.439 278.317L162.249 278.38ZM159.197 265.323L159.395 265.292L159.197 265.323ZM158.133 253.614L158.323 253.677L158.378 253.513L158.222 253.435L158.133 253.614ZM157.991 253.543L158.08 253.364L157.899 253.273L157.811 253.456L157.991 253.543ZM147.063 271.355L146.912 271.223L146.911 271.225L147.063 271.355ZM133.367 274.122L133.191 274.218L133.192 274.221L133.367 274.122ZM133.225 248.221L133.421 248.259L133.421 248.259L133.225 248.221ZM137.624 228.28L137.43 228.231L137.43 228.233L137.624 228.28ZM139.824 218.912L140.02 218.952L140.021 218.948L139.824 218.912ZM140.463 217.706L140.593 217.858L140.599 217.853L140.604 217.848L140.463 217.706ZM143.018 217.919L143.174 217.794L143.166 217.785L143.018 217.919ZM142.805 220.616L142.623 220.531L142.621 220.537L142.805 220.616ZM142.166 222.248L141.976 222.185L141.975 222.19L142.166 222.248ZM141.527 224.377L141.718 224.438L141.719 224.434L141.527 224.377ZM136.56 241.195L136.367 241.141L136.367 241.141L136.56 241.195ZM134.36 273.271L134.179 273.355L134.36 273.271ZM145.43 271.355L145.281 271.221L145.28 271.222L145.43 271.355ZM154.372 257.517L154.55 257.609L154.55 257.608L154.372 257.517ZM158.204 249.214L158.015 249.148L158.204 249.214ZM159.623 243.537L159.426 243.501L159.426 243.505L159.623 243.537ZM160.83 238.073L161.022 238.128L161.023 238.123L160.83 238.073ZM163.171 229.06L162.978 229.01L162.978 229.01L163.171 229.06ZM166.862 215.719L167.052 215.781L167.052 215.78L166.862 215.719ZM169.7 209.616L169.544 209.491L169.537 209.499L169.532 209.508L169.7 209.616ZM172.184 209.19L172.001 209.272L172.005 209.28L172.009 209.288L172.184 209.19ZM172.255 212.739L172.441 212.811L172.444 212.804L172.446 212.797L172.255 212.739ZM166.294 230.551L166.485 230.611L166.485 230.61L166.294 230.551ZM161.752 245.737L161.557 245.693L161.556 245.696L161.752 245.737ZM161.894 269.865L161.697 269.899L161.697 269.902L161.894 269.865ZM164.52 279.516L164.335 279.592L164.336 279.594L164.52 279.516ZM167.145 282.993L167.189 282.798L167.148 282.789L167.106 282.797L167.145 282.993ZM167.571 283.844L167.634 284.034L167.713 284.008L167.75 283.934L167.571 283.844ZM166.507 283.928C165.817 283.928 165.124 283.507 164.432 282.572C163.741 281.639 163.075 280.225 162.439 278.317L162.059 278.443C162.701 280.368 163.383 281.828 164.111 282.81C164.837 283.792 165.635 284.328 166.507 284.328V283.928ZM162.439 278.317C161.165 274.498 160.151 270.156 159.395 265.292L159 265.354C159.758 270.235 160.778 274.599 162.059 278.443L162.439 278.317ZM159.395 265.292C158.638 260.42 158.262 256.885 158.262 254.678H157.862C157.862 256.918 158.243 260.48 159 265.354L159.395 265.292ZM158.262 254.678C158.262 254.397 158.268 254.171 158.279 254C158.291 253.822 158.308 253.721 158.323 253.677L157.943 253.551C157.911 253.648 157.892 253.796 157.88 253.973C157.868 254.157 157.862 254.392 157.862 254.678H158.262ZM158.222 253.435L158.08 253.364L157.902 253.722L158.044 253.793L158.222 253.435ZM157.811 253.456C154.03 261.302 150.396 267.221 146.912 271.223L147.213 271.486C150.731 267.446 154.383 261.49 158.171 253.63L157.811 253.456ZM146.911 271.225C145.191 273.227 143.59 274.721 142.108 275.713C140.626 276.705 139.275 277.187 138.05 277.187V277.587C139.38 277.587 140.809 277.064 142.331 276.045C143.853 275.026 145.481 273.504 147.214 271.485L146.911 271.225ZM138.05 277.187C136.253 277.187 134.748 276.161 133.541 274.024L133.192 274.221C134.445 276.437 136.063 277.587 138.05 277.587V277.187ZM133.542 274.027C132.382 271.892 131.792 268.879 131.792 264.968H131.392C131.392 268.911 131.985 272 133.191 274.218L133.542 274.027ZM131.792 264.968V262.91H131.392V264.968H131.792ZM131.792 262.91C131.792 258.669 132.334 253.785 133.421 248.259L133.028 248.182C131.939 253.726 131.392 258.636 131.392 262.91H131.792ZM133.421 248.259C134.508 242.68 135.974 236.036 137.819 228.326L137.43 228.233C135.584 235.946 134.117 242.596 133.028 248.182L133.421 248.259ZM137.818 228.329C138.859 224.212 139.594 221.086 140.02 218.952L139.628 218.873C139.203 220.997 138.471 224.116 137.43 228.231L137.818 228.329ZM140.021 218.948C140.109 218.463 140.304 218.106 140.593 217.858L140.333 217.554C139.96 217.874 139.729 218.321 139.627 218.877L140.021 218.948ZM140.604 217.848C140.902 217.55 141.231 217.409 141.598 217.409V217.009C141.114 217.009 140.686 217.2 140.322 217.565L140.604 217.848ZM141.598 217.409C142.05 217.409 142.472 217.612 142.869 218.053L143.166 217.785C142.712 217.28 142.188 217.009 141.598 217.009V217.409ZM142.861 218.044C143.016 218.237 143.101 218.497 143.101 218.842H143.501C143.501 218.429 143.398 218.074 143.174 217.794L142.861 218.044ZM143.101 218.842C143.101 219.272 142.949 219.833 142.624 220.531L142.986 220.7C143.322 219.979 143.501 219.357 143.501 218.842H143.101ZM142.621 220.537C142.336 221.202 142.121 221.751 141.976 222.185L142.356 222.311C142.495 221.893 142.706 221.354 142.989 220.694L142.621 220.537ZM141.975 222.19L141.336 224.319L141.719 224.434L142.358 222.305L141.975 222.19ZM141.337 224.316C140.153 228.009 138.497 233.618 136.367 241.141L136.752 241.25C138.881 233.728 140.536 228.124 141.718 224.438L141.337 224.316ZM136.367 241.141C133.998 249.624 132.812 257.495 132.812 264.755H133.212C133.212 257.538 134.391 249.703 136.753 241.249L136.367 241.141ZM132.812 264.755C132.812 268.503 133.262 271.376 134.179 273.355L134.541 273.187C133.661 271.286 133.212 268.482 133.212 264.755H132.812ZM134.179 273.355C135.096 275.335 136.382 276.38 138.05 276.38V275.98C136.596 275.98 135.422 275.086 134.541 273.187L134.179 273.355ZM138.05 276.38C139.143 276.38 140.316 275.959 141.566 275.141C142.816 274.324 144.154 273.104 145.58 271.487L145.28 271.222C143.868 272.823 142.557 274.016 141.347 274.807C140.137 275.598 139.039 275.98 138.05 275.98V276.38ZM145.579 271.488C148.434 268.301 151.423 263.671 154.55 257.609L154.194 257.425C151.075 263.474 148.104 268.07 145.281 271.221L145.579 271.488ZM154.55 257.608C156.49 253.823 157.773 251.045 158.393 249.28L158.015 249.148C157.405 250.884 156.133 253.641 154.194 257.426L154.55 257.608ZM158.393 249.28C159.012 247.518 159.488 245.614 159.821 243.569L159.426 243.505C159.096 245.529 158.626 247.41 158.015 249.148L158.393 249.28ZM159.82 243.573C160.245 241.258 160.646 239.443 161.022 238.128L160.637 238.018C160.256 239.351 159.853 241.18 159.426 243.501L159.82 243.573ZM161.023 238.123C162.206 233.581 162.987 230.577 163.365 229.11L162.978 229.01C162.599 230.477 161.819 233.481 160.636 238.022L161.023 238.123ZM163.365 229.111C165.116 222.392 166.344 217.951 167.052 215.781L166.671 215.657C165.96 217.84 164.728 222.293 162.978 229.01L163.365 229.111ZM167.052 215.78C167.757 213.572 168.696 211.554 169.868 209.724L169.532 209.508C168.339 211.369 167.386 213.419 166.671 215.658L167.052 215.78ZM169.856 209.741C170.413 209.045 170.906 208.752 171.332 208.752V208.352C170.718 208.352 170.122 208.768 169.544 209.491L169.856 209.741ZM171.332 208.752C171.481 208.752 171.604 208.793 171.709 208.871C171.816 208.952 171.916 209.08 172.001 209.272L172.367 209.109C172.262 208.875 172.125 208.684 171.949 208.551C171.77 208.417 171.562 208.352 171.332 208.352V208.752ZM172.009 209.288C172.224 209.675 172.339 210.183 172.339 210.823H172.739C172.739 210.138 172.617 209.558 172.359 209.093L172.009 209.288ZM172.339 210.823C172.339 211.466 172.247 212.084 172.064 212.68L172.446 212.797C172.641 212.163 172.739 211.504 172.739 210.823H172.339ZM172.068 212.666C170.741 216.079 168.752 222.023 166.103 230.491L166.485 230.61C169.134 222.142 171.119 216.21 172.441 212.811L172.068 212.666ZM166.103 230.491C163.455 238.907 161.938 243.98 161.557 245.693L161.947 245.78C162.323 244.088 163.834 239.036 166.485 230.611L166.103 230.491ZM161.556 245.696C160.937 248.695 160.63 252.495 160.63 257.091H161.03C161.03 252.51 161.337 248.74 161.948 245.777L161.556 245.696ZM160.63 257.091C160.63 261.549 160.985 265.818 161.697 269.899L162.091 269.83C161.384 265.774 161.03 261.527 161.03 257.091H160.63ZM161.697 269.902C162.456 273.93 163.334 277.161 164.335 279.592L164.705 279.44C163.718 277.044 162.846 273.842 162.091 269.828L161.697 269.902ZM164.336 279.594C164.858 280.828 165.345 281.751 165.797 282.351C166.023 282.65 166.248 282.879 166.474 283.024C166.702 283.17 166.942 283.237 167.185 283.189L167.106 282.797C166.993 282.819 166.858 282.795 166.69 282.687C166.52 282.578 166.328 282.39 166.116 282.11C165.694 281.55 165.222 280.663 164.704 279.438L164.336 279.594ZM167.102 283.188C167.311 283.235 167.455 283.278 167.543 283.318C167.588 283.337 167.607 283.351 167.611 283.355C167.617 283.36 167.584 283.334 167.584 283.277H167.984C167.984 283.172 167.925 283.099 167.877 283.056C167.828 283.013 167.767 282.979 167.706 282.952C167.581 282.897 167.405 282.846 167.189 282.798L167.102 283.188ZM167.584 283.277C167.584 283.276 167.584 283.28 167.583 283.287C167.582 283.294 167.58 283.304 167.577 283.317C167.57 283.343 167.56 283.377 167.544 283.419C167.511 283.505 167.462 283.616 167.392 283.755L167.75 283.934C167.823 283.789 167.879 283.664 167.918 283.56C167.955 283.462 167.984 283.363 167.984 283.277H167.584ZM167.508 283.655C167.226 283.749 167 283.818 166.828 283.864C166.649 283.912 166.548 283.928 166.507 283.928V284.328C166.607 284.328 166.755 284.298 166.931 284.251C167.114 284.202 167.349 284.129 167.634 284.034L167.508 283.655ZM166.62 281.503L166.762 281.361L166.62 281.503ZM166.62 280.083L166.443 279.991L166.442 279.994L166.62 280.083ZM168.253 273.2L168.45 273.229L168.451 273.227L168.253 273.2ZM170.098 257.73L169.899 257.704L169.899 257.708L170.098 257.73ZM171.091 249.711L171.29 249.735L171.29 249.732L171.091 249.711ZM172.227 240.131L172.029 240.098L172.028 240.104L172.227 240.131ZM172.652 237.576L172.457 237.533L172.455 237.543L172.652 237.576ZM173.149 232.679L172.957 232.623L172.944 232.667L172.952 232.712L173.149 232.679ZM173.646 230.976L173.838 231.032L173.84 231.023L173.646 230.976ZM176.697 224.164L176.608 224.343L176.629 224.353L176.652 224.359L176.697 224.164ZM176.839 227.854L177.026 227.925L177.026 227.925L176.839 227.854ZM175.491 232.254L175.293 232.224L175.293 232.227L175.491 232.254ZM172.368 256.381L172.17 256.357L172.17 256.358L172.368 256.381ZM170.665 270.29L170.468 270.257L170.825 270.41L170.665 270.29ZM173.859 261.917L173.671 261.849L173.67 261.85L173.859 261.917ZM185.923 231.473L186.105 231.555L186.105 231.554L185.923 231.473ZM199.902 223.738L199.706 223.776L199.706 223.777L199.902 223.738ZM200.115 232.467L200.315 232.475L200.315 232.475L200.115 232.467ZM199.973 235.447L199.774 235.436L199.774 235.436L199.973 235.447ZM202.244 276.18L202.355 276.014L202.297 275.975L202.228 275.981L202.244 276.18ZM202.528 276.464H202.728V276.417L202.707 276.375L202.528 276.464ZM201.96 277.174L202.021 277.365L202.031 277.361L201.96 277.174ZM197.632 239.918L197.432 239.917V239.918H197.632ZM197.703 227.002L197.903 227.003V227.002H197.703ZM196.993 222.319L196.825 222.427L196.83 222.435L196.993 222.319ZM188.264 231.544L188.445 231.63L188.445 231.629L188.264 231.544ZM178.684 254.678L178.496 254.61L178.684 254.678ZM172.085 274.193L172.251 274.304L172.269 274.278L172.277 274.248L172.085 274.193ZM171.659 275.045L171.842 275.126L171.659 275.045ZM171.162 276.18L170.978 276.102L170.976 276.106L171.162 276.18ZM169.317 280.296L169.491 280.395L169.494 280.389L169.317 280.296ZM167.472 281.728C167.26 281.728 167.024 281.623 166.762 281.361L166.479 281.644C166.785 281.95 167.116 282.128 167.472 282.128V281.728ZM166.762 281.361C166.664 281.263 166.608 281.129 166.608 280.935H166.208C166.208 281.214 166.293 281.458 166.479 281.644L166.762 281.361ZM166.608 280.935C166.608 280.686 166.67 280.432 166.799 280.173L166.442 279.994C166.287 280.302 166.208 280.617 166.208 280.935H166.608ZM166.798 280.176C167.093 279.609 167.376 278.744 167.649 277.593C167.923 276.438 168.19 274.983 168.45 273.229L168.055 273.17C167.795 274.918 167.53 276.361 167.26 277.5C166.989 278.643 166.715 279.469 166.443 279.991L166.798 280.176ZM168.451 273.227C168.924 269.723 169.539 264.565 170.296 257.752L169.899 257.708C169.142 264.52 168.527 269.675 168.054 273.173L168.451 273.227ZM170.296 257.756C170.533 255.957 170.864 253.283 171.29 249.735L170.893 249.687C170.467 253.235 170.136 255.907 169.899 257.704L170.296 257.756ZM171.29 249.732C171.668 246.185 172.047 242.994 172.425 240.157L172.028 240.104C171.65 242.945 171.271 246.14 170.892 249.69L171.29 249.732ZM172.424 240.164L172.85 237.609L172.455 237.543L172.029 240.098L172.424 240.164ZM172.848 237.619C173.226 235.915 173.42 234.643 173.42 233.815H173.02C173.02 234.596 172.835 235.831 172.457 237.533L172.848 237.619ZM173.42 233.815C173.42 233.337 173.396 232.946 173.346 232.647L172.952 232.712C172.997 232.981 173.02 233.347 173.02 233.815H173.42ZM173.341 232.735L173.838 231.032L173.454 230.92L172.957 232.623L173.341 232.735ZM173.84 231.023C174.431 228.541 174.978 226.747 175.478 225.629C175.73 225.068 175.962 224.696 176.168 224.492C176.27 224.392 176.356 224.342 176.424 224.323C176.486 224.306 176.544 224.311 176.608 224.343L176.787 223.985C176.637 223.91 176.477 223.893 176.317 223.938C176.161 223.981 176.019 224.078 175.887 224.208C175.626 224.465 175.37 224.892 175.113 225.466C174.597 226.619 174.043 228.444 173.451 230.93L173.84 231.023ZM176.652 224.359C176.936 224.424 177.125 224.528 177.243 224.655C177.357 224.778 177.42 224.939 177.42 225.157H177.82C177.82 224.855 177.729 224.591 177.536 224.383C177.346 224.178 177.074 224.045 176.742 223.969L176.652 224.359ZM177.42 225.157C177.42 225.34 177.362 225.648 177.233 226.095C177.105 226.537 176.911 227.1 176.652 227.783L177.026 227.925C177.287 227.236 177.485 226.663 177.617 226.206C177.747 225.755 177.82 225.401 177.82 225.157H177.42ZM176.652 227.783C175.895 229.771 175.438 231.255 175.293 232.224L175.689 232.283C175.827 231.36 176.27 229.911 177.026 227.925L176.652 227.783ZM175.293 232.227C174.441 238.52 173.4 246.563 172.17 256.357L172.567 256.406C173.797 246.614 174.838 238.572 175.689 232.281L175.293 232.227ZM172.17 256.358C171.129 265.067 170.562 269.696 170.468 270.257L170.863 270.323C170.958 269.75 171.527 265.105 172.567 256.405L172.17 256.358ZM170.825 270.41C170.873 270.346 170.928 270.246 170.988 270.123C171.05 269.996 171.124 269.832 171.209 269.632C171.379 269.233 171.597 268.683 171.863 267.984C172.397 266.586 173.125 264.586 174.047 261.983L173.67 261.85C172.748 264.451 172.021 266.448 171.49 267.842C171.224 268.539 171.008 269.083 170.841 269.476C170.757 269.672 170.686 269.829 170.629 269.948C170.569 270.07 170.528 270.14 170.505 270.17L170.825 270.41ZM174.047 261.985C178.351 250.066 182.37 239.923 186.105 231.555L185.74 231.392C182 239.771 177.977 249.924 173.671 261.849L174.047 261.985ZM186.105 231.554C187.972 227.349 189.703 224.208 191.297 222.121C192.901 220.021 194.327 219.042 195.574 219.042V218.642C194.123 218.642 192.593 219.767 190.98 221.878C189.357 224.002 187.611 227.176 185.74 231.392L186.105 231.554ZM195.574 219.042H196.212V218.642H195.574V219.042ZM196.212 219.042C197.183 219.042 197.924 219.454 198.456 220.297L198.794 220.083C198.191 219.128 197.324 218.642 196.212 218.642V219.042ZM198.456 220.297C199.006 221.168 199.425 222.325 199.706 223.776L200.099 223.7C199.812 222.218 199.379 221.01 198.794 220.083L198.456 220.297ZM199.706 223.777C199.891 224.702 199.986 226.293 199.986 228.564H200.386C200.386 226.292 200.292 224.666 200.099 223.699L199.706 223.777ZM199.986 228.564C199.986 229.981 199.963 231.279 199.916 232.459L200.315 232.475C200.363 231.289 200.386 229.985 200.386 228.564H199.986ZM199.916 232.458C199.868 233.593 199.821 234.586 199.774 235.436L200.173 235.458C200.221 234.605 200.268 233.611 200.315 232.475L199.916 232.458ZM199.774 235.436C199.584 238.939 199.49 241.734 199.49 243.821H199.89C199.89 241.744 199.984 238.957 200.173 235.458L199.774 235.436ZM199.49 243.821V245.666H199.89V243.821H199.49ZM199.49 245.666C199.49 255.91 199.702 263.58 200.129 268.675C200.342 271.22 200.609 273.132 200.933 274.402C201.094 275.036 201.273 275.524 201.475 275.855C201.673 276.178 201.931 276.407 202.261 276.38L202.228 275.981C202.132 275.989 201.991 275.932 201.816 275.646C201.646 275.367 201.478 274.924 201.32 274.304C201.005 273.067 200.74 271.182 200.528 268.642C200.103 263.564 199.89 255.907 199.89 245.666H199.49ZM202.133 276.347C202.262 276.433 202.324 276.504 202.349 276.554L202.707 276.375C202.637 276.235 202.51 276.117 202.355 276.014L202.133 276.347ZM202.328 276.464C202.328 276.589 202.294 276.686 202.23 276.765C202.164 276.847 202.057 276.924 201.89 276.987L202.031 277.361C202.243 277.282 202.419 277.169 202.542 277.015C202.668 276.858 202.728 276.671 202.728 276.464H202.328ZM201.9 276.983C201.729 277.037 201.571 277.038 201.422 276.993C201.272 276.946 201.117 276.849 200.96 276.685C200.643 276.354 200.338 275.777 200.057 274.929C199.497 273.238 199.061 270.555 198.753 266.867L198.355 266.901C198.663 270.594 199.102 273.316 199.677 275.055C199.964 275.921 200.292 276.566 200.672 276.962C200.864 277.162 201.075 277.304 201.305 277.375C201.538 277.446 201.778 277.441 202.02 277.365L201.9 276.983ZM198.753 266.867C198.139 259.495 197.832 250.512 197.832 239.918H197.432C197.432 250.518 197.739 259.513 198.355 266.901L198.753 266.867ZM197.832 239.919L197.903 227.003L197.503 227.001L197.432 239.917L197.832 239.919ZM197.903 227.002V225.228H197.503V227.002H197.903ZM197.903 225.228C197.903 223.931 197.663 222.913 197.156 222.202L196.83 222.435C197.269 223.049 197.503 223.971 197.503 225.228H197.903ZM197.161 222.211C196.719 221.522 196.192 221.125 195.574 221.125V221.525C195.996 221.525 196.416 221.791 196.825 222.427L197.161 222.211ZM195.574 221.125C195.092 221.125 194.585 221.372 194.058 221.81C193.528 222.251 192.956 222.905 192.342 223.764C191.113 225.481 189.694 228.049 188.084 231.459L188.445 231.629C190.052 228.227 191.459 225.685 192.667 223.996C193.271 223.152 193.82 222.528 194.313 222.118C194.809 221.705 195.228 221.525 195.574 221.525V221.125ZM188.084 231.458C184.864 238.23 181.668 245.947 178.496 254.61L178.872 254.747C182.04 246.094 185.231 238.388 188.445 231.63L188.084 231.458ZM178.496 254.61C175.326 263.268 173.124 269.779 171.892 274.139L172.277 274.248C173.505 269.903 175.703 263.404 178.872 254.747L178.496 254.61ZM171.918 274.082C171.813 274.241 171.665 274.539 171.476 274.964L171.842 275.126C172.032 274.699 172.167 274.43 172.251 274.304L171.918 274.082ZM171.476 274.964C171.287 275.39 171.121 275.769 170.978 276.102L171.346 276.259C171.487 275.929 171.653 275.551 171.842 275.126L171.476 274.964ZM170.976 276.106C170.316 277.758 169.703 279.124 169.14 280.204L169.494 280.389C170.066 279.293 170.684 277.914 171.348 276.255L170.976 276.106ZM169.143 280.198C168.841 280.732 168.547 281.119 168.262 281.371C167.979 281.621 167.716 281.728 167.472 281.728V282.128C167.843 282.128 168.195 281.964 168.527 281.67C168.857 281.378 169.178 280.949 169.491 280.395L169.143 280.198ZM199.985 289.805L200.114 289.652L200.109 289.648L199.985 289.805ZM200.837 280.722L200.669 280.614L200.668 280.615L200.837 280.722ZM207.578 273.342L207.71 273.492L207.769 273.441L207.777 273.363L207.578 273.342ZM212.404 236.582L212.601 236.612L212.404 236.582ZM219.571 216.996L219.726 216.87L219.714 216.855L219.699 216.843L219.571 216.996ZM219.571 220.474L219.731 220.594L219.571 220.474ZM218.01 221.325V221.125H217.856L217.817 221.274L218.01 221.325ZM213.539 245.737L213.34 245.716L213.723 245.816L213.539 245.737ZM222.339 230.48L222.182 230.355L222.182 230.355L222.339 230.48ZM232.274 221.254L232.376 221.426L232.377 221.425L232.274 221.254ZM249.66 221.893L249.506 222.02L249.508 222.024L249.66 221.893ZM246.892 253.756L246.711 253.671L246.59 253.929L246.874 253.955L246.892 253.756ZM250.653 253.259L250.628 253.06L250.616 253.063L250.653 253.259ZM253.563 252.833L253.593 253.031L253.599 253.03L253.563 252.833ZM259.027 252.549L259.082 252.357L259.027 252.549ZM259.524 253.259L259.72 253.295L259.724 253.277V253.259H259.524ZM259.382 254.04L259.445 254.229L259.557 254.192L259.579 254.075L259.382 254.04ZM258.388 253.614L258.587 253.589L258.565 253.414H258.388V253.614ZM253.563 254.111L253.531 253.913L253.563 254.111ZM247.957 255.317L248.006 255.511L248.012 255.509L247.957 255.317ZM245.544 256.31L245.714 256.415L245.755 256.348L245.74 256.271L245.544 256.31ZM225.532 279.8L225.661 279.953L225.662 279.952L225.532 279.8ZM213.184 288.173L213.098 287.993L213.096 287.994L213.184 288.173ZM200.695 288.528L200.817 288.369L200.811 288.365L200.695 288.528ZM214.249 285.548L214.153 285.372L214.152 285.373L214.249 285.548ZM228.441 274.619L228.581 274.763L228.441 274.619ZM242.35 256.949L242.521 257.054L242.774 256.643L242.304 256.755L242.35 256.949ZM225.106 263.336L225.016 263.157L225.106 263.336ZM210.346 272.49L210.223 272.333L210.16 272.382L210.148 272.461L210.346 272.49ZM209.991 275.542L210.19 275.562L210.19 275.554L209.991 275.542ZM209.423 279.658L209.617 279.706L209.619 279.699L209.423 279.658ZM207.294 280.509L207.097 280.542L207.108 280.605L207.153 280.651L207.294 280.509ZM207.365 277.813L207.564 277.837L207.565 277.825V277.813H207.365ZM207.507 276.748L207.704 276.781L207.706 276.773L207.706 276.765L207.507 276.748ZM207.436 275.116L207.633 275.08L207.566 274.711L207.297 274.973L207.436 275.116ZM210.63 270.716L210.43 270.708L210.414 271.108L210.743 270.881L210.63 270.716ZM228.796 259.859L228.877 260.042L228.879 260.041L228.796 259.859ZM240.931 255.459L240.894 255.262L240.884 255.265L240.931 255.459ZM243.202 254.82L243.285 255.002L243.323 254.985L243.351 254.954L243.202 254.82ZM246.112 249.498L245.928 249.418L245.927 249.421L246.112 249.498ZM248.95 240.911L248.756 240.862L248.756 240.864L248.95 240.911ZM250.085 230.054L250.285 230.036L250.284 230.033L250.085 230.054ZM247.389 222.745L247.235 222.873L247.237 222.875L247.389 222.745ZM228.867 226.577L229 226.726L228.867 226.577ZM216.449 244.53L216.631 244.614L216.631 244.613L216.449 244.53ZM203.746 290.741C202.167 290.741 200.965 290.369 200.114 289.652L199.856 289.958C200.802 290.755 202.108 291.141 203.746 291.141V290.741ZM200.109 289.648C199.264 288.981 198.837 288.049 198.837 286.825H198.437C198.437 288.155 198.908 289.21 199.861 289.962L200.109 289.648ZM198.837 286.825C198.837 285.128 199.549 283.132 201.006 280.829L200.668 280.615C199.191 282.949 198.437 285.021 198.437 286.825H198.837ZM201.005 280.831C202.457 278.581 204.69 276.135 207.71 273.492L207.446 273.191C204.411 275.848 202.149 278.321 200.669 280.614L201.005 280.831ZM207.777 273.363C208.912 262.864 210.52 250.614 212.601 236.612L212.206 236.553C210.124 250.558 208.515 262.814 207.379 273.32L207.777 273.363ZM212.601 236.612C213.642 229.611 214.529 224.364 215.261 220.87C215.627 219.121 215.953 217.817 216.239 216.953C216.383 216.519 216.513 216.206 216.629 216.005C216.687 215.904 216.736 215.841 216.774 215.805C216.813 215.768 216.822 215.777 216.803 215.777V215.377C216.679 215.377 216.576 215.441 216.499 215.514C216.421 215.587 216.349 215.688 216.282 215.806C216.146 216.042 216.006 216.385 215.86 216.827C215.566 217.713 215.236 219.035 214.869 220.788C214.135 224.294 213.247 229.55 212.206 236.553L212.601 236.612ZM216.803 215.777C217.437 215.777 218.311 216.207 219.443 217.15L219.699 216.843C218.56 215.894 217.589 215.377 216.803 215.377V215.777ZM219.416 217.123C219.821 217.618 220.01 218.095 220.01 218.558H220.41C220.41 217.979 220.172 217.415 219.726 216.87L219.416 217.123ZM220.01 218.558C220.01 219.224 219.811 219.821 219.411 220.354L219.731 220.594C220.183 219.991 220.41 219.311 220.41 218.558H220.01ZM219.411 220.354C219.016 220.88 218.552 221.125 218.01 221.125V221.525C218.698 221.525 219.274 221.203 219.731 220.594L219.411 220.354ZM217.817 221.274C215.685 229.232 214.193 237.38 213.34 245.716L213.738 245.757C214.589 237.441 216.077 229.314 218.203 221.377L217.817 221.274ZM213.723 245.816C216.32 239.773 219.244 234.703 222.495 230.604L222.182 230.355C218.904 234.488 215.963 239.59 213.355 245.658L213.723 245.816ZM222.495 230.604C225.797 226.453 229.091 223.397 232.376 221.426L232.171 221.083C228.832 223.086 225.503 226.18 222.182 230.355L222.495 230.604ZM232.377 221.425C235.715 219.404 238.825 218.403 241.712 218.403V218.003C238.732 218.003 235.55 219.036 232.17 221.083L232.377 221.425ZM241.712 218.403C244.918 218.403 247.51 219.607 249.506 222.02L249.814 221.766C247.741 219.258 245.034 218.003 241.712 218.003V218.403ZM249.508 222.024C251.549 224.389 252.582 227.719 252.582 232.041H252.982C252.982 227.658 251.934 224.223 249.811 221.762L249.508 222.024ZM252.582 232.041C252.582 238.103 250.631 245.311 246.711 253.671L247.073 253.841C251.007 245.453 252.982 238.184 252.982 232.041H252.582ZM246.874 253.955C247.159 253.981 247.622 253.948 248.249 253.865C248.881 253.782 249.695 253.645 250.691 253.455L250.616 253.063C249.624 253.251 248.818 253.387 248.197 253.469C247.569 253.552 247.146 253.578 246.91 253.557L246.874 253.955ZM250.678 253.457C251.06 253.41 252.033 253.267 253.593 253.031L253.533 252.635C251.971 252.872 251.004 253.014 250.628 253.061L250.678 253.457ZM253.599 253.03C255.153 252.747 256.441 252.607 257.466 252.607V252.207C256.408 252.207 255.095 252.351 253.527 252.636L253.599 253.03ZM257.466 252.607C258.172 252.607 258.669 252.655 258.972 252.742L259.082 252.357C258.722 252.254 258.179 252.207 257.466 252.207V252.607ZM258.972 252.742C259.102 252.779 259.184 252.839 259.236 252.912C259.289 252.988 259.324 253.098 259.324 253.259H259.724C259.724 253.041 259.676 252.844 259.563 252.683C259.449 252.52 259.283 252.414 259.082 252.357L258.972 252.742ZM259.327 253.223L259.185 254.004L259.579 254.075L259.72 253.295L259.327 253.223ZM259.319 253.85C259.179 253.896 259.066 253.93 258.978 253.952C258.887 253.975 258.836 253.982 258.814 253.982V254.382C258.887 254.382 258.978 254.364 259.075 254.34C259.177 254.315 259.3 254.278 259.445 254.229L259.319 253.85ZM258.814 253.982C258.759 253.982 258.723 253.964 258.69 253.92C258.649 253.865 258.608 253.763 258.587 253.589L258.19 253.639C258.215 253.843 258.269 254.025 258.37 254.16C258.479 254.305 258.633 254.382 258.814 254.382V253.982ZM258.388 253.414C257.237 253.414 255.616 253.581 253.531 253.913L253.594 254.308C255.673 253.977 257.269 253.814 258.388 253.814V253.414ZM253.531 253.913C251.443 254.245 249.567 254.649 247.902 255.125L248.012 255.509C249.658 255.039 251.519 254.638 253.594 254.308L253.531 253.913ZM247.907 255.123C247.077 255.337 246.451 255.529 246.035 255.7C245.829 255.785 245.663 255.869 245.548 255.955C245.491 255.998 245.436 256.049 245.397 256.11C245.357 256.173 245.329 256.257 245.348 256.35L245.74 256.271C245.747 256.305 245.734 256.326 245.735 256.325C245.737 256.32 245.751 256.303 245.788 256.275C245.862 256.22 245.992 256.15 246.188 256.07C246.577 255.909 247.181 255.723 248.006 255.511L247.907 255.123ZM245.373 256.206C239.896 265.13 233.239 272.943 225.402 279.648L225.662 279.952C233.531 273.22 240.216 265.374 245.714 256.415L245.373 256.206ZM225.403 279.647C220.917 283.425 216.815 286.205 213.098 287.993L213.271 288.354C217.028 286.546 221.158 283.744 225.661 279.953L225.403 279.647ZM213.096 287.994C209.37 289.833 206.257 290.741 203.746 290.741V291.141C206.345 291.141 209.523 290.204 213.273 288.353L213.096 287.994ZM199.501 286.47C199.501 287.426 199.857 288.176 200.578 288.691L200.811 288.365C200.207 287.934 199.901 287.312 199.901 286.47H199.501ZM200.573 288.687C201.237 289.197 202.186 289.438 203.391 289.438V289.038C202.231 289.038 201.383 288.805 200.817 288.37L200.573 288.687ZM203.391 289.438C206.234 289.438 209.889 288.188 214.346 285.723L214.152 285.373C209.714 287.828 206.131 289.038 203.391 289.038V289.438ZM214.344 285.723C218.812 283.299 223.558 279.644 228.581 274.763L228.302 274.476C223.296 279.34 218.58 282.97 214.153 285.372L214.344 285.723ZM228.581 274.763C233.609 269.877 238.256 263.973 242.521 257.054L242.18 256.844C237.93 263.739 233.303 269.616 228.302 274.476L228.581 274.763ZM242.304 256.755C236.516 258.13 230.753 260.265 225.016 263.157L225.196 263.514C230.908 260.635 236.641 258.512 242.397 257.144L242.304 256.755ZM225.016 263.157C219.283 266.048 214.351 269.106 210.223 272.333L210.469 272.648C214.572 269.44 219.481 266.396 225.196 263.514L225.016 263.157ZM210.148 272.461C209.958 273.741 209.839 274.764 209.791 275.529L210.19 275.554C210.237 274.805 210.355 273.795 210.544 272.52L210.148 272.461ZM209.792 275.521C209.603 277.365 209.414 278.728 209.227 279.616L209.619 279.699C209.81 278.789 210 277.409 210.19 275.562L209.792 275.521ZM209.229 279.609C209.114 280.071 208.974 280.396 208.82 280.602C208.67 280.802 208.517 280.877 208.359 280.877V281.277C208.674 281.277 208.935 281.115 209.14 280.842C209.34 280.575 209.496 280.19 209.617 279.706L209.229 279.609ZM208.359 280.877C208.105 280.877 207.799 280.731 207.436 280.368L207.153 280.651C207.547 281.044 207.95 281.277 208.359 281.277V280.877ZM207.492 280.476C207.447 280.207 207.423 279.864 207.423 279.445H207.023C207.023 279.877 207.047 280.244 207.097 280.542L207.492 280.476ZM207.423 279.445C207.423 279.127 207.469 278.594 207.564 277.837L207.167 277.788C207.072 278.545 207.023 279.1 207.023 279.445H207.423ZM207.565 277.813C207.565 277.691 207.609 277.355 207.704 276.781L207.31 276.715C207.216 277.277 207.165 277.65 207.165 277.813H207.565ZM207.706 276.765C207.755 276.181 207.731 275.619 207.633 275.08L207.239 275.152C207.331 275.654 207.354 276.18 207.308 276.731L207.706 276.765ZM207.297 274.973C204.714 277.485 202.769 279.695 201.47 281.603C200.173 283.506 199.501 285.132 199.501 286.47H199.901C199.901 285.254 200.518 283.71 201.8 281.828C203.079 279.951 205.002 277.762 207.576 275.259L207.297 274.973ZM210.743 270.881C218.262 265.679 224.306 262.068 228.877 260.042L228.715 259.676C224.109 261.718 218.041 265.345 210.516 270.552L210.743 270.881ZM228.879 260.041C233.461 257.962 237.493 256.501 240.978 255.653L240.884 255.265C237.367 256.12 233.31 257.592 228.714 259.677L228.879 260.041ZM240.969 255.655C241.968 255.465 242.743 255.249 243.285 255.002L243.119 254.638C242.62 254.865 241.882 255.074 240.894 255.262L240.969 255.655ZM243.351 254.954C244.227 253.981 245.207 252.179 246.296 249.575L245.927 249.421C244.84 252.021 243.88 253.767 243.053 254.686L243.351 254.954ZM246.295 249.578C247.435 246.964 248.385 244.091 249.144 240.958L248.756 240.864C248.001 243.977 247.058 246.828 245.928 249.418L246.295 249.578ZM249.144 240.96C249.951 237.78 250.356 234.948 250.356 232.467H249.956C249.956 234.906 249.558 237.704 248.756 240.862L249.144 240.96ZM250.356 232.467C250.356 231.377 250.333 230.566 250.285 230.036L249.886 230.072C249.933 230.583 249.956 231.38 249.956 232.467H250.356ZM250.284 230.033C249.951 226.839 249.043 224.359 247.54 222.614L247.237 222.875C248.668 224.537 249.558 226.929 249.887 230.075L250.284 230.033ZM247.543 222.616C246.086 220.869 244.232 219.99 241.996 219.99V220.39C244.111 220.39 245.853 221.214 247.235 222.873L247.543 222.616ZM241.996 219.99C237.95 219.99 233.528 222.156 228.734 226.427L229 226.726C233.763 222.482 238.093 220.39 241.996 220.39V219.99ZM228.734 226.427C223.93 230.709 219.775 236.719 216.266 244.448L216.631 244.613C220.124 236.919 224.248 230.96 229 226.726L228.734 226.427ZM216.267 244.447C212.753 252.139 210.809 260.894 210.43 270.708L210.829 270.724C211.207 260.953 213.142 252.25 216.631 244.614L216.267 244.447Z" fill="#EC5772"/>
<path d="M194.733 21.4002C194.71 22.2723 194.699 23.1332 194.676 24.0053C194.642 25.3078 194.665 26.6104 194.495 27.9129C194.472 28.1281 194.472 28.3433 194.461 28.5585C194.416 30.4841 194.212 32.3869 193.985 34.2898C193.928 34.7202 193.849 35.1506 193.781 35.5696C193.77 35.6376 193.736 35.7056 193.713 35.7735C193.679 35.8868 193.498 36.0114 193.373 35.9887C193.271 35.9774 193.158 35.9321 193.09 35.8641C193.011 35.7962 192.965 35.6829 192.931 35.5923C192.897 35.4904 192.875 35.3771 192.875 35.2752C192.818 33.9726 192.512 32.6927 192.331 31.4128C192.24 30.7672 192.116 30.1329 192.002 29.4873C191.719 27.9922 191.289 26.5311 190.7 25.1266C189.771 22.918 188.751 20.7659 187.527 18.7045C186.066 16.2353 184.944 13.6076 183.97 10.9119C183.72 10.2323 183.551 9.53004 183.369 8.82779C183.018 7.47994 182.973 6.10943 183.086 4.7276C183.211 3.26648 183.822 2.02057 184.899 1.00118C185.465 0.457512 186.134 0.129043 186.915 0.0271049C187.584 -0.063507 188.207 0.0837374 188.83 0.310267C189.453 0.536797 189.986 0.921898 190.473 1.3523C191.255 2.06587 191.9 2.88138 192.399 3.82148C193.067 5.07872 193.509 6.41525 193.827 7.79708C194.144 9.17891 194.348 10.5721 194.506 11.9766C194.835 14.8648 194.914 17.7531 194.835 20.6527C194.824 20.9018 194.812 21.1623 194.801 21.4115C194.767 21.4002 194.744 21.4002 194.733 21.4002Z" fill="#FF8267"/>
<path d="M200.874 17.0849C200.84 15.6238 200.987 14.038 201.304 12.4637C201.655 10.6741 202.279 8.9751 203.174 7.37807C203.581 6.64184 204.069 5.97358 204.635 5.35062C205.179 4.76165 205.813 4.28593 206.55 3.94614C207.83 3.34583 208.929 3.6743 209.835 4.54644C210.345 5.03348 210.685 5.63379 210.923 6.2794C211.41 7.6046 211.524 8.96378 211.308 10.3456C211.082 11.8181 210.73 13.2565 210.187 14.6497C209.099 17.4473 208.125 20.3016 206.946 23.0653C206.448 24.2319 206.006 25.4212 205.587 26.6218C205.043 28.1622 204.669 29.7479 204.511 31.3789C204.454 31.9566 204.499 32.5342 204.499 33.1119C204.499 33.2591 204.511 33.395 204.511 33.5423C204.511 33.7235 204.375 33.9047 204.205 33.95C204.046 33.9953 203.808 33.9047 203.751 33.7348C203.638 33.429 203.502 33.1345 203.434 32.8174C203.196 31.832 202.981 30.8352 202.766 29.8498C202.392 28.0829 202.018 26.3046 201.644 24.5377C201.372 23.2238 201.191 21.8986 201.044 20.5621C200.93 19.4634 200.874 18.3421 200.874 17.0849Z" fill="#FF8267"/>
<path d="M211.852 23.5749C211.852 23.4276 211.841 23.2804 211.852 23.1445C211.954 21.4115 212.056 19.6672 212.43 17.9683C213.008 15.3065 214.356 13.1432 216.611 11.5688C217.03 11.2856 217.472 11.0365 217.925 10.8099C219.228 10.187 220.587 10.1643 221.947 10.5947C222.321 10.708 222.695 10.8892 223.023 11.1044C224.371 11.9652 224.938 13.2451 224.836 14.8082C224.779 15.7256 224.485 16.5864 223.918 17.334C223.635 17.7078 223.34 18.0702 223.023 18.4213C221.777 19.7918 220.519 21.151 219.273 22.4989C218.854 22.9519 218.435 23.405 218.004 23.8354C217.211 24.6396 216.497 25.5004 215.908 26.4631C215.534 27.0861 215.138 27.6864 214.764 28.3094C214.243 29.1815 213.835 30.1103 213.574 31.107C213.54 31.2429 213.472 31.3788 213.416 31.5147C213.348 31.662 213.121 31.7866 212.963 31.7526C212.815 31.7186 212.713 31.6167 212.657 31.4694C212.634 31.4015 212.611 31.3335 212.611 31.2542C212.453 29.929 212.317 28.5925 212.124 27.2673C212.033 26.5877 211.977 25.8968 211.954 25.2059C211.932 24.6622 211.898 24.1185 211.864 23.5749H211.852Z" fill="#FF8267"/>
<path d="M170 20.7205C169.989 19.6672 170.25 18.897 170.703 18.1721C170.895 17.8663 171.156 17.6058 171.462 17.4019C172.312 16.8469 173.229 16.5864 174.249 16.8016C175.575 17.0734 176.674 17.7304 177.557 18.7497C178.271 19.5766 178.837 20.494 179.279 21.5021C179.755 22.6007 180.14 23.7334 180.469 24.8774C181.217 27.4825 181.885 30.1215 182.327 32.8059C182.486 33.7347 182.576 34.6748 182.69 35.6036C182.735 35.966 182.769 36.3171 182.814 36.6796C182.826 36.7815 182.69 36.9627 182.565 37.008C182.418 37.076 182.134 37.0194 182.066 36.8948C181.976 36.7362 181.885 36.5776 181.84 36.4077C181.171 34.0405 179.801 32.115 178.067 30.416C177.467 29.8384 176.821 29.306 176.152 28.819C174.883 27.9015 173.739 26.8482 172.64 25.7495C171.87 24.968 171.258 24.0732 170.748 23.1104C170.476 22.6007 170.261 22.0571 170.136 21.4907C170.068 21.1849 170.023 20.8565 170 20.7205Z" fill="#FF8267"/>
<path d="M114.72 519.053C113.474 519.053 112.695 517.029 112.384 512.98C112.259 511.236 112.197 509.772 112.197 508.588C112.197 504.789 112.415 500.335 112.851 495.227L113.038 492.237L110.515 493.171H110.141C109.83 493.171 109.581 493.078 109.394 492.891C108.896 492.393 108.646 491.926 108.646 491.49C108.646 490.867 109.02 490.4 109.768 490.088C110.515 489.714 111.699 489.309 113.318 488.873C113.816 484.326 114.657 478.315 115.841 470.84C117.024 463.365 118.146 456.918 119.205 451.499C116.9 451.997 114.377 452.714 111.636 453.648C108.833 454.52 106.342 455.361 104.161 456.171C103.352 456.42 102.48 456.732 101.545 457.105C100.611 457.417 99.9568 457.604 99.5831 457.666C99.2716 457.728 98.9913 457.635 98.7422 457.386C98.3061 457.074 98.0881 456.732 98.0881 456.358C98.0881 455.423 98.9913 454.489 100.798 453.555C102.542 452.62 104.161 452.153 105.656 452.153C106.902 452.153 107.65 452.402 107.899 452.901C111.699 451.904 115.561 450.72 119.485 449.35C119.734 446.921 120.17 444.305 120.793 441.501C121.416 438.698 121.977 437.203 122.475 437.017C122.724 436.767 123.035 436.643 123.409 436.643C123.97 436.643 124.437 436.799 124.811 437.11C125.185 437.359 125.403 437.733 125.465 438.231C125.34 439.352 124.998 440.723 124.437 442.342C123.69 444.959 123.285 447.014 123.222 448.509C146.893 442.529 161.593 439.539 167.324 439.539C168.694 439.539 169.629 439.664 170.127 439.913C170.688 440.162 171.03 440.505 171.155 440.941V441.128C171.155 441.252 171.093 441.47 170.968 441.782C170.906 442.031 170.843 442.218 170.781 442.342C170.47 443.09 169.94 443.37 169.193 443.183C168.694 442.498 167.106 442.156 164.428 442.156C157.389 442.156 148.73 443.526 138.452 446.267C128.237 448.945 123.004 450.316 122.755 450.378C119.703 467.259 117.554 479.686 116.308 487.659C125.216 484.918 132.473 483.267 138.079 482.707C138.452 482.644 138.951 482.613 139.574 482.613C141.318 482.613 142.252 482.925 142.377 483.548V483.734C142.377 484.108 142.128 484.357 141.629 484.482C141.318 484.607 141.069 484.482 140.882 484.108C138.016 484.42 135.276 484.949 132.659 485.697C130.043 486.444 126.555 487.565 122.195 489.06C119.329 490.057 117.18 490.773 115.747 491.209C115.249 494.012 114.875 497.252 114.626 500.927C114.315 504.54 114.159 507.841 114.159 510.831C114.159 512.575 114.19 513.79 114.253 514.475C114.315 515.97 114.533 516.998 114.907 517.558C115.405 517.185 115.81 516.998 116.121 516.998C116.37 516.998 116.495 517.122 116.495 517.371C116.495 517.745 116.308 518.119 115.934 518.493C115.623 518.866 115.218 519.053 114.72 519.053ZM147.519 496.255C147.208 497.75 147.052 499.12 147.052 500.366C147.052 501.986 147.457 502.795 148.266 502.795C149.388 502.795 151.007 501.55 153.125 499.058C155.305 496.566 157.299 494.075 159.105 491.583C160.289 489.964 161.41 488.313 162.469 486.631C163.59 484.825 164.4 483.641 164.898 483.08C165.459 482.52 165.895 482.551 166.206 483.174C164.836 486.164 162.998 489.341 160.693 492.704C158.389 496.006 156.084 498.778 153.779 501.02C151.474 503.263 149.575 504.384 148.08 504.384C146.211 504.384 145.276 502.515 145.276 498.778C145.276 495.975 145.806 492.268 146.865 487.659C146.865 486.475 146.522 485.634 145.837 485.136C145.214 484.638 144.311 484.326 143.127 484.202C142.255 484.762 141.539 485.043 140.978 485.043C140.48 485.043 140.231 484.731 140.231 484.108L140.418 483.174C138.985 482.302 138.269 481.087 138.269 479.53C138.269 477.848 138.985 476.01 140.418 474.017C141.851 472.024 143.252 470.591 144.622 469.719C145.557 469.283 146.398 469.065 147.145 469.065C148.391 469.065 149.014 469.813 149.014 471.308C149.014 472.74 148.516 474.547 147.519 476.727C146.585 478.907 145.713 480.558 144.903 481.679C147.706 482.8 149.107 484.762 149.107 487.565C149.107 488.5 148.983 489.559 148.734 490.742C148.484 491.926 148.329 492.642 148.266 492.891L147.519 496.255ZM140.978 479.623C140.978 480.246 141.29 480.589 141.913 480.651C143.034 478.907 144 477.194 144.809 475.512C145.619 473.83 146.024 472.616 146.024 471.868C145.214 472.18 144.155 473.301 142.847 475.232C141.601 477.101 140.978 478.564 140.978 479.623ZM169.721 494.012C167.665 494.262 166.17 493.826 165.236 492.704C164.239 491.583 163.741 490.088 163.741 488.219C163.741 486.102 164.27 483.89 165.329 481.585C166.326 479.281 167.509 477.63 168.88 476.633C169.939 476.01 170.811 475.699 171.496 475.699C172.555 475.699 173.084 476.291 173.084 477.474C173.084 478.907 172.399 480.464 171.029 482.146C169.721 483.766 168.163 484.7 166.357 484.949C165.921 486.444 165.703 487.752 165.703 488.873C165.703 491.24 166.699 492.424 168.693 492.424C169.939 492.424 171.465 491.957 173.271 491.022C175.14 490.026 176.915 488.842 178.597 487.472C178.846 487.41 179.22 487.129 179.718 486.631C180.279 486.07 180.653 485.697 180.839 485.51C180.964 485.385 181.4 484.949 182.148 484.202C182.957 483.392 183.549 482.987 183.923 482.987C184.483 483.174 183.954 484.171 182.334 485.977C180.715 487.783 178.69 489.527 176.261 491.209C173.832 492.891 171.652 493.826 169.721 494.012ZM167.198 483.08C167.821 482.644 168.568 481.866 169.44 480.745C170.375 479.623 170.842 478.689 170.842 477.941C170.157 478.253 169.534 478.845 168.973 479.717C167.976 480.9 167.385 482.021 167.198 483.08ZM186.404 495.694C186.28 495.819 186.062 495.881 185.75 495.881C184.878 495.881 184.131 494.822 183.508 492.704C182.885 490.586 182.573 488.219 182.573 485.603C182.573 483.298 182.854 481.367 183.414 479.81C183.913 478.253 184.66 477.505 185.657 477.568C186.342 477.692 186.809 477.879 187.058 478.128C187.37 478.377 187.526 478.72 187.526 479.156C187.526 479.717 187.183 480.869 186.498 482.613C185.252 485.541 184.629 487.908 184.629 489.714C184.629 491.583 185.065 493.265 185.937 494.76C186.435 494.386 186.84 494.199 187.152 494.199C187.339 494.199 187.432 494.324 187.432 494.573C187.432 494.635 187.09 495.009 186.404 495.694ZM184.442 469.065C184.442 468.567 184.598 468.131 184.909 467.757C185.283 467.383 185.719 467.196 186.217 467.196C186.778 467.196 187.339 467.477 187.899 468.037C188.148 468.349 188.273 468.722 188.273 469.158C188.273 469.719 188.086 470.217 187.712 470.653C187.339 471.089 186.903 471.308 186.404 471.308C185.906 471.308 185.47 471.121 185.096 470.747C184.66 470.311 184.442 469.75 184.442 469.065ZM199.272 519.52C197.154 519.707 195.815 515.596 195.254 507.187C195.005 502.702 194.88 499.245 194.88 496.815C194.88 485.167 196.064 471.712 198.431 456.451C191.579 457.697 185.225 459.192 179.37 460.936C177.065 461.621 175.508 461.995 174.698 462.057H174.418C173.857 462.057 173.484 461.933 173.297 461.684C173.11 461.372 172.985 460.905 172.923 460.282C173.172 459.223 173.826 458.694 174.885 458.694L176.941 458.787C177.128 458.787 177.501 458.694 178.062 458.507C186.347 456.763 193.261 455.361 198.805 454.302C199.303 452.06 199.646 450.378 199.832 449.257C200.58 445.582 201.359 442.342 202.168 439.539C202.604 438.854 203.258 438.512 204.13 438.512C204.629 438.512 205.065 438.73 205.439 439.166C205.812 439.539 205.999 440.007 205.999 440.567C205.563 441.938 205.096 443.183 204.598 444.305C204.411 444.803 203.975 446.049 203.29 448.042C202.604 449.973 202.106 451.873 201.795 453.742L208.989 452.62C213.599 451.935 217.741 451.343 221.416 450.845C225.154 450.347 227.925 450.098 229.732 450.098C232.66 450.098 234.123 450.658 234.123 451.779C234.123 452.34 233.937 452.932 233.563 453.555C233.5 453.617 233.345 453.742 233.096 453.928C232.846 454.115 232.566 454.209 232.255 454.209C231.445 454.209 230.915 453.866 230.666 453.181C228.984 452.994 227.116 452.901 225.06 452.901C223.627 452.901 222.537 452.932 221.79 452.994C217.928 453.181 212.882 453.835 206.653 454.956C203.227 455.517 201.421 455.797 201.234 455.797C199.739 462.961 198.618 470.311 197.87 477.848C197.123 485.385 196.749 492.362 196.749 498.778C196.749 502.204 196.842 505.225 197.029 507.841C197.403 512.824 197.933 516.063 198.618 517.558C198.68 517.807 198.96 518.057 199.459 518.306C199.957 518.555 200.206 518.742 200.206 518.866C200.206 518.929 200.175 518.991 200.113 519.053C200.05 519.178 199.988 519.271 199.926 519.334L199.272 519.52ZM226.02 498.871C223.778 498.871 222.127 497.906 221.068 495.975C220.071 493.981 219.511 491.583 219.386 488.78C219.324 488.531 219.168 488.188 218.919 487.752C218.67 487.316 218.483 487.005 218.358 486.818C217.922 487.129 217.144 488.001 216.022 489.434C215.462 490.119 214.372 491.334 212.752 493.078C210.385 496.255 208.548 497.843 207.24 497.843C206.181 497.843 205.651 496.815 205.651 494.76C205.651 492.891 206.118 490.68 207.053 488.126C207.987 485.572 209.264 483.392 210.884 481.585C212.503 479.779 214.278 478.876 216.209 478.876C216.77 478.876 217.424 478.969 218.172 479.156C218.545 479.281 219.075 479.748 219.76 480.558C220.507 481.367 221.161 482.302 221.722 483.361C222.283 484.42 222.563 485.354 222.563 486.164C222.563 487.098 222.22 487.783 221.535 488.219C221.597 491.521 222.034 493.888 222.843 495.321C223.653 496.691 224.805 497.376 226.3 497.376C229.54 497.376 234.274 493.514 240.503 485.79C242.434 483.423 243.555 482.489 243.866 482.987C244.178 483.423 243.15 485.074 240.783 487.939C238.478 490.742 235.862 493.327 232.934 495.694C230.069 497.999 227.764 499.058 226.02 498.871ZM207.613 494.293C207.613 494.729 207.676 495.321 207.8 496.068C208.734 495.134 210.198 493.421 212.192 490.929C214.683 487.752 216.677 485.416 218.172 483.921C217.798 481.928 217.05 480.931 215.929 480.931C214.932 480.931 213.749 481.679 212.378 483.174C211.07 484.607 209.949 486.382 209.015 488.5C208.08 490.618 207.613 492.549 207.613 494.293ZM236.68 554.652C233.379 553.905 231.728 550.977 231.728 545.869C231.728 543.315 232.04 540.886 232.662 538.581C234.344 532.415 237.801 525.438 243.034 517.652C248.266 509.928 254.9 502.671 262.936 495.881C262.998 495.071 262.811 493.483 262.375 491.116C262.001 488.749 261.378 486.631 260.506 484.762C259.697 482.831 258.731 481.866 257.61 481.866C257.174 481.866 256.707 482.053 256.208 482.426C256.084 483.859 255.803 484.856 255.367 485.416C254.994 485.977 254.153 486.164 252.845 485.977C251.412 487.846 250.01 489.932 248.64 492.237C247.27 494.542 245.93 496.815 244.622 499.058C243.439 501.176 242.349 502.235 241.352 502.235C240.667 502.235 240.106 501.705 239.67 500.646C239.234 499.525 239.016 498.092 239.016 496.348C239.016 493.296 239.857 489.309 241.539 484.389C242.286 482.146 243.532 480.09 245.276 478.222C247.02 476.291 248.765 475.325 250.509 475.325C252.627 475.325 254.371 476.851 255.741 479.904C256.302 479.654 256.925 479.53 257.61 479.53C259.977 479.53 261.659 480.963 262.655 483.828C263.652 486.693 264.368 490.088 264.804 494.012C264.991 494.199 266.611 492.922 269.663 490.182C272.466 487.69 274.74 485.759 276.484 484.389C278.29 483.018 279.38 482.52 279.754 482.894C280.003 483.205 279.941 483.579 279.567 484.015C279.193 484.389 278.103 485.323 276.297 486.818C275.612 487.378 274.21 488.562 272.092 490.368C270.037 492.175 267.67 494.293 264.991 496.722C265.24 504.882 264.244 513.447 262.001 522.417C259.759 531.449 256.053 539.204 250.882 545.682C248.765 548.361 246.522 550.603 244.155 552.41C241.85 554.279 239.359 555.026 236.68 554.652ZM233.13 546.15C233.13 548.392 233.503 550.167 234.251 551.475C234.936 552.846 236.026 553.531 237.521 553.531C239.701 553.531 242.473 552.098 245.837 549.233C251.256 544.125 255.492 537.086 258.544 528.116C261.659 519.209 263.216 510.021 263.216 500.553C263.216 499.743 263.185 499.058 263.123 498.497C257.392 503.73 252.346 508.931 247.986 514.101C243.626 519.334 240.013 524.877 237.147 530.733C236.026 532.664 235.092 535.062 234.344 537.927C233.535 540.855 233.13 543.596 233.13 546.15ZM241.539 497.002C241.539 498.186 241.57 499.058 241.632 499.619C242.629 498.124 243.999 495.819 245.743 492.704C246.055 492.144 246.771 490.898 247.892 488.967C249.014 487.036 250.166 485.323 251.35 483.828C251.412 482.146 251.287 480.9 250.976 480.09C250.664 479.281 250.228 478.876 249.668 478.876C248.671 478.876 247.519 479.779 246.211 481.585C244.965 483.33 243.875 485.603 242.94 488.406C242.006 491.147 241.539 494.012 241.539 497.002Z" fill="#F58E9E"/>
<path d="M89.12 552H99.52V551.4C98.56 551.4 97.92 549.88 97.92 549.08V517.6H97.52C97.52 519.08 90.12 523.12 86.6 524.72L86.76 525.2C89.28 524 90.72 524.32 90.72 526.32V549.08C90.72 549.88 90.08 551.4 89.12 551.4V552ZM114.213 529.28C110.293 529.28 106.693 531.6 105.333 534.16V524.4H123.813L124.893 518.4L125.253 516.44L124.653 516.32C124.493 517.28 122.853 518 122.053 518H104.733V536.32H105.333C105.333 533.4 109.573 529.88 114.213 529.88C118.613 529.88 120.093 536.4 120.093 541C120.093 545.6 118.613 551.8 114.213 551.8C109.933 551.8 107.693 549.68 107.693 544.68C107.693 542.8 106.493 541.68 105.093 541.68C103.693 541.68 102.733 542.88 102.733 544.32C102.733 547.92 107.933 552.4 114.213 552.4C120.973 552.4 127.293 548.36 127.293 541C127.293 534.84 122.293 529.28 114.213 529.28Z" fill="#E4003A"/>
<path d="M159.711 535C159.711 545 166.191 552.4 174.551 552.4C182.911 552.4 189.391 545 189.391 535C189.391 525 182.911 517.6 174.551 517.6C166.191 517.6 159.711 525 159.711 535ZM166.911 535C166.911 526.84 169.151 518.2 174.551 518.2C179.951 518.2 182.191 526.84 182.191 535C182.191 543.16 179.951 551.8 174.551 551.8C169.151 551.8 166.911 543.16 166.911 535ZM192.642 518L192.602 524V526H193.202C193.202 525.04 194.722 524.4 195.522 524.4H210.522C205.402 534.88 195.402 537.32 195.402 552.4H202.602C202.602 537.32 206.122 534.88 211.242 524.4L214.242 518H192.642Z" fill="#E4003A"/>
<path d="M268.098 545.6H249.818C249.818 539.08 271.698 539.44 271.698 527.56C271.698 522.52 267.658 517.6 259.338 517.6C253.058 517.6 248.378 522.08 248.378 525.68C248.378 527.12 249.338 528.32 250.738 528.32C252.138 528.32 253.338 527.2 253.338 525.32C253.338 520.72 255.858 518.2 259.338 518.2C262.858 518.2 264.498 522.48 264.498 526.32C264.498 537.84 249.218 539.08 249.218 545.6V552H271.018V544H270.418C270.418 544.96 268.898 545.6 268.098 545.6ZM294.621 545.6H276.341C276.341 539.08 298.221 539.44 298.221 527.56C298.221 522.52 294.181 517.6 285.861 517.6C279.581 517.6 274.901 522.08 274.901 525.68C274.901 527.12 275.861 528.32 277.261 528.32C278.661 528.32 279.861 527.2 279.861 525.32C279.861 520.72 282.381 518.2 285.861 518.2C289.381 518.2 291.021 522.48 291.021 526.32C291.021 537.84 275.741 539.08 275.741 545.6V552H297.541V544H296.941C296.941 544.96 295.421 545.6 294.621 545.6Z" fill="#E4003A"/>
<circle cx="144.5" cy="537.5" r="4.5" fill="#E4003A"/>
<circle cx="231.5" cy="537.5" r="4.5" fill="#E4003A"/>
</svg>
