<?xml version="1.0" standalone="no"?>
<!DOCTYPE svg PUBLIC "-//W3C//DTD SVG 1.1//EN" "http://www.w3.org/Graphics/SVG/1.1/DTD/svg11.dtd" >
<svg xmlns="http://www.w3.org/2000/svg" xmlns:xlink="http://www.w3.org/1999/xlink" version="1.1">
<metadata>
Created by FontForge 20170731 at Wed Dec 15 17:20:49 2021
 By Aleksey,,,
Copyright (c) 2021 by Sweetest Goods. All rights reserved.
</metadata>
<defs>
<font id="Brightglow-Regular" horiz-adv-x="262" >
  <font-face 
    font-family="Brightglow"
    font-weight="400"
    font-stretch="normal"
    units-per-em="1000"
    panose-1="0 0 5 0 0 0 0 0 0 0"
    ascent="800"
    descent="-200"
    x-height="550"
    cap-height="748"
    bbox="-703 -344 1128 1025"
    underline-thickness="50"
    underline-position="-150"
    unicode-range="U+0020-E051"
  />
<missing-glyph horiz-adv-x="550" 
d="M102 800h349v-1100h-349v1100zM366 690v36h-181v-36h71v-41h-72v-36h182v36h-72v41h72zM294 507v77h-110v-114h182v37h-72zM220 547h36v-40h-36v40zM366 404v36h-182v-36h72v-41h-72v-36h110v77h72zM366 264v110h-36v-72h-146v-38h182zM366 116v124h-110v-61h38v25h36
v-52h-110v88h-36v-124h182zM366 -74v124h-182v-124h182zM220 14h110v-52h-110v52zM366 -136v36h-182v-36h77l-77 -52v-36h182v36h-112l77 52h35z" />
    <glyph glyph-name="f_f" unicode="ff" horiz-adv-x="472" 
d="M424.5 739.5q24.5 -18.5 38 -47t14.5 -55.5q0 -32 -14.5 -47t-34.5 -15q-21 0 -36 14.5t-15 44.5q0 18 6 29t18 25q5 6 9.5 12.5t4.5 13.5q-1 13 -11 20.5t-28 7.5q-21 0 -40.5 -20t-19.5 -67v-105h102q8 0 8 -7v-1q0 -7 -8 -7h-102v-483q0 -18 11 -27.5t31 -9.5
q9 0 9 -7q0 -8 -9 -8h-310q-9 0 -9 8q0 7 9 7q20 0 31 9.5t11 27.5v483h-62q-8 0 -8 7v1q0 7 8 7h62v38q0 53 18.5 90t49 56t64.5 19q39 0 63 -28q36 33 83 33q32 0 56.5 -18.5zM236 593q0 75 38 121q-18 23 -44 23q-21 0 -40.5 -20t-19.5 -67v-100h66v43zM236 535h-66v-483
q0 -16 8.5 -25t24.5 -11q16 2 24.5 11t8.5 25v483z" />
    <glyph glyph-name="f_i" unicode="fi" horiz-adv-x="458" 
d="M423 8q0 -8 -9 -8h-164q-9 0 -9 8q0 7 9 7q20 0 31 9.5t11 27.5v446q0 18 -11 27.5t-31 9.5h-80v-483q0 -18 11 -27.5t31 -9.5q9 0 9 -7q0 -8 -9 -8h-164q-9 0 -9 8q0 7 9 7q20 0 31 9.5t11 27.5v483h-62q-8 0 -8 7v1q0 7 8 7h62v43q0 52 21 89.5t53.5 56.5t67.5 19
q37 0 66.5 -18.5t45.5 -47t17 -55.5q0 -32 -14.5 -47t-34.5 -15q-21 0 -36 14.5t-15 44.5q0 18 5.5 29t14.5 21q5 6 9 12t4 13q-1 13 -16.5 23t-39.5 10q-23 0 -45.5 -20.5t-22.5 -66.5v-105h192q4 0 7 -3t3 -7v-488q0 -18 11 -27.5t31 -9.5q9 0 9 -7z" />
    <glyph glyph-name=".notdef" horiz-adv-x="550" 
d="M102 800h349v-1100h-349v1100zM366 690v36h-181v-36h71v-41h-72v-36h182v36h-72v41h72zM294 507v77h-110v-114h182v37h-72zM220 547h36v-40h-36v40zM366 404v36h-182v-36h72v-41h-72v-36h110v77h72zM366 264v110h-36v-72h-146v-38h182zM366 116v124h-110v-61h38v25h36
v-52h-110v88h-36v-124h182zM366 -74v124h-182v-124h182zM220 14h110v-52h-110v52zM366 -136v36h-182v-36h77l-77 -52v-36h182v36h-112l77 52h35z" />
    <glyph glyph-name=".null" horiz-adv-x="0" 
 />
    <glyph glyph-name="nonmarkingreturn" horiz-adv-x="333" 
 />
    <glyph glyph-name="space" unicode=" " horiz-adv-x="160" 
 />
    <glyph glyph-name="exclam" unicode="!" horiz-adv-x="190" 
d="M88 179q-3 3 -3 7q-1 122 -7 207t-17 171q-4 35 -7.5 67t-3.5 57q0 29 12 49.5t33 20.5t33 -20.5t12 -49.5q0 -35 -11 -123q-10 -86 -16.5 -171.5t-7.5 -207.5q0 -4 -3 -7t-7 -3t-7 3zM63 10q-13 20 -13 50t13 50.5t32 20.5t32 -20.5t13 -50.5t-13 -50t-32 -20t-32 20z
" />
    <glyph glyph-name="quotedbl" unicode="&#x22;" horiz-adv-x="270" 
d="M67 500q-7 0 -7 11q0 43 -6 73t-16 62q-5 15 -9 30t-4 29q0 27 11.5 45t33.5 18t33.5 -18t11.5 -45q0 -20 -14 -57q-12 -35 -19 -64.5t-7 -72.5q0 -11 -7 -11h-1zM187 500q-7 0 -7 11q0 43 -6 73t-16 62q-5 15 -9 30t-4 29q0 27 11.5 45t33.5 18t33.5 -18t11.5 -45
q0 -20 -14 -57q-12 -35 -19 -64.5t-7 -72.5q0 -11 -7 -11h-1z" />
    <glyph glyph-name="numbersign" unicode="#" horiz-adv-x="424" 
d="M396 520q8 0 8 -7v-1q0 -7 -8 -7h-90l-33 -225h83q8 0 8 -7v-1q0 -7 -8 -7h-85l-39 -266q-2 -8 -7 -8h-1q-3 0 -5.5 2t-1.5 6l39 266h-125l-39 -266q-2 -8 -7 -8h-1q-3 0 -5.5 2t-1.5 6l39 266h-88q-8 0 -8 7v1q0 7 8 7h90l32 225h-82q-8 0 -8 7v1q0 7 8 7h85l33 230
q2 8 7 8h2q3 0 5 -2.5t1 -6.5l-33 -229h125l33 230q2 8 7 8h2q3 0 5 -2.5t1 -6.5l-33 -229h88zM133 280h125l32 225h-124z" />
    <glyph glyph-name="dollar" unicode="$" horiz-adv-x="417" 
d="M217 452l45 -60q53 -68 79 -114.5t26 -99.5q0 -82 -39.5 -134.5t-110.5 -53.5v-63q0 -8 -7 -8h-1q-7 0 -7 8v64q-24 2 -40.5 10.5t-34.5 21.5q-2 2 -10 7.5t-14 5.5q-10 0 -16.5 -12t-6.5 -26q0 -8 -7 -8h-1q-7 0 -7 8v266q0 8 7 8h1q7 0 7 -8q0 -61 15 -119t42.5 -96.5
t64.5 -42.5v312l-25 33q-38 49 -61.5 83.5t-39.5 76.5t-16 87q0 80 37.5 120t92.5 40h12v32q0 8 7 8h1q7 0 7 -8v-34q22 -3 35.5 -10.5t29.5 -20.5q2 -2 10 -7.5t15 -5.5q10 0 13.5 7.5t3.5 20.5q0 8 7 8h1q7 0 7 -8v-206q0 -8 -7 -8h-1q-7 0 -7 8q0 21 -10 67.5t-34 89
t-63 50.5v-289zM155 566q17 -46 47 -92v269h-1q-32 0 -47.5 -20.5t-15.5 -58.5q0 -52 17 -98zM217 5q40 2 55.5 27.5t15.5 83.5q0 47 -18.5 91t-52.5 90v-292z" />
    <glyph glyph-name="percent" unicode="%" horiz-adv-x="664" 
d="M75 463.5q-34 45.5 -34 124.5q0 80 34 125t91 45q58 0 92.5 -45t34.5 -125t-34.5 -125t-92.5 -45q-57 0 -91 45.5zM287 -9q-3 0 -5.5 2t-1.5 6l89 751q2 8 7 8h2q3 0 5 -2.5t1 -6.5l-89 -750q-2 -8 -7 -8h-1zM204 458.5q9 30.5 9 87.5v42v42q0 57 -9 87.5t-38 30.5
t-37.5 -31.5t-8.5 -90.5v-38v-37q0 -59 8.5 -91t37.5 -32t38 30.5zM406 35.5q-34 45.5 -34 124.5q0 80 34 125t91 45q58 0 92.5 -45t34.5 -125t-34.5 -125t-92.5 -45q-57 0 -91 45.5zM535 30.5q9 30.5 9 87.5v42v42q0 57 -9 87.5t-38 30.5t-37.5 -31.5t-8.5 -90.5v-38v-37
q0 -59 8.5 -91t37.5 -32t38 30.5z" />
    <glyph glyph-name="ampersand" unicode="&#x26;" horiz-adv-x="481" 
d="M461 28l-2 -8q-4 -10 -19 -20t-46 -10q-38 0 -65 9t-47 27q-33 -36 -85 -36q-71 0 -124 44.5t-53 147.5q0 94 94 190q-48 139 -48 203q0 78 34 130.5t105 52.5q32 0 58 -21t41 -56.5t15 -76.5q0 -35 -12.5 -62.5t-31 -47.5t-50.5 -49l-32 -30q28 -83 62.5 -164t50.5 -113
l7 -13q15 60 15 140l1 57q0 46 17.5 76t47.5 30q19 0 35 -19t16 -46q0 -29 -12 -48.5t-30 -19.5q-14 0 -24 8.5t-18 8.5q-7 0 -12 -7.5t-6 -19.5q0 -2 0.5 -9t0.5 -23q0 -86 -20 -150q26 -49 45.5 -72.5t45.5 -23.5q11 0 16 6t10 19q3 7 10 7q10 0 10 -11zM156 714
q-12 -29 -12 -75q0 -72 45 -212q34 40 45.5 84t11.5 99q0 52 -13.5 92.5t-42.5 40.5q-22 0 -34 -29zM271 38q-18 21 -45 65q-17 35 -46.5 103.5t-55.5 138.5q-24 -53 -24 -124q0 -87 29.5 -146.5t87.5 -59.5q31 0 54 23z" />
    <glyph glyph-name="quotesingle" unicode="'" horiz-adv-x="130" 
d="M62 500q-7 0 -7 11q0 43 -6 73t-16 62q-5 15 -9 30t-4 29q0 27 11.5 45t33.5 18t33.5 -18t11.5 -45q0 -20 -14 -57q-12 -35 -19 -64.5t-7 -72.5q0 -11 -7 -11h-1z" />
    <glyph glyph-name="parenleft" unicode="(" horiz-adv-x="258" 
d="M143.5 112.5q23.5 -114.5 90.5 -213.5q6 -9 1 -14q-1 -1 -4 -1q-4 0 -9 6q-62 73 -103.5 137t-67.5 143.5t-26 174.5t26 174.5t67.5 143.5t103.5 137q7 10 13 5q3 -3 3 -5q0 -3 -4 -9q-67 -99 -90.5 -213.5t-28.5 -232.5q5 -118 28.5 -232.5z" />
    <glyph glyph-name="parenright" unicode=")" horiz-adv-x="258" 
d="M144.5 663q41.5 -64 67.5 -143.5t26 -174.5t-26 -174.5t-67.5 -143.5t-103.5 -137q-7 -10 -13 -5q-3 3 -3 5q0 3 4 9q67 99 90.5 213.5t28.5 232.5q-5 118 -28.5 232.5t-90.5 213.5q-6 9 -1 14q1 1 4 1q4 0 9 -6q62 -73 103.5 -137z" />
    <glyph glyph-name="asterisk" unicode="*" horiz-adv-x="334" 
d="M307.5 529q6.5 -9 6.5 -18q0 -7 -5 -15q-9 -12 -24 -12t-29 11q-8 5 -15 13.5t-14 17.5q-27 36 -57 59q2 -43 18 -82q9 -25 9 -39q0 -18 -7.5 -30t-22.5 -12t-23 12t-8 30q0 15 9 40q7 24 10.5 40t4.5 41q-20 -14 -31 -27.5t-25 -32.5q-17 -23 -27 -30q-16 -11 -30 -11
t-22 11q-5 8 -5 16q0 19 22 34q14 9 39 16q42 13 75 34q-33 21 -75 34q-25 7 -39 16q-22 15 -22 34q0 8 5 16q8 11 22 11t30 -11q10 -7 27 -30q14 -19 25 -32.5t31 -27.5q-1 25 -4.5 41t-10.5 40q-9 25 -9 40q0 18 8 30t23 12t22.5 -12t7.5 -30q0 -14 -9 -39
q-16 -39 -18 -82q30 23 57 59q7 9 14 17.5t15 13.5q14 11 29 11t24 -12q5 -8 5 -15q0 -9 -6.5 -18t-16.5 -16q-7 -5 -17 -8.5t-20 -6.5q-23 -5 -41 -12t-40 -23q22 -16 40 -23t41 -12q10 -3 20 -6.5t17 -8.5q10 -7 16.5 -16z" />
    <glyph glyph-name="plus" unicode="+" 
d="M234 360q8 0 8 -7v-1q0 -7 -8 -7h-95v-145q0 -8 -7 -8h-1q-7 0 -7 8v145h-96q-8 0 -8 7v1q0 7 8 7h96v146q0 8 7 8h1q7 0 7 -8v-146h95z" />
    <glyph glyph-name="comma" unicode="," horiz-adv-x="200" 
d="M83.5 -128.5q-1.5 4.5 1.5 7.5q21 31 29 52t15 53q1 5 1 7.5t-2 2.5q-3 0 -10.5 -2t-17.5 -2q-22 0 -36 21.5t-14 48.5t14 49t36 22t36 -25.5t14 -60.5q0 -44 -11 -85.5t-41 -88.5q-2 -4 -7 -4q-6 0 -7.5 4.5z" />
    <glyph glyph-name="hyphen" unicode="-" horiz-adv-x="212" 
d="M28 345q-8 0 -8 7v1q0 7 8 7h156q8 0 8 -7v-1q0 -7 -8 -7h-156z" />
    <glyph glyph-name="period" unicode="." horiz-adv-x="190" 
d="M63 10q-13 20 -13 50t13 50.5t32 20.5t32 -20.5t13 -50.5t-13 -50t-32 -20t-32 20z" />
    <glyph glyph-name="slash" unicode="/" horiz-adv-x="184" 
d="M27 -9q-3 0 -5.5 2t-1.5 6l129 751q2 8 7 8h2q3 0 5 -2.5t1 -6.5l-129 -750q-2 -8 -7 -8h-1z" />
    <glyph glyph-name="zero" unicode="0" horiz-adv-x="408" 
d="M77.5 87q-37.5 97 -37.5 287t37.5 287t125.5 97q90 0 127.5 -96.5t37.5 -287.5t-37.5 -287.5t-127.5 -96.5q-88 0 -125.5 97zM255 48.5q16 43.5 19.5 115t3.5 210.5t-3.5 210.5t-19.5 115t-52 43.5q-35 0 -50.5 -43.5t-19 -115t-3.5 -210.5t3.5 -210.5t19 -115
t50.5 -43.5q36 0 52 43.5z" />
    <glyph glyph-name="one" unicode="1" horiz-adv-x="280" 
d="M58 8q0 7 9 7q20 0 31 9.5t11 27.5v556q0 13 -6 13q-5 0 -15 -11l-33 -36q-6 -6 -12 -2q-3 2 -3 5.5t3 6.5q25 34 77 109l33 47q2 3 7 5.5t9 2.5h10q4 0 7 -3t3 -7v-686q0 -18 11 -27.5t31 -9.5q9 0 9 -7q0 -8 -9 -8h-164q-9 0 -9 8z" />
    <glyph glyph-name="two" unicode="2" horiz-adv-x="368" 
d="M314 200v-190q0 -4 -3 -7t-7 -3h-254q-4 0 -7 3t-3 7v60q0 10 5 19t17 24q55 68 95 160.5t61.5 185.5t21.5 166q0 65 -23 93t-70 28q-29 0 -48 -18t-19 -39q0 -13 6 -22t19 -22q14 -14 21 -25t7 -26q0 -27 -11.5 -41t-30.5 -14q-25 0 -38 25.5t-13 58.5q0 62 33 101
t95 39q77 0 118.5 -55.5t41.5 -142.5q0 -105 -74 -225.5t-185 -245.5q-5 -7 -5 -11q0 -5 5 -9t13 -4h103q47 0 71 24.5t29 42t14 63.5q2 11 8 11q7 0 7 -11z" />
    <glyph glyph-name="three" unicode="3" horiz-adv-x="375" 
d="M302 340q33 -48 33 -145q0 -90 -40 -147.5t-122 -57.5q-62 0 -95 39t-33 101q0 33 13 58.5t38 25.5q19 0 30.5 -14t11.5 -41q0 -15 -7 -26t-21 -25q-13 -13 -19 -22t-6 -22q0 -21 18.5 -39t47.5 -18q55 0 74.5 54.5t19.5 143.5q0 73 -17.5 129.5t-60.5 57.5h-5h-36v15h36
q43 1 55.5 47t12.5 116q0 79 -15.5 125t-68.5 46q-29 0 -47.5 -18t-18.5 -39q0 -13 6 -22t19 -22q14 -14 21 -25t7 -26q0 -27 -11.5 -41t-30.5 -14q-25 0 -38 25.5t-13 58.5q0 62 33 101t95 39q152 0 152 -178q0 -79 -28 -121.5t-73 -57.5q50 -13 83 -61z" />
    <glyph glyph-name="four" unicode="4" horiz-adv-x="402" 
d="M354 227q8 0 8 -7v-1q0 -7 -8 -7h-60v-160q0 -18 11 -27.5t31 -9.5q9 0 9 -7q0 -8 -9 -8h-164q-9 0 -9 8q0 7 9 7q20 0 31 9.5t11 27.5v160h-164q-4 0 -7 3t-3 7v5l203 512q2 3 6 6t8 3h27q4 0 7 -3t3 -7v-511h60zM214 625l-158 -398h158v398z" />
    <glyph glyph-name="five" unicode="5" horiz-adv-x="370" 
d="M235 441q39 -21 67 -75t28 -144q0 -103 -42.5 -167.5t-119.5 -64.5q-62 0 -95 39t-33 101q0 33 13 58.5t38 25.5q19 0 30.5 -14t11.5 -41q0 -15 -7 -26t-21 -25q-13 -13 -19 -22t-6 -22q0 -21 19 -39t48 -18q49 0 71 58.5t22 156.5q0 93 -17 158.5t-74 66.5
q-26 0 -49 -29.5t-30 -76.5l-2 -36q0 -8 -7 -8h-1q-7 0 -7 8q0 19 1 29l19 404q0 4 3 7t7 3h205q4 0 7 -3t3 -7v-112q0 -9 -8 -9q-7 0 -7 9q0 20 -9.5 31t-27.5 11h-141q-20 0 -22 -26v-1v-3l-11 -235q14 29 36 44t50 15q38 0 77 -21zM83 636v2v-2z" />
    <glyph glyph-name="six" unicode="6" horiz-adv-x="374" 
d="M293.5 385.5q40.5 -54.5 40.5 -165.5t-37.5 -170.5t-103.5 -59.5q-44 0 -78.5 29.5t-54.5 86t-20 134.5q0 95 26.5 197.5t76.5 187.5t116 128q10 5 13 1q3 -5 -3 -8q-112 -81 -137 -339q23 33 59 33q62 0 102.5 -54.5zM229.5 25q11.5 20 15.5 64t4 131q0 79 -5 122.5
t-17.5 62.5t-35.5 20q-22 0 -39.5 -21.5t-23.5 -62.5q-3 -60 -3 -121q0 -80 6.5 -127t21.5 -67.5t40 -20.5t36.5 20z" />
    <glyph glyph-name="seven" unicode="7" horiz-adv-x="332" 
d="M79 3q-2 3 -1 7l186 655l1 4q0 9 -12 9h-134q-44 0 -59 -43.5t-15 -84.5h-15v188q0 4 3 7t7 3h254q4 0 6.5 -3t1.5 -7q-25 -135 -68.5 -361t-71.5 -367q-1 -4 -4.5 -7t-7.5 -3h-65q-4 0 -6 3z" />
    <glyph glyph-name="eight" unicode="8" horiz-adv-x="396" 
d="M302 324q22 -30 38 -68t16 -78q0 -88 -42 -138t-115 -50t-116 46.5t-43 129.5q0 69 31.5 113.5t85.5 79.5l-2 3l0.5 0.5l0.5 0.5q-46 57 -71 108.5t-25 116.5q0 83 38 126.5t102 43.5q65 0 98 -45.5t33 -124.5q0 -64 -25.5 -106.5t-67.5 -74.5q42 -53 64 -83zM144 713
q-14 -30 -14 -79q0 -53 23 -100t65 -102q41 66 41 175q0 59 -17 97.5t-53 38.5q-31 0 -45 -30zM267 34q18 28 18 82q0 42 -14.5 79.5t-36 67.5t-58.5 75q-56 -72 -56 -183q0 -61 20 -105.5t67 -44.5q42 1 60 29z" />
    <glyph glyph-name="nine" unicode="9" horiz-adv-x="374" 
d="M259.5 726.5q34.5 -29.5 54.5 -86t20 -134.5q0 -95 -26.5 -197.5t-76.5 -187.5t-116 -128q-10 -5 -13 -1q-3 5 3 8q112 81 137 339q-23 -33 -59 -33q-62 0 -102.5 54.5t-40.5 165.5t37.5 170.5t103.5 59.5q44 0 78.5 -29.5zM222.5 342.5q17.5 21.5 23.5 62.5q3 60 3 121
q0 80 -6.5 127t-21.5 67.5t-40 20.5t-36.5 -20t-15.5 -64t-4 -131q0 -79 5 -122.5t17.5 -62.5t35.5 -20q22 0 39.5 21.5z" />
    <glyph glyph-name="colon" unicode=":" horiz-adv-x="170" 
d="M48 389q-13 20 -13 50t13 50.5t32 20.5t32 -20.5t13 -50.5t-13 -50t-32 -20t-32 20zM48 10q-13 20 -13 50t13 50.5t32 20.5t32 -20.5t13 -50.5t-13 -50t-32 -20t-32 20z" />
    <glyph glyph-name="semicolon" unicode=";" horiz-adv-x="170" 
d="M48 389q-13 20 -13 50t13 50.5t32 20.5t32 -20.5t13 -50.5t-13 -50t-32 -20t-32 20zM63.5 -128.5q-1.5 4.5 1.5 7.5q21 31 29 52t15 53q1 5 1 7.5t-2 2.5q-3 0 -10.5 -2t-17.5 -2q-22 0 -36 21.5t-14 48.5t14 49t36 22t36 -25.5t14 -60.5q0 -44 -11 -85.5t-41 -88.5
q-2 -4 -7 -4q-6 0 -7.5 4.5z" />
    <glyph glyph-name="less" unicode="&#x3c;" horiz-adv-x="208" 
d="M38 342l128 -176q4 -6 -1 -11q-2 -2 -5.5 -2t-5.5 3l-132 181q-2 4 -2 5t2 5l132 181q2 3 5.5 3t5.5 -2q5 -5 1 -11z" />
    <glyph glyph-name="equal" unicode="=" horiz-adv-x="252" 
d="M28 405q-8 0 -8 7v1q0 7 8 7h196q8 0 8 -7v-1q0 -7 -8 -7h-196zM28 285q-8 0 -8 7v1q0 7 8 7h196q8 0 8 -7v-1q0 -7 -8 -7h-196z" />
    <glyph glyph-name="greater" unicode="&#x3e;" horiz-adv-x="208" 
d="M186 347q2 -4 2 -5t-2 -5l-122 -181q-2 -3 -5.5 -3t-5.5 2q-5 5 -1 11l119 176l-119 176q-4 6 1 11q2 2 5.5 2t5.5 -3z" />
    <glyph glyph-name="question" unicode="?" horiz-adv-x="369" 
d="M135 590.5q-15 -14.5 -36 -14.5q-20 0 -34.5 15t-14.5 47q1 27 15.5 55t42 46.5t64.5 18.5q68 0 107.5 -39t39.5 -115q0 -41 -13.5 -75.5t-42.5 -88.5q-37 -67 -56.5 -120.5t-19.5 -125.5q0 -8 -7 -8h-1q-7 0 -7 8q0 79 8 130.5t23 112.5q13 54 19.5 93t6.5 94
q0 62 -15 90.5t-53 28.5q-19 0 -33.5 -8.5t-15.5 -21.5q0 -15 16 -29q11 -12 16.5 -22t5.5 -27q0 -30 -15 -44.5zM211 110.5q13 -20.5 13 -50.5t-13 -50t-32 -20t-32 20t-13 50t13 50.5t32 20.5t32 -20.5z" />
    <glyph glyph-name="at" unicode="@" horiz-adv-x="679" 
d="M445 196q-4 -20 -4 -42q0 -64 48 -64q34 0 62 33.5t45 94t18 137.5q0 163 -60.5 248t-179.5 85q-88 0 -158.5 -58t-110.5 -161t-40 -234q0 -168 68.5 -246t180.5 -78q45 0 99 16t94 50q9 7 14 1q1 -1 1 -4q0 -5 -5 -8q-43 -36 -97.5 -53t-105.5 -17q-119 0 -191.5 82
t-72.5 257q0 135 42 241.5t116 166.5t166 60q126 0 190.5 -89.5t64.5 -258.5q0 -123 -42.5 -205t-123.5 -82q-36 0 -58.5 18.5t-22.5 50.5q0 7 -5 7q-4 0 -7 -7q-10 -29 -30 -49t-51 -20q-50 0 -81.5 42.5t-31.5 116.5q0 75 24 141.5t63 107t83 40.5q39 0 59 -37q3 -6 7 -6
q3 0 5 8l2 16q1 4 4.5 7t7.5 3h54q4 0 6.5 -3t1.5 -7zM404 402q1 6 1 19q0 33 -15.5 55.5t-35.5 22.5q-31 0 -54 -49t-35.5 -121t-12.5 -138q0 -51 10 -79.5t39 -28.5q33 0 49.5 39.5t25.5 100.5z" />
    <glyph glyph-name="A" unicode="A" horiz-adv-x="507" 
d="M477 8q0 -8 -9 -8h-167q-9 0 -9 8q0 7 9 7q33 0 33 26q0 6 -1 10l-26 140h-170l-30 -140q-1 -4 -1 -11q0 -25 32 -25q9 0 9 -7q0 -8 -9 -8h-99q-9 0 -9 8q0 7 9 7q20 0 34.5 9.5t18.5 26.5l147 687q2 8 11 10h19q4 0 7.5 -3t4.5 -7l135 -687q4 -17 18 -26.5t34 -9.5
q9 0 9 -7zM227 614l-87 -408h164z" />
    <glyph glyph-name="B" unicode="B" horiz-adv-x="477" 
d="M390.5 362.5q46.5 -51.5 46.5 -149.5q0 -121 -61.5 -167t-141.5 -46h-185q-9 0 -9 8q0 7 9 7q20 0 31 9.5t11 27.5v644q0 18 -11 27.5t-31 9.5q-9 0 -9 7q0 8 9 8h157q39 0 77 -15.5t63.5 -53t25.5 -99.5q0 -121 -95 -153q67 -13 113.5 -64.5zM171 701v-270h6q35 0 56 8
t35 40.5t14 100.5q0 90 -24.5 121.5t-65.5 31.5q-21 0 -21 -32zM221 15q60 0 93.5 41.5t33.5 156.5q0 103 -36 153t-91 50h-50v-369q0 -32 21 -32h29z" />
    <glyph glyph-name="C" unicode="C" horiz-adv-x="466" 
d="M90.5 96.5q-50.5 106.5 -50.5 277.5t50.5 277.5t169.5 106.5q35 0 56 -11t44 -30q17 -15 24 -15q10 0 13.5 10.5t3.5 37.5q0 8 7 8h1q7 0 7 -8v-216q0 -8 -7 -8h-1q-7 0 -7 8q0 41 -15.5 90t-47.5 84t-78 35q-54 0 -82.5 -48t-38 -126.5t-9.5 -194.5t9.5 -194.5
t38 -126.5t82.5 -48q72 0 106.5 69t34.5 190q0 8 7 8h1q7 0 7 -8v-266q0 -8 -7 -8h-1q-7 0 -7 8q0 30 -2.5 39t-10.5 9q-6 0 -13 -4t-11.5 -7.5t-6.5 -5.5q-20 -18 -41.5 -28.5t-55.5 -10.5q-119 0 -169.5 106.5z" />
    <glyph glyph-name="D" unicode="D" horiz-adv-x="508" 
d="M364.5 703.5q49.5 -44.5 76.5 -129t27 -200.5t-27 -200.5t-76.5 -129t-116.5 -44.5h-199q-9 0 -9 8q0 7 9 7q20 0 31 9.5t11 27.5v644q0 18 -11 27.5t-31 9.5q-9 0 -9 7q0 8 9 8h199q67 0 116.5 -44.5zM227 15q86 0 118.5 98t32.5 261t-32.5 261t-118.5 98h-35
q-21 0 -21 -32v-654q0 -32 21 -32h35z" />
    <glyph glyph-name="E" unicode="E" horiz-adv-x="439" 
d="M404 208l-53 -198q-2 -4 -5.5 -7t-7.5 -3h-289q-9 0 -9 8q0 7 9 7q20 0 31 9.5t11 27.5v644q0 18 -11 27.5t-31 9.5q-9 0 -9 7q0 8 9 8h289q4 0 7.5 -3t5.5 -7l53 -198v-4q0 -6 -4 -9h-1q-3 0 -5.5 2.5t-4.5 6.5q-3 6 -22 57t-58 95.5t-86 44.5h-31q-21 0 -21 -32v-314
q45 1 68 25.5t27.5 41.5t13.5 63q2 11 8 11q7 0 7 -11v-275q0 -11 -7 -11q-6 0 -8 11q-1 4 -6 38.5t-31.5 62.5t-71.5 29v-325q0 -32 21 -32h31q59 0 96.5 56.5t52 95.5t17.5 45q5 10 11 9q5 -3 4 -13z" />
    <glyph glyph-name="F" unicode="F" horiz-adv-x="439" 
d="M404 540v-4q0 -6 -4 -9h-1q-3 0 -5.5 2.5t-4.5 6.5q-3 6 -22 57t-58 95.5t-86 44.5h-31q-21 0 -21 -32v-314q45 1 68 25.5t27.5 41.5t13.5 63q2 11 8 11q7 0 7 -11v-275q0 -11 -7 -11q-6 0 -8 11q-1 4 -6 38.5t-31.5 62.5t-71.5 29v-320q0 -18 11 -27.5t31 -9.5q9 0 9 -7
q0 -8 -9 -8h-164q-9 0 -9 8q0 7 9 7q20 0 31 9.5t11 27.5v644q0 18 -11 27.5t-31 9.5q-9 0 -9 7q0 8 9 8h289q4 0 7.5 -3t5.5 -7z" />
    <glyph glyph-name="G" unicode="G" horiz-adv-x="466" 
d="M409 272q7 0 7 -8v-266q0 -8 -7 -8h-1q-7 0 -7 8q0 30 -2.5 39t-10.5 9q-6 0 -13 -4t-11.5 -7.5t-6.5 -5.5q-20 -18 -41.5 -28.5t-55.5 -10.5q-119 0 -169.5 106.5t-50.5 277.5t50.5 277.5t169.5 106.5q33 0 52.5 -11t38.5 -30q1 -1 9 -8t14 -7q10 0 13.5 10.5t3.5 37.5
q0 8 7 8h1q7 0 7 -8v-216q0 -8 -7 -8h-1q-7 0 -7 8q0 41 -15 90t-44.5 84t-71.5 35q-54 0 -82.5 -48t-38 -126.5t-9.5 -194.5t9.5 -194.5t38 -126.5t82.5 -48q44 0 74 27v224h-75q-9 0 -9 8t9 8h147h1h1h1z" />
    <glyph glyph-name="H" unicode="H" horiz-adv-x="518" 
d="M478 8q0 -8 -9 -8h-164q-9 0 -9 8q0 7 9 7q20 0 31 9.5t11 27.5v370h-176v-370q0 -18 11 -27.5t31 -9.5q9 0 9 -7q0 -8 -9 -8h-164q-9 0 -9 8q0 7 9 7q20 0 31 9.5t11 27.5v644q0 18 -11 27.5t-31 9.5q-9 0 -9 7q0 8 9 8h164q9 0 9 -8q0 -7 -9 -7q-20 0 -31 -9.5
t-11 -27.5v-259h176v259q0 18 -11 27.5t-31 9.5q-9 0 -9 7q0 8 9 8h164q9 0 9 -8q0 -7 -9 -7q-20 0 -31 -9.5t-11 -27.5v-644q0 -18 11 -27.5t31 -9.5q9 0 9 -7z" />
    <glyph glyph-name="I" unicode="I" 
d="M40 8q0 7 9 7q20 0 31 9.5t11 27.5v644q0 18 -11 27.5t-31 9.5q-9 0 -9 7q0 8 9 8h164q9 0 9 -8q0 -7 -9 -7q-20 0 -31 -9.5t-11 -27.5v-644q0 -18 11 -27.5t31 -9.5q9 0 9 -7q0 -8 -9 -8h-164q-9 0 -9 8z" />
    <glyph glyph-name="J" unicode="J" horiz-adv-x="358" 
d="M70.5 31.5q-30.5 41.5 -30.5 101.5q0 28 11.5 45.5t31.5 17.5q18 0 30.5 -15.5t12.5 -39.5q0 -20 -4 -35t-5 -18q-9 -25 -9 -46q0 -19 11 -28.5t26 -9.5q18 0 30 20.5t12 68.5v603q0 18 -11 27.5t-31 9.5q-9 0 -9 7q0 8 9 8h164q9 0 9 -8q0 -7 -9 -7q-20 0 -31 -9.5
t-11 -27.5v-547q0 -82 -28 -120.5t-85 -38.5q-53 0 -83.5 41.5z" />
    <glyph glyph-name="K" unicode="K" horiz-adv-x="514" 
d="M504 8q0 -8 -9 -8h-170q-9 0 -9 8q0 7 9 7q26 0 26 16q0 8 -4 17l-150 363l-26 -46v-313q0 -18 11 -27.5t31 -9.5q9 0 9 -7q0 -8 -9 -8h-164q-9 0 -9 8q0 7 9 7q20 0 31 9.5t11 27.5v644q0 18 -11 27.5t-31 9.5q-9 0 -9 7q0 8 9 8h164q9 0 9 -8q0 -7 -9 -7
q-20 0 -31 -9.5t-11 -27.5v-301l173 308q6 12 6 18q0 12 -23 12q-9 0 -9 7q0 8 9 8h101q9 0 9 -8q0 -7 -9 -7q-21 0 -40 -7.5t-27 -22.5l-114 -203l186 -452q6 -16 23.5 -24.5t38.5 -8.5q9 0 9 -7z" />
    <glyph glyph-name="L" unicode="L" horiz-adv-x="434" 
d="M404 208l-53 -198q-2 -4 -5.5 -7t-7.5 -3h-289q-9 0 -9 8q0 7 9 7q20 0 31 9.5t11 27.5v644q0 18 -11 27.5t-31 9.5q-9 0 -9 7q0 8 9 8h164q9 0 9 -8q0 -7 -9 -7q-20 0 -31 -9.5t-11 -27.5v-649q0 -32 21 -32h31q59 0 96.5 56.5t52 95.5t17.5 45q5 10 11 9q5 -3 4 -13z
" />
    <glyph glyph-name="M" unicode="M" horiz-adv-x="703" 
d="M663 8q0 -8 -9 -8h-164q-9 0 -9 8q0 7 9 7q20 0 31 9.5t11 27.5v630l-164 -682h-83l-182 689l-2 7v-644q0 -18 11 -27.5t31 -9.5q9 0 9 -7q0 -8 -9 -8h-99q-9 0 -9 8q0 7 9 7q20 0 31 9.5t11 27.5v644q0 18 -11 27.5t-31 9.5q-9 0 -9 7q0 8 9 8h127l189 -716l172 716h122
q9 0 9 -8q0 -7 -9 -7q-20 0 -31 -9.5t-11 -27.5v-644q0 -18 11 -27.5t31 -9.5q9 0 9 -7z" />
    <glyph glyph-name="N" unicode="N" horiz-adv-x="522" 
d="M492 740q0 -7 -9 -7q-20 0 -31 -9.5t-11 -27.5v-686q0 -4 -3 -7t-7 -3h-33l-297 667v-615q0 -18 11 -27.5t31 -9.5q9 0 9 -7q0 -8 -9 -8h-99q-9 0 -9 8q0 7 9 7q20 0 31 9.5t11 27.5v644q0 18 -11 27.5t-31 9.5q-9 0 -9 7q0 8 9 8h107l275 -620v568q0 18 -11 27.5
t-31 9.5q-9 0 -9 7q0 8 9 8h99q9 0 9 -8z" />
    <glyph glyph-name="O" unicode="O" horiz-adv-x="511" 
d="M91 101q-51 111 -51 273t51 273t163 111q113 0 165 -115t52 -279q0 -161 -51.5 -267.5t-165.5 -106.5q-112 0 -163 111zM349.5 99.5q31.5 94.5 31.5 264.5q0 173 -32 276t-95 103q-62 0 -93 -99t-31 -270t31 -270t93 -99q64 0 95.5 94.5z" />
    <glyph glyph-name="P" unicode="P" horiz-adv-x="477" 
d="M326.5 729.5q46.5 -18.5 78.5 -63.5t32 -119q0 -112 -61 -154.5t-144 -42.5h-61v-298q0 -18 11 -27.5t31 -9.5q9 0 9 -7q0 -8 -9 -8h-164q-9 0 -9 8q0 7 9 7q20 0 31 9.5t11 27.5v644q0 18 -11 27.5t-31 9.5q-9 0 -9 7q0 8 9 8h183q48 0 94.5 -18.5zM192 365
q71 0 113 40.5t42 141.5q0 92 -42 139t-113 47q-21 0 -21 -32v-336h21z" />
    <glyph glyph-name="Q" unicode="Q" horiz-adv-x="511" 
d="M492 -69q0 -6 -6 -14q-13 -20 -34.5 -33.5t-48.5 -13.5q-23 0 -45.5 10t-54.5 31q-37 24 -65.5 36.5t-61.5 12.5q-24 0 -42.5 -9t-36.5 -33q-6 -7 -10 -7q-6 0 -7 4t2 8q44 61 111 78q-80 30 -116.5 133t-36.5 240q0 162 51 273t163 111q113 0 165 -115t52 -279
q0 -148 -44 -251.5t-140 -119.5q29 -12 77 -48q25 -20 42.5 -30t32.5 -10q12 0 20.5 7t11.5 17q2 7 7.5 9.5t10.5 -1.5q3 -3 3 -6zM161 104q31 -99 93 -99q64 0 95.5 94.5t31.5 264.5q0 173 -32 276t-95 103q-62 0 -93 -99t-31 -270t31 -270z" />
    <glyph glyph-name="R" unicode="R" horiz-adv-x="474" 
d="M454 33q0 -5 -1 -8q0 -1 -4 -10.5t-16 -17t-30 -7.5q-47 0 -71.5 30.5t-24.5 99.5v149q0 29 -18 55t-49 26h-69v-298q0 -18 11 -27.5t31 -9.5q9 0 9 -7q0 -8 -9 -8h-164q-9 0 -9 8q0 7 9 7q20 0 31 9.5t11 27.5v644q0 18 -11 27.5t-31 9.5q-9 0 -9 7q0 8 9 8h183
q74 0 124.5 -46t50.5 -155q0 -72 -29 -117t-75 -65q21 -1 41.5 -15.5t33.5 -42.5t13 -68l2 -183q0 -24 4.5 -35t15.5 -11q10 0 14 6t8 19q3 10 11 10t8 -12zM171 365h41q52 -1 81 39t29 143t-31 144.5t-89 41.5h-10q-21 0 -21 -32v-336z" />
    <glyph glyph-name="S" unicode="S" horiz-adv-x="417" 
d="M155 565.5q17 -46.5 41.5 -83.5t65.5 -90q54 -70 79.5 -116t25.5 -99q0 -82 -40.5 -134.5t-111.5 -52.5q-29 0 -48.5 9t-40.5 24q-6 5 -12 9t-11 4q-10 0 -16.5 -12t-6.5 -26q0 -8 -7 -8h-1q-7 0 -7 8v266q0 8 7 8h1q7 0 7 -8q0 -64 16 -123.5t45.5 -97.5t68.5 -38
q43 0 60.5 25.5t17.5 85.5q0 42 -15 81.5t-37 72.5t-60 82q-39 50 -61.5 84.5t-38.5 75.5t-16 86q0 80 37.5 120t92.5 40q34 0 54 -9t38 -24q2 -2 10 -7.5t15 -5.5q10 0 13.5 7.5t3.5 20.5q0 8 7 8h1q7 0 7 -8v-206q0 -8 -7 -8h-1q-7 0 -7 8q0 23 -11 73t-38.5 93t-73.5 43
q-32 0 -47.5 -20.5t-15.5 -58.5q0 -52 17 -98.5z" />
    <glyph glyph-name="T" unicode="T" horiz-adv-x="516" 
d="M501 540v-4q0 -6 -4 -9h-1q-3 0 -5.5 2.5t-4.5 6.5q-3 6 -22 57t-58 95.5t-86 44.5h-1q-21 0 -21 -32v-649q0 -18 11 -27.5t31 -9.5q9 0 9 -7q0 -8 -9 -8h-164q-9 0 -9 8q0 7 9 7q20 0 31 9.5t11 27.5v649q0 32 -21 32h-1q-59 0 -96.5 -56.5t-52 -95.5t-17.5 -45
q-5 -10 -11 -9q-5 3 -4 13l53 198q2 4 5.5 7t7.5 3h354q4 0 7.5 -3t5.5 -7z" />
    <glyph glyph-name="U" unicode="U" horiz-adv-x="515" 
d="M124 58q-43 68 -43 196v442q0 18 -11 27.5t-31 9.5q-9 0 -9 7q0 8 9 8h164q9 0 9 -8q0 -7 -9 -7q-20 0 -31 -9.5t-11 -27.5v-442q0 -122 29 -185.5t102 -63.5q66 0 96.5 62t30.5 187v442q0 18 -11 27.5t-31 9.5q-9 0 -9 7q0 8 9 8h99q9 0 9 -8q0 -7 -9 -7q-20 0 -31 -9.5
t-11 -27.5v-442q0 -102 -17.5 -159.5t-51.5 -81t-89 -23.5q-109 0 -152 68z" />
    <glyph glyph-name="V" unicode="V" horiz-adv-x="517" 
d="M497 740q0 -7 -9 -7q-20 0 -34.5 -9.5t-18.5 -26.5l-147 -687q-2 -8 -11 -10h-29q-4 0 -7.5 3t-4.5 7l-154 687q-4 17 -18.5 26.5t-34.5 9.5q-9 0 -9 7q0 8 9 8h166q9 0 9 -8q0 -7 -9 -7q-32 0 -32 -25q0 -7 1 -11l131 -585l125 585q1 4 1 11q0 25 -32 25q-9 0 -9 7
q0 8 9 8h99q9 0 9 -8z" />
    <glyph glyph-name="W" unicode="W" horiz-adv-x="771" 
d="M751 740q0 -7 -9 -7q-20 0 -34.5 -9.5t-18.5 -26.5l-147 -687q-2 -8 -11 -10h-29q-4 0 -7.5 3t-4.5 7l-103 460l-99 -460q-2 -8 -11 -10h-29q-4 0 -7.5 3t-4.5 7l-154 687q-4 17 -18.5 26.5t-34.5 9.5q-9 0 -9 7q0 8 9 8h166q9 0 9 -8q0 -7 -9 -7q-32 0 -32 -25
q0 -7 1 -11l131 -585v-1l84 393l-43 193q-4 17 -18.5 26.5t-34.5 9.5q-9 0 -9 7q0 8 9 8h166q9 0 9 -8q0 -7 -9 -7q-32 0 -32 -25q0 -7 1 -11l131 -585l125 585q1 4 1 11q0 25 -32 25q-9 0 -9 7q0 8 9 8h99q9 0 9 -8z" />
    <glyph glyph-name="X" unicode="X" horiz-adv-x="476" 
d="M456 8q0 -8 -9 -8h-168q-9 0 -9 8q0 7 9 7q29 0 29 20q0 7 -3 14l-90 269l-91 -269q-3 -9 -3 -15q0 -19 28 -19q9 0 9 -7q0 -8 -9 -8h-100q-9 0 -9 8q0 7 9 7q20 0 36.5 9t22.5 25l99 292l-120 358q-5 16 -21.5 25t-36.5 9q-9 0 -9 7q0 8 9 8h168q9 0 9 -8q0 -7 -9 -7
q-29 0 -29 -20q0 -6 3 -14l92 -273l91 273q3 9 3 15q0 19 -28 19q-9 0 -9 7q0 8 9 8h100q9 0 9 -8q0 -7 -9 -7q-20 0 -36.5 -9t-22.5 -25l-99 -297l118 -353q5 -16 21.5 -25t36.5 -9q9 0 9 -7z" />
    <glyph glyph-name="Y" unicode="Y" horiz-adv-x="452" 
d="M432 740q0 -7 -9 -7q-20 0 -35 -9.5t-19 -26.5l-89 -377v-268q0 -18 11 -27.5t31 -9.5q9 0 9 -7q0 -8 -9 -8h-164q-9 0 -9 8q0 7 9 7q20 0 31 9.5t11 27.5v268l-114 378q-5 17 -21 26t-36 9q-9 0 -9 7q0 8 9 8h170q9 0 9 -8q0 -7 -9 -7q-29 0 -29 -21q0 -9 2 -14
l101 -341l80 340l2 12q0 24 -32 24q-9 0 -9 7q0 8 9 8h100q9 0 9 -8z" />
    <glyph glyph-name="Z" unicode="Z" horiz-adv-x="416" 
d="M366 213l-27 -203q0 -4 -3.5 -7t-7.5 -3h-246q-4 0 -6 3t-1 7l191 723h-61q-58 0 -88 -55.5t-40.5 -96.5t-12.5 -48q-2 -10 -8 -10q-7 0 -6 12l27 203q0 4 3.5 7t7.5 3h258q4 0 6 -3t1 -7l-191 -723h49q58 0 88 55.5t40.5 96.5t12.5 48q2 10 8 10q8 0 6 -12z" />
    <glyph glyph-name="bracketleft" unicode="[" horiz-adv-x="222" 
d="M121 785q-21 0 -21 -32v-816q0 -32 21 -32h73q8 0 8 -7v-1q0 -7 -8 -7h-174v910h174q8 0 8 -7v-1q0 -7 -8 -7h-73z" />
    <glyph glyph-name="backslash" unicode="\" horiz-adv-x="184" 
d="M156 -9q-5 0 -7 8l-129 750v2q0 7 6 7h2q5 0 7 -8l129 -751v-2q0 -6 -7 -6h-1z" />
    <glyph glyph-name="bracketright" unicode="]" horiz-adv-x="222" 
d="M202 -110h-174q-8 0 -8 7v1q0 7 8 7h73q21 0 21 32v816q0 32 -21 32h-73q-8 0 -8 7v1q0 7 8 7h174v-910z" />
    <glyph glyph-name="asciicircum" unicode="^" horiz-adv-x="158" 
d="M137 542q2 -9 -3 -11q-1 -1 -3 -1q-6 0 -8 6l-44 190l-44 -190q-1 -6 -8 -6q-8 0 -6 12l49 208q1 6 9 6t9 -6z" />
    <glyph glyph-name="underscore" unicode="_" horiz-adv-x="312" 
d="M28 0q-8 0 -8 7v1q0 7 8 7h256q8 0 8 -7v-1q0 -7 -8 -7h-256z" />
    <glyph glyph-name="grave" unicode="`" horiz-adv-x="159" 
d="M134 802q-5 0 -10 7q-81 135 -97 163q-7 13 -7 24q0 10 10 16q6 2 9 2q17 0 26 -20q10 -19 35 -80t38 -99q3 -10 -2 -13h-2z" />
    <glyph glyph-name="a" unicode="a" horiz-adv-x="384" 
d="M364 8q0 -8 -9 -8h-112q-4 0 -7 3t-3 7v23q-20 -43 -69 -43q-134 0 -134 156q0 72 30 120.5t109 48.5q21 0 34.5 -4t29.5 -14v159q0 89 -61 89q-26 0 -45.5 -12.5t-19.5 -31.5q0 -16 4.5 -25t14.5 -21q9 -10 13.5 -18t4.5 -22q0 -22 -11 -38.5t-32 -16.5t-34.5 18.5
t-13.5 48.5v1q0 31 14 61.5t41.5 50.5t63.5 20q66 0 103.5 -42.5t37.5 -123.5v-342q0 -18 11 -27.5t31 -9.5q9 0 9 -7zM221.5 39q10.5 29 11.5 85v157q-18 11 -28.5 15t-23.5 4q-27 0 -41 -15.5t-19 -48.5t-5 -90q0 -66 14.5 -101t48.5 -35q32 0 42.5 29z" />
    <glyph glyph-name="b" unicode="b" horiz-adv-x="440" 
d="M360.5 477.5q39.5 -82.5 39.5 -211.5q0 -127 -39 -201.5t-120 -74.5q-27 0 -50.5 15t-41.5 38l-40 -43h-23q-4 0 -7 3t-3 7v686q0 18 -11 27.5t-31 9.5q-9 0 -9 7q0 8 9 8h112q4 0 7 -3t3 -7v-218q38 40 85 40q80 0 119.5 -82.5zM295 64.5q19 59.5 19 201.5
q0 145 -19.5 212t-60.5 67q-24 0 -50 -21q-28 -23 -28 -80v-329q0 -56 21 -79q29 -31 57 -31q42 0 61 59.5z" />
    <glyph glyph-name="c" unicode="c" horiz-adv-x="363" 
d="M316 174q7 0 7 -8q0 -176 -123 -176q-92 0 -126 84.5t-34 201.5q0 126 39 205t129 79q33 0 59 -18t40 -46t15 -56q0 -32 -13 -49t-31 -17q-19 0 -32.5 14.5t-13.5 44.5q0 16 5 27t15 24q5 7 9 14t4 14q-1 13 -15 22.5t-34 9.5q-41 0 -61 -37.5t-24.5 -89.5t-4.5 -133
q0 -122 21 -198t70 -76q46 0 68.5 44t22.5 112q0 8 7 8h1z" />
    <glyph glyph-name="d" unicode="d" horiz-adv-x="440" 
d="M415 8q0 -8 -9 -8h-112q-4 0 -7 3t-3 7v25q-41 -45 -85 -45q-81 0 -120 74.5t-39 201.5q0 129 39.5 211.5t119.5 82.5q47 0 85 -40v176q0 18 -11 27.5t-31 9.5q-9 0 -9 7q0 8 9 8h112q4 0 7 -3t3 -7v-686q0 -18 11 -27.5t31 -9.5q9 0 9 -7zM145 64.5q19 -59.5 61 -59.5
q28 0 57 31q21 23 21 79v329q0 57 -28 80q-26 21 -50 21q-41 0 -60.5 -67t-19.5 -212q0 -142 19 -201.5z" />
    <glyph glyph-name="e" unicode="e" horiz-adv-x="386" 
d="M337 102l-2 -8q-14 -33 -27 -54t-37 -35.5t-61 -14.5q-85 0 -127.5 76.5t-42.5 209.5q0 128 37.5 206t114.5 78q154 0 154 -284h-216q0 -122 19 -196t73 -74q38 0 60.5 26t40.5 72q1 4 4.5 5.5t6.5 -0.5q3 -3 3 -7zM141.5 479q-11.5 -66 -11.5 -188h126
q0 119 -12.5 186.5t-51.5 67.5t-50.5 -66z" />
    <glyph glyph-name="f" unicode="f" horiz-adv-x="326" 
d="M278.5 739.5q24.5 -18.5 38 -47t14.5 -55.5q0 -32 -14.5 -47t-34.5 -15q-21 0 -36 14.5t-15 44.5q0 18 6 29t18 25q5 6 9.5 12.5t4.5 13.5q-1 13 -11 20.5t-28 7.5q-21 0 -40.5 -20t-19.5 -67v-105h102q8 0 8 -7v-1q0 -7 -8 -7h-102v-483q0 -18 11 -27.5t31 -9.5
q9 0 9 -7q0 -8 -9 -8h-164q-9 0 -9 8q0 7 9 7q20 0 31 9.5t11 27.5v483h-62q-8 0 -8 7v1q0 7 8 7h62v43q0 53 18.5 90t49 56t64.5 19q32 0 56.5 -18.5z" />
    <glyph glyph-name="g" unicode="g" horiz-adv-x="394" 
d="M306 590.5q-12 14.5 -12 40.5q0 13 4.5 26.5t4.5 20.5t-5 11t-12 4q-19 0 -33 -30t-14 -64q0 -21 6 -36t18 -19l-3 1q84 -44 84 -204q0 -114 -41.5 -167t-111.5 -53q-38 0 -64 11l1 -1q-4 2 -11 2q-17 0 -17 -28q0 -21 24 -32t79 -24q65 -14 99 -62.5t34 -118.5
q0 -79 -33.5 -123.5t-106.5 -44.5q-67 0 -107 40.5t-40 117.5q0 45 19.5 76.5t51.5 57.5q-30 11 -47.5 29t-17.5 48q0 48 43 80q-29 24 -43.5 71t-14.5 121q0 106 35.5 159t96.5 59q11 1 18 14t18 41q18 48 37 73.5t55 25.5q33 0 58.5 -24t25.5 -58q0 -25 -11.5 -40
t-33.5 -15q-21 0 -33 14.5zM230.5 155q14.5 19 21.5 63.5t7 122.5q0 83 -7 127t-21.5 60.5t-39.5 16.5q-24 0 -38 -17t-21 -61t-7 -126q0 -114 15.5 -159.5t50.5 -45.5q25 0 39.5 19zM254.5 -66.5q-20.5 31.5 -67.5 40.5l-41 10q-30 -47 -30 -126q0 -71 20.5 -107t58.5 -36
q39 0 59.5 29.5t20.5 87.5q0 70 -20.5 101.5z" />
    <glyph glyph-name="h" unicode="h" horiz-adv-x="449" 
d="M414 8q0 -8 -9 -8h-164q-9 0 -9 8q0 7 9 7q20 0 31 9.5t11 27.5v375q0 59 -12.5 86.5t-44.5 27.5q-17 0 -33 -13.5t-26.5 -41.5t-10.5 -69v-365q0 -18 11 -27.5t31 -9.5q9 0 9 -7q0 -8 -9 -8h-164q-9 0 -9 8q0 7 9 7q20 0 31 9.5t11 27.5v644q0 18 -11 27.5t-31 9.5
q-9 0 -9 7q0 8 9 8h112q4 0 7 -3t3 -7v-236q26 58 96 58q66 0 89 -42.5t22 -117.5v-348q0 -18 11 -27.5t31 -9.5q9 0 9 -7z" />
    <glyph glyph-name="i" unicode="i" horiz-adv-x="252" 
d="M76.5 621q-14.5 19 -14.5 49t14.5 49.5t32.5 19.5q19 0 33 -19.5t14 -49.5t-14 -49t-33 -19q-18 0 -32.5 19zM35 8q0 7 9 7q20 0 31 9.5t11 27.5v446q0 18 -11 27.5t-31 9.5q-9 0 -9 7q0 8 9 8h112q4 0 7 -3t3 -7v-488q0 -18 11 -27.5t31 -9.5q9 0 9 -7q0 -8 -9 -8h-164
q-9 0 -9 8z" />
    <glyph glyph-name="j" unicode="j" horiz-adv-x="269" 
d="M109.5 621q-14.5 19 -14.5 49t14.5 49.5t32.5 19.5q19 0 33 -19.5t14 -49.5t-14 -49t-33 -19q-18 0 -32.5 19zM15.5 -264q-29.5 36 -29.5 91q0 33 13 53t35 20q19 0 30.5 -13.5t11.5 -39.5q0 -14 -4.5 -23t-12.5 -19q-9 -12 -14 -23t-5 -28t11.5 -27t28.5 -10q39 0 39 86
v695q0 18 -11 27.5t-31 9.5q-9 0 -9 7q0 8 9 8h112q4 0 7 -3t3 -7v-675q0 -85 -23.5 -125t-79.5 -40q-51 0 -80.5 36z" />
    <glyph glyph-name="k" unicode="k" horiz-adv-x="444" 
d="M424 8q0 -8 -9 -8h-119q-4 0 -8 3t-5 6l-108 302l-19 -33v-226q0 -18 11 -27.5t31 -9.5q9 0 9 -7q0 -8 -9 -8h-164q-9 0 -9 8q0 7 9 7q20 0 31 9.5t11 27.5v644q0 18 -11 27.5t-31 9.5q-9 0 -9 7q0 8 9 8h112q4 0 7 -3t3 -7v-428l113 195q7 11 7 19q0 11 -23 11
q-9 0 -9 7q0 8 9 8h102q9 0 9 -8q0 -7 -9 -7q-21 0 -40.5 -7.5t-27.5 -22.5l-61 -106l129 -350q6 -16 22.5 -25t37.5 -9q9 0 9 -7z" />
    <glyph glyph-name="l" unicode="l" horiz-adv-x="232" 
d="M25 8q0 7 9 7q20 0 31 9.5t11 27.5v644q0 18 -11 27.5t-31 9.5q-9 0 -9 7q0 8 9 8h112q4 0 7 -3t3 -7v-686q0 -18 11 -27.5t31 -9.5q9 0 9 -7q0 -8 -9 -8h-164q-9 0 -9 8z" />
    <glyph glyph-name="m" unicode="m" horiz-adv-x="666" 
d="M631 8q0 -8 -9 -8h-164q-9 0 -9 8q0 7 9 7q20 0 31 9.5t11 27.5v375q0 59 -12.5 86.5t-44.5 27.5q-17 0 -33 -13.5t-26.5 -41.5t-10.5 -69v-17v-348q0 -18 11 -27.5t31 -9.5q9 0 9 -7q0 -8 -9 -8h-164q-9 0 -9 8q0 7 9 7q20 0 31 9.5t11 27.5v375q0 59 -12.5 86.5
t-44.5 27.5q-17 0 -33 -13.5t-26.5 -41.5t-10.5 -69v-365q0 -18 11 -27.5t31 -9.5q9 0 9 -7q0 -8 -9 -8h-164q-9 0 -9 8q0 7 9 7q20 0 31 9.5t11 27.5v446q0 18 -11 27.5t-31 9.5q-9 0 -9 7q0 8 9 8h112q4 0 7 -3t3 -7v-38q26 58 96 58q45 0 69.5 -21t34.5 -58q21 79 103 79
q66 0 89 -42.5t22 -117.5v-348q0 -18 11 -27.5t31 -9.5q9 0 9 -7z" />
    <glyph glyph-name="n" unicode="n" horiz-adv-x="459" 
d="M424 8q0 -8 -9 -8h-164q-9 0 -9 8q0 7 9 7q20 0 31 9.5t11 27.5v375q0 59 -12.5 86.5t-44.5 27.5q-17 0 -33 -13.5t-26.5 -41.5t-10.5 -69v-365q0 -18 11 -27.5t31 -9.5q9 0 9 -7q0 -8 -9 -8h-164q-9 0 -9 8q0 7 9 7q20 0 31 9.5t11 27.5v446q0 18 -11 27.5t-31 9.5
q-9 0 -9 7q0 8 9 8h112q4 0 7 -3t3 -7v-38q26 58 96 58q66 0 89 -42.5t22 -117.5v-348q0 -18 11 -27.5t31 -9.5q9 0 9 -7z" />
    <glyph glyph-name="o" unicode="o" horiz-adv-x="416" 
d="M79.5 75q-39.5 85 -39.5 201q0 115 39.5 199.5t127.5 84.5t128.5 -84.5t40.5 -199.5t-40.5 -200.5t-128.5 -85.5t-127.5 85zM263.5 40.5q18.5 35.5 24 92t5.5 143.5t-5.5 142.5t-24 91t-56.5 35.5t-56 -35.5t-23 -91t-5 -144.5q0 -88 5 -143.5t23 -90.5t56 -35t56.5 35.5
z" />
    <glyph glyph-name="p" unicode="p" horiz-adv-x="450" 
d="M370.5 477.5q39.5 -82.5 39.5 -211.5q0 -127 -39 -201.5t-120 -74.5q-44 0 -85 45v-282q0 -18 11 -27.5t31 -9.5q9 0 9 -7q0 -8 -9 -8h-47q-15 -1 -35 -1.5t-35 0.5l-47 1q-9 0 -9 8q0 7 9 7q20 0 31 9.5t11 27.5v745q0 18 -11 27.5t-31 9.5q-9 0 -9 7q0 8 9 8h112
q4 0 7 -3t3 -7v-20q38 40 85 40q80 0 119.5 -82.5zM305 64.5q19 59.5 19 201.5q0 145 -19.5 212t-60.5 67q-24 0 -50 -21q-28 -23 -28 -80v-329q0 -56 21 -79q29 -31 57 -31q42 0 61 59.5z" />
    <glyph glyph-name="q" unicode="q" horiz-adv-x="435" 
d="M415 -292q0 -8 -9 -8h-164q-9 0 -9 8q0 7 9 7q20 0 31 9.5t11 27.5v283q-41 -45 -85 -45q-81 0 -120 74.5t-39 201.5q0 129 39.5 211.5t119.5 82.5q51 0 93 -49l39 39h23q4 0 7 -3t3 -7v-788q0 -18 11 -27.5t31 -9.5q9 0 9 -7zM145 64.5q19 -59.5 61 -59.5q28 0 57 31
q21 23 21 79v329q0 57 -28 80q-26 21 -50 21q-41 0 -60.5 -67t-19.5 -212q0 -142 19 -201.5z" />
    <glyph glyph-name="r" unicode="r" horiz-adv-x="356" 
d="M304.5 535q21.5 -25 21.5 -56q0 -30 -14 -47.5t-34 -17.5q-19 0 -34 15t-15 39q0 17 9 35q7 11 7 20q0 6 -4 10.5t-12 4.5q-27 0 -45 -38t-18 -84v-364q0 -18 11 -27.5t31 -9.5q9 0 9 -7q0 -8 -9 -8h-164q-9 0 -9 8q0 7 9 7q20 0 31 9.5t11 27.5v446q0 18 -11 27.5
t-31 9.5q-9 0 -9 7q0 8 9 8h112q4 0 7 -3t3 -7v-42q13 28 34 45t48 17q35 0 56.5 -25z" />
    <glyph glyph-name="s" unicode="s" horiz-adv-x="327" 
d="M134 389.5q23 -39.5 68 -90.5q43 -49 64 -83.5t21 -78.5q0 -58 -29 -102.5t-88 -44.5q-24 0 -40.5 8t-33.5 22q-15 12 -22 12q-15 0 -14.5 -13.5t0.5 -14.5q0 -9 -7 -9t-7 9v200q0 9 7 9t7 -9q0 -41 14.5 -88t38.5 -79t51 -32q26 0 40 21t14 56q0 42 -21 77t-65 87
q-45 52 -68.5 91.5t-23.5 86.5q0 59 30.5 97.5t84.5 38.5q23 0 38.5 -9t31.5 -24q11 -13 18 -13t9.5 8.5t2.5 24.5q0 8 7 8t7 -8v-153q0 -8 -7 -8t-7 8q0 25 -13.5 61.5t-35 63t-46.5 26.5t-37 -18t-12 -47q0 -51 23 -90.5z" />
    <glyph glyph-name="t" unicode="t" horiz-adv-x="265" 
d="M254.5 74.5q1.5 -4.5 -0.5 -9.5q-12 -32 -30.5 -53.5t-50.5 -21.5q-52 0 -72.5 31.5t-20.5 98.5v415h-62q-8 0 -8 7v1q0 7 8 7h62v113q0 4 3 7t7 3q33 3 44 24.5t11 55.5q0 8 7 8h1q7 0 7 -8v-203h62q8 0 8 -7v-1q0 -7 -8 -7h-62v-455q0 -37 7 -52t22 -15q17 0 30.5 17.5
t19.5 39.5q3 9 9 9q5 0 6.5 -4.5z" />
    <glyph glyph-name="u" unicode="u" horiz-adv-x="429" 
d="M409 8q0 -8 -9 -8h-112q-4 0 -7 3t-3 7v38q-26 -58 -96 -58q-66 0 -89 42.5t-22 117.5v348q0 18 -11 27.5t-31 9.5q-9 0 -9 7q0 8 9 8h164q9 0 9 -8q0 -7 -9 -7q-20 0 -31 -9.5t-11 -27.5v-375q0 -59 12.5 -86.5t44.5 -27.5q17 0 33 13.5t26.5 41.5t10.5 69v365
q0 18 -11 27.5t-31 9.5q-9 0 -9 7q0 8 9 8h164q9 0 9 -8q0 -7 -9 -7q-20 0 -31 -9.5t-11 -27.5v-446q0 -18 11 -27.5t31 -9.5q9 0 9 -7z" />
    <glyph glyph-name="v" unicode="v" horiz-adv-x="415" 
d="M405 542q0 -7 -9 -7q-20 0 -34.5 -9.5t-18.5 -26.5l-110 -489q-1 -4 -4.5 -7t-7.5 -3h-32q-4 0 -7.5 3t-4.5 7l-105 489q-4 17 -18.5 26.5t-34.5 9.5q-9 0 -9 7q0 8 9 8h166q9 0 9 -8q0 -7 -9 -7q-32 0 -32 -25q0 -7 1 -11l84 -396l90 396q1 4 1 11q0 25 -32 25
q-9 0 -9 7q0 8 9 8h99q9 0 9 -8z" />
    <glyph glyph-name="w" unicode="w" horiz-adv-x="635" 
d="M625 542q0 -7 -9 -7q-20 0 -34.5 -9.5t-18.5 -26.5l-110 -489q-1 -4 -4.5 -7t-7.5 -3h-32q-4 0 -7.5 3t-4.5 7l-80 373l-84 -373q-1 -4 -4.5 -7t-7.5 -3h-32q-4 0 -7.5 3t-4.5 7l-105 489q-4 17 -18.5 26.5t-34.5 9.5q-9 0 -9 7q0 8 9 8h166q9 0 9 -8q0 -7 -9 -7
q-32 0 -32 -25q0 -7 1 -11l84 -396l72 314l-18 82q-4 17 -18.5 26.5t-34.5 9.5q-9 0 -9 7q0 8 9 8h166q9 0 9 -8q0 -7 -9 -7q-32 0 -32 -25q0 -7 1 -11l84 -396l90 396q1 4 1 11q0 25 -32 25q-9 0 -9 7q0 8 9 8h99q9 0 9 -8z" />
    <glyph glyph-name="x" unicode="x" horiz-adv-x="370" 
d="M360 8q0 -8 -9 -8h-169q-9 0 -9 8q0 7 9 7q29 0 29 21q0 9 -2 14l-53 180l-47 -180l-2 -12q0 -23 31 -23q9 0 9 -7q0 -8 -9 -8h-100q-9 0 -9 8q0 7 9 7q20 0 35.5 9t19.5 26l54 211l-71 239q-5 17 -21 26t-36 9q-9 0 -9 7q0 8 9 8h169q9 0 9 -8q0 -7 -9 -7q-29 0 -29 -21
q0 -9 2 -14l52 -177l47 177l2 12q0 23 -31 23q-9 0 -9 7q0 8 9 8h101q9 0 9 -8q0 -7 -9 -7q-20 0 -35.5 -9t-19.5 -26l-55 -206l72 -244q5 -17 21 -26t36 -9q9 0 9 -7z" />
    <glyph glyph-name="y" unicode="y" horiz-adv-x="396" 
d="M386 542q0 -7 -9 -7q-20 0 -34 -9.5t-17 -26.5l-131 -708q-7 -40 -37 -64t-71 -24q-31 0 -54 11.5t-23 33.5q0 21 16 33.5t43 12.5q23 0 55 -12q24 -8 32 -8q21 0 27 31l26 141l-118 553q-4 17 -18.5 26.5t-34.5 9.5q-9 0 -9 7q0 8 9 8h166q9 0 9 -8q0 -7 -9 -7
q-32 0 -32 -25q0 -7 1 -11l74 -346l64 346q1 3 1 9q0 27 -34 27q-9 0 -9 7q0 8 9 8h99q9 0 9 -8z" />
    <glyph glyph-name="z" unicode="z" horiz-adv-x="338" 
d="M296 547q2 -3 1 -7l-166 -530h22q60 0 86 36t33 63t8 32q3 10 9 10q8 -1 6 -12l-13 -134v5q-1 -4 -4 -7t-7 -3h-217q-4 0 -6 3t-1 7l166 530h-18q-60 0 -89.5 -36.5t-39 -63t-11.5 -30.5q-4 -10 -9 -10q-8 0 -5 13l25 127q1 4 4.5 7t7.5 3h212q4 0 6 -3z" />
    <glyph glyph-name="braceleft" unicode="{" horiz-adv-x="290" 
d="M204 767.5q-26 -17.5 -41 -43.5t-15 -50q0 -25 9 -74q11 -70 11 -105q0 -74 -37 -112t-98 -38q61 0 98 -38t37 -112q0 -35 -11 -105q-9 -49 -9 -74q0 -24 15 -50t41 -43.5t58 -17.5q8 0 8 -7v-1q0 -7 -8 -7q-43 0 -88.5 21t-75.5 59t-30 86q-1 23 1.5 44.5t8.5 52.5
q10 56 10 87q0 36 -12.5 66.5t-42.5 30.5h-15q-8 0 -8 7v1q0 7 8 7h15q30 0 42.5 31t12.5 67q0 31 -10 87q-6 31 -8.5 52.5t-1.5 44.5q0 48 30 86t75.5 59t88.5 21q8 0 8 -7v-1q0 -7 -8 -7q-32 0 -58 -17.5z" />
    <glyph glyph-name="bar" unicode="|" horiz-adv-x="55" 
d="M27 -131q-7 0 -7 8v863q0 8 7 8h1q7 0 7 -8v-863q0 -8 -7 -8h-1z" />
    <glyph glyph-name="braceright" unicode="}" horiz-adv-x="290" 
d="M262 352q8 0 8 -7v-1q0 -7 -8 -7h-15q-30 0 -42.5 -30.5t-12.5 -66.5q0 -31 10 -87q6 -31 8.5 -52.5t1.5 -44.5q0 -48 -30 -86t-75.5 -59t-88.5 -21q-8 0 -8 7v1q0 7 8 7q32 0 58 17.5t41 43.5t15 50q0 25 -9 74q-11 70 -11 105q0 74 37 112t98 38q-61 0 -98 38t-37 112
q0 35 11 105q9 49 9 74q0 24 -15 50t-41 43.5t-58 17.5q-8 0 -8 7v1q0 7 8 7q43 0 88.5 -21t75.5 -59t30 -86q1 -23 -1.5 -44.5t-8.5 -52.5q-10 -56 -10 -87q0 -36 12.5 -67t42.5 -31h15z" />
    <glyph glyph-name="asciitilde" unicode="~" horiz-adv-x="263" 
d="M22 304q0 83 16.5 115t52.5 32q11 0 22 -5t27 -15q16 -11 29 -16.5t27 -5.5q29 0 29 55q0 15 8 15t8 -15q0 -83 -16.5 -115t-52.5 -32q-12 0 -21.5 4.5t-28.5 15.5q-17 11 -29 16.5t-26 5.5q-16 0 -23 -16t-7 -39q0 -15 -7 -15q-8 0 -8 15z" />
    <glyph glyph-name="exclamdown" unicode="&#xa1;" horiz-adv-x="190" 
d="M127 738q13 -20 13 -50t-13 -50.5t-32 -20.5t-32 20.5t-13 50.5t13 50t32 20t32 -20zM62 10.5q-12 20.5 -12 49.5q0 35 11 123q10 86 16.5 171.5t7.5 207.5q0 4 3 7t7 3t7 -3t3 -7q1 -122 7 -207t17 -171q4 -35 7.5 -67t3.5 -57q0 -29 -12 -49.5t-33 -20.5t-33 20.5z" />
    <glyph glyph-name="cent" unicode="&#xa2;" horiz-adv-x="325" 
d="M279 41.5q-26 -50.5 -95 -51.5v-63q0 -8 -7 -8h-1q-7 0 -7 8v64q-84 7 -116.5 90.5t-32.5 194.5q0 118 35 195.5t114 87.5v92q0 8 7 8h1q7 0 7 -8v-91h6q33 0 59 -18t40 -46t15 -56q0 -32 -13 -49t-31 -17q-19 0 -32.5 14.5t-13.5 44.5q0 16 5 27t15 24q5 7 9 14t4 14
q-1 13 -15 22.5t-34 9.5q-10 0 -14 -1v-531q10 -2 15 -2q46 0 68.5 44t22.5 112q0 8 7 8h1q7 0 7 -8q0 -74 -26 -124.5zM123 115.5q13 -72.5 46 -95.5v518q-38 -18 -48.5 -79.5t-10.5 -162.5q0 -108 13 -180.5z" />
    <glyph glyph-name="sterling" unicode="&#xa3;" horiz-adv-x="437" 
d="M396.5 186.5q1.5 -2.5 0.5 -6.5q-18 -78 -28.5 -112t-30.5 -56t-54 -22q-13 0 -30 5t-34 11q-28 10 -43.5 14.5t-32.5 4.5q-46 0 -85 -34l-1 -1q-3 -3 -6 -3t-5 2t-1.5 5.5t2.5 5.5l28 30q37 40 53.5 60.5t24.5 44.5t8 59q0 45 -11.5 81t-32.5 80h-90q-8 0 -8 7v1
q0 7 8 7h83q-26 54 -38.5 93.5t-12.5 91.5t19 98.5t55.5 75.5t87.5 29q62 0 96.5 -39.5t34.5 -100.5q0 -33 -14.5 -60t-39.5 -27q-21 0 -34.5 15t-13.5 42q0 21 9.5 32t29.5 23q14 9 21.5 16.5t7.5 19.5q0 13 -11.5 28t-30 25.5t-37.5 10.5q-50 0 -75 -40t-25 -103
q0 -40 8.5 -72.5t25.5 -81.5q17 -46 25 -76h125q8 0 8 -7v-1q0 -7 -8 -7h-121q10 -45 10 -91q0 -99 -56 -174q63 -9 114 -9q44 0 67 21.5t46 80.5q3 6 7 6t5.5 -2.5z" />
    <glyph glyph-name="currency" unicode="&#xa4;" horiz-adv-x="475" 
d="M411 191q5 -8 1 -13q-4 -2 -5 -2q-4 0 -8 5l-51 65q-21 -29 -49.5 -45.5t-59.5 -16.5q-33 0 -61.5 16t-50.5 46l-51 -65q-7 -8 -13 -3q-2 4 -2 5q0 4 3 8l54 69q-18 28 -27.5 64.5t-9.5 76.5q0 81 37 142l-54 69q-5 8 -1 13q4 2 5 2q4 0 8 -5l52 -65q21 30 50 46.5
t61 16.5q31 0 59 -16.5t50 -46.5l51 65q7 8 13 3q2 -4 2 -5q0 -3 -3 -8l-54 -69q37 -63 37 -142q0 -80 -37 -141zM309.5 227q32.5 27 51 73.5t18.5 100.5q0 55 -18.5 101.5t-51 74t-70.5 27.5q-40 0 -72.5 -27t-51.5 -73.5t-19 -102.5q0 -55 19 -101t51.5 -73t72.5 -27
q38 0 70.5 27z" />
    <glyph glyph-name="yen" unicode="&#xa5;" horiz-adv-x="452" 
d="M432 740q0 -7 -9 -7q-20 0 -35 -9.5t-19 -26.5l-82 -346h60q8 0 8 -7v-1q0 -7 -8 -7h-63l-4 -16v-44h67q8 0 8 -7v-1q0 -7 -8 -7h-67v-209q0 -18 11 -27.5t31 -9.5q9 0 9 -7q0 -8 -9 -8h-164q-9 0 -9 8q0 7 9 7q20 0 31 9.5t11 27.5v209h-69q-8 0 -8 7v1q0 7 8 7h69v44
l-5 16h-64q-8 0 -8 7v1q0 7 8 7h60l-105 347q-5 17 -21 26t-36 9q-9 0 -9 7q0 8 9 8h170q9 0 9 -8q0 -7 -9 -7q-29 0 -29 -21q0 -9 2 -14l101 -341l80 340l2 12q0 24 -32 24q-9 0 -9 7q0 8 9 8h100q9 0 9 -8z" />
    <glyph glyph-name="brokenbar" unicode="&#xa6;" horiz-adv-x="55" 
d="M27 408q-7 0 -7 8v324q0 8 7 8h1q7 0 7 -8v-324q0 -8 -7 -8h-1zM27 -131q-7 0 -7 8v324q0 8 7 8h1q7 0 7 -8v-324q0 -8 -7 -8h-1z" />
    <glyph glyph-name="section" unicode="&#xa7;" horiz-adv-x="284" 
d="M244 285.5q-20 -35.5 -55 -50.5q35 -39 54 -70.5t19 -65.5q0 -67 -35.5 -100.5t-95.5 -33.5q-48 0 -79 34t-31 88q0 31 17.5 53t44.5 22q23 0 40 -16t17 -38t-12 -35.5t-29 -13.5q-7 0 -19 3.5t-17 3.5q-7 0 -11.5 -5t-4.5 -13q0 -30 25.5 -51t54.5 -21q35 0 54 21t19 61
q0 39 -21.5 70.5t-65.5 76.5q-46 47 -69.5 82.5t-23.5 79.5q0 49 20 82t54 44q-36 40 -55 72.5t-19 71.5q0 56 32.5 88.5t80.5 32.5q49 0 79.5 -31t30.5 -80q0 -34 -14.5 -52t-37.5 -18q-22 0 -36.5 15t-14.5 37q0 21 13 35.5t34 14.5q24 0 24 16q0 10 -10 22.5t-27 21
t-38 8.5q-25 0 -40 -17.5t-15 -46.5q0 -47 24.5 -84.5t72.5 -88.5q43 -44 64.5 -75.5t21.5 -68.5q0 -45 -20 -80.5zM87.5 455q-6.5 -16 -6.5 -36q0 -44 24 -81t72 -89q25 21 25 72q0 29 -13 55t-29.5 45.5t-53.5 58.5q-12 -9 -18.5 -25z" />
    <glyph glyph-name="dieresis" unicode="&#xa8;" horiz-adv-x="266" 
d="M34 819q-14 19 -14 49t14 49.5t33 19.5q18 0 32.5 -19.5t14.5 -49.5t-14.5 -49t-32.5 -19q-19 0 -33 19zM166.5 819q-14.5 19 -14.5 49t14.5 49.5t32.5 19.5q19 0 33 -19.5t14 -49.5t-14 -49t-33 -19q-18 0 -32.5 19z" />
    <glyph glyph-name="copyright" unicode="&#xa9;" horiz-adv-x="649" 
d="M172 38q-70 52 -111 141.5t-41 195.5q0 105 41 194t111 141.5t152 52.5q83 0 153 -52.5t111 -141.5t41 -194q0 -106 -41 -195.5t-111 -141.5t-153 -52q-82 0 -152 52zM469 51.5q67 50.5 106 136t39 187.5q0 101 -39 187t-106 136t-145 50t-144.5 -50t-105.5 -136
t-39 -187q0 -102 39 -187.5t105.5 -136t144.5 -50.5t145 50.5zM229.5 157q-39.5 35 -59.5 93.5t-20 127.5t20 127.5t59.5 93.5t94.5 35q30 0 47.5 -8t30.5 -18.5t17 -10.5q6 0 9 7.5t3 24.5q0 5 5 5h1q4 0 4 -5v-131q0 -5 -4 -5h-1q-5 0 -5 5q0 27 -11.5 56.5t-35.5 49.5
t-60 20q-53 0 -76.5 -73t-23.5 -173t23.5 -173t76.5 -73q55 0 81 46t26 127q0 5 5 5h1q4 0 4 -5v-178q0 -5 -4 -5h-1q-5 0 -5 5q0 18 -3 25t-9 7q-4 0 -17 -11t-31 -18.5t-47 -7.5q-55 0 -94.5 35z" />
    <glyph glyph-name="guillemotleft" unicode="&#xab;" horiz-adv-x="303" 
d="M143 52l-109 229q-4 14 -4 20q0 8 4 20l111 229q6 11 12 11q9 0 6 -13q-20 -70 -73 -247q53 -176 73 -246v-5q0 -9 -6 -9q-8 0 -14 11zM263 52l-109 229q-4 14 -4 20q0 8 4 20l111 229q6 11 12 11q9 0 6 -13q-20 -70 -73 -247q53 -176 73 -246v-5q0 -9 -6 -9q-8 0 -14 11
z" />
    <glyph glyph-name="logicalnot" unicode="&#xac;" 
d="M242 353v-87q0 -8 -7 -8h-1q-7 0 -7 8v79h-199q-8 0 -8 7v1q0 7 8 7h207q3 0 5 -2t2 -5z" />
    <glyph glyph-name="registered" unicode="&#xae;" horiz-adv-x="649" 
d="M172 38q-70 52 -111 141.5t-41 195.5q0 105 41 194t111 141.5t152 52.5q83 0 153 -52.5t111 -141.5t41 -194q0 -106 -41 -195.5t-111 -141.5t-153 -52q-82 0 -152 52zM469 51.5q67 50.5 106 136t39 187.5q0 101 -39 187t-106 136t-145 50t-144.5 -50t-105.5 -136
t-39 -187q0 -102 39 -187.5t105.5 -136t144.5 -50.5t145 50.5zM358 203v103q0 21 -11 38.5t-32 17.5h-41v-188q0 -18 11 -27.5t31 -9.5q9 0 9 -7q0 -8 -9 -8h-125q-6 0 -6 4q0 5 6 5q13 0 20.5 6t7.5 18v446q0 11 -7.5 18t-20.5 7q-6 0 -6 3q0 5 6 5h118q52 0 86 -31
t34 -107q0 -48 -20 -79t-50 -44q23 -2 41 -25t18 -62l2 -126q0 -16 3 -23.5t11 -7.5q5 0 7.5 3.5t3.5 7t2 5.5q3 8 9 8q3 0 4.5 -4t0.5 -10q-1 -1 -3.5 -7.5t-10.5 -11.5t-20 -5q-69 0 -69 88zM282 373q86 0 86 123q0 63 -21 95t-58 32q-8 0 -11.5 -4t-3.5 -17v-229h8z" />
    <glyph glyph-name="macron" unicode="&#xaf;" horiz-adv-x="289" 
d="M58 860q-8 0 -8 7v1q0 7 8 7h173q8 0 8 -7v-1q0 -7 -8 -7h-173z" />
    <glyph glyph-name="degree" unicode="&#xb0;" horiz-adv-x="200" 
d="M42.5 603q-22.5 26 -22.5 64t22.5 64.5t57.5 26.5q34 0 57 -26.5t23 -64.5t-23 -64t-57 -26q-35 0 -57.5 26zM146.5 614.5q18.5 21.5 18.5 52.5q0 32 -18.5 53.5t-46.5 21.5q-29 0 -47 -21.5t-18 -53.5q0 -31 18 -52.5t47 -21.5q28 0 46.5 21.5z" />
    <glyph glyph-name="plusminus" unicode="&#xb1;" 
d="M234 360q8 0 8 -7v-1q0 -7 -8 -7h-95v-145q0 -8 -7 -8h-1q-7 0 -7 8v145h-96q-8 0 -8 7v1q0 7 8 7h96v146q0 8 7 8h1q7 0 7 -8v-146h95zM234 118q8 0 8 -7v-1q0 -7 -8 -7h-206q-8 0 -8 7v1q0 7 8 7h206z" />
    <glyph glyph-name="uni00B2" unicode="&#xb2;" horiz-adv-x="179" 
d="M134 569v-66q0 -3 -3 -3h-88q-1 0 -2 1t-1 2v21q0 5 3 9t4 6q28 35 45 85.5t17 90.5q0 42 -32 42q-10 0 -16.5 -6.5t-6.5 -13.5q0 -6 9 -15t9 -17q0 -19 -15 -19q-8 0 -12.5 8.5t-4.5 20.5q0 21 11 34.5t33 13.5q26 0 40.5 -19t14.5 -49q0 -36 -25.5 -77.5t-63.5 -85.5
q-3 -3 -1.5 -5.5t5.5 -2.5h36q21 0 28.5 12t9 21.5t1.5 11.5q0 4 3 4q2 0 2 -4z" />
    <glyph glyph-name="uni00B3" unicode="&#xb3;" horiz-adv-x="180" 
d="M140 569q0 -31 -13.5 -50t-41.5 -19q-21 0 -32 13t-11 34q0 11 4.5 19.5t12.5 8.5q14 0 14 -19q0 -8 -8.5 -16.5t-8.5 -14.5q0 -7 6 -13.5t16 -6.5q18 0 24.5 18.5t6.5 48.5q0 25 -5.5 43.5t-20.5 19.5h-2h-12v5h12q14 0 18.5 15.5t4.5 38.5q0 27 -5 42.5t-23 15.5
q-10 0 -16 -6t-6 -13q0 -6 9 -15t9 -17q0 -19 -14 -19q-9 0 -13.5 9t-4.5 20q0 20 11.5 33.5t31.5 13.5q52 0 52 -60q0 -48 -35 -60q40 -10 40 -69z" />
    <glyph glyph-name="acute" unicode="&#xb4;" horiz-adv-x="159" 
d="M21 815q13 38 38 99t35 80q9 20 26 20q3 0 9 -2q10 -6 10 -16q0 -11 -7 -24q-16 -28 -97 -163q-5 -7 -10 -7q-8 0 -4 13z" />
    <glyph glyph-name="paragraph" unicode="&#xb6;" horiz-adv-x="333" 
d="M313 740q0 -7 -9 -7q-20 0 -31 -9.5t-11 -27.5v-688q0 -8 -7 -8h-1q-7 0 -7 8v693q0 32 -21 32h-16v-725q0 -8 -7 -8h-1q-7 0 -7 8v312q-86 0 -130.5 60t-44.5 155q0 94 45 153.5t130 59.5h109q9 0 9 -8z" />
    <glyph glyph-name="periodcentered" unicode="&#xb7;" horiz-adv-x="140" 
d="M102 362q13 -20 13 -50t-13 -50.5t-32 -20.5t-32 20.5t-13 50.5t13 50t32 20t32 -20z" />
    <glyph glyph-name="cedilla" unicode="&#xb8;" horiz-adv-x="205" 
d="M34 -231.5q-19 18.5 -19 43.5q0 4 2.5 7t5.5 3q2 0 4.5 -3t2.5 -7q1 -19 13 -30.5t34 -11.5q23 0 31.5 23t8.5 52q0 34 -11.5 53t-34.5 19q-16 0 -32 -15q-1 -2 -5 -2t-6 3.5t2 7.5l66 89h17l-20 -30q-5 -6 -5 -16q0 -12 16 -12q31 -1 54 -29t23 -66q0 -43 -28 -70
t-69 -27q-31 0 -50 18.5z" />
    <glyph glyph-name="uni00B9" unicode="&#xb9;" horiz-adv-x="147" 
d="M46 503q0 2 3 2q14 0 14 12v185q0 8 -7 0l-11 -12q-1 -1 -4 0q-1 1 0 4q28 40 37 51q2 3 5 3h3q2 0 3 -1t1 -2v-228q0 -12 14 -12q3 0 3 -2q0 -3 -3 -3h-55q-3 0 -3 3z" />
    <glyph glyph-name="guillemotright" unicode="&#xbb;" horiz-adv-x="303" 
d="M31 45.5q-1 4.5 0 9.5q20 70 73 246q-53 177 -73 247v5q0 8 6 8q7 0 12 -11l111 -229q4 -8 4 -20q0 -11 -4 -20l-109 -229q-5 -11 -14 -11q-5 0 -6 4.5zM151 45.5q-1 4.5 0 9.5q20 70 73 246q-53 177 -73 247v5q0 8 6 8q7 0 12 -11l111 -229q4 -8 4 -20q0 -11 -4 -20
l-109 -229q-5 -11 -14 -11q-5 0 -6 4.5z" />
    <glyph glyph-name="onequarter" unicode="&#xbc;" horiz-adv-x="312" 
d="M112 670q-2 -2 -3 -2q-3 0 -4.5 2t-0.5 5l50 69q3 4 6 4h7q2 0 3.5 -1.5t1.5 -3.5v-307q0 -16 19 -16q6 0 6 -5t-6 -5h-74q-5 0 -5 5t5 5q8 0 13.5 4.5t5.5 11.5v250q0 6 -3 6q-2 0 -7 -5zM286 378q6 0 6 -5t-6 -5h-260q-6 0 -6 5t6 5h260zM216 106q3 0 4.5 -1.5
t1.5 -3.5t-1.5 -3.5t-4.5 -1.5h-25v-70q0 -16 19 -16q6 0 6 -5t-6 -5h-74q-5 0 -5 5t5 5q8 0 13.5 4.5t5.5 11.5v70h-76q-4 0 -4 4v2l93 232q0 1 2 2.5t4 1.5h13q4 0 4 -4v-228h25zM155 274l-68 -168h68v168z" />
    <glyph glyph-name="onehalf" unicode="&#xbd;" horiz-adv-x="312" 
d="M117 410q-5 0 -5 5t5 5q8 0 13.5 4.5t5.5 11.5v250q0 6 -3 6q-2 0 -7 -5l-14 -17q-2 -3 -5 -1.5t-1 5.5l49 70q3 4 6 4h6q2 0 3.5 -1.5t1.5 -3.5v-307q0 -16 19 -16q6 0 6 -5t-6 -5h-74zM26 368q-6 0 -6 5t6 5h260q6 0 6 -5t-6 -5h-260zM98 0q-2 0 -3.5 1t-1.5 3v32
q0 5 4 10.5t6 7.5q36 46 57.5 109.5t21.5 113.5q0 22 -11 35t-31 13q-12 0 -18.5 -8t-6.5 -17q0 -7 6.5 -13t11 -12t4.5 -17q0 -12 -6 -18.5t-15 -6.5q-11 0 -17.5 12t-6.5 26q0 27 15.5 47t42.5 20q34 0 52 -24.5t18 -62.5q0 -47 -31 -98t-80 -108l-2 -4q0 -5 8 -5h42
q30 0 40 19t10 38q0 6 5 6t5 -6v-89q0 -4 -5 -4h-114z" />
    <glyph glyph-name="threequarters" unicode="&#xbe;" horiz-adv-x="312" 
d="M97.5 662.5q-6.5 13.5 -6.5 28.5q0 26 16 41.5t44 15.5q36 0 49.5 -20t13.5 -58q0 -34 -12 -53.5t-31 -25.5q50 -12 50 -90q0 -40 -17 -65.5t-53 -25.5q-27 0 -42 18t-15 45q0 14 6.5 26t16.5 12q9 0 15.5 -6.5t6.5 -17.5q0 -10 -3.5 -15.5t-12 -13t-8.5 -15.5t6.5 -14
t19.5 -6q24 0 32.5 22t8.5 60q0 30 -9 55.5t-27 25.5h-16v10h16q18 0 23.5 20t5.5 49q0 34 -6 52.5t-28 18.5q-13 0 -20.5 -6t-7.5 -14t10 -18q6 -5 9.5 -10t3.5 -14q0 -12 -6 -18.5t-16 -6.5t-16.5 13.5zM286 378q6 0 6 -5t-6 -5h-260q-6 0 -6 5t6 5h260zM216 106
q3 0 4.5 -1.5t1.5 -3.5t-1.5 -3.5t-4.5 -1.5h-25v-70q0 -16 19 -16q6 0 6 -5t-6 -5h-74q-5 0 -5 5t5 5q8 0 13.5 4.5t5.5 11.5v70h-76q-4 0 -4 4v2l93 232q0 1 2 2.5t4 1.5h13q4 0 4 -4v-228h25zM155 274l-68 -168h68v168z" />
    <glyph glyph-name="questiondown" unicode="&#xbf;" horiz-adv-x="369" 
d="M158 637.5q-13 20.5 -13 50.5t13 50t32 20t32 -20t13 -50t-13 -50.5t-32 -20.5t-32 20.5zM304.5 157q14.5 -15 14.5 -47q-1 -27 -15.5 -55t-42 -46.5t-64.5 -18.5q-68 0 -107.5 39t-39.5 115q0 41 13.5 75.5t42.5 88.5q37 67 56.5 120.5t19.5 125.5q0 8 7 8h1q7 0 7 -8
q0 -79 -8 -130.5t-23 -112.5q-13 -54 -19.5 -93t-6.5 -94q0 -62 15 -90.5t53 -28.5q19 0 33.5 8.5t15.5 21.5q0 15 -16 29q-11 12 -16.5 22t-5.5 27q0 30 15 44.5t36 14.5q20 0 34.5 -15z" />
    <glyph glyph-name="Agrave" unicode="&#xc0;" horiz-adv-x="507" 
d="M151 972q-7 13 -7 24q0 10 10 16q6 2 9 2q17 0 26 -20q10 -19 35 -80t38 -99q3 -10 -2 -13h-2q-5 0 -10 7q-81 135 -97 163zM477 8q0 -8 -9 -8h-167q-9 0 -9 8q0 7 9 7q33 0 33 26q0 6 -1 10l-26 140h-170l-30 -140q-1 -4 -1 -11q0 -25 32 -25q9 0 9 -7q0 -8 -9 -8h-99
q-9 0 -9 8q0 7 9 7q20 0 34.5 9.5t18.5 26.5l147 687q2 8 11 10h19q4 0 7.5 -3t4.5 -7l135 -687q4 -17 18 -26.5t34 -9.5q9 0 9 -7zM227 614l-87 -408h164z" />
    <glyph glyph-name="Aacute" unicode="&#xc1;" horiz-adv-x="507" 
d="M258 815q13 38 38 99t35 80q9 20 26 20q3 0 9 -2q10 -6 10 -16q0 -11 -7 -24q-16 -28 -97 -163q-5 -7 -10 -7q-8 0 -4 13zM477 8q0 -8 -9 -8h-167q-9 0 -9 8q0 7 9 7q33 0 33 26q0 6 -1 10l-26 140h-170l-30 -140q-1 -4 -1 -11q0 -25 32 -25q9 0 9 -7q0 -8 -9 -8h-99
q-9 0 -9 8q0 7 9 7q20 0 34.5 9.5t18.5 26.5l147 687q2 8 11 10h19q4 0 7.5 -3t4.5 -7l135 -687q4 -17 18 -26.5t34 -9.5q9 0 9 -7zM227 614l-87 -408h164z" />
    <glyph glyph-name="Acircumflex" unicode="&#xc2;" horiz-adv-x="507" 
d="M187.5 804.5q-1.5 3.5 -0.5 8.5q14 65 43 170q11 32 30 32q10 0 17 -8t13 -24q29 -107 43 -170q1 -2 1 -5q0 -5 -5 -7h-2q-10 0 -67 159q-42 -119 -58 -152q-4 -7 -9 -7q-4 0 -5.5 3.5zM477 8q0 -8 -9 -8h-167q-9 0 -9 8q0 7 9 7q33 0 33 26q0 6 -1 10l-26 140h-170
l-30 -140q-1 -4 -1 -11q0 -25 32 -25q9 0 9 -7q0 -8 -9 -8h-99q-9 0 -9 8q0 7 9 7q20 0 34.5 9.5t18.5 26.5l147 687q2 8 11 10h19q4 0 7.5 -3t4.5 -7l135 -687q4 -17 18 -26.5t34 -9.5q9 0 9 -7zM227 614l-87 -408h164z" />
    <glyph glyph-name="Atilde" unicode="&#xc3;" horiz-adv-x="507" 
d="M192 804q0 58 12 80t38 22q9 0 18.5 -4.5t18.5 -9.5q21 -15 36 -15q11 0 15 10.5t4 27.5q0 6 2 9t5 3q7 0 7 -12q0 -58 -12 -80t-38 -22q-15 0 -36 15q-9 5 -18.5 9.5t-18.5 4.5q-11 0 -15 -10.5t-4 -27.5q0 -6 -2 -9t-5 -3q-7 0 -7 12zM477 8q0 -8 -9 -8h-167q-9 0 -9 8
q0 7 9 7q33 0 33 26q0 6 -1 10l-26 140h-170l-30 -140q-1 -4 -1 -11q0 -25 32 -25q9 0 9 -7q0 -8 -9 -8h-99q-9 0 -9 8q0 7 9 7q20 0 34.5 9.5t18.5 26.5l147 687q2 8 11 10h19q4 0 7.5 -3t4.5 -7l135 -687q4 -17 18 -26.5t34 -9.5q9 0 9 -7zM227 614l-87 -408h164z" />
    <glyph glyph-name="Adieresis" unicode="&#xc4;" horiz-adv-x="507" 
d="M166 816.5q-14 16.5 -14 46.5t14 47t33 17t33 -17t14 -47t-14 -46.5t-33 -16.5t-33 16.5zM288 816.5q-14 16.5 -14 46.5t14 47t33 17t33 -17.5t14 -46.5q0 -30 -14 -46.5t-33 -16.5t-33 16.5zM477 8q0 -8 -9 -8h-167q-9 0 -9 8q0 7 9 7q33 0 33 26q0 6 -1 10l-26 140
h-170l-30 -140q-1 -4 -1 -11q0 -25 32 -25q9 0 9 -7q0 -8 -9 -8h-99q-9 0 -9 8q0 7 9 7q20 0 34.5 9.5t18.5 26.5l147 687q2 8 11 10h19q4 0 7.5 -3t4.5 -7l135 -687q4 -17 18 -26.5t34 -9.5q9 0 9 -7zM227 614l-87 -408h164z" />
    <glyph glyph-name="Aring" unicode="&#xc5;" horiz-adv-x="507" 
d="M206.5 826q-20.5 26 -20.5 71t20 70.5t54 25.5q33 0 53.5 -25.5t20.5 -70.5q0 -44 -20.5 -70.5t-53.5 -26.5t-53.5 26zM226 897q0 -87 34 -87q15 0 24 22t9 65t-9 64.5t-24 21.5q-34 0 -34 -86zM477 8q0 -8 -9 -8h-167q-9 0 -9 8q0 7 9 7q33 0 33 26q0 6 -1 10l-26 140
h-170l-30 -140q-1 -4 -1 -11q0 -25 32 -25q9 0 9 -7q0 -8 -9 -8h-99q-9 0 -9 8q0 7 9 7q20 0 34.5 9.5t18.5 26.5l147 687q2 8 11 10h19q4 0 7.5 -3t4.5 -7l135 -687q4 -17 18 -26.5t34 -9.5q9 0 9 -7zM227 614l-87 -408h164z" />
    <glyph glyph-name="AE" unicode="&#xc6;" horiz-adv-x="642" 
d="M436 733q-21 0 -21 -32v-314q45 1 68 25.5t27.5 41.5t13.5 63q2 11 8 11q7 0 7 -11v-275q0 -11 -7 -11q-6 0 -8 11q-1 4 -6 38.5t-31.5 62.5t-71.5 29v-325q0 -32 21 -32h57q59 0 81.5 56.5t27 97t5.5 46.5q2 11 8 11q7 0 7 -11v-205q0 -4 -3 -7t-7 -3h-319q-9 0 -9 8
q0 7 9 7q20 0 31 9.5t11 27.5v139h-182l-49 -142q-3 -9 -3 -15q0 -19 28 -19q9 0 9 -7q0 -8 -9 -8h-100q-9 0 -9 8q0 7 9 7q21 0 37 8.5t22 25.5l239 690q1 3 5 6t8 3h272q4 0 7 -3t3 -7v-205q0 -11 -7 -11q-6 0 -8 11q-1 6 -7 58t-33 97t-74 45h-57zM335 716l-177 -510h177
v510z" />
    <glyph glyph-name="Ccedilla" unicode="&#xc7;" horiz-adv-x="466" 
d="M177.5 695q-28.5 -48 -38 -126.5t-9.5 -194.5t9.5 -194.5t38 -126.5t82.5 -48q72 0 106.5 69t34.5 190q0 8 7 8h1q7 0 7 -8v-266q0 -8 -7 -8h-1q-7 0 -7 8q0 30 -2.5 39t-10.5 9q-6 0 -13 -4t-11.5 -7.5t-6.5 -5.5q-19 -17 -39 -27.5t-50 -11.5l-19 -29q-5 -6 -5 -16
q0 -12 16 -12q31 -1 54 -29t23 -66q0 -43 -28 -70t-69 -27q-31 0 -50 18.5t-19 43.5q0 4 2.5 7t5.5 3q2 0 4.5 -3t2.5 -7q1 -19 13 -30.5t34 -11.5q23 0 31.5 23t8.5 52q0 34 -11.5 53t-34.5 19q-16 0 -32 -15q-1 -2 -5 -2t-6 3.5t2 7.5l65 88q-114 4 -162.5 110t-48.5 274
q0 171 50.5 277.5t169.5 106.5q35 0 56 -11t44 -30q17 -15 24 -15q10 0 13.5 10.5t3.5 37.5q0 8 7 8h1q7 0 7 -8v-216q0 -8 -7 -8h-1q-7 0 -7 8q0 41 -15.5 90t-47.5 84t-78 35q-54 0 -82.5 -48z" />
    <glyph glyph-name="Egrave" unicode="&#xc8;" horiz-adv-x="439" 
d="M104 972q-7 13 -7 24q0 10 10 16q6 2 9 2q17 0 26 -20q10 -19 35 -80t38 -99q3 -10 -2 -13h-2q-5 0 -10 7q-81 135 -97 163zM404 208l-53 -198q-2 -4 -5.5 -7t-7.5 -3h-289q-9 0 -9 8q0 7 9 7q20 0 31 9.5t11 27.5v644q0 18 -11 27.5t-31 9.5q-9 0 -9 7q0 8 9 8h289
q4 0 7.5 -3t5.5 -7l53 -198v-4q0 -6 -4 -9h-1q-3 0 -5.5 2.5t-4.5 6.5q-3 6 -22 57t-58 95.5t-86 44.5h-31q-21 0 -21 -32v-314q45 1 68 25.5t27.5 41.5t13.5 63q2 11 8 11q7 0 7 -11v-275q0 -11 -7 -11q-6 0 -8 11q-1 4 -6 38.5t-31.5 62.5t-71.5 29v-325q0 -32 21 -32h31
q59 0 96.5 56.5t52 95.5t17.5 45q5 10 11 9q5 -3 4 -13z" />
    <glyph glyph-name="Eacute" unicode="&#xc9;" horiz-adv-x="439" 
d="M211 815q13 38 38 99t35 80q9 20 26 20q3 0 9 -2q10 -6 10 -16q0 -11 -7 -24q-16 -28 -97 -163q-5 -7 -10 -7q-8 0 -4 13zM404 208l-53 -198q-2 -4 -5.5 -7t-7.5 -3h-289q-9 0 -9 8q0 7 9 7q20 0 31 9.5t11 27.5v644q0 18 -11 27.5t-31 9.5q-9 0 -9 7q0 8 9 8h289
q4 0 7.5 -3t5.5 -7l53 -198v-4q0 -6 -4 -9h-1q-3 0 -5.5 2.5t-4.5 6.5q-3 6 -22 57t-58 95.5t-86 44.5h-31q-21 0 -21 -32v-314q45 1 68 25.5t27.5 41.5t13.5 63q2 11 8 11q7 0 7 -11v-275q0 -11 -7 -11q-6 0 -8 11q-1 4 -6 38.5t-31.5 62.5t-71.5 29v-325q0 -32 21 -32h31
q59 0 96.5 56.5t52 95.5t17.5 45q5 10 11 9q5 -3 4 -13z" />
    <glyph glyph-name="Ecircumflex" unicode="&#xca;" horiz-adv-x="439" 
d="M140.5 804.5q-1.5 3.5 -0.5 8.5q14 65 43 170q11 32 30 32q10 0 17 -8t13 -24q29 -107 43 -170q1 -2 1 -5q0 -5 -5 -7h-2q-10 0 -67 159q-42 -119 -58 -152q-4 -7 -9 -7q-4 0 -5.5 3.5zM404 208l-53 -198q-2 -4 -5.5 -7t-7.5 -3h-289q-9 0 -9 8q0 7 9 7q20 0 31 9.5
t11 27.5v644q0 18 -11 27.5t-31 9.5q-9 0 -9 7q0 8 9 8h289q4 0 7.5 -3t5.5 -7l53 -198v-4q0 -6 -4 -9h-1q-3 0 -5.5 2.5t-4.5 6.5q-3 6 -22 57t-58 95.5t-86 44.5h-31q-21 0 -21 -32v-314q45 1 68 25.5t27.5 41.5t13.5 63q2 11 8 11q7 0 7 -11v-275q0 -11 -7 -11
q-6 0 -8 11q-1 4 -6 38.5t-31.5 62.5t-71.5 29v-325q0 -32 21 -32h31q59 0 96.5 56.5t52 95.5t17.5 45q5 10 11 9q5 -3 4 -13z" />
    <glyph glyph-name="Edieresis" unicode="&#xcb;" horiz-adv-x="439" 
d="M119 816.5q-14 16.5 -14 46.5t14 47t33 17t33 -17t14 -47t-14 -46.5t-33 -16.5t-33 16.5zM241 816.5q-14 16.5 -14 46.5t14 47t33 17t33 -17.5t14 -46.5q0 -30 -14 -46.5t-33 -16.5t-33 16.5zM404 208l-53 -198q-2 -4 -5.5 -7t-7.5 -3h-289q-9 0 -9 8q0 7 9 7
q20 0 31 9.5t11 27.5v644q0 18 -11 27.5t-31 9.5q-9 0 -9 7q0 8 9 8h289q4 0 7.5 -3t5.5 -7l53 -198v-4q0 -6 -4 -9h-1q-3 0 -5.5 2.5t-4.5 6.5q-3 6 -22 57t-58 95.5t-86 44.5h-31q-21 0 -21 -32v-314q45 1 68 25.5t27.5 41.5t13.5 63q2 11 8 11q7 0 7 -11v-275
q0 -11 -7 -11q-6 0 -8 11q-1 4 -6 38.5t-31.5 62.5t-71.5 29v-325q0 -32 21 -32h31q59 0 96.5 56.5t52 95.5t17.5 45q5 10 11 9q5 -3 4 -13z" />
    <glyph glyph-name="Igrave" unicode="&#xcc;" 
d="M129 802q-5 0 -10 7q-81 135 -97 163q-7 13 -7 24q0 10 10 16q6 2 9 2q17 0 26 -20q10 -19 35 -80t38 -99q3 -10 -2 -13h-2zM40 8q0 7 9 7q20 0 31 9.5t11 27.5v644q0 18 -11 27.5t-31 9.5q-9 0 -9 7q0 8 9 8h164q9 0 9 -8q0 -7 -9 -7q-20 0 -31 -9.5t-11 -27.5v-644
q0 -18 11 -27.5t31 -9.5q9 0 9 -7q0 -8 -9 -8h-164q-9 0 -9 8z" />
    <glyph glyph-name="Iacute" unicode="&#xcd;" 
d="M129 815q13 38 38 99t35 80q9 20 26 20q3 0 9 -2q10 -6 10 -16q0 -11 -7 -24q-16 -28 -97 -163q-5 -7 -10 -7q-8 0 -4 13zM40 8q0 7 9 7q20 0 31 9.5t11 27.5v644q0 18 -11 27.5t-31 9.5q-9 0 -9 7q0 8 9 8h164q9 0 9 -8q0 -7 -9 -7q-20 0 -31 -9.5t-11 -27.5v-644
q0 -18 11 -27.5t31 -9.5q9 0 9 -7q0 -8 -9 -8h-164q-9 0 -9 8z" />
    <glyph glyph-name="Icircumflex" unicode="&#xce;" 
d="M58.5 804.5q-1.5 3.5 -0.5 8.5q14 65 43 170q11 32 30 32q10 0 17 -8t13 -24q29 -107 43 -170q1 -2 1 -5q0 -5 -5 -7h-2q-10 0 -67 159q-42 -119 -58 -152q-4 -7 -9 -7q-4 0 -5.5 3.5zM222 8q0 -8 -9 -8h-164q-9 0 -9 8q0 7 9 7q20 0 31 9.5t11 27.5v644q0 18 -11 27.5
t-31 9.5q-9 0 -9 7q0 8 9 8h164q9 0 9 -8q0 -7 -9 -7q-20 0 -31 -9.5t-11 -27.5v-644q0 -18 11 -27.5t31 -9.5q9 0 9 -7z" />
    <glyph glyph-name="Idieresis" unicode="&#xcf;" 
d="M37 816.5q-14 16.5 -14 46.5t14 47t33 17t33 -17t14 -47t-14 -46.5t-33 -16.5t-33 16.5zM159 816.5q-14 16.5 -14 46.5t14 47t33 17t33 -17.5t14 -46.5q0 -30 -14 -46.5t-33 -16.5t-33 16.5zM40 8q0 7 9 7q20 0 31 9.5t11 27.5v644q0 18 -11 27.5t-31 9.5q-9 0 -9 7
q0 8 9 8h164q9 0 9 -8q0 -7 -9 -7q-20 0 -31 -9.5t-11 -27.5v-644q0 -18 11 -27.5t31 -9.5q9 0 9 -7q0 -8 -9 -8h-164q-9 0 -9 8z" />
    <glyph glyph-name="Ntilde" unicode="&#xd1;" horiz-adv-x="522" 
d="M214 804q0 58 12 80t38 22q9 0 18.5 -4.5t18.5 -9.5q21 -15 36 -15q11 0 15 10.5t4 27.5q0 6 2 9t5 3q7 0 7 -12q0 -58 -12 -80t-38 -22q-15 0 -36 15q-9 5 -18.5 9.5t-18.5 4.5q-11 0 -15 -10.5t-4 -27.5q0 -6 -2 -9t-5 -3q-7 0 -7 12zM492 740q0 -7 -9 -7
q-20 0 -31 -9.5t-11 -27.5v-686q0 -4 -3 -7t-7 -3h-33l-297 667v-615q0 -18 11 -27.5t31 -9.5q9 0 9 -7q0 -8 -9 -8h-99q-9 0 -9 8q0 7 9 7q20 0 31 9.5t11 27.5v644q0 18 -11 27.5t-31 9.5q-9 0 -9 7q0 8 9 8h107l275 -620v568q0 18 -11 27.5t-31 9.5q-9 0 -9 7q0 8 9 8h99
q9 0 9 -8z" />
    <glyph glyph-name="Ograve" unicode="&#xd2;" horiz-adv-x="511" 
d="M251 812q-5 0 -10 7q-81 135 -97 163q-7 13 -7 24q0 10 10 16q6 2 9 2q17 0 26 -20q10 -19 35 -80t38 -99q3 -10 -2 -13h-2zM91 101q-51 111 -51 273t51 273t163 111q113 0 165 -115t52 -279q0 -161 -51.5 -267.5t-165.5 -106.5q-112 0 -163 111zM349.5 99.5
q31.5 94.5 31.5 264.5q0 173 -32 276t-95 103q-62 0 -93 -99t-31 -270t31 -270t93 -99q64 0 95.5 94.5z" />
    <glyph glyph-name="Oacute" unicode="&#xd3;" horiz-adv-x="511" 
d="M251 825q13 38 38 99t35 80q9 20 26 20q3 0 9 -2q10 -6 10 -16q0 -11 -7 -24q-16 -28 -97 -163q-5 -7 -10 -7q-8 0 -4 13zM91 101q-51 111 -51 273t51 273t163 111q113 0 165 -115t52 -279q0 -161 -51.5 -267.5t-165.5 -106.5q-112 0 -163 111zM349.5 99.5
q31.5 94.5 31.5 264.5q0 173 -32 276t-95 103q-62 0 -93 -99t-31 -270t31 -270t93 -99q64 0 95.5 94.5z" />
    <glyph glyph-name="Ocircumflex" unicode="&#xd4;" horiz-adv-x="511" 
d="M180.5 814.5q-1.5 3.5 -0.5 8.5q14 65 43 170q11 32 30 32q10 0 17 -8t13 -24q29 -107 43 -170q1 -2 1 -5q0 -5 -5 -7h-2q-10 0 -67 159q-42 -119 -58 -152q-4 -7 -9 -7q-4 0 -5.5 3.5zM419 643q52 -115 52 -279q0 -161 -51.5 -267.5t-165.5 -106.5q-112 0 -163 111
t-51 273t51 273t163 111q113 0 165 -115zM349.5 99.5q31.5 94.5 31.5 264.5q0 173 -32 276t-95 103q-62 0 -93 -99t-31 -270t31 -270t93 -99q64 0 95.5 94.5z" />
    <glyph glyph-name="Otilde" unicode="&#xd5;" horiz-adv-x="511" 
d="M185 814q0 58 12 80t38 22q9 0 18.5 -4.5t18.5 -9.5q21 -15 36 -15q11 0 15 10.5t4 27.5q0 6 2 9t5 3q7 0 7 -12q0 -58 -12 -80t-38 -22q-15 0 -36 15q-9 5 -18.5 9.5t-18.5 4.5q-11 0 -15 -10.5t-4 -27.5q0 -6 -2 -9t-5 -3q-7 0 -7 12zM91 101q-51 111 -51 273t51 273
t163 111q113 0 165 -115t52 -279q0 -161 -51.5 -267.5t-165.5 -106.5q-112 0 -163 111zM349.5 99.5q31.5 94.5 31.5 264.5q0 173 -32 276t-95 103q-62 0 -93 -99t-31 -270t31 -270t93 -99q64 0 95.5 94.5z" />
    <glyph glyph-name="Odieresis" unicode="&#xd6;" horiz-adv-x="511" 
d="M159 826.5q-14 16.5 -14 46.5t14 47t33 17t33 -17t14 -47t-14 -46.5t-33 -16.5t-33 16.5zM281 826.5q-14 16.5 -14 46.5t14 47t33 17t33 -17.5t14 -46.5q0 -30 -14 -46.5t-33 -16.5t-33 16.5zM91 101q-51 111 -51 273t51 273t163 111q113 0 165 -115t52 -279
q0 -161 -51.5 -267.5t-165.5 -106.5q-112 0 -163 111zM349.5 99.5q31.5 94.5 31.5 264.5q0 173 -32 276t-95 103q-62 0 -93 -99t-31 -270t31 -270t93 -99q64 0 95.5 94.5z" />
    <glyph glyph-name="multiply" unicode="&#xd7;" horiz-adv-x="273" 
d="M146 352l84 -103q2 -2 1 -5t-1 -5v-1q0 -3 -3 -3q-4 0 -8 4l-83 102l-83 -103q-5 -5 -10 -1l-1 1q-5 5 1 11l84 103l-84 103q-6 6 -1 11l1 1q5 5 10 -1l84 -102l83 102q6 6 9 1l1 -2q2 -2 2 -4.5t-3 -5.5z" />
    <glyph glyph-name="Oslash" unicode="&#xd8;" horiz-adv-x="511" 
d="M353 726q61 -45 89.5 -143.5t28.5 -218.5q0 -161 -51.5 -267.5t-165.5 -106.5q-59 0 -102 34l-13 -47q-3 -7 -8 -7h-1q-3 0 -5 2.5t-1 5.5l16 56q-52 48 -76 139t-24 201q0 162 51 273t163 111q48 0 86 -23l13 47q4 7 8 7h2q3 0 4.5 -3t0.5 -6zM160 106l167 585
q-30 52 -73 52q-62 0 -93 -99t-31 -270q0 -170 30 -268zM349.5 99.5q31.5 94.5 31.5 264.5q0 209 -44 307l-168 -589q31 -77 85 -77q64 0 95.5 94.5z" />
    <glyph glyph-name="Ugrave" unicode="&#xd9;" horiz-adv-x="515" 
d="M279 802q-5 0 -10 7q-81 135 -97 163q-7 13 -7 24q0 10 10 16q6 2 9 2q17 0 26 -20q10 -19 35 -80t38 -99q3 -10 -2 -13h-2zM124 58q-43 68 -43 196v442q0 18 -11 27.5t-31 9.5q-9 0 -9 7q0 8 9 8h164q9 0 9 -8q0 -7 -9 -7q-20 0 -31 -9.5t-11 -27.5v-442
q0 -122 29 -185.5t102 -63.5q66 0 96.5 62t30.5 187v442q0 18 -11 27.5t-31 9.5q-9 0 -9 7q0 8 9 8h99q9 0 9 -8q0 -7 -9 -7q-20 0 -31 -9.5t-11 -27.5v-442q0 -102 -17.5 -159.5t-51.5 -81t-89 -23.5q-109 0 -152 68z" />
    <glyph glyph-name="Uacute" unicode="&#xda;" horiz-adv-x="515" 
d="M279 815q13 38 38 99t35 80q9 20 26 20q3 0 9 -2q10 -6 10 -16q0 -11 -7 -24q-16 -28 -97 -163q-5 -7 -10 -7q-8 0 -4 13zM124 58q-43 68 -43 196v442q0 18 -11 27.5t-31 9.5q-9 0 -9 7q0 8 9 8h164q9 0 9 -8q0 -7 -9 -7q-20 0 -31 -9.5t-11 -27.5v-442q0 -122 29 -185.5
t102 -63.5q66 0 96.5 62t30.5 187v442q0 18 -11 27.5t-31 9.5q-9 0 -9 7q0 8 9 8h99q9 0 9 -8q0 -7 -9 -7q-20 0 -31 -9.5t-11 -27.5v-442q0 -102 -17.5 -159.5t-51.5 -81t-89 -23.5q-109 0 -152 68z" />
    <glyph glyph-name="Ucircumflex" unicode="&#xdb;" horiz-adv-x="515" 
d="M208.5 804.5q-1.5 3.5 -0.5 8.5q14 65 43 170q11 32 30 32q10 0 17 -8t13 -24q29 -107 43 -170q1 -2 1 -5q0 -5 -5 -7h-2q-10 0 -67 159q-42 -119 -58 -152q-4 -7 -9 -7q-4 0 -5.5 3.5zM485 740q0 -7 -9 -7q-20 0 -31 -9.5t-11 -27.5v-442q0 -102 -17.5 -159.5t-51.5 -81
t-89 -23.5q-109 0 -152 68t-43 196v442q0 18 -11 27.5t-31 9.5q-9 0 -9 7q0 8 9 8h164q9 0 9 -8q0 -7 -9 -7q-20 0 -31 -9.5t-11 -27.5v-442q0 -122 29 -185.5t102 -63.5q66 0 96.5 62t30.5 187v442q0 18 -11 27.5t-31 9.5q-9 0 -9 7q0 8 9 8h99q9 0 9 -8z" />
    <glyph glyph-name="Udieresis" unicode="&#xdc;" horiz-adv-x="515" 
d="M187 816.5q-14 16.5 -14 46.5t14 47t33 17t33 -17t14 -47t-14 -46.5t-33 -16.5t-33 16.5zM309 816.5q-14 16.5 -14 46.5t14 47t33 17t33 -17.5t14 -46.5q0 -30 -14 -46.5t-33 -16.5t-33 16.5zM124 58q-43 68 -43 196v442q0 18 -11 27.5t-31 9.5q-9 0 -9 7q0 8 9 8h164
q9 0 9 -8q0 -7 -9 -7q-20 0 -31 -9.5t-11 -27.5v-442q0 -122 29 -185.5t102 -63.5q66 0 96.5 62t30.5 187v442q0 18 -11 27.5t-31 9.5q-9 0 -9 7q0 8 9 8h99q9 0 9 -8q0 -7 -9 -7q-20 0 -31 -9.5t-11 -27.5v-442q0 -102 -17.5 -159.5t-51.5 -81t-89 -23.5q-109 0 -152 68z
" />
    <glyph glyph-name="Yacute" unicode="&#xdd;" horiz-adv-x="452" 
d="M257 815q13 38 38 99t35 80q9 20 26 20q3 0 9 -2q10 -6 10 -16q0 -11 -7 -24q-16 -28 -97 -163q-5 -7 -10 -7q-8 0 -4 13zM432 740q0 -7 -9 -7q-20 0 -35 -9.5t-19 -26.5l-89 -377v-268q0 -18 11 -27.5t31 -9.5q9 0 9 -7q0 -8 -9 -8h-164q-9 0 -9 8q0 7 9 7q20 0 31 9.5
t11 27.5v268l-114 378q-5 17 -21 26t-36 9q-9 0 -9 7q0 8 9 8h170q9 0 9 -8q0 -7 -9 -7q-29 0 -29 -21q0 -9 2 -14l101 -341l80 340l2 12q0 24 -32 24q-9 0 -9 7q0 8 9 8h100q9 0 9 -8z" />
    <glyph glyph-name="Thorn" unicode="&#xde;" horiz-adv-x="441" 
d="M231 573q42 0 82 -18.5t66.5 -63.5t26.5 -119q0 -113 -51.5 -155t-123.5 -42h-60v-123q0 -18 11 -27.5t31 -9.5q9 0 9 -7q0 -8 -9 -8h-164q-9 0 -9 8q0 7 9 7q20 0 31 9.5t11 27.5v644q0 18 -11 27.5t-31 9.5q-9 0 -9 7q0 8 9 8h164q9 0 9 -8q0 -7 -9 -7q-20 0 -31 -9.5
t-11 -27.5v-123h60zM211 190q52 0 78.5 39.5t26.5 142.5q0 92 -28.5 139t-76.5 47h-40v-368h40z" />
    <glyph glyph-name="germandbls" unicode="&#xdf;" horiz-adv-x="464" 
d="M282.5 331.5q21.5 -35.5 63.5 -84.5q40 -48 59 -79t19 -66q0 -49 -24 -80.5t-77 -31.5q-24 0 -41.5 8.5t-35.5 21.5q-17 12 -24 12q-15 0 -14.5 -13.5t0.5 -14.5q0 -9 -7 -9t-7 9v200q0 9 7 9t7 -9q0 -41 14.5 -88t38.5 -79t51 -32q29 0 38.5 17t9.5 45t-17 56t-50 68
q-40 49 -61 85.5t-21 78.5q0 37 11 65.5t33 67.5q22 41 33 69.5t11 65.5q0 47 -19 78t-49 31q-36 0 -52 -21.5t-19.5 -54t-3.5 -95.5v-551q0 -4 -3 -7t-7 -3h-112q-9 0 -9 8q0 7 9 7q20 0 31 9.5t11 27.5v489q0 91 30.5 149t124.5 58q48 0 81.5 -18t50 -46.5t16.5 -60.5
q0 -28 -12.5 -46.5t-39.5 -43.5q-32 -29 -49 -55.5t-17 -70.5q0 -40 21.5 -75.5z" />
    <glyph glyph-name="agrave" unicode="&#xe0;" horiz-adv-x="384" 
d="M63 784q-7 13 -7 24q0 10 10 16q6 2 9 2q17 0 26 -20q10 -19 35 -80t38 -99q3 -10 -2 -13h-2q-5 0 -10 7q-81 135 -97 163zM364 8q0 -8 -9 -8h-112q-4 0 -7 3t-3 7v23q-20 -43 -69 -43q-134 0 -134 156q0 72 30 120.5t109 48.5q21 0 34.5 -4t29.5 -14v159q0 89 -61 89
q-26 0 -45.5 -12.5t-19.5 -31.5q0 -16 4.5 -25t14.5 -21q9 -10 13.5 -18t4.5 -22q0 -22 -11 -38.5t-32 -16.5t-34.5 18.5t-13.5 48.5v1q0 31 14 61.5t41.5 50.5t63.5 20q66 0 103.5 -42.5t37.5 -123.5v-342q0 -18 11 -27.5t31 -9.5q9 0 9 -7zM221.5 39q10.5 29 11.5 85v157
q-18 11 -28.5 15t-23.5 4q-27 0 -41 -15.5t-19 -48.5t-5 -90q0 -66 14.5 -101t48.5 -35q32 0 42.5 29z" />
    <glyph glyph-name="aacute" unicode="&#xe1;" horiz-adv-x="384" 
d="M170 627q13 38 38 99t35 80q9 20 26 20q3 0 9 -2q10 -6 10 -16q0 -11 -7 -24q-16 -28 -97 -163q-5 -7 -10 -7q-8 0 -4 13zM364 8q0 -8 -9 -8h-112q-4 0 -7 3t-3 7v23q-20 -43 -69 -43q-134 0 -134 156q0 72 30 120.5t109 48.5q21 0 34.5 -4t29.5 -14v159q0 89 -61 89
q-26 0 -45.5 -12.5t-19.5 -31.5q0 -16 4.5 -25t14.5 -21q9 -10 13.5 -18t4.5 -22q0 -22 -11 -38.5t-32 -16.5t-34.5 18.5t-13.5 48.5v1q0 31 14 61.5t41.5 50.5t63.5 20q66 0 103.5 -42.5t37.5 -123.5v-342q0 -18 11 -27.5t31 -9.5q9 0 9 -7zM221.5 39q10.5 29 11.5 85v157
q-18 11 -28.5 15t-23.5 4q-27 0 -41 -15.5t-19 -48.5t-5 -90q0 -66 14.5 -101t48.5 -35q32 0 42.5 29z" />
    <glyph glyph-name="acircumflex" unicode="&#xe2;" horiz-adv-x="384" 
d="M99.5 616.5q-1.5 3.5 -0.5 8.5q14 65 43 170q11 32 30 32q10 0 17 -8t13 -24q29 -107 43 -170q1 -2 1 -5q0 -5 -5 -7h-2q-10 0 -67 159q-42 -119 -58 -152q-4 -7 -9 -7q-4 0 -5.5 3.5zM364 8q0 -8 -9 -8h-112q-4 0 -7 3t-3 7v23q-20 -43 -69 -43q-134 0 -134 156
q0 72 30 120.5t109 48.5q21 0 34.5 -4t29.5 -14v159q0 89 -61 89q-26 0 -45.5 -12.5t-19.5 -31.5q0 -16 4.5 -25t14.5 -21q9 -10 13.5 -18t4.5 -22q0 -22 -11 -38.5t-32 -16.5t-34.5 18.5t-13.5 48.5v1q0 31 14 61.5t41.5 50.5t63.5 20q66 0 103.5 -42.5t37.5 -123.5v-342
q0 -18 11 -27.5t31 -9.5q9 0 9 -7zM221.5 39q10.5 29 11.5 85v157q-18 11 -28.5 15t-23.5 4q-27 0 -41 -15.5t-19 -48.5t-5 -90q0 -66 14.5 -101t48.5 -35q32 0 42.5 29z" />
    <glyph glyph-name="atilde" unicode="&#xe3;" horiz-adv-x="384" 
d="M104 616q0 58 12 80t38 22q9 0 18.5 -4.5t18.5 -9.5q21 -15 36 -15q11 0 15 10.5t4 27.5q0 6 2 9t5 3q7 0 7 -12q0 -58 -12 -80t-38 -22q-15 0 -36 15q-9 5 -18.5 9.5t-18.5 4.5q-11 0 -15 -10.5t-4 -27.5q0 -6 -2 -9t-5 -3q-7 0 -7 12zM364 8q0 -8 -9 -8h-112q-4 0 -7 3
t-3 7v23q-20 -43 -69 -43q-134 0 -134 156q0 72 30 120.5t109 48.5q21 0 34.5 -4t29.5 -14v159q0 89 -61 89q-26 0 -45.5 -12.5t-19.5 -31.5q0 -16 4.5 -25t14.5 -21q9 -10 13.5 -18t4.5 -22q0 -22 -11 -38.5t-32 -16.5t-34.5 18.5t-13.5 48.5v1q0 31 14 61.5t41.5 50.5
t63.5 20q66 0 103.5 -42.5t37.5 -123.5v-342q0 -18 11 -27.5t31 -9.5q9 0 9 -7zM221.5 39q10.5 29 11.5 85v157q-18 11 -28.5 15t-23.5 4q-27 0 -41 -15.5t-19 -48.5t-5 -90q0 -66 14.5 -101t48.5 -35q32 0 42.5 29z" />
    <glyph glyph-name="adieresis" unicode="&#xe4;" horiz-adv-x="384" 
d="M78 628.5q-14 16.5 -14 46.5t14 47t33 17t33 -17t14 -47t-14 -46.5t-33 -16.5t-33 16.5zM200 628.5q-14 16.5 -14 46.5t14 47t33 17t33 -17.5t14 -46.5q0 -30 -14 -46.5t-33 -16.5t-33 16.5zM364 8q0 -8 -9 -8h-112q-4 0 -7 3t-3 7v23q-20 -43 -69 -43q-134 0 -134 156
q0 72 30 120.5t109 48.5q21 0 34.5 -4t29.5 -14v159q0 89 -61 89q-26 0 -45.5 -12.5t-19.5 -31.5q0 -16 4.5 -25t14.5 -21q9 -10 13.5 -18t4.5 -22q0 -22 -11 -38.5t-32 -16.5t-34.5 18.5t-13.5 48.5v1q0 31 14 61.5t41.5 50.5t63.5 20q66 0 103.5 -42.5t37.5 -123.5v-342
q0 -18 11 -27.5t31 -9.5q9 0 9 -7zM221.5 39q10.5 29 11.5 85v157q-18 11 -28.5 15t-23.5 4q-27 0 -41 -15.5t-19 -48.5t-5 -90q0 -66 14.5 -101t48.5 -35q32 0 42.5 29z" />
    <glyph glyph-name="aring" unicode="&#xe5;" horiz-adv-x="384" 
d="M118.5 638q-20.5 26 -20.5 71t20 70.5t54 25.5q33 0 53.5 -25.5t20.5 -70.5q0 -44 -20.5 -70.5t-53.5 -26.5t-53.5 26zM138 709q0 -87 34 -87q15 0 24 22t9 65t-9 64.5t-24 21.5q-34 0 -34 -86zM364 8q0 -8 -9 -8h-112q-4 0 -7 3t-3 7v23q-20 -43 -69 -43
q-134 0 -134 156q0 72 30 120.5t109 48.5q21 0 34.5 -4t29.5 -14v159q0 89 -61 89q-26 0 -45.5 -12.5t-19.5 -31.5q0 -16 4.5 -25t14.5 -21q9 -10 13.5 -18t4.5 -22q0 -22 -11 -38.5t-32 -16.5t-34.5 18.5t-13.5 48.5v1q0 31 14 61.5t41.5 50.5t63.5 20q66 0 103.5 -42.5
t37.5 -123.5v-342q0 -18 11 -27.5t31 -9.5q9 0 9 -7zM221.5 39q10.5 29 11.5 85v157q-18 11 -28.5 15t-23.5 4q-27 0 -41 -15.5t-19 -48.5t-5 -90q0 -66 14.5 -101t48.5 -35q32 0 42.5 29z" />
    <glyph glyph-name="ae" unicode="&#xe6;" horiz-adv-x="579" 
d="M530 102l-2 -8q-14 -33 -27 -54t-37 -35.5t-61 -14.5q-87 0 -131 82q-31 -82 -108 -82q-134 0 -134 156q0 72 30 120.5t109 48.5q21 0 34.5 -4t29.5 -14v159q0 89 -61 89q-26 0 -45.5 -12.5t-19.5 -31.5q0 -16 4.5 -25t14.5 -21q9 -10 13.5 -18t4.5 -22q0 -22 -11 -38.5
t-32 -16.5t-34.5 18.5t-13.5 48.5v1q0 31 14 61.5t41.5 50.5t63.5 20q76 0 113 -54q38 54 100 54q154 0 154 -284h-216q0 -122 19 -196t73 -74q38 0 60.5 26t40.5 72q1 4 4.5 5.5t6.5 -0.5q3 -3 3 -7zM334.5 479q-11.5 -66 -11.5 -188h126q0 119 -12.5 186.5t-51.5 67.5
t-50.5 -66zM230.5 31.5q21.5 21.5 32.5 60.5q-30 72 -30 184v5q-18 11 -28.5 15t-23.5 4q-27 0 -41 -15.5t-19 -48.5t-5 -90q0 -66 14.5 -101t48.5 -35q30 0 51.5 21.5z" />
    <glyph glyph-name="ccedilla" unicode="&#xe7;" horiz-adv-x="363" 
d="M189 -39q-5 -6 -5 -16q0 -12 16 -12q31 -1 54 -29t23 -66q0 -43 -28 -70t-69 -27q-31 0 -50 18.5t-19 43.5q0 4 2.5 7t5.5 3q2 0 4.5 -3t2.5 -7q1 -19 13 -30.5t34 -11.5q23 0 31.5 23t8.5 52q0 34 -11.5 53t-34.5 19q-15 0 -32 -15q-1 -2 -5 -2t-6 3.5t2 7.5l65 88
q-86 5 -118.5 89t-32.5 197q0 126 39 205t129 79q33 0 59 -18t40 -46t15 -56q0 -32 -13 -49t-31 -17q-19 0 -32.5 14.5t-13.5 44.5q0 16 5 27t15 24q5 7 9 14t4 14q-1 13 -15 22.5t-34 9.5q-41 0 -61 -37.5t-24.5 -89.5t-4.5 -133q0 -122 21 -198t70 -76q46 0 68.5 44
t22.5 112q0 8 7 8h1q7 0 7 -8q0 -170 -115 -176z" />
    <glyph glyph-name="egrave" unicode="&#xe8;" horiz-adv-x="386" 
d="M83 784q-7 13 -7 24q0 10 10 16q6 2 9 2q17 0 26 -20q10 -19 35 -80t38 -99q3 -10 -2 -13h-2q-5 0 -10 7q-81 135 -97 163zM337 102l-2 -8q-14 -33 -27 -54t-37 -35.5t-61 -14.5q-85 0 -127.5 76.5t-42.5 209.5q0 128 37.5 206t114.5 78q154 0 154 -284h-216
q0 -122 19 -196t73 -74q38 0 60.5 26t40.5 72q1 4 4.5 5.5t6.5 -0.5q3 -3 3 -7zM141.5 479q-11.5 -66 -11.5 -188h126q0 119 -12.5 186.5t-51.5 67.5t-50.5 -66z" />
    <glyph glyph-name="eacute" unicode="&#xe9;" horiz-adv-x="386" 
d="M190 627q13 38 38 99t35 80q9 20 26 20q3 0 9 -2q10 -6 10 -16q0 -11 -7 -24q-16 -28 -97 -163q-5 -7 -10 -7q-8 0 -4 13zM337 102l-2 -8q-14 -33 -27 -54t-37 -35.5t-61 -14.5q-85 0 -127.5 76.5t-42.5 209.5q0 128 37.5 206t114.5 78q154 0 154 -284h-216
q0 -122 19 -196t73 -74q38 0 60.5 26t40.5 72q1 4 4.5 5.5t6.5 -0.5q3 -3 3 -7zM141.5 479q-11.5 -66 -11.5 -188h126q0 119 -12.5 186.5t-51.5 67.5t-50.5 -66z" />
    <glyph glyph-name="ecircumflex" unicode="&#xea;" horiz-adv-x="386" 
d="M119.5 616.5q-1.5 3.5 -0.5 8.5q14 65 43 170q11 32 30 32q10 0 17 -8t13 -24q29 -107 43 -170q1 -2 1 -5q0 -5 -5 -7h-2q-10 0 -67 159q-42 -119 -58 -152q-4 -7 -9 -7q-4 0 -5.5 3.5zM337 102l-2 -8q-14 -33 -27 -54t-37 -35.5t-61 -14.5q-85 0 -127.5 76.5
t-42.5 209.5q0 128 37.5 206t114.5 78q154 0 154 -284h-216q0 -122 19 -196t73 -74q38 0 60.5 26t40.5 72q1 4 4.5 5.5t6.5 -0.5q3 -3 3 -7zM141.5 479q-11.5 -66 -11.5 -188h126q0 119 -12.5 186.5t-51.5 67.5t-50.5 -66z" />
    <glyph glyph-name="edieresis" unicode="&#xeb;" horiz-adv-x="386" 
d="M98 628.5q-14 16.5 -14 46.5t14 47t33 17t33 -17t14 -47t-14 -46.5t-33 -16.5t-33 16.5zM220 628.5q-14 16.5 -14 46.5t14 47t33 17t33 -17.5t14 -46.5q0 -30 -14 -46.5t-33 -16.5t-33 16.5zM337 102l-2 -8q-14 -33 -27 -54t-37 -35.5t-61 -14.5q-85 0 -127.5 76.5
t-42.5 209.5q0 128 37.5 206t114.5 78q154 0 154 -284h-216q0 -122 19 -196t73 -74q38 0 60.5 26t40.5 72q1 4 4.5 5.5t6.5 -0.5q3 -3 3 -7zM141.5 479q-11.5 -66 -11.5 -188h126q0 119 -12.5 186.5t-51.5 67.5t-50.5 -66z" />
    <glyph glyph-name="igrave" unicode="&#xec;" horiz-adv-x="252" 
d="M107 604q-5 0 -10 7q-81 135 -97 163q-7 13 -7 24q0 10 10 16q6 2 9 2q17 0 26 -20q10 -19 35 -80t38 -99q3 -10 -2 -13h-2zM35 8q0 7 9 7q20 0 31 9.5t11 27.5v446q0 18 -11 27.5t-31 9.5q-9 0 -9 7q0 8 9 8h112q4 0 7 -3t3 -7v-488q0 -18 11 -27.5t31 -9.5q9 0 9 -7
q0 -8 -9 -8h-164q-9 0 -9 8z" />
    <glyph glyph-name="iacute" unicode="&#xed;" horiz-adv-x="252" 
d="M107 617q13 38 38 99t35 80q9 20 26 20q3 0 9 -2q10 -6 10 -16q0 -11 -7 -24q-16 -28 -97 -163q-5 -7 -10 -7q-8 0 -4 13zM35 8q0 7 9 7q20 0 31 9.5t11 27.5v446q0 18 -11 27.5t-31 9.5q-9 0 -9 7q0 8 9 8h112q4 0 7 -3t3 -7v-488q0 -18 11 -27.5t31 -9.5q9 0 9 -7
q0 -8 -9 -8h-164q-9 0 -9 8z" />
    <glyph glyph-name="icircumflex" unicode="&#xee;" horiz-adv-x="252" 
d="M36.5 606.5q-1.5 3.5 -0.5 8.5q14 65 43 170q11 32 30 32q10 0 17 -8t13 -24q29 -107 43 -170q1 -2 1 -5q0 -5 -5 -7h-2q-10 0 -67 159q-42 -119 -58 -152q-4 -7 -9 -7q-4 0 -5.5 3.5zM217 8q0 -8 -9 -8h-164q-9 0 -9 8q0 7 9 7q20 0 31 9.5t11 27.5v446q0 18 -11 27.5
t-31 9.5q-9 0 -9 7q0 8 9 8h112q4 0 7 -3t3 -7v-488q0 -18 11 -27.5t31 -9.5q9 0 9 -7z" />
    <glyph glyph-name="idieresis" unicode="&#xef;" horiz-adv-x="252" 
d="M15 618.5q-14 16.5 -14 46.5t14 47t33 17t33 -17t14 -47t-14 -46.5t-33 -16.5t-33 16.5zM137 618.5q-14 16.5 -14 46.5t14 47t33 17t33 -17.5t14 -46.5q0 -30 -14 -46.5t-33 -16.5t-33 16.5zM35 8q0 7 9 7q20 0 31 9.5t11 27.5v446q0 18 -11 27.5t-31 9.5q-9 0 -9 7
q0 8 9 8h112q4 0 7 -3t3 -7v-488q0 -18 11 -27.5t31 -9.5q9 0 9 -7q0 -8 -9 -8h-164q-9 0 -9 8z" />
    <glyph glyph-name="ntilde" unicode="&#xf1;" horiz-adv-x="459" 
d="M164 616q0 58 12 80t38 22q9 0 18.5 -4.5t18.5 -9.5q21 -15 36 -15q11 0 15 10.5t4 27.5q0 6 2 9t5 3q7 0 7 -12q0 -58 -12 -80t-38 -22q-15 0 -36 15q-9 5 -18.5 9.5t-18.5 4.5q-11 0 -15 -10.5t-4 -27.5q0 -6 -2 -9t-5 -3q-7 0 -7 12zM424 8q0 -8 -9 -8h-164q-9 0 -9 8
q0 7 9 7q20 0 31 9.5t11 27.5v375q0 59 -12.5 86.5t-44.5 27.5q-17 0 -33 -13.5t-26.5 -41.5t-10.5 -69v-365q0 -18 11 -27.5t31 -9.5q9 0 9 -7q0 -8 -9 -8h-164q-9 0 -9 8q0 7 9 7q20 0 31 9.5t11 27.5v446q0 18 -11 27.5t-31 9.5q-9 0 -9 7q0 8 9 8h112q4 0 7 -3t3 -7v-38
q26 58 96 58q66 0 89 -42.5t22 -117.5v-348q0 -18 11 -27.5t31 -9.5q9 0 9 -7z" />
    <glyph glyph-name="ograve" unicode="&#xf2;" horiz-adv-x="416" 
d="M205 614q-5 0 -10 7q-81 135 -97 163q-7 13 -7 24q0 10 10 16q6 2 9 2q17 0 26 -20q10 -19 35 -80t38 -99q3 -10 -2 -13h-2zM79.5 75q-39.5 85 -39.5 201q0 115 39.5 199.5t127.5 84.5t128.5 -84.5t40.5 -199.5t-40.5 -200.5t-128.5 -85.5t-127.5 85zM263.5 40.5
q18.5 35.5 24 92t5.5 143.5t-5.5 142.5t-24 91t-56.5 35.5t-56 -35.5t-23 -91t-5 -144.5q0 -88 5 -143.5t23 -90.5t56 -35t56.5 35.5z" />
    <glyph glyph-name="oacute" unicode="&#xf3;" horiz-adv-x="416" 
d="M205 627q13 38 38 99t35 80q9 20 26 20q3 0 9 -2q10 -6 10 -16q0 -11 -7 -24q-16 -28 -97 -163q-5 -7 -10 -7q-8 0 -4 13zM79.5 75q-39.5 85 -39.5 201q0 115 39.5 199.5t127.5 84.5t128.5 -84.5t40.5 -199.5t-40.5 -200.5t-128.5 -85.5t-127.5 85zM263.5 40.5
q18.5 35.5 24 92t5.5 143.5t-5.5 142.5t-24 91t-56.5 35.5t-56 -35.5t-23 -91t-5 -144.5q0 -88 5 -143.5t23 -90.5t56 -35t56.5 35.5z" />
    <glyph glyph-name="ocircumflex" unicode="&#xf4;" horiz-adv-x="416" 
d="M134.5 616.5q-1.5 3.5 -0.5 8.5q14 65 43 170q11 32 30 32q10 0 17 -8t13 -24q29 -107 43 -170q1 -2 1 -5q0 -5 -5 -7h-2q-10 0 -67 159q-42 -119 -58 -152q-4 -7 -9 -7q-4 0 -5.5 3.5zM335.5 475.5q40.5 -84.5 40.5 -199.5t-40.5 -200.5t-128.5 -85.5t-127.5 85
t-39.5 201q0 115 39.5 199.5t127.5 84.5t128.5 -84.5zM263.5 40.5q18.5 35.5 24 92t5.5 143.5t-5.5 142.5t-24 91t-56.5 35.5t-56 -35.5t-23 -91t-5 -144.5q0 -88 5 -143.5t23 -90.5t56 -35t56.5 35.5z" />
    <glyph glyph-name="otilde" unicode="&#xf5;" horiz-adv-x="416" 
d="M139 616q0 58 12 80t38 22q9 0 18.5 -4.5t18.5 -9.5q21 -15 36 -15q11 0 15 10.5t4 27.5q0 6 2 9t5 3q7 0 7 -12q0 -58 -12 -80t-38 -22q-15 0 -36 15q-9 5 -18.5 9.5t-18.5 4.5q-11 0 -15 -10.5t-4 -27.5q0 -6 -2 -9t-5 -3q-7 0 -7 12zM79.5 75q-39.5 85 -39.5 201
q0 115 39.5 199.5t127.5 84.5t128.5 -84.5t40.5 -199.5t-40.5 -200.5t-128.5 -85.5t-127.5 85zM263.5 40.5q18.5 35.5 24 92t5.5 143.5t-5.5 142.5t-24 91t-56.5 35.5t-56 -35.5t-23 -91t-5 -144.5q0 -88 5 -143.5t23 -90.5t56 -35t56.5 35.5z" />
    <glyph glyph-name="odieresis" unicode="&#xf6;" horiz-adv-x="416" 
d="M113 628.5q-14 16.5 -14 46.5t14 47t33 17t33 -17t14 -47t-14 -46.5t-33 -16.5t-33 16.5zM235 628.5q-14 16.5 -14 46.5t14 47t33 17t33 -17.5t14 -46.5q0 -30 -14 -46.5t-33 -16.5t-33 16.5zM79.5 75q-39.5 85 -39.5 201q0 115 39.5 199.5t127.5 84.5t128.5 -84.5
t40.5 -199.5t-40.5 -200.5t-128.5 -85.5t-127.5 85zM263.5 40.5q18.5 35.5 24 92t5.5 143.5t-5.5 142.5t-24 91t-56.5 35.5t-56 -35.5t-23 -91t-5 -144.5q0 -88 5 -143.5t23 -90.5t56 -35t56.5 35.5z" />
    <glyph glyph-name="divide" unicode="&#xf7;" horiz-adv-x="302" 
d="M124 460q-13 20 -13 50t13 50.5t32 20.5t32 -20.5t13 -50.5t-13 -50t-32 -20t-32 20zM28 345q-8 0 -8 7v1q0 7 8 7h246q8 0 8 -7v-1q0 -7 -8 -7h-246zM124 144q-13 20 -13 50t13 50.5t32 20.5t32 -20.5t13 -50.5t-13 -50t-32 -20t-32 20z" />
    <glyph glyph-name="oslash" unicode="&#xf8;" horiz-adv-x="416" 
d="M290 532q45 -35 65.5 -105t20.5 -151q0 -115 -40.5 -200.5t-128.5 -85.5q-38 0 -67 18l-9 -31q-2 -7 -8 -7h-1q-3 0 -5 2.5t-1 5.5l11 38q-45 35 -66 106t-21 154q0 115 39.5 199.5t127.5 84.5q38 0 70 -19l11 39q2 7 8 7h2q2 0 4 -2.5t1 -6.5zM126.5 148
q3.5 -49 14.5 -83l125 439q-19 41 -59 41q-38 0 -56 -35.5t-23 -91t-5 -144.5q0 -77 3.5 -126zM263.5 40.5q18.5 35.5 24 92t5.5 143.5q0 72 -3.5 121.5t-14.5 83.5l-125 -438q19 -38 57 -38t56.5 35.5z" />
    <glyph glyph-name="ugrave" unicode="&#xf9;" horiz-adv-x="429" 
d="M105 774q-7 13 -7 24q0 10 10 16q6 2 9 2q17 0 26 -20q10 -19 35 -80t38 -99q3 -10 -2 -13h-2q-5 0 -10 7q-81 135 -97 163zM409 8q0 -8 -9 -8h-112q-4 0 -7 3t-3 7v38q-26 -58 -96 -58q-66 0 -89 42.5t-22 117.5v348q0 18 -11 27.5t-31 9.5q-9 0 -9 7q0 8 9 8h164
q9 0 9 -8q0 -7 -9 -7q-20 0 -31 -9.5t-11 -27.5v-375q0 -59 12.5 -86.5t44.5 -27.5q17 0 33 13.5t26.5 41.5t10.5 69v365q0 18 -11 27.5t-31 9.5q-9 0 -9 7q0 8 9 8h164q9 0 9 -8q0 -7 -9 -7q-20 0 -31 -9.5t-11 -27.5v-446q0 -18 11 -27.5t31 -9.5q9 0 9 -7z" />
    <glyph glyph-name="uacute" unicode="&#xfa;" horiz-adv-x="429" 
d="M212 617q13 38 38 99t35 80q9 20 26 20q3 0 9 -2q10 -6 10 -16q0 -11 -7 -24q-16 -28 -97 -163q-5 -7 -10 -7q-8 0 -4 13zM409 8q0 -8 -9 -8h-112q-4 0 -7 3t-3 7v38q-26 -58 -96 -58q-66 0 -89 42.5t-22 117.5v348q0 18 -11 27.5t-31 9.5q-9 0 -9 7q0 8 9 8h164
q9 0 9 -8q0 -7 -9 -7q-20 0 -31 -9.5t-11 -27.5v-375q0 -59 12.5 -86.5t44.5 -27.5q17 0 33 13.5t26.5 41.5t10.5 69v365q0 18 -11 27.5t-31 9.5q-9 0 -9 7q0 8 9 8h164q9 0 9 -8q0 -7 -9 -7q-20 0 -31 -9.5t-11 -27.5v-446q0 -18 11 -27.5t31 -9.5q9 0 9 -7z" />
    <glyph glyph-name="ucircumflex" unicode="&#xfb;" horiz-adv-x="429" 
d="M141.5 606.5q-1.5 3.5 -0.5 8.5q14 65 43 170q11 32 30 32q10 0 17 -8t13 -24q29 -107 43 -170q1 -2 1 -5q0 -5 -5 -7h-2q-10 0 -67 159q-42 -119 -58 -152q-4 -7 -9 -7q-4 0 -5.5 3.5zM409 8q0 -8 -9 -8h-112q-4 0 -7 3t-3 7v38q-26 -58 -96 -58q-66 0 -89 42.5
t-22 117.5v348q0 18 -11 27.5t-31 9.5q-9 0 -9 7q0 8 9 8h164q9 0 9 -8q0 -7 -9 -7q-20 0 -31 -9.5t-11 -27.5v-375q0 -59 12.5 -86.5t44.5 -27.5q17 0 33 13.5t26.5 41.5t10.5 69v365q0 18 -11 27.5t-31 9.5q-9 0 -9 7q0 8 9 8h164q9 0 9 -8q0 -7 -9 -7q-20 0 -31 -9.5
t-11 -27.5v-446q0 -18 11 -27.5t31 -9.5q9 0 9 -7z" />
    <glyph glyph-name="udieresis" unicode="&#xfc;" horiz-adv-x="429" 
d="M120 618.5q-14 16.5 -14 46.5t14 47t33 17t33 -17t14 -47t-14 -46.5t-33 -16.5t-33 16.5zM242 618.5q-14 16.5 -14 46.5t14 47t33 17t33 -17.5t14 -46.5q0 -30 -14 -46.5t-33 -16.5t-33 16.5zM409 8q0 -8 -9 -8h-112q-4 0 -7 3t-3 7v38q-26 -58 -96 -58q-66 0 -89 42.5
t-22 117.5v348q0 18 -11 27.5t-31 9.5q-9 0 -9 7q0 8 9 8h164q9 0 9 -8q0 -7 -9 -7q-20 0 -31 -9.5t-11 -27.5v-375q0 -59 12.5 -86.5t44.5 -27.5q17 0 33 13.5t26.5 41.5t10.5 69v365q0 18 -11 27.5t-31 9.5q-9 0 -9 7q0 8 9 8h164q9 0 9 -8q0 -7 -9 -7q-20 0 -31 -9.5
t-11 -27.5v-446q0 -18 11 -27.5t31 -9.5q9 0 9 -7z" />
    <glyph glyph-name="yacute" unicode="&#xfd;" horiz-adv-x="396" 
d="M222 617q13 38 38 99t35 80q9 20 26 20q3 0 9 -2q10 -6 10 -16q0 -11 -7 -24q-16 -28 -97 -163q-5 -7 -10 -7q-8 0 -4 13zM386 542q0 -7 -9 -7q-20 0 -34 -9.5t-17 -26.5l-131 -708q-7 -40 -37 -64t-71 -24q-31 0 -54 11.5t-23 33.5q0 21 16 33.5t43 12.5q23 0 55 -12
q24 -8 32 -8q21 0 27 31l26 141l-118 553q-4 17 -18.5 26.5t-34.5 9.5q-9 0 -9 7q0 8 9 8h166q9 0 9 -8q0 -7 -9 -7q-32 0 -32 -25q0 -7 1 -11l74 -346l64 346q1 3 1 9q0 27 -34 27q-9 0 -9 7q0 8 9 8h99q9 0 9 -8z" />
    <glyph glyph-name="thorn" unicode="&#xfe;" horiz-adv-x="450" 
d="M370.5 477.5q39.5 -82.5 39.5 -211.5q0 -127 -39 -201.5t-120 -74.5q-44 0 -85 45v-282q0 -18 11 -27.5t31 -9.5q9 0 9 -7q0 -8 -9 -8h-47q-15 -1 -35 -1.5t-35 0.5l-47 1q-9 0 -9 8q0 7 9 7q20 0 31 9.5t11 27.5v943q0 18 -11 27.5t-31 9.5q-9 0 -9 7q0 8 9 8h164
q9 0 9 -8q0 -7 -9 -7q-20 0 -31 -9.5t-11 -27.5v-176q38 40 85 40q80 0 119.5 -82.5zM305 64.5q19 59.5 19 201.5q0 145 -19.5 212t-60.5 67q-24 0 -50 -21q-28 -23 -28 -80v-329q0 -56 21 -79q29 -31 57 -31q42 0 61 59.5z" />
    <glyph glyph-name="ydieresis" unicode="&#xff;" horiz-adv-x="396" 
d="M130 618.5q-14 16.5 -14 46.5t14 47t33 17t33 -17t14 -47t-14 -46.5t-33 -16.5t-33 16.5zM252 618.5q-14 16.5 -14 46.5t14 47t33 17t33 -17.5t14 -46.5q0 -30 -14 -46.5t-33 -16.5t-33 16.5zM386 542q0 -7 -9 -7q-20 0 -34 -9.5t-17 -26.5l-131 -708q-7 -40 -37 -64
t-71 -24q-31 0 -54 11.5t-23 33.5q0 21 16 33.5t43 12.5q23 0 55 -12q24 -8 32 -8q21 0 27 31l26 141l-118 553q-4 17 -18.5 26.5t-34.5 9.5q-9 0 -9 7q0 8 9 8h166q9 0 9 -8q0 -7 -9 -7q-32 0 -32 -25q0 -7 1 -11l74 -346l64 346q1 3 1 9q0 27 -34 27q-9 0 -9 7q0 8 9 8h99
q9 0 9 -8z" />
    <glyph glyph-name="Amacron" unicode="&#x100;" horiz-adv-x="507" 
d="M173 860q-8 0 -8 7v1q0 7 8 7h173q8 0 8 -7v-1q0 -7 -8 -7h-173zM477 8q0 -8 -9 -8h-167q-9 0 -9 8q0 7 9 7q33 0 33 26q0 6 -1 10l-26 140h-170l-30 -140q-1 -4 -1 -11q0 -25 32 -25q9 0 9 -7q0 -8 -9 -8h-99q-9 0 -9 8q0 7 9 7q20 0 34.5 9.5t18.5 26.5l147 687
q2 8 11 10h19q4 0 7.5 -3t4.5 -7l135 -687q4 -17 18 -26.5t34 -9.5q9 0 9 -7zM227 614l-87 -408h164z" />
    <glyph glyph-name="amacron" unicode="&#x101;" horiz-adv-x="384" 
d="M85 672q-8 0 -8 7v1q0 7 8 7h173q8 0 8 -7v-1q0 -7 -8 -7h-173zM364 8q0 -8 -9 -8h-112q-4 0 -7 3t-3 7v23q-20 -43 -69 -43q-134 0 -134 156q0 72 30 120.5t109 48.5q21 0 34.5 -4t29.5 -14v159q0 89 -61 89q-26 0 -45.5 -12.5t-19.5 -31.5q0 -16 4.5 -25t14.5 -21
q9 -10 13.5 -18t4.5 -22q0 -22 -11 -38.5t-32 -16.5t-34.5 18.5t-13.5 48.5v1q0 31 14 61.5t41.5 50.5t63.5 20q66 0 103.5 -42.5t37.5 -123.5v-342q0 -18 11 -27.5t31 -9.5q9 0 9 -7zM221.5 39q10.5 29 11.5 85v157q-18 11 -28.5 15t-23.5 4q-27 0 -41 -15.5t-19 -48.5
t-5 -90q0 -66 14.5 -101t48.5 -35q32 0 42.5 29z" />
    <glyph glyph-name="Abreve" unicode="&#x102;" horiz-adv-x="507" 
d="M205 835.5q-17 35.5 -17 117.5q0 4 2.5 7t6.5 3t6.5 -3t2.5 -7q0 -48 12.5 -65.5t41.5 -17.5t41.5 17.5t12.5 65.5q0 4 2.5 7t6.5 3t6.5 -3t2.5 -7q0 -82 -17 -117.5t-55 -35.5t-55 35.5zM477 8q0 -8 -9 -8h-167q-9 0 -9 8q0 7 9 7q33 0 33 26q0 6 -1 10l-26 140h-170
l-30 -140q-1 -4 -1 -11q0 -25 32 -25q9 0 9 -7q0 -8 -9 -8h-99q-9 0 -9 8q0 7 9 7q20 0 34.5 9.5t18.5 26.5l147 687q2 8 11 10h19q4 0 7.5 -3t4.5 -7l135 -687q4 -17 18 -26.5t34 -9.5q9 0 9 -7zM227 614l-87 -408h164z" />
    <glyph glyph-name="abreve" unicode="&#x103;" horiz-adv-x="384" 
d="M117 647.5q-17 35.5 -17 117.5q0 4 2.5 7t6.5 3t6.5 -3t2.5 -7q0 -48 12.5 -65.5t41.5 -17.5t41.5 17.5t12.5 65.5q0 4 2.5 7t6.5 3t6.5 -3t2.5 -7q0 -82 -17 -117.5t-55 -35.5t-55 35.5zM364 8q0 -8 -9 -8h-112q-4 0 -7 3t-3 7v23q-20 -43 -69 -43q-134 0 -134 156
q0 72 30 120.5t109 48.5q21 0 34.5 -4t29.5 -14v159q0 89 -61 89q-26 0 -45.5 -12.5t-19.5 -31.5q0 -16 4.5 -25t14.5 -21q9 -10 13.5 -18t4.5 -22q0 -22 -11 -38.5t-32 -16.5t-34.5 18.5t-13.5 48.5v1q0 31 14 61.5t41.5 50.5t63.5 20q66 0 103.5 -42.5t37.5 -123.5v-342
q0 -18 11 -27.5t31 -9.5q9 0 9 -7zM221.5 39q10.5 29 11.5 85v157q-18 11 -28.5 15t-23.5 4q-27 0 -41 -15.5t-19 -48.5t-5 -90q0 -66 14.5 -101t48.5 -35q32 0 42.5 29z" />
    <glyph glyph-name="Aogonek" unicode="&#x104;" horiz-adv-x="507" 
d="M468 -161q4 0 6.5 -4t-0.5 -8l-10 -15t-20 -19.5t-28 -7.5q-36 0 -59.5 25t-23.5 65q0 38 20 65t57 60h-109q-9 0 -9 8q0 7 9 7q33 0 33 26q0 6 -1 10l-26 140h-170l-30 -140q-1 -4 -1 -11q0 -25 32 -25q9 0 9 -7q0 -8 -9 -8h-99q-9 0 -9 8q0 7 9 7q20 0 34.5 9.5
t18.5 26.5l147 687q2 8 11 10h19q4 0 7.5 -3t4.5 -7l135 -687q4 -17 18 -26.5t34 -9.5q9 0 9 -7q0 -8 -9 -8h-43q-22 -24 -29 -51.5t-7 -61.5q0 -31 9.5 -55.5t27.5 -24.5q12 0 18.5 6t17.5 22q3 4 6 4zM227 614l-87 -408h164z" />
    <glyph glyph-name="aogonek" unicode="&#x105;" horiz-adv-x="384" 
d="M364 8q0 -8 -9 -8h-57q-21 -24 -28 -51.5t-7 -60.5q0 -31 9.5 -55.5t27.5 -24.5q12 0 18.5 6.5t17.5 21.5q3 4 6 4q4 0 6.5 -4t-0.5 -8l-10 -15t-20 -19.5t-28 -7.5q-36 0 -59.5 25t-23.5 65q0 37 19.5 64t56.5 60h-40q-4 0 -7 3t-3 7v23q-20 -43 -69 -43
q-134 0 -134 156q0 72 30 120.5t109 48.5q21 0 34.5 -4t29.5 -14v159q0 89 -61 89q-26 0 -45.5 -12.5t-19.5 -31.5q0 -16 4.5 -25t14.5 -21q9 -10 13.5 -18t4.5 -22q0 -22 -11 -38.5t-32 -16.5t-34.5 18.5t-13.5 48.5v1q0 31 14 61.5t41.5 50.5t63.5 20q66 0 103.5 -42.5
t37.5 -123.5v-342q0 -18 11 -27.5t31 -9.5q9 0 9 -7zM221.5 39q10.5 29 11.5 85v157q-18 11 -28.5 15t-23.5 4q-27 0 -41 -15.5t-19 -48.5t-5 -90q0 -66 14.5 -101t48.5 -35q32 0 42.5 29z" />
    <glyph glyph-name="Cacute" unicode="&#x106;" horiz-adv-x="466" 
d="M258 825q13 38 38 99t35 80q9 20 26 20q3 0 9 -2q10 -6 10 -16q0 -11 -7 -24q-16 -28 -97 -163q-5 -7 -10 -7q-8 0 -4 13zM90.5 96.5q-50.5 106.5 -50.5 277.5t50.5 277.5t169.5 106.5q35 0 56 -11t44 -30q17 -15 24 -15q10 0 13.5 10.5t3.5 37.5q0 8 7 8h1q7 0 7 -8
v-216q0 -8 -7 -8h-1q-7 0 -7 8q0 41 -15.5 90t-47.5 84t-78 35q-54 0 -82.5 -48t-38 -126.5t-9.5 -194.5t9.5 -194.5t38 -126.5t82.5 -48q72 0 106.5 69t34.5 190q0 8 7 8h1q7 0 7 -8v-266q0 -8 -7 -8h-1q-7 0 -7 8q0 30 -2.5 39t-10.5 9q-6 0 -13 -4t-11.5 -7.5t-6.5 -5.5
q-20 -18 -41.5 -28.5t-55.5 -10.5q-119 0 -169.5 106.5z" />
    <glyph glyph-name="cacute" unicode="&#x107;" horiz-adv-x="363" 
d="M206 627q13 38 38 99t35 80q9 20 26 20q3 0 9 -2q10 -6 10 -16q0 -11 -7 -24q-16 -28 -97 -163q-5 -7 -10 -7q-8 0 -4 13zM316 174q7 0 7 -8q0 -176 -123 -176q-92 0 -126 84.5t-34 201.5q0 126 39 205t129 79q33 0 59 -18t40 -46t15 -56q0 -32 -13 -49t-31 -17
q-19 0 -32.5 14.5t-13.5 44.5q0 16 5 27t15 24q5 7 9 14t4 14q-1 13 -15 22.5t-34 9.5q-41 0 -61 -37.5t-24.5 -89.5t-4.5 -133q0 -122 21 -198t70 -76q46 0 68.5 44t22.5 112q0 8 7 8h1z" />
    <glyph glyph-name="Ccircumflex" unicode="&#x108;" horiz-adv-x="466" 
d="M187.5 814.5q-1.5 3.5 -0.5 8.5q14 65 43 170q11 32 30 32q10 0 17 -8t13 -24q29 -107 43 -170q1 -2 1 -5q0 -5 -5 -7h-2q-10 0 -67 159q-42 -119 -58 -152q-4 -7 -9 -7q-4 0 -5.5 3.5zM177.5 695q-28.5 -48 -38 -126.5t-9.5 -194.5t9.5 -194.5t38 -126.5t82.5 -48
q72 0 106.5 69t34.5 190q0 8 7 8h1q7 0 7 -8v-266q0 -8 -7 -8h-1q-7 0 -7 8q0 30 -2.5 39t-10.5 9q-6 0 -13 -4t-11.5 -7.5t-6.5 -5.5q-20 -18 -41.5 -28.5t-55.5 -10.5q-119 0 -169.5 106.5t-50.5 277.5t50.5 277.5t169.5 106.5q35 0 56 -11t44 -30q17 -15 24 -15
q10 0 13.5 10.5t3.5 37.5q0 8 7 8h1q7 0 7 -8v-216q0 -8 -7 -8h-1q-7 0 -7 8q0 41 -15.5 90t-47.5 84t-78 35q-54 0 -82.5 -48z" />
    <glyph glyph-name="ccircumflex" unicode="&#x109;" horiz-adv-x="363" 
d="M135.5 616.5q-1.5 3.5 -0.5 8.5q14 65 43 170q11 32 30 32q10 0 17 -8t13 -24q29 -107 43 -170q1 -2 1 -5q0 -5 -5 -7h-2q-10 0 -67 159q-42 -119 -58 -152q-4 -7 -9 -7q-4 0 -5.5 3.5zM316 174q7 0 7 -8q0 -176 -123 -176q-92 0 -126 84.5t-34 201.5q0 126 39 205
t129 79q33 0 59 -18t40 -46t15 -56q0 -32 -13 -49t-31 -17q-19 0 -32.5 14.5t-13.5 44.5q0 16 5 27t15 24q5 7 9 14t4 14q-1 13 -15 22.5t-34 9.5q-41 0 -61 -37.5t-24.5 -89.5t-4.5 -133q0 -122 21 -198t70 -76q46 0 68.5 44t22.5 112q0 8 7 8h1z" />
    <glyph glyph-name="Ccaron" unicode="&#x10c;" horiz-adv-x="466" 
d="M187 1012q-1 2 -1 5q0 5 5 7h2q10 0 67 -159q42 119 58 152q4 7 9 7q4 0 5.5 -3.5t0.5 -8.5q-14 -63 -43 -170q-6 -16 -13 -24t-17 -8q-19 0 -30 32q-29 105 -43 170zM177.5 695q-28.5 -48 -38 -126.5t-9.5 -194.5t9.5 -194.5t38 -126.5t82.5 -48q72 0 106.5 69t34.5 190
q0 8 7 8h1q7 0 7 -8v-266q0 -8 -7 -8h-1q-7 0 -7 8q0 30 -2.5 39t-10.5 9q-6 0 -13 -4t-11.5 -7.5t-6.5 -5.5q-20 -18 -41.5 -28.5t-55.5 -10.5q-119 0 -169.5 106.5t-50.5 277.5t50.5 277.5t169.5 106.5q35 0 56 -11t44 -30q17 -15 24 -15q10 0 13.5 10.5t3.5 37.5q0 8 7 8
h1q7 0 7 -8v-216q0 -8 -7 -8h-1q-7 0 -7 8q0 41 -15.5 90t-47.5 84t-78 35q-54 0 -82.5 -48z" />
    <glyph glyph-name="ccaron" unicode="&#x10d;" horiz-adv-x="363" 
d="M135 814q-1 2 -1 5q0 5 5 7h2q10 0 67 -159q42 119 58 152q4 7 9 7q4 0 5.5 -3.5t0.5 -8.5q-14 -63 -43 -170q-6 -16 -13 -24t-17 -8q-19 0 -30 32q-29 105 -43 170zM316 174q7 0 7 -8q0 -176 -123 -176q-92 0 -126 84.5t-34 201.5q0 126 39 205t129 79q33 0 59 -18
t40 -46t15 -56q0 -32 -13 -49t-31 -17q-19 0 -32.5 14.5t-13.5 44.5q0 16 5 27t15 24q5 7 9 14t4 14q-1 13 -15 22.5t-34 9.5q-41 0 -61 -37.5t-24.5 -89.5t-4.5 -133q0 -122 21 -198t70 -76q46 0 68.5 44t22.5 112q0 8 7 8h1z" />
    <glyph glyph-name="Dcaron" unicode="&#x10e;" horiz-adv-x="508" 
d="M140 1002q-1 2 -1 5q0 5 5 7h2q10 0 67 -159q42 119 58 152q4 7 9 7q4 0 5.5 -3.5t0.5 -8.5q-14 -63 -43 -170q-6 -16 -13 -24t-17 -8q-19 0 -30 32q-29 105 -43 170zM364.5 703.5q49.5 -44.5 76.5 -129t27 -200.5t-27 -200.5t-76.5 -129t-116.5 -44.5h-199q-9 0 -9 8
q0 7 9 7q20 0 31 9.5t11 27.5v644q0 18 -11 27.5t-31 9.5q-9 0 -9 7q0 8 9 8h199q67 0 116.5 -44.5zM227 15q86 0 118.5 98t32.5 261t-32.5 261t-118.5 98h-35q-21 0 -21 -32v-654q0 -32 21 -32h35z" />
    <glyph glyph-name="dcaron" unicode="&#x10f;" horiz-adv-x="440" 
d="M470 965q0 -5 -2 -17q-19 -68 -55 -182q-2 -9 -9 -9q-6 0 -6 12q4 41 13.5 106t14.5 85q2 12 9 19.5t15 7.5q20 0 20 -22zM415 8q0 -8 -9 -8h-112q-4 0 -7 3t-3 7v25q-41 -45 -85 -45q-81 0 -120 74.5t-39 201.5q0 129 39.5 211.5t119.5 82.5q47 0 85 -40v176
q0 18 -11 27.5t-31 9.5q-9 0 -9 7q0 8 9 8h112q4 0 7 -3t3 -7v-686q0 -18 11 -27.5t31 -9.5q9 0 9 -7zM145 64.5q19 -59.5 61 -59.5q28 0 57 31q21 23 21 79v329q0 57 -28 80q-26 21 -50 21q-41 0 -60.5 -67t-19.5 -212q0 -142 19 -201.5z" />
    <glyph glyph-name="Dcroat" unicode="&#x110;" horiz-adv-x="508" 
d="M364.5 703.5q49.5 -44.5 76.5 -129t27 -200.5t-27 -200.5t-76.5 -129t-116.5 -44.5h-199q-9 0 -9 8q0 7 9 7q20 0 31 9.5t11 27.5v314h-58q-8 0 -8 7v1q0 7 8 7h58v315q0 18 -11 27.5t-31 9.5q-9 0 -9 7q0 8 9 8h199q67 0 116.5 -44.5zM227 15q86 0 118.5 98t32.5 261
t-32.5 261t-118.5 98h-35q-21 0 -21 -32v-320h78q8 0 8 -7v-1q0 -7 -8 -7h-78v-319q0 -32 21 -32h35z" />
    <glyph glyph-name="dcroat" unicode="&#x111;" horiz-adv-x="450" 
d="M422 633q8 0 8 -7v-1q0 -7 -8 -7h-58v-566q0 -18 11 -27.5t31 -9.5q9 0 9 -7q0 -8 -9 -8h-112q-4 0 -7 3t-3 7v25q-41 -45 -85 -45q-81 0 -120 74.5t-39 201.5q0 129 39.5 211.5t119.5 82.5q47 0 85 -40v98h-58q-8 0 -8 7v1q0 7 8 7h58v63q0 18 -11 27.5t-31 9.5
q-9 0 -9 7q0 8 9 8h112q4 0 7 -3t3 -7v-105h58zM145 64.5q19 -59.5 61 -59.5q28 0 57 31q21 23 21 79v329q0 57 -28 80q-26 21 -50 21q-41 0 -60.5 -67t-19.5 -212q0 -142 19 -201.5z" />
    <glyph glyph-name="Emacron" unicode="&#x112;" horiz-adv-x="439" 
d="M126 860q-8 0 -8 7v1q0 7 8 7h173q8 0 8 -7v-1q0 -7 -8 -7h-173zM404 208l-53 -198q-2 -4 -5.5 -7t-7.5 -3h-289q-9 0 -9 8q0 7 9 7q20 0 31 9.5t11 27.5v644q0 18 -11 27.5t-31 9.5q-9 0 -9 7q0 8 9 8h289q4 0 7.5 -3t5.5 -7l53 -198v-4q0 -6 -4 -9h-1q-3 0 -5.5 2.5
t-4.5 6.5q-3 6 -22 57t-58 95.5t-86 44.5h-31q-21 0 -21 -32v-314q45 1 68 25.5t27.5 41.5t13.5 63q2 11 8 11q7 0 7 -11v-275q0 -11 -7 -11q-6 0 -8 11q-1 4 -6 38.5t-31.5 62.5t-71.5 29v-325q0 -32 21 -32h31q59 0 96.5 56.5t52 95.5t17.5 45q5 10 11 9q5 -3 4 -13z" />
    <glyph glyph-name="emacron" unicode="&#x113;" horiz-adv-x="386" 
d="M105 672q-8 0 -8 7v1q0 7 8 7h173q8 0 8 -7v-1q0 -7 -8 -7h-173zM337 102l-2 -8q-14 -33 -27 -54t-37 -35.5t-61 -14.5q-85 0 -127.5 76.5t-42.5 209.5q0 128 37.5 206t114.5 78q154 0 154 -284h-216q0 -122 19 -196t73 -74q38 0 60.5 26t40.5 72q1 4 4.5 5.5t6.5 -0.5
q3 -3 3 -7zM141.5 479q-11.5 -66 -11.5 -188h126q0 119 -12.5 186.5t-51.5 67.5t-50.5 -66z" />
    <glyph glyph-name="Ebreve" unicode="&#x114;" horiz-adv-x="439" 
d="M158 835.5q-17 35.5 -17 117.5q0 4 2.5 7t6.5 3t6.5 -3t2.5 -7q0 -48 12.5 -65.5t41.5 -17.5t41.5 17.5t12.5 65.5q0 4 2.5 7t6.5 3t6.5 -3t2.5 -7q0 -82 -17 -117.5t-55 -35.5t-55 35.5zM404 208l-53 -198q-2 -4 -5.5 -7t-7.5 -3h-289q-9 0 -9 8q0 7 9 7q20 0 31 9.5
t11 27.5v644q0 18 -11 27.5t-31 9.5q-9 0 -9 7q0 8 9 8h289q4 0 7.5 -3t5.5 -7l53 -198v-4q0 -6 -4 -9h-1q-3 0 -5.5 2.5t-4.5 6.5q-3 6 -22 57t-58 95.5t-86 44.5h-31q-21 0 -21 -32v-314q45 1 68 25.5t27.5 41.5t13.5 63q2 11 8 11q7 0 7 -11v-275q0 -11 -7 -11
q-6 0 -8 11q-1 4 -6 38.5t-31.5 62.5t-71.5 29v-325q0 -32 21 -32h31q59 0 96.5 56.5t52 95.5t17.5 45q5 10 11 9q5 -3 4 -13z" />
    <glyph glyph-name="ebreve" unicode="&#x115;" horiz-adv-x="386" 
d="M137 647.5q-17 35.5 -17 117.5q0 4 2.5 7t6.5 3t6.5 -3t2.5 -7q0 -48 12.5 -65.5t41.5 -17.5t41.5 17.5t12.5 65.5q0 4 2.5 7t6.5 3t6.5 -3t2.5 -7q0 -82 -17 -117.5t-55 -35.5t-55 35.5zM337 102l-2 -8q-14 -33 -27 -54t-37 -35.5t-61 -14.5q-85 0 -127.5 76.5
t-42.5 209.5q0 128 37.5 206t114.5 78q154 0 154 -284h-216q0 -122 19 -196t73 -74q38 0 60.5 26t40.5 72q1 4 4.5 5.5t6.5 -0.5q3 -3 3 -7zM141.5 479q-11.5 -66 -11.5 -188h126q0 119 -12.5 186.5t-51.5 67.5t-50.5 -66z" />
    <glyph glyph-name="Edotaccent" unicode="&#x116;" horiz-adv-x="439" 
d="M180.5 819q-14.5 19 -14.5 49t14.5 49.5t32.5 19.5q19 0 33 -19.5t14 -49.5t-14 -49t-33 -19q-18 0 -32.5 19zM404 208l-53 -198q-2 -4 -5.5 -7t-7.5 -3h-289q-9 0 -9 8q0 7 9 7q20 0 31 9.5t11 27.5v644q0 18 -11 27.5t-31 9.5q-9 0 -9 7q0 8 9 8h289q4 0 7.5 -3t5.5 -7
l53 -198v-4q0 -6 -4 -9h-1q-3 0 -5.5 2.5t-4.5 6.5q-3 6 -22 57t-58 95.5t-86 44.5h-31q-21 0 -21 -32v-314q45 1 68 25.5t27.5 41.5t13.5 63q2 11 8 11q7 0 7 -11v-275q0 -11 -7 -11q-6 0 -8 11q-1 4 -6 38.5t-31.5 62.5t-71.5 29v-325q0 -32 21 -32h31q59 0 96.5 56.5
t52 95.5t17.5 45q5 10 11 9q5 -3 4 -13z" />
    <glyph glyph-name="edotaccent" unicode="&#x117;" horiz-adv-x="386" 
d="M159.5 631q-14.5 19 -14.5 49t14.5 49.5t32.5 19.5q19 0 33 -19.5t14 -49.5t-14 -49t-33 -19q-18 0 -32.5 19zM337 102l-2 -8q-14 -33 -27 -54t-37 -35.5t-61 -14.5q-85 0 -127.5 76.5t-42.5 209.5q0 128 37.5 206t114.5 78q154 0 154 -284h-216q0 -122 19 -196t73 -74
q38 0 60.5 26t40.5 72q1 4 4.5 5.5t6.5 -0.5q3 -3 3 -7zM141.5 479q-11.5 -66 -11.5 -188h126q0 119 -12.5 186.5t-51.5 67.5t-50.5 -66z" />
    <glyph glyph-name="Eogonek" unicode="&#x118;" horiz-adv-x="439" 
d="M404 208l-53 -198q-2 -4 -5.5 -7t-7.5 -3h-96q-22 -24 -29 -51.5t-7 -61.5q0 -31 9.5 -55.5t27.5 -24.5q12 0 18.5 6t17.5 22q3 4 6 4q4 0 6.5 -4t-0.5 -8l-10 -15t-20 -19.5t-28 -7.5q-36 0 -59.5 25t-23.5 65q0 38 20 65t57 60h-178q-9 0 -9 8q0 7 9 7q20 0 31 9.5
t11 27.5v644q0 18 -11 27.5t-31 9.5q-9 0 -9 7q0 8 9 8h289q4 0 7.5 -3t5.5 -7l53 -198v-4q0 -6 -4 -9h-1q-3 0 -5.5 2.5t-4.5 6.5q-3 6 -22 57t-58 95.5t-86 44.5h-31q-21 0 -21 -32v-314q45 1 68 25.5t27.5 41.5t13.5 63q2 11 8 11q7 0 7 -11v-275q0 -11 -7 -11
q-6 0 -8 11q-1 4 -6 38.5t-31.5 62.5t-71.5 29v-325q0 -32 21 -32h31q59 0 96.5 56.5t52 95.5t17.5 45q5 10 11 9q5 -3 4 -13z" />
    <glyph glyph-name="eogonek" unicode="&#x119;" horiz-adv-x="386" 
d="M337 102l-2 -8q-14 -33 -27 -54t-37 -35.5t-61 -14.5q-85 0 -127.5 76.5t-42.5 209.5q0 128 37.5 206t114.5 78q154 0 154 -284h-216q0 -122 19 -196t73 -74q38 0 60.5 26t40.5 72q1 4 4.5 5.5t6.5 -0.5q3 -3 3 -7zM141.5 479q-11.5 -66 -11.5 -188h126
q0 119 -12.5 186.5t-51.5 67.5t-50.5 -66zM147 -70q20 27 57 60h15q-22 -24 -29 -51.5t-7 -61.5q0 -31 9.5 -55.5t27.5 -24.5q12 0 18.5 6t17.5 22q3 4 6 4q4 0 6.5 -4t-0.5 -8l-10 -15t-20 -19.5t-28 -7.5q-36 0 -59.5 25t-23.5 65q0 38 20 65z" />
    <glyph glyph-name="Ecaron" unicode="&#x11a;" horiz-adv-x="439" 
d="M140 1002q-1 2 -1 5q0 5 5 7h2q10 0 67 -159q42 119 58 152q4 7 9 7q4 0 5.5 -3.5t0.5 -8.5q-14 -63 -43 -170q-6 -16 -13 -24t-17 -8q-19 0 -30 32q-29 105 -43 170zM404 208l-53 -198q-2 -4 -5.5 -7t-7.5 -3h-289q-9 0 -9 8q0 7 9 7q20 0 31 9.5t11 27.5v644
q0 18 -11 27.5t-31 9.5q-9 0 -9 7q0 8 9 8h289q4 0 7.5 -3t5.5 -7l53 -198v-4q0 -6 -4 -9h-1q-3 0 -5.5 2.5t-4.5 6.5q-3 6 -22 57t-58 95.5t-86 44.5h-31q-21 0 -21 -32v-314q45 1 68 25.5t27.5 41.5t13.5 63q2 11 8 11q7 0 7 -11v-275q0 -11 -7 -11q-6 0 -8 11
q-1 4 -6 38.5t-31.5 62.5t-71.5 29v-325q0 -32 21 -32h31q59 0 96.5 56.5t52 95.5t17.5 45q5 10 11 9q5 -3 4 -13z" />
    <glyph glyph-name="ecaron" unicode="&#x11b;" horiz-adv-x="386" 
d="M119 814q-1 2 -1 5q0 5 5 7h2q10 0 67 -159q42 119 58 152q4 7 9 7q4 0 5.5 -3.5t0.5 -8.5q-14 -63 -43 -170q-6 -16 -13 -24t-17 -8q-19 0 -30 32q-29 105 -43 170zM337 102l-2 -8q-14 -33 -27 -54t-37 -35.5t-61 -14.5q-85 0 -127.5 76.5t-42.5 209.5q0 128 37.5 206
t114.5 78q154 0 154 -284h-216q0 -122 19 -196t73 -74q38 0 60.5 26t40.5 72q1 4 4.5 5.5t6.5 -0.5q3 -3 3 -7zM141.5 479q-11.5 -66 -11.5 -188h126q0 119 -12.5 186.5t-51.5 67.5t-50.5 -66z" />
    <glyph glyph-name="Gcircumflex" unicode="&#x11c;" horiz-adv-x="466" 
d="M192.5 814.5q-1.5 3.5 -0.5 8.5q14 65 43 170q11 32 30 32q10 0 17 -8t13 -24q29 -107 43 -170q1 -2 1 -5q0 -5 -5 -7h-2q-10 0 -67 159q-42 -119 -58 -152q-4 -7 -9 -7q-4 0 -5.5 3.5zM409 272q7 0 7 -8v-266q0 -8 -7 -8h-1q-7 0 -7 8q0 30 -2.5 39t-10.5 9q-6 0 -13 -4
t-11.5 -7.5t-6.5 -5.5q-20 -18 -41.5 -28.5t-55.5 -10.5q-119 0 -169.5 106.5t-50.5 277.5t50.5 277.5t169.5 106.5q33 0 52.5 -11t38.5 -30q1 -1 9 -8t14 -7q10 0 13.5 10.5t3.5 37.5q0 8 7 8h1q7 0 7 -8v-216q0 -8 -7 -8h-1q-7 0 -7 8q0 41 -15 90t-44.5 84t-71.5 35
q-54 0 -82.5 -48t-38 -126.5t-9.5 -194.5t9.5 -194.5t38 -126.5t82.5 -48q44 0 74 27v224h-75q-9 0 -9 8t9 8h147h1h1h1z" />
    <glyph glyph-name="gcircumflex" unicode="&#x11d;" horiz-adv-x="394" 
d="M306 590.5q-12 14.5 -12 40.5q0 13 4.5 26.5t4.5 20.5t-5 11t-12 4q-18 0 -32 -27q3 -10 10 -41q1 -2 1 -5q0 -5 -5 -7h-2q-5 0 -9 7l-6 13q-4 -22 -4 -34q0 -21 6 -36t18 -19l-3 1q84 -44 84 -204q0 -114 -41.5 -167t-111.5 -53q-38 0 -64 11l1 -1q-4 2 -11 2
q-17 0 -17 -28q0 -21 24 -32t79 -24q65 -14 99 -62.5t34 -118.5q0 -79 -33.5 -123.5t-106.5 -44.5q-67 0 -107 40.5t-40 117.5q0 45 19.5 76.5t51.5 57.5q-30 11 -47.5 29t-17.5 48q0 48 43 80q-29 24 -43.5 71t-14.5 121q0 106 35.5 159t96.5 59q11 2 19 16t18 41
q13 35 21 49q-17 45 -39 107q-42 -119 -58 -152q-4 -7 -9 -7q-4 0 -5.5 3.5t-0.5 8.5q14 65 43 170q11 32 30 32q10 0 17 -8t13 -24q15 -54 27 -105q21 23 52 23q33 0 58.5 -24t25.5 -58q0 -25 -11.5 -40t-33.5 -15q-21 0 -33 14.5zM230.5 155q14.5 19 21.5 63.5t7 122.5
q0 83 -7 127t-21.5 60.5t-39.5 16.5q-24 0 -38 -17t-21 -61t-7 -126q0 -114 15.5 -159.5t50.5 -45.5q25 0 39.5 19zM254.5 -66.5q-20.5 31.5 -67.5 40.5l-41 10q-30 -47 -30 -126q0 -71 20.5 -107t58.5 -36q39 0 59.5 29.5t20.5 87.5q0 70 -20.5 101.5z" />
    <glyph glyph-name="Gbreve" unicode="&#x11e;" horiz-adv-x="466" 
d="M210 845.5q-17 35.5 -17 117.5q0 4 2.5 7t6.5 3t6.5 -3t2.5 -7q0 -48 12.5 -65.5t41.5 -17.5t41.5 17.5t12.5 65.5q0 4 2.5 7t6.5 3t6.5 -3t2.5 -7q0 -82 -17 -117.5t-55 -35.5t-55 35.5zM409 272q7 0 7 -8v-266q0 -8 -7 -8h-1q-7 0 -7 8q0 30 -2.5 39t-10.5 9
q-6 0 -13 -4t-11.5 -7.5t-6.5 -5.5q-20 -18 -41.5 -28.5t-55.5 -10.5q-119 0 -169.5 106.5t-50.5 277.5t50.5 277.5t169.5 106.5q33 0 52.5 -11t38.5 -30q1 -1 9 -8t14 -7q10 0 13.5 10.5t3.5 37.5q0 8 7 8h1q7 0 7 -8v-216q0 -8 -7 -8h-1q-7 0 -7 8q0 41 -15 90t-44.5 84
t-71.5 35q-54 0 -82.5 -48t-38 -126.5t-9.5 -194.5t9.5 -194.5t38 -126.5t82.5 -48q44 0 74 27v224h-75q-9 0 -9 8t9 8h147h1h1h1z" />
    <glyph glyph-name="gbreve" unicode="&#x11f;" horiz-adv-x="394" 
d="M306 590.5q-12 14.5 -12 40.5q0 13 4.5 26.5t4.5 20.5t-5 11t-12 4q-19 0 -33 -30t-14 -64q0 -21 6 -36t18 -19l-3 1q84 -44 84 -204q0 -114 -41.5 -167t-111.5 -53q-38 0 -64 11l1 -1q-4 2 -11 2q-17 0 -17 -28q0 -21 24 -32t79 -24q65 -14 99 -62.5t34 -118.5
q0 -79 -33.5 -123.5t-106.5 -44.5q-67 0 -107 40.5t-40 117.5q0 45 19.5 76.5t51.5 57.5q-30 11 -47.5 29t-17.5 48q0 48 43 80q-29 24 -43.5 71t-14.5 121q0 106 35.5 159t96.5 59q11 1 18 14t18 41q-10 -2 -17 -2q-38 0 -55 35.5t-17 117.5q0 4 2.5 7t6.5 3t6.5 -3t2.5 -7
q0 -48 12.5 -65.5t41.5 -17.5t41.5 17.5t12.5 65.5q0 4 2.5 7t6.5 3t6.5 -3t2.5 -7q0 -36 -3 -65q18 13 40 13q33 0 58.5 -24t25.5 -58q0 -25 -11.5 -40t-33.5 -15q-21 0 -33 14.5zM230.5 155q14.5 19 21.5 63.5t7 122.5q0 83 -7 127t-21.5 60.5t-39.5 16.5q-24 0 -38 -17
t-21 -61t-7 -126q0 -114 15.5 -159.5t50.5 -45.5q25 0 39.5 19zM254.5 -66.5q-20.5 31.5 -67.5 40.5l-41 10q-30 -47 -30 -126q0 -71 20.5 -107t58.5 -36q39 0 59.5 29.5t20.5 87.5q0 70 -20.5 101.5z" />
    <glyph glyph-name="Hcircumflex" unicode="&#x124;" horiz-adv-x="518" 
d="M186.5 804.5q-1.5 3.5 -0.5 8.5q14 65 43 170q11 32 30 32q10 0 17 -8t13 -24q29 -107 43 -170q1 -2 1 -5q0 -5 -5 -7h-2q-10 0 -67 159q-42 -119 -58 -152q-4 -7 -9 -7q-4 0 -5.5 3.5zM478 8q0 -8 -9 -8h-164q-9 0 -9 8q0 7 9 7q20 0 31 9.5t11 27.5v370h-176v-370
q0 -18 11 -27.5t31 -9.5q9 0 9 -7q0 -8 -9 -8h-164q-9 0 -9 8q0 7 9 7q20 0 31 9.5t11 27.5v644q0 18 -11 27.5t-31 9.5q-9 0 -9 7q0 8 9 8h164q9 0 9 -8q0 -7 -9 -7q-20 0 -31 -9.5t-11 -27.5v-259h176v259q0 18 -11 27.5t-31 9.5q-9 0 -9 7q0 8 9 8h164q9 0 9 -8
q0 -7 -9 -7q-20 0 -31 -9.5t-11 -27.5v-644q0 -18 11 -27.5t31 -9.5q9 0 9 -7z" />
    <glyph glyph-name="hcircumflex" unicode="&#x125;" horiz-adv-x="449" 
d="M29 801q-4 0 -5.5 3.5t-0.5 8.5q14 65 43 170q11 32 30 32q10 0 17 -8t13 -24q29 -107 43 -170q1 -2 1 -5q0 -5 -5 -7h-2q-10 0 -67 159q-42 -119 -58 -152q-4 -7 -9 -7zM414 8q0 -8 -9 -8h-164q-9 0 -9 8q0 7 9 7q20 0 31 9.5t11 27.5v375q0 59 -12.5 86.5t-44.5 27.5
q-17 0 -33 -13.5t-26.5 -41.5t-10.5 -69v-365q0 -18 11 -27.5t31 -9.5q9 0 9 -7q0 -8 -9 -8h-164q-9 0 -9 8q0 7 9 7q20 0 31 9.5t11 27.5v644q0 18 -11 27.5t-31 9.5q-9 0 -9 7q0 8 9 8h112q4 0 7 -3t3 -7v-236q26 58 96 58q66 0 89 -42.5t22 -117.5v-348q0 -18 11 -27.5
t31 -9.5q9 0 9 -7z" />
    <glyph glyph-name="Itilde" unicode="&#x128;" 
d="M63 804q0 58 12 80t38 22q9 0 18.5 -4.5t18.5 -9.5q21 -15 36 -15q11 0 15 10.5t4 27.5q0 6 2 9t5 3q7 0 7 -12q0 -58 -12 -80t-38 -22q-15 0 -36 15q-9 5 -18.5 9.5t-18.5 4.5q-11 0 -15 -10.5t-4 -27.5q0 -6 -2 -9t-5 -3q-7 0 -7 12zM40 8q0 7 9 7q20 0 31 9.5t11 27.5
v644q0 18 -11 27.5t-31 9.5q-9 0 -9 7q0 8 9 8h164q9 0 9 -8q0 -7 -9 -7q-20 0 -31 -9.5t-11 -27.5v-644q0 -18 11 -27.5t31 -9.5q9 0 9 -7q0 -8 -9 -8h-164q-9 0 -9 8z" />
    <glyph glyph-name="itilde" unicode="&#x129;" horiz-adv-x="252" 
d="M31 606q0 58 12 80t38 22q9 0 18.5 -4.5t18.5 -9.5q21 -15 36 -15q11 0 15 10.5t4 27.5q0 6 2 9t5 3q7 0 7 -12q0 -58 -12 -80t-38 -22q-15 0 -36 15q-9 5 -18.5 9.5t-18.5 4.5q-11 0 -15 -10.5t-4 -27.5q0 -6 -2 -9t-5 -3q-7 0 -7 12zM35 8q0 7 9 7q20 0 31 9.5t11 27.5
v446q0 18 -11 27.5t-31 9.5q-9 0 -9 7q0 8 9 8h112q4 0 7 -3t3 -7v-488q0 -18 11 -27.5t31 -9.5q9 0 9 -7q0 -8 -9 -8h-164q-9 0 -9 8z" />
    <glyph glyph-name="Imacron" unicode="&#x12a;" 
d="M44 860q-8 0 -8 7v1q0 7 8 7h173q8 0 8 -7v-1q0 -7 -8 -7h-173zM40 8q0 7 9 7q20 0 31 9.5t11 27.5v644q0 18 -11 27.5t-31 9.5q-9 0 -9 7q0 8 9 8h164q9 0 9 -8q0 -7 -9 -7q-20 0 -31 -9.5t-11 -27.5v-644q0 -18 11 -27.5t31 -9.5q9 0 9 -7q0 -8 -9 -8h-164q-9 0 -9 8z
" />
    <glyph glyph-name="imacron" unicode="&#x12b;" horiz-adv-x="252" 
d="M22 662q-8 0 -8 7v1q0 7 8 7h173q8 0 8 -7v-1q0 -7 -8 -7h-173zM35 8q0 7 9 7q20 0 31 9.5t11 27.5v446q0 18 -11 27.5t-31 9.5q-9 0 -9 7q0 8 9 8h112q4 0 7 -3t3 -7v-488q0 -18 11 -27.5t31 -9.5q9 0 9 -7q0 -8 -9 -8h-164q-9 0 -9 8z" />
    <glyph glyph-name="Ibreve" unicode="&#x12c;" 
d="M76 835.5q-17 35.5 -17 117.5q0 4 2.5 7t6.5 3t6.5 -3t2.5 -7q0 -48 12.5 -65.5t41.5 -17.5t41.5 17.5t12.5 65.5q0 4 2.5 7t6.5 3t6.5 -3t2.5 -7q0 -82 -17 -117.5t-55 -35.5t-55 35.5zM40 8q0 7 9 7q20 0 31 9.5t11 27.5v644q0 18 -11 27.5t-31 9.5q-9 0 -9 7q0 8 9 8
h164q9 0 9 -8q0 -7 -9 -7q-20 0 -31 -9.5t-11 -27.5v-644q0 -18 11 -27.5t31 -9.5q9 0 9 -7q0 -8 -9 -8h-164q-9 0 -9 8z" />
    <glyph glyph-name="ibreve" unicode="&#x12d;" horiz-adv-x="252" 
d="M54 637.5q-17 35.5 -17 117.5q0 4 2.5 7t6.5 3t6.5 -3t2.5 -7q0 -48 12.5 -65.5t41.5 -17.5t41.5 17.5t12.5 65.5q0 4 2.5 7t6.5 3t6.5 -3t2.5 -7q0 -82 -17 -117.5t-55 -35.5t-55 35.5zM35 8q0 7 9 7q20 0 31 9.5t11 27.5v446q0 18 -11 27.5t-31 9.5q-9 0 -9 7q0 8 9 8
h112q4 0 7 -3t3 -7v-488q0 -18 11 -27.5t31 -9.5q9 0 9 -7q0 -8 -9 -8h-164q-9 0 -9 8z" />
    <glyph glyph-name="Iogonek" unicode="&#x12e;" 
d="M222 8q0 -8 -9 -8h-73q-22 -24 -29 -51.5t-7 -61.5q0 -31 9.5 -55.5t27.5 -24.5q12 0 18.5 6t17.5 22q3 4 6 4q4 0 6.5 -4t-0.5 -8l-10 -15t-20 -19.5t-28 -7.5q-36 0 -59.5 25t-23.5 65q0 38 20 65t57 60h-76q-9 0 -9 8q0 7 9 7q20 0 31 9.5t11 27.5v644q0 18 -11 27.5
t-31 9.5q-9 0 -9 7q0 8 9 8h164q9 0 9 -8q0 -7 -9 -7q-20 0 -31 -9.5t-11 -27.5v-644q0 -18 11 -27.5t31 -9.5q9 0 9 -7z" />
    <glyph glyph-name="iogonek" unicode="&#x12f;" horiz-adv-x="252" 
d="M76.5 621q-14.5 19 -14.5 49t14.5 49.5t32.5 19.5q19 0 33 -19.5t14 -49.5t-14 -49t-33 -19q-18 0 -32.5 19zM217 8q0 -8 -9 -8h-88q-22 -24 -29 -51.5t-7 -61.5q0 -31 9.5 -55.5t27.5 -24.5q12 0 18.5 6t17.5 22q3 4 6 4q4 0 6.5 -4t-0.5 -8l-10 -15t-20 -19.5t-28 -7.5
q-36 0 -59.5 25t-23.5 65q0 38 20 65t57 60h-61q-9 0 -9 8q0 7 9 7q20 0 31 9.5t11 27.5v446q0 18 -11 27.5t-31 9.5q-9 0 -9 7q0 8 9 8h112q4 0 7 -3t3 -7v-488q0 -18 11 -27.5t31 -9.5q9 0 9 -7z" />
    <glyph glyph-name="Idotaccent" unicode="&#x130;" 
d="M98.5 819q-14.5 19 -14.5 49t14.5 49.5t32.5 19.5q19 0 33 -19.5t14 -49.5t-14 -49t-33 -19q-18 0 -32.5 19zM40 8q0 7 9 7q20 0 31 9.5t11 27.5v644q0 18 -11 27.5t-31 9.5q-9 0 -9 7q0 8 9 8h164q9 0 9 -8q0 -7 -9 -7q-20 0 -31 -9.5t-11 -27.5v-644q0 -18 11 -27.5
t31 -9.5q9 0 9 -7q0 -8 -9 -8h-164q-9 0 -9 8z" />
    <glyph glyph-name="dotlessi" unicode="&#x131;" horiz-adv-x="252" 
d="M35 8q0 7 9 7q20 0 31 9.5t11 27.5v446q0 18 -11 27.5t-31 9.5q-9 0 -9 7q0 8 9 8h112q4 0 7 -3t3 -7v-488q0 -18 11 -27.5t31 -9.5q9 0 9 -7q0 -8 -9 -8h-164q-9 0 -9 8z" />
    <glyph glyph-name="Jcircumflex" unicode="&#x134;" horiz-adv-x="358" 
d="M149.5 804.5q-1.5 3.5 -0.5 8.5q14 65 43 170q11 32 30 32q10 0 17 -8t13 -24q29 -107 43 -170q1 -2 1 -5q0 -5 -5 -7h-2q-10 0 -67 159q-42 -119 -58 -152q-4 -7 -9 -7q-4 0 -5.5 3.5zM318 740q0 -7 -9 -7q-20 0 -31 -9.5t-11 -27.5v-547q0 -82 -28 -120.5t-85 -38.5
q-53 0 -83.5 41.5t-30.5 101.5q0 28 11.5 45.5t31.5 17.5q18 0 30.5 -15.5t12.5 -39.5q0 -20 -4 -35t-5 -18q-9 -25 -9 -46q0 -19 11 -28.5t26 -9.5q18 0 30 20.5t12 68.5v603q0 18 -11 27.5t-31 9.5q-9 0 -9 7q0 8 9 8h164q9 0 9 -8z" />
    <glyph glyph-name="jcircumflex" unicode="&#x135;" horiz-adv-x="269" 
d="M216 610q0 -5 -5 -7h-2q-10 0 -67 159q-42 -119 -58 -152q-4 -7 -9 -7q-4 0 -5.5 3.5t-0.5 8.5q14 65 43 170q11 32 30 32q10 0 17 -8t13 -24q29 -107 43 -170q1 -2 1 -5zM196 547q3 -3 3 -7v-675q0 -85 -23.5 -125t-79.5 -40q-51 0 -80.5 36t-29.5 91q0 33 13 53t35 20
q19 0 30.5 -13.5t11.5 -39.5q0 -14 -4.5 -23t-12.5 -19q-9 -12 -14 -23t-5 -28t11.5 -27t28.5 -10q39 0 39 86v695q0 18 -11 27.5t-31 9.5q-9 0 -9 7q0 8 9 8h112q4 0 7 -3z" />
    <glyph glyph-name="Lacute" unicode="&#x139;" horiz-adv-x="434" 
d="M129 815q13 38 38 99t35 80q9 20 26 20q3 0 9 -2q10 -6 10 -16q0 -11 -7 -24q-16 -28 -97 -163q-5 -7 -10 -7q-8 0 -4 13zM404 208l-53 -198q-2 -4 -5.5 -7t-7.5 -3h-289q-9 0 -9 8q0 7 9 7q20 0 31 9.5t11 27.5v644q0 18 -11 27.5t-31 9.5q-9 0 -9 7q0 8 9 8h164
q9 0 9 -8q0 -7 -9 -7q-20 0 -31 -9.5t-11 -27.5v-649q0 -32 21 -32h31q59 0 96.5 56.5t52 95.5t17.5 45q5 10 11 9q5 -3 4 -13z" />
    <glyph glyph-name="lacute" unicode="&#x13a;" horiz-adv-x="232" 
d="M115 815q13 38 38 99t35 80q9 20 26 20q3 0 9 -2q10 -6 10 -16q0 -11 -7 -24q-16 -28 -97 -163q-5 -7 -10 -7q-8 0 -4 13zM25 8q0 7 9 7q20 0 31 9.5t11 27.5v644q0 18 -11 27.5t-31 9.5q-9 0 -9 7q0 8 9 8h112q4 0 7 -3t3 -7v-686q0 -18 11 -27.5t31 -9.5q9 0 9 -7
q0 -8 -9 -8h-164q-9 0 -9 8z" />
    <glyph glyph-name="Lcaron" unicode="&#x13d;" horiz-adv-x="434" 
d="M404 208l-53 -198q-2 -4 -5.5 -7t-7.5 -3h-289q-9 0 -9 8q0 7 9 7q20 0 31 9.5t11 27.5v644q0 18 -11 27.5t-31 9.5q-9 0 -9 7q0 8 9 8h164q9 0 9 -8q0 -7 -9 -7q-20 0 -31 -9.5t-11 -27.5v-649q0 -32 21 -32h31q59 0 96.5 56.5t52 95.5t17.5 45q5 10 11 9q5 -3 4 -13z
M239 495q4 41 13.5 106t14.5 85q2 12 9 19.5t15 7.5q20 0 20 -22q0 -5 -2 -17q-19 -68 -55 -182q-2 -9 -9 -9q-6 0 -6 12z" />
    <glyph glyph-name="lcaron" unicode="&#x13e;" horiz-adv-x="232" 
d="M196 583q4 41 13.5 106t14.5 85q2 12 9 19.5t15 7.5q20 0 20 -22q0 -5 -2 -17q-19 -68 -55 -182q-2 -9 -9 -9q-6 0 -6 12zM25 8q0 7 9 7q20 0 31 9.5t11 27.5v644q0 18 -11 27.5t-31 9.5q-9 0 -9 7q0 8 9 8h112q4 0 7 -3t3 -7v-686q0 -18 11 -27.5t31 -9.5q9 0 9 -7
q0 -8 -9 -8h-164q-9 0 -9 8z" />
    <glyph glyph-name="Nacute" unicode="&#x143;" horiz-adv-x="522" 
d="M280 815q13 38 38 99t35 80q9 20 26 20q3 0 9 -2q10 -6 10 -16q0 -11 -7 -24q-16 -28 -97 -163q-5 -7 -10 -7q-8 0 -4 13zM492 740q0 -7 -9 -7q-20 0 -31 -9.5t-11 -27.5v-686q0 -4 -3 -7t-7 -3h-33l-297 667v-615q0 -18 11 -27.5t31 -9.5q9 0 9 -7q0 -8 -9 -8h-99
q-9 0 -9 8q0 7 9 7q20 0 31 9.5t11 27.5v644q0 18 -11 27.5t-31 9.5q-9 0 -9 7q0 8 9 8h107l275 -620v568q0 18 -11 27.5t-31 9.5q-9 0 -9 7q0 8 9 8h99q9 0 9 -8z" />
    <glyph glyph-name="nacute" unicode="&#x144;" horiz-adv-x="459" 
d="M230 627q13 38 38 99t35 80q9 20 26 20q3 0 9 -2q10 -6 10 -16q0 -11 -7 -24q-16 -28 -97 -163q-5 -7 -10 -7q-8 0 -4 13zM424 8q0 -8 -9 -8h-164q-9 0 -9 8q0 7 9 7q20 0 31 9.5t11 27.5v375q0 59 -12.5 86.5t-44.5 27.5q-17 0 -33 -13.5t-26.5 -41.5t-10.5 -69v-365
q0 -18 11 -27.5t31 -9.5q9 0 9 -7q0 -8 -9 -8h-164q-9 0 -9 8q0 7 9 7q20 0 31 9.5t11 27.5v446q0 18 -11 27.5t-31 9.5q-9 0 -9 7q0 8 9 8h112q4 0 7 -3t3 -7v-38q26 58 96 58q66 0 89 -42.5t22 -117.5v-348q0 -18 11 -27.5t31 -9.5q9 0 9 -7z" />
    <glyph glyph-name="Ncaron" unicode="&#x147;" horiz-adv-x="522" 
d="M209 1002q-1 2 -1 5q0 5 5 7h2q10 0 67 -159q42 119 58 152q4 7 9 7q4 0 5.5 -3.5t0.5 -8.5q-14 -63 -43 -170q-6 -16 -13 -24t-17 -8q-19 0 -30 32q-29 105 -43 170zM492 740q0 -7 -9 -7q-20 0 -31 -9.5t-11 -27.5v-686q0 -4 -3 -7t-7 -3h-33l-297 667v-615
q0 -18 11 -27.5t31 -9.5q9 0 9 -7q0 -8 -9 -8h-99q-9 0 -9 8q0 7 9 7q20 0 31 9.5t11 27.5v644q0 18 -11 27.5t-31 9.5q-9 0 -9 7q0 8 9 8h107l275 -620v568q0 18 -11 27.5t-31 9.5q-9 0 -9 7q0 8 9 8h99q9 0 9 -8z" />
    <glyph glyph-name="ncaron" unicode="&#x148;" horiz-adv-x="459" 
d="M159 814q-1 2 -1 5q0 5 5 7h2q10 0 67 -159q42 119 58 152q4 7 9 7q4 0 5.5 -3.5t0.5 -8.5q-14 -63 -43 -170q-6 -16 -13 -24t-17 -8q-19 0 -30 32q-29 105 -43 170zM424 8q0 -8 -9 -8h-164q-9 0 -9 8q0 7 9 7q20 0 31 9.5t11 27.5v375q0 59 -12.5 86.5t-44.5 27.5
q-17 0 -33 -13.5t-26.5 -41.5t-10.5 -69v-365q0 -18 11 -27.5t31 -9.5q9 0 9 -7q0 -8 -9 -8h-164q-9 0 -9 8q0 7 9 7q20 0 31 9.5t11 27.5v446q0 18 -11 27.5t-31 9.5q-9 0 -9 7q0 8 9 8h112q4 0 7 -3t3 -7v-38q26 58 96 58q66 0 89 -42.5t22 -117.5v-348q0 -18 11 -27.5
t31 -9.5q9 0 9 -7z" />
    <glyph glyph-name="Omacron" unicode="&#x14c;" horiz-adv-x="511" 
d="M166 870q-8 0 -8 7v1q0 7 8 7h173q8 0 8 -7v-1q0 -7 -8 -7h-173zM91 101q-51 111 -51 273t51 273t163 111q113 0 165 -115t52 -279q0 -161 -51.5 -267.5t-165.5 -106.5q-112 0 -163 111zM349.5 99.5q31.5 94.5 31.5 264.5q0 173 -32 276t-95 103q-62 0 -93 -99t-31 -270
t31 -270t93 -99q64 0 95.5 94.5z" />
    <glyph glyph-name="omacron" unicode="&#x14d;" horiz-adv-x="416" 
d="M120 672q-8 0 -8 7v1q0 7 8 7h173q8 0 8 -7v-1q0 -7 -8 -7h-173zM79.5 75q-39.5 85 -39.5 201q0 115 39.5 199.5t127.5 84.5t128.5 -84.5t40.5 -199.5t-40.5 -200.5t-128.5 -85.5t-127.5 85zM263.5 40.5q18.5 35.5 24 92t5.5 143.5t-5.5 142.5t-24 91t-56.5 35.5
t-56 -35.5t-23 -91t-5 -144.5q0 -88 5 -143.5t23 -90.5t56 -35t56.5 35.5z" />
    <glyph glyph-name="Obreve" unicode="&#x14e;" horiz-adv-x="511" 
d="M198 845.5q-17 35.5 -17 117.5q0 4 2.5 7t6.5 3t6.5 -3t2.5 -7q0 -48 12.5 -65.5t41.5 -17.5t41.5 17.5t12.5 65.5q0 4 2.5 7t6.5 3t6.5 -3t2.5 -7q0 -82 -17 -117.5t-55 -35.5t-55 35.5zM91 101q-51 111 -51 273t51 273t163 111q113 0 165 -115t52 -279
q0 -161 -51.5 -267.5t-165.5 -106.5q-112 0 -163 111zM349.5 99.5q31.5 94.5 31.5 264.5q0 173 -32 276t-95 103q-62 0 -93 -99t-31 -270t31 -270t93 -99q64 0 95.5 94.5z" />
    <glyph glyph-name="obreve" unicode="&#x14f;" horiz-adv-x="416" 
d="M152 647.5q-17 35.5 -17 117.5q0 4 2.5 7t6.5 3t6.5 -3t2.5 -7q0 -48 12.5 -65.5t41.5 -17.5t41.5 17.5t12.5 65.5q0 4 2.5 7t6.5 3t6.5 -3t2.5 -7q0 -82 -17 -117.5t-55 -35.5t-55 35.5zM79.5 75q-39.5 85 -39.5 201q0 115 39.5 199.5t127.5 84.5t128.5 -84.5
t40.5 -199.5t-40.5 -200.5t-128.5 -85.5t-127.5 85zM263.5 40.5q18.5 35.5 24 92t5.5 143.5t-5.5 142.5t-24 91t-56.5 35.5t-56 -35.5t-23 -91t-5 -144.5q0 -88 5 -143.5t23 -90.5t56 -35t56.5 35.5z" />
    <glyph glyph-name="Ohungarumlaut" unicode="&#x150;" horiz-adv-x="511" 
d="M196 825q13 38 38 99t35 80q9 20 26 20q3 0 9 -2q10 -6 10 -16q0 -11 -7 -24q-16 -28 -97 -163q-5 -7 -10 -7q-8 0 -4 13zM286 825q13 38 38 99t35 80q9 20 26 20q3 0 9 -2q10 -6 10 -16q0 -11 -7 -24q-16 -28 -97 -163q-5 -7 -10 -7q-8 0 -4 13zM91 101q-51 111 -51 273
t51 273t163 111q113 0 165 -115t52 -279q0 -161 -51.5 -267.5t-165.5 -106.5q-112 0 -163 111zM349.5 99.5q31.5 94.5 31.5 264.5q0 173 -32 276t-95 103q-62 0 -93 -99t-31 -270t31 -270t93 -99q64 0 95.5 94.5z" />
    <glyph glyph-name="ohungarumlaut" unicode="&#x151;" horiz-adv-x="416" 
d="M150 627q13 38 38 99t35 80q9 20 26 20q3 0 9 -2q10 -6 10 -16q0 -11 -7 -24q-16 -28 -97 -163q-5 -7 -10 -7q-8 0 -4 13zM240 627q13 38 38 99t35 80q9 20 26 20q3 0 9 -2q10 -6 10 -16q0 -11 -7 -24q-16 -28 -97 -163q-5 -7 -10 -7q-8 0 -4 13zM79.5 75
q-39.5 85 -39.5 201q0 115 39.5 199.5t127.5 84.5t128.5 -84.5t40.5 -199.5t-40.5 -200.5t-128.5 -85.5t-127.5 85zM263.5 40.5q18.5 35.5 24 92t5.5 143.5t-5.5 142.5t-24 91t-56.5 35.5t-56 -35.5t-23 -91t-5 -144.5q0 -88 5 -143.5t23 -90.5t56 -35t56.5 35.5z" />
    <glyph glyph-name="OE" unicode="&#x152;" horiz-adv-x="642" 
d="M607 208l-53 -198q-2 -4 -5.5 -7t-7.5 -3h-277q-76 0 -126.5 53.5t-74 139t-23.5 181.5t23.5 181.5t74 139t126.5 53.5h277q4 0 7.5 -3t5.5 -7l53 -198v-4q0 -6 -4 -9h-1q-3 0 -5.5 2.5t-4.5 6.5q-3 6 -22 57t-58 95.5t-86 44.5h-31q-21 0 -21 -32v-314q45 1 68 25.5
t27.5 41.5t13.5 63q2 11 8 11q7 0 7 -11v-275q0 -11 -7 -11q-6 0 -8 11q-1 4 -6 38.5t-31.5 62.5t-71.5 29v-325q0 -32 21 -32h31q59 0 96.5 56.5t52 95.5t17.5 45q5 10 11 9q5 -3 4 -13zM294 701q0 32 -21 32h-9q-74 0 -104 -93.5t-30 -265.5t30 -265.5t104 -93.5h9
q21 0 21 32v654z" />
    <glyph glyph-name="oe" unicode="&#x153;" horiz-adv-x="639" 
d="M590 102l-2 -8q-14 -33 -27 -54t-37 -35.5t-61 -14.5q-87 0 -130 81q-46 -81 -126 -81q-88 0 -127.5 85t-39.5 201q0 115 39.5 199.5t127.5 84.5q79 0 124 -77q40 77 114 77q154 0 154 -284h-216q0 -122 19 -196t73 -74q38 0 60.5 26t40.5 72q1 4 4.5 5.5t6.5 -0.5
q3 -3 3 -7zM263.5 40.5q18.5 35.5 24 92t5.5 143.5t-5.5 142.5t-24 91t-56.5 35.5t-56 -35.5t-23 -91t-5 -144.5q0 -88 5 -143.5t23 -90.5t56 -35t56.5 35.5zM394.5 479q-11.5 -66 -11.5 -188h126q0 119 -12.5 186.5t-51.5 67.5t-50.5 -66z" />
    <glyph glyph-name="Racute" unicode="&#x154;" horiz-adv-x="474" 
d="M199 815q13 38 38 99t35 80q9 20 26 20q3 0 9 -2q10 -6 10 -16q0 -11 -7 -24q-16 -28 -97 -163q-5 -7 -10 -7q-8 0 -4 13zM454 33q0 -5 -1 -8q0 -1 -4 -10.5t-16 -17t-30 -7.5q-47 0 -71.5 30.5t-24.5 99.5v149q0 29 -18 55t-49 26h-69v-298q0 -18 11 -27.5t31 -9.5
q9 0 9 -7q0 -8 -9 -8h-164q-9 0 -9 8q0 7 9 7q20 0 31 9.5t11 27.5v644q0 18 -11 27.5t-31 9.5q-9 0 -9 7q0 8 9 8h183q74 0 124.5 -46t50.5 -155q0 -72 -29 -117t-75 -65q21 -1 41.5 -15.5t33.5 -42.5t13 -68l2 -183q0 -24 4.5 -35t15.5 -11q10 0 14 6t8 19q3 10 11 10
t8 -12zM171 365h41q52 -1 81 39t29 143t-31 144.5t-89 41.5h-10q-21 0 -21 -32v-336z" />
    <glyph glyph-name="racute" unicode="&#x155;" horiz-adv-x="356" 
d="M189 617q13 38 38 99t35 80q9 20 26 20q3 0 9 -2q10 -6 10 -16q0 -11 -7 -24q-16 -28 -97 -163q-5 -7 -10 -7q-8 0 -4 13zM304.5 535q21.5 -25 21.5 -56q0 -30 -14 -47.5t-34 -17.5q-19 0 -34 15t-15 39q0 17 9 35q7 11 7 20q0 6 -4 10.5t-12 4.5q-27 0 -45 -38t-18 -84
v-364q0 -18 11 -27.5t31 -9.5q9 0 9 -7q0 -8 -9 -8h-164q-9 0 -9 8q0 7 9 7q20 0 31 9.5t11 27.5v446q0 18 -11 27.5t-31 9.5q-9 0 -9 7q0 8 9 8h112q4 0 7 -3t3 -7v-42q13 28 34 45t48 17q35 0 56.5 -25z" />
    <glyph glyph-name="Rcaron" unicode="&#x158;" horiz-adv-x="474" 
d="M128 1002q-1 2 -1 5q0 5 5 7h2q10 0 67 -159q42 119 58 152q4 7 9 7q4 0 5.5 -3.5t0.5 -8.5q-14 -63 -43 -170q-6 -16 -13 -24t-17 -8q-19 0 -30 32q-29 105 -43 170zM454 33q0 -5 -1 -8q0 -1 -4 -10.5t-16 -17t-30 -7.5q-47 0 -71.5 30.5t-24.5 99.5v149q0 29 -18 55
t-49 26h-69v-298q0 -18 11 -27.5t31 -9.5q9 0 9 -7q0 -8 -9 -8h-164q-9 0 -9 8q0 7 9 7q20 0 31 9.5t11 27.5v644q0 18 -11 27.5t-31 9.5q-9 0 -9 7q0 8 9 8h183q74 0 124.5 -46t50.5 -155q0 -72 -29 -117t-75 -65q21 -1 41.5 -15.5t33.5 -42.5t13 -68l2 -183q0 -24 4.5 -35
t15.5 -11q10 0 14 6t8 19q3 10 11 10t8 -12zM171 365h41q52 -1 81 39t29 143t-31 144.5t-89 41.5h-10q-21 0 -21 -32v-336z" />
    <glyph glyph-name="rcaron" unicode="&#x159;" horiz-adv-x="356" 
d="M118 804q-1 2 -1 5q0 5 5 7h2q10 0 67 -159q42 119 58 152q4 7 9 7q4 0 5.5 -3.5t0.5 -8.5q-14 -63 -43 -170q-6 -16 -13 -24t-17 -8q-19 0 -30 32q-29 105 -43 170zM304.5 535q21.5 -25 21.5 -56q0 -30 -14 -47.5t-34 -17.5q-19 0 -34 15t-15 39q0 17 9 35q7 11 7 20
q0 6 -4 10.5t-12 4.5q-27 0 -45 -38t-18 -84v-364q0 -18 11 -27.5t31 -9.5q9 0 9 -7q0 -8 -9 -8h-164q-9 0 -9 8q0 7 9 7q20 0 31 9.5t11 27.5v446q0 18 -11 27.5t-31 9.5q-9 0 -9 7q0 8 9 8h112q4 0 7 -3t3 -7v-42q13 28 34 45t48 17q35 0 56.5 -25z" />
    <glyph glyph-name="Sacute" unicode="&#x15a;" horiz-adv-x="417" 
d="M188 825q13 38 38 99t35 80q9 20 26 20q3 0 9 -2q10 -6 10 -16q0 -11 -7 -24q-16 -28 -97 -163q-5 -7 -10 -7q-8 0 -4 13zM155 565.5q17 -46.5 41.5 -83.5t65.5 -90q54 -70 79.5 -116t25.5 -99q0 -82 -40.5 -134.5t-111.5 -52.5q-29 0 -48.5 9t-40.5 24q-6 5 -12 9t-11 4
q-10 0 -16.5 -12t-6.5 -26q0 -8 -7 -8h-1q-7 0 -7 8v266q0 8 7 8h1q7 0 7 -8q0 -64 16 -123.5t45.5 -97.5t68.5 -38q43 0 60.5 25.5t17.5 85.5q0 42 -15 81.5t-37 72.5t-60 82q-39 50 -61.5 84.5t-38.5 75.5t-16 86q0 80 37.5 120t92.5 40q34 0 54 -9t38 -24q2 -2 10 -7.5
t15 -5.5q10 0 13.5 7.5t3.5 20.5q0 8 7 8h1q7 0 7 -8v-206q0 -8 -7 -8h-1q-7 0 -7 8q0 23 -11 73t-38.5 93t-73.5 43q-32 0 -47.5 -20.5t-15.5 -58.5q0 -52 17 -98.5z" />
    <glyph glyph-name="sacute" unicode="&#x15b;" horiz-adv-x="327" 
d="M153 627q13 38 38 99t35 80q9 20 26 20q3 0 9 -2q10 -6 10 -16q0 -11 -7 -24q-16 -28 -97 -163q-5 -7 -10 -7q-8 0 -4 13zM134 389.5q23 -39.5 68 -90.5q43 -49 64 -83.5t21 -78.5q0 -58 -29 -102.5t-88 -44.5q-24 0 -40.5 8t-33.5 22q-15 12 -22 12q-15 0 -14.5 -13.5
t0.5 -14.5q0 -9 -7 -9t-7 9v200q0 9 7 9t7 -9q0 -41 14.5 -88t38.5 -79t51 -32q26 0 40 21t14 56q0 42 -21 77t-65 87q-45 52 -68.5 91.5t-23.5 86.5q0 59 30.5 97.5t84.5 38.5q23 0 38.5 -9t31.5 -24q11 -13 18 -13t9.5 8.5t2.5 24.5q0 8 7 8t7 -8v-153q0 -8 -7 -8t-7 8
q0 25 -13.5 61.5t-35 63t-46.5 26.5t-37 -18t-12 -47q0 -51 23 -90.5z" />
    <glyph glyph-name="Scircumflex" unicode="&#x15c;" horiz-adv-x="417" 
d="M117.5 814.5q-1.5 3.5 -0.5 8.5q14 65 43 170q11 32 30 32q10 0 17 -8t13 -24q29 -107 43 -170q1 -2 1 -5q0 -5 -5 -7h-2q-10 0 -67 159q-42 -119 -58 -152q-4 -7 -9 -7q-4 0 -5.5 3.5zM155 565.5q17 -46.5 41.5 -83.5t65.5 -90q54 -70 79.5 -116t25.5 -99
q0 -82 -40.5 -134.5t-111.5 -52.5q-29 0 -48.5 9t-40.5 24q-6 5 -12 9t-11 4q-10 0 -16.5 -12t-6.5 -26q0 -8 -7 -8h-1q-7 0 -7 8v266q0 8 7 8h1q7 0 7 -8q0 -64 16 -123.5t45.5 -97.5t68.5 -38q43 0 60.5 25.5t17.5 85.5q0 42 -15 81.5t-37 72.5t-60 82q-39 50 -61.5 84.5
t-38.5 75.5t-16 86q0 80 37.5 120t92.5 40q34 0 54 -9t38 -24q2 -2 10 -7.5t15 -5.5q10 0 13.5 7.5t3.5 20.5q0 8 7 8h1q7 0 7 -8v-206q0 -8 -7 -8h-1q-7 0 -7 8q0 23 -11 73t-38.5 93t-73.5 43q-32 0 -47.5 -20.5t-15.5 -58.5q0 -52 17 -98.5z" />
    <glyph glyph-name="scircumflex" unicode="&#x15d;" horiz-adv-x="327" 
d="M82.5 616.5q-1.5 3.5 -0.5 8.5q14 65 43 170q11 32 30 32q10 0 17 -8t13 -24q29 -107 43 -170q1 -2 1 -5q0 -5 -5 -7h-2q-10 0 -67 159q-42 -119 -58 -152q-4 -7 -9 -7q-4 0 -5.5 3.5zM134 389.5q23 -39.5 68 -90.5q43 -49 64 -83.5t21 -78.5q0 -58 -29 -102.5t-88 -44.5
q-24 0 -40.5 8t-33.5 22q-15 12 -22 12q-15 0 -14.5 -13.5t0.5 -14.5q0 -9 -7 -9t-7 9v200q0 9 7 9t7 -9q0 -41 14.5 -88t38.5 -79t51 -32q26 0 40 21t14 56q0 42 -21 77t-65 87q-45 52 -68.5 91.5t-23.5 86.5q0 59 30.5 97.5t84.5 38.5q23 0 38.5 -9t31.5 -24
q11 -13 18 -13t9.5 8.5t2.5 24.5q0 8 7 8t7 -8v-153q0 -8 -7 -8t-7 8q0 25 -13.5 61.5t-35 63t-46.5 26.5t-37 -18t-12 -47q0 -51 23 -90.5z" />
    <glyph glyph-name="Scedilla" unicode="&#x15e;" horiz-adv-x="417" 
d="M155 565.5q17 -46.5 41.5 -83.5t65.5 -90q54 -70 79.5 -116t25.5 -99q0 -80 -38 -131.5t-106 -55.5l-19 -29q-5 -6 -5 -16q0 -12 16 -12q31 -1 54 -29t23 -66q0 -43 -28 -70t-69 -27q-31 0 -50 18.5t-19 43.5q0 4 2.5 7t5.5 3q2 0 4.5 -3t2.5 -7q1 -19 13 -30.5t34 -11.5
q23 0 31.5 23t8.5 52q0 34 -11.5 53t-34.5 19q-16 0 -32 -15q-1 -2 -5 -2t-6 3.5t2 7.5l65 88q-25 2 -42.5 10.5t-37.5 22.5q-6 5 -12 9t-11 4q-10 0 -16.5 -12t-6.5 -26q0 -8 -7 -8h-1q-7 0 -7 8v266q0 8 7 8h1q7 0 7 -8q0 -64 16 -123.5t45.5 -97.5t68.5 -38
q43 0 60.5 25.5t17.5 85.5q0 42 -15 81.5t-37 72.5t-60 82q-39 50 -61.5 84.5t-38.5 75.5t-16 86q0 80 37.5 120t92.5 40q34 0 54 -9t38 -24q2 -2 10 -7.5t15 -5.5q10 0 13.5 7.5t3.5 20.5q0 8 7 8h1q7 0 7 -8v-206q0 -8 -7 -8h-1q-7 0 -7 8q0 23 -11 73t-38.5 93t-73.5 43
q-32 0 -47.5 -20.5t-15.5 -58.5q0 -52 17 -98.5z" />
    <glyph glyph-name="scedilla" unicode="&#x15f;" horiz-adv-x="327" 
d="M159 -39q-5 -6 -5 -16q0 -12 16 -12q31 -1 54 -29t23 -66q0 -43 -28 -70t-69 -27q-31 0 -50 18.5t-19 43.5q0 4 2.5 7t5.5 3q2 0 4.5 -3t2.5 -7q1 -19 13 -30.5t34 -11.5q23 0 31.5 23t8.5 52q0 34 -11.5 53t-34.5 19q-16 0 -32 -15q-1 -2 -5 -2t-6 3.5t2 7.5l65 88
q-20 1 -33 8t-32 21q-6 5 -12 9t-10 4q-15 0 -14.5 -13.5t0.5 -14.5q0 -9 -7 -9t-7 9v200q0 9 7 9t7 -9q0 -41 14.5 -88t38.5 -79t51 -32q26 0 40 21t14 56q0 42 -21 77t-65 87q-45 52 -68.5 91.5t-23.5 86.5q0 59 30.5 97.5t84.5 38.5q23 0 38.5 -9t31.5 -24q11 -13 18 -13
t9.5 8.5t2.5 24.5q0 8 7 8t7 -8v-153q0 -8 -7 -8t-7 8q0 25 -13.5 61.5t-35 63t-46.5 26.5t-37 -18t-12 -47q0 -51 23 -90.5t68 -90.5q43 -49 64 -83.5t21 -78.5q0 -55 -27 -99t-81 -48z" />
    <glyph glyph-name="Scaron" unicode="&#x160;" horiz-adv-x="417" 
d="M117 1012q-1 2 -1 5q0 5 5 7h2q10 0 67 -159q42 119 58 152q4 7 9 7q4 0 5.5 -3.5t0.5 -8.5q-14 -63 -43 -170q-6 -16 -13 -24t-17 -8q-19 0 -30 32q-29 105 -43 170zM155 565.5q17 -46.5 41.5 -83.5t65.5 -90q54 -70 79.5 -116t25.5 -99q0 -82 -40.5 -134.5
t-111.5 -52.5q-29 0 -48.5 9t-40.5 24q-6 5 -12 9t-11 4q-10 0 -16.5 -12t-6.5 -26q0 -8 -7 -8h-1q-7 0 -7 8v266q0 8 7 8h1q7 0 7 -8q0 -64 16 -123.5t45.5 -97.5t68.5 -38q43 0 60.5 25.5t17.5 85.5q0 42 -15 81.5t-37 72.5t-60 82q-39 50 -61.5 84.5t-38.5 75.5t-16 86
q0 80 37.5 120t92.5 40q34 0 54 -9t38 -24q2 -2 10 -7.5t15 -5.5q10 0 13.5 7.5t3.5 20.5q0 8 7 8h1q7 0 7 -8v-206q0 -8 -7 -8h-1q-7 0 -7 8q0 23 -11 73t-38.5 93t-73.5 43q-32 0 -47.5 -20.5t-15.5 -58.5q0 -52 17 -98.5z" />
    <glyph glyph-name="scaron" unicode="&#x161;" horiz-adv-x="327" 
d="M82 814q-1 2 -1 5q0 5 5 7h2q10 0 67 -159q42 119 58 152q4 7 9 7q4 0 5.5 -3.5t0.5 -8.5q-14 -63 -43 -170q-6 -16 -13 -24t-17 -8q-19 0 -30 32q-29 105 -43 170zM134 389.5q23 -39.5 68 -90.5q43 -49 64 -83.5t21 -78.5q0 -58 -29 -102.5t-88 -44.5q-24 0 -40.5 8
t-33.5 22q-15 12 -22 12q-15 0 -14.5 -13.5t0.5 -14.5q0 -9 -7 -9t-7 9v200q0 9 7 9t7 -9q0 -41 14.5 -88t38.5 -79t51 -32q26 0 40 21t14 56q0 42 -21 77t-65 87q-45 52 -68.5 91.5t-23.5 86.5q0 59 30.5 97.5t84.5 38.5q23 0 38.5 -9t31.5 -24q11 -13 18 -13t9.5 8.5
t2.5 24.5q0 8 7 8t7 -8v-153q0 -8 -7 -8t-7 8q0 25 -13.5 61.5t-35 63t-46.5 26.5t-37 -18t-12 -47q0 -51 23 -90.5z" />
    <glyph glyph-name="Tcaron" unicode="&#x164;" horiz-adv-x="516" 
d="M178 1002q-1 2 -1 5q0 5 5 7h2q10 0 67 -159q42 119 58 152q4 7 9 7q4 0 5.5 -3.5t0.5 -8.5q-14 -63 -43 -170q-6 -16 -13 -24t-17 -8q-19 0 -30 32q-29 105 -43 170zM501 540v-4q0 -6 -4 -9h-1q-3 0 -5.5 2.5t-4.5 6.5q-3 6 -22 57t-58 95.5t-86 44.5h-1q-21 0 -21 -32
v-649q0 -18 11 -27.5t31 -9.5q9 0 9 -7q0 -8 -9 -8h-164q-9 0 -9 8q0 7 9 7q20 0 31 9.5t11 27.5v649q0 32 -21 32h-1q-59 0 -96.5 -56.5t-52 -95.5t-17.5 -45q-5 -10 -11 -9q-5 3 -4 13l53 198q2 4 5.5 7t7.5 3h354q4 0 7.5 -3t5.5 -7z" />
    <glyph glyph-name="tcaron" unicode="&#x165;" horiz-adv-x="265" 
d="M276 779q0 -5 -2 -17q-19 -68 -55 -182q-2 -9 -9 -9q-6 0 -6 12q4 41 13.5 106t14.5 85q2 12 9 19.5t15 7.5q20 0 20 -22zM254.5 74.5q1.5 -4.5 -0.5 -9.5q-12 -32 -30.5 -53.5t-50.5 -21.5q-52 0 -72.5 31.5t-20.5 98.5v415h-62q-8 0 -8 7v1q0 7 8 7h62v113q0 4 3 7t7 3
q33 3 44 24.5t11 55.5q0 8 7 8h1q7 0 7 -8v-203h62q8 0 8 -7v-1q0 -7 -8 -7h-62v-455q0 -37 7 -52t22 -15q17 0 30.5 17.5t19.5 39.5q3 9 9 9q5 0 6.5 -4.5z" />
    <glyph glyph-name="Utilde" unicode="&#x168;" horiz-adv-x="515" 
d="M213 804q0 58 12 80t38 22q9 0 18.5 -4.5t18.5 -9.5q21 -15 36 -15q11 0 15 10.5t4 27.5q0 6 2 9t5 3q7 0 7 -12q0 -58 -12 -80t-38 -22q-15 0 -36 15q-9 5 -18.5 9.5t-18.5 4.5q-11 0 -15 -10.5t-4 -27.5q0 -6 -2 -9t-5 -3q-7 0 -7 12zM124 58q-43 68 -43 196v442
q0 18 -11 27.5t-31 9.5q-9 0 -9 7q0 8 9 8h164q9 0 9 -8q0 -7 -9 -7q-20 0 -31 -9.5t-11 -27.5v-442q0 -122 29 -185.5t102 -63.5q66 0 96.5 62t30.5 187v442q0 18 -11 27.5t-31 9.5q-9 0 -9 7q0 8 9 8h99q9 0 9 -8q0 -7 -9 -7q-20 0 -31 -9.5t-11 -27.5v-442
q0 -102 -17.5 -159.5t-51.5 -81t-89 -23.5q-109 0 -152 68z" />
    <glyph glyph-name="utilde" unicode="&#x169;" horiz-adv-x="429" 
d="M146 606q0 58 12 80t38 22q9 0 18.5 -4.5t18.5 -9.5q21 -15 36 -15q11 0 15 10.5t4 27.5q0 6 2 9t5 3q7 0 7 -12q0 -58 -12 -80t-38 -22q-15 0 -36 15q-9 5 -18.5 9.5t-18.5 4.5q-11 0 -15 -10.5t-4 -27.5q0 -6 -2 -9t-5 -3q-7 0 -7 12zM409 8q0 -8 -9 -8h-112q-4 0 -7 3
t-3 7v38q-26 -58 -96 -58q-66 0 -89 42.5t-22 117.5v348q0 18 -11 27.5t-31 9.5q-9 0 -9 7q0 8 9 8h164q9 0 9 -8q0 -7 -9 -7q-20 0 -31 -9.5t-11 -27.5v-375q0 -59 12.5 -86.5t44.5 -27.5q17 0 33 13.5t26.5 41.5t10.5 69v365q0 18 -11 27.5t-31 9.5q-9 0 -9 7q0 8 9 8h164
q9 0 9 -8q0 -7 -9 -7q-20 0 -31 -9.5t-11 -27.5v-446q0 -18 11 -27.5t31 -9.5q9 0 9 -7z" />
    <glyph glyph-name="Umacron" unicode="&#x16a;" horiz-adv-x="515" 
d="M194 860q-8 0 -8 7v1q0 7 8 7h173q8 0 8 -7v-1q0 -7 -8 -7h-173zM124 58q-43 68 -43 196v442q0 18 -11 27.5t-31 9.5q-9 0 -9 7q0 8 9 8h164q9 0 9 -8q0 -7 -9 -7q-20 0 -31 -9.5t-11 -27.5v-442q0 -122 29 -185.5t102 -63.5q66 0 96.5 62t30.5 187v442q0 18 -11 27.5
t-31 9.5q-9 0 -9 7q0 8 9 8h99q9 0 9 -8q0 -7 -9 -7q-20 0 -31 -9.5t-11 -27.5v-442q0 -102 -17.5 -159.5t-51.5 -81t-89 -23.5q-109 0 -152 68z" />
    <glyph glyph-name="umacron" unicode="&#x16b;" horiz-adv-x="429" 
d="M127 662q-8 0 -8 7v1q0 7 8 7h173q8 0 8 -7v-1q0 -7 -8 -7h-173zM409 8q0 -8 -9 -8h-112q-4 0 -7 3t-3 7v38q-26 -58 -96 -58q-66 0 -89 42.5t-22 117.5v348q0 18 -11 27.5t-31 9.5q-9 0 -9 7q0 8 9 8h164q9 0 9 -8q0 -7 -9 -7q-20 0 -31 -9.5t-11 -27.5v-375
q0 -59 12.5 -86.5t44.5 -27.5q17 0 33 13.5t26.5 41.5t10.5 69v365q0 18 -11 27.5t-31 9.5q-9 0 -9 7q0 8 9 8h164q9 0 9 -8q0 -7 -9 -7q-20 0 -31 -9.5t-11 -27.5v-446q0 -18 11 -27.5t31 -9.5q9 0 9 -7z" />
    <glyph glyph-name="Ubreve" unicode="&#x16c;" horiz-adv-x="515" 
d="M226 835.5q-17 35.5 -17 117.5q0 4 2.5 7t6.5 3t6.5 -3t2.5 -7q0 -48 12.5 -65.5t41.5 -17.5t41.5 17.5t12.5 65.5q0 4 2.5 7t6.5 3t6.5 -3t2.5 -7q0 -82 -17 -117.5t-55 -35.5t-55 35.5zM124 58q-43 68 -43 196v442q0 18 -11 27.5t-31 9.5q-9 0 -9 7q0 8 9 8h164
q9 0 9 -8q0 -7 -9 -7q-20 0 -31 -9.5t-11 -27.5v-442q0 -122 29 -185.5t102 -63.5q66 0 96.5 62t30.5 187v442q0 18 -11 27.5t-31 9.5q-9 0 -9 7q0 8 9 8h99q9 0 9 -8q0 -7 -9 -7q-20 0 -31 -9.5t-11 -27.5v-442q0 -102 -17.5 -159.5t-51.5 -81t-89 -23.5q-109 0 -152 68z
" />
    <glyph glyph-name="ubreve" unicode="&#x16d;" horiz-adv-x="429" 
d="M159 637.5q-17 35.5 -17 117.5q0 4 2.5 7t6.5 3t6.5 -3t2.5 -7q0 -48 12.5 -65.5t41.5 -17.5t41.5 17.5t12.5 65.5q0 4 2.5 7t6.5 3t6.5 -3t2.5 -7q0 -82 -17 -117.5t-55 -35.5t-55 35.5zM409 8q0 -8 -9 -8h-112q-4 0 -7 3t-3 7v38q-26 -58 -96 -58q-66 0 -89 42.5
t-22 117.5v348q0 18 -11 27.5t-31 9.5q-9 0 -9 7q0 8 9 8h164q9 0 9 -8q0 -7 -9 -7q-20 0 -31 -9.5t-11 -27.5v-375q0 -59 12.5 -86.5t44.5 -27.5q17 0 33 13.5t26.5 41.5t10.5 69v365q0 18 -11 27.5t-31 9.5q-9 0 -9 7q0 8 9 8h164q9 0 9 -8q0 -7 -9 -7q-20 0 -31 -9.5
t-11 -27.5v-446q0 -18 11 -27.5t31 -9.5q9 0 9 -7z" />
    <glyph glyph-name="Uring" unicode="&#x16e;" horiz-adv-x="515" 
d="M227.5 826q-20.5 26 -20.5 71t20 70.5t54 25.5q33 0 53.5 -25.5t20.5 -70.5q0 -44 -20.5 -70.5t-53.5 -26.5t-53.5 26zM305 832q9 22 9 65t-9 64.5t-24 21.5q-34 0 -34 -86q0 -87 34 -87q15 0 24 22zM124 58q-43 68 -43 196v442q0 18 -11 27.5t-31 9.5q-9 0 -9 7q0 8 9 8
h164q9 0 9 -8q0 -7 -9 -7q-20 0 -31 -9.5t-11 -27.5v-442q0 -122 29 -185.5t102 -63.5q66 0 96.5 62t30.5 187v442q0 18 -11 27.5t-31 9.5q-9 0 -9 7q0 8 9 8h99q9 0 9 -8q0 -7 -9 -7q-20 0 -31 -9.5t-11 -27.5v-442q0 -102 -17.5 -159.5t-51.5 -81t-89 -23.5
q-109 0 -152 68z" />
    <glyph glyph-name="uring" unicode="&#x16f;" horiz-adv-x="429" 
d="M160.5 628q-20.5 26 -20.5 71t20 70.5t54 25.5q33 0 53.5 -25.5t20.5 -70.5q0 -44 -20.5 -70.5t-53.5 -26.5t-53.5 26zM180 699q0 -87 34 -87q15 0 24 22t9 65t-9 64.5t-24 21.5q-34 0 -34 -86zM409 8q0 -8 -9 -8h-112q-4 0 -7 3t-3 7v38q-26 -58 -96 -58q-66 0 -89 42.5
t-22 117.5v348q0 18 -11 27.5t-31 9.5q-9 0 -9 7q0 8 9 8h164q9 0 9 -8q0 -7 -9 -7q-20 0 -31 -9.5t-11 -27.5v-375q0 -59 12.5 -86.5t44.5 -27.5q17 0 33 13.5t26.5 41.5t10.5 69v365q0 18 -11 27.5t-31 9.5q-9 0 -9 7q0 8 9 8h164q9 0 9 -8q0 -7 -9 -7q-20 0 -31 -9.5
t-11 -27.5v-446q0 -18 11 -27.5t31 -9.5q9 0 9 -7z" />
    <glyph glyph-name="Uhungarumlaut" unicode="&#x170;" horiz-adv-x="515" 
d="M224 815q13 38 38 99t35 80q9 20 26 20q3 0 9 -2q10 -6 10 -16q0 -11 -7 -24q-16 -28 -97 -163q-5 -7 -10 -7q-8 0 -4 13zM314 815q13 38 38 99t35 80q9 20 26 20q3 0 9 -2q10 -6 10 -16q0 -11 -7 -24q-16 -28 -97 -163q-5 -7 -10 -7q-8 0 -4 13zM124 58q-43 68 -43 196
v442q0 18 -11 27.5t-31 9.5q-9 0 -9 7q0 8 9 8h164q9 0 9 -8q0 -7 -9 -7q-20 0 -31 -9.5t-11 -27.5v-442q0 -122 29 -185.5t102 -63.5q66 0 96.5 62t30.5 187v442q0 18 -11 27.5t-31 9.5q-9 0 -9 7q0 8 9 8h99q9 0 9 -8q0 -7 -9 -7q-20 0 -31 -9.5t-11 -27.5v-442
q0 -102 -17.5 -159.5t-51.5 -81t-89 -23.5q-109 0 -152 68z" />
    <glyph glyph-name="uhungarumlaut" unicode="&#x171;" horiz-adv-x="429" 
d="M157 617q13 38 38 99t35 80q9 20 26 20q3 0 9 -2q10 -6 10 -16q0 -11 -7 -24q-16 -28 -97 -163q-5 -7 -10 -7q-8 0 -4 13zM247 617q13 38 38 99t35 80q9 20 26 20q3 0 9 -2q10 -6 10 -16q0 -11 -7 -24q-16 -28 -97 -163q-5 -7 -10 -7q-8 0 -4 13zM409 8q0 -8 -9 -8h-112
q-4 0 -7 3t-3 7v38q-26 -58 -96 -58q-66 0 -89 42.5t-22 117.5v348q0 18 -11 27.5t-31 9.5q-9 0 -9 7q0 8 9 8h164q9 0 9 -8q0 -7 -9 -7q-20 0 -31 -9.5t-11 -27.5v-375q0 -59 12.5 -86.5t44.5 -27.5q17 0 33 13.5t26.5 41.5t10.5 69v365q0 18 -11 27.5t-31 9.5q-9 0 -9 7
q0 8 9 8h164q9 0 9 -8q0 -7 -9 -7q-20 0 -31 -9.5t-11 -27.5v-446q0 -18 11 -27.5t31 -9.5q9 0 9 -7z" />
    <glyph glyph-name="Uogonek" unicode="&#x172;" horiz-adv-x="515" 
d="M485 740q0 -7 -9 -7q-20 0 -31 -9.5t-11 -27.5v-442q0 -100 -16.5 -157t-49 -81t-84.5 -26q-21 -24 -28 -51.5t-7 -60.5q0 -31 9.5 -55.5t27.5 -24.5q12 0 18.5 6.5t17.5 21.5q3 4 6 4q4 0 6.5 -4t-0.5 -8l-10 -15t-20 -19.5t-28 -7.5q-36 0 -59.5 25t-23.5 65
q0 37 19.5 64t56.5 60q-104 2 -146 70t-42 194v442q0 18 -11 27.5t-31 9.5q-9 0 -9 7q0 8 9 8h164q9 0 9 -8q0 -7 -9 -7q-20 0 -31 -9.5t-11 -27.5v-442q0 -122 29 -185.5t102 -63.5q66 0 96.5 62t30.5 187v442q0 18 -11 27.5t-31 9.5q-9 0 -9 7q0 8 9 8h99q9 0 9 -8z" />
    <glyph glyph-name="uogonek" unicode="&#x173;" horiz-adv-x="429" 
d="M409 8q0 -8 -9 -8h-112q-4 0 -7 3t-3 7v38q-24 -54 -88 -58q-21 -24 -28 -51.5t-7 -60.5q0 -31 9.5 -55.5t27.5 -24.5q12 0 18.5 6.5t17.5 21.5q3 4 6 4q4 0 6.5 -4t-0.5 -8l-10 -15t-20 -19.5t-28 -7.5q-36 0 -59.5 25t-23.5 65q0 37 19.5 64t56.5 60q-62 3 -83.5 45
t-20.5 115v348q0 18 -11 27.5t-31 9.5q-9 0 -9 7q0 8 9 8h164q9 0 9 -8q0 -7 -9 -7q-20 0 -31 -9.5t-11 -27.5v-375q0 -59 12.5 -86.5t44.5 -27.5q17 0 33 13.5t26.5 41.5t10.5 69v365q0 18 -11 27.5t-31 9.5q-9 0 -9 7q0 8 9 8h164q9 0 9 -8q0 -7 -9 -7q-20 0 -31 -9.5
t-11 -27.5v-446q0 -18 11 -27.5t31 -9.5q9 0 9 -7z" />
    <glyph glyph-name="Wcircumflex" unicode="&#x174;" horiz-adv-x="771" 
d="M293.5 804.5q-1.5 3.5 -0.5 8.5q14 65 43 170q11 32 30 32q10 0 17 -8t13 -24q29 -107 43 -170q1 -2 1 -5q0 -5 -5 -7h-2q-10 0 -67 159q-42 -119 -58 -152q-4 -7 -9 -7q-4 0 -5.5 3.5zM751 740q0 -7 -9 -7q-20 0 -34.5 -9.5t-18.5 -26.5l-147 -687q-2 -8 -11 -10h-29
q-4 0 -7.5 3t-4.5 7l-103 460l-99 -460q-2 -8 -11 -10h-29q-4 0 -7.5 3t-4.5 7l-154 687q-4 17 -18.5 26.5t-34.5 9.5q-9 0 -9 7q0 8 9 8h166q9 0 9 -8q0 -7 -9 -7q-32 0 -32 -25q0 -7 1 -11l131 -585v-1l84 393l-43 193q-4 17 -18.5 26.5t-34.5 9.5q-9 0 -9 7q0 8 9 8h166
q9 0 9 -8q0 -7 -9 -7q-32 0 -32 -25q0 -7 1 -11l131 -585l125 585q1 4 1 11q0 25 -32 25q-9 0 -9 7q0 8 9 8h99q9 0 9 -8z" />
    <glyph glyph-name="wcircumflex" unicode="&#x175;" horiz-adv-x="635" 
d="M252.5 606.5q-1.5 3.5 -0.5 8.5q14 65 43 170q11 32 30 32q10 0 17 -8t13 -24q29 -107 43 -170q1 -2 1 -5q0 -5 -5 -7h-2q-10 0 -67 159q-42 -119 -58 -152q-4 -7 -9 -7q-4 0 -5.5 3.5zM625 542q0 -7 -9 -7q-20 0 -34.5 -9.5t-18.5 -26.5l-110 -489q-1 -4 -4.5 -7
t-7.5 -3h-32q-4 0 -7.5 3t-4.5 7l-80 373l-84 -373q-1 -4 -4.5 -7t-7.5 -3h-32q-4 0 -7.5 3t-4.5 7l-105 489q-4 17 -18.5 26.5t-34.5 9.5q-9 0 -9 7q0 8 9 8h166q9 0 9 -8q0 -7 -9 -7q-32 0 -32 -25q0 -7 1 -11l84 -396l72 314l-18 82q-4 17 -18.5 26.5t-34.5 9.5
q-9 0 -9 7q0 8 9 8h166q9 0 9 -8q0 -7 -9 -7q-32 0 -32 -25q0 -7 1 -11l84 -396l90 396q1 4 1 11q0 25 -32 25q-9 0 -9 7q0 8 9 8h99q9 0 9 -8z" />
    <glyph glyph-name="Ycircumflex" unicode="&#x176;" horiz-adv-x="452" 
d="M186.5 804.5q-1.5 3.5 -0.5 8.5q14 65 43 170q11 32 30 32q10 0 17 -8t13 -24q29 -107 43 -170q1 -2 1 -5q0 -5 -5 -7h-2q-10 0 -67 159q-42 -119 -58 -152q-4 -7 -9 -7q-4 0 -5.5 3.5zM432 740q0 -7 -9 -7q-20 0 -35 -9.5t-19 -26.5l-89 -377v-268q0 -18 11 -27.5
t31 -9.5q9 0 9 -7q0 -8 -9 -8h-164q-9 0 -9 8q0 7 9 7q20 0 31 9.5t11 27.5v268l-114 378q-5 17 -21 26t-36 9q-9 0 -9 7q0 8 9 8h170q9 0 9 -8q0 -7 -9 -7q-29 0 -29 -21q0 -9 2 -14l101 -341l80 340l2 12q0 24 -32 24q-9 0 -9 7q0 8 9 8h100q9 0 9 -8z" />
    <glyph glyph-name="ycircumflex" unicode="&#x177;" horiz-adv-x="396" 
d="M151.5 606.5q-1.5 3.5 -0.5 8.5q14 65 43 170q11 32 30 32q10 0 17 -8t13 -24q29 -107 43 -170q1 -2 1 -5q0 -5 -5 -7h-2q-10 0 -67 159q-42 -119 -58 -152q-4 -7 -9 -7q-4 0 -5.5 3.5zM386 542q0 -7 -9 -7q-20 0 -34 -9.5t-17 -26.5l-131 -708q-7 -40 -37 -64t-71 -24
q-31 0 -54 11.5t-23 33.5q0 21 16 33.5t43 12.5q23 0 55 -12q24 -8 32 -8q21 0 27 31l26 141l-118 553q-4 17 -18.5 26.5t-34.5 9.5q-9 0 -9 7q0 8 9 8h166q9 0 9 -8q0 -7 -9 -7q-32 0 -32 -25q0 -7 1 -11l74 -346l64 346q1 3 1 9q0 27 -34 27q-9 0 -9 7q0 8 9 8h99
q9 0 9 -8z" />
    <glyph glyph-name="Ydieresis" unicode="&#x178;" horiz-adv-x="452" 
d="M165 816.5q-14 16.5 -14 46.5t14 47t33 17t33 -17t14 -47t-14 -46.5t-33 -16.5t-33 16.5zM287 816.5q-14 16.5 -14 46.5t14 47t33 17t33 -17.5t14 -46.5q0 -30 -14 -46.5t-33 -16.5t-33 16.5zM432 740q0 -7 -9 -7q-20 0 -35 -9.5t-19 -26.5l-89 -377v-268q0 -18 11 -27.5
t31 -9.5q9 0 9 -7q0 -8 -9 -8h-164q-9 0 -9 8q0 7 9 7q20 0 31 9.5t11 27.5v268l-114 378q-5 17 -21 26t-36 9q-9 0 -9 7q0 8 9 8h170q9 0 9 -8q0 -7 -9 -7q-29 0 -29 -21q0 -9 2 -14l101 -341l80 340l2 12q0 24 -32 24q-9 0 -9 7q0 8 9 8h100q9 0 9 -8z" />
    <glyph glyph-name="Zdotaccent" unicode="&#x17b;" horiz-adv-x="416" 
d="M201.5 819q-14.5 19 -14.5 49t14.5 49.5t32.5 19.5q19 0 33 -19.5t14 -49.5t-14 -49t-33 -19q-18 0 -32.5 19zM366 213l-27 -203q0 -4 -3.5 -7t-7.5 -3h-246q-4 0 -6 3t-1 7l191 723h-61q-58 0 -88 -55.5t-40.5 -96.5t-12.5 -48q-2 -10 -8 -10q-7 0 -6 12l27 203
q0 4 3.5 7t7.5 3h258q4 0 6 -3t1 -7l-191 -723h49q58 0 88 55.5t40.5 96.5t12.5 48q2 10 8 10q8 0 6 -12z" />
    <glyph glyph-name="zdotaccent" unicode="&#x17c;" horiz-adv-x="338" 
d="M138.5 621q-14.5 19 -14.5 49t14.5 49.5t32.5 19.5q19 0 33 -19.5t14 -49.5t-14 -49t-33 -19q-18 0 -32.5 19zM296 547q2 -3 1 -7l-166 -530h22q60 0 86 36t33 63t8 32q3 10 9 10q8 -1 6 -12l-13 -134v5q-1 -4 -4 -7t-7 -3h-217q-4 0 -6 3t-1 7l166 530h-18
q-60 0 -89.5 -36.5t-39 -63t-11.5 -30.5q-4 -10 -9 -10q-8 0 -5 13l25 127q1 4 4.5 7t7.5 3h212q4 0 6 -3z" />
    <glyph glyph-name="Zcaron" unicode="&#x17d;" horiz-adv-x="416" 
d="M161 1002q-1 2 -1 5q0 5 5 7h2q10 0 67 -159q42 119 58 152q4 7 9 7q4 0 5.5 -3.5t0.5 -8.5q-14 -63 -43 -170q-6 -16 -13 -24t-17 -8q-19 0 -30 32q-29 105 -43 170zM366 213l-27 -203q0 -4 -3.5 -7t-7.5 -3h-246q-4 0 -6 3t-1 7l191 723h-61q-58 0 -88 -55.5
t-40.5 -96.5t-12.5 -48q-2 -10 -8 -10q-7 0 -6 12l27 203q0 4 3.5 7t7.5 3h258q4 0 6 -3t1 -7l-191 -723h49q58 0 88 55.5t40.5 96.5t12.5 48q2 10 8 10q8 0 6 -12z" />
    <glyph glyph-name="zcaron" unicode="&#x17e;" horiz-adv-x="338" 
d="M98 804q-1 2 -1 5q0 5 5 7h2q10 0 67 -159q42 119 58 152q4 7 9 7q4 0 5.5 -3.5t0.5 -8.5q-14 -63 -43 -170q-6 -16 -13 -24t-17 -8q-19 0 -30 32q-29 105 -43 170zM296 547q2 -3 1 -7l-166 -530h22q60 0 86 36t33 63t8 32q3 10 9 10q8 -1 6 -12l-13 -134v5q-1 -4 -4 -7
t-7 -3h-217q-4 0 -6 3t-1 7l166 530h-18q-60 0 -89.5 -36.5t-39 -63t-11.5 -30.5q-4 -10 -9 -10q-8 0 -5 13l25 127q1 4 4.5 7t7.5 3h212q4 0 6 -3z" />
    <glyph glyph-name="uni0228" unicode="&#x228;" horiz-adv-x="439" 
d="M404 208l-53 -198q-2 -4 -5.5 -7t-7.5 -3h-96l-20 -30q-5 -6 -5 -16q0 -12 16 -12q31 -1 54 -29t23 -66q0 -43 -28 -70t-69 -27q-31 0 -50 18.5t-19 43.5q0 4 2.5 7t5.5 3q2 0 4.5 -3t2.5 -7q1 -19 13 -30.5t34 -11.5q23 0 31.5 23t8.5 52q0 34 -11.5 53t-34.5 19
q-15 0 -32 -15q-1 -2 -5 -2t-6 3.5t2 7.5l66 89h-176q-9 0 -9 8q0 7 9 7q20 0 31 9.5t11 27.5v644q0 18 -11 27.5t-31 9.5q-9 0 -9 7q0 8 9 8h289q4 0 7.5 -3t5.5 -7l53 -198v-4q0 -6 -4 -9h-1q-3 0 -5.5 2.5t-4.5 6.5q-3 6 -22 57t-58 95.5t-86 44.5h-31q-21 0 -21 -32
v-314q45 1 68 25.5t27.5 41.5t13.5 63q2 11 8 11q7 0 7 -11v-275q0 -11 -7 -11q-6 0 -8 11q-1 4 -6 38.5t-31.5 62.5t-71.5 29v-325q0 -32 21 -32h31q59 0 96.5 56.5t52 95.5t17.5 45q5 10 11 9q5 -3 4 -13z" />
    <glyph glyph-name="uni0229" unicode="&#x229;" horiz-adv-x="386" 
d="M337 102l-2 -8q-14 -33 -27 -54t-37 -35.5t-61 -14.5q-85 0 -127.5 76.5t-42.5 209.5q0 128 37.5 206t114.5 78q154 0 154 -284h-216q0 -122 19 -196t73 -74q38 0 60.5 26t40.5 72q1 4 4.5 5.5t6.5 -0.5q3 -3 3 -7zM141.5 479q-11.5 -66 -11.5 -188h126
q0 119 -12.5 186.5t-51.5 67.5t-50.5 -66zM202 -10h17l-20 -30q-5 -6 -5 -16q0 -12 16 -12q31 -1 54 -29t23 -66q0 -43 -28 -70t-69 -27q-31 0 -50 18.5t-19 43.5q0 4 2.5 7t5.5 3q2 0 4.5 -3t2.5 -7q1 -19 13 -30.5t34 -11.5q23 0 31.5 23t8.5 52q0 34 -11.5 53t-34.5 19
q-15 0 -32 -15q-1 -2 -5 -2t-6 3.5t2 7.5z" />
    <glyph glyph-name="uni0237" unicode="&#x237;" horiz-adv-x="269" 
d="M15.5 -264q-29.5 36 -29.5 91q0 33 13 53t35 20q19 0 30.5 -13.5t11.5 -39.5q0 -14 -4.5 -23t-12.5 -19q-9 -12 -14 -23t-5 -28t11.5 -27t28.5 -10q39 0 39 86v695q0 18 -11 27.5t-31 9.5q-9 0 -9 7q0 8 9 8h112q4 0 7 -3t3 -7v-675q0 -85 -23.5 -125t-79.5 -40
q-51 0 -80.5 36z" />
    <glyph glyph-name="circumflex" unicode="&#x2c6;" horiz-adv-x="228" 
d="M188 808q0 -5 -5 -7h-2q-10 0 -67 159q-42 -119 -58 -152q-4 -7 -9 -7q-4 0 -5.5 3.5t-0.5 8.5q14 65 43 170q11 32 30 32q10 0 17 -8t13 -24q29 -107 43 -170q1 -2 1 -5z" />
    <glyph glyph-name="caron" unicode="&#x2c7;" horiz-adv-x="228" 
d="M186.5 1010.5q1.5 -3.5 0.5 -8.5q-14 -63 -43 -170q-6 -16 -13 -24t-17 -8q-19 0 -30 32q-29 105 -43 170q-1 2 -1 5q0 5 5 7h2q10 0 67 -159q42 119 58 152q4 7 9 7q4 0 5.5 -3.5z" />
    <glyph glyph-name="breve" unicode="&#x2d8;" horiz-adv-x="204" 
d="M47 835.5q-17 35.5 -17 117.5q0 4 2.5 7t6.5 3t6.5 -3t2.5 -7q0 -48 12.5 -65.5t41.5 -17.5t41.5 17.5t12.5 65.5q0 4 2.5 7t6.5 3t6.5 -3t2.5 -7q0 -82 -17 -117.5t-55 -35.5t-55 35.5z" />
    <glyph glyph-name="dotaccent" unicode="&#x2d9;" horiz-adv-x="134" 
d="M34.5 819q-14.5 19 -14.5 49t14.5 49.5t32.5 19.5q19 0 33 -19.5t14 -49.5t-14 -49t-33 -19q-18 0 -32.5 19z" />
    <glyph glyph-name="ring" unicode="&#x2da;" horiz-adv-x="256" 
d="M74.5 826q-20.5 26 -20.5 71t20 70.5t54 25.5q33 0 53.5 -25.5t20.5 -70.5q0 -44 -20.5 -70.5t-53.5 -26.5t-53.5 26zM152 832q9 22 9 65t-9 64.5t-24 21.5q-34 0 -34 -86q0 -87 34 -87q15 0 24 22z" />
    <glyph glyph-name="ogonek" unicode="&#x2db;" horiz-adv-x="182" 
d="M43.5 -190q-23.5 25 -23.5 65q0 38 20 65t57 60h15q-22 -24 -29 -51.5t-7 -61.5q0 -31 9.5 -55.5t27.5 -24.5q12 0 18.5 6.5t17.5 21.5q3 4 6 4q4 0 6.5 -4t-0.5 -8l-10 -15t-20 -19.5t-28 -7.5q-36 0 -59.5 25z" />
    <glyph glyph-name="tilde" unicode="&#x2dc;" horiz-adv-x="282" 
d="M63 804q0 58 12 80t38 22q9 0 18.5 -4.5t18.5 -9.5q21 -15 36 -15q11 0 15 10.5t4 27.5q0 6 2 9t5 3q7 0 7 -12q0 -58 -12 -80t-38 -22q-15 0 -36 15q-9 5 -18.5 9.5t-18.5 4.5q-11 0 -15 -10.5t-4 -27.5q0 -6 -2 -9t-5 -3q-7 0 -7 12z" />
    <glyph glyph-name="hungarumlaut" unicode="&#x2dd;" horiz-adv-x="249" 
d="M21 815q13 38 38 99t35 80q9 20 26 20q3 0 9 -2q10 -6 10 -16q0 -11 -7 -24q-16 -28 -97 -163q-5 -7 -10 -7q-8 0 -4 13zM111 815q13 38 38 99t35 80q9 20 26 20q3 0 9 -2q10 -6 10 -16q0 -11 -7 -24q-16 -28 -97 -163q-5 -7 -10 -7q-8 0 -4 13z" />
    <glyph glyph-name="Wgrave" unicode="&#x1e80;" horiz-adv-x="771" 
d="M257 972q-7 13 -7 24q0 10 10 16q6 2 9 2q17 0 26 -20q10 -19 35 -80t38 -99q3 -10 -2 -13h-2q-5 0 -10 7q-81 135 -97 163zM751 740q0 -7 -9 -7q-20 0 -34.5 -9.5t-18.5 -26.5l-147 -687q-2 -8 -11 -10h-29q-4 0 -7.5 3t-4.5 7l-103 460l-99 -460q-2 -8 -11 -10h-29
q-4 0 -7.5 3t-4.5 7l-154 687q-4 17 -18.5 26.5t-34.5 9.5q-9 0 -9 7q0 8 9 8h166q9 0 9 -8q0 -7 -9 -7q-32 0 -32 -25q0 -7 1 -11l131 -585v-1l84 393l-43 193q-4 17 -18.5 26.5t-34.5 9.5q-9 0 -9 7q0 8 9 8h166q9 0 9 -8q0 -7 -9 -7q-32 0 -32 -25q0 -7 1 -11l131 -585
l125 585q1 4 1 11q0 25 -32 25q-9 0 -9 7q0 8 9 8h99q9 0 9 -8z" />
    <glyph glyph-name="wgrave" unicode="&#x1e81;" horiz-adv-x="635" 
d="M216 774q-7 13 -7 24q0 10 10 16q6 2 9 2q17 0 26 -20q10 -19 35 -80t38 -99q3 -10 -2 -13h-2q-5 0 -10 7q-81 135 -97 163zM625 542q0 -7 -9 -7q-20 0 -34.5 -9.5t-18.5 -26.5l-110 -489q-1 -4 -4.5 -7t-7.5 -3h-32q-4 0 -7.5 3t-4.5 7l-80 373l-84 -373q-1 -4 -4.5 -7
t-7.5 -3h-32q-4 0 -7.5 3t-4.5 7l-105 489q-4 17 -18.5 26.5t-34.5 9.5q-9 0 -9 7q0 8 9 8h166q9 0 9 -8q0 -7 -9 -7q-32 0 -32 -25q0 -7 1 -11l84 -396l72 314l-18 82q-4 17 -18.5 26.5t-34.5 9.5q-9 0 -9 7q0 8 9 8h166q9 0 9 -8q0 -7 -9 -7q-32 0 -32 -25q0 -7 1 -11
l84 -396l90 396q1 4 1 11q0 25 -32 25q-9 0 -9 7q0 8 9 8h99q9 0 9 -8z" />
    <glyph glyph-name="Wacute" unicode="&#x1e82;" horiz-adv-x="771" 
d="M364 815q13 38 38 99t35 80q9 20 26 20q3 0 9 -2q10 -6 10 -16q0 -11 -7 -24q-16 -28 -97 -163q-5 -7 -10 -7q-8 0 -4 13zM751 740q0 -7 -9 -7q-20 0 -34.5 -9.5t-18.5 -26.5l-147 -687q-2 -8 -11 -10h-29q-4 0 -7.5 3t-4.5 7l-103 460l-99 -460q-2 -8 -11 -10h-29
q-4 0 -7.5 3t-4.5 7l-154 687q-4 17 -18.5 26.5t-34.5 9.5q-9 0 -9 7q0 8 9 8h166q9 0 9 -8q0 -7 -9 -7q-32 0 -32 -25q0 -7 1 -11l131 -585v-1l84 393l-43 193q-4 17 -18.5 26.5t-34.5 9.5q-9 0 -9 7q0 8 9 8h166q9 0 9 -8q0 -7 -9 -7q-32 0 -32 -25q0 -7 1 -11l131 -585
l125 585q1 4 1 11q0 25 -32 25q-9 0 -9 7q0 8 9 8h99q9 0 9 -8z" />
    <glyph glyph-name="wacute" unicode="&#x1e83;" horiz-adv-x="635" 
d="M323 617q13 38 38 99t35 80q9 20 26 20q3 0 9 -2q10 -6 10 -16q0 -11 -7 -24q-16 -28 -97 -163q-5 -7 -10 -7q-8 0 -4 13zM625 542q0 -7 -9 -7q-20 0 -34.5 -9.5t-18.5 -26.5l-110 -489q-1 -4 -4.5 -7t-7.5 -3h-32q-4 0 -7.5 3t-4.5 7l-80 373l-84 -373q-1 -4 -4.5 -7
t-7.5 -3h-32q-4 0 -7.5 3t-4.5 7l-105 489q-4 17 -18.5 26.5t-34.5 9.5q-9 0 -9 7q0 8 9 8h166q9 0 9 -8q0 -7 -9 -7q-32 0 -32 -25q0 -7 1 -11l84 -396l72 314l-18 82q-4 17 -18.5 26.5t-34.5 9.5q-9 0 -9 7q0 8 9 8h166q9 0 9 -8q0 -7 -9 -7q-32 0 -32 -25q0 -7 1 -11
l84 -396l90 396q1 4 1 11q0 25 -32 25q-9 0 -9 7q0 8 9 8h99q9 0 9 -8z" />
    <glyph glyph-name="Wdieresis" unicode="&#x1e84;" horiz-adv-x="771" 
d="M272 816.5q-14 16.5 -14 46.5t14 47t33 17t33 -17t14 -47t-14 -46.5t-33 -16.5t-33 16.5zM394 816.5q-14 16.5 -14 46.5t14 47t33 17t33 -17.5t14 -46.5q0 -30 -14 -46.5t-33 -16.5t-33 16.5zM751 740q0 -7 -9 -7q-20 0 -34.5 -9.5t-18.5 -26.5l-147 -687q-2 -8 -11 -10
h-29q-4 0 -7.5 3t-4.5 7l-103 460l-99 -460q-2 -8 -11 -10h-29q-4 0 -7.5 3t-4.5 7l-154 687q-4 17 -18.5 26.5t-34.5 9.5q-9 0 -9 7q0 8 9 8h166q9 0 9 -8q0 -7 -9 -7q-32 0 -32 -25q0 -7 1 -11l131 -585v-1l84 393l-43 193q-4 17 -18.5 26.5t-34.5 9.5q-9 0 -9 7q0 8 9 8
h166q9 0 9 -8q0 -7 -9 -7q-32 0 -32 -25q0 -7 1 -11l131 -585l125 585q1 4 1 11q0 25 -32 25q-9 0 -9 7q0 8 9 8h99q9 0 9 -8z" />
    <glyph glyph-name="wdieresis" unicode="&#x1e85;" horiz-adv-x="635" 
d="M231 618.5q-14 16.5 -14 46.5t14 47t33 17t33 -17t14 -47t-14 -46.5t-33 -16.5t-33 16.5zM353 618.5q-14 16.5 -14 46.5t14 47t33 17t33 -17.5t14 -46.5q0 -30 -14 -46.5t-33 -16.5t-33 16.5zM625 542q0 -7 -9 -7q-20 0 -34.5 -9.5t-18.5 -26.5l-110 -489q-1 -4 -4.5 -7
t-7.5 -3h-32q-4 0 -7.5 3t-4.5 7l-80 373l-84 -373q-1 -4 -4.5 -7t-7.5 -3h-32q-4 0 -7.5 3t-4.5 7l-105 489q-4 17 -18.5 26.5t-34.5 9.5q-9 0 -9 7q0 8 9 8h166q9 0 9 -8q0 -7 -9 -7q-32 0 -32 -25q0 -7 1 -11l84 -396l72 314l-18 82q-4 17 -18.5 26.5t-34.5 9.5
q-9 0 -9 7q0 8 9 8h166q9 0 9 -8q0 -7 -9 -7q-32 0 -32 -25q0 -7 1 -11l84 -396l90 396q1 4 1 11q0 25 -32 25q-9 0 -9 7q0 8 9 8h99q9 0 9 -8z" />
    <glyph glyph-name="Ygrave" unicode="&#x1ef2;" horiz-adv-x="452" 
d="M150 972q-7 13 -7 24q0 10 10 16q6 2 9 2q17 0 26 -20q10 -19 35 -80t38 -99q3 -10 -2 -13h-2q-5 0 -10 7q-81 135 -97 163zM432 740q0 -7 -9 -7q-20 0 -35 -9.5t-19 -26.5l-89 -377v-268q0 -18 11 -27.5t31 -9.5q9 0 9 -7q0 -8 -9 -8h-164q-9 0 -9 8q0 7 9 7
q20 0 31 9.5t11 27.5v268l-114 378q-5 17 -21 26t-36 9q-9 0 -9 7q0 8 9 8h170q9 0 9 -8q0 -7 -9 -7q-29 0 -29 -21q0 -9 2 -14l101 -341l80 340l2 12q0 24 -32 24q-9 0 -9 7q0 8 9 8h100q9 0 9 -8z" />
    <glyph glyph-name="ygrave" unicode="&#x1ef3;" horiz-adv-x="396" 
d="M115 774q-7 13 -7 24q0 10 10 16q6 2 9 2q17 0 26 -20q10 -19 35 -80t38 -99q3 -10 -2 -13h-2q-5 0 -10 7q-81 135 -97 163zM386 542q0 -7 -9 -7q-20 0 -34 -9.5t-17 -26.5l-131 -708q-7 -40 -37 -64t-71 -24q-31 0 -54 11.5t-23 33.5q0 21 16 33.5t43 12.5q23 0 55 -12
q24 -8 32 -8q21 0 27 31l26 141l-118 553q-4 17 -18.5 26.5t-34.5 9.5q-9 0 -9 7q0 8 9 8h166q9 0 9 -8q0 -7 -9 -7q-32 0 -32 -25q0 -7 1 -11l74 -346l64 346q1 3 1 9q0 27 -34 27q-9 0 -9 7q0 8 9 8h99q9 0 9 -8z" />
    <glyph glyph-name="endash" unicode="&#x2013;" horiz-adv-x="312" 
d="M28 345q-8 0 -8 7v1q0 7 8 7h256q8 0 8 -7v-1q0 -7 -8 -7h-256z" />
    <glyph glyph-name="emdash" unicode="&#x2014;" horiz-adv-x="584" 
d="M28 345q-8 0 -8 7v1q0 7 8 7h528q8 0 8 -7v-1q0 -7 -8 -7h-528z" />
    <glyph glyph-name="quoteleft" unicode="&#x2018;" horiz-adv-x="170" 
d="M106.5 759.5q1.5 -4.5 -1.5 -7.5q-21 -31 -29 -52t-15 -53q-1 -5 -1 -7.5t2 -2.5q3 0 10.5 2t17.5 2q22 0 36 -21.5t14 -48.5t-14 -49t-36 -22t-36 25.5t-14 60.5q0 44 11 85.5t41 88.5q2 4 7 4q6 0 7.5 -4.5z" />
    <glyph glyph-name="quoteright" unicode="&#x2019;" horiz-adv-x="180" 
d="M63.5 504.5q-1.5 4.5 1.5 7.5q21 31 29 52t15 53q1 5 1 7.5t-2 2.5q-3 0 -10.5 -2t-17.5 -2q-22 0 -36 21.5t-14 48.5t14 49t36 22t36 -25.5t14 -60.5q0 -44 -11 -85.5t-41 -88.5q-2 -4 -7 -4q-6 0 -7.5 4.5z" />
    <glyph glyph-name="quotesinglbase" unicode="&#x201a;" horiz-adv-x="170" 
d="M63.5 -128.5q-1.5 4.5 1.5 7.5q21 31 29 52t15 53q1 5 1 7.5t-2 2.5q-3 0 -10.5 -2t-17.5 -2q-22 0 -36 21.5t-14 48.5t14 49t36 22t36 -25.5t14 -60.5q0 -44 -11 -85.5t-41 -88.5q-2 -4 -7 -4q-6 0 -7.5 4.5z" />
    <glyph glyph-name="quotedblleft" unicode="&#x201c;" horiz-adv-x="330" 
d="M106.5 759.5q1.5 -4.5 -1.5 -7.5q-21 -31 -29 -52t-15 -53q-1 -5 -1 -7.5t2 -2.5q3 0 10.5 2t17.5 2q22 0 36 -21.5t14 -48.5t-14 -49t-36 -22t-36 25.5t-14 60.5q0 44 11 85.5t41 88.5q2 4 7 4q6 0 7.5 -4.5zM236.5 759.5q1.5 -4.5 -1.5 -7.5q-21 -31 -29 -52t-15 -53
q-1 -5 -1 -7.5t2 -2.5q3 0 10.5 2t17.5 2q22 0 36 -21.5t14 -48.5t-14 -49t-36 -22t-36 25.5t-14 60.5q0 44 11 85.5t41 88.5q2 4 7 4q6 0 7.5 -4.5z" />
    <glyph glyph-name="quotedblright" unicode="&#x201d;" horiz-adv-x="330" 
d="M63.5 504.5q-1.5 4.5 1.5 7.5q21 31 29 52t15 53q1 5 1 7.5t-2 2.5q-3 0 -10.5 -2t-17.5 -2q-22 0 -36 21.5t-14 48.5t14 49t36 22t36 -25.5t14 -60.5q0 -44 -11 -85.5t-41 -88.5q-2 -4 -7 -4q-6 0 -7.5 4.5zM193.5 504.5q-1.5 4.5 1.5 7.5q21 31 29 52t15 53q1 5 1 7.5
t-2 2.5q-3 0 -10.5 -2t-17.5 -2q-22 0 -36 21.5t-14 48.5t14 49t36 22t36 -25.5t14 -60.5q0 -44 -11 -85.5t-41 -88.5q-2 -4 -7 -4q-6 0 -7.5 4.5z" />
    <glyph glyph-name="quotedblbase" unicode="&#x201e;" horiz-adv-x="330" 
d="M63.5 -128.5q-1.5 4.5 1.5 7.5q21 31 29 52t15 53q1 5 1 7.5t-2 2.5q-3 0 -10.5 -2t-17.5 -2q-22 0 -36 21.5t-14 48.5t14 49t36 22t36 -25.5t14 -60.5q0 -44 -11 -85.5t-41 -88.5q-2 -4 -7 -4q-6 0 -7.5 4.5zM193.5 -128.5q-1.5 4.5 1.5 7.5q21 31 29 52t15 53
q1 5 1 7.5t-2 2.5q-3 0 -10.5 -2t-17.5 -2q-22 0 -36 21.5t-14 48.5t14 49t36 22t36 -25.5t14 -60.5q0 -44 -11 -85.5t-41 -88.5q-2 -4 -7 -4q-6 0 -7.5 4.5z" />
    <glyph glyph-name="dagger" unicode="&#x2020;" horiz-adv-x="477" 
d="M439.5 568.5q17.5 -18.5 17.5 -40.5t-17.5 -40.5t-48.5 -18.5q-16 0 -29 7.5t-30 21.5q-15 13 -23.5 18.5t-19.5 5.5q-17 0 -30 -13t-13 -30q0 -37 20.5 -64t51.5 -55q3 -3 3 -7t-3 -7q-12 -18 -28.5 -69.5t-30 -138.5t-13.5 -202q0 -8 -7 -8h-1q-7 0 -7 8
q0 115 -13.5 202.5t-30 139t-28.5 68.5q-3 3 -3 7t3 7t23.5 22t34.5 45t14 52q0 17 -13 30t-30 13q-15 0 -25.5 -6.5t-24.5 -19.5q-15 -14 -26 -20.5t-26 -6.5q-31 0 -48.5 18.5t-17.5 40.5t17.5 40.5t48.5 18.5q15 0 26.5 -6.5t25.5 -18.5q15 -13 25.5 -19t24.5 -6
q18 0 30.5 14.5t12.5 38.5q-1 17 -7.5 30.5t-19.5 32.5q-13 20 -19.5 32t-6.5 27q0 31 18.5 48.5t40.5 17.5t40.5 -17.5t18.5 -48.5q0 -15 -6 -27t-18 -32q-12 -18 -18.5 -32t-7.5 -31q0 -24 12.5 -38.5t30.5 -14.5q10 0 18.5 4.5t16 10t9.5 7.5q15 13 28.5 20.5t29.5 7.5
q31 0 48.5 -18.5z" />
    <glyph glyph-name="daggerdbl" unicode="&#x2021;" horiz-adv-x="477" 
d="M439.5 218.5q17.5 -18.5 17.5 -40.5t-17.5 -40.5t-48.5 -18.5q-16 0 -29.5 7.5t-28.5 20.5q-2 2 -11.5 8.5t-17.5 10t-15 3.5q-18 0 -30.5 -14.5t-12.5 -38.5q1 -17 7.5 -31t18.5 -32q12 -20 18 -32t6 -27q0 -31 -18.5 -48.5t-40.5 -17.5t-40.5 17.5t-18.5 48.5
q0 15 6.5 27t19.5 32q13 19 19.5 32.5t7.5 30.5q0 24 -12.5 38.5t-30.5 14.5q-14 0 -24.5 -6t-25.5 -19q-14 -12 -25.5 -18.5t-26.5 -6.5q-31 0 -48.5 18.5t-17.5 40.5t17.5 40.5t48.5 18.5q15 0 26 -6.5t26 -20.5q14 -13 24.5 -19.5t25.5 -6.5q17 0 30 13t13 30
q0 26 -12 48.5t-23.5 34.5t-36.5 36q-3 3 -3 7t3 7t23.5 22t34.5 45t14 52q0 17 -13 30t-30 13q-15 0 -25.5 -6.5t-24.5 -19.5q-15 -14 -26 -20.5t-26 -6.5q-31 0 -48.5 18.5t-17.5 40.5t17.5 40.5t48.5 18.5q15 0 26.5 -6.5t25.5 -18.5q15 -13 25.5 -19t24.5 -6
q18 0 30.5 14.5t12.5 38.5q-1 17 -7.5 30.5t-19.5 32.5q-13 20 -19.5 32t-6.5 27q0 31 18.5 48.5t40.5 17.5t40.5 -17.5t18.5 -48.5q0 -15 -6 -27t-18 -32q-12 -18 -18.5 -32t-7.5 -31q0 -24 12.5 -38.5t30.5 -14.5q10 0 18.5 4.5t16 10t9.5 7.5q15 13 28.5 20.5t29.5 7.5
q31 0 48.5 -18.5t17.5 -40.5t-17.5 -40.5t-48.5 -18.5q-16 0 -29 7.5t-30 21.5q-15 13 -23.5 18.5t-19.5 5.5q-17 0 -30 -13t-13 -30q0 -37 20.5 -64t51.5 -55q3 -3 3 -7t-3 -7q-31 -28 -51.5 -55t-20.5 -64q0 -17 13 -30t30 -13q11 0 19.5 5.5t23.5 18.5q17 14 30 21.5
t29 7.5q31 0 48.5 -18.5z" />
    <glyph glyph-name="bullet" unicode="&#x2022;" horiz-adv-x="140" 
d="M102 362q13 -20 13 -50t-13 -50.5t-32 -20.5t-32 20.5t-13 50.5t13 50t32 20t32 -20z" />
    <glyph glyph-name="ellipsis" unicode="&#x2026;" horiz-adv-x="420" 
d="M38 10q-13 20 -13 50t13 50.5t32 20.5t32 -20.5t13 -50.5t-13 -50t-32 -20t-32 20zM178 10q-13 20 -13 50t13 50.5t32 20.5t32 -20.5t13 -50.5t-13 -50t-32 -20t-32 20zM318 10q-13 20 -13 50t13 50.5t32 20.5t32 -20.5t13 -50.5t-13 -50t-32 -20t-32 20z" />
    <glyph glyph-name="guilsinglleft" unicode="&#x2039;" horiz-adv-x="183" 
d="M143 52l-109 229q-4 14 -4 20q0 8 4 20l111 229q6 11 12 11q9 0 6 -13q-20 -70 -73 -247q53 -176 73 -246v-5q0 -9 -6 -9q-8 0 -14 11z" />
    <glyph glyph-name="guilsinglright" unicode="&#x203a;" horiz-adv-x="183" 
d="M31 45.5q-1 4.5 0 9.5q20 70 73 246q-53 177 -73 247v5q0 8 6 8q7 0 12 -11l111 -229q4 -8 4 -20q0 -11 -4 -20l-109 -229q-5 -11 -14 -11q-5 0 -6 4.5z" />
    <glyph glyph-name="Euro" unicode="&#x20ac;" horiz-adv-x="567" 
d="M215.5 655.5q-31.5 -87.5 -34.5 -235.5h133q8 0 8 -7v-1q0 -7 -8 -7h-134v-31q0 -50 1 -74h133q8 0 8 -7v-1q0 -7 -8 -7h-132q7 -129 38.5 -204.5t99.5 -75.5q72 0 106.5 69t34.5 190q0 8 7 8h1q7 0 7 -8v-266q0 -8 -7 -8h-1q-7 0 -7 8q0 30 -2.5 39t-10.5 9q-6 0 -13 -4
t-11.5 -7.5t-6.5 -5.5q-20 -18 -41.5 -28.5t-55.5 -10.5q-101 0 -156.5 82t-69.5 213h-66q-8 0 -8 7v1q0 7 8 7h65q-3 36 -3 74q0 21 1 31h-63q-8 0 -8 7v1q0 7 8 7h63q8 147 63.5 242.5t165.5 95.5q38 0 60 -11.5t42 -30.5q6 -6 11.5 -10t10.5 -4q10 0 13.5 10.5t3.5 37.5
q0 8 7 8h1q7 0 7 -8v-196q0 -8 -7 -8h-1q-7 0 -7 8q0 40 -15.5 84t-47 74.5t-78.5 30.5q-73 0 -104.5 -87.5z" />
    <glyph glyph-name="trademark" unicode="&#x2122;" horiz-adv-x="430" 
d="M171 742v-68q0 -4 -4 -4t-4 4q0 20 -6.5 43t-29.5 23h-8q-7 0 -7 -10v-204q0 -16 17 -20q2 0 3 -1t1 -2q0 -3 -4 -3h-67q-4 0 -4 3q0 1 1 2t3 1q17 4 17 20v204q0 10 -7 10h-10q-22 0 -28 -22.5t-6 -43.5q0 -4 -4 -4t-4 4v68q0 6 6 6h139q6 0 6 -6zM414 503q0 -3 -4 -3
h-67q-3 0 -3 3t3 3q9 2 13 6t4 14l-2 189l-56 -215h-36l-57 228l-1 3v-205q0 -10 4.5 -14t12.5 -6q2 0 3 -1t1 -2q0 -3 -4 -3h-43q-3 0 -3 3t3 3q9 2 13 6t4 14v196q0 10 -4 14t-13 5q-3 0 -3 4q0 3 3 3h55l60 -233l61 233h52q4 0 4 -3q0 -4 -4 -4q-8 -1 -12 -5t-4 -14v-196
q0 -10 4 -14t12 -6q4 0 4 -3z" />
    <glyph glyph-name="product" unicode="&#x220f;" horiz-adv-x="442" 
d="M422 8q0 -8 -9 -8h-164q-9 0 -9 8q0 7 9 7q20 0 31 9.5t11 27.5v649q0 32 -21 32h-98q-21 0 -21 -32v-649q0 -18 11 -27.5t31 -9.5q9 0 9 -7q0 -8 -9 -8h-164q-9 0 -9 8q0 7 9 7q20 0 31 9.5t11 27.5v644q0 18 -11 27.5t-31 9.5q-9 0 -9 7q0 8 9 8h384q9 0 9 -8
q0 -7 -9 -7q-20 0 -31 -9.5t-11 -27.5v-644q0 -18 11 -27.5t31 -9.5q9 0 9 -7z" />
    <glyph glyph-name="minus" unicode="&#x2212;" 
d="M28 345q-8 0 -8 7v1q0 7 8 7h206q8 0 8 -7v-1q0 -7 -8 -7h-206z" />
    <glyph glyph-name="notequal" unicode="&#x2260;" horiz-adv-x="252" 
d="M149 405l-29 -105h104q8 0 8 -7v-1q0 -7 -8 -7h-108l-29 -109q-1 -6 -9 -6h-1q-3 0 -4.5 3t-0.5 7l28 105h-72q-8 0 -8 7v1q0 7 8 7h76l29 105h-105q-8 0 -8 7v1q0 7 8 7h109l30 113q1 6 9 6h1q3 0 4.5 -3t0.5 -7l-29 -109h71q8 0 8 -7v-1q0 -7 -8 -7h-75z" />
    <glyph glyph-name="lessequal" unicode="&#x2264;" horiz-adv-x="208" 
d="M53 337q-2 4 -2 5t2 5l92 131q2 3 5.5 3t5.5 -2q5 -5 1 -11l-88 -126l88 -126q4 -6 -1 -11q-2 -2 -5.5 -2t-5.5 3zM151 148q8 0 8 -7v-1q0 -7 -8 -7h-92q-8 0 -8 7v1q0 7 8 7h92z" />
    <glyph glyph-name="greaterequal" unicode="&#x2265;" horiz-adv-x="208" 
d="M52 216l88 126l-88 126q-4 6 1 11q2 2 5.5 2t5.5 -3l92 -131q2 -4 2 -5t-2 -5l-92 -131q-2 -3 -5.5 -3t-5.5 2q-5 5 -1 11zM150 148q8 0 8 -7v-1q0 -7 -8 -7h-92q-8 0 -8 7v1q0 7 8 7h92z" />
    <glyph glyph-name="A.ss01" unicode="&#xe001;" horiz-adv-x="467" 
d="M552 -169q0 -13 -14 -25.5t-38 -12.5q-52 0 -91 33t-50 92l-52 273h-170l-30 -140q-1 -4 -1 -11q0 -25 32 -25q9 0 9 -7q0 -8 -9 -8h-99q-9 0 -9 8q0 7 9 7q20 0 34.5 9.5t18.5 26.5l147 687q2 8 11 10h19q4 0 7.5 -3t4.5 -7l161 -851q9 -42 26 -62t38 -20q13 0 18 6
t8 18.5t11 12.5q9 0 9 -11zM227 614l-87 -408h165z" />
    <glyph glyph-name="B.ss01" unicode="&#xe002;" horiz-adv-x="657" 
d="M517.5 378.5q42.5 -41.5 71 -112.5t28.5 -163q0 -103 -40.5 -182t-108.5 -122.5t-148 -43.5q-76 0 -140 35.5t-102 102t-38 155.5q0 69 29 130t75.5 105.5t96.5 65.5v347q0 18 -11 27.5t-31 9.5q-9 0 -9 7q0 8 9 8h157q39 0 77 -15.5t63.5 -53t25.5 -99.5
q0 -118 -89 -151q42 -9 84.5 -50.5zM407.5 701.5q-24.5 31.5 -65.5 31.5q-21 0 -21 -32v-270h6q35 0 56 8t35 40.5t14 100.5q0 90 -24.5 121.5zM433.5 -187q46.5 43 70 118.5t23.5 171.5q0 85 -24.5 157t-61 114t-70.5 42h-50v-364q0 -18 11 -27.5t31 -9.5q9 0 9 -7
q0 -8 -9 -8h-164q-9 0 -9 8q0 7 9 7q20 0 31 9.5t11 27.5v281q-53 -33 -87 -106.5t-34 -168.5q0 -91 28 -156t73.5 -98.5t98.5 -33.5q67 0 113.5 43z" />
    <glyph glyph-name="D.ss01" unicode="&#xe003;" horiz-adv-x="647" 
d="M502 682.5q50 -65.5 77.5 -172.5t27.5 -226q0 -142 -39.5 -263.5t-112.5 -193.5t-170 -72q-63 0 -119 31.5t-91 95.5t-35 156q0 66 27 127.5t70.5 107.5t92.5 70v353q0 18 -11 27.5t-31 9.5q-9 0 -9 7q0 8 9 8h199q65 0 115 -65.5zM464 -94.5q53 135.5 53 378.5
q0 179 -33.5 314t-117.5 135h-35q-21 0 -21 -32v-649q0 -18 11 -27.5t31 -9.5q9 0 9 -7q0 -8 -9 -8h-164q-9 0 -9 8q0 7 9 7q20 0 31 9.5t11 27.5v272q-49 -38 -79.5 -111.5t-30.5 -164.5q0 -95 23 -157.5t60.5 -91.5t81.5 -29q126 0 179 135.5z" />
    <glyph glyph-name="F.ss01" unicode="&#xe004;" horiz-adv-x="660" 
d="M960 722q0 -3 -3 -8q-56 -89 -210 -89q-68 0 -135 18.5t-154 53.5v-310q45 1 68 25.5t27.5 41.5t13.5 63q2 11 8 11q7 0 7 -11v-275q0 -11 -7 -11q-6 0 -8 11q-1 4 -6 38.5t-31.5 62.5t-71.5 29v-320q0 -18 11 -27.5t31 -9.5q9 0 9 -7q0 -8 -9 -8h-164q-9 0 -9 8q0 7 9 7
q20 0 31 9.5t11 27.5v479q-81 -52 -167 -52q-45 0 -88.5 15.5t-73 49.5t-29.5 86q0 50 33 91t91.5 65t131.5 24q64 0 116.5 -16.5t127.5 -49.5q87 -38 152.5 -57.5t153.5 -19.5q37 0 61 9.5t34 19t24 27.5q6 8 12 5q3 -1 3 -6zM378 729q-54 21 -95 32t-78 11
q-52 0 -90.5 -20.5t-59 -53.5t-20.5 -68q0 -47 27 -77.5t67.5 -44.5t81.5 -14q86 0 167 54v181z" />
    <glyph glyph-name="H.ss01" unicode="&#xe005;" horiz-adv-x="799" 
d="M759 8q0 -8 -9 -8h-164q-9 0 -9 8q0 7 9 7q20 0 31 9.5t11 27.5v405q-47 -14 -82 -39.5t-94 -76.5v-289q0 -18 11 -27.5t31 -9.5q9 0 9 -7q0 -8 -9 -8h-164q-9 0 -9 8q0 7 9 7q20 0 31 9.5t11 27.5v231q-54 -31 -113 -31q-68 0 -122.5 31t-85.5 81.5t-31 105.5
q0 59 30.5 109t83.5 80t119 30q63 0 119 -39v46q0 18 -11 27.5t-31 9.5q-9 0 -9 7q0 8 9 8h164q9 0 9 -8q0 -7 -9 -7q-20 0 -31 -9.5t-11 -27.5v-332q50 44 88 70t88 39v223q0 18 -11 27.5t-31 9.5q-9 0 -9 7q0 8 9 8h164q9 0 9 -8q0 -7 -9 -7q-20 0 -31 -9.5t-11 -27.5
v-644q0 -18 11 -27.5t31 -9.5q9 0 9 -7zM372 300v330q-55 44 -119 44q-68 0 -110.5 -51.5t-42.5 -142.5q0 -54 18 -102t56 -78t96 -30q52 0 102 30z" />
    <glyph glyph-name="K.ss01" unicode="&#xe006;" horiz-adv-x="474" 
d="M559 -137q0 -13 -14 -25.5t-38 -12.5q-44 0 -82.5 27t-67.5 98q-35 85 -88 241t-72 220l-26 -46v-313q0 -18 11 -27.5t31 -9.5q9 0 9 -7q0 -8 -9 -8h-164q-9 0 -9 8q0 7 9 7q20 0 31 9.5t11 27.5v644q0 18 -11 27.5t-31 9.5q-9 0 -9 7q0 8 9 8h164q9 0 9 -8q0 -7 -9 -7
q-20 0 -31 -9.5t-11 -27.5v-301l173 308q6 12 6 18q0 12 -23 12q-9 0 -9 7q0 8 9 8h101q9 0 9 -8q0 -7 -9 -7q-21 0 -40 -7.5t-27 -22.5l-111 -198q32 -99 100.5 -300t104.5 -289q17 -43 32 -61t30 -18q13 0 17.5 6t6 18.5t9.5 12.5q9 0 9 -11z" />
    <glyph glyph-name="L.ss01" unicode="&#xe007;" horiz-adv-x="232" 
d="M653 -165q-1 -1 -3 -1q-4 0 -18 17.5t-39.5 31t-70.5 13.5q-88 0 -153.5 -19.5t-152.5 -57.5q-75 -33 -127.5 -49.5t-116.5 -16.5q-73 0 -131.5 24t-91.5 65t-33 91q0 52 29.5 86t73 49.5t88.5 15.5q89 0 174 -57v669q0 18 -11 27.5t-31 9.5q-9 0 -9 7q0 8 9 8h164
q9 0 9 -8q0 -7 -9 -7q-20 0 -31 -9.5t-11 -27.5v-827q84 33 150 51t132 18q154 0 210 -89q6 -10 0 -14zM-18.5 -197.5q42.5 11.5 99.5 33.5v174q-85 59 -174 59q-41 0 -81.5 -14t-67.5 -44.5t-27 -77.5q0 -35 20.5 -68t59 -53.5t90.5 -20.5q38 0 80.5 11.5z" />
    <glyph glyph-name="P.ss01" unicode="&#xe008;" horiz-adv-x="602" 
d="M528 383.5q-34 -70.5 -90 -107t-122 -37.5v-187q0 -18 11 -27.5t31 -9.5q9 0 9 -7q0 -8 -9 -8h-164q-9 0 -9 8q0 7 9 7q20 0 31 9.5t11 27.5v110q-87 56 -149 148t-62 216q0 91 34 163.5t95.5 114t140.5 41.5q70 0 131.5 -38t98.5 -105t37 -151q0 -97 -34 -167.5z
M358 648q9 0 9 -8q0 -7 -9 -7q-20 0 -31 -9.5t-11 -27.5v-342q81 1 118 81t38 216q0 76 -20 139.5t-60 101.5t-97 38q-52 0 -95.5 -34.5t-69 -101.5t-25.5 -158q0 -117 37 -208t94 -144v412q0 18 -11 27.5t-31 9.5q-9 0 -9 7q0 8 9 8h164z" />
    <glyph glyph-name="R.ss01" unicode="&#xe009;" horiz-adv-x="450" 
d="M565 -137q0 -12 -16.5 -25t-41.5 -13q-50 0 -93.5 42.5t-76.5 122.5q-53 125 -111 320h-4h-51v-258q0 -18 11 -27.5t31 -9.5q9 0 9 -7q0 -8 -9 -8h-164q-9 0 -9 8q0 7 9 7q20 0 31 9.5t11 27.5v644q0 18 -11 27.5t-31 9.5q-9 0 -9 7q0 8 9 8h173q45 0 85 -23t65 -73
t25 -125q0 -68 -26.5 -117t-67.5 -75q13 -44 54.5 -167t77.5 -212q20 -49 44.5 -83.5t44.5 -34.5q13 0 17 6t5.5 18t9.5 12q9 0 9 -11zM182 325q53 -1 89 49t36 153q0 94 -30.5 150t-84.5 56q-21 0 -21 -32v-376h11z" />
    <glyph glyph-name="T.ss01" unicode="&#xe010;" horiz-adv-x="549" 
d="M960 722q0 -3 -3 -8q-56 -89 -210 -89q-68 0 -135 18.5t-154 53.5v-645q0 -18 11 -27.5t31 -9.5q9 0 9 -7q0 -8 -9 -8h-164q-9 0 -9 8q0 7 9 7q20 0 31 9.5t11 27.5v479q-81 -52 -167 -52q-45 0 -88.5 15.5t-73 49.5t-29.5 86q0 50 33 91t91.5 65t131.5 24
q64 0 116.5 -16.5t127.5 -49.5q87 -38 152.5 -57.5t153.5 -19.5q37 0 61 9.5t34 19t24 27.5q6 8 12 5q3 -1 3 -6zM378 729q-54 21 -95 32t-78 11q-52 0 -90.5 -20.5t-59 -53.5t-20.5 -68q0 -47 27 -77.5t67.5 -44.5t81.5 -14q86 0 167 54v181z" />
    <glyph glyph-name="V.ss01" unicode="&#xe011;" horiz-adv-x="796" 
d="M776 740q0 -7 -9 -7q-20 0 -34.5 -9.5t-18.5 -26.5l-147 -687q-2 -8 -11 -10h-29q-4 0 -7.5 3t-4.5 7l-30 132q-93 0 -203 68t-186 182t-76 245q0 100 47 155.5t135 55.5q123 -1 191 -103t95 -246l86 -387l125 585q1 4 1 11q0 25 -32 25q-9 0 -9 7q0 8 9 8h99q9 0 9 -8z
M157 406.5q57 -114.5 146 -181t179 -68.5l-81 362q-22 105 -71 209.5t-128 104.5q-57 0 -79.5 -42.5t-22.5 -133.5q0 -136 57 -250.5z" />
    <glyph glyph-name="W.ss01" unicode="&#xe012;" horiz-adv-x="1050" 
d="M1030 740q0 -7 -9 -7q-20 0 -34.5 -9.5t-18.5 -26.5l-147 -687q-2 -8 -11 -10h-29q-4 0 -7.5 3t-4.5 7l-103 460l-99 -460q-2 -8 -11 -10h-29q-4 0 -7.5 3t-4.5 7l-30 132q-93 0 -203 68t-186 182t-76 245q0 100 47 155.5t135 55.5q123 -1 191 -103t95 -246l86 -387v-1
l84 393l-43 193q-4 17 -18.5 26.5t-34.5 9.5q-9 0 -9 7q0 8 9 8h166q9 0 9 -8q0 -7 -9 -7q-32 0 -32 -25q0 -7 1 -11l131 -585l125 585q1 4 1 11q0 25 -32 25q-9 0 -9 7q0 8 9 8h99q9 0 9 -8zM157 406.5q57 -114.5 146 -181t179 -68.5l-81 362q-22 105 -71 209.5t-128 104.5
q-57 0 -79.5 -42.5t-22.5 -133.5q0 -136 57 -250.5z" />
    <glyph glyph-name="X.ss01" unicode="&#xe013;" horiz-adv-x="721" 
d="M701 8q0 -8 -9 -8h-165q-9 0 -9 8q0 7 9 7q29 0 29 20q0 7 -3 14l-31 96q-15 -3 -36 -3q-36 0 -78 11l-35 -104q-3 -9 -3 -15q0 -19 28 -19q9 0 9 -7q0 -8 -9 -8h-100q-9 0 -9 8q0 7 9 7q20 0 36.5 9t22.5 25l37 109q-89 28 -176 98.5t-142.5 170t-55.5 210.5
q0 100 47 155.5t135 55.5q80 0 134.5 -51.5t87 -123t64.5 -174.5l24 -73l91 273q3 9 3 15q0 19 -28 19q-9 0 -9 7q0 8 9 8h100q9 0 9 -8q0 -7 -9 -7q-20 0 -36.5 -9t-22.5 -25l-100 -297l115 -353q5 -16 21.5 -25t36.5 -9q9 0 9 -7zM142 441q42 -101 110.5 -170.5
t146.5 -97.5l58 172l-56 174q-3 8 -31 93.5t-75 153t-93 67.5q-57 0 -79.5 -42.5t-22.5 -133.5q0 -115 42 -216zM517 159l-52 162l-52 -153q39 -11 73 -11q15 0 31 2z" />
    <glyph glyph-name="Y.ss01" unicode="&#xe014;" horiz-adv-x="699" 
d="M679 740q0 -7 -9 -7q-20 0 -35 -9.5t-19 -26.5l-89 -377v-268q0 -18 11 -27.5t31 -9.5q9 0 9 -7q0 -8 -9 -8h-164q-9 0 -9 8q0 7 9 7q20 0 31 9.5t11 27.5v93q-93 14 -193 84t-167 178t-67 230q0 100 47 155.5t135 55.5q123 -1 191 -103t95 -246l31 -144l81 342l2 12
q0 24 -32 24q-9 0 -9 7q0 8 9 8h100q9 0 9 -8zM150.5 420.5q50.5 -108.5 130.5 -177.5t166 -83v160l-46 199q-22 105 -71 209.5t-128 104.5q-57 0 -79.5 -42.5t-22.5 -133.5q0 -128 50.5 -236.5z" />
    <glyph glyph-name="Z.ss01" unicode="&#xe015;" horiz-adv-x="550" 
d="M960 722q0 -3 -3 -8q-56 -89 -210 -89q-61 0 -123 15.5t-131 43.5l-177 -669h39q58 0 88 55.5t40.5 96.5t12.5 48q2 10 8 10q8 0 6 -12l-27 -203q0 -4 -3.5 -7t-7.5 -3h-236q-4 0 -6 3t-1 7l135 513q-74 -44 -153 -44q-45 0 -88.5 15.5t-73 49.5t-29.5 86q0 50 33 91
t91.5 65t131.5 24q64 0 116.5 -16.5t127.5 -49.5q87 -38 152.5 -57.5t153.5 -19.5q37 0 61 9.5t34 19t24 27.5q6 8 12 5q3 -1 3 -6zM415 715q-72 28 -120 42.5t-90 14.5q-52 0 -90.5 -20.5t-59 -53.5t-20.5 -68q0 -47 27 -77.5t67.5 -44.5t81.5 -14q82 0 159 49z" />
    <glyph glyph-name="R.ss02" unicode="&#xe016;" horiz-adv-x="627" 
d="M720 -137q0 -12 -16.5 -25t-41.5 -13q-50 0 -93.5 42.5t-76.5 122.5q-41 96 -93 262q-33 -13 -73 -13v-187q0 -18 11 -27.5t31 -9.5q9 0 9 -7q0 -8 -9 -8h-164q-9 0 -9 8q0 7 9 7q20 0 31 9.5t11 27.5v110q-87 56 -149 148t-62 216q0 91 34 163.5t95.5 114t140.5 41.5
q70 0 131.5 -38t98.5 -105t37 -151q0 -86 -27 -151.5t-74 -106.5q67 -209 119 -337q20 -49 44.5 -83.5t44.5 -34.5q13 0 17 6t5.5 18t9.5 12q9 0 9 -11zM377 640q0 -7 -9 -7q-20 0 -31 -9.5t-11 -27.5v-342q81 1 118 81t38 216q0 76 -20 139.5t-60 101.5t-97 38
q-52 0 -95.5 -34.5t-69 -101.5t-25.5 -158q0 -117 37 -208t94 -144v412q0 18 -11 27.5t-31 9.5q-9 0 -9 7q0 8 9 8h164q9 0 9 -8z" />
    <glyph glyph-name="b.ss01" unicode="&#xe017;" horiz-adv-x="425" 
d="M345.5 477.5q39.5 -82.5 39.5 -211.5q0 -127 -39 -201.5t-120 -74.5q-27 0 -50.5 15t-41.5 38l-40 -43h-23q-4 0 -7 3t-3 7v591q0 254 -161 254q-41 0 -71 -20.5t-71 -63.5q-35 -36 -61 -57.5t-63.5 -37t-85.5 -15.5q-53 0 -107.5 29.5t-94.5 67t-49 54.5l9 6
q20 -31 68.5 -66.5t123.5 -35.5q54 0 98 20t104 60q53 36 93 55t87 19q82 0 141 -31t89.5 -85t30.5 -122v-112q38 40 85 40q80 0 119.5 -82.5zM280 64.5q19 59.5 19 201.5q0 145 -19.5 212t-60.5 67q-24 0 -50 -21q-28 -23 -28 -80v-329q0 -56 21 -79q29 -31 57 -31
q42 0 61 59.5z" />
    <glyph glyph-name="d.ss01" unicode="&#xe018;" horiz-adv-x="449" 
d="M1128 812q-9 -17 -49 -54.5t-94.5 -67t-107.5 -29.5q-48 0 -85.5 15.5t-63.5 37t-61 57.5q-41 43 -71 63.5t-71 20.5q-161 0 -161 -254v-549q0 -18 11 -27.5t31 -9.5q9 0 9 -7q0 -8 -9 -8h-112q-4 0 -7 3t-3 7v25q-41 -45 -85 -45q-81 0 -120 74.5t-39 201.5
q0 129 39.5 211.5t119.5 82.5q47 0 85 -40v112q0 68 30.5 122t89.5 85t141 31q47 0 87 -19t93 -55q60 -40 104 -60t98 -20q75 0 123.5 35.5t68.5 66.5zM145 64.5q19 -59.5 61 -59.5q28 0 57 31q21 23 21 79v329q0 57 -28 80q-26 21 -50 21q-41 0 -60.5 -67t-19.5 -212
q0 -142 19 -201.5z" />
    <glyph glyph-name="g.ss01" unicode="&#xe019;" horiz-adv-x="394" 
d="M306 590.5q-12 14.5 -12 40.5q0 13 4.5 26.5t4.5 20.5t-5 11t-12 4q-19 0 -33 -30t-14 -64q0 -21 6 -36t18 -19l-3 1q84 -44 84 -204q0 -114 -41.5 -167t-111.5 -53q-36 0 -62 10q-4 2 -12 2q-11 0 -18.5 -7.5t-7.5 -20.5q0 -20 25.5 -30.5t86.5 -25.5q75 -15 109 -58
t34 -113q0 -49 -21 -90t-57.5 -64.5t-81.5 -23.5q-59 0 -99 33.5t-40 92.5q0 32 14 57t36 39t45 14q33 0 58.5 -24t25.5 -58q0 -25 -11.5 -40t-33.5 -15q-21 0 -33 14.5t-12 40.5q0 13 4.5 26.5t4.5 20.5t-5 11.5t-12 4.5q-26 0 -46 -26t-20 -65q0 -54 35 -82t78 -28
q47 0 78.5 33t31.5 83q0 67 -30.5 98.5t-90.5 47.5q-6 1 -40 9t-56.5 30t-22.5 56q0 26 15.5 44t37.5 32q-29 24 -43.5 71t-14.5 121q0 106 35.5 159t96.5 59q11 2 19 16t17 40q18 46 37 72t55 26q33 0 58.5 -24t25.5 -58q0 -25 -11.5 -40t-33.5 -15q-21 0 -33 14.5z
M230.5 155q14.5 19 21.5 63.5t7 122.5q0 83 -7 127t-21.5 60.5t-39.5 16.5q-24 0 -38 -17t-21 -61t-7 -126q0 -114 15.5 -159.5t50.5 -45.5q25 0 39.5 19z" />
    <glyph glyph-name="h.ss01" unicode="&#xe020;" horiz-adv-x="459" 
d="M424 8q0 -8 -9 -8h-164q-9 0 -9 8q0 7 9 7q20 0 31 9.5t11 27.5v375q0 59 -12.5 86.5t-44.5 27.5q-17 0 -33 -13.5t-26.5 -41.5t-10.5 -69v-365q0 -18 11 -27.5t31 -9.5q9 0 9 -7q0 -8 -9 -8h-164q-9 0 -9 8q0 7 9 7q20 0 31 9.5t11 27.5v549q0 254 -161 254
q-41 0 -71 -20.5t-71 -63.5q-35 -36 -61 -57.5t-63.5 -37t-85.5 -15.5q-53 0 -107.5 29.5t-94.5 67t-49 54.5l9 6q20 -31 68.5 -66.5t123.5 -35.5q54 0 98 20t104 60q53 36 93 55t87 19q82 0 141 -31t89.5 -85t30.5 -122v-130q26 58 96 58q66 0 89 -42.5t22 -117.5v-348
q0 -18 11 -27.5t31 -9.5q9 0 9 -7z" />
    <glyph glyph-name="k.ss01" unicode="&#xe021;" horiz-adv-x="444" 
d="M424 8q0 -8 -9 -8h-119q-4 0 -8 3t-5 6l-108 302l-9 -16v-243q0 -18 11 -27.5t31 -9.5q9 0 9 -7q0 -8 -9 -8h-164q-9 0 -9 8q0 7 9 7q20 0 31 9.5t11 27.5v549q0 254 -161 254q-41 0 -71 -20.5t-71 -63.5q-35 -36 -61 -57.5t-63.5 -37t-85.5 -15.5q-53 0 -107.5 29.5
t-94.5 67t-49 54.5l9 6q20 -31 68.5 -66.5t123.5 -35.5q54 0 98 20t104 60q53 36 93 55t87 19q82 0 141 -31t89.5 -85t30.5 -122v-304l103 177q7 11 7 19q0 11 -23 11q-9 0 -9 7q0 8 9 8h102q9 0 9 -8q0 -7 -9 -7q-21 0 -40.5 -7.5t-27.5 -22.5l-61 -106l129 -350
q6 -16 22.5 -25t37.5 -9q9 0 9 -7z" />
    <glyph glyph-name="l.ss01" unicode="&#xe022;" horiz-adv-x="242" 
d="M217 8q0 -8 -9 -8h-164q-9 0 -9 8q0 7 9 7q20 0 31 9.5t11 27.5v549q0 254 -161 254q-41 0 -71 -20.5t-71 -63.5q-35 -36 -61 -57.5t-63.5 -37t-85.5 -15.5q-53 0 -107.5 29.5t-94.5 67t-49 54.5l9 6q20 -31 68.5 -66.5t123.5 -35.5q54 0 98 20t104 60q53 36 93 55t87 19
q82 0 141 -31t89.5 -85t30.5 -122v-580q0 -18 11 -27.5t31 -9.5q9 0 9 -7z" />
    <glyph glyph-name="m.ss01" unicode="&#xe023;" horiz-adv-x="640" 
d="M558 517.5q23 -42.5 22 -117.5v-462q0 -68 -30.5 -122t-89.5 -85t-141 -31q-47 0 -87 19t-93 55q-60 40 -104 60t-98 20q-75 0 -123.5 -35.5t-68.5 -66.5l-9 6q9 17 49 54.5t94.5 67t107.5 29.5q48 0 85.5 -15.5t63.5 -37t61 -57.5q41 -43 71 -63.5t71 -20.5
q161 0 161 254v458q0 59 -12.5 86.5t-44.5 27.5q-17 0 -33 -13.5t-26.5 -41.5t-10.5 -69v-17v-348q0 -18 11 -27.5t31 -9.5q9 0 9 -7q0 -8 -9 -8h-164q-9 0 -9 8q0 7 9 7q20 0 31 9.5t11 27.5v375q0 59 -12.5 86.5t-44.5 27.5q-17 0 -33 -13.5t-26.5 -41.5t-10.5 -69v-365
q0 -18 11 -27.5t31 -9.5q9 0 9 -7q0 -8 -9 -8h-164q-9 0 -9 8q0 7 9 7q20 0 31 9.5t11 27.5v446q0 18 -11 27.5t-31 9.5q-9 0 -9 7q0 8 9 8h112q4 0 7 -3t3 -7v-38q26 58 96 58q45 0 69.5 -21t34.5 -58q21 79 103 79q66 0 89 -42.5z" />
    <glyph glyph-name="n.ss01" unicode="&#xe024;" horiz-adv-x="413" 
d="M351 517.5q23 -42.5 22 -117.5v-462q0 -68 -30.5 -122t-89.5 -85t-141 -31q-47 0 -87 19t-93 55q-60 40 -104 60t-98 20q-75 0 -123.5 -35.5t-68.5 -66.5l-9 6q9 17 49 54.5t94.5 67t107.5 29.5q48 0 85.5 -15.5t63.5 -37t61 -57.5q41 -43 71 -63.5t71 -20.5
q161 0 161 254v458q0 59 -12.5 86.5t-44.5 27.5q-17 0 -33 -13.5t-26.5 -41.5t-10.5 -69v-365q0 -18 11 -27.5t31 -9.5q9 0 9 -7q0 -8 -9 -8h-164q-9 0 -9 8q0 7 9 7q20 0 31 9.5t11 27.5v446q0 18 -11 27.5t-31 9.5q-9 0 -9 7q0 8 9 8h112q4 0 7 -3t3 -7v-38q26 58 96 58
q66 0 89 -42.5z" />
    <glyph glyph-name="p.ss01" unicode="&#xe025;" horiz-adv-x="449" 
d="M369.5 477.5q39.5 -82.5 39.5 -211.5q0 -127 -39 -201.5t-120 -74.5q-44 0 -85 45v-141q0 -68 -30.5 -122t-89.5 -85t-141 -31q-47 0 -87 19t-93 55q-60 40 -104 60t-98 20q-75 0 -123.5 -35.5t-68.5 -66.5l-9 6q9 17 49 54.5t94.5 67t107.5 29.5q48 0 85.5 -15.5
t63.5 -37t61 -57.5q41 -43 71 -63.5t71 -20.5q161 0 161 254v66l1 507q0 18 -11 27.5t-31 9.5q-9 0 -9 7q0 8 9 8h112q4 0 7 -3t3 -7v-19q39 39 84 39q80 0 119.5 -82.5zM304 64.5q19 59.5 19 201.5q0 145 -19.5 212t-60.5 67q-24 0 -50 -21q-23 -19 -27 -61l-1 -359
q2 -47 21 -68q29 -31 57 -31q42 0 61 59.5z" />
    <glyph glyph-name="y.ss01" unicode="&#xe026;" horiz-adv-x="381" 
d="M371 542q0 -7 -9 -7q-20 0 -34 -9.5t-17 -26.5l-92 -499q-18 -95 -36.5 -154t-63 -102.5t-122.5 -43.5q-47 0 -87 19t-93 55q-60 40 -104 60t-98 20q-75 0 -123.5 -35.5t-68.5 -66.5l-9 6q9 17 49 54.5t94.5 67t107.5 29.5q48 0 85.5 -15t63.5 -36.5t61 -56.5
q41 -42 71 -62.5t71 -20.5q70 0 111.5 57t67.5 181l-2 -10l-118 553q-4 17 -18.5 26.5t-34.5 9.5q-9 0 -9 7q0 8 9 8h166q9 0 9 -8q0 -7 -9 -7q-32 0 -32 -25q0 -7 1 -11l75 -348l63 348q1 3 1 9q0 27 -34 27q-9 0 -9 7q0 8 9 8h99q9 0 9 -8z" />
    <glyph glyph-name="h.ss02" unicode="&#xe027;" horiz-adv-x="449" 
d="M920 812q-9 -17 -49 -54.5t-94.5 -67t-107.5 -29.5q-48 0 -85.5 15.5t-63.5 37t-61 57.5q-41 43 -71 63.5t-71 20.5q-161 0 -161 -254v-99q26 58 96 58q66 0 89 -42.5t22 -117.5v-348q0 -18 11 -27.5t31 -9.5q9 0 9 -7q0 -8 -9 -8h-164q-9 0 -9 8q0 7 9 7q20 0 31 9.5
t11 27.5v375q0 59 -12.5 86.5t-44.5 27.5q-17 0 -33 -13.5t-26.5 -41.5t-10.5 -69v-365q0 -18 11 -27.5t31 -9.5q9 0 9 -7q0 -8 -9 -8h-164q-9 0 -9 8q0 7 9 7q20 0 31 9.5t11 27.5v580q0 68 30.5 122t89.5 85t141 31q47 0 87 -19t93 -55q60 -40 104 -60t98 -20
q75 0 123.5 35.5t68.5 66.5z" />
    <glyph glyph-name="k.ss02" unicode="&#xe028;" horiz-adv-x="439" 
d="M509 -137q0 -13 -14 -25.5t-38 -12.5q-44 0 -82.5 27t-67.5 98q-58 140 -132 361l-19 -33v-226q0 -18 11 -27.5t31 -9.5q9 0 9 -7q0 -8 -9 -8h-164q-9 0 -9 8q0 7 9 7q20 0 31 9.5t11 27.5v644q0 18 -11 27.5t-31 9.5q-9 0 -9 7q0 8 9 8h112q4 0 7 -3t3 -7v-428l113 195
q7 11 7 19q0 11 -23 11q-9 0 -9 7q0 8 9 8h102q9 0 9 -8q0 -7 -9 -7q-21 0 -40.5 -7.5t-27.5 -22.5l-61 -107q26 -73 84.5 -234t94.5 -248q17 -43 32 -61t30 -18q13 0 17.5 6t6 18.5t9.5 12.5q9 0 9 -11z" />
    <glyph glyph-name="k.ss03" unicode="&#xe029;" horiz-adv-x="449" 
d="M509 -137q0 -13 -14 -25.5t-38 -12.5q-44 0 -82.5 27t-67.5 98q-58 140 -132 361l-9 -16v-243q0 -18 11 -27.5t31 -9.5q9 0 9 -7q0 -8 -9 -8h-164q-9 0 -9 8q0 7 9 7q20 0 31 9.5t11 27.5v549q0 254 -161 254q-41 0 -71 -20.5t-71 -63.5q-35 -36 -61 -57.5t-63.5 -37
t-85.5 -15.5q-53 0 -107.5 29.5t-94.5 67t-49 54.5l9 6q20 -31 68.5 -66.5t123.5 -35.5q54 0 98 20t104 60q53 36 93 55t87 19q82 0 141 -31t89.5 -85t30.5 -122v-304l103 177q7 11 7 19q0 11 -23 11q-9 0 -9 7q0 8 9 8h102q9 0 9 -8q0 -7 -9 -7q-21 0 -40.5 -7.5
t-27.5 -22.5l-61 -107q26 -73 84.5 -234t94.5 -248q17 -43 32 -61t30 -18q13 0 17.5 6t6 18.5t9.5 12.5q9 0 9 -11z" />
    <glyph glyph-name="A_H" unicode="&#xe030;" horiz-adv-x="841" 
d="M801 8q0 -8 -9 -8h-164q-9 0 -9 8q0 7 9 7q20 0 31 9.5t11 27.5v370h-196v-370q0 -18 11 -27.5t31 -9.5q9 0 9 -7q0 -8 -9 -8h-164q-9 0 -9 8q0 7 9 7q20 0 31 9.5t11 27.5v139h-217l-61 -143q-4 -9 -4 -17q0 -16 26 -16q9 0 9 -7q0 -8 -9 -8h-99q-9 0 -9 8q0 7 9 7
q21 0 38.5 8.5t23.5 24.5l287 670q-11 15 -36 15q-9 0 -9 7q0 8 9 8h164q9 0 9 -8q0 -7 -9 -7q-20 0 -31 -9.5t-11 -27.5v-259h196v259q0 18 -11 27.5t-31 9.5q-9 0 -9 7q0 8 9 8h164q9 0 9 -8q0 -7 -9 -7q-20 0 -31 -9.5t-11 -27.5v-644q0 -18 11 -27.5t31 -9.5q9 0 9 -7z
M394 697l-210 -491h210v490v1z" />
    <glyph glyph-name="A_K" unicode="&#xe031;" horiz-adv-x="837" 
d="M827 8q0 -8 -9 -8h-170q-9 0 -9 8q0 7 9 7q26 0 26 16q0 8 -4 17l-150 363l-26 -46v-313q0 -18 11 -27.5t31 -9.5q9 0 9 -7q0 -8 -9 -8h-164q-9 0 -9 8q0 7 9 7q20 0 31 9.5t11 27.5v139h-237l-61 -143q-4 -9 -4 -17q0 -16 26 -16q9 0 9 -7q0 -8 -9 -8h-99q-9 0 -9 8
q0 7 9 7q21 0 38.5 8.5t23.5 24.5l292 681q-8 4 -21 4q-9 0 -9 7q0 8 9 8h164q9 0 9 -8q0 -7 -9 -7q-20 0 -31 -9.5t-11 -27.5v-301l173 308q6 12 6 18q0 12 -23 12q-9 0 -9 7q0 8 9 8h101q9 0 9 -8q0 -7 -9 -7q-21 0 -40 -7.5t-27 -22.5l-114 -203l186 -452
q6 -16 23.5 -24.5t38.5 -8.5q9 0 9 -7zM184 206h230v490q0 16 -9 26z" />
    <glyph glyph-name="A_L" unicode="&#xe032;" horiz-adv-x="748" 
d="M718 208l-53 -198q-2 -4 -5.5 -7t-7.5 -3h-289q-9 0 -9 8q0 7 9 7q20 0 31 9.5t11 27.5v139h-228l-61 -143q-4 -9 -4 -17q0 -16 26 -16q9 0 9 -7q0 -8 -9 -8h-99q-9 0 -9 8q0 7 9 7q21 0 38.5 8.5t23.5 24.5l290 677q-11 8 -28 8q-9 0 -9 7q0 8 9 8h164q9 0 9 -8
q0 -7 -9 -7q-20 0 -31 -9.5t-11 -27.5v-649q0 -32 21 -32h31q59 0 96.5 56.5t52 95.5t17.5 45q5 10 11 9q5 -3 4 -13zM184 206h221v490q0 11 -4 18z" />
    <glyph glyph-name="C_A" unicode="&#xe033;" horiz-adv-x="684" 
d="M654 8q0 -8 -9 -8h-167q-9 0 -9 8q0 7 9 7q33 0 33 26q0 6 -1 10l-56 300h-106l-48 -224q-1 -4 -1 -11q0 -25 32 -25q9 0 9 -7q0 -8 -9 -8h-99q-9 0 -9 8q0 7 9 7q20 0 34.5 9.5t18.5 26.5l106 495q3 14 3 25q0 51 -40.5 68.5t-78.5 17.5q-80 0 -112.5 -95.5
t-32.5 -263.5q0 -172 30 -270.5t110 -98.5q72 0 106.5 69t34.5 190q0 8 7 8h1q7 0 7 -8v-266q0 -8 -7 -8h-1q-7 0 -7 8q0 30 -2.5 39t-10.5 9q-6 0 -13 -4t-11.5 -7.5t-6.5 -5.5q-20 -18 -41.5 -28.5t-55.5 -10.5q-120 0 -175 108t-55 276q0 165 57 269.5t178 104.5h171
q4 0 7.5 -3t4.5 -7l135 -687q4 -17 18 -26.5t34 -9.5q9 0 9 -7zM404 614l-53 -248h100z" />
    <glyph glyph-name="D_C" unicode="&#xe034;" horiz-adv-x="658" 
d="M371 698q46 -46 71.5 -129t25.5 -195t-25.5 -195t-71.5 -129q29 -45 81 -45q72 0 106.5 69t34.5 190q0 8 7 8h1q7 0 7 -8v-266q0 -8 -7 -8h-1q-7 0 -7 8q0 30 -2.5 39t-10.5 9q-6 0 -13 -4t-11.5 -7.5t-6.5 -5.5q-20 -18 -41.5 -28.5t-55.5 -10.5q-65 0 -112 36
q-41 -26 -92 -26h-199q-9 0 -9 8q0 7 9 7q20 0 31 9.5t11 27.5v644q0 18 -11 27.5t-31 9.5q-9 0 -9 7q0 8 9 8h199q51 0 92 -26q47 36 112 36q35 0 56 -11t44 -30q17 -15 24 -15q10 0 13.5 10.5t3.5 37.5q0 8 7 8h1q7 0 7 -8v-216q0 -8 -7 -8h-1q-7 0 -7 8q0 41 -15.5 90
t-47.5 84t-78 35q-52 0 -81 -45zM227 15q51 0 84 38q-79 95 -79 321t79 321q-33 38 -84 38h-35q-21 0 -21 -32v-654q0 -32 21 -32h35zM345 636q-13 -46 -18 -111t-5 -151t5 -151t18 -111q33 85 33 262t-33 262z" />
    <glyph glyph-name="F_F" unicode="&#xe035;" horiz-adv-x="753" 
d="M718 540v-4q0 -6 -4 -9h-1q-3 0 -5.5 2.5t-4.5 6.5q-3 6 -22 57t-58 95.5t-86 44.5h-52v-346q45 1 68 25.5t27.5 41.5t13.5 63q2 11 8 11q7 0 7 -11v-275q0 -11 -7 -11q-6 0 -8 11q-1 4 -6 38.5t-31.5 62.5t-71.5 29v-320q0 -18 11 -27.5t31 -9.5q9 0 9 -7q0 -8 -9 -8
h-164q-9 0 -9 8q0 7 9 7q20 0 31 9.5t11 27.5v644q0 18 -11 27.5t-31 9.5h-171q-21 0 -21 -32v-314q45 1 68 25.5t27.5 41.5t13.5 63q2 11 8 11q7 0 7 -11v-275q0 -11 -7 -11q-6 0 -8 11q-1 4 -6 38.5t-31.5 62.5t-71.5 29v-320q0 -18 11 -27.5t31 -9.5q9 0 9 -7q0 -8 -9 -8
h-164q-9 0 -9 8q0 7 9 7q20 0 31 9.5t11 27.5v644q0 18 -11 27.5t-31 9.5q-9 0 -9 7q0 8 9 8h309h2h3h289q4 0 7.5 -3t5.5 -7z" />
    <glyph glyph-name="F_T" unicode="&#xe036;" horiz-adv-x="703" 
d="M688 540v-4q0 -6 -4 -9h-1q-3 0 -5.5 2.5t-4.5 6.5q-3 6 -22 57t-58 95.5t-86 44.5h-22v-681q0 -18 11 -27.5t31 -9.5q9 0 9 -7q0 -8 -9 -8h-164q-9 0 -9 8q0 7 9 7q20 0 31 9.5t11 27.5v649q0 32 -21 32h-192q-21 0 -21 -32v-314q45 1 68 25.5t27.5 41.5t13.5 63
q2 11 8 11q7 0 7 -11v-275q0 -11 -7 -11q-6 0 -8 11q-1 4 -6 38.5t-31.5 62.5t-71.5 29v-320q0 -18 11 -27.5t31 -9.5q9 0 9 -7q0 -8 -9 -8h-164q-9 0 -9 8q0 7 9 7q20 0 31 9.5t11 27.5v644q0 18 -11 27.5t-31 9.5q-9 0 -9 7q0 8 9 8h573q4 0 7.5 -3t5.5 -7z" />
    <glyph glyph-name="H_E" unicode="&#xe037;" horiz-adv-x="715" 
d="M680 208l-53 -198q-2 -4 -5.5 -7t-7.5 -3h-289q-9 0 -9 8q0 7 9 7q20 0 31 9.5t11 27.5v370h-196v-370q0 -18 11 -27.5t31 -9.5q9 0 9 -7q0 -8 -9 -8h-164q-9 0 -9 8q0 7 9 7q20 0 31 9.5t11 27.5v644q0 18 -11 27.5t-31 9.5q-9 0 -9 7q0 8 9 8h164q9 0 9 -8q0 -7 -9 -7
q-20 0 -31 -9.5t-11 -27.5v-259h196v259q0 18 -11 27.5t-31 9.5q-9 0 -9 7q0 8 9 8h289q4 0 7.5 -3t5.5 -7l53 -198v-4q0 -6 -4 -9h-1q-3 0 -5.5 2.5t-4.5 6.5q-3 6 -22 57t-58 95.5t-86 44.5h-31q-21 0 -21 -32v-314q45 1 68 25.5t27.5 41.5t13.5 63q2 11 8 11q7 0 7 -11
v-275q0 -11 -7 -11q-6 0 -8 11q-1 4 -6 38.5t-31.5 62.5t-71.5 29v-325q0 -32 21 -32h31q59 0 96.5 56.5t52 95.5t17.5 45q5 10 11 9q5 -3 4 -13z" />
    <glyph glyph-name="L_A" unicode="&#xe038;" horiz-adv-x="675" 
d="M418 215v-205q0 -4 -3 -7t-7 -3h-359q-9 0 -9 8q0 7 9 7q20 0 31 9.5t11 27.5v644q0 18 -11 27.5t-31 9.5q-9 0 -9 7q0 8 9 8h164q9 0 9 -8q0 -7 -9 -7q-20 0 -31 -9.5t-11 -27.5v-649q0 -32 21 -32h97q59 0 81.5 56.5t27 97t5.5 46.5q2 11 8 11q7 0 7 -11zM645 8
q0 -8 -9 -8h-167q-9 0 -9 8q0 7 9 7q33 0 33 26q0 6 -1 10l-45 240h-130l-33 -154q-1 -4 -1 -11q0 -25 32 -25q9 0 9 -7q0 -8 -9 -8h-99q-9 0 -9 8q0 7 9 7q20 0 34.5 9.5t18.5 26.5l129 601q2 8 11 10h19q4 0 7.5 -3t4.5 -7l135 -687q4 -17 18 -26.5t34 -9.5q9 0 9 -7z
M395 614l-66 -308h124z" />
    <glyph glyph-name="L_E" unicode="&#xe039;" horiz-adv-x="550" 
d="M404 208l-53 -198q-2 -4 -5.5 -7t-7.5 -3h-289q-9 0 -9 8q0 7 9 7q20 0 31 9.5t11 27.5v644q0 18 -11 27.5t-31 9.5q-9 0 -9 7q0 8 9 8h164q9 0 9 -8q0 -7 -9 -7q-20 0 -31 -9.5t-11 -27.5v-649q0 -32 21 -32h31q59 0 96.5 56.5t52 95.5t17.5 45q5 10 11 9q5 -3 4 -13z
M515 408l-26 -129l-1 -6q0 -2 -2 -4t-5 -2h-230q-9 0 -9 8q0 7 9 7q20 0 31 9.5t11 27.5v377q0 18 -11 27.5t-31 9.5q-9 0 -9 7q0 8 9 8h229q3 0 5 -2t2 -4l1 -6l26 -129q2 -6 -3 -8q-4 0 -6 6q-2 5 -12.5 38t-33.5 61.5t-53 28.5h-20q-13 0 -13 -21v-193q41 1 56 29t15 53
q0 8 7 8h1q7 0 7 -8v-178q0 -8 -7 -8h-1q-7 0 -7 8q0 25 -15 52.5t-56 28.5v-202q0 -20 13 -20h21q37 0 58.5 35t30 61.5t10.5 31.5q2 6 6 6q5 -2 3 -8z" />
    <glyph glyph-name="L_I" unicode="&#xe040;" horiz-adv-x="464" 
d="M404 208l-53 -198q-2 -4 -5.5 -7t-7.5 -3h-289q-9 0 -9 8q0 7 9 7q20 0 31 9.5t11 27.5v644q0 18 -11 27.5t-31 9.5q-9 0 -9 7q0 8 9 8h164q9 0 9 -8q0 -7 -9 -7q-20 0 -31 -9.5t-11 -27.5v-649q0 -32 21 -32h31q59 0 96.5 56.5t52 95.5t17.5 45q5 10 11 9q5 -3 4 -13z
M424 275q0 -8 -9 -8h-164q-9 0 -9 8q0 7 9 7q20 0 31 9.5t11 27.5v377q0 18 -11 27.5t-31 9.5q-9 0 -9 7q0 8 9 8h164q9 0 9 -8q0 -7 -9 -7q-20 0 -31 -9.5t-11 -27.5v-377q0 -18 11 -27.5t31 -9.5q9 0 9 -7z" />
    <glyph glyph-name="L_L" unicode="&#xe041;" horiz-adv-x="545" 
d="M404 208l-53 -198q-2 -4 -5.5 -7t-7.5 -3h-289q-9 0 -9 8q0 7 9 7q20 0 31 9.5t11 27.5v644q0 18 -11 27.5t-31 9.5q-9 0 -9 7q0 8 9 8h164q9 0 9 -8q0 -7 -9 -7q-20 0 -31 -9.5t-11 -27.5v-649q0 -32 21 -32h31q59 0 96.5 56.5t52 95.5t17.5 45q5 10 11 9q5 -3 4 -13z
M515 408l-26 -129l-1 -6q0 -2 -2 -4t-5 -2h-230q-9 0 -9 8q0 7 9 7q20 0 31 9.5t11 27.5v377q0 18 -11 27.5t-31 9.5q-9 0 -9 7q0 8 9 8h164q9 0 9 -8q0 -7 -9 -7q-20 0 -31 -9.5t-11 -27.5v-394q0 -20 13 -20h21q37 0 58.5 35t30 61.5t10.5 31.5q2 6 6 6q5 -2 3 -8z" />
    <glyph glyph-name="N_N" unicode="&#xe042;" horiz-adv-x="862" 
d="M832 740q0 -7 -9 -7q-20 0 -31 -9.5t-11 -27.5v-686q0 -4 -3 -7t-7 -3h-33l-297 667v-657q0 -4 -3 -7t-7 -3h-33l-297 667v-615q0 -18 11 -27.5t31 -9.5q9 0 9 -7q0 -8 -9 -8h-99q-9 0 -9 8q0 7 9 7q20 0 31 9.5t11 27.5v644q0 18 -11 27.5t-31 9.5q-9 0 -9 7q0 8 9 8
h107l275 -620v568q0 18 -11 27.5t-31 9.5q-9 0 -9 7q0 8 9 8h107l275 -620v568q0 18 -11 27.5t-31 9.5q-9 0 -9 7q0 8 9 8h99q9 0 9 -8z" />
    <glyph glyph-name="O_C" unicode="&#xe043;" horiz-adv-x="658" 
d="M376 705q49 -51 72 -142t23 -199q0 -105 -22.5 -190.5t-70.5 -133.5q30 -35 74 -35q72 0 106.5 69t34.5 190q0 8 7 8h1q7 0 7 -8v-266q0 -8 -7 -8h-1q-7 0 -7 8q0 30 -2.5 39t-10.5 9q-6 0 -13 -4t-11.5 -7.5t-6.5 -5.5q-20 -18 -41.5 -28.5t-55.5 -10.5q-57 0 -101 28
q-42 -28 -97 -28q-112 0 -163 111t-51 273t51 273t163 111q53 0 95 -29q43 29 103 29q35 0 56 -11t44 -30q17 -15 24 -15q10 0 13.5 10.5t3.5 37.5q0 8 7 8h1q7 0 7 -8v-216q0 -8 -7 -8h-1q-7 0 -7 8q0 41 -15.5 90t-47.5 84t-78 35t-76 -38zM321 43q-89 90 -89 331
q0 238 87 330q-28 39 -65 39q-62 0 -93 -99t-31 -270t31 -270t93 -99q40 0 67 38zM347 645q-15 -47 -20 -113.5t-5 -157.5q0 -94 5.5 -161.5t21.5 -114.5q32 90 32 266q0 180 -34 281z" />
    <glyph glyph-name="O_G" unicode="&#xe044;" horiz-adv-x="658" 
d="M601 272q7 0 7 -8v-266q0 -8 -7 -8h-1q-7 0 -7 8q0 30 -2.5 39t-10.5 9q-6 0 -13 -4t-11.5 -7.5t-6.5 -5.5q-20 -18 -41.5 -28.5t-55.5 -10.5q-57 0 -101 28q-42 -28 -97 -28q-112 0 -163 111t-51 273t51 273t163 111q53 0 95 -29q43 29 103 29q33 0 52.5 -11t38.5 -30
q1 -1 9 -8t14 -7q10 0 13.5 10.5t3.5 37.5q0 8 7 8h1q7 0 7 -8v-216q0 -8 -7 -8h-1q-7 0 -7 8q0 41 -15 90t-44.5 84t-71.5 35q-46 0 -76 -38q49 -51 72 -142t23 -199q0 -54 -5 -92h132h1h1h1zM321 43q-89 90 -89 331q0 238 87 330q-28 39 -65 39q-62 0 -93 -99t-31 -270
t31 -270t93 -99q40 0 67 38zM347 645q-15 -47 -20 -113.5t-5 -157.5q0 -94 5.5 -161.5t21.5 -114.5q32 90 32 266q0 180 -34 281zM452 5q44 0 74 27v224h-61q-18 -149 -87 -216q30 -35 74 -35z" />
    <glyph glyph-name="O_O" unicode="&#xe045;" horiz-adv-x="698" 
d="M606 643q52 -115 52 -279q0 -161 -51.5 -267.5t-165.5 -106.5q-50 0 -92 26q-42 -26 -95 -26q-112 0 -163 111t-51 273t51 273t163 111q53 0 93 -28q40 28 94 28q113 0 165 -115zM320 41q-48 49 -70.5 138t-22.5 195q0 105 22 193t69 138q-26 38 -64 38q-62 0 -93 -99
t-31 -270t31 -270t93 -99q38 0 66 36zM536.5 99.5q31.5 94.5 31.5 264.5q0 173 -32 276t-95 103q-38 0 -64 -38q49 -51 71.5 -142.5t22.5 -198.5q0 -104 -22 -190t-70 -134q26 -35 62 -35q64 0 95.5 94.5zM317 374q0 -179 32 -274q32 90 32 264q0 179 -33 279
q-31 -96 -31 -269z" />
    <glyph glyph-name="T_E" unicode="&#xe046;" horiz-adv-x="788" 
d="M753 208l-53 -198q-2 -4 -5.5 -7t-7.5 -3h-289q-9 0 -9 8q0 7 9 7q20 0 31 9.5t11 27.5v644q0 18 -11 27.5t-31 9.5h-79q-21 0 -21 -32v-649q0 -18 11 -27.5t31 -9.5q9 0 9 -7q0 -8 -9 -8h-164q-9 0 -9 8q0 7 9 7q20 0 31 9.5t11 27.5v649q0 32 -21 32h-1
q-59 0 -96.5 -56.5t-52 -95.5t-17.5 -45q-5 -10 -11 -9q-5 3 -4 13l53 198q2 4 5.5 7t7.5 3h606q4 0 7.5 -3t5.5 -7l53 -198v-4q0 -6 -4 -9h-1q-3 0 -5.5 2.5t-4.5 6.5q-3 6 -22 57t-58 95.5t-86 44.5h-31q-21 0 -21 -32v-314q45 1 68 25.5t27.5 41.5t13.5 63q2 11 8 11
q7 0 7 -11v-275q0 -11 -7 -11q-6 0 -8 11q-1 4 -6 38.5t-31.5 62.5t-71.5 29v-325q0 -32 21 -32h31q59 0 96.5 56.5t52 95.5t17.5 45q5 10 11 9q5 -3 4 -13z" />
    <glyph glyph-name="T_T" unicode="&#xe047;" horiz-adv-x="738" 
d="M723 540v-4q0 -6 -4 -9h-1q-3 0 -5.5 2.5t-4.5 6.5q-3 6 -22 57t-58 95.5t-86 44.5h-1q-21 0 -21 -32v-649q0 -18 11 -27.5t31 -9.5q9 0 9 -7q0 -8 -9 -8h-164q-9 0 -9 8q0 7 9 7q20 0 31 9.5t11 27.5v649q0 32 -21 32h-100q-21 0 -21 -32v-649q0 -18 11 -27.5t31 -9.5
q9 0 9 -7q0 -8 -9 -8h-164q-9 0 -9 8q0 7 9 7q20 0 31 9.5t11 27.5v649q0 32 -21 32h-1q-59 0 -96.5 -56.5t-52 -95.5t-17.5 -45q-5 -10 -11 -9q-5 3 -4 13l53 198q2 4 5.5 7t7.5 3h576q4 0 7.5 -3t5.5 -7z" />
    <glyph glyph-name="s_t" unicode="&#xe050;" horiz-adv-x="527" 
d="M517 74.5q1 -4.5 -1 -9.5q-12 -32 -30.5 -53.5t-50.5 -21.5q-52 0 -72.5 31.5t-20.5 98.5v415h-182q-26 0 -37.5 -13.5t-11.5 -41.5q0 -51 23 -90.5t68 -90.5q43 -49 64 -83.5t21 -78.5q0 -58 -29 -102.5t-88 -44.5q-24 0 -40.5 8t-33.5 22q-15 12 -22 12
q-15 0 -14.5 -13.5t0.5 -14.5q0 -9 -7 -9t-7 9v200q0 9 7 9t7 -9q0 -41 14.5 -88t38.5 -79t51 -32q26 0 40 21t14 56q0 42 -21 77t-65 87q-45 52 -68.5 91.5t-23.5 86.5q0 57 30 91.5t85 34.5h187v113q0 4 3 7t7 3q33 3 44 24.5t11 55.5q0 8 7 8h1q7 0 7 -8v-203h62
q8 0 8 -7v-1q0 -7 -8 -7h-62v-455q0 -37 7 -52t22 -15q17 0 33 19.5t20 38.5q2 8 7 8t6 -4.5z" />
    <glyph glyph-name="t_t" unicode="&#xe051;" horiz-adv-x="425" 
d="M414.5 74.5q1.5 -4.5 -0.5 -9.5q-12 -32 -30.5 -53.5t-50.5 -21.5q-36 0 -56.5 14.5t-28.5 45.5q-27 -60 -75 -60q-52 0 -72.5 31.5t-20.5 98.5v415h-62q-8 0 -8 7v1q0 7 8 7h62v113q0 4 3 7t7 3q33 3 44 24.5t11 55.5q0 8 7 8h1q7 0 7 -8v-203h80v113q0 4 3 7t7 3
q33 3 44 24.5t11 55.5q0 8 7 8h1q7 0 7 -8v-203h62q8 0 8 -7v-1q0 -7 -8 -7h-62v-455q0 -37 7 -52t22 -15q17 0 30.5 17.5t19.5 39.5q3 9 9 9q5 0 6.5 -4.5zM221 30q14 17 22 43q-3 21 -3 47v415h-80v-455q0 -37 7 -52t22 -15q18 0 32 17z" />
    </font>
</defs>
</svg>
