<svg width="1440" height="400" viewBox="0 0 1440 400" fill="none" xmlns="http://www.w3.org/2000/svg">
<path d="M413.3 173.8C413.633 173.467 413.933 173.3 414.2 173.3C414.4 173.3 414.567 173.467 414.7 173.8C414.767 173.933 414.633 174.3 414.3 174.9C413.967 175.433 413.233 176.667 412.1 178.6C410.567 181.067 409.067 183.9 407.6 187.1C406.133 190.3 404.767 193.633 403.5 197.1C402.233 200.567 401.167 203.967 400.3 207.3C399.5 210.7 399 213.8 398.8 216.6C398.667 219.4 398.833 221.5 399.3 222.9C399.833 224.3 400.733 225.167 402 225.5C404.533 225.5 406.733 224.7 408.6 223.1C410.533 221.5 412.267 219.8 413.8 218C417.6 213.533 421.033 208.7 424.1 203.5C427.167 198.3 430 192.467 432.6 186C434.267 181.8 435.5 177.833 436.3 174.1C437.1 170.367 437.333 167.333 437 165C436.8 163.667 436.367 162.567 435.7 161.7C435.367 161.3 435.167 161.033 435.1 160.9C435.1 160.7 435.167 160.5 435.3 160.3C435.433 160.167 435.567 160.1 435.7 160.1C436.033 160.1 436.4 160.433 436.8 161.1C437.2 161.7 437.533 162.533 437.8 163.6C438 164.4 438.1 165.2 438.1 166C438.167 166.8 438.133 167.9 438 169.3C437.8 171.7 437.333 174.267 436.6 177C435.867 179.733 434.967 182.467 433.9 185.2C432.833 187.933 431.7 190.6 430.5 193.2C429.3 195.8 428.133 198.167 427 200.3C426 202.367 424.567 204.9 422.7 207.9C420.9 210.967 418.9 213.9 416.7 216.7C414.5 219.567 412.2 222 409.8 224C407.4 226 405.133 227 403 227C400.933 227 399.5 226.2 398.7 224.6C397.967 223.067 397.6 221.4 397.6 219.6C397.6 215 398.233 210.433 399.5 205.9C400.833 201.367 402.267 196.9 403.8 192.5L404.5 190.6L402 194.6C400.333 197.2 398.533 199.9 396.6 202.7C394.733 205.567 392.867 208.333 391 211C389.2 213.733 387.467 216.233 385.8 218.5C384.2 220.767 382.867 222.6 381.8 224C381.2 224.867 380.2 226.233 378.8 228.1C377.4 229.967 375.867 231.833 374.2 233.7C372.467 235.633 370.733 237.3 369 238.7C367.2 240.167 365.7 240.9 364.5 240.9C363.833 240.9 363.367 240.767 363.1 240.5C362.633 240.167 362.367 239.7 362.3 239.1C362.167 238.567 362.167 237.733 362.3 236.6C362.5 235.067 362.933 233.3 363.6 231.3C364.2 229.367 365.2 226.633 366.6 223.1C368.333 218.7 370.4 214.3 372.8 209.9C375.133 205.5 377.667 201.133 380.4 196.8C383.133 192.467 385.933 188.233 388.8 184.1C391.667 179.9 394.467 175.867 397.2 172C397.733 171.333 398.2 170.7 398.6 170.1C399 169.5 399.267 169.1 399.4 168.9L399.9 168.1L399.1 169C398.1 170.067 397.1 171.133 396.1 172.2C395.1 173.2 394.433 173.833 394.1 174.1C392.167 175.633 390.5 176.4 389.1 176.4C388.233 176.4 387.6 176.067 387.2 175.4C387 175 386.967 174.633 387.1 174.3C387.3 173.967 387.567 173.8 387.9 173.8C388.3 173.8 388.567 174 388.7 174.4C388.767 174.6 389 174.7 389.4 174.7C389.733 174.7 390.2 174.6 390.8 174.4C391.4 174.133 392.033 173.733 392.7 173.2C392.967 173 393.367 172.667 393.9 172.2C394.433 171.667 395 171.067 395.6 170.4C396.267 169.733 396.933 169.033 397.6 168.3C398.267 167.567 398.867 166.867 399.4 166.2C399.8 165.8 400.2 165.367 400.6 164.9C401.067 164.433 401.467 164.033 401.8 163.7C402.067 163.433 402.4 163.1 402.8 162.7C403.2 162.233 403.567 161.833 403.9 161.5C404.233 161.167 404.533 160.867 404.8 160.6C405.067 160.267 405.267 160.067 405.4 160C405.533 159.933 405.633 159.867 405.7 159.8C405.767 159.733 405.833 159.7 405.9 159.7C406.033 159.7 406.2 159.767 406.4 159.9C406.667 160.033 406.833 160.167 406.9 160.3C406.967 160.633 406.767 161.133 406.3 161.8C405.9 162.467 405.1 163.633 403.9 165.3C403.367 165.967 402.767 166.767 402.1 167.7C401.5 168.567 400.967 169.3 400.5 169.9C400.1 170.5 399.6 171.2 399 172C398.4 172.8 397.9 173.467 397.5 174C394.833 177.6 392.1 181.4 389.3 185.4C386.5 189.333 383.8 193.367 381.2 197.5C378.533 201.633 376.067 205.8 373.8 210C371.467 214.2 369.467 218.367 367.8 222.5C366.133 226.5 364.967 229.7 364.3 232.1C363.567 234.567 363.233 236.567 363.3 238.1C363.3 238.7 363.367 239.067 363.5 239.2C363.633 239.4 363.867 239.533 364.2 239.6C364.733 239.667 365.367 239.467 366.1 239C366.833 238.6 367.867 237.867 369.2 236.8C372.667 233.733 377.533 227.967 383.8 219.5C385.067 217.7 386.567 215.533 388.3 213C390.1 210.533 391.933 207.9 393.8 205.1C395.733 202.367 397.6 199.633 399.4 196.9C401.2 194.167 402.8 191.7 404.2 189.5C404.8 188.567 405.3 187.8 405.7 187.2C406.1 186.533 406.433 185.933 406.7 185.4C407.033 184.867 407.333 184.367 407.6 183.9C407.867 183.367 408.133 182.8 408.4 182.2C409.467 180.067 410.4 178.267 411.2 176.8C412.067 175.333 412.767 174.333 413.3 173.8ZM444.618 179.2C444.418 179.2 444.218 179.133 444.018 179C443.818 178.8 443.718 178.6 443.718 178.4C443.718 178.067 443.885 177.6 444.218 177C444.618 176.4 445.018 176.1 445.418 176.1C445.685 176.1 445.918 176.2 446.118 176.4C446.518 177 446.518 177.5 446.118 177.9C445.918 178.1 445.751 178.267 445.618 178.4C445.485 178.467 445.351 178.6 445.218 178.8C445.018 179.067 444.818 179.2 444.618 179.2ZM445.118 198.9C442.785 200.433 441.051 201.467 439.918 202C438.851 202.533 437.851 202.867 436.918 203L436.618 203.1C436.085 203.1 435.618 202.933 435.218 202.6C434.818 202.267 434.551 201.9 434.418 201.5C434.151 200.5 434.285 199.167 434.818 197.5C435.285 195.833 436.385 193.3 438.118 189.9C438.851 188.5 439.451 187.367 439.918 186.5C440.385 185.633 440.751 184.967 441.018 184.5C441.351 183.967 441.618 183.567 441.818 183.3C442.018 183.033 442.218 182.8 442.418 182.6C442.751 182.267 442.985 182.1 443.118 182.1C443.251 182.1 443.418 182.2 443.618 182.4C443.818 182.6 443.918 182.767 443.918 182.9C443.918 182.967 443.851 183.2 443.718 183.6C443.585 183.933 443.418 184.3 443.218 184.7C443.018 185.1 442.818 185.467 442.618 185.8C442.485 186.067 442.385 186.2 442.318 186.2C442.251 186.267 442.051 186.3 441.718 186.3C441.585 186.3 441.418 186.4 441.218 186.6C441.085 186.8 440.751 187.367 440.218 188.3C439.151 190.233 438.285 191.833 437.618 193.1C436.951 194.3 436.451 195.333 436.118 196.2C435.785 197.067 435.551 197.833 435.418 198.5C435.285 199.1 435.218 199.733 435.218 200.4C435.218 200.933 435.285 201.333 435.418 201.6C435.751 201.933 436.185 202.1 436.718 202.1L437.018 202C437.885 201.867 438.885 201.5 440.018 200.9C441.151 200.3 443.051 199.2 445.718 197.6C447.451 196.6 448.985 195.733 450.318 195C451.651 194.267 452.885 193.6 454.018 193C455.218 192.4 456.351 191.9 457.418 191.5C458.551 191.033 459.785 190.6 461.118 190.2C462.185 189.867 462.785 189.733 462.918 189.8C463.185 189.8 463.218 189.9 463.018 190.1C463.018 190.233 462.851 190.367 462.518 190.5C462.251 190.567 461.718 190.733 460.918 191C458.051 191.933 455.318 193.1 452.718 194.5C450.185 195.833 447.651 197.3 445.118 198.9ZM466.737 179.4C466.937 179.4 467.103 179.467 467.237 179.6C467.503 179.733 467.57 180 467.437 180.4C467.437 180.533 467.37 180.867 467.237 181.4C467.237 181.733 467.103 182.033 466.837 182.3C466.77 182.433 466.47 183.1 465.937 184.3C465.403 185.5 464.77 186.867 464.037 188.4C463.37 189.933 462.703 191.5 462.037 193.1C461.37 194.633 460.87 195.833 460.537 196.7C460.337 197.167 460.103 197.767 459.837 198.5C459.57 199.167 459.303 199.8 459.037 200.4C458.77 200.867 458.57 201.4 458.437 202C458.703 201.733 459.003 201.267 459.337 200.6C459.537 200.2 459.937 199.5 460.537 198.5C461.07 197.5 461.703 196.4 462.437 195.2C463.17 193.933 463.97 192.667 464.837 191.4C465.703 190.067 466.57 188.867 467.437 187.8C468.303 186.667 469.137 185.767 469.937 185.1C470.737 184.367 471.437 184 472.037 184C472.97 184 473.537 184.767 473.737 186.3C473.803 186.433 473.837 186.7 473.837 187.1C473.903 187.5 474.003 187.967 474.137 188.5C474.337 190.033 474.57 191.167 474.837 191.9C475.17 192.633 475.603 193.1 476.137 193.3C476.403 193.433 476.77 193.5 477.237 193.5C477.77 193.5 478.403 193.4 479.137 193.2C479.87 192.933 480.87 192.533 482.137 192C483.47 191.467 484.67 191 485.737 190.6C486.803 190.2 487.537 190 487.937 190C488.337 190 488.537 190.167 488.537 190.5C488.537 190.7 488.437 190.867 488.237 191C488.103 191.067 487.57 191.233 486.637 191.5C486.17 191.633 485.537 191.833 484.737 192.1C484.003 192.367 483.337 192.667 482.737 193C481.27 193.6 480.17 194.033 479.437 194.3C478.77 194.5 478.17 194.633 477.637 194.7C476.503 194.7 475.637 194.5 475.037 194.1C474.503 193.633 474.003 192.867 473.537 191.8C473.47 191.533 473.37 191.1 473.237 190.5C473.103 189.9 472.97 189.267 472.837 188.6C472.77 187.933 472.67 187.3 472.537 186.7C472.47 186.1 472.437 185.667 472.437 185.4C472.237 185.133 472.037 185 471.837 185C471.303 185 470.603 185.4 469.737 186.2C468.937 187 468.07 188.033 467.137 189.3C466.27 190.567 465.37 191.967 464.437 193.5C463.503 195.033 462.637 196.5 461.837 197.9C461.037 199.3 460.37 200.567 459.837 201.7C459.237 202.767 458.837 203.533 458.637 204C457.903 205.4 457.337 206.5 456.937 207.3C456.47 208.167 456.137 208.8 455.937 209.2C455.67 209.667 455.503 209.967 455.437 210.1C455.303 210.233 455.203 210.333 455.137 210.4H454.937C454.603 210.4 454.503 210.233 454.637 209.9C454.637 209.833 454.87 209.2 455.337 208C455.737 206.8 456.237 205.433 456.837 203.9C457.37 202.433 457.903 201 458.437 199.6C458.97 198.2 459.337 197.267 459.537 196.8C459.87 195.933 460.237 195 460.637 194C461.037 192.933 461.37 192.033 461.637 191.3C462.903 188.3 463.87 185.9 464.537 184.1C465.27 182.3 465.637 181.267 465.637 181C465.703 180.733 465.803 180.4 465.937 180C466.137 179.6 466.403 179.4 466.737 179.4ZM533.425 149.2C533.358 149.8 532.958 150.933 532.225 152.6C531.558 154.2 530.658 156.2 529.525 158.6C528.458 161 527.158 163.7 525.625 166.7C524.158 169.633 522.592 172.7 520.925 175.9C520.592 176.5 519.992 177.667 519.125 179.4C518.258 181.067 517.358 182.833 516.425 184.7C515.558 186.5 514.758 188.133 514.025 189.6C513.292 191.067 512.925 191.833 512.925 191.9H513.125H513.325L513.525 191.8C516.392 191.2 519.192 190.7 521.925 190.3C524.658 189.9 527.425 189.7 530.225 189.7C531.358 189.7 532.058 189.767 532.325 189.9C532.658 189.967 532.758 190.167 532.625 190.5C532.558 190.633 532.458 190.733 532.325 190.8C532.192 190.8 531.825 190.8 531.225 190.8C528.225 190.8 525.325 191 522.525 191.4C519.792 191.8 517.025 192.367 514.225 193.1C512.892 193.433 512.125 193.7 511.925 193.9C511.725 194.033 511.792 194.433 512.125 195.1C512.325 195.633 512.458 196.167 512.525 196.7C512.592 197.167 512.558 197.933 512.425 199C512.292 201 511.958 203.033 511.425 205.1C510.825 207.167 509.858 209.867 508.525 213.2C507.992 214.4 507.325 215.967 506.525 217.9C505.725 219.833 504.858 221.8 503.925 223.8C502.992 225.867 502.058 227.767 501.125 229.5C500.192 231.3 499.358 232.633 498.625 233.5C497.825 234.367 497.225 234.8 496.825 234.8C496.625 234.8 496.425 234.7 496.225 234.5C496.092 234.367 496.025 234.233 496.025 234.1C496.025 234.033 496.025 233.733 496.025 233.2C496.158 231.933 496.525 230.333 497.125 228.4C497.658 226.467 498.358 224.333 499.225 222C500.025 219.733 500.925 217.367 501.925 214.9C502.858 212.5 503.825 210.133 504.825 207.8C505.825 205.533 506.758 203.4 507.625 201.4C508.492 199.4 509.225 197.733 509.825 196.4C509.958 196.133 510.058 195.9 510.125 195.7C510.192 195.5 510.292 195.333 510.425 195.2V195C510.492 195 510.525 194.967 510.525 194.9C510.525 194.833 510.425 194.767 510.225 194.7C510.025 194.567 509.858 194.5 509.725 194.5C509.658 194.5 509.325 194.6 508.725 194.8C507.992 195 507.525 195.1 507.325 195.1C507.125 195.1 506.958 195.033 506.825 194.9C506.492 194.567 506.558 194.2 507.025 193.8C507.158 193.667 507.625 193.467 508.425 193.2C509.225 192.933 510.092 192.667 511.025 192.4C511.425 192.267 511.692 192.2 511.825 192.2C511.892 192.133 511.992 191.967 512.125 191.7C512.858 190.167 513.892 188.033 515.225 185.3C516.558 182.5 518.492 178.533 521.025 173.4C521.958 171.6 522.892 169.733 523.825 167.8C524.758 165.867 525.658 163.967 526.525 162.1C527.392 160.233 528.158 158.467 528.825 156.8C529.558 155.133 530.192 153.667 530.725 152.4L531.125 151.4L530.725 151.1C530.525 150.9 530.425 150.7 530.425 150.5C530.425 150.167 530.692 149.667 531.225 149C531.758 148.267 532.225 147.9 532.625 147.9C532.825 147.9 533.025 148 533.225 148.2C533.425 148.533 533.492 148.867 533.425 149.2ZM496.825 233.9L497.125 233.6C497.725 233.133 498.458 232.167 499.325 230.7C500.192 229.3 501.092 227.633 502.025 225.7C502.958 223.767 503.925 221.667 504.925 219.4C505.858 217.2 506.725 215.067 507.525 213C508.325 211 509.025 209.167 509.625 207.5C510.225 205.9 510.625 204.7 510.825 203.9C511.158 202.433 511.392 201.033 511.525 199.7C511.592 198.367 511.558 197.333 511.425 196.6C511.292 196.067 511.225 195.833 511.225 195.9C511.092 195.767 510.958 195.867 510.825 196.2C510.692 196.467 510.292 197.267 509.625 198.6C509.092 199.733 508.425 201.167 507.625 202.9C506.825 204.7 505.958 206.667 505.025 208.8C504.092 210.933 503.158 213.133 502.225 215.4C501.292 217.667 500.425 219.867 499.625 222C498.825 224.2 498.192 226.233 497.725 228.1C497.192 229.967 496.892 231.533 496.825 232.8V233.9ZM536.463 179.4C536.663 179.4 536.83 179.467 536.963 179.6C537.23 179.733 537.297 180 537.163 180.4C537.163 180.533 537.097 180.867 536.963 181.4C536.963 181.733 536.83 182.033 536.563 182.3C536.497 182.433 536.197 183.1 535.663 184.3C535.13 185.5 534.497 186.867 533.763 188.4C533.097 189.933 532.43 191.5 531.763 193.1C531.097 194.633 530.597 195.833 530.263 196.7C530.063 197.167 529.83 197.767 529.563 198.5C529.297 199.167 529.03 199.8 528.763 200.4C528.497 200.867 528.297 201.4 528.163 202C528.43 201.733 528.73 201.267 529.063 200.6C529.263 200.2 529.663 199.5 530.263 198.5C530.797 197.5 531.43 196.4 532.163 195.2C532.897 193.933 533.697 192.667 534.563 191.4C535.43 190.067 536.297 188.867 537.163 187.8C538.03 186.667 538.863 185.767 539.663 185.1C540.463 184.367 541.163 184 541.763 184C542.697 184 543.263 184.767 543.463 186.3C543.53 186.433 543.563 186.7 543.563 187.1C543.63 187.5 543.73 187.967 543.863 188.5C544.063 190.033 544.297 191.167 544.563 191.9C544.897 192.633 545.33 193.1 545.863 193.3C546.13 193.433 546.497 193.5 546.963 193.5C547.497 193.5 548.13 193.4 548.863 193.2C549.597 192.933 550.597 192.533 551.863 192C553.197 191.467 554.397 191 555.463 190.6C556.53 190.2 557.263 190 557.663 190C558.063 190 558.263 190.167 558.263 190.5C558.263 190.7 558.163 190.867 557.963 191C557.83 191.067 557.297 191.233 556.363 191.5C555.897 191.633 555.263 191.833 554.463 192.1C553.73 192.367 553.063 192.667 552.463 193C550.997 193.6 549.897 194.033 549.163 194.3C548.497 194.5 547.897 194.633 547.363 194.7C546.23 194.7 545.363 194.5 544.763 194.1C544.23 193.633 543.73 192.867 543.263 191.8C543.197 191.533 543.097 191.1 542.963 190.5C542.83 189.9 542.697 189.267 542.563 188.6C542.497 187.933 542.397 187.3 542.263 186.7C542.197 186.1 542.163 185.667 542.163 185.4C541.963 185.133 541.763 185 541.563 185C541.03 185 540.33 185.4 539.463 186.2C538.663 187 537.797 188.033 536.863 189.3C535.997 190.567 535.097 191.967 534.163 193.5C533.23 195.033 532.363 196.5 531.563 197.9C530.763 199.3 530.097 200.567 529.563 201.7C528.963 202.767 528.563 203.533 528.363 204C527.63 205.4 527.063 206.5 526.663 207.3C526.197 208.167 525.863 208.8 525.663 209.2C525.397 209.667 525.23 209.967 525.163 210.1C525.03 210.233 524.93 210.333 524.863 210.4H524.663C524.33 210.4 524.23 210.233 524.363 209.9C524.363 209.833 524.597 209.2 525.063 208C525.463 206.8 525.963 205.433 526.563 203.9C527.097 202.433 527.63 201 528.163 199.6C528.697 198.2 529.063 197.267 529.263 196.8C529.597 195.933 529.963 195 530.363 194C530.763 192.933 531.097 192.033 531.363 191.3C532.63 188.3 533.597 185.9 534.263 184.1C534.997 182.3 535.363 181.267 535.363 181C535.43 180.733 535.53 180.4 535.663 180C535.863 179.6 536.13 179.4 536.463 179.4ZM557.952 212.8C555.418 214.933 553.385 216 551.852 216C550.918 216 550.252 215.7 549.852 215.1C549.452 214.5 549.185 213.767 549.052 212.9C548.652 209.5 549.785 204.833 552.452 198.9C552.918 197.833 553.752 196.267 554.952 194.2C556.085 192.133 557.385 190.067 558.852 188C560.385 185.933 561.985 184.133 563.652 182.6C565.318 181.067 566.852 180.3 568.252 180.3L568.452 180.4H568.652C569.585 180.933 569.152 182.533 567.352 185.2C565.752 187.4 563.952 189.533 561.952 191.6C560.018 193.6 557.885 195.333 555.552 196.8L554.052 197.8L553.452 198.9C552.652 200.567 551.918 202.367 551.252 204.3C550.585 206.3 550.152 207.967 549.952 209.3C549.818 210.5 549.818 211.567 549.952 212.5C550.018 213.5 550.218 214.167 550.552 214.5C550.885 214.833 551.285 215 551.752 215C552.618 215 553.785 214.567 555.252 213.7C555.785 213.367 556.318 212.967 556.852 212.5C557.385 212.1 558.018 211.533 558.752 210.8C559.485 210.133 560.385 209.3 561.452 208.3C562.518 207.3 563.852 206.033 565.452 204.5C566.785 203.167 567.918 202.067 568.852 201.2C569.785 200.267 570.618 199.467 571.352 198.8C572.152 198.067 572.852 197.433 573.452 196.9C574.118 196.3 574.818 195.667 575.552 195C577.485 193.4 578.752 192.367 579.352 191.9C580.018 191.367 580.418 191.167 580.552 191.3C580.752 191.5 580.552 191.833 579.952 192.3C579.618 192.5 579.152 192.867 578.552 193.4C577.952 193.867 577.318 194.4 576.652 195C575.985 195.6 575.318 196.167 574.652 196.7C574.052 197.233 573.552 197.667 573.152 198C572.218 198.867 571.218 199.833 570.152 200.9C569.085 201.967 567.485 203.567 565.352 205.7C564.218 206.833 563.252 207.767 562.452 208.5C561.718 209.233 561.085 209.867 560.552 210.4C560.018 210.933 559.552 211.367 559.152 211.7C558.752 212.1 558.352 212.467 557.952 212.8ZM559.852 191.8C560.785 190.933 561.685 190.033 562.552 189.1C563.485 188.1 564.318 187.167 565.052 186.3C565.785 185.367 566.385 184.533 566.852 183.8C567.385 183 567.718 182.333 567.852 181.8C567.852 181.667 567.752 181.633 567.552 181.7C566.752 181.9 565.718 182.567 564.452 183.7C563.185 184.833 561.918 186.167 560.652 187.7C560.252 188.167 559.752 188.833 559.152 189.7C558.552 190.5 557.985 191.3 557.452 192.1C556.918 192.9 556.485 193.6 556.152 194.2C555.752 194.733 555.585 195 555.652 195C555.652 195 555.818 194.9 556.152 194.7C556.485 194.5 556.885 194.233 557.352 193.9C557.752 193.567 558.185 193.233 558.652 192.9C559.118 192.5 559.518 192.133 559.852 191.8ZM584.524 180.4C584.858 180.4 585.124 180.633 585.324 181.1C585.658 181.633 585.658 182.1 585.324 182.5C585.191 182.633 584.991 182.7 584.724 182.7C584.458 182.7 584.324 182.667 584.324 182.6L584.124 182.4C584.124 182.4 583.991 182.633 583.724 183.1C583.524 183.5 583.258 184 582.924 184.6C582.658 185.2 582.358 185.867 582.024 186.6C581.758 187.267 581.524 187.833 581.324 188.3C580.391 190.767 579.591 193.067 578.924 195.2C578.258 197.333 577.691 199.333 577.224 201.2C576.958 202.133 576.824 202.8 576.824 203.2C576.758 203.667 576.724 204.4 576.724 205.4C576.724 206.4 576.724 207.033 576.724 207.3C576.724 207.567 576.791 207.767 576.924 207.9C577.124 208.1 577.324 208.2 577.524 208.2C577.924 208.2 578.458 207.867 579.124 207.2C579.724 206.6 580.324 205.867 580.924 205C581.591 204.2 582.158 203.4 582.624 202.6C583.158 201.8 583.524 201.267 583.724 201C583.991 200.533 584.491 199.733 585.224 198.6C586.024 197.4 586.924 196.067 587.924 194.6C588.991 193.133 590.124 191.6 591.324 190C592.524 188.4 593.658 186.967 594.724 185.7C595.858 184.367 596.891 183.3 597.824 182.5C598.758 181.633 599.491 181.2 600.024 181.2C601.024 181.2 601.424 181.967 601.224 183.5C601.224 183.7 601.124 184.167 600.924 184.9C600.791 185.633 600.658 186.367 600.524 187.1C599.991 189.367 599.691 191.133 599.624 192.4C599.558 193.6 599.691 194.533 600.024 195.2C600.291 196 600.891 196.4 601.824 196.4C602.424 196.4 603.224 196.2 604.224 195.8C605.224 195.333 606.824 194.467 609.024 193.2C611.358 191.867 612.924 191 613.724 190.6C614.591 190.133 615.091 189.933 615.224 190C615.558 190.2 615.591 190.4 615.324 190.6C615.124 190.8 614.458 191.2 613.324 191.8C612.791 192.133 612.024 192.567 611.024 193.1C610.024 193.633 609.124 194.167 608.324 194.7C606.391 195.9 604.991 196.667 604.124 197C603.324 197.267 602.558 197.4 601.824 197.4C600.424 197.4 599.524 196.933 599.124 196C598.791 195 598.624 193.9 598.624 192.7C598.624 191.833 598.691 190.967 598.824 190.1C598.958 189.233 599.191 187.933 599.524 186.2C599.791 185 599.958 184.033 600.024 183.3C600.158 182.567 600.158 182.167 600.024 182.1C599.891 182.1 599.624 182.2 599.224 182.4C598.291 182.867 597.191 183.867 595.924 185.4C594.658 186.867 593.358 188.533 592.024 190.4C590.758 192.2 589.524 194 588.324 195.8C587.124 197.6 586.158 199.067 585.424 200.2C584.558 201.6 583.824 202.733 583.224 203.6C582.691 204.533 582.224 205.267 581.824 205.8C581.424 206.4 581.058 206.833 580.724 207.1C580.458 207.433 580.191 207.733 579.924 208C579.391 208.533 578.958 208.867 578.624 209C578.291 209.2 577.924 209.3 577.524 209.3C576.724 209.3 576.224 208.833 576.024 207.9C575.958 207.7 575.924 207.333 575.924 206.8C575.858 206.333 575.858 205.8 575.924 205.2C575.924 204.6 575.958 204 576.024 203.4C576.091 202.8 576.191 202.267 576.324 201.8C576.391 201.4 576.591 200.6 576.924 199.4C577.258 198.2 577.658 196.833 578.124 195.3C578.591 193.7 579.124 192.067 579.724 190.4C580.258 188.667 580.791 187.1 581.324 185.7C581.924 184.233 582.458 183.033 582.924 182.1C583.458 181.1 583.891 180.567 584.224 180.5C584.291 180.433 584.391 180.4 584.524 180.4ZM614.983 212.8C612.449 214.933 610.416 216 608.883 216C607.949 216 607.283 215.7 606.883 215.1C606.483 214.5 606.216 213.767 606.083 212.9C605.683 209.5 606.816 204.833 609.483 198.9C609.949 197.833 610.783 196.267 611.983 194.2C613.116 192.133 614.416 190.067 615.883 188C617.416 185.933 619.016 184.133 620.683 182.6C622.349 181.067 623.883 180.3 625.283 180.3L625.483 180.4H625.683C626.616 180.933 626.183 182.533 624.383 185.2C622.783 187.4 620.983 189.533 618.983 191.6C617.049 193.6 614.916 195.333 612.583 196.8L611.083 197.8L610.483 198.9C609.683 200.567 608.949 202.367 608.283 204.3C607.616 206.3 607.183 207.967 606.983 209.3C606.849 210.5 606.849 211.567 606.983 212.5C607.049 213.5 607.249 214.167 607.583 214.5C607.916 214.833 608.316 215 608.783 215C609.649 215 610.816 214.567 612.283 213.7C612.816 213.367 613.349 212.967 613.883 212.5C614.416 212.1 615.049 211.533 615.783 210.8C616.516 210.133 617.416 209.3 618.483 208.3C619.549 207.3 620.883 206.033 622.483 204.5C623.816 203.167 624.949 202.067 625.883 201.2C626.816 200.267 627.649 199.467 628.383 198.8C629.183 198.067 629.883 197.433 630.483 196.9C631.149 196.3 631.849 195.667 632.583 195C634.516 193.4 635.783 192.367 636.383 191.9C637.049 191.367 637.449 191.167 637.583 191.3C637.783 191.5 637.583 191.833 636.983 192.3C636.649 192.5 636.183 192.867 635.583 193.4C634.983 193.867 634.349 194.4 633.683 195C633.016 195.6 632.349 196.167 631.683 196.7C631.083 197.233 630.583 197.667 630.183 198C629.249 198.867 628.249 199.833 627.183 200.9C626.116 201.967 624.516 203.567 622.383 205.7C621.249 206.833 620.283 207.767 619.483 208.5C618.749 209.233 618.116 209.867 617.583 210.4C617.049 210.933 616.583 211.367 616.183 211.7C615.783 212.1 615.383 212.467 614.983 212.8ZM616.883 191.8C617.816 190.933 618.716 190.033 619.583 189.1C620.516 188.1 621.349 187.167 622.083 186.3C622.816 185.367 623.416 184.533 623.883 183.8C624.416 183 624.749 182.333 624.883 181.8C624.883 181.667 624.783 181.633 624.583 181.7C623.783 181.9 622.749 182.567 621.483 183.7C620.216 184.833 618.949 186.167 617.683 187.7C617.283 188.167 616.783 188.833 616.183 189.7C615.583 190.5 615.016 191.3 614.483 192.1C613.949 192.9 613.516 193.6 613.183 194.2C612.783 194.733 612.616 195 612.683 195C612.683 195 612.849 194.9 613.183 194.7C613.516 194.5 613.916 194.233 614.383 193.9C614.783 193.567 615.216 193.233 615.683 192.9C616.149 192.5 616.549 192.133 616.883 191.8ZM643.855 179.4C643.789 180.067 643.489 180.4 642.955 180.4C642.755 180.533 642.322 181.2 641.655 182.4C641.055 183.6 640.322 185.133 639.455 187C638.655 188.8 637.789 190.833 636.855 193.1C635.922 195.3 635.055 197.467 634.255 199.6C633.389 201.667 632.622 203.533 631.955 205.2C631.289 206.933 630.855 208.233 630.655 209.1L630.455 209.7L630.755 209.3C630.889 209.167 631.289 208.6 631.955 207.6C632.555 206.667 633.322 205.533 634.255 204.2C636.789 200.333 638.855 197.333 640.455 195.2C642.122 193.067 643.689 191.2 645.155 189.6C647.755 186.8 649.689 185.4 650.955 185.4C651.289 185.4 651.555 185.5 651.755 185.7C652.222 186.033 652.522 186.7 652.655 187.7C652.789 188.7 652.822 190.267 652.755 192.4C652.689 195.4 652.789 197.533 653.055 198.8C653.389 200.067 653.955 200.867 654.755 201.2C655.155 201.4 655.589 201.5 656.055 201.5C656.989 201.5 658.222 201.133 659.755 200.4C661.355 199.667 663.422 198.533 665.955 197C666.222 196.867 666.955 196.433 668.155 195.7C669.355 194.9 670.622 194.067 671.955 193.2C673.355 192.333 674.622 191.567 675.755 190.9C676.889 190.167 677.489 189.8 677.555 189.8C677.689 189.8 677.755 189.867 677.755 190C677.755 190.067 677.722 190.133 677.655 190.2C677.589 190.267 677.355 190.433 676.955 190.7C676.555 190.967 675.922 191.367 675.055 191.9C674.255 192.433 673.089 193.2 671.555 194.2C669.489 195.467 667.755 196.533 666.355 197.4C665.022 198.267 663.889 198.967 662.955 199.5C662.089 200.033 661.355 200.467 660.755 200.8C660.155 201.133 659.555 201.4 658.955 201.6C657.755 202 656.755 202.2 655.955 202.2C654.289 202.2 653.155 201.367 652.555 199.7C652.355 199.033 652.189 198.233 652.055 197.3C651.989 196.3 651.955 194.833 651.955 192.9C651.955 190.3 651.889 188.533 651.755 187.6C651.622 186.6 651.289 186.1 650.755 186.1C650.089 186.1 649.322 186.467 648.455 187.2C647.589 187.933 646.622 188.867 645.555 190C644.555 191.067 643.522 192.3 642.455 193.7C641.455 195.1 640.489 196.467 639.555 197.8C638.622 199.067 637.789 200.267 637.055 201.4C636.322 202.467 635.789 203.267 635.455 203.8C635.389 203.933 635.122 204.367 634.655 205.1C634.122 205.9 633.589 206.733 633.055 207.6C632.455 208.467 631.889 209.233 631.355 209.9C630.822 210.633 630.455 211 630.255 211C630.189 211 630.122 210.967 630.055 210.9C629.789 210.767 629.689 210.6 629.755 210.4C629.755 210.2 629.855 209.667 630.055 208.8C630.255 208.067 630.555 207.167 630.955 206.1C631.289 205.033 631.789 203.7 632.455 202.1C633.055 200.5 633.822 198.6 634.755 196.4C635.622 194.133 636.689 191.433 637.955 188.3C638.422 187.233 638.889 186.167 639.355 185.1C639.822 183.967 640.155 183.133 640.355 182.6C640.555 182.133 640.789 181.533 641.055 180.8C641.389 180.067 641.689 179.367 641.955 178.7C642.289 177.967 642.589 177.333 642.855 176.8C643.122 176.267 643.289 175.933 643.355 175.8C643.422 175.4 643.655 175.2 644.055 175.2C644.322 175.2 644.555 175.333 644.755 175.6C644.822 175.733 644.822 175.9 644.755 176.1C644.755 176.233 644.622 176.633 644.355 177.3C644.022 178.3 643.855 179 643.855 179.4ZM706.497 180.4C706.83 180.4 707.097 180.633 707.297 181.1C707.63 181.633 707.63 182.1 707.297 182.5C707.164 182.633 706.964 182.7 706.697 182.7C706.43 182.7 706.297 182.667 706.297 182.6L706.097 182.4C706.097 182.4 705.964 182.633 705.697 183.1C705.497 183.5 705.23 184 704.897 184.6C704.63 185.2 704.33 185.867 703.997 186.6C703.73 187.267 703.497 187.833 703.297 188.3C702.364 190.767 701.564 193.067 700.897 195.2C700.23 197.333 699.664 199.333 699.197 201.2C698.93 202.133 698.797 202.8 698.797 203.2C698.73 203.667 698.697 204.4 698.697 205.4C698.697 206.4 698.697 207.033 698.697 207.3C698.697 207.567 698.764 207.767 698.897 207.9C699.097 208.1 699.297 208.2 699.497 208.2C699.897 208.2 700.43 207.867 701.097 207.2C701.697 206.6 702.297 205.867 702.897 205C703.564 204.2 704.13 203.4 704.597 202.6C705.13 201.8 705.497 201.267 705.697 201C705.964 200.533 706.464 199.733 707.197 198.6C707.997 197.4 708.897 196.067 709.897 194.6C710.964 193.133 712.097 191.6 713.297 190C714.497 188.4 715.63 186.967 716.697 185.7C717.83 184.367 718.864 183.3 719.797 182.5C720.73 181.633 721.464 181.2 721.997 181.2C722.997 181.2 723.397 181.967 723.197 183.5C723.197 183.7 723.097 184.167 722.897 184.9C722.764 185.633 722.63 186.367 722.497 187.1C721.964 189.367 721.664 191.133 721.597 192.4C721.53 193.6 721.664 194.533 721.997 195.2C722.264 196 722.864 196.4 723.797 196.4C724.397 196.4 725.197 196.2 726.197 195.8C727.197 195.333 728.797 194.467 730.997 193.2C733.33 191.867 734.897 191 735.697 190.6C736.564 190.133 737.064 189.933 737.197 190C737.53 190.2 737.564 190.4 737.297 190.6C737.097 190.8 736.43 191.2 735.297 191.8C734.764 192.133 733.997 192.567 732.997 193.1C731.997 193.633 731.097 194.167 730.297 194.7C728.364 195.9 726.964 196.667 726.097 197C725.297 197.267 724.53 197.4 723.797 197.4C722.397 197.4 721.497 196.933 721.097 196C720.764 195 720.597 193.9 720.597 192.7C720.597 191.833 720.664 190.967 720.797 190.1C720.93 189.233 721.164 187.933 721.497 186.2C721.764 185 721.93 184.033 721.997 183.3C722.13 182.567 722.13 182.167 721.997 182.1C721.864 182.1 721.597 182.2 721.197 182.4C720.264 182.867 719.164 183.867 717.897 185.4C716.63 186.867 715.33 188.533 713.997 190.4C712.73 192.2 711.497 194 710.297 195.8C709.097 197.6 708.13 199.067 707.397 200.2C706.53 201.6 705.797 202.733 705.197 203.6C704.664 204.533 704.197 205.267 703.797 205.8C703.397 206.4 703.03 206.833 702.697 207.1C702.43 207.433 702.164 207.733 701.897 208C701.364 208.533 700.93 208.867 700.597 209C700.264 209.2 699.897 209.3 699.497 209.3C698.697 209.3 698.197 208.833 697.997 207.9C697.93 207.7 697.897 207.333 697.897 206.8C697.83 206.333 697.83 205.8 697.897 205.2C697.897 204.6 697.93 204 697.997 203.4C698.064 202.8 698.164 202.267 698.297 201.8C698.364 201.4 698.564 200.6 698.897 199.4C699.23 198.2 699.63 196.833 700.097 195.3C700.564 193.7 701.097 192.067 701.697 190.4C702.23 188.667 702.764 187.1 703.297 185.7C703.897 184.233 704.43 183.033 704.897 182.1C705.43 181.1 705.864 180.567 706.197 180.5C706.264 180.433 706.364 180.4 706.497 180.4ZM743.855 179.4C743.789 180.067 743.489 180.4 742.955 180.4C742.755 180.533 742.322 181.2 741.655 182.4C741.055 183.6 740.322 185.133 739.455 187C738.655 188.8 737.789 190.833 736.855 193.1C735.922 195.3 735.055 197.467 734.255 199.6C733.389 201.667 732.622 203.533 731.955 205.2C731.289 206.933 730.855 208.233 730.655 209.1L730.455 209.7L730.755 209.3C730.889 209.167 731.289 208.6 731.955 207.6C732.555 206.667 733.322 205.533 734.255 204.2C736.789 200.333 738.855 197.333 740.455 195.2C742.122 193.067 743.689 191.2 745.155 189.6C747.755 186.8 749.689 185.4 750.955 185.4C751.289 185.4 751.555 185.5 751.755 185.7C752.222 186.033 752.522 186.7 752.655 187.7C752.789 188.7 752.822 190.267 752.755 192.4C752.689 195.4 752.789 197.533 753.055 198.8C753.389 200.067 753.955 200.867 754.755 201.2C755.155 201.4 755.589 201.5 756.055 201.5C756.989 201.5 758.222 201.133 759.755 200.4C761.355 199.667 763.422 198.533 765.955 197C766.222 196.867 766.955 196.433 768.155 195.7C769.355 194.9 770.622 194.067 771.955 193.2C773.355 192.333 774.622 191.567 775.755 190.9C776.889 190.167 777.489 189.8 777.555 189.8C777.689 189.8 777.755 189.867 777.755 190C777.755 190.067 777.722 190.133 777.655 190.2C777.589 190.267 777.355 190.433 776.955 190.7C776.555 190.967 775.922 191.367 775.055 191.9C774.255 192.433 773.089 193.2 771.555 194.2C769.489 195.467 767.755 196.533 766.355 197.4C765.022 198.267 763.889 198.967 762.955 199.5C762.089 200.033 761.355 200.467 760.755 200.8C760.155 201.133 759.555 201.4 758.955 201.6C757.755 202 756.755 202.2 755.955 202.2C754.289 202.2 753.155 201.367 752.555 199.7C752.355 199.033 752.189 198.233 752.055 197.3C751.989 196.3 751.955 194.833 751.955 192.9C751.955 190.3 751.889 188.533 751.755 187.6C751.622 186.6 751.289 186.1 750.755 186.1C750.089 186.1 749.322 186.467 748.455 187.2C747.589 187.933 746.622 188.867 745.555 190C744.555 191.067 743.522 192.3 742.455 193.7C741.455 195.1 740.489 196.467 739.555 197.8C738.622 199.067 737.789 200.267 737.055 201.4C736.322 202.467 735.789 203.267 735.455 203.8C735.389 203.933 735.122 204.367 734.655 205.1C734.122 205.9 733.589 206.733 733.055 207.6C732.455 208.467 731.889 209.233 731.355 209.9C730.822 210.633 730.455 211 730.255 211C730.189 211 730.122 210.967 730.055 210.9C729.789 210.767 729.689 210.6 729.755 210.4C729.755 210.2 729.855 209.667 730.055 208.8C730.255 208.067 730.555 207.167 730.955 206.1C731.289 205.033 731.789 203.7 732.455 202.1C733.055 200.5 733.822 198.6 734.755 196.4C735.622 194.133 736.689 191.433 737.955 188.3C738.422 187.233 738.889 186.167 739.355 185.1C739.822 183.967 740.155 183.133 740.355 182.6C740.555 182.133 740.789 181.533 741.055 180.8C741.389 180.067 741.689 179.367 741.955 178.7C742.289 177.967 742.589 177.333 742.855 176.8C743.122 176.267 743.289 175.933 743.355 175.8C743.422 175.4 743.655 175.2 744.055 175.2C744.322 175.2 744.555 175.333 744.755 175.6C744.822 175.733 744.822 175.9 744.755 176.1C744.755 176.233 744.622 176.633 744.355 177.3C744.022 178.3 743.855 179 743.855 179.4ZM783.397 191.5C782.864 191.5 782.33 191.5 781.797 191.5C781.264 191.5 780.73 191.533 780.197 191.6C779.664 191.667 779.197 191.7 778.797 191.7C778.464 191.7 778.197 191.7 777.997 191.7C777.664 191.7 777.297 191.667 776.897 191.6C776.564 191.533 776.397 191.3 776.397 190.9C776.33 190.433 776.697 189.6 777.497 188.4C778.364 187.133 779.364 185.9 780.497 184.7C781.697 183.433 782.83 182.333 783.897 181.4C785.03 180.4 785.83 179.9 786.297 179.9C786.43 179.9 786.564 179.967 786.697 180.1C787.03 180.433 786.997 180.967 786.597 181.7C786.264 182.3 785.93 182.6 785.597 182.6C785.33 182.6 785.164 182.5 785.097 182.3C785.03 182.233 784.964 182.2 784.897 182.2C784.697 182.2 784.164 182.6 783.297 183.4C782.497 184.133 781.63 185 780.697 186C779.83 187 779.03 187.967 778.297 188.9C777.63 189.767 777.297 190.333 777.297 190.6C777.297 190.733 777.464 190.8 777.797 190.8C777.93 190.8 778.13 190.8 778.397 190.8C778.664 190.733 778.964 190.7 779.297 190.7C779.964 190.633 780.63 190.6 781.297 190.6C781.964 190.6 782.664 190.6 783.397 190.6C784.264 190.6 785.03 190.6 785.697 190.6C786.43 190.6 786.93 190.633 787.197 190.7C788.197 190.967 788.897 191.433 789.297 192.1C789.764 192.7 790.03 193.467 790.097 194.4C790.164 195.733 789.93 197.1 789.397 198.5C788.93 199.9 788.03 201.7 786.697 203.9C786.43 204.367 786.197 204.767 785.997 205.1C785.797 205.433 785.73 205.6 785.797 205.6C789.064 203.133 792.33 200.8 795.597 198.6C798.864 196.333 802.33 194.3 805.997 192.5C807.53 191.767 808.797 191.2 809.797 190.8C810.797 190.333 811.464 190.1 811.797 190.1C811.864 190.1 811.93 190.133 811.997 190.2C812.13 190.467 811.83 190.733 811.097 191C809.23 191.6 806.897 192.633 804.097 194.1C801.364 195.567 798.597 197.233 795.797 199.1C792.997 200.9 790.397 202.733 787.997 204.6C785.664 206.533 783.964 208.2 782.897 209.6C782.497 210.133 781.764 211 780.697 212.2C779.697 213.467 778.497 214.867 777.097 216.4C775.764 217.933 774.33 219.5 772.797 221.1C771.264 222.7 769.797 224.167 768.397 225.5C766.997 226.9 765.73 228.033 764.597 228.9C763.464 229.767 762.63 230.2 762.097 230.2C761.497 230.2 761.364 229.833 761.697 229.1C762.097 228.3 763.197 226.967 764.997 225.1C766.73 223.233 768.664 221.233 770.797 219.1C772.93 217.033 774.997 215.067 776.997 213.2C778.997 211.333 780.464 210 781.397 209.2C782.197 208.533 782.997 207.667 783.797 206.6C784.664 205.533 785.43 204.4 786.097 203.2C786.83 202 787.43 200.8 787.897 199.6C788.43 198.333 788.797 197.2 788.997 196.2C789.397 193.667 788.797 192.2 787.197 191.8C786.864 191.667 786.33 191.6 785.597 191.6C784.93 191.533 784.197 191.5 783.397 191.5ZM772.397 218.8C771.464 219.8 770.464 220.867 769.397 222C768.33 223.2 767.364 224.267 766.497 225.2C765.63 226.133 764.964 226.867 764.497 227.4C764.03 228 763.897 228.233 764.097 228.1C765.23 227.3 766.53 226.2 767.997 224.8C769.464 223.467 770.964 222.033 772.497 220.5C773.964 218.967 775.364 217.433 776.697 215.9C778.03 214.367 779.13 213.033 779.997 211.9C780.264 211.633 780.464 211.367 780.597 211.1V211C780.53 211 780.197 211.233 779.597 211.7C779.064 212.233 778.397 212.867 777.597 213.6C776.797 214.4 775.93 215.267 774.997 216.2C774.064 217.133 773.197 218 772.397 218.8ZM849.065 187.4L848.065 188.4C847.798 188.667 847.365 189.133 846.765 189.8C846.165 190.4 845.565 191.067 844.965 191.8C841.698 195.267 839.098 197.8 837.165 199.4C835.232 200.933 833.698 201.7 832.565 201.7H832.265C831.932 201.7 831.698 201.667 831.565 201.6C831.432 201.533 831.298 201.433 831.165 201.3C831.032 201.033 830.965 200.7 830.965 200.3C831.098 198.7 831.865 196.767 833.265 194.5C834.598 192.233 836.232 190.067 838.165 188C840.165 185.867 842.232 184.067 844.365 182.6C846.498 181.133 848.398 180.4 850.065 180.4C850.998 180.4 851.832 180.6 852.565 181C852.898 181.333 853.132 181.433 853.265 181.3C853.265 181.3 853.332 181.267 853.465 181.2C853.665 181.2 853.832 181.333 853.965 181.6C854.098 181.867 854.098 182.167 853.965 182.5C853.832 182.633 853.865 182.933 854.065 183.4C854.132 183.8 854.132 184.333 854.065 185C853.998 185.333 853.865 185.8 853.665 186.4C853.532 187 853.265 187.333 852.865 187.4C852.065 187.4 851.832 186.9 852.165 185.9C852.232 185.767 852.298 185.633 852.365 185.5C852.432 185.3 852.465 185.133 852.465 185L852.565 184.4L852.365 184.8C852.232 184.933 851.932 185.367 851.465 186.1C851.065 186.767 850.598 187.567 850.065 188.5C849.598 189.367 849.098 190.267 848.565 191.2C848.098 192.067 847.732 192.733 847.465 193.2C846.132 196 845.032 198.6 844.165 201C843.298 203.4 842.832 205.367 842.765 206.9C842.632 207.9 842.665 208.567 842.865 208.9C843.132 209.3 843.598 209.5 844.265 209.5C844.865 209.5 845.532 209.267 846.265 208.8C847.065 208.4 847.865 207.867 848.665 207.2C849.465 206.6 850.198 205.967 850.865 205.3C851.532 204.7 852.065 204.2 852.465 203.8C852.998 203.333 853.798 202.6 854.865 201.6C855.932 200.533 857.032 199.4 858.165 198.2C859.365 197 860.498 195.833 861.565 194.7C862.632 193.567 863.432 192.7 863.965 192.1C864.832 191.167 865.398 190.567 865.665 190.3C865.998 189.967 866.232 189.8 866.365 189.8C866.432 189.8 866.498 189.833 866.565 189.9C866.898 190.033 866.998 190.233 866.865 190.5C866.732 190.767 866.298 191.267 865.565 192C865.098 192.533 864.198 193.5 862.865 194.9C861.598 196.233 860.232 197.667 858.765 199.2C857.365 200.667 856.032 202.033 854.765 203.3C853.498 204.633 852.632 205.533 852.165 206C850.365 207.733 848.832 208.967 847.565 209.7C846.298 210.5 845.198 210.9 844.265 210.9C843.332 210.9 842.598 210.6 842.065 210C841.598 209.4 841.365 208.667 841.365 207.8C841.365 206.867 841.532 205.667 841.865 204.2C842.265 202.733 842.765 201.167 843.365 199.5C843.965 197.767 844.665 196 845.465 194.2C846.332 192.333 847.232 190.567 848.165 188.9L849.065 187.4ZM848.365 186.5C849.365 185.5 850.098 184.733 850.565 184.2C851.098 183.667 851.465 183.267 851.665 183C851.865 182.733 851.965 182.567 851.965 182.5C851.965 182.433 851.932 182.367 851.865 182.3C851.665 182.033 851.365 181.867 850.965 181.8C850.632 181.733 850.298 181.7 849.965 181.7C848.298 181.7 846.432 182.433 844.365 183.9C842.298 185.3 840.332 187 838.465 189C836.665 191 835.165 193.067 833.965 195.2C832.698 197.267 832.065 198.967 832.065 200.3V200.7L832.465 200.6C832.798 200.533 833.298 200.333 833.965 200C834.565 199.667 835.132 199.333 835.665 199C836.998 198 838.598 196.6 840.465 194.8C842.398 192.933 845.032 190.167 848.365 186.5ZM870.755 180.4C871.088 180.4 871.355 180.633 871.555 181.1C871.888 181.633 871.888 182.1 871.555 182.5C871.421 182.633 871.221 182.7 870.955 182.7C870.688 182.7 870.555 182.667 870.555 182.6L870.355 182.4C870.355 182.4 870.221 182.633 869.955 183.1C869.755 183.5 869.488 184 869.155 184.6C868.888 185.2 868.588 185.867 868.255 186.6C867.988 187.267 867.755 187.833 867.555 188.3C866.621 190.767 865.821 193.067 865.155 195.2C864.488 197.333 863.921 199.333 863.455 201.2C863.188 202.133 863.055 202.8 863.055 203.2C862.988 203.667 862.955 204.4 862.955 205.4C862.955 206.4 862.955 207.033 862.955 207.3C862.955 207.567 863.021 207.767 863.155 207.9C863.355 208.1 863.555 208.2 863.755 208.2C864.155 208.2 864.688 207.867 865.355 207.2C865.955 206.6 866.555 205.867 867.155 205C867.821 204.2 868.388 203.4 868.855 202.6C869.388 201.8 869.755 201.267 869.955 201C870.221 200.533 870.721 199.733 871.455 198.6C872.255 197.4 873.155 196.067 874.155 194.6C875.221 193.133 876.355 191.6 877.555 190C878.755 188.4 879.888 186.967 880.955 185.7C882.088 184.367 883.121 183.3 884.055 182.5C884.988 181.633 885.721 181.2 886.255 181.2C887.255 181.2 887.655 181.967 887.455 183.5C887.455 183.7 887.355 184.167 887.155 184.9C887.021 185.633 886.888 186.367 886.755 187.1C886.221 189.367 885.921 191.133 885.855 192.4C885.788 193.6 885.921 194.533 886.255 195.2C886.521 196 887.121 196.4 888.055 196.4C888.655 196.4 889.455 196.2 890.455 195.8C891.455 195.333 893.055 194.467 895.255 193.2C897.588 191.867 899.155 191 899.955 190.6C900.821 190.133 901.321 189.933 901.455 190C901.788 190.2 901.821 190.4 901.555 190.6C901.355 190.8 900.688 191.2 899.555 191.8C899.021 192.133 898.255 192.567 897.255 193.1C896.255 193.633 895.355 194.167 894.555 194.7C892.621 195.9 891.221 196.667 890.355 197C889.555 197.267 888.788 197.4 888.055 197.4C886.655 197.4 885.755 196.933 885.355 196C885.021 195 884.855 193.9 884.855 192.7C884.855 191.833 884.921 190.967 885.055 190.1C885.188 189.233 885.421 187.933 885.755 186.2C886.021 185 886.188 184.033 886.255 183.3C886.388 182.567 886.388 182.167 886.255 182.1C886.121 182.1 885.855 182.2 885.455 182.4C884.521 182.867 883.421 183.867 882.155 185.4C880.888 186.867 879.588 188.533 878.255 190.4C876.988 192.2 875.755 194 874.555 195.8C873.355 197.6 872.388 199.067 871.655 200.2C870.788 201.6 870.055 202.733 869.455 203.6C868.921 204.533 868.455 205.267 868.055 205.8C867.655 206.4 867.288 206.833 866.955 207.1C866.688 207.433 866.421 207.733 866.155 208C865.621 208.533 865.188 208.867 864.855 209C864.521 209.2 864.155 209.3 863.755 209.3C862.955 209.3 862.455 208.833 862.255 207.9C862.188 207.7 862.155 207.333 862.155 206.8C862.088 206.333 862.088 205.8 862.155 205.2C862.155 204.6 862.188 204 862.255 203.4C862.321 202.8 862.421 202.267 862.555 201.8C862.621 201.4 862.821 200.6 863.155 199.4C863.488 198.2 863.888 196.833 864.355 195.3C864.821 193.7 865.355 192.067 865.955 190.4C866.488 188.667 867.021 187.1 867.555 185.7C868.155 184.233 868.688 183.033 869.155 182.1C869.688 181.1 870.121 180.567 870.455 180.5C870.521 180.433 870.621 180.4 870.755 180.4ZM921.413 149.2C921.347 149.8 920.947 150.933 920.213 152.6C919.547 154.2 918.647 156.2 917.513 158.6C916.447 161 915.147 163.7 913.613 166.7C912.147 169.633 910.58 172.7 908.913 175.9C908.58 176.5 907.98 177.667 907.113 179.4C906.247 181.067 905.347 182.833 904.413 184.7C903.547 186.5 902.747 188.133 902.013 189.6C901.28 191.067 900.913 191.833 900.913 191.9H901.113H901.313L901.513 191.8C904.38 191.2 907.18 190.7 909.913 190.3C912.647 189.9 915.413 189.7 918.213 189.7C919.347 189.7 920.047 189.767 920.313 189.9C920.647 189.967 920.747 190.167 920.613 190.5C920.547 190.633 920.447 190.733 920.313 190.8C920.18 190.8 919.813 190.8 919.213 190.8C916.213 190.8 913.313 191 910.513 191.4C907.78 191.8 905.013 192.367 902.213 193.1C900.88 193.433 900.113 193.7 899.913 193.9C899.713 194.033 899.78 194.433 900.113 195.1C900.313 195.633 900.447 196.167 900.513 196.7C900.58 197.167 900.547 197.933 900.413 199C900.28 201 899.947 203.033 899.413 205.1C898.813 207.167 897.847 209.867 896.513 213.2C895.98 214.4 895.313 215.967 894.513 217.9C893.713 219.833 892.847 221.8 891.913 223.8C890.98 225.867 890.047 227.767 889.113 229.5C888.18 231.3 887.347 232.633 886.613 233.5C885.813 234.367 885.213 234.8 884.813 234.8C884.613 234.8 884.413 234.7 884.213 234.5C884.08 234.367 884.013 234.233 884.013 234.1C884.013 234.033 884.013 233.733 884.013 233.2C884.147 231.933 884.513 230.333 885.113 228.4C885.647 226.467 886.347 224.333 887.213 222C888.013 219.733 888.913 217.367 889.913 214.9C890.847 212.5 891.813 210.133 892.813 207.8C893.813 205.533 894.747 203.4 895.613 201.4C896.48 199.4 897.213 197.733 897.813 196.4C897.947 196.133 898.047 195.9 898.113 195.7C898.18 195.5 898.28 195.333 898.413 195.2V195C898.48 195 898.513 194.967 898.513 194.9C898.513 194.833 898.413 194.767 898.213 194.7C898.013 194.567 897.847 194.5 897.713 194.5C897.647 194.5 897.313 194.6 896.713 194.8C895.98 195 895.513 195.1 895.313 195.1C895.113 195.1 894.947 195.033 894.813 194.9C894.48 194.567 894.547 194.2 895.013 193.8C895.147 193.667 895.613 193.467 896.413 193.2C897.213 192.933 898.08 192.667 899.013 192.4C899.413 192.267 899.68 192.2 899.813 192.2C899.88 192.133 899.98 191.967 900.113 191.7C900.847 190.167 901.88 188.033 903.213 185.3C904.547 182.5 906.48 178.533 909.013 173.4C909.947 171.6 910.88 169.733 911.813 167.8C912.747 165.867 913.647 163.967 914.513 162.1C915.38 160.233 916.147 158.467 916.813 156.8C917.547 155.133 918.18 153.667 918.713 152.4L919.113 151.4L918.713 151.1C918.513 150.9 918.413 150.7 918.413 150.5C918.413 150.167 918.68 149.667 919.213 149C919.747 148.267 920.213 147.9 920.613 147.9C920.813 147.9 921.013 148 921.213 148.2C921.413 148.533 921.48 148.867 921.413 149.2ZM884.813 233.9L885.113 233.6C885.713 233.133 886.447 232.167 887.313 230.7C888.18 229.3 889.08 227.633 890.013 225.7C890.947 223.767 891.913 221.667 892.913 219.4C893.847 217.2 894.713 215.067 895.513 213C896.313 211 897.013 209.167 897.613 207.5C898.213 205.9 898.613 204.7 898.813 203.9C899.147 202.433 899.38 201.033 899.513 199.7C899.58 198.367 899.547 197.333 899.413 196.6C899.28 196.067 899.213 195.833 899.213 195.9C899.08 195.767 898.947 195.867 898.813 196.2C898.68 196.467 898.28 197.267 897.613 198.6C897.08 199.733 896.413 201.167 895.613 202.9C894.813 204.7 893.947 206.667 893.013 208.8C892.08 210.933 891.147 213.133 890.213 215.4C889.28 217.667 888.413 219.867 887.613 222C886.813 224.2 886.18 226.233 885.713 228.1C885.18 229.967 884.88 231.533 884.813 232.8V233.9ZM945.159 212.8C942.625 214.933 940.592 216 939.059 216C938.125 216 937.459 215.7 937.059 215.1C936.659 214.5 936.392 213.767 936.259 212.9C935.859 209.5 936.992 204.833 939.659 198.9C940.125 197.833 940.959 196.267 942.159 194.2C943.292 192.133 944.592 190.067 946.059 188C947.592 185.933 949.192 184.133 950.859 182.6C952.525 181.067 954.059 180.3 955.459 180.3L955.659 180.4H955.859C956.792 180.933 956.359 182.533 954.559 185.2C952.959 187.4 951.159 189.533 949.159 191.6C947.225 193.6 945.092 195.333 942.759 196.8L941.259 197.8L940.659 198.9C939.859 200.567 939.125 202.367 938.459 204.3C937.792 206.3 937.359 207.967 937.159 209.3C937.025 210.5 937.025 211.567 937.159 212.5C937.225 213.5 937.425 214.167 937.759 214.5C938.092 214.833 938.492 215 938.959 215C939.825 215 940.992 214.567 942.459 213.7C942.992 213.367 943.525 212.967 944.059 212.5C944.592 212.1 945.225 211.533 945.959 210.8C946.692 210.133 947.592 209.3 948.659 208.3C949.725 207.3 951.059 206.033 952.659 204.5C953.992 203.167 955.125 202.067 956.059 201.2C956.992 200.267 957.825 199.467 958.559 198.8C959.359 198.067 960.059 197.433 960.659 196.9C961.325 196.3 962.025 195.667 962.759 195C964.692 193.4 965.959 192.367 966.559 191.9C967.225 191.367 967.625 191.167 967.759 191.3C967.959 191.5 967.759 191.833 967.159 192.3C966.825 192.5 966.359 192.867 965.759 193.4C965.159 193.867 964.525 194.4 963.859 195C963.192 195.6 962.525 196.167 961.859 196.7C961.259 197.233 960.759 197.667 960.359 198C959.425 198.867 958.425 199.833 957.359 200.9C956.292 201.967 954.692 203.567 952.559 205.7C951.425 206.833 950.459 207.767 949.659 208.5C948.925 209.233 948.292 209.867 947.759 210.4C947.225 210.933 946.759 211.367 946.359 211.7C945.959 212.1 945.559 212.467 945.159 212.8ZM947.059 191.8C947.992 190.933 948.892 190.033 949.759 189.1C950.692 188.1 951.525 187.167 952.259 186.3C952.992 185.367 953.592 184.533 954.059 183.8C954.592 183 954.925 182.333 955.059 181.8C955.059 181.667 954.959 181.633 954.759 181.7C953.959 181.9 952.925 182.567 951.659 183.7C950.392 184.833 949.125 186.167 947.859 187.7C947.459 188.167 946.959 188.833 946.359 189.7C945.759 190.5 945.192 191.3 944.659 192.1C944.125 192.9 943.692 193.6 943.359 194.2C942.959 194.733 942.792 195 942.859 195C942.859 195 943.025 194.9 943.359 194.7C943.692 194.5 944.092 194.233 944.559 193.9C944.959 193.567 945.392 193.233 945.859 192.9C946.325 192.5 946.725 192.133 947.059 191.8ZM971.731 180.4C972.065 180.4 972.331 180.633 972.531 181.1C972.865 181.633 972.865 182.1 972.531 182.5C972.398 182.633 972.198 182.7 971.931 182.7C971.665 182.7 971.531 182.667 971.531 182.6L971.331 182.4C971.331 182.4 971.198 182.633 970.931 183.1C970.731 183.5 970.465 184 970.131 184.6C969.865 185.2 969.565 185.867 969.231 186.6C968.965 187.267 968.731 187.833 968.531 188.3C967.598 190.767 966.798 193.067 966.131 195.2C965.465 197.333 964.898 199.333 964.431 201.2C964.165 202.133 964.031 202.8 964.031 203.2C963.965 203.667 963.931 204.4 963.931 205.4C963.931 206.4 963.931 207.033 963.931 207.3C963.931 207.567 963.998 207.767 964.131 207.9C964.331 208.1 964.531 208.2 964.731 208.2C965.131 208.2 965.665 207.867 966.331 207.2C966.931 206.6 967.531 205.867 968.131 205C968.798 204.2 969.365 203.4 969.831 202.6C970.365 201.8 970.731 201.267 970.931 201C971.198 200.533 971.698 199.733 972.431 198.6C973.231 197.4 974.131 196.067 975.131 194.6C976.198 193.133 977.331 191.6 978.531 190C979.731 188.4 980.865 186.967 981.931 185.7C983.065 184.367 984.098 183.3 985.031 182.5C985.965 181.633 986.698 181.2 987.231 181.2C988.231 181.2 988.631 181.967 988.431 183.5C988.431 183.7 988.331 184.167 988.131 184.9C987.998 185.633 987.865 186.367 987.731 187.1C987.198 189.367 986.898 191.133 986.831 192.4C986.765 193.6 986.898 194.533 987.231 195.2C987.498 196 988.098 196.4 989.031 196.4C989.631 196.4 990.431 196.2 991.431 195.8C992.431 195.333 994.031 194.467 996.231 193.2C998.565 191.867 1000.13 191 1000.93 190.6C1001.8 190.133 1002.3 189.933 1002.43 190C1002.76 190.2 1002.8 190.4 1002.53 190.6C1002.33 190.8 1001.66 191.2 1000.53 191.8C999.998 192.133 999.231 192.567 998.231 193.1C997.231 193.633 996.331 194.167 995.531 194.7C993.598 195.9 992.198 196.667 991.331 197C990.531 197.267 989.765 197.4 989.031 197.4C987.631 197.4 986.731 196.933 986.331 196C985.998 195 985.831 193.9 985.831 192.7C985.831 191.833 985.898 190.967 986.031 190.1C986.165 189.233 986.398 187.933 986.731 186.2C986.998 185 987.165 184.033 987.231 183.3C987.365 182.567 987.365 182.167 987.231 182.1C987.098 182.1 986.831 182.2 986.431 182.4C985.498 182.867 984.398 183.867 983.131 185.4C981.865 186.867 980.565 188.533 979.231 190.4C977.965 192.2 976.731 194 975.531 195.8C974.331 197.6 973.365 199.067 972.631 200.2C971.765 201.6 971.031 202.733 970.431 203.6C969.898 204.533 969.431 205.267 969.031 205.8C968.631 206.4 968.265 206.833 967.931 207.1C967.665 207.433 967.398 207.733 967.131 208C966.598 208.533 966.165 208.867 965.831 209C965.498 209.2 965.131 209.3 964.731 209.3C963.931 209.3 963.431 208.833 963.231 207.9C963.165 207.7 963.131 207.333 963.131 206.8C963.065 206.333 963.065 205.8 963.131 205.2C963.131 204.6 963.165 204 963.231 203.4C963.298 202.8 963.398 202.267 963.531 201.8C963.598 201.4 963.798 200.6 964.131 199.4C964.465 198.2 964.865 196.833 965.331 195.3C965.798 193.7 966.331 192.067 966.931 190.4C967.465 188.667 967.998 187.1 968.531 185.7C969.131 184.233 969.665 183.033 970.131 182.1C970.665 181.1 971.098 180.567 971.431 180.5C971.498 180.433 971.598 180.4 971.731 180.4ZM997.59 207.3C997.723 207.967 997.923 208.433 998.19 208.7C998.457 209.033 998.957 209.2 999.69 209.2C1001.09 209.2 1002.92 208.267 1005.19 206.4C1006.72 205.2 1008.72 203.3 1011.19 200.7C1013.66 198.1 1016.79 194.7 1020.59 190.5C1020.72 190.367 1020.89 190.3 1021.09 190.3L1021.19 190.4H1021.29C1021.42 190.6 1021.46 190.833 1021.39 191.1C1018.72 194.1 1016.49 196.6 1014.69 198.6C1012.89 200.533 1011.56 201.933 1010.69 202.8C1010.09 203.4 1009.36 204.133 1008.49 205C1007.62 205.867 1006.69 206.7 1005.69 207.5C1004.69 208.3 1003.66 208.967 1002.59 209.5C1001.59 210.1 1000.62 210.4 999.69 210.4C998.29 210.4 997.357 209.8 996.89 208.6C996.557 207.8 996.49 206.6 996.69 205C996.823 203.4 997.157 201.7 997.69 199.9C997.957 198.9 998.423 197.6 999.09 196C999.757 194.4 1000.56 192.7 1001.49 190.9C1002.36 189.033 1003.36 187.2 1004.49 185.4C1005.69 183.533 1006.89 181.867 1008.09 180.4C1009.36 178.867 1010.66 177.633 1011.99 176.7C1013.32 175.767 1014.62 175.3 1015.89 175.3C1016.42 175.3 1016.86 175.4 1017.19 175.6C1017.92 176.133 1018.06 177.3 1017.59 179.1C1017.52 179.567 1017.32 180.3 1016.99 181.3C1016.66 182.3 1016.22 183.333 1015.69 184.4C1015.22 185.4 1014.69 186.3 1014.09 187.1C1013.56 187.9 1012.99 188.3 1012.39 188.3C1011.86 188.3 1011.56 188.1 1011.49 187.7C1011.36 187.167 1011.59 186.867 1012.19 186.8C1012.39 186.733 1012.52 186.667 1012.59 186.6C1012.72 186.467 1012.96 186.133 1013.29 185.6C1013.69 184.933 1014.09 184.2 1014.49 183.4C1014.89 182.533 1015.26 181.7 1015.59 180.9C1015.92 180.1 1016.16 179.367 1016.29 178.7C1016.49 177.967 1016.56 177.433 1016.49 177.1C1016.36 176.767 1016.16 176.6 1015.89 176.6C1014.82 176.6 1013.72 177 1012.59 177.8C1011.46 178.6 1010.36 179.633 1009.29 180.9C1008.22 182.1 1007.16 183.5 1006.09 185.1C1005.09 186.633 1004.16 188.167 1003.29 189.7C1002.49 191.233 1001.76 192.7 1001.09 194.1C1000.42 195.433 999.923 196.533 999.59 197.4C997.923 201.6 997.257 204.9 997.59 207.3ZM1032.03 200.1C1031.83 199.767 1031.66 199.467 1031.53 199.2C1031.46 198.867 1031.36 198.467 1031.23 198C1031.16 197.533 1031.06 196.933 1030.93 196.2C1030.86 195.467 1030.76 194.467 1030.63 193.2C1030.49 191.933 1030.39 190.867 1030.33 190C1030.26 189.133 1030.19 188.633 1030.13 188.5C1030.13 188.433 1030.03 188.4 1029.83 188.4C1029.23 188.4 1028.39 189 1027.33 190.2C1026.33 191.333 1025.23 192.8 1024.03 194.6C1022.89 196.4 1021.73 198.4 1020.53 200.6C1019.26 202.8 1018.09 204.9 1017.03 206.9C1015.89 208.9 1014.93 210.7 1014.13 212.3C1013.33 213.9 1012.76 215.033 1012.43 215.7C1012.23 216.033 1011.83 216.833 1011.23 218.1C1010.56 219.367 1009.89 220.667 1009.23 222C1008.56 223.333 1007.93 224.533 1007.33 225.6C1006.73 226.667 1006.33 227.2 1006.13 227.2C1005.99 227.2 1005.86 227.133 1005.73 227C1005.59 226.867 1005.63 226.467 1005.83 225.8C1006.03 225.2 1006.49 223.933 1007.23 222C1007.49 221.2 1007.96 220 1008.63 218.4C1009.23 216.8 1009.93 215.033 1010.73 213.1C1011.53 211.233 1012.36 209.367 1013.23 207.5C1014.03 205.633 1014.69 204.1 1015.23 202.9C1019.03 194.5 1022.79 186.267 1026.53 178.2C1030.33 170.067 1034.43 161.967 1038.83 153.9C1039.96 151.7 1040.89 149.867 1041.63 148.4C1042.43 146.933 1042.76 146.2 1042.63 146.2C1042.29 146.333 1041.76 146.8 1041.03 147.6C1040.29 148.333 1039.46 149.267 1038.53 150.4C1037.59 151.467 1036.59 152.667 1035.53 154C1034.53 155.267 1033.56 156.5 1032.63 157.7C1031.69 158.9 1030.86 159.967 1030.13 160.9C1029.39 161.833 1028.89 162.467 1028.63 162.8C1028.29 163.267 1028.09 163.567 1028.03 163.7C1027.96 163.833 1027.99 163.9 1028.13 163.9C1028.39 163.9 1028.59 164.1 1028.73 164.5C1028.73 165.033 1028.33 165.3 1027.53 165.3C1026.13 165.233 1025.79 164.533 1026.53 163.2C1026.86 162.6 1027.46 161.767 1028.33 160.7C1029.19 159.567 1030.16 158.333 1031.23 157C1032.36 155.6 1033.53 154.2 1034.73 152.8C1035.93 151.4 1037.09 150.1 1038.23 148.9C1039.36 147.7 1040.36 146.7 1041.23 145.9C1042.16 145.033 1042.83 144.5 1043.23 144.3L1043.43 144.2C1043.56 144.2 1043.83 144.267 1044.23 144.4C1044.63 144.8 1044.56 145.567 1044.03 146.7C1043.76 147.233 1043.26 148.233 1042.53 149.7C1041.79 151.1 1040.89 152.767 1039.83 154.7C1034.43 164.367 1029.39 174.067 1024.73 183.8C1020.13 193.533 1015.63 203.5 1011.23 213.7C1010.16 216.233 1009.29 218.367 1008.63 220.1C1007.89 221.9 1007.56 222.8 1007.63 222.8C1008.03 222.133 1008.43 221.433 1008.83 220.7C1009.16 220.1 1009.49 219.433 1009.83 218.7C1010.16 218.033 1010.49 217.367 1010.83 216.7C1011.29 215.7 1011.99 214.267 1012.93 212.4C1013.86 210.6 1014.93 208.6 1016.13 206.4C1017.33 204.267 1018.59 202.067 1019.93 199.8C1021.26 197.533 1022.56 195.5 1023.83 193.7C1025.09 191.833 1026.26 190.333 1027.33 189.2C1028.39 188 1029.26 187.4 1029.93 187.4C1030.46 187.4 1030.83 187.633 1031.03 188.1C1031.49 188.9 1031.73 190.433 1031.73 192.7C1031.79 193.7 1031.89 194.8 1032.03 196C1032.23 197.133 1032.39 197.967 1032.53 198.5C1032.99 199.967 1033.99 200.7 1035.53 200.7L1036.03 200.6H1036.23C1036.76 200.533 1037.39 200.367 1038.13 200.1C1038.86 199.833 1039.76 199.4 1040.83 198.8C1041.96 198.133 1043.29 197.333 1044.83 196.4C1046.43 195.4 1048.36 194.167 1050.63 192.7C1051.56 192.1 1052.36 191.6 1053.03 191.2C1053.76 190.8 1054.19 190.567 1054.33 190.5C1054.46 190.5 1054.59 190.567 1054.73 190.7C1054.79 190.833 1054.76 191.033 1054.63 191.3C1054.56 191.367 1054.16 191.667 1053.43 192.2C1052.69 192.667 1051.83 193.233 1050.83 193.9C1049.83 194.567 1048.76 195.267 1047.63 196C1046.56 196.667 1045.59 197.267 1044.73 197.8C1042.39 199.333 1040.56 200.4 1039.23 201C1037.89 201.533 1036.73 201.8 1035.73 201.8C1034.99 201.8 1034.29 201.7 1033.63 201.5C1032.96 201.233 1032.43 200.767 1032.03 200.1Z" fill="#262626"/>
<path d="M719.421 266C718.581 263.888 717.909 262.688 714.957 258.632C713.061 256.04 712.341 254.336 712.341 252.584C712.341 250.472 714.165 248.744 716.277 248.744C717.765 248.744 719.133 249.512 719.973 251.072C720.837 249.512 722.205 248.744 723.717 248.744C725.781 248.744 727.653 250.472 727.653 252.584C727.653 254.288 727.053 255.896 725.037 258.656C722.061 262.736 721.341 264.008 720.549 266H719.421ZM719.973 263.912C720.573 262.688 721.629 261.08 723.045 259.136C724.461 257.192 725.349 255.776 725.733 254.936C726.117 254.096 726.309 253.304 726.309 252.584C726.309 251.216 725.109 250.088 723.717 250.088C722.325 250.088 721.149 251.288 720.597 253.28H719.373C718.773 251.12 717.597 250.088 716.277 250.088C714.909 250.088 713.685 251.216 713.685 252.584C713.685 253.28 713.877 254.048 714.237 254.888C714.597 255.728 715.485 257.096 716.877 258.992C718.269 260.864 719.301 262.52 719.973 263.912Z" fill="#FFCFEC"/>
</svg>
