<svg width="600" height="721" viewBox="0 0 600 721" fill="none" xmlns="http://www.w3.org/2000/svg">
<path d="M230.31 24.51L229.77 24.27L231.39 16.65L223.77 18.27L223.53 17.73L229.77 13.11L223.53 8.55L223.77 8.01L231.39 9.57L229.77 2.01L230.31 1.77L234.93 8.01L239.49 1.77L240.03 2.01L238.47 9.57L246.03 8.01L246.27 8.55L240.03 13.11L246.27 17.73L246.03 18.27L238.47 16.65L240.03 24.27L239.49 24.51L234.93 18.27L230.31 24.51ZM258.659 7.59L259.409 3H273.119V3.36L261.419 23.64H266.219C267.259 23.64 268.129 23.57 268.829 23.43C269.549 23.27 270.179 23 270.719 22.62C271.259 22.24 271.739 21.72 272.159 21.06C272.599 20.38 273.069 19.53 273.569 18.51C273.669 18.33 273.809 18.24 273.989 18.24H274.019L272.789 24H257.939V23.61L269.849 3.36H264.329C262.889 3.36 261.749 3.73 260.909 4.47C260.089 5.21 259.479 6.16 259.079 7.32C259.019 7.5 258.889 7.59 258.689 7.59H258.659ZM278.334 15.39C278.374 16.51 278.594 17.5 278.994 18.36C279.394 19.22 279.904 19.94 280.524 20.52C281.164 21.1 281.884 21.54 282.684 21.84C283.484 22.12 284.294 22.26 285.114 22.26C286.254 22.26 287.354 21.98 288.414 21.42C289.474 20.86 290.324 20 290.964 18.84L291.204 19.02C290.364 20.9 289.314 22.27 288.054 23.13C286.794 23.97 285.424 24.39 283.944 24.39C282.924 24.39 281.924 24.2 280.944 23.82C279.964 23.44 279.094 22.91 278.334 22.23C277.574 21.53 276.964 20.7 276.504 19.74C276.044 18.78 275.814 17.71 275.814 16.53C275.814 15.25 276.074 14.12 276.594 13.14C277.114 12.16 277.784 11.35 278.604 10.71C279.424 10.05 280.344 9.56 281.364 9.24C282.384 8.9 283.404 8.73 284.424 8.73C285.444 8.73 286.334 8.89 287.094 9.21C287.854 9.51 288.474 9.91 288.954 10.41C289.454 10.89 289.824 11.45 290.064 12.09C290.304 12.71 290.424 13.34 290.424 13.98C290.424 14.42 290.374 14.87 290.274 15.33V15.39H278.334ZM287.274 15.03C287.354 14.63 287.394 14.18 287.394 13.68C287.394 13.14 287.314 12.61 287.154 12.09C287.014 11.57 286.774 11.11 286.434 10.71C286.114 10.31 285.674 9.99 285.114 9.75C284.574 9.49 283.914 9.36 283.134 9.36C282.514 9.36 281.914 9.47 281.334 9.69C280.754 9.89 280.234 10.22 279.774 10.68C279.334 11.14 278.974 11.73 278.694 12.45C278.434 13.17 278.304 14.03 278.304 15.03H287.274ZM293.877 5.01C293.877 4.39 294.057 3.89 294.417 3.51C294.797 3.13 295.297 2.94 295.917 2.94C296.537 2.94 297.037 3.13 297.417 3.51C297.797 3.89 297.987 4.39 297.987 5.01C297.987 5.63 297.797 6.13 297.417 6.51C297.037 6.87 296.537 7.05 295.917 7.05C295.297 7.05 294.797 6.87 294.417 6.51C294.057 6.13 293.877 5.63 293.877 5.01ZM295.887 8.97C296.367 8.89 296.747 8.97 297.027 9.21C297.307 9.45 297.507 9.77 297.627 10.17C297.767 10.55 297.857 10.98 297.897 11.46C297.937 11.92 297.957 12.34 297.957 12.72V20.1L297.987 20.61C297.987 21.35 297.997 21.92 298.017 22.32C298.057 22.72 298.157 23.02 298.317 23.22C298.477 23.42 298.717 23.55 299.037 23.61C299.377 23.65 299.847 23.68 300.447 23.7C300.607 23.7 300.687 23.78 300.687 23.94V24H292.347V23.94C292.347 23.78 292.427 23.7 292.587 23.7C293.187 23.68 293.647 23.65 293.967 23.61C294.307 23.55 294.557 23.42 294.717 23.22C294.877 23.02 294.967 22.72 294.987 22.32C295.027 21.92 295.047 21.35 295.047 20.61V12.72C295.047 11.62 294.867 10.84 294.507 10.38C294.147 9.9 293.497 9.72 292.557 9.84C292.397 9.88 292.317 9.8 292.317 9.6L295.887 8.97ZM303.747 9.3H300.867V9H303.747C304.047 8.84 304.347 8.67 304.647 8.49C304.947 8.31 305.217 8.08 305.457 7.8C305.717 7.5 305.917 7.14 306.057 6.72C306.217 6.28 306.297 5.73 306.297 5.07H306.657V9H311.067V9.3H306.657V19.14C306.657 20.28 306.927 21.15 307.467 21.75C308.007 22.35 308.627 22.65 309.327 22.65C309.867 22.65 310.407 22.47 310.947 22.11C311.487 21.73 311.957 21.14 312.357 20.34L312.597 20.52C312.057 21.96 311.337 23.01 310.437 23.67C309.537 24.33 308.627 24.66 307.707 24.66C307.187 24.66 306.687 24.56 306.207 24.36C305.727 24.16 305.307 23.87 304.947 23.49C304.587 23.11 304.297 22.65 304.077 22.11C303.857 21.55 303.747 20.93 303.747 20.25V9.3ZM316.512 8.67C316.992 8.59 317.372 8.67 317.652 8.91C317.932 9.13 318.132 9.44 318.252 9.84C318.392 10.22 318.482 10.65 318.522 11.13C318.562 11.59 318.582 12.01 318.582 12.39V13.59C318.762 12.75 319.022 12.02 319.362 11.4C319.722 10.76 320.132 10.23 320.592 9.81C321.052 9.39 321.552 9.08 322.092 8.88C322.652 8.66 323.232 8.55 323.832 8.55C324.912 8.55 325.882 8.78 326.742 9.24C327.602 9.68 328.332 10.28 328.932 11.04C329.532 11.78 329.992 12.63 330.312 13.59C330.632 14.53 330.792 15.49 330.792 16.47C330.792 17.47 330.612 18.44 330.252 19.38C329.912 20.32 329.372 21.17 328.632 21.93C327.912 22.67 326.972 23.27 325.812 23.73C324.652 24.17 323.262 24.39 321.642 24.39C320.622 24.39 319.602 24.3 318.582 24.12V27.27L318.612 27.78C318.612 28.52 318.622 29.09 318.642 29.49C318.682 29.89 318.782 30.19 318.942 30.39C319.102 30.59 319.342 30.71 319.662 30.75C320.002 30.81 320.472 30.85 321.072 30.87C321.232 30.87 321.312 30.95 321.312 31.11V31.17H312.972V31.11C312.972 30.95 313.052 30.87 313.212 30.87C313.812 30.85 314.272 30.81 314.592 30.75C314.932 30.71 315.182 30.59 315.342 30.39C315.502 30.19 315.592 29.89 315.612 29.49C315.652 29.09 315.672 28.52 315.672 27.78V12.42C315.672 11.3 315.492 10.51 315.132 10.05C314.772 9.57 314.122 9.4 313.182 9.54C313.022 9.54 312.942 9.45 312.942 9.27L316.512 8.67ZM318.582 20.49C318.602 21.07 318.732 21.58 318.972 22.02C319.212 22.44 319.512 22.8 319.872 23.1C320.232 23.38 320.632 23.59 321.072 23.73C321.512 23.87 321.962 23.94 322.422 23.94C323.342 23.94 324.142 23.73 324.822 23.31C325.502 22.87 326.062 22.31 326.502 21.63C326.962 20.93 327.302 20.14 327.522 19.26C327.742 18.38 327.852 17.49 327.852 16.59C327.852 15.73 327.752 14.88 327.552 14.04C327.352 13.2 327.042 12.46 326.622 11.82C326.222 11.18 325.722 10.66 325.122 10.26C324.522 9.86 323.832 9.66 323.052 9.66C322.472 9.66 321.912 9.81 321.372 10.11C320.832 10.41 320.352 10.86 319.932 11.46C319.532 12.06 319.202 12.82 318.942 13.74C318.702 14.64 318.582 15.7 318.582 16.92V20.49ZM335.613 1.5C336.093 1.42 336.473 1.5 336.753 1.74C337.033 1.98 337.233 2.3 337.353 2.7C337.493 3.08 337.583 3.51 337.623 3.99C337.663 4.45 337.683 4.87 337.683 5.25V20.1L337.713 20.61C337.713 21.35 337.723 21.92 337.743 22.32C337.783 22.72 337.883 23.02 338.043 23.22C338.203 23.42 338.443 23.55 338.763 23.61C339.103 23.65 339.573 23.68 340.173 23.7C340.333 23.7 340.413 23.78 340.413 23.94V24H332.073V23.94C332.073 23.78 332.153 23.7 332.313 23.7C332.913 23.68 333.373 23.65 333.693 23.61C334.033 23.55 334.283 23.42 334.443 23.22C334.603 23.02 334.693 22.72 334.713 22.32C334.753 21.92 334.773 21.35 334.773 20.61V5.25C334.773 4.13 334.593 3.34 334.233 2.88C333.873 2.4 333.223 2.23 332.283 2.37C332.123 2.41 332.043 2.33 332.043 2.13L335.613 1.5ZM352.924 14.13C352.664 14.41 352.264 14.64 351.724 14.82C351.204 14.98 350.624 15.14 349.984 15.3C349.364 15.46 348.714 15.63 348.034 15.81C347.354 15.99 346.734 16.22 346.174 16.5C345.634 16.78 345.184 17.14 344.824 17.58C344.484 18 344.314 18.54 344.314 19.2C344.314 19.92 344.564 20.57 345.064 21.15C345.564 21.71 346.344 21.99 347.404 21.99C348.164 21.99 348.824 21.86 349.384 21.6C349.944 21.32 350.424 20.96 350.824 20.52C351.224 20.08 351.554 19.58 351.814 19.02C352.094 18.46 352.304 17.89 352.444 17.31C352.604 16.73 352.714 16.17 352.774 15.63C352.854 15.07 352.904 14.57 352.924 14.13ZM345.694 11.04C346.074 11.2 346.354 11.44 346.534 11.76C346.714 12.06 346.804 12.38 346.804 12.72C346.804 13.18 346.654 13.6 346.354 13.98C346.054 14.36 345.614 14.55 345.034 14.55C344.354 14.55 343.844 14.36 343.504 13.98C343.184 13.6 343.024 13.15 343.024 12.63C343.024 11.99 343.174 11.43 343.474 10.95C343.794 10.47 344.204 10.08 344.704 9.78C345.224 9.46 345.824 9.22 346.504 9.06C347.184 8.9 347.884 8.82 348.604 8.82C349.464 8.82 350.324 8.93 351.184 9.15C352.044 9.37 352.814 9.7 353.494 10.14C354.194 10.56 354.754 11.1 355.174 11.76C355.614 12.4 355.834 13.14 355.834 13.98V20.58C355.834 21.7 356.014 22.47 356.374 22.89C356.734 23.29 357.394 23.42 358.354 23.28C358.514 23.28 358.594 23.37 358.594 23.55L355.024 24.18C354.544 24.26 354.164 24.19 353.884 23.97C353.624 23.75 353.424 23.46 353.284 23.1C353.144 22.72 353.044 22.3 352.984 21.84C352.944 21.38 352.924 20.96 352.924 20.58V20.43V16.86C352.784 17.7 352.564 18.56 352.264 19.44C351.984 20.32 351.594 21.12 351.094 21.84C350.614 22.56 350.024 23.15 349.324 23.61C348.644 24.07 347.834 24.3 346.894 24.3C346.154 24.3 345.454 24.2 344.794 24C344.154 23.82 343.594 23.54 343.114 23.16C342.634 22.76 342.254 22.27 341.974 21.69C341.694 21.09 341.554 20.39 341.554 19.59C341.554 18.75 341.824 18.07 342.364 17.55C342.924 17.03 343.614 16.61 344.434 16.29C345.254 15.95 346.144 15.69 347.104 15.51C348.084 15.33 348.994 15.15 349.834 14.97C350.674 14.79 351.384 14.59 351.964 14.37C352.544 14.13 352.864 13.81 352.924 13.41C352.924 12.75 352.794 12.16 352.534 11.64C352.274 11.12 351.924 10.68 351.484 10.32C351.044 9.94 350.524 9.66 349.924 9.48C349.344 9.28 348.724 9.18 348.064 9.18C347.344 9.18 346.724 9.3 346.204 9.54C345.704 9.78 345.454 10.12 345.454 10.56C345.454 10.76 345.534 10.92 345.694 11.04ZM362.332 8.97C362.812 8.89 363.192 8.97 363.472 9.21C363.752 9.45 363.952 9.77 364.072 10.17C364.212 10.55 364.302 10.98 364.342 11.46C364.382 11.92 364.402 12.34 364.402 12.72V14.49C364.602 13.55 364.912 12.73 365.332 12.03C365.772 11.31 366.262 10.71 366.802 10.23C367.362 9.75 367.942 9.39 368.542 9.15C369.162 8.89 369.752 8.76 370.312 8.76C370.932 8.76 371.522 8.87 372.082 9.09C372.642 9.29 373.132 9.61 373.552 10.05C373.992 10.47 374.342 11.01 374.602 11.67C374.862 12.33 374.992 13.1 374.992 13.98V20.61C374.992 21.35 375.012 21.92 375.052 22.32C375.092 22.72 375.192 23.02 375.352 23.22C375.512 23.42 375.752 23.55 376.072 23.61C376.412 23.65 376.882 23.68 377.482 23.7C377.642 23.7 377.722 23.78 377.722 23.94V24H369.382V23.94C369.382 23.78 369.462 23.7 369.622 23.7C370.222 23.68 370.682 23.65 371.002 23.61C371.342 23.55 371.592 23.42 371.752 23.22C371.912 23.02 372.002 22.72 372.022 22.32C372.062 21.92 372.082 21.35 372.082 20.61V13.98C372.082 12.6 371.792 11.57 371.212 10.89C370.652 10.19 369.932 9.84 369.052 9.84C368.572 9.84 368.062 10 367.522 10.32C366.982 10.64 366.472 11.11 365.992 11.73C365.532 12.33 365.152 13.07 364.852 13.95C364.552 14.83 364.402 15.82 364.402 16.92V20.61C364.402 21.35 364.422 21.92 364.462 22.32C364.502 22.72 364.602 23.02 364.762 23.22C364.922 23.42 365.162 23.55 365.482 23.61C365.822 23.65 366.292 23.68 366.892 23.7C367.052 23.7 367.132 23.78 367.132 23.94V24H358.792V23.94C358.792 23.78 358.872 23.7 359.032 23.7C359.632 23.68 360.092 23.65 360.412 23.61C360.752 23.55 361.002 23.42 361.162 23.22C361.322 23.02 361.412 22.72 361.432 22.32C361.472 21.92 361.492 21.35 361.492 20.61V12.72C361.492 11.62 361.312 10.84 360.952 10.38C360.592 9.9 359.942 9.72 359.002 9.84C358.842 9.88 358.762 9.8 358.762 9.6L362.332 8.97Z" fill="#262626"/>
<g clip-path="url(#clip0_58_801)">
<path fill-rule="evenodd" clip-rule="evenodd" d="M336 626.537L334.656 625.156C332.537 622.979 328.575 623.699 327.137 626.506C326.481 627.79 326.291 629.706 327.579 632.247C328.8 634.662 331.35 637.6 336 640.829C340.648 637.598 343.198 634.66 344.421 632.247C345.709 629.706 345.521 627.79 344.863 626.507C343.425 623.699 339.463 622.979 337.344 625.156L336 626.537ZM335.081 642.475C314.869 628.525 329.456 617.809 335.754 623.607C335.839 623.684 335.921 623.764 336.002 623.849C336.083 623.764 336.165 623.684 336.249 623.607C342.549 617.809 357.131 628.527 336.919 642.475L337.359 643.352C337.387 643.408 337.403 643.468 337.408 643.529C337.412 643.591 337.404 643.652 337.385 643.711C337.365 643.769 337.335 643.824 337.294 643.87C337.254 643.917 337.205 643.955 337.149 643.983C337.094 644.01 337.034 644.027 336.973 644.031C336.911 644.035 336.849 644.027 336.791 644.008C336.732 643.988 336.678 643.958 336.632 643.917C336.585 643.877 336.547 643.828 336.519 643.773L336.504 643.741C336.519 643.947 336.542 644.119 336.574 644.284C336.675 644.791 336.876 645.199 337.359 646.165C337.899 647.249 337.8 648.321 337.502 649.219C337.208 650.099 336.711 650.845 336.399 651.31L336.392 651.323C336.358 651.374 336.314 651.418 336.262 651.453C336.211 651.487 336.154 651.511 336.093 651.523C336.033 651.535 335.971 651.535 335.91 651.523C335.85 651.511 335.793 651.487 335.741 651.452C335.69 651.418 335.646 651.374 335.612 651.323C335.578 651.272 335.554 651.214 335.542 651.154C335.53 651.094 335.53 651.031 335.542 650.971C335.554 650.911 335.578 650.853 335.612 650.802C335.927 650.329 336.362 649.677 336.611 648.921C336.861 648.179 336.917 647.376 336.519 646.585L336.495 646.532C336.045 645.632 335.783 645.111 335.655 644.466C335.603 644.188 335.57 643.906 335.558 643.622L335.483 643.773C335.455 643.828 335.417 643.878 335.371 643.918C335.324 643.959 335.27 643.99 335.211 644.01C335.153 644.03 335.091 644.038 335.029 644.033C334.967 644.029 334.907 644.013 334.852 643.985C334.797 643.957 334.747 643.919 334.707 643.872C334.666 643.825 334.636 643.771 334.616 643.712C334.597 643.653 334.59 643.591 334.595 643.529C334.599 643.468 334.616 643.408 334.644 643.352L335.085 642.475H335.081ZM332.274 625.862C331.058 625.525 329.494 626.018 328.806 627.359C328.56 627.842 328.346 628.651 328.656 629.862C328.774 630.319 329.432 630.233 329.569 629.781C329.963 628.474 330.744 627.068 332.117 626.609C332.524 626.472 332.687 625.977 332.274 625.862Z" fill="#B8B3AF"/>
</g>
<path d="M269.5 493.5L255.625 499.688H274.375L269.5 493.5Z" stroke="#B8B3AF" stroke-width="2" stroke-linecap="round" stroke-linejoin="round"/>
<path d="M255.938 502.848C255.561 503.036 255.211 503.236 254.889 503.446C253.386 504.426 252.5 505.633 252.5 506.938C252.5 510.217 258.096 512.875 265 512.875C271.904 512.875 277.5 510.217 277.5 506.938C277.5 505.6 276.57 504.367 275 503.374" stroke="#B8B3AF" stroke-width="2"/>
<path d="M255.625 499.75H274.375V507.25H255.625V499.75Z" stroke="#B8B3AF" stroke-width="2" stroke-linecap="round" stroke-linejoin="round"/>
<path d="M255.625 499.75H275" stroke="#B8B3AF" stroke-width="2"/>
<path d="M300.5 70.3333C299.027 70.3333 297.833 71.5272 297.833 73C297.833 74.4728 299.027 75.6667 300.5 75.6667C301.973 75.6667 303.167 74.4728 303.167 73C303.167 71.5272 301.973 70.3333 300.5 70.3333ZM300.5 670.333C299.027 670.333 297.833 671.527 297.833 673C297.833 674.473 299.027 675.667 300.5 675.667C301.973 675.667 303.167 674.473 303.167 673C303.167 671.527 301.973 670.333 300.5 670.333ZM300 73L300 673L301 673L301 73L300 73Z" fill="#2E2B34"/>
<line x1="300" y1="113.5" x2="100" y2="113.5" stroke="#2E2B34"/>
<line x1="501" y1="243.5" x2="301" y2="243.5" stroke="#2E2B34"/>
<line x1="300" y1="373.5" x2="100" y2="373.5" stroke="#2E2B34"/>
<line x1="501" y1="503.5" x2="301" y2="503.5" stroke="#2E2B34"/>
<line x1="300" y1="633.5" x2="100" y2="633.5" stroke="#2E2B34"/>
<path d="M107.135 83.4545V98H105.374V85.3011H105.288L101.737 87.6591V85.8693L105.374 83.4545H107.135ZM122.062 98.1989C120.992 98.1989 120.081 97.9077 119.328 97.3253C118.575 96.7382 118 95.8883 117.602 94.7756C117.205 93.6581 117.006 92.3087 117.006 90.7273C117.006 89.1553 117.205 87.813 117.602 86.7003C118.005 85.5829 118.582 84.7306 119.335 84.1435C120.093 83.5516 121.002 83.2557 122.062 83.2557C123.123 83.2557 124.03 83.5516 124.783 84.1435C125.54 84.7306 126.118 85.5829 126.516 86.7003C126.918 87.813 127.119 89.1553 127.119 90.7273C127.119 92.3087 126.92 93.6581 126.523 94.7756C126.125 95.8883 125.55 96.7382 124.797 97.3253C124.044 97.9077 123.133 98.1989 122.062 98.1989ZM122.062 96.6364C123.123 96.6364 123.947 96.125 124.534 95.1023C125.121 94.0795 125.415 92.6212 125.415 90.7273C125.415 89.4678 125.28 88.3954 125.01 87.5099C124.745 86.6245 124.361 85.9498 123.859 85.4858C123.362 85.0218 122.763 84.7898 122.062 84.7898C121.011 84.7898 120.19 85.3082 119.598 86.3452C119.006 87.3774 118.71 88.8381 118.71 90.7273C118.71 91.9867 118.843 93.0568 119.108 93.9375C119.373 94.8182 119.754 95.4882 120.251 95.9474C120.753 96.4067 121.357 96.6364 122.062 96.6364ZM136.56 98.1136C136.21 98.1136 135.909 97.9882 135.658 97.7372C135.407 97.4863 135.282 97.1856 135.282 96.8352C135.282 96.4848 135.407 96.1842 135.658 95.9332C135.909 95.6823 136.21 95.5568 136.56 95.5568C136.911 95.5568 137.211 95.6823 137.462 95.9332C137.713 96.1842 137.839 96.4848 137.839 96.8352C137.839 97.0672 137.78 97.2803 137.661 97.4744C137.548 97.6686 137.394 97.8248 137.2 97.9432C137.01 98.0568 136.797 98.1136 136.56 98.1136ZM151.186 98.1989C150.249 98.1989 149.413 98.0379 148.679 97.7159C147.95 97.3939 147.37 96.9465 146.939 96.3736C146.513 95.7959 146.281 95.1259 146.243 94.3636H148.033C148.071 94.8324 148.232 95.2372 148.516 95.5781C148.8 95.9143 149.171 96.1747 149.631 96.3594C150.09 96.544 150.599 96.6364 151.158 96.6364C151.783 96.6364 152.337 96.5275 152.82 96.3097C153.303 96.0919 153.681 95.7888 153.956 95.4006C154.231 95.0123 154.368 94.5625 154.368 94.0511C154.368 93.5161 154.235 93.045 153.97 92.6378C153.705 92.2259 153.317 91.9039 152.805 91.6719C152.294 91.4399 151.669 91.3239 150.93 91.3239H149.766V89.7614H150.93C151.508 89.7614 152.015 89.6572 152.45 89.4489C152.891 89.2405 153.234 88.947 153.48 88.5682C153.731 88.1894 153.857 87.7443 153.857 87.233C153.857 86.7405 153.748 86.312 153.53 85.9474C153.312 85.5829 153.004 85.2988 152.607 85.0952C152.214 84.8916 151.75 84.7898 151.214 84.7898C150.713 84.7898 150.239 84.8821 149.794 85.0668C149.354 85.2467 148.994 85.5095 148.714 85.8551C148.435 86.196 148.284 86.608 148.26 87.0909H146.555C146.584 86.3286 146.813 85.661 147.244 85.0881C147.675 84.5104 148.239 84.0606 148.935 83.7386C149.635 83.4167 150.405 83.2557 151.243 83.2557C152.143 83.2557 152.914 83.438 153.558 83.8026C154.202 84.1624 154.697 84.6383 155.043 85.2301C155.388 85.822 155.561 86.4612 155.561 87.1477C155.561 87.9669 155.346 88.6652 154.915 89.2429C154.489 89.8205 153.909 90.2206 153.175 90.4432V90.5568C154.093 90.7083 154.811 91.099 155.327 91.7287C155.843 92.3537 156.101 93.1278 156.101 94.0511C156.101 94.8419 155.885 95.5521 155.455 96.1818C155.028 96.8068 154.446 97.2992 153.707 97.6591C152.969 98.0189 152.128 98.1989 151.186 98.1989ZM169.75 98.1989C168.68 98.1989 167.768 97.9077 167.016 97.3253C166.263 96.7382 165.688 95.8883 165.29 94.7756C164.892 93.6581 164.693 92.3087 164.693 90.7273C164.693 89.1553 164.892 87.813 165.29 86.7003C165.692 85.5829 166.27 84.7306 167.023 84.1435C167.78 83.5516 168.689 83.2557 169.75 83.2557C170.811 83.2557 171.717 83.5516 172.47 84.1435C173.228 84.7306 173.805 85.5829 174.203 86.7003C174.606 87.813 174.807 89.1553 174.807 90.7273C174.807 92.3087 174.608 93.6581 174.21 94.7756C173.812 95.8883 173.237 96.7382 172.484 97.3253C171.732 97.9077 170.82 98.1989 169.75 98.1989ZM169.75 96.6364C170.811 96.6364 171.634 96.125 172.222 95.1023C172.809 94.0795 173.102 92.6212 173.102 90.7273C173.102 89.4678 172.967 88.3954 172.697 87.5099C172.432 86.6245 172.049 85.9498 171.547 85.4858C171.05 85.0218 170.451 84.7898 169.75 84.7898C168.699 84.7898 167.877 85.3082 167.286 86.3452C166.694 87.3774 166.398 88.8381 166.398 90.7273C166.398 91.9867 166.53 93.0568 166.795 93.9375C167.061 94.8182 167.442 95.4882 167.939 95.9474C168.441 96.4067 169.045 96.6364 169.75 96.6364Z" fill="#2E2B34"/>
<path d="M102.89 136L100.268 126.545H101.768L103.61 133.867H103.698L105.614 126.545H107.1L109.016 133.872H109.104L110.941 126.545H112.446L109.819 136H108.384L106.394 128.918H106.32L104.33 136H102.89ZM115.047 136V126.545H120.974V127.773H116.473V130.654H120.665V131.877H116.473V134.772H121.03V136H115.047ZM131.981 136H128.92V126.545H132.078C133.004 126.545 133.8 126.735 134.465 127.113C135.129 127.489 135.639 128.029 135.993 128.734C136.35 129.435 136.528 130.277 136.528 131.259C136.528 132.244 136.348 133.09 135.988 133.798C135.631 134.506 135.114 135.051 134.437 135.432C133.76 135.811 132.941 136 131.981 136ZM130.347 134.754H131.902C132.623 134.754 133.221 134.618 133.698 134.347C134.175 134.073 134.532 133.678 134.769 133.161C135.006 132.641 135.125 132.007 135.125 131.259C135.125 130.517 135.006 129.888 134.769 129.371C134.535 128.854 134.186 128.461 133.721 128.194C133.257 127.926 132.68 127.792 131.99 127.792H130.347V134.754ZM147.815 131.273C147.815 132.282 147.63 133.15 147.261 133.876C146.891 134.6 146.385 135.157 145.742 135.548C145.102 135.935 144.374 136.129 143.558 136.129C142.74 136.129 142.009 135.935 141.365 135.548C140.725 135.157 140.221 134.598 139.851 133.872C139.482 133.145 139.297 132.279 139.297 131.273C139.297 130.263 139.482 129.397 139.851 128.674C140.221 127.947 140.725 127.39 141.365 127.002C142.009 126.612 142.74 126.416 143.558 126.416C144.374 126.416 145.102 126.612 145.742 127.002C146.385 127.39 146.891 127.947 147.261 128.674C147.63 129.397 147.815 130.263 147.815 131.273ZM146.402 131.273C146.402 130.503 146.277 129.855 146.028 129.329C145.782 128.8 145.443 128.4 145.013 128.129C144.585 127.855 144.1 127.718 143.558 127.718C143.014 127.718 142.527 127.855 142.1 128.129C141.672 128.4 141.333 128.8 141.084 129.329C140.838 129.855 140.715 130.503 140.715 131.273C140.715 132.042 140.838 132.692 141.084 133.221C141.333 133.747 141.672 134.147 142.1 134.421C142.527 134.692 143.014 134.827 143.558 134.827C144.1 134.827 144.585 134.692 145.013 134.421C145.443 134.147 145.782 133.747 146.028 133.221C146.277 132.692 146.402 132.042 146.402 131.273Z" fill="#2E2B34"/>
<path d="M469.996 260.029C469.946 259.592 469.743 259.254 469.386 259.013C469.029 258.77 468.58 258.649 468.038 258.649C467.65 258.649 467.315 258.71 467.032 258.833C466.749 258.953 466.529 259.12 466.372 259.332C466.218 259.541 466.141 259.78 466.141 260.048C466.141 260.272 466.193 260.466 466.298 260.629C466.405 260.792 466.545 260.929 466.718 261.04C466.893 261.148 467.081 261.239 467.281 261.312C467.481 261.383 467.673 261.442 467.858 261.488L468.781 261.728C469.083 261.802 469.392 261.902 469.709 262.028C470.026 262.154 470.32 262.32 470.591 262.527C470.862 262.733 471.08 262.988 471.247 263.293C471.416 263.598 471.5 263.962 471.5 264.387C471.5 264.923 471.362 265.398 471.085 265.814C470.811 266.229 470.413 266.557 469.889 266.797C469.369 267.037 468.74 267.157 468.001 267.157C467.293 267.157 466.681 267.045 466.164 266.82C465.647 266.595 465.242 266.277 464.95 265.864C464.657 265.449 464.496 264.956 464.465 264.387H465.896C465.924 264.729 466.035 265.013 466.228 265.241C466.425 265.466 466.676 265.634 466.981 265.744C467.289 265.852 467.626 265.906 467.992 265.906C468.395 265.906 468.754 265.843 469.068 265.717C469.385 265.587 469.634 265.409 469.815 265.181C469.997 264.95 470.088 264.681 470.088 264.373C470.088 264.093 470.008 263.864 469.848 263.685C469.691 263.507 469.477 263.359 469.206 263.242C468.938 263.125 468.635 263.022 468.297 262.933L467.179 262.628C466.422 262.422 465.822 262.119 465.379 261.719C464.939 261.319 464.719 260.789 464.719 260.131C464.719 259.586 464.867 259.11 465.162 258.704C465.458 258.298 465.858 257.982 466.362 257.758C466.867 257.53 467.436 257.416 468.07 257.416C468.711 257.416 469.275 257.529 469.765 257.753C470.257 257.978 470.645 258.287 470.928 258.681C471.211 259.072 471.359 259.521 471.371 260.029H469.996ZM474.505 267V257.545H480.433V258.773H475.932V261.654H480.123V262.877H475.932V265.772H480.488V267H474.505ZM483.638 267V257.545H485.065V262.06H485.18L489.146 257.545H490.941L487.128 261.802L490.955 267H489.238L486.182 262.776L485.065 264.059V267H483.638ZM493.105 258.773V257.545H500.422V258.773H497.472V267H496.05V258.773H493.105Z" fill="#2E2B34"/>
<path d="M430.435 287V277.545H436.363V278.773H431.861V281.654H436.053V282.877H431.861V285.772H436.418V287H430.435ZM439.568 277.545H441.299L444.309 284.895H444.42L447.43 277.545H449.161V287H447.804V280.158H447.716L444.928 286.986H443.801L441.013 280.154H440.925V287H439.568V277.545ZM452.535 287V277.545H455.905C456.641 277.545 457.25 277.679 457.733 277.947C458.216 278.215 458.578 278.581 458.818 279.046C459.058 279.507 459.178 280.028 459.178 280.606C459.178 281.188 459.057 281.711 458.813 282.176C458.573 282.637 458.21 283.004 457.724 283.275C457.241 283.542 456.633 283.676 455.9 283.676H453.583V282.467H455.771C456.236 282.467 456.613 282.387 456.902 282.227C457.191 282.063 457.404 281.842 457.539 281.562C457.675 281.282 457.742 280.963 457.742 280.606C457.742 280.249 457.675 279.932 457.539 279.655C457.404 279.378 457.19 279.161 456.898 279.004C456.608 278.847 456.227 278.769 455.753 278.769H453.961V287H452.535ZM462.15 287V277.545H468.013V278.773H463.577V281.654H467.593V282.877H463.577V287H462.15ZM470.686 287H469.171L472.574 277.545H474.222L477.624 287H476.11L473.437 279.263H473.363L470.686 287ZM470.94 283.298H475.851V284.498H470.94V283.298ZM487.921 277.545V287H486.609L481.804 280.066H481.716V287H480.289V277.545H481.61L486.42 284.489H486.508V277.545H487.921ZM497.7 280.532C497.611 280.252 497.491 280.001 497.34 279.78C497.192 279.555 497.015 279.364 496.809 279.207C496.603 279.047 496.367 278.926 496.103 278.843C495.841 278.76 495.553 278.718 495.239 278.718C494.707 278.718 494.227 278.855 493.799 279.129C493.371 279.403 493.033 279.804 492.783 280.334C492.537 280.86 492.414 281.505 492.414 282.268C492.414 283.034 492.539 283.682 492.788 284.212C493.037 284.741 493.379 285.143 493.813 285.417C494.247 285.69 494.741 285.827 495.295 285.827C495.809 285.827 496.256 285.723 496.638 285.513C497.023 285.304 497.32 285.009 497.529 284.627C497.741 284.242 497.848 283.79 497.848 283.27L498.217 283.339H495.512V282.162H499.228V283.238C499.228 284.032 499.059 284.721 498.72 285.306C498.385 285.887 497.92 286.337 497.326 286.654C496.735 286.971 496.058 287.129 495.295 287.129C494.439 287.129 493.688 286.932 493.042 286.538C492.399 286.144 491.897 285.586 491.537 284.863C491.177 284.136 490.997 283.275 490.997 282.277C490.997 281.523 491.101 280.846 491.311 280.246C491.52 279.646 491.814 279.137 492.192 278.718C492.574 278.296 493.022 277.975 493.536 277.753C494.053 277.529 494.618 277.416 495.23 277.416C495.741 277.416 496.216 277.492 496.657 277.642C497.1 277.793 497.494 278.007 497.838 278.284C498.186 278.561 498.474 278.89 498.702 279.272C498.929 279.651 499.083 280.071 499.163 280.532H497.7Z" fill="#2E2B34"/>
<path d="M441.528 527V517.545H442.954V522.06H443.07L447.035 517.545H448.831L445.018 521.802L448.845 527H447.128L444.071 522.776L442.954 524.059V527H441.528ZM452.259 527H450.745L454.147 517.545H455.795L459.198 527H457.684L455.011 519.263H454.937L452.259 527ZM452.513 523.298H457.425V524.498H452.513V523.298ZM461.863 527V517.545H467.726V518.773H463.29V521.654H467.306V522.877H463.29V527H461.863ZM470.78 527V517.545H476.643V518.773H472.207V521.654H476.223V522.877H472.207V527H470.78ZM479.697 527V517.545H485.625V518.773H481.124V521.654H485.316V522.877H481.124V525.772H485.68V527H479.697ZM496.212 527.134C495.578 527.134 495.031 527.018 494.573 526.788C494.117 526.557 493.766 526.243 493.52 525.846C493.274 525.446 493.151 524.993 493.151 524.489C493.151 524.104 493.231 523.762 493.391 523.464C493.551 523.162 493.774 522.884 494.06 522.628C494.347 522.373 494.677 522.116 495.053 521.857L496.576 520.782C496.835 520.612 497.036 520.434 497.181 520.246C497.326 520.055 497.398 519.82 497.398 519.54C497.398 519.318 497.303 519.106 497.112 518.903C496.921 518.7 496.666 518.598 496.345 518.598C496.124 518.598 495.928 518.652 495.759 518.76C495.593 518.867 495.462 519.006 495.367 519.175C495.274 519.341 495.228 519.517 495.228 519.701C495.228 519.917 495.287 520.134 495.404 520.352C495.524 520.571 495.678 520.797 495.865 521.031C496.053 521.262 496.25 521.502 496.456 521.751L500.847 527H499.286L495.653 522.73C495.348 522.37 495.065 522.031 494.804 521.714C494.542 521.394 494.33 521.071 494.166 520.745C494.006 520.415 493.926 520.06 493.926 519.678C493.926 519.244 494.025 518.86 494.222 518.524C494.422 518.186 494.7 517.921 495.057 517.73C495.414 517.539 495.833 517.444 496.313 517.444C496.799 517.444 497.216 517.539 497.564 517.73C497.915 517.918 498.184 518.169 498.372 518.483C498.563 518.793 498.658 519.134 498.658 519.503C498.658 519.952 498.546 520.349 498.321 520.694C498.1 521.036 497.793 521.349 497.403 521.636L495.505 523.034C495.136 523.305 494.879 523.573 494.734 523.838C494.593 524.099 494.522 524.304 494.522 524.452C494.522 524.723 494.591 524.973 494.73 525.204C494.871 525.435 495.068 525.62 495.321 525.758C495.576 525.897 495.875 525.966 496.216 525.966C496.567 525.966 496.909 525.891 497.241 525.74C497.576 525.586 497.88 525.366 498.15 525.08C498.424 524.793 498.641 524.45 498.801 524.05C498.961 523.65 499.041 523.202 499.041 522.707H500.288C500.288 523.316 500.219 523.832 500.08 524.253C499.942 524.672 499.774 525.013 499.577 525.278C499.383 525.54 499.2 525.744 499.028 525.892C498.972 525.941 498.92 525.991 498.871 526.04C498.821 526.089 498.769 526.138 498.714 526.188C498.394 526.511 498.006 526.749 497.55 526.903C497.098 527.057 496.652 527.134 496.212 527.134Z" fill="#2E2B34"/>
<path d="M440.568 547V537.545H441.994V542.06H442.11L446.075 537.545H447.871L444.058 541.802L447.885 547H446.168L443.112 542.776L441.994 544.059V547H440.568ZM456.581 537.545H458.012V543.764C458.012 544.426 457.856 545.012 457.546 545.523C457.235 546.031 456.798 546.431 456.234 546.723C455.671 547.012 455.011 547.157 454.254 547.157C453.5 547.157 452.841 547.012 452.278 546.723C451.715 546.431 451.278 546.031 450.967 545.523C450.656 545.012 450.501 544.426 450.501 543.764V537.545H451.927V543.648C451.927 544.076 452.021 544.456 452.209 544.789C452.4 545.121 452.669 545.383 453.017 545.574C453.365 545.761 453.777 545.855 454.254 545.855C454.734 545.855 455.148 545.761 455.496 545.574C455.847 545.383 456.114 545.121 456.299 544.789C456.487 544.456 456.581 544.076 456.581 543.648V537.545ZM469.238 540.62H467.798C467.743 540.312 467.64 540.041 467.489 539.808C467.338 539.574 467.153 539.375 466.935 539.212C466.716 539.049 466.472 538.926 466.201 538.843C465.933 538.76 465.648 538.718 465.347 538.718C464.802 538.718 464.314 538.855 463.883 539.129C463.455 539.403 463.117 539.804 462.868 540.334C462.621 540.863 462.498 541.509 462.498 542.273C462.498 543.042 462.621 543.692 462.868 544.221C463.117 544.75 463.457 545.15 463.888 545.421C464.319 545.692 464.804 545.827 465.342 545.827C465.641 545.827 465.924 545.787 466.192 545.707C466.462 545.624 466.707 545.503 466.926 545.343C467.144 545.183 467.329 544.987 467.48 544.756C467.633 544.522 467.74 544.255 467.798 543.953L469.238 543.958C469.161 544.422 469.012 544.85 468.791 545.241C468.572 545.629 468.29 545.964 467.946 546.248C467.604 546.528 467.213 546.745 466.773 546.898C466.333 547.052 465.853 547.129 465.333 547.129C464.514 547.129 463.785 546.935 463.145 546.548C462.505 546.157 462 545.598 461.63 544.872C461.264 544.145 461.081 543.279 461.081 542.273C461.081 541.263 461.266 540.397 461.635 539.674C462.004 538.947 462.509 538.39 463.149 538.002C463.789 537.612 464.517 537.416 465.333 537.416C465.835 537.416 466.302 537.489 466.736 537.633C467.173 537.775 467.566 537.984 467.913 538.261C468.261 538.535 468.549 538.87 468.777 539.267C469.005 539.661 469.158 540.112 469.238 540.62ZM472.245 547V537.545H473.672V541.654H478.385V537.545H479.816V547H478.385V542.877H473.672V547H472.245ZM483.194 547V537.545H489.121V538.773H484.62V541.654H488.812V542.877H484.62V545.772H489.177V547H483.194ZM499.958 537.545V547H498.647L493.841 540.066H493.753V547H492.327V537.545H493.647L498.457 544.489H498.545V537.545H499.958Z" fill="#2E2B34"/>
<path d="M100.572 148.773V147.545H107.89V148.773H104.94V157H103.518V148.773H100.572ZM110.806 157V147.545H114.177C114.909 147.545 115.517 147.672 116 147.924C116.486 148.176 116.849 148.526 117.09 148.972C117.33 149.415 117.45 149.928 117.45 150.509C117.45 151.088 117.328 151.597 117.085 152.037C116.845 152.474 116.482 152.814 115.995 153.058C115.512 153.301 114.904 153.422 114.172 153.422H111.619V152.194H114.043C114.504 152.194 114.88 152.128 115.169 151.996C115.461 151.863 115.675 151.671 115.811 151.419C115.946 151.166 116.014 150.863 116.014 150.509C116.014 150.152 115.945 149.843 115.806 149.581C115.671 149.32 115.457 149.12 115.164 148.981C114.875 148.84 114.495 148.769 114.024 148.769H112.233V157H110.806ZM115.474 152.734L117.81 157H116.185L113.895 152.734H115.474ZM121.284 157H119.77L123.172 147.545H124.82L128.223 157H126.708L124.035 149.263H123.962L121.284 157ZM121.538 153.298H126.45V154.498H121.538V153.298ZM136.968 147.545H138.399V153.764C138.399 154.426 138.244 155.012 137.933 155.523C137.622 156.031 137.185 156.431 136.622 156.723C136.058 157.012 135.398 157.157 134.641 157.157C133.887 157.157 133.228 157.012 132.665 156.723C132.102 156.431 131.665 156.031 131.354 155.523C131.043 155.012 130.888 154.426 130.888 153.764V147.545H132.314V153.648C132.314 154.076 132.408 154.456 132.596 154.789C132.787 155.121 133.056 155.383 133.404 155.574C133.752 155.761 134.164 155.855 134.641 155.855C135.121 155.855 135.535 155.761 135.883 155.574C136.234 155.383 136.502 155.121 136.686 154.789C136.874 154.456 136.968 154.076 136.968 153.648V147.545ZM147.853 147.545H149.284V153.764C149.284 154.426 149.128 155.012 148.818 155.523C148.507 156.031 148.07 156.431 147.507 156.723C146.943 157.012 146.283 157.157 145.526 157.157C144.772 157.157 144.113 157.012 143.55 156.723C142.987 156.431 142.55 156.031 142.239 155.523C141.928 155.012 141.773 154.426 141.773 153.764V147.545H143.199V153.648C143.199 154.076 143.293 154.456 143.481 154.789C143.672 155.121 143.941 155.383 144.289 155.574C144.637 155.761 145.049 155.855 145.526 155.855C146.006 155.855 146.42 155.761 146.768 155.574C147.119 155.383 147.387 155.121 147.571 154.789C147.759 154.456 147.853 154.076 147.853 153.648V147.545ZM160.289 147.545V157H158.978L154.172 150.066H154.084V157H152.658V147.545H153.978L158.789 154.489H158.876V147.545H160.289ZM170.068 150.532C169.979 150.252 169.859 150.001 169.708 149.78C169.56 149.555 169.383 149.364 169.177 149.207C168.971 149.047 168.736 148.926 168.471 148.843C168.209 148.76 167.922 148.718 167.608 148.718C167.075 148.718 166.595 148.855 166.167 149.129C165.739 149.403 165.401 149.804 165.152 150.334C164.905 150.86 164.782 151.505 164.782 152.268C164.782 153.034 164.907 153.682 165.156 154.212C165.406 154.741 165.747 155.143 166.181 155.417C166.615 155.69 167.109 155.827 167.663 155.827C168.177 155.827 168.625 155.723 169.006 155.513C169.391 155.304 169.688 155.009 169.897 154.627C170.11 154.242 170.216 153.79 170.216 153.27L170.585 153.339H167.88V152.162H171.596V153.238C171.596 154.032 171.427 154.721 171.088 155.306C170.753 155.887 170.288 156.337 169.694 156.654C169.103 156.971 168.426 157.129 167.663 157.129C166.807 157.129 166.056 156.932 165.41 156.538C164.767 156.144 164.265 155.586 163.905 154.863C163.545 154.136 163.365 153.275 163.365 152.277C163.365 151.523 163.47 150.846 163.679 150.246C163.888 149.646 164.182 149.137 164.561 148.718C164.942 148.296 165.39 147.975 165.904 147.753C166.421 147.529 166.986 147.416 167.598 147.416C168.109 147.416 168.585 147.492 169.025 147.642C169.468 147.793 169.862 148.007 170.207 148.284C170.554 148.561 170.842 148.89 171.07 149.272C171.298 149.651 171.452 150.071 171.532 150.532H170.068Z" fill="#2E2B34"/>
<path d="M101.837 397H100.323L103.725 387.545H105.374L108.776 397H107.262L104.589 389.263H104.515L101.837 397ZM102.091 393.298H107.003V394.498H102.091V393.298ZM111.441 397V387.545H114.904C115.575 387.545 116.13 387.656 116.57 387.878C117.01 388.096 117.34 388.393 117.558 388.769C117.777 389.141 117.886 389.561 117.886 390.029C117.886 390.423 117.814 390.755 117.669 391.026C117.524 391.294 117.33 391.509 117.087 391.673C116.847 391.833 116.582 391.95 116.293 392.023V392.116C116.607 392.131 116.913 392.233 117.212 392.42C117.513 392.605 117.763 392.868 117.96 393.21C118.157 393.551 118.255 393.967 118.255 394.456C118.255 394.94 118.141 395.373 117.914 395.758C117.689 396.14 117.341 396.443 116.87 396.668C116.399 396.889 115.798 397 115.065 397H111.441ZM112.868 395.777H114.927C115.61 395.777 116.099 395.644 116.395 395.38C116.69 395.115 116.838 394.784 116.838 394.387C116.838 394.089 116.763 393.815 116.612 393.565C116.461 393.316 116.245 393.118 115.965 392.97C115.688 392.822 115.359 392.748 114.977 392.748H112.868V395.777ZM112.868 391.636H114.779C115.099 391.636 115.387 391.574 115.642 391.451C115.901 391.328 116.105 391.156 116.256 390.934C116.41 390.709 116.487 390.445 116.487 390.14C116.487 389.749 116.35 389.421 116.076 389.157C115.802 388.892 115.382 388.76 114.816 388.76H112.868V391.636ZM121.247 397V387.545H127.11V388.773H122.674V391.654H126.69V392.877H122.674V397H121.247ZM129.782 397H128.268L131.67 387.545H133.319L136.721 397H135.207L132.534 389.263H132.46L129.782 397ZM130.036 393.298H134.948V394.498H130.036V393.298ZM139.386 397V387.545H140.813V391.654H145.526V387.545H146.957V397H145.526V392.877H140.813V397H139.386ZM150.335 397V387.545H153.705C154.437 387.545 155.045 387.672 155.528 387.924C156.014 388.176 156.378 388.526 156.618 388.972C156.858 389.415 156.978 389.928 156.978 390.509C156.978 391.088 156.856 391.597 156.613 392.037C156.373 392.474 156.01 392.814 155.524 393.058C155.04 393.301 154.432 393.422 153.7 393.422H151.147V392.194H153.571C154.032 392.194 154.408 392.128 154.697 391.996C154.99 391.863 155.203 391.671 155.339 391.419C155.474 391.166 155.542 390.863 155.542 390.509C155.542 390.152 155.473 389.843 155.334 389.581C155.199 389.32 154.985 389.12 154.693 388.981C154.403 388.84 154.023 388.769 153.552 388.769H151.761V397H150.335ZM155.002 392.734L157.338 397H155.713L153.423 392.734H155.002ZM159.547 388.773V387.545H166.864V388.773H163.914V397H162.493V388.773H159.547Z" fill="#2E2B34"/>
<path d="M101.039 417V407.545H102.465V412.06H102.581L106.546 407.545H108.342L104.529 411.802L108.356 417H106.638L103.582 412.776L102.465 414.059V417H101.039ZM110.972 417V407.545H116.899V408.773H112.398V411.654H116.59V412.877H112.398V415.772H116.954V417H110.972ZM120.105 417V407.545H123.475C124.207 407.545 124.815 407.672 125.298 407.924C125.784 408.176 126.147 408.526 126.388 408.972C126.628 409.415 126.748 409.928 126.748 410.509C126.748 411.088 126.626 411.597 126.383 412.037C126.143 412.474 125.78 412.814 125.293 413.058C124.81 413.301 124.202 413.422 123.47 413.422H120.917V412.194H123.341C123.802 412.194 124.178 412.128 124.467 411.996C124.759 411.863 124.973 411.671 125.109 411.419C125.244 411.166 125.312 410.863 125.312 410.509C125.312 410.152 125.243 409.843 125.104 409.581C124.969 409.32 124.755 409.12 124.462 408.981C124.173 408.84 123.793 408.769 123.322 408.769H121.531V417H120.105ZM124.772 412.734L127.108 417H125.483L123.193 412.734H124.772ZM129.539 417V416.049L134.511 408.773H129.497V407.545H136.256V408.496L131.284 415.772H136.297V417H129.539ZM139.386 417V407.545H145.314V408.773H140.813V411.654H145.004V412.877H140.813V415.772H145.369V417H139.386ZM156.15 407.545V417H154.839L150.033 410.066H149.946V417H148.519V407.545H149.839L154.65 414.489H154.738V407.545H156.15ZM159.531 417V407.545H160.958V411.654H165.671V407.545H167.102V417H165.671V412.877H160.958V417H159.531ZM170.48 417V407.545H176.407V408.773H171.906V411.654H176.098V412.877H171.906V415.772H176.462V417H170.48ZM181.039 407.545V417H179.613V407.545H181.039ZM184.416 407.545H186.148L189.158 414.895H189.268L192.278 407.545H194.009V417H192.652V410.158H192.565L189.776 416.986H188.65L185.861 410.154H185.774V417H184.416V407.545Z" fill="#2E2B34"/>
<path d="M101.039 658V648.545H104.501C105.172 648.545 105.728 648.656 106.168 648.878C106.608 649.096 106.937 649.393 107.156 649.769C107.374 650.141 107.483 650.561 107.483 651.029C107.483 651.423 107.411 651.755 107.266 652.026C107.122 652.294 106.928 652.509 106.685 652.673C106.445 652.833 106.18 652.95 105.891 653.023V653.116C106.205 653.131 106.511 653.233 106.809 653.42C107.111 653.605 107.36 653.868 107.557 654.21C107.754 654.551 107.853 654.967 107.853 655.456C107.853 655.94 107.739 656.373 107.511 656.758C107.286 657.14 106.939 657.443 106.468 657.668C105.997 657.889 105.395 658 104.663 658H101.039ZM102.465 656.777H104.524C105.207 656.777 105.697 656.644 105.992 656.38C106.288 656.115 106.435 655.784 106.435 655.387C106.435 655.089 106.36 654.815 106.209 654.565C106.058 654.316 105.843 654.118 105.563 653.97C105.286 653.822 104.957 653.748 104.575 653.748H102.465V656.777ZM102.465 652.636H104.376C104.696 652.636 104.984 652.574 105.24 652.451C105.498 652.328 105.703 652.156 105.854 651.934C106.008 651.709 106.085 651.445 106.085 651.14C106.085 650.749 105.948 650.421 105.674 650.157C105.4 649.892 104.98 649.76 104.413 649.76H102.465V652.636ZM110.845 658V648.545H114.307C114.978 648.545 115.533 648.656 115.973 648.878C116.414 649.096 116.743 649.393 116.961 649.769C117.18 650.141 117.289 650.561 117.289 651.029C117.289 651.423 117.217 651.755 117.072 652.026C116.928 652.294 116.734 652.509 116.491 652.673C116.25 652.833 115.986 652.95 115.696 653.023V653.116C116.01 653.131 116.317 653.233 116.615 653.42C116.917 653.605 117.166 653.868 117.363 654.21C117.56 654.551 117.658 654.967 117.658 655.456C117.658 655.94 117.545 656.373 117.317 656.758C117.092 657.14 116.744 657.443 116.274 657.668C115.803 657.889 115.201 658 114.469 658H110.845ZM112.271 656.777H114.33C115.013 656.777 115.503 656.644 115.798 656.38C116.094 656.115 116.241 655.784 116.241 655.387C116.241 655.089 116.166 654.815 116.015 654.565C115.864 654.316 115.649 654.118 115.369 653.97C115.092 653.822 114.762 653.748 114.381 653.748H112.271V656.777ZM112.271 652.636H114.182C114.502 652.636 114.79 652.574 115.046 652.451C115.304 652.328 115.509 652.156 115.66 651.934C115.813 651.709 115.89 651.445 115.89 651.14C115.89 650.749 115.753 650.421 115.48 650.157C115.206 649.892 114.785 649.76 114.219 649.76H112.271V652.636ZM124.127 654.935H125.53L126.518 656.223L126.984 656.795L128.558 658.849H127.1L126.047 657.478L125.687 656.98L124.127 654.935ZM128.863 653.273C128.863 654.282 128.678 655.15 128.309 655.876C127.94 656.6 127.434 657.157 126.79 657.548C126.15 657.935 125.422 658.129 124.607 658.129C123.788 658.129 123.057 657.935 122.414 657.548C121.774 657.157 121.269 656.598 120.9 655.872C120.53 655.145 120.346 654.279 120.346 653.273C120.346 652.263 120.53 651.397 120.9 650.674C121.269 649.947 121.774 649.39 122.414 649.002C123.057 648.612 123.788 648.416 124.607 648.416C125.422 648.416 126.15 648.612 126.79 649.002C127.434 649.39 127.94 649.947 128.309 650.674C128.678 651.397 128.863 652.263 128.863 653.273ZM127.45 653.273C127.45 652.503 127.326 651.855 127.077 651.329C126.83 650.8 126.492 650.4 126.061 650.129C125.633 649.855 125.148 649.718 124.607 649.718C124.062 649.718 123.576 649.855 123.148 650.129C122.72 650.4 122.382 650.8 122.132 651.329C121.886 651.855 121.763 652.503 121.763 653.273C121.763 654.042 121.886 654.692 122.132 655.221C122.382 655.747 122.72 656.147 123.148 656.421C123.576 656.692 124.062 656.827 124.607 656.827C125.148 656.827 125.633 656.692 126.061 656.421C126.492 656.147 126.83 655.747 127.077 655.221C127.326 654.692 127.45 654.042 127.45 653.273ZM139.323 658.134C138.689 658.134 138.142 658.018 137.684 657.788C137.228 657.557 136.877 657.243 136.631 656.846C136.385 656.446 136.262 655.993 136.262 655.489C136.262 655.104 136.342 654.762 136.502 654.464C136.662 654.162 136.885 653.884 137.171 653.628C137.458 653.373 137.788 653.116 138.164 652.857L139.687 651.782C139.946 651.612 140.148 651.434 140.292 651.246C140.437 651.055 140.509 650.82 140.509 650.54C140.509 650.318 140.414 650.106 140.223 649.903C140.032 649.7 139.777 649.598 139.457 649.598C139.235 649.598 139.04 649.652 138.87 649.76C138.704 649.867 138.573 650.006 138.478 650.175C138.386 650.341 138.339 650.517 138.339 650.701C138.339 650.917 138.398 651.134 138.515 651.352C138.635 651.571 138.789 651.797 138.976 652.031C139.164 652.262 139.361 652.502 139.567 652.751L143.958 658H142.397L138.764 653.73C138.459 653.37 138.176 653.031 137.915 652.714C137.653 652.394 137.441 652.071 137.278 651.745C137.118 651.415 137.038 651.06 137.038 650.678C137.038 650.244 137.136 649.86 137.333 649.524C137.533 649.186 137.812 648.921 138.169 648.73C138.526 648.539 138.944 648.444 139.424 648.444C139.911 648.444 140.328 648.539 140.675 648.73C141.026 648.918 141.295 649.169 141.483 649.483C141.674 649.793 141.769 650.134 141.769 650.503C141.769 650.952 141.657 651.349 141.432 651.694C141.211 652.036 140.905 652.349 140.514 652.636L138.616 654.034C138.247 654.305 137.99 654.573 137.845 654.838C137.704 655.099 137.633 655.304 137.633 655.452C137.633 655.723 137.702 655.973 137.841 656.204C137.982 656.435 138.179 656.62 138.432 656.758C138.687 656.897 138.986 656.966 139.327 656.966C139.678 656.966 140.02 656.891 140.352 656.74C140.688 656.586 140.991 656.366 141.262 656.08C141.536 655.793 141.752 655.45 141.913 655.05C142.073 654.65 142.153 654.202 142.153 653.707H143.399C143.399 654.316 143.33 654.832 143.191 655.253C143.053 655.672 142.885 656.013 142.688 656.278C142.494 656.54 142.311 656.744 142.139 656.892C142.083 656.941 142.031 656.991 141.982 657.04C141.933 657.089 141.88 657.138 141.825 657.188C141.505 657.511 141.117 657.749 140.661 657.903C140.209 658.057 139.763 658.134 139.323 658.134Z" fill="#2E2B34"/>
<path d="M101.039 678V668.545H104.409C105.144 668.545 105.754 668.679 106.237 668.947C106.72 669.215 107.082 669.581 107.322 670.046C107.562 670.507 107.682 671.028 107.682 671.606C107.682 672.188 107.56 672.711 107.317 673.176C107.077 673.637 106.714 674.004 106.228 674.275C105.744 674.542 105.137 674.676 104.404 674.676H102.087V673.467H104.275C104.74 673.467 105.117 673.387 105.406 673.227C105.695 673.063 105.908 672.842 106.043 672.562C106.178 672.282 106.246 671.963 106.246 671.606C106.246 671.249 106.178 670.932 106.043 670.655C105.908 670.378 105.694 670.161 105.401 670.004C105.112 669.847 104.73 669.769 104.256 669.769H102.465V678H101.039ZM110.45 678H108.936L112.338 668.545H113.986L117.388 678H115.874L113.201 670.263H113.127L110.45 678ZM110.704 674.298H115.616V675.498H110.704V674.298ZM120.054 678V668.545H123.424C124.156 668.545 124.764 668.672 125.247 668.924C125.734 669.176 126.097 669.526 126.337 669.972C126.577 670.415 126.697 670.928 126.697 671.509C126.697 672.088 126.575 672.597 126.332 673.037C126.092 673.474 125.729 673.814 125.243 674.058C124.759 674.301 124.152 674.422 123.419 674.422H120.866V673.194H123.29C123.752 673.194 124.127 673.128 124.416 672.996C124.709 672.863 124.923 672.671 125.058 672.419C125.193 672.166 125.261 671.863 125.261 671.509C125.261 671.152 125.192 670.843 125.053 670.581C124.918 670.32 124.704 670.12 124.412 669.981C124.122 669.84 123.742 669.769 123.271 669.769H121.48V678H120.054ZM124.721 673.734L127.057 678H125.432L123.142 673.734H124.721ZM129.266 669.773V668.545H136.584V669.773H133.634V678H132.212V669.773H129.266ZM138.771 668.545H140.391L142.861 672.843H142.963L145.433 668.545H147.053L143.623 674.288V678H142.201V674.288L138.771 668.545Z" fill="#2E2B34"/>
<path d="M107.213 344.455V359H105.452V346.301H105.366L101.815 348.659V346.869L105.452 344.455H107.213ZM117.396 359V357.722L122.197 352.466C122.761 351.85 123.225 351.315 123.589 350.861C123.954 350.402 124.224 349.971 124.399 349.568C124.579 349.161 124.669 348.735 124.669 348.29C124.669 347.778 124.546 347.336 124.3 346.962C124.058 346.588 123.727 346.299 123.305 346.095C122.884 345.892 122.411 345.79 121.885 345.79C121.326 345.79 120.839 345.906 120.422 346.138C120.01 346.365 119.69 346.685 119.463 347.097C119.241 347.509 119.129 347.991 119.129 348.545H117.453C117.453 347.693 117.65 346.945 118.043 346.301C118.436 345.657 118.971 345.155 119.648 344.795C120.33 344.436 121.094 344.256 121.942 344.256C122.794 344.256 123.549 344.436 124.207 344.795C124.866 345.155 125.382 345.641 125.756 346.251C126.13 346.862 126.317 347.542 126.317 348.29C126.317 348.825 126.22 349.348 126.026 349.859C125.836 350.366 125.505 350.932 125.031 351.557C124.562 352.177 123.911 352.935 123.078 353.83L119.811 357.324V357.438H126.572V359H117.396ZM136.756 359.114C136.405 359.114 136.105 358.988 135.854 358.737C135.603 358.486 135.477 358.186 135.477 357.835C135.477 357.485 135.603 357.184 135.854 356.933C136.105 356.682 136.405 356.557 136.756 356.557C137.106 356.557 137.407 356.682 137.658 356.933C137.909 357.184 138.034 357.485 138.034 357.835C138.034 358.067 137.975 358.28 137.857 358.474C137.743 358.669 137.589 358.825 137.395 358.943C137.205 359.057 136.992 359.114 136.756 359.114ZM151.25 359.199C150.18 359.199 149.268 358.908 148.516 358.325C147.763 357.738 147.188 356.888 146.79 355.776C146.392 354.658 146.193 353.309 146.193 351.727C146.193 350.155 146.392 348.813 146.79 347.7C147.192 346.583 147.77 345.731 148.523 345.143C149.28 344.552 150.189 344.256 151.25 344.256C152.311 344.256 153.217 344.552 153.97 345.143C154.728 345.731 155.305 346.583 155.703 347.7C156.106 348.813 156.307 350.155 156.307 351.727C156.307 353.309 156.108 354.658 155.71 355.776C155.312 356.888 154.737 357.738 153.984 358.325C153.232 358.908 152.32 359.199 151.25 359.199ZM151.25 357.636C152.311 357.636 153.134 357.125 153.722 356.102C154.309 355.08 154.602 353.621 154.602 351.727C154.602 350.468 154.467 349.395 154.197 348.51C153.932 347.625 153.549 346.95 153.047 346.486C152.55 346.022 151.951 345.79 151.25 345.79C150.199 345.79 149.377 346.308 148.786 347.345C148.194 348.377 147.898 349.838 147.898 351.727C147.898 352.987 148.03 354.057 148.295 354.938C148.561 355.818 148.942 356.488 149.439 356.947C149.941 357.407 150.545 357.636 151.25 357.636ZM169.75 359.199C168.68 359.199 167.768 358.908 167.016 358.325C166.263 357.738 165.688 356.888 165.29 355.776C164.892 354.658 164.693 353.309 164.693 351.727C164.693 350.155 164.892 348.813 165.29 347.7C165.692 346.583 166.27 345.731 167.023 345.143C167.78 344.552 168.689 344.256 169.75 344.256C170.811 344.256 171.717 344.552 172.47 345.143C173.228 345.731 173.805 346.583 174.203 347.7C174.606 348.813 174.807 350.155 174.807 351.727C174.807 353.309 174.608 354.658 174.21 355.776C173.812 356.888 173.237 357.738 172.484 358.325C171.732 358.908 170.82 359.199 169.75 359.199ZM169.75 357.636C170.811 357.636 171.634 357.125 172.222 356.102C172.809 355.08 173.102 353.621 173.102 351.727C173.102 350.468 172.967 349.395 172.697 348.51C172.432 347.625 172.049 346.95 171.547 346.486C171.05 346.022 170.451 345.79 169.75 345.79C168.699 345.79 167.877 346.308 167.286 347.345C166.694 348.377 166.398 349.838 166.398 351.727C166.398 352.987 166.53 354.057 166.795 354.938C167.061 355.818 167.442 356.488 167.939 356.947C168.441 357.407 169.045 357.636 169.75 357.636Z" fill="#2E2B34"/>
<path d="M107.526 604.455V619H105.764V606.301H105.679L102.128 608.659V606.869L105.764 604.455H107.526ZM122.538 619.199C121.942 619.189 121.345 619.076 120.749 618.858C120.152 618.64 119.607 618.273 119.115 617.757C118.623 617.236 118.227 616.533 117.929 615.648C117.631 614.758 117.482 613.64 117.482 612.295C117.482 611.008 117.602 609.866 117.844 608.872C118.085 607.873 118.436 607.033 118.895 606.351C119.354 605.664 119.908 605.143 120.557 604.788C121.21 604.433 121.946 604.256 122.766 604.256C123.58 604.256 124.304 604.419 124.939 604.746C125.578 605.068 126.099 605.518 126.501 606.095C126.904 606.673 127.164 607.338 127.283 608.091H125.55C125.389 607.437 125.076 606.895 124.612 606.464C124.148 606.034 123.533 605.818 122.766 605.818C121.639 605.818 120.751 606.308 120.102 607.288C119.458 608.268 119.134 609.644 119.129 611.415H119.243C119.508 611.012 119.823 610.669 120.188 610.385C120.557 610.096 120.964 609.874 121.409 609.717C121.854 609.561 122.325 609.483 122.822 609.483C123.656 609.483 124.418 609.691 125.109 610.108C125.801 610.52 126.355 611.09 126.771 611.82C127.188 612.544 127.396 613.375 127.396 614.312C127.396 615.212 127.195 616.036 126.793 616.784C126.39 617.527 125.824 618.119 125.095 618.56C124.371 618.995 123.518 619.208 122.538 619.199ZM122.538 617.636C123.135 617.636 123.67 617.487 124.143 617.189C124.622 616.891 124.998 616.491 125.273 615.989C125.552 615.487 125.692 614.928 125.692 614.312C125.692 613.711 125.557 613.164 125.287 612.672C125.022 612.175 124.655 611.779 124.186 611.486C123.722 611.192 123.192 611.045 122.595 611.045C122.145 611.045 121.726 611.135 121.338 611.315C120.95 611.491 120.609 611.732 120.315 612.04C120.027 612.348 119.799 612.7 119.634 613.098C119.468 613.491 119.385 613.905 119.385 614.341C119.385 614.919 119.52 615.458 119.79 615.96C120.064 616.462 120.438 616.867 120.912 617.175C121.39 617.482 121.932 617.636 122.538 617.636ZM136.756 619.114C136.405 619.114 136.105 618.988 135.854 618.737C135.603 618.486 135.477 618.186 135.477 617.835C135.477 617.485 135.603 617.184 135.854 616.933C136.105 616.682 136.405 616.557 136.756 616.557C137.106 616.557 137.407 616.682 137.658 616.933C137.909 617.184 138.034 617.485 138.034 617.835C138.034 618.067 137.975 618.28 137.857 618.474C137.743 618.669 137.589 618.825 137.395 618.943C137.205 619.057 136.992 619.114 136.756 619.114ZM151.25 619.199C150.18 619.199 149.268 618.908 148.516 618.325C147.763 617.738 147.188 616.888 146.79 615.776C146.392 614.658 146.193 613.309 146.193 611.727C146.193 610.155 146.392 608.813 146.79 607.7C147.192 606.583 147.77 605.731 148.523 605.143C149.28 604.552 150.189 604.256 151.25 604.256C152.311 604.256 153.217 604.552 153.97 605.143C154.728 605.731 155.305 606.583 155.703 607.7C156.106 608.813 156.307 610.155 156.307 611.727C156.307 613.309 156.108 614.658 155.71 615.776C155.312 616.888 154.737 617.738 153.984 618.325C153.232 618.908 152.32 619.199 151.25 619.199ZM151.25 617.636C152.311 617.636 153.134 617.125 153.722 616.102C154.309 615.08 154.602 613.621 154.602 611.727C154.602 610.468 154.467 609.395 154.197 608.51C153.932 607.625 153.549 606.95 153.047 606.486C152.55 606.022 151.951 605.79 151.25 605.79C150.199 605.79 149.377 606.308 148.786 607.345C148.194 608.377 147.898 609.838 147.898 611.727C147.898 612.987 148.03 614.057 148.295 614.938C148.561 615.818 148.942 616.488 149.439 616.947C149.941 617.407 150.545 617.636 151.25 617.636ZM169.75 619.199C168.68 619.199 167.768 618.908 167.016 618.325C166.263 617.738 165.688 616.888 165.29 615.776C164.892 614.658 164.693 613.309 164.693 611.727C164.693 610.155 164.892 608.813 165.29 607.7C165.692 606.583 166.27 605.731 167.023 605.143C167.78 604.552 168.689 604.256 169.75 604.256C170.811 604.256 171.717 604.552 172.47 605.143C173.228 605.731 173.805 606.583 174.203 607.7C174.606 608.813 174.807 610.155 174.807 611.727C174.807 613.309 174.608 614.658 174.21 615.776C173.812 616.888 173.237 617.738 172.484 618.325C171.732 618.908 170.82 619.199 169.75 619.199ZM169.75 617.636C170.811 617.636 171.634 617.125 172.222 616.102C172.809 615.08 173.102 613.621 173.102 611.727C173.102 610.468 172.967 609.395 172.697 608.51C172.432 607.625 172.049 606.95 171.547 606.486C171.05 606.022 170.451 605.79 169.75 605.79C168.699 605.79 167.877 606.308 167.286 607.345C166.694 608.377 166.398 609.838 166.398 611.727C166.398 612.987 166.53 614.057 166.795 614.938C167.061 615.818 167.442 616.488 167.939 616.947C168.441 617.407 169.045 617.636 169.75 617.636Z" fill="#2E2B34"/>
<path d="M435.619 219.455V234H433.858V221.301H433.773L430.222 223.659V221.869L433.858 219.455H435.619ZM450.916 219.455V234H449.155V221.301H449.07L445.518 223.659V221.869L449.155 219.455H450.916ZM461.49 234.114C461.14 234.114 460.839 233.988 460.588 233.737C460.337 233.486 460.212 233.186 460.212 232.835C460.212 232.485 460.337 232.184 460.588 231.933C460.839 231.682 461.14 231.557 461.49 231.557C461.84 231.557 462.141 231.682 462.392 231.933C462.643 232.184 462.768 232.485 462.768 232.835C462.768 233.067 462.709 233.28 462.591 233.474C462.477 233.669 462.323 233.825 462.129 233.943C461.94 234.057 461.727 234.114 461.49 234.114ZM475.984 234.199C474.914 234.199 474.003 233.908 473.25 233.325C472.497 232.738 471.922 231.888 471.524 230.776C471.126 229.658 470.928 228.309 470.928 226.727C470.928 225.155 471.126 223.813 471.524 222.7C471.927 221.583 472.504 220.731 473.257 220.143C474.015 219.552 474.924 219.256 475.984 219.256C477.045 219.256 477.952 219.552 478.705 220.143C479.462 220.731 480.04 221.583 480.438 222.7C480.84 223.813 481.041 225.155 481.041 226.727C481.041 228.309 480.842 229.658 480.445 230.776C480.047 231.888 479.472 232.738 478.719 233.325C477.966 233.908 477.054 234.199 475.984 234.199ZM475.984 232.636C477.045 232.636 477.869 232.125 478.456 231.102C479.043 230.08 479.337 228.621 479.337 226.727C479.337 225.468 479.202 224.395 478.932 223.51C478.667 222.625 478.283 221.95 477.781 221.486C477.284 221.022 476.685 220.79 475.984 220.79C474.933 220.79 474.112 221.308 473.52 222.345C472.928 223.377 472.632 224.838 472.632 226.727C472.632 227.987 472.765 229.057 473.03 229.938C473.295 230.818 473.676 231.488 474.173 231.947C474.675 232.407 475.279 232.636 475.984 232.636ZM494.484 234.199C493.414 234.199 492.503 233.908 491.75 233.325C490.997 232.738 490.422 231.888 490.024 230.776C489.626 229.658 489.428 228.309 489.428 226.727C489.428 225.155 489.626 223.813 490.024 222.7C490.427 221.583 491.004 220.731 491.757 220.143C492.515 219.552 493.424 219.256 494.484 219.256C495.545 219.256 496.452 219.552 497.205 220.143C497.962 220.731 498.54 221.583 498.938 222.7C499.34 223.813 499.541 225.155 499.541 226.727C499.541 228.309 499.342 229.658 498.945 230.776C498.547 231.888 497.972 232.738 497.219 233.325C496.466 233.908 495.554 234.199 494.484 234.199ZM494.484 232.636C495.545 232.636 496.369 232.125 496.956 231.102C497.543 230.08 497.837 228.621 497.837 226.727C497.837 225.468 497.702 224.395 497.432 223.51C497.167 222.625 496.783 221.95 496.281 221.486C495.784 221.022 495.185 220.79 494.484 220.79C493.433 220.79 492.612 221.308 492.02 222.345C491.428 223.377 491.132 224.838 491.132 226.727C491.132 227.987 491.265 229.057 491.53 229.938C491.795 230.818 492.176 231.488 492.673 231.947C493.175 232.407 493.779 232.636 494.484 232.636Z" fill="#2E2B34"/>
<path d="M431.619 474.455V489H429.858V476.301H429.773L426.222 478.659V476.869L429.858 474.455H431.619ZM441.462 486.017V484.568L447.854 474.455H448.905V476.699H448.195L443.365 484.341V484.455H451.973V486.017H441.462ZM448.308 489V485.577V484.902V474.455H449.984V489H448.308ZM461.201 489.114C460.851 489.114 460.55 488.988 460.299 488.737C460.048 488.486 459.923 488.186 459.923 487.835C459.923 487.485 460.048 487.184 460.299 486.933C460.55 486.682 460.851 486.557 461.201 486.557C461.551 486.557 461.852 486.682 462.103 486.933C462.354 487.184 462.479 487.485 462.479 487.835C462.479 488.067 462.42 488.28 462.302 488.474C462.188 488.669 462.034 488.825 461.84 488.943C461.651 489.057 461.438 489.114 461.201 489.114ZM475.695 489.199C474.625 489.199 473.714 488.908 472.961 488.325C472.208 487.738 471.633 486.888 471.235 485.776C470.837 484.658 470.638 483.309 470.638 481.727C470.638 480.155 470.837 478.813 471.235 477.7C471.638 476.583 472.215 475.731 472.968 475.143C473.726 474.552 474.635 474.256 475.695 474.256C476.756 474.256 477.663 474.552 478.415 475.143C479.173 475.731 479.751 476.583 480.148 477.7C480.551 478.813 480.752 480.155 480.752 481.727C480.752 483.309 480.553 484.658 480.156 485.776C479.758 486.888 479.183 487.738 478.43 488.325C477.677 488.908 476.765 489.199 475.695 489.199ZM475.695 487.636C476.756 487.636 477.58 487.125 478.167 486.102C478.754 485.08 479.048 483.621 479.048 481.727C479.048 480.468 478.913 479.395 478.643 478.51C478.378 477.625 477.994 476.95 477.492 476.486C476.995 476.022 476.396 475.79 475.695 475.79C474.644 475.79 473.823 476.308 473.231 477.345C472.639 478.377 472.343 479.838 472.343 481.727C472.343 482.987 472.476 484.057 472.741 484.938C473.006 485.818 473.387 486.488 473.884 486.947C474.386 487.407 474.99 487.636 475.695 487.636ZM494.195 489.199C493.125 489.199 492.214 488.908 491.461 488.325C490.708 487.738 490.133 486.888 489.735 485.776C489.337 484.658 489.138 483.309 489.138 481.727C489.138 480.155 489.337 478.813 489.735 477.7C490.138 476.583 490.715 475.731 491.468 475.143C492.226 474.552 493.135 474.256 494.195 474.256C495.256 474.256 496.163 474.552 496.915 475.143C497.673 475.731 498.251 476.583 498.648 477.7C499.051 478.813 499.252 480.155 499.252 481.727C499.252 483.309 499.053 484.658 498.656 485.776C498.258 486.888 497.683 487.738 496.93 488.325C496.177 488.908 495.265 489.199 494.195 489.199ZM494.195 487.636C495.256 487.636 496.08 487.125 496.667 486.102C497.254 485.08 497.548 483.621 497.548 481.727C497.548 480.468 497.413 479.395 497.143 478.51C496.878 477.625 496.494 476.95 495.992 476.486C495.495 476.022 494.896 475.79 494.195 475.79C493.144 475.79 492.323 476.308 491.731 477.345C491.139 478.377 490.843 479.838 490.843 481.727C490.843 482.987 490.976 484.057 491.241 484.938C491.506 485.818 491.887 486.488 492.384 486.947C492.886 487.407 493.49 487.636 494.195 487.636Z" fill="#2E2B34"/>
<path d="M273.291 229.809L272.383 230.072L265.175 232.123L264.297 232.387L264.473 233.031L257.704 231.068L256.797 230.805L256.533 231.713L253.896 240.677C253.578 241.787 253.383 243.113 253.75 244.398C254.046 245.439 254.791 246.438 255.947 247.036L255.097 250.111L252.402 249.32L251.875 251.137L259.082 253.217L259.609 251.401L256.914 250.609L257.763 247.562C258.351 247.612 258.942 247.542 259.501 247.356C260.06 247.169 260.576 246.871 261.016 246.479C262.012 245.585 262.572 244.395 262.891 243.285L265.205 235.55L267.109 242.319V242.347C267.428 243.457 267.989 244.648 268.984 245.541C269.797 246.27 270.932 246.709 272.237 246.596L273.086 249.672L270.391 250.463L270.918 252.279L278.125 250.2L277.597 248.383L274.902 249.174L274.023 246.097C275.18 245.501 275.924 244.501 276.221 243.461C276.587 242.176 276.423 240.85 276.104 239.74L273.555 230.717L273.291 229.809ZM272.031 232.122L273.203 236.312H267.344L266.612 233.675L272.031 232.122ZM258.086 233.148L263.477 234.672L262.714 237.25H256.855L258.086 233.148ZM267.872 238.187H273.731L274.317 240.268C274.569 241.14 274.657 242.176 274.434 242.963C274.21 243.751 273.785 244.304 272.646 244.633C271.507 244.963 270.852 244.71 270.244 244.164C269.636 243.618 269.149 242.692 268.896 241.82L267.872 238.187ZM256.299 239.125H262.158L261.104 242.758H261.075C260.822 243.63 260.364 244.556 259.756 245.102C259.148 245.647 258.493 245.9 257.354 245.57C256.215 245.24 255.79 244.688 255.566 243.901C255.343 243.113 255.431 242.076 255.683 241.205L256.299 239.125Z" fill="#B8B3AF"/>
<path d="M348.87 370.075L343.581 369.26L340.358 363.994C340.188 363.718 339.951 363.491 339.668 363.334C339.385 363.177 339.067 363.096 338.744 363.098L325.234 363.206C324.844 363.209 324.465 363.334 324.15 363.562C323.834 363.791 323.597 364.112 323.473 364.481L321.938 369.034V379.5H325.161C325.411 380.314 325.916 381.027 326.602 381.533C327.287 382.04 328.117 382.313 328.969 382.313C329.821 382.313 330.651 382.04 331.336 381.533C332.021 381.027 332.526 380.314 332.777 379.5H338.754C339.005 380.314 339.51 381.027 340.195 381.533C340.881 382.04 341.71 382.313 342.563 382.313C343.415 382.313 344.244 382.04 344.93 381.533C345.615 381.027 346.12 380.314 346.371 379.5H350.063V371.465C350.064 371.128 349.944 370.803 349.725 370.548C349.507 370.292 349.203 370.124 348.87 370.075ZM334.125 365.01L338.758 364.973L341.342 369.194L334.125 369.192V365.01ZM325.249 365.081L332.25 365.025V369.191L323.864 369.188L325.249 365.081ZM328.969 380.438C328.552 380.438 328.144 380.314 327.797 380.082C327.45 379.85 327.18 379.521 327.02 379.135C326.86 378.75 326.819 378.326 326.9 377.917C326.981 377.507 327.182 377.132 327.477 376.837C327.772 376.542 328.148 376.341 328.557 376.259C328.966 376.178 329.391 376.22 329.776 376.379C330.161 376.539 330.491 376.809 330.723 377.156C330.954 377.503 331.078 377.911 331.078 378.328C331.078 378.887 330.855 379.424 330.46 379.819C330.064 380.214 329.528 380.437 328.969 380.438ZM342.563 380.438C342.145 380.438 341.737 380.314 341.391 380.082C341.044 379.85 340.773 379.521 340.614 379.135C340.454 378.75 340.412 378.326 340.494 377.917C340.575 377.507 340.776 377.132 341.071 376.837C341.366 376.542 341.742 376.341 342.151 376.259C342.56 376.178 342.984 376.22 343.37 376.379C343.755 376.539 344.085 376.809 344.316 377.156C344.548 377.503 344.672 377.911 344.672 378.328C344.671 378.887 344.449 379.424 344.053 379.819C343.658 380.214 343.122 380.437 342.563 380.438ZM348.188 377.625H346.483C346.319 376.705 345.836 375.872 345.119 375.272C344.402 374.672 343.497 374.344 342.563 374.344C341.628 374.344 340.723 374.672 340.006 375.272C339.289 375.872 338.806 376.705 338.642 377.625H332.89C332.725 376.705 332.242 375.872 331.525 375.272C330.808 374.672 329.903 374.344 328.969 374.344C328.034 374.344 327.129 374.672 326.412 375.272C325.696 375.872 325.212 376.705 325.048 377.625H323.813V371.064L343.179 371.095L348.188 371.867V377.625Z" fill="#B8B3AF"/>
<path d="M341.859 102.75C339.439 102.75 337.321 103.791 336 105.55C334.679 103.791 332.561 102.75 330.141 102.75C328.214 102.752 326.368 103.518 325.005 104.88C323.643 106.243 322.877 108.089 322.875 110.016C322.875 118.219 335.038 124.859 335.556 125.133C335.692 125.206 335.845 125.245 336 125.245C336.155 125.245 336.308 125.206 336.444 125.133C336.962 124.859 349.125 118.219 349.125 110.016C349.123 108.089 348.357 106.243 346.995 104.88C345.632 103.518 343.786 102.752 341.859 102.75ZM336 123.234C333.86 121.987 324.75 116.307 324.75 110.016C324.752 108.587 325.32 107.216 326.331 106.206C327.341 105.195 328.712 104.627 330.141 104.625C332.42 104.625 334.334 105.839 335.133 107.789C335.203 107.961 335.324 108.108 335.478 108.212C335.632 108.315 335.814 108.37 336 108.37C336.186 108.37 336.368 108.315 336.522 108.212C336.676 108.108 336.797 107.961 336.867 107.789C337.666 105.836 339.58 104.625 341.859 104.625C343.288 104.627 344.659 105.195 345.669 106.206C346.68 107.216 347.248 108.587 347.25 110.016C347.25 116.298 338.137 121.986 336 123.234Z" fill="#B8B3AF"/>
<defs>
<clipPath id="clip0_58_801">
<rect width="30" height="30" fill="white" transform="translate(321 622)"/>
</clipPath>
</defs>
</svg>
