<?xml version="1.0" standalone="no"?>
<!DOCTYPE svg PUBLIC "-//W3C//DTD SVG 1.1//EN" "http://www.w3.org/Graphics/SVG/1.1/DTD/svg11.dtd" >
<svg xmlns="http://www.w3.org/2000/svg" xmlns:xlink="http://www.w3.org/1999/xlink" version="1.1">
<metadata>
Created by FontForge 20170731 at Mon Oct  5 23:20:45 2020
 By Aleksey,,,
Copyright (c) 2020 by Sweetest Goods. All rights reserved.
</metadata>
<defs>
<font id="Apricosa-Regular" horiz-adv-x="312" >
  <font-face 
    font-family="Apricosa"
    font-weight="400"
    font-stretch="normal"
    units-per-em="1000"
    panose-1="0 0 5 0 0 0 0 0 0 0"
    ascent="800"
    descent="-200"
    x-height="460"
    cap-height="690"
    bbox="-288 -290 1590 1021"
    underline-thickness="50"
    underline-position="-150"
    unicode-range="U+0020-E077"
  />
<missing-glyph horiz-adv-x="535" 
d="M439 -270h-339v1070h339v-1070zM180 728v-35h69v-40h-70v-35h177v35h-70v40h70v35h-176zM179 590v-111h177v36h-70v75h-107zM249 515h-35v39h35v-39zM179 450v-35h70v-40h-70v-35h107v75h70v35h-177zM321 386v-71h-142v-36h177v107h-35zM249 255v-60h37v25h35v-50h-107
v85h-35v-121h177v121h-107zM179 70v-121h177v121h-177zM321 -15h-107v50h107v-50zM179 -75v-36h75l-75 -50v-35h177v35h-109l75 50h34v36h-177z" />
    <glyph glyph-name="f_f" unicode="ff" horiz-adv-x="609" 
d="M512 460h60v-40h-60v-299q0 -39 16 -60t40 -21v-40h-544v40q24 0 40 21t16 60v299h-60v40h60v108q0 78 40.5 110t95.5 32q40 0 70.5 -28t30.5 -68q0 -38 -28 -66t-68 -28q-39 0 -66.5 28t-27.5 66q0 14 3 24l-10 4q-9 -18 -9 -38q0 -51 33.5 -82.5t95.5 -31.5v-30h112
v108q0 78 40.5 110t95.5 32q40 0 70.5 -28t30.5 -68q0 -38 -28 -66t-68 -28q-39 0 -66.5 28t-27.5 66q0 14 3 24l-10 4q-9 -18 -9 -38q0 -51 33.5 -82.5t95.5 -31.5v-30zM352 420h-112v-299q0 -39 16 -60t40 -21t40 21t16 60v299z" />
    <glyph glyph-name=".notdef" horiz-adv-x="535" 
d="M439 -270h-339v1070h339v-1070zM180 728v-35h69v-40h-70v-35h177v35h-70v40h70v35h-176zM179 590v-111h177v36h-70v75h-107zM249 515h-35v39h35v-39zM179 450v-35h70v-40h-70v-35h107v75h70v35h-177zM321 386v-71h-142v-36h177v107h-35zM249 255v-60h37v25h35v-50h-107
v85h-35v-121h177v121h-107zM179 70v-121h177v121h-177zM321 -15h-107v50h107v-50zM179 -75v-36h75l-75 -50v-35h177v35h-109l75 50h34v36h-177z" />
    <glyph glyph-name=".null" horiz-adv-x="0" 
 />
    <glyph glyph-name="nonmarkingreturn" horiz-adv-x="333" 
 />
    <glyph glyph-name="space" unicode=" " horiz-adv-x="200" 
 />
    <glyph glyph-name="exclam" unicode="!" horiz-adv-x="230" 
d="M47 460q-3 20 -6.5 35t-5.5 25q-15 68 -15 96q0 38 28 66t68 28q38 0 66 -28t28 -66q0 -16 -4.5 -41t-9.5 -51q-10 -51 -12 -64l-38 -240h-60q-20 128 -39 240zM48 8q-28 28 -28 68q0 38 28 66t68 28q38 0 66 -28t28 -66q0 -40 -28 -68t-66 -28q-40 0 -68 28z" />
    <glyph glyph-name="quotedbl" unicode="&#x22;" horiz-adv-x="470" 
d="M84.5 444q-10.5 30 -30.5 68q-17 31 -25.5 54t-8.5 49q0 40 27.5 67.5t67.5 27.5t67.5 -27.5t27.5 -67.5q0 -25 -8.5 -47t-25.5 -56q-21 -39 -31.5 -68.5t-10.5 -67.5h-39q0 38 -10.5 68zM324.5 444q-10.5 30 -30.5 68q-17 31 -25.5 54t-8.5 49q0 40 27.5 67.5t67.5 27.5
t67.5 -27.5t27.5 -67.5q0 -25 -8.5 -47t-25.5 -56q-21 -39 -31.5 -68.5t-10.5 -67.5h-39q0 38 -10.5 68z" />
    <glyph glyph-name="numbersign" unicode="#" horiz-adv-x="729" 
d="M558 428l-72 -190h143v-75h-171l-62 -163h-80l62 163h-160l-62 -163h-80l62 163h-118v75h146l72 190h-138v75h166l71 187h80l-71 -187h160l71 187h80l-71 -187h123v-75h-151zM478 428h-160l-72 -190h160z" />
    <glyph glyph-name="dollar" unicode="$" horiz-adv-x="593" 
d="M543 88.5q-30 -44.5 -85 -72.5t-128 -34v-92h-75v91q-76 5 -136.5 30t-97.5 57v175h40q0 -53 24.5 -96t69 -69.5t100.5 -31.5v230l-100 42q-38 17 -66 37t-48.5 55t-20.5 88q0 61 31.5 106.5t85 72t118.5 32.5v91h75v-92q39 -4 70 -12t79 -24l34 -12v-149h-40
q0 31 -20.5 59.5t-53.5 48t-69 24.5v-225l89 -34q81 -31 117.5 -79.5t36.5 -116.5q0 -55 -30 -99.5zM200.5 481q20.5 -19 54.5 -33v189q-34 -12 -54.5 -37t-20.5 -58q0 -42 20.5 -61zM414.5 85q30.5 27 30.5 65q0 36 -30 56t-85 39v-196q54 9 84.5 36z" />
    <glyph glyph-name="percent" unicode="%" horiz-adv-x="835" 
d="M42.5 627.5q22.5 38.5 62 60.5t90.5 22t90.5 -22t62 -60t22.5 -86q0 -47 -22.5 -85.5t-62 -60.5t-90.5 -22t-90.5 22t-62 60.5t-22.5 85.5t22.5 85.5zM589 690l-263 -690h-80l263 690h80zM140.5 456q20.5 -31 54.5 -31t54.5 31t20.5 86t-20.5 86t-54.5 31t-54.5 -31
t-20.5 -86t20.5 -86zM487.5 233.5q22.5 38.5 62 60.5t90.5 22t90.5 -22t62 -60t22.5 -86q0 -47 -22.5 -85.5t-62 -60.5t-90.5 -22t-90.5 22t-62 60.5t-22.5 85.5t22.5 85.5zM585.5 62q20.5 -31 54.5 -31t54.5 31t20.5 86t-20.5 86t-54.5 31t-54.5 -31t-20.5 -86t20.5 -86z
" />
    <glyph glyph-name="ampersand" unicode="&#x26;" horiz-adv-x="802" 
d="M722 86q19 20 19 43h30q0 -149 -145 -149q-82 0 -184 89q-79 -89 -191 -89q-60 0 -113 20.5t-85.5 61.5t-32.5 99q0 73 53.5 121.5t127.5 79.5l-13 20q-26 43 -39.5 76.5t-13.5 73.5q0 79 50 128.5t131 49.5q44 0 82 -22t61 -60t23 -83q0 -69 -37.5 -112t-78.5 -64
q45 -60 70 -92l39 -51q38 70 63 108t60.5 66t79.5 28q45 0 74.5 -27.5t29.5 -66.5q0 -40 -28 -68t-66 -28q-35 0 -61.5 22.5t-32.5 55.5q-21 -30 -55 -94l-22 -41q-3 2 41 -38q44 -41 68.5 -59t47.5 -18q29 0 48 20zM289 611q-17 -24 -17 -63q0 -34 11 -56.5t36 -58.5
l11 -16q74 41 74 126q0 37 -20 64.5t-47 27.5q-31 0 -48 -24zM400 110q-13 13 -17 19q-80 96 -149 188q-32 -19 -50.5 -45.5t-18.5 -67.5q0 -64 39.5 -103.5t99.5 -39.5q50 0 96 49z" />
    <glyph glyph-name="quotesingle" unicode="'" horiz-adv-x="230" 
d="M84.5 444q-10.5 30 -30.5 68q-17 31 -25.5 54t-8.5 49q0 40 27.5 67.5t67.5 27.5t67.5 -27.5t27.5 -67.5q0 -25 -8.5 -47t-25.5 -56q-21 -39 -31.5 -68.5t-10.5 -67.5h-39q0 38 -10.5 68z" />
    <glyph glyph-name="parenleft" unicode="(" horiz-adv-x="367" 
d="M346 750q-82 -108 -124 -210.5t-42 -239.5t42 -239.5t125 -210.5l-50 -50q-69 60 -124.5 120t-104 159.5t-48.5 220.5t48.5 220.5t104 159.5t124.5 120z" />
    <glyph glyph-name="parenright" unicode=")" horiz-adv-x="367" 
d="M194.5 680q55.5 -60 104 -159.5t48.5 -220.5t-48.5 -220.5t-104 -159.5t-124.5 -120l-50 50q83 108 125 210.5t42 239.5t-42 239.5t-124 210.5l49 50q69 -60 124.5 -120z" />
    <glyph glyph-name="asterisk" unicode="*" horiz-adv-x="376" 
d="M349 484q7 -12 7 -27t-7 -26q-7 -12 -19.5 -19.5t-26.5 -7.5q-13 0 -26 8q-9 5 -17.5 15t-13 17t-6.5 10q-19 32 -39 49q4 -24 22 -58q2 -3 7.5 -14.5t8 -21t2.5 -18.5q0 -22 -15.5 -37.5t-37.5 -15.5q-21 0 -37 15t-16 36q0 13 4.5 24.5t14.5 30.5q18 34 22 58
q-18 -15 -38 -47q-2 -4 -9.5 -14.5t-14.5 -17.5t-15 -11q-11 -7 -26 -7t-27 7t-19 19q-7 11 -7 27q0 14 7 26t19 19q11 6 23 8t32 3q41 2 63 10q-20 7 -39.5 8t-22.5 1q-20 1 -32 3t-23 8q-13 8 -20 21t-7 27q0 23 16 37t37 14q16 0 27 -7q11 -6 18.5 -15.5t18.5 -26.5
l13 -19.5t26 -28.5q-3 14 -9.5 28.5t-13.5 27.5q-10 20 -14 30t-4 22q0 23 15.5 39.5t37.5 16.5t37.5 -16t15.5 -38q0 -12 -4.5 -23t-13.5 -30q-18 -33 -22 -57q16 14 38 48q11 17 18.5 26.5t18.5 15.5q13 7 27 7q15 0 27 -7t19 -19q7 -11 7 -26q0 -14 -7 -27t-20 -20
q-11 -6 -23 -8t-32 -3q-38 -2 -59 -9q21 -7 59 -9q20 -1 32.5 -3t23.5 -9q12 -7 19 -19z" />
    <glyph glyph-name="plus" unicode="+" horiz-adv-x="380" 
d="M360 253h-132v-132h-75v132h-133v75h133v133h75v-133h132v-75z" />
    <glyph glyph-name="comma" unicode="," horiz-adv-x="230" 
d="M48 8q-28 28 -28 68q0 38 28 66t68 28q26 0 50 -14t39 -40t15 -60q0 -30 -15 -72t-52.5 -91t-99.5 -93l-17 24q46 49 64.5 89.5t15.5 66.5q-40 0 -68 28z" />
    <glyph glyph-name="hyphen" unicode="-" horiz-adv-x="380" 
d="M340 328v-75h-300v75h300z" />
    <glyph glyph-name="period" unicode="." horiz-adv-x="230" 
d="M48 8q-28 28 -28 68t28 67t68 27t67 -27t27 -67t-27 -68t-67 -28t-68 28z" />
    <glyph glyph-name="slash" unicode="/" horiz-adv-x="501" 
d="M481 800l-381 -1000h-80l381 1000h80z" />
    <glyph glyph-name="zero" unicode="0" horiz-adv-x="664" 
d="M61 537q41 83 112 128.5t158 45.5t158.5 -45.5t113 -129t41.5 -190.5t-41.5 -190.5t-113 -129t-158.5 -45.5t-158 45.5t-112 128.5t-41 191t41 191zM199.5 192.5q19.5 -65.5 54 -101t77.5 -35.5q44 0 78.5 35.5t54.5 101t20 153.5t-20 153.5t-54.5 101t-78.5 35.5
t-78.5 -35t-53.5 -100.5t-19 -154.5q0 -88 19.5 -153.5z" />
    <glyph glyph-name="one" unicode="1" horiz-adv-x="374" 
d="M123 512q-15 18 -38 18t-47 -13l-18 36l238 157h40v-589q0 -39 16 -60t40 -21v-40h-272v40q24 0 40 21t16 60v328q0 45 -15 63z" />
    <glyph glyph-name="two" unicode="2" horiz-adv-x="552" 
d="M245.5 244.5q58.5 54.5 90.5 111.5t32 127q0 75 -37.5 118.5t-99.5 43.5q-63 0 -104 -50q38 -1 65.5 -28.5t27.5 -65.5q0 -40 -28 -68t-66 -28q-40 0 -68 30t-28 76q0 57 33.5 102.5t88 71t114.5 25.5q77 0 136.5 -25t92.5 -71t33 -106q0 -73 -34.5 -130t-87.5 -100
t-151 -109l-43 -29h129q55 0 88.5 23.5t48 49.5t14.5 33h40v-246h-475v83q130 107 188.5 161.5z" />
    <glyph glyph-name="three" unicode="3" horiz-adv-x="592" 
d="M515.5 328q56.5 -44 56.5 -129q0 -72 -45.5 -121.5t-114 -73.5t-136.5 -24q-61 0 -120 23.5t-97.5 68.5t-38.5 107v2q0 32 22.5 57.5t52.5 25.5q31 0 53 -22t22 -53q0 -20 -10 -37t-26 -27q19 -37 57.5 -53.5t84.5 -16.5q57 0 96.5 38.5t39.5 105.5q0 48 -28 83
t-67.5 52.5t-71.5 17.5v69q26 0 53 13.5t45 38t18 55.5q0 47 -28 77t-81 30q-73 0 -104 -40q18 -10 28.5 -27.5t10.5 -38.5q0 -31 -22 -53t-53 -22q-30 0 -52 22.5t-23 52.5v1v1v6q2 46 33.5 86t84 63.5t115.5 23.5q78 0 134.5 -22.5t86.5 -61.5t30 -86q0 -62 -38 -95
t-107 -50v-8q83 -15 139.5 -59z" />
    <glyph glyph-name="four" unicode="4" horiz-adv-x="589" 
d="M483 160v-39q0 -39 16 -60t40 -21v-40h-272v40q24 0 40 21t16 60v39h-303v60l353 470h110v-470h86v-60h-86zM323 220v304l-228 -304h228z" />
    <glyph glyph-name="five" unicode="5" horiz-adv-x="585" 
d="M445 415.5q61 -34.5 90.5 -90.5t29.5 -122q0 -62 -33.5 -112.5t-98.5 -80.5t-156 -30q-56 0 -115.5 16.5t-100.5 53t-41 90.5q0 38 28 66t68 28q38 0 66 -28t28 -66q0 -34 -21 -61q24 -39 88 -39q59 0 93.5 43t34.5 120q0 52 -22 89t-57.5 55t-74.5 18q-33 0 -61.5 -12.5
t-64.5 -48.5h-75v386h334q39 0 60 16t21 40h40v-196h-380v-174q68 74 168 74q91 0 152 -34.5z" />
    <glyph glyph-name="six" unicode="6" horiz-adv-x="588" 
d="M431 451.5q61 -28.5 99 -85.5t38 -138q0 -60 -31.5 -117t-92 -94t-142.5 -37q-80 0 -144 38.5t-101 111t-37 172.5q0 102 47.5 196.5t132.5 153t190 58.5v-55q-94 0 -143 -58t-60 -157q49 40 115 40q68 0 129 -28.5zM356.5 83.5q25.5 28.5 38.5 72t13 86.5
q0 69 -29.5 116t-84.5 47q-32 0 -58 -21t-41 -60.5t-15 -91.5q0 -43 13 -83.5t38.5 -67t62.5 -26.5t62.5 28.5z" />
    <glyph glyph-name="seven" unicode="7" horiz-adv-x="525" 
d="M505 590q-96 -106 -138 -185.5t-50.5 -140.5t-8.5 -171q0 -44 -23.5 -78.5t-71.5 -34.5q-47 0 -71 33t-24 70q0 107 69 217t223 250h-199q-55 0 -88.5 -23.5t-48 -49.5t-14.5 -33h-40v246h485v-100z" />
    <glyph glyph-name="eight" unicode="8" horiz-adv-x="572" 
d="M514 315q38 -46 38 -122q0 -58 -29 -106t-89.5 -77.5t-149.5 -29.5q-49 0 -110 17t-107.5 60t-46.5 114q0 104 121 174q-43 30 -67 71t-24 100q0 60 35 104t88.5 67t108.5 23q69 0 119.5 -24.5t77 -64.5t26.5 -85q0 -78 -95 -143q66 -32 104 -78zM244 633.5
q-24 -11.5 -39.5 -34t-15.5 -53.5t20.5 -53t48.5 -35.5t88 -37.5q25 25 37 51t12 65q0 54 -32 81.5t-71 27.5q-24 0 -48 -11.5zM388 64q34 34 34 80q0 35 -20.5 60t-51.5 41.5t-85 38.5q-44 18 -66 28q-58 -51 -58 -133q0 -67 44 -108t109 -41q60 0 94 34z" />
    <glyph glyph-name="nine" unicode="9" horiz-adv-x="588" 
d="M430 671.5q64 -38.5 101 -111t37 -172.5q0 -102 -47.5 -196.5t-132.5 -153t-190 -58.5v55q94 0 143 58t60 157q-49 -40 -115 -40q-68 0 -129 28.5t-99 85.5t-38 138q0 60 31.5 117t92 94t142.5 37q80 0 144 -38.5zM352 306q26 21 41 60.5t15 91.5q0 43 -13 83.5t-38.5 67
t-62.5 26.5t-62.5 -28.5t-38.5 -72t-13 -86.5q0 -69 29.5 -116t84.5 -47q32 0 58 21z" />
    <glyph glyph-name="colon" unicode=":" horiz-adv-x="230" 
d="M48 298q-28 28 -28 68q0 38 28 66t68 28q38 0 66 -28t28 -66q0 -40 -28 -68t-66 -28q-40 0 -68 28zM48 8q-28 28 -28 68q0 38 28 66t68 28q38 0 66 -28t28 -66q0 -40 -28 -68t-66 -28q-40 0 -68 28z" />
    <glyph glyph-name="semicolon" unicode=";" horiz-adv-x="230" 
d="M48 298q-28 28 -28 68q0 38 28 66t68 28q38 0 66 -28t28 -66q0 -40 -28 -68t-66 -28q-40 0 -68 28zM43 8q-28 28 -28 68q0 38 28 66t68 28q26 0 50 -14t39 -40t15 -60q0 -30 -15 -72t-52.5 -91t-99.5 -93l-17 24q46 49 64.5 89.5t15.5 66.5q-40 0 -68 28z" />
    <glyph glyph-name="less" unicode="&#x3c;" horiz-adv-x="315" 
d="M135 291l160 -184l-40 -30l-235 194v40l235 194l40 -30z" />
    <glyph glyph-name="equal" unicode="=" horiz-adv-x="560" 
d="M540 428v-75h-520v75h520zM540 228v-75h-520v75h520z" />
    <glyph glyph-name="greater" unicode="&#x3e;" horiz-adv-x="315" 
d="M295 311v-40l-235 -194l-40 30l160 184l-160 184l40 30z" />
    <glyph glyph-name="question" unicode="?" horiz-adv-x="515" 
d="M381 685.5q54 -24.5 84 -67t30 -92.5q0 -33 -15.5 -60.5t-38 -48.5t-60.5 -52q-52 -41 -76.5 -69.5t-24.5 -65.5h-50q0 65 16 106.5t45 88.5q22 36 33 62t11 59q0 44 -32.5 74t-74.5 30q-58 0 -84 -33q25 -11 40.5 -34.5t15.5 -51.5q0 -40 -28 -68t-66 -28
q-39 0 -67.5 30.5t-28.5 70.5q0 46 33 86t90 64t124 24q70 0 124 -24.5zM321 142q28 -28 28 -66q0 -40 -28 -68t-66 -28q-40 0 -68 28t-28 68q0 38 28 66t68 28q38 0 66 -28z" />
    <glyph glyph-name="at" unicode="@" horiz-adv-x="1030" 
d="M773 680.5q114 -58.5 175.5 -154.5t61.5 -205q0 -148 -58 -217t-171 -69q-62 0 -114.5 29t-72.5 78q-27 -31 -64 -49t-79 -18q-60 0 -108 27.5t-75.5 75t-27.5 105.5t27.5 106t75.5 75.5t108 27.5q38 0 72.5 -15t61.5 -42v39h32q33 0 50 13t17 34h34v-336
q0 -47 21.5 -81.5t61.5 -34.5q76 0 122.5 62t46.5 190q0 98 -56 185t-160.5 140t-243.5 53q-132 0 -234.5 -55t-159 -152.5t-56.5 -220.5q0 -118 64 -212t169.5 -146.5t226.5 -52.5q69 0 123 18.5t85 45.5l25 -32q-37 -30 -97.5 -51t-135.5 -21q-133 0 -248 58t-183.5 161.5
t-68.5 231.5q0 133 62.5 240t173.5 167.5t254 60.5q149 0 263 -58.5zM528.5 156.5q25.5 18.5 41 51.5t15.5 75t-15.5 75.5t-41 52t-55.5 18.5q-45 0 -72.5 -40.5t-27.5 -105.5t27.5 -105t72.5 -40q30 0 55.5 18.5z" />
    <glyph glyph-name="A" unicode="A" horiz-adv-x="816" 
d="M739 59q30 -19 57 -19v-40h-285v40q25 0 25 21q0 17 -14 51l-22 55h-276l-22 -55q-14 -34 -14 -51q0 -21 25 -21v-40h-193v40q27 0 57 19t44 53l199 489q-17 24 -42 36.5t-47 12.5v40h285v-40q-25 0 -25 -21q0 -17 14 -51l190 -466q14 -34 44 -53zM469 242l-107 263
l-107 -263h214z" />
    <glyph glyph-name="B" unicode="B" horiz-adv-x="690" 
d="M612 321q38 -47 38 -110q0 -66 -36 -114t-96 -72.5t-129 -24.5h-369v40q24 0 40 21t16 60v448q0 39 -16 60t-40 21v40h321q109 0 173.5 -47.5t64.5 -127.5q0 -37 -17.5 -67.5t-48.5 -53.5q61 -26 99 -73zM236 420h83q38 0 69 23.5t31 71.5q0 32 -15.5 55t-38.5 34t-46 11
h-83v-195zM451 108.5q39 31.5 39 102.5q0 70 -39 102t-91 32h-124v-268h124q52 0 91 31.5z" />
    <glyph glyph-name="C" unicode="C" horiz-adv-x="720" 
d="M71.5 532.5q51.5 85.5 136.5 132t182 46.5q63 0 118.5 -15t92.5 -37t50 -40v-183h-40q0 49 -24.5 90.5t-70.5 65.5t-107 24q-62 0 -114.5 -30.5t-83.5 -88.5t-31 -135q0 -83 35 -148t94.5 -101.5t130.5 -36.5q59 0 112.5 31.5t85.5 95.5l42 -26q-25 -52 -52 -91
t-86.5 -72t-151.5 -33q-107 0 -191.5 48.5t-131.5 130t-47 176.5q0 111 51.5 196.5z" />
    <glyph glyph-name="D" unicode="D" horiz-adv-x="766" 
d="M540 648.5q83 -41.5 134.5 -120t51.5 -183.5t-51.5 -183.5t-134.5 -120t-175 -41.5h-345v40q24 0 40 21t16 60v448q0 39 -16 60t-40 21v40h345q92 0 175 -41.5zM465 106q46 31 73.5 92t27.5 147t-27.5 147t-73.5 92t-100 31h-129v-540h129q54 0 100 31z" />
    <glyph glyph-name="E" unicode="E" horiz-adv-x="600" 
d="M560 509h-40q0 7 -14.5 33t-48 49.5t-88.5 23.5h-133v-232h93q39 0 60 16t21 40h40v-187h-40q0 24 -21 40t-60 16h-93v-233h133q55 0 88.5 23.5t48 49.5t14.5 33h40v-181h-540v40q24 0 40 21t16 60v448q0 39 -16 60t-40 21v40h540v-181z" />
    <glyph glyph-name="F" unicode="F" horiz-adv-x="580" 
d="M560 509h-40q0 7 -14.5 33t-48 49.5t-88.5 23.5h-133v-232h93q39 0 60 16t21 40h40v-187h-40q0 24 -21 40t-60 16h-93v-187q0 -39 16 -60t40 -21v-40h-272v40q24 0 40 21t16 60v448q0 39 -16 60t-40 21v40h540v-181z" />
    <glyph glyph-name="G" unicode="G" horiz-adv-x="797" 
d="M757 259q-24 0 -40 -21t-16 -60l1 -178h-40q0 12 -13.5 34t-36.5 34q-80 -87 -222 -87q-107 0 -191.5 48.5t-131.5 130t-47 176.5q0 111 51.5 196.5t136.5 132t182 46.5q63 0 118.5 -15t92.5 -37t50 -40v-183h-40q0 49 -24.5 90.5t-70.5 65.5t-107 24q-62 0 -114.5 -30.5
t-83.5 -88.5t-31 -135q0 -83 35 -148t94.5 -101.5t130.5 -36.5q62 0 114 32v70q0 39 -16 60t-40 21v40h259v-40z" />
    <glyph glyph-name="H" unicode="H" horiz-adv-x="772" 
d="M712 629q-16 -21 -16 -60v-448q0 -39 16 -60t40 -21v-40h-272v40q24 0 40 21t16 60v187h-300v-187q0 -39 16 -60t40 -21v-40h-272v40q24 0 40 21t16 60v448q0 39 -16 60t-40 21v40h272v-40q-24 0 -40 -21t-16 -60v-186h300v186q0 39 -16 60t-40 21v40h272v-40
q-24 0 -40 -21z" />
    <glyph glyph-name="I" unicode="I" 
d="M60 629q-16 21 -40 21v40h272v-40q-24 0 -40 -21t-16 -60v-448q0 -39 16 -60t40 -21v-40h-272v40q24 0 40 21t16 60v448q0 39 -16 60z" />
    <glyph glyph-name="J" unicode="J" horiz-adv-x="436" 
d="M184 629q-16 21 -40 21v40h272v-40q-24 0 -40 -21t-16 -60v-379q0 -106 -50.5 -158t-139.5 -52q-60 0 -98.5 31t-51.5 89l40 10q9 -37 26 -53.5t44 -16.5q35 0 52.5 23.5t17.5 76.5v429q0 39 -16 60z" />
    <glyph glyph-name="K" unicode="K" horiz-adv-x="833" 
d="M748 56q36 -16 65 -16v-40h-349v40q2 0 10.5 4t15.5 14.5t7 26.5q0 29 -29 76l-128 202l-104 -109v-133q0 -39 16 -60t40 -21v-40h-272v40q24 0 40 21t16 60v448q0 39 -16 60t-40 21v40h272v-40q-24 0 -40 -21t-16 -60v-207l179 189q46 50 46 76q0 13 -8 18t-13 5v40h265
v-40q-33 0 -74 -11t-65 -37l-113 -119l240 -381q19 -30 55 -46z" />
    <glyph glyph-name="L" unicode="L" horiz-adv-x="600" 
d="M560 181v-181h-540v40q24 0 40 21t16 60v448q0 39 -16 60t-40 21v40h272v-40q-24 0 -40 -21t-16 -60v-494h133q55 0 88.5 23.5t48 49.5t14.5 33h40z" />
    <glyph glyph-name="M" unicode="M" horiz-adv-x="943" 
d="M883 629q-16 -21 -16 -60v-448q0 -39 16 -60t40 -21v-40h-272v40q24 0 40 21t16 60v397l-247 -518h-82l-227 519v-398q0 -39 16 -60t40 -21v-40h-187v40q24 0 40 21t16 60v448q0 39 -16 60t-40 21v40h231l218 -499l238 499h216v-40q-24 0 -40 -21z" />
    <glyph glyph-name="N" unicode="N" horiz-adv-x="756" 
d="M736 650q-24 0 -40 -21t-16 -60v-569h-75l-454 445v-324q0 -39 16 -60t40 -21v-40h-187v40q24 0 40 21t16 60v448q0 39 -16 60t-40 21v40h131l454 -445v324q0 39 -16 60t-40 21v40h187v-40z" />
    <glyph glyph-name="O" unicode="O" horiz-adv-x="800" 
d="M70 536q50 83 135 129t185 46t185 -46t135 -129t50 -190t-50 -190t-135 -129t-185 -46t-185 46t-135 129t-50 190t50 190zM207 192q27 -66 74.5 -101t107.5 -35t108 35.5t75.5 101t27.5 153.5t-27.5 153.5t-75.5 101t-108 35.5q-61 0 -108.5 -35t-74 -101t-26.5 -154
t27 -154z" />
    <glyph glyph-name="P" unicode="P" horiz-adv-x="669" 
d="M496.5 664.5q60.5 -25.5 96.5 -75t36 -118.5t-36 -118.5t-96.5 -75t-132.5 -25.5h-128v-131q0 -39 16 -60t40 -21v-40h-272v40q24 0 40 21t16 60v448q0 39 -16 60t-40 21v40h344q72 0 132.5 -25.5zM428 362q41 35 41 109t-41 109t-94 35h-98v-288h98q53 0 94 35z" />
    <glyph glyph-name="Q" unicode="Q" horiz-adv-x="800" 
d="M568 -78.5q35 -21.5 74 -21.5q25 0 60 11l27 -36l-209 -75l-40 42q-87 89 -136 142q-91 10 -164.5 58t-116.5 126.5t-43 177.5q0 107 50 190t135 129t185 46t185 -46t135 -129t50 -190q0 -90 -35.5 -163.5t-98 -122.5t-141.5 -68q48 -49 83 -70.5zM207 192
q27 -66 74.5 -101t107.5 -35t108 35.5t75.5 101t27.5 153.5t-27.5 153.5t-75.5 101t-108 35.5q-61 0 -108.5 -35t-74 -101t-26.5 -154t27 -154z" />
    <glyph glyph-name="R" unicode="R" horiz-adv-x="740" 
d="M654.5 55.5q36.5 -15.5 65.5 -15.5v-40h-303v40q19 0 19 10q0 6 -8 20t-20 32l-95 150h-77v-131q0 -39 16 -60t40 -21v-40h-272v40q24 0 40 21t16 60v448q0 39 -16 60t-40 21v40h344q72 0 132.5 -25.5t96.5 -75t36 -118.5t-36 -118.5t-96.5 -75t-132.5 -25.5
q37 -18 70 -24t87 -6l77 -120q20 -31 56.5 -46.5zM334 327q53 0 94 35t41 109t-41 109t-94 35h-98v-288h98z" />
    <glyph glyph-name="S" unicode="S" horiz-adv-x="613" 
d="M132.5 5.5q-69.5 25.5 -111.5 62.5v175h40q0 -56 28 -101.5t77.5 -71t111.5 -25.5q76 0 121.5 29t45.5 76q0 35 -29 54.5t-59.5 31t-38.5 14.5l-163 68q-38 17 -66 37t-48.5 55t-20.5 88q0 66 37 114t98 73t133 25q54 0 96 -10t95 -28l34 -12v-150h-40q0 34 -24.5 65.5
t-63 50.5t-77.5 19q-54 0 -91 -28.5t-37 -74.5q0 -31 13 -50t27 -27t41 -20l158 -61q81 -31 117.5 -79.5t36.5 -116.5q0 -60 -35.5 -107t-100.5 -74t-149 -27q-86 0 -155.5 25.5z" />
    <glyph glyph-name="T" unicode="T" horiz-adv-x="700" 
d="M680 509h-40q0 7 -14.5 33t-48 49.5t-88.5 23.5h-59v-494q0 -39 16 -60t40 -21v-40h-272v40q24 0 40 21t16 60v494h-59q-55 0 -88.5 -23.5t-48 -49.5t-14.5 -33h-40v181h660v-181z" />
    <glyph glyph-name="U" unicode="U" horiz-adv-x="728" 
d="M238.5 5q-69.5 25 -116 79.5t-46.5 138.5v346q0 39 -16 60t-40 21v40h271v-40q-24 0 -40 -21t-16 -60l1 -356q0 -59 28 -94.5t67.5 -49.5t75.5 -14q35 0 74.5 16.5t67.5 52.5t28 92v353q0 39 -16 60t-40 21v40h187v-40q-24 0 -40 -21t-16 -60v-343q0 -75 -34 -131
t-96.5 -85.5t-144.5 -29.5q-69 0 -138.5 25z" />
    <glyph glyph-name="V" unicode="V" horiz-adv-x="816" 
d="M796 650q-27 0 -57 -19t-44 -53l-235 -578h-104l-235 578q-14 34 -44 53t-57 19v40h285v-40q-25 0 -25 -22q0 -19 13 -51l157 -403l164 404q14 34 14 51q0 21 -25 21v40h193v-40z" />
    <glyph glyph-name="W" unicode="W" horiz-adv-x="1306" 
d="M1286 650q-27 0 -57 -19t-44 -53l-235 -578h-104l-193 475l-193 -475h-104l-235 578q-14 34 -44 53t-57 19v40h285v-40q-25 0 -25 -22q0 -19 13 -51l157 -403l163 400l-2 4q-14 34 -44 53t-57 19v40h286v-40h-8q-18 -3 -18 -22t13 -51l157 -403l164 404q14 34 14 51
q0 21 -25 21v40h193v-40z" />
    <glyph glyph-name="X" unicode="X" horiz-adv-x="743" 
d="M659.5 56.5q35.5 -16.5 63.5 -16.5v-40h-297v40q20 0 20 11q0 7 -7.5 21.5t-17.5 32.5l-88 152l-102 -156q-12 -18 -20 -32t-8 -20q0 -9 18 -9v-40h-201v40q29 0 65.5 15.5t56.5 45.5l149 229l-148 255q-18 32 -53.5 48.5t-63.5 16.5v40h297v-40q-20 0 -20 -11
q0 -7 7.5 -21.5t17.5 -32.5l61 -105l71 109q12 18 20 32t8 20q0 9 -18 9v40h202v-40q-29 0 -65.5 -15.5t-56.5 -45.5l-119 -182l175 -302q18 -32 53.5 -48.5z" />
    <glyph glyph-name="Y" unicode="Y" horiz-adv-x="792" 
d="M772 650q-29 0 -65 -16t-56 -46l-175 -278v-189q0 -39 16 -60t40 -21v-40h-272v40q24 0 40 21t16 60v189l-175 278q-20 30 -56 46t-65 16v40h351v-40q-2 0 -10.5 -4t-15.5 -14.5t-7 -26.5q0 -29 29 -76l80 -126l78 125q29 47 29 77q0 16 -7 26.5t-15.5 14.5t-10.5 4v40
h251v-40z" />
    <glyph glyph-name="Z" unicode="Z" horiz-adv-x="612" 
d="M572 615l-360 -540h159q55 0 88.5 23.5t48 49.5t14.5 33h40v-181h-542v75l360 540h-159q-55 0 -88.5 -23.5t-48 -49.5t-14.5 -33h-40v181h542v-75z" />
    <glyph glyph-name="bracketleft" unicode="[" horiz-adv-x="303" 
d="M179 725v-850h104v-75h-263v1000h263v-75h-104z" />
    <glyph glyph-name="backslash" unicode="\" horiz-adv-x="501" 
d="M481 -200h-80l-381 1000h80z" />
    <glyph glyph-name="bracketright" unicode="]" horiz-adv-x="303" 
d="M283 -200h-263v75h104v850h-104v75h263v-1000z" />
    <glyph glyph-name="asciicircum" unicode="^" horiz-adv-x="378" 
d="M358 450l-45 -35l-124 150l-124 -150l-45 35l149 240h40z" />
    <glyph glyph-name="underscore" unicode="_" horiz-adv-x="600" 
d="M560 75v-75h-520v75h520z" />
    <glyph glyph-name="grave" unicode="`" horiz-adv-x="297" 
d="M188.5 789q-28.5 16 -68.5 33q-52 23 -76 42t-24 53q0 28 22.5 50.5t52.5 22.5q34 0 54 -24.5t46 -77.5q22 -43 36 -66.5t35 -44.5l-26 -27q-23 23 -51.5 39z" />
    <glyph glyph-name="a" unicode="a" horiz-adv-x="670" 
d="M610 61q16 -21 40 -21v-40h-216v48q-33 -32 -73.5 -50t-86.5 -18q-72 0 -130 33t-91 90t-33 127t33 127t91 90t130 33q46 0 86.5 -18t73.5 -50v48h39q39 0 60 16t21 40h40v-395q0 -39 16 -60zM366.5 77.5q30.5 22.5 49 62.5t18.5 90t-18.5 90t-49 62.5t-66.5 22.5
t-65.5 -22.5t-47 -62.5t-17.5 -90t17.5 -90t47 -62.5t65.5 -22.5t66.5 22.5z" />
    <glyph glyph-name="b" unicode="b" horiz-adv-x="690" 
d="M526 447q58 -33 91 -90t33 -127t-33 -127t-91 -90t-130 -33q-46 0 -86.5 18t-73.5 50v-48h-216v40q24 0 40 21t16 60v448q0 39 -16 60t-40 21v40h76h140v-278q33 32 73.5 50t86.5 18q72 0 130 -33zM435.5 77.5q29.5 22.5 47 62.5t17.5 90t-17.5 90t-47 62.5t-65.5 22.5
t-66.5 -22.5t-49 -62.5t-18.5 -90t18.5 -90t49 -62.5t66.5 -22.5t65.5 22.5z" />
    <glyph glyph-name="c" unicode="c" horiz-adv-x="567" 
d="M78.5 356.5q38.5 58.5 104.5 91t145 32.5q63 0 102.5 -18t79.5 -51v-126h-40q0 55 -34 95t-95 40q-38 0 -70 -21t-51.5 -60.5t-19.5 -92.5q0 -56 22 -99.5t59.5 -67.5t81.5 -24q39 0 68.5 20t52.5 65l43 -26q-25 -52 -72 -93t-137 -41q-79 0 -142.5 32t-99.5 88.5
t-36 125.5q0 72 38.5 130.5z" />
    <glyph glyph-name="d" unicode="d" horiz-adv-x="670" 
d="M610 61q16 -21 40 -21v-40h-216v48q-33 -32 -73.5 -50t-86.5 -18q-72 0 -130 33t-91 90t-33 127t33 127t91 90t130 33q46 0 86.5 -18t73.5 -50v157q0 39 -16 60t-40 21v40h216v-569q0 -39 16 -60zM366.5 77.5q30.5 22.5 49 62.5t18.5 90t-18.5 90t-49 62.5t-66.5 22.5
t-65.5 -22.5t-47 -62.5t-17.5 -90t17.5 -90t47 -62.5t65.5 -22.5t66.5 22.5z" />
    <glyph glyph-name="e" unicode="e" horiz-adv-x="578" 
d="M437.5 72.5q39.5 17.5 60.5 59.5l29 -18q-25 -52 -72 -93t-137 -41q-87 0 -150 33t-95.5 88.5t-32.5 121.5q0 80 36 138.5t93.5 88.5t119.5 30q75 0 131.5 -31t87 -85.5t30.5 -122.5h-338q0 -85 43 -135.5t110 -50.5q45 0 84.5 17.5zM227.5 390.5
q-21.5 -39.5 -26.5 -109.5h175q-5 63 -26.5 106t-60.5 43q-40 0 -61.5 -39.5z" />
    <glyph glyph-name="f" unicode="f" horiz-adv-x="337" 
d="M240 460h60v-40h-60v-299q0 -39 16 -60t40 -21v-40h-272v40q24 0 40 21t16 60v299h-60v40h60v98q0 54 20.5 88t51.5 49t64 15q40 0 70.5 -28t30.5 -68q0 -38 -28 -66t-68 -28q-39 0 -66.5 28t-27.5 66q0 14 3 24l-10 4q-9 -18 -9 -38q0 -51 33.5 -82.5t95.5 -31.5v-30z
" />
    <glyph glyph-name="g" unicode="g" horiz-adv-x="575" 
d="M451 477q-18 18 -18 43v1q-40 -14 -49 -62q58 -23 92.5 -67t34.5 -106t-34.5 -106t-89.5 -66.5t-117 -22.5q-74 0 -136 32q-5 -10 -5 -21q0 -18 14 -27t41 -13q26 -4 101 -6q79 -2 126 -8q61 -9 93 -44t32 -84q0 -73 -70.5 -106.5t-190.5 -33.5q-121 0 -188 34t-67 96
q0 43 50 70q-25 15 -37.5 36.5t-12.5 42.5q0 31 20 55t50 39q-60 52 -60 133q0 62 34.5 105.5t89.5 66t116 22.5q32 0 60 -6q15 48 57 77.5t98 29.5q31 0 50.5 -18t19.5 -43t-18 -43t-43 -18t-43 18zM329.5 187.5q21.5 37.5 21.5 98.5t-21.5 98t-59.5 37t-59 -37t-21 -98
t21 -98.5t59 -37.5t59.5 37.5zM413.5 -67.5q-18.5 12.5 -49.5 14.5q-26 2 -51.5 3t-49.5 2q-70 2 -117 6q-21 -16 -21 -41q0 -42 41 -59.5t129 -17.5q68 0 102.5 17t34.5 44q0 19 -18.5 31.5z" />
    <glyph glyph-name="h" unicode="h" horiz-adv-x="684" 
d="M624 61q16 -21 40 -21v-40h-272v40q24 0 40 21t16 60v119q0 69 -30 101.5t-75 32.5q-54 0 -79.5 -45t-27.5 -118v-90q0 -39 16 -60t40 -21v-40h-272v40q24 0 40 21t16 60v448q0 39 -16 60t-40 21v40h216v-327q16 52 62.5 84.5t113.5 32.5q95 0 145.5 -61t50.5 -180v-118
q0 -39 16 -60z" />
    <glyph glyph-name="i" unicode="i" 
d="M69 548q-28 28 -28 68q0 38 28 66t68 28q38 0 66 -28t28 -66q0 -40 -28 -68t-66 -28q-40 0 -68 28zM60 399q-16 21 -40 21v40h216v-339q0 -39 16 -60t40 -21v-40h-272v40q24 0 40 21t16 60v218q0 39 -16 60z" />
    <glyph glyph-name="j" unicode="j" horiz-adv-x="317" 
d="M90 548q-28 28 -28 68q0 38 28 66t68 28q38 0 66 -28t28 -66q0 -40 -28 -68t-66 -28q-40 0 -68 28zM257 -148q0 -78 -40.5 -110t-95.5 -32q-40 0 -70.5 28t-30.5 68q0 38 28 66t68 28q39 0 66.5 -28t27.5 -66q0 -14 -3 -24l10 -4q9 18 9 38q0 51 -33.5 82.5t-95.5 31.5
v409q0 39 -16 60t-40 21v40h216v-608z" />
    <glyph glyph-name="k" unicode="k" horiz-adv-x="732" 
d="M647.5 56q35.5 -16 64.5 -16v-40h-350v40q2 0 10.5 4.5t15.5 14.5t7 27q0 31 -28 76l-44 72l-87 -80v-33q0 -39 16 -60t40 -21v-40h-272v40q24 0 40 21t16 60v448q0 39 -16 60t-40 21v40h216v-429l76 70q53 49 53 72q0 9 -7 13t-11 4v40h278v-40q-36 0 -77.5 -9
t-67.5 -33l-37 -34l149 -241q20 -31 55.5 -47z" />
    <glyph glyph-name="l" unicode="l" 
d="M60 629q-16 21 -40 21v40h216v-569q0 -39 16 -60t40 -21v-40h-272v40q24 0 40 21t16 60v448q0 39 -16 60z" />
    <glyph glyph-name="m" unicode="m" horiz-adv-x="1056" 
d="M996.5 61q15.5 -21 39.5 -21v-40h-272v40q24 0 40 21t16 60v119q0 69 -30 101.5t-75 32.5q-54 0 -79.5 -41t-27.5 -112v-100q0 -39 16 -60t40 -21v-40h-272v40q24 0 40 21t16 60v119q0 69 -30 101.5t-75 32.5q-54 0 -79.5 -45t-27.5 -118v-90q0 -39 16 -60t40 -21v-40
h-272v40q24 0 40 21t16 60v218q0 39 -16 60t-40 21v40h216v-97q16 52 62.5 84.5t113.5 32.5q70 0 116 -33t65 -97q29 55 75.5 92.5t105.5 37.5q102 0 156 -59.5t54 -171.5l-2 -128q-1 -39 14.5 -60z" />
    <glyph glyph-name="n" unicode="n" horiz-adv-x="684" 
d="M624 61q16 -21 40 -21v-40h-272v40q24 0 40 21t16 60v119q0 69 -30 101.5t-75 32.5q-54 0 -79.5 -45t-27.5 -118v-90q0 -39 16 -60t40 -21v-40h-272v40q24 0 40 21t16 60v218q0 39 -16 60t-40 21v40h216v-97q16 52 62.5 84.5t113.5 32.5q95 0 145.5 -61t50.5 -180v-118
q0 -39 16 -60z" />
    <glyph glyph-name="o" unicode="o" horiz-adv-x="622" 
d="M76 356.5q36 57.5 98 90.5t137 33t137 -33t98 -90.5t36 -126.5t-36 -126.5t-98 -90.5t-137 -33t-137 33t-98 90.5t-36 126.5t36 126.5zM224.5 101.5q34.5 -46.5 86.5 -46.5t86.5 46.5t34.5 128.5t-34.5 128.5t-86.5 46.5t-86.5 -46.5t-34.5 -128.5t34.5 -128.5z" />
    <glyph glyph-name="p" unicode="p" horiz-adv-x="690" 
d="M526 447q58 -33 91 -90t33 -127t-33 -127t-91 -90t-130 -33q-46 0 -86.5 18t-73.5 50v-127q0 -39 16 -60t40 -21v-40h-272v40q24 0 40 21t16 60v418q0 39 -16 60t-40 21v40h216v-48q33 32 73.5 50t86.5 18q72 0 130 -33zM435.5 77.5q29.5 22.5 47 62.5t17.5 90t-17.5 90
t-47 62.5t-65.5 22.5t-66.5 -22.5t-49 -62.5t-18.5 -90t18.5 -90t49 -62.5t66.5 -22.5t65.5 22.5z" />
    <glyph glyph-name="q" unicode="q" horiz-adv-x="670" 
d="M610 399q-16 -21 -16 -60v-418q0 -39 16 -60t40 -21v-40h-272v40q24 0 40 21t16 60v127q-33 -32 -73.5 -50t-86.5 -18q-72 0 -130 33t-91 90t-33 127t33 127t91 90t130 33q46 0 86.5 -18t73.5 -50v48h216v-40q-24 0 -40 -21zM366.5 77.5q30.5 22.5 49 62.5t18.5 90
t-18.5 90t-49 62.5t-66.5 22.5t-65.5 -22.5t-47 -62.5t-17.5 -90t17.5 -90t47 -62.5t65.5 -22.5t66.5 22.5z" />
    <glyph glyph-name="r" unicode="r" horiz-adv-x="526" 
d="M474.5 454q31.5 -26 31.5 -68q0 -40 -28 -68t-66 -28q-34 0 -60.5 21.5t-33.5 54.5q-3 13 -3 27q0 7 2 19l-9 3l-2 -4q-9 -18 -10 -53q-57 -33 -60 -147v-90q0 -39 16 -60t40 -21v-40h-272v40q24 0 40 21t16 60v218q0 39 -16 60t-40 21v40h216v-97q15 51 60.5 84
t105.5 33q41 0 72.5 -26z" />
    <glyph glyph-name="s" unicode="s" horiz-adv-x="458" 
d="M45 412q25 32 70 50t101 18q76 0 166 -46v-120h-40q0 23 -17 46.5t-43.5 39t-53.5 15.5q-29 0 -52.5 -14.5t-23.5 -39.5q0 -23 12.5 -33t36.5 -21l108 -41q58 -22 83.5 -53t25.5 -81q0 -72 -57.5 -112t-143.5 -40q-70 0 -123.5 22t-73.5 49v134h40q0 -39 22 -68.5
t57 -45.5t73 -16q96 0 96 51q0 18 -16.5 29t-36.5 19.5t-28 11.5l-111 47q-43 19 -69.5 45.5t-26.5 81.5q0 40 25 72z" />
    <glyph glyph-name="t" unicode="t" horiz-adv-x="396" 
d="M376 100q-13 -59 -48.5 -89.5t-91.5 -30.5q-82 0 -121 42.5t-39 147.5v250h-56v40q46 0 86.5 19.5t65 53.5t24.5 77h40v-150h56v-40h-56v-280q0 -56 10.5 -78t34.5 -22q19 0 32.5 16.5t22.5 53.5z" />
    <glyph glyph-name="u" unicode="u" horiz-adv-x="684" 
d="M624 399q-16 -21 -16 -60v-218q0 -39 16 -60t40 -21v-40h-216v97q-16 -52 -62.5 -84.5t-113.5 -32.5q-95 0 -145.5 61t-50.5 180v118q0 39 -16 60t-40 21v40h272v-40q-24 0 -40 -21t-16 -60v-119q0 -69 30 -101.5t75 -32.5q54 0 79.5 45t27.5 118v90q0 39 -16 60t-40 21
v40h272v-40q-24 0 -40 -21z" />
    <glyph glyph-name="v" unicode="v" horiz-adv-x="678" 
d="M658 420q-27 0 -57.5 -19t-44.5 -53l-141 -348h-160l-135 347q-14 35 -43.5 54t-56.5 19v40h284v-40q-25 0 -25 -22q0 -19 13 -51l89 -230l94 231q15 38 15 51q0 21 -25 21v40h193v-40z" />
    <glyph glyph-name="w" unicode="w" horiz-adv-x="1088" 
d="M1068 420q-27 0 -57.5 -19t-44.5 -53l-141 -348h-160l-122 315l-128 -315h-160l-135 347q-14 35 -43.5 54t-56.5 19v40h284v-40q-25 0 -25 -22q0 -19 13 -51l89 -230l94 231q15 37 15 51q-14 10 -30.5 15.5t-29.5 5.5v40h284v-40q-25 0 -25 -22q0 -19 13 -51l89 -230
l94 231q15 38 15 51q0 21 -25 21v40h193v-40z" />
    <glyph glyph-name="x" unicode="x" horiz-adv-x="618" 
d="M533 56q36 -16 65 -16v-40h-289v40q19 0 19 10q0 6 -8 20t-19 32l-23 37l-30 -41q-4 -6 -14.5 -19.5t-14.5 -20.5t-4 -11q0 -7 17 -7v-40h-206v40q30 0 68 14.5t59 43.5l81 110l-94 150q-19 30 -55 46t-65 16v40h289v-40q-19 0 -19 -10q0 -6 8 -20t19 -32l12 -20l18 24
q6 8 13.5 18.5t13 19.5t5.5 13q0 7 -17 7v40h207v-40q-30 0 -68.5 -14.5t-59.5 -43.5l-68 -93l105 -167q19 -30 55 -46z" />
    <glyph glyph-name="y" unicode="y" horiz-adv-x="683" 
d="M139 -261.5q-31 28.5 -31 67.5q0 38 28 66t68 28q35 0 61 -25.5t26 -64.5q0 -13 -3 -26l11 -5q8 21 8 46q0 39 -19 61l26 59l-187 405q-16 34 -48 52t-59 18v40h289v-40q-23 0 -23 -18q0 -15 17 -52l93 -204l84 202q14 36 14 51q0 21 -24 21v40h193v-40q-27 0 -57.5 -19
t-44.5 -53l-54 -131q-89 -217 -133 -322t-53 -122q-17 -31 -47 -47t-65 -16q-39 0 -70 28.5z" />
    <glyph glyph-name="z" unicode="z" horiz-adv-x="475" 
d="M435 131v-131h-402v75l212 310h-104q-39 0 -60 -16t-21 -40h-40v131h409v-75l-212 -310h97q39 0 60 16t21 40h40z" />
    <glyph glyph-name="braceleft" unicode="{" horiz-adv-x="352" 
d="M241.5 405q-7.5 -32 -36.5 -59t-88 -39v-14q59 -12 88 -39t36.5 -59t7.5 -75v-190q0 -34 23 -57t60 -23v-50q-113 0 -178 48t-65 134v183q0 50 -15.5 82.5t-43.5 32.5h-10v40h10q28 0 43.5 32.5t15.5 82.5v183q0 86 65 134t178 48v-50q-37 0 -60 -23t-23 -57v-190
q0 -43 -7.5 -75z" />
    <glyph glyph-name="bar" unicode="|" horiz-adv-x="115" 
d="M95 800v-1000h-75v1000h75z" />
    <glyph glyph-name="braceright" unicode="}" horiz-adv-x="352" 
d="M332 320v-40h-10q-28 0 -43.5 -32.5t-15.5 -82.5v-183q0 -86 -65 -134t-178 -48v50q37 0 60 23t23 57v190q0 43 7.5 75t36.5 59t88 39v14q-59 12 -88 39t-36.5 59t-7.5 75v190q0 34 -23 57t-60 23v50q113 0 178 -48t65 -134v-183q0 -50 15.5 -82.5t43.5 -32.5h10z" />
    <glyph glyph-name="asciitilde" unicode="~" horiz-adv-x="439" 
d="M245.5 216q-19.5 6 -46.5 19q-25 11 -39 15.5t-31 4.5q-28 0 -46.5 -14.5t-18.5 -40.5h-44q0 76 35.5 123t94.5 47q24 0 43.5 -6t46.5 -19q25 -11 39 -15.5t31 -4.5q28 0 46.5 14.5t18.5 40.5h44q0 -76 -35.5 -123t-94.5 -47q-24 0 -43.5 6z" />
    <glyph glyph-name="exclamdown" unicode="&#xa1;" horiz-adv-x="230" 
d="M182 682q28 -28 28 -68q0 -38 -28 -66t-68 -28q-38 0 -66 28t-28 66q0 40 28 68t66 28q40 0 68 -28zM183 230q3 -20 6.5 -35t5.5 -25q15 -67 15 -96q0 -38 -28 -66t-68 -28q-38 0 -66 28t-28 66q0 16 4.5 41t9.5 51q10 51 12 64l38 240h60q20 -128 39 -240z" />
    <glyph glyph-name="cent" unicode="&#xa2;" horiz-adv-x="470" 
d="M466.5 59q-15.5 -23 -47 -46t-79.5 -30v-93h-75v91q-77 6 -132.5 40t-84 87t-28.5 115q0 72 31 127.5t86.5 88.5t127.5 40v91h75v-92q43 -3 69 -13.5t68 -33.5v-126h-27q0 45 -29.5 79.5t-80.5 43.5v-373q90 2 128 77l29 -18q-15 -32 -30.5 -55zM203 136q23 -44 62 -65
v350q-41 -18 -63 -65.5t-22 -114.5q0 -61 23 -105z" />
    <glyph glyph-name="sterling" unicode="&#xa3;" horiz-adv-x="665" 
d="M648 126q0 -39 -20 -72.5t-55.5 -53.5t-80.5 -20q-46 0 -81.5 15t-66.5 42q-35 -26 -76 -41.5t-79 -15.5q-49 0 -87.5 18t-60 48.5t-21.5 67.5q0 61 45 97.5t109 36.5q45 0 84 -17q-9 22 -22 46.5t-27 47.5h-119v75h79q-26 54 -26 103q0 60 30 107t82.5 73.5t117.5 26.5
q50 0 93 -17.5t68.5 -51t25.5 -77.5q0 -40 -23 -65.5t-56 -25.5q-34 0 -57.5 23.5t-23.5 56.5q0 21 10 39t28 29q-6 8 -17 11t-28 3q-39 0 -64.5 -32t-25.5 -76q0 -28 12 -58.5t34 -68.5h123v-75h-79q20 -36 31 -67t11 -61q0 -37 -17 -73q38 -24 71 -24q35 0 57.5 18.5
t22.5 43.5q0 27 -22 52l46 24q55 -53 55 -112zM235.5 66.5q26.5 20.5 35.5 51.5q-26 31 -49.5 47.5t-52.5 16.5q-31 0 -52.5 -19.5t-21.5 -48.5t21.5 -48.5t52.5 -19.5q40 0 66.5 20.5z" />
    <glyph glyph-name="currency" unicode="&#xa4;" horiz-adv-x="516" 
d="M458 292q0 -61 -35 -113l73 -73l-53 -53l-74 74q-50 -35 -111 -35q-59 0 -112 34l-73 -73l-53 53l72 73q-34 50 -34 112q0 63 34 113l-72 72l53 53l72 -72q50 35 110 35q63 0 115 -36l73 73l53 -53l-73 -72q35 -50 35 -112zM257 167q52 0 89 37q18 18 27 41t9 47t-9 46.5
t-27 40.5t-42 28t-48 10q-50 0 -86 -36q-37 -37 -37 -89t37 -89q36 -36 87 -36z" />
    <glyph glyph-name="yen" unicode="&#xa5;" horiz-adv-x="792" 
d="M772 650q-29 0 -65 -16t-56 -46l-128 -203h93v-75h-140v-50h140v-75h-140v-64q0 -39 16 -60t40 -21v-40h-272v40q24 0 40 21t16 60v64h-140v75h140v50h-140v75h93l-128 203q-20 30 -56 46t-65 16v40h351v-40q-2 0 -10.5 -4t-15.5 -14.5t-7 -26.5q0 -29 29 -76l80 -126
l78 125q29 47 29 77q0 16 -7 26.5t-15.5 14.5t-10.5 4v40h251v-40z" />
    <glyph glyph-name="brokenbar" unicode="&#xa6;" horiz-adv-x="115" 
d="M95 800v-451h-75v451h75zM95 251v-451h-75v451h75z" />
    <glyph glyph-name="section" unicode="&#xa7;" horiz-adv-x="438" 
d="M402.5 198.5q15.5 -26.5 15.5 -66.5q0 -72 -57.5 -112t-143.5 -40q-70 0 -123.5 22t-73.5 49v134h40q0 -39 22 -68.5t57 -45.5t73 -16q43 0 69.5 13t26.5 41q0 17 -15 27t-45 22q-7 2 -21 8l-111 47q-43 19 -69.5 45.5t-26.5 81.5q0 34 21 63t57 48q-35 17 -56.5 44
t-21.5 75q0 40 27.5 72t74.5 50t104 18q40 0 76 -12t80 -34v-120h-40q0 23 -17 46.5t-43.5 39t-53.5 15.5q-29 0 -52.5 -14.5t-23.5 -39.5q0 -23 12.5 -33t36.5 -21l108 -41q58 -22 83.5 -53t25.5 -81q0 -75 -65 -117q34 -20 49.5 -46.5zM164.5 328q12.5 -10 36.5 -21
l50 -19q26 5 41.5 17.5t15.5 33.5q0 17 -15 27t-45 22q-7 2 -21 8l-32 14q-19 -6 -31 -19t-12 -30q0 -23 12.5 -33z" />
    <glyph glyph-name="dieresis" unicode="&#xa8;" horiz-adv-x="440" 
d="M45 775q-25 25 -25 61q0 35 25 59.5t61 24.5q35 0 59.5 -24.5t24.5 -59.5q0 -36 -24.5 -61t-59.5 -25q-36 0 -61 25zM275 775q-25 25 -25 61q0 35 25 59.5t61 24.5q35 0 59.5 -24.5t24.5 -59.5q0 -36 -24.5 -61t-59.5 -25q-36 0 -61 25z" />
    <glyph glyph-name="copyright" unicode="&#xa9;" horiz-adv-x="770" 
d="M69 528q49 84 133 133t183 49t183 -49t133 -133t49 -183t-49 -183t-133 -133t-183 -49t-183 49t-133 133t-49 183t49 183zM125.5 194.5q40.5 -68.5 109 -109t150.5 -40.5t150.5 40.5t109 109t40.5 150.5t-40.5 150.5t-109 109t-150.5 40.5t-150.5 -40.5t-109 -109
t-40.5 -150.5t40.5 -150.5zM227.5 440.5q26.5 43.5 69.5 67t92 23.5q46 0 83.5 -15.5t48.5 -31.5v-92h-21q0 38 -28 64.5t-74 26.5q-48 0 -82 -35t-34 -94q0 -42 18 -75t48 -51.5t66 -18.5q29 0 56.5 16.5t43.5 48.5l22 -13q-13 -27 -26.5 -46.5t-43.5 -36.5t-77 -17
q-54 0 -97 24.5t-67 66t-24 89.5q0 56 26.5 99.5z" />
    <glyph glyph-name="guillemotleft" unicode="&#xab;" horiz-adv-x="451" 
d="M135 291l100 -184l-40 -30l-175 194v40l175 194l40 -30zM331 291l100 -184l-40 -30l-175 194v40l175 194l40 -30z" />
    <glyph glyph-name="logicalnot" unicode="&#xac;" horiz-adv-x="440" 
d="M420 138h-75v115h-325v75h400v-190z" />
    <glyph glyph-name="registered" unicode="&#xae;" horiz-adv-x="770" 
d="M566 662q84 -49 133 -133t49 -183t-49 -183t-133 -133t-183 -49t-183 49t-133 133t-49 183t49 183t133 133t183 49t183 -49zM533.5 86.5q68.5 40.5 109 109t40.5 150.5t-40.5 150.5t-109 109t-150.5 40.5t-150.5 -40.5t-109 -109t-40.5 -150.5t40.5 -150.5t109 -109
t150.5 -40.5t150.5 40.5zM526 206.5q18 -7.5 31 -7.5v-19h-145v19q9 0 9 5q0 4 -13 25l-45 72h-37v-63q0 -19 7.5 -29t19.5 -10v-19h-130v19q11 0 18.5 10t7.5 29v214q0 19 -7.5 29t-18.5 10v19h164q53 0 90 -28t37 -77t-37 -76.5t-90 -27.5q18 -9 33.5 -12t41.5 -3l37 -57
q9 -15 27 -22.5zM373 336q25 0 44.5 17t19.5 52q0 36 -19.5 52.5t-44.5 16.5h-47v-138h47z" />
    <glyph glyph-name="macron" unicode="&#xaf;" horiz-adv-x="320" 
d="M300 835v-75h-280v75h280z" />
    <glyph glyph-name="degree" unicode="&#xb0;" horiz-adv-x="340" 
d="M40 615.5q20 34.5 54.5 54.5t75.5 20t75.5 -20t54.5 -54.5t20 -75.5t-20 -75.5t-54.5 -54.5t-75.5 -20t-75.5 20t-54.5 54.5t-20 75.5t20 75.5zM117 487q22 -22 53 -22t53 22t22 53t-22 53t-53 22t-53 -22t-22 -53t22 -53z" />
    <glyph glyph-name="plusminus" unicode="&#xb1;" horiz-adv-x="380" 
d="M360 328v-75h-132v-132h-75v132h-133v75h133v133h75v-133h132zM20 75h340v-75h-340v75z" />
    <glyph glyph-name="uni00B2" unicode="&#xb2;" horiz-adv-x="254" 
d="M32 446q55 44 80 67t39 47.5t14 53.5q0 31 -16.5 50t-42.5 19q-29 0 -43 -22q16 0 27.5 -11.5t11.5 -27.5q0 -17 -11.5 -29t-27.5 -12q-18 0 -30.5 12.5t-12.5 31.5q0 37 30.5 61t70.5 24q49 0 80 -23t31 -62q0 -34 -17 -59.5t-40.5 -43t-77.5 -53.5h56q23 0 37 10t20 21
t6 15h18v-105h-202v36z" />
    <glyph glyph-name="uni00B3" unicode="&#xb3;" horiz-adv-x="266" 
d="M20 493q0 14 9 24t22 10t22 -9t9 -21q0 -18 -16 -28q15 -27 60 -27q23 0 39 15.5t16 44.5q0 27 -23.5 43.5t-45.5 16.5v30q17 0 32.5 12.5t15.5 30.5q0 19 -11.5 31.5t-33.5 12.5q-32 0 -43 -17q16 -10 16 -27q0 -12 -8.5 -21t-21.5 -9t-22.5 9t-9.5 21v2v3q0 28 29 49
t68 21q48 0 75.5 -19.5t27.5 -49.5q0 -26 -15 -39.5t-45 -21.5v-2q80 -16 80 -76q0 -45 -37.5 -68.5t-82.5 -23.5q-40 0 -73 21.5t-33 59.5v2z" />
    <glyph glyph-name="acute" unicode="&#xb4;" horiz-adv-x="297" 
d="M28 777q21 21 35 44.5t36 66.5q26 53 46 77.5t54 24.5q30 0 52.5 -22.5t22.5 -50.5q0 -34 -24 -53t-76 -42q-40 -17 -68.5 -33t-51.5 -39z" />
    <glyph glyph-name="paragraph" unicode="&#xb6;" horiz-adv-x="545" 
d="M525 650q-24 0 -40 -21t-16 -60v-569h-74v615h-75v-615h-74v378h-70q-42 0 -78 21t-57 57t-21 78q0 43 21 78.5t57 56.5t78 21l52 1q18 0 18 -1h279v-40z" />
    <glyph glyph-name="periodcentered" unicode="&#xb7;" horiz-adv-x="230" 
d="M48 278q-28 28 -28 68q0 38 28 66t68 28q38 0 66 -28t28 -66q0 -40 -28 -68t-66 -28q-40 0 -68 28z" />
    <glyph glyph-name="cedilla" unicode="&#xb8;" horiz-adv-x="294" 
d="M159 11l-38 -47q21 18 56 18q38 0 67.5 -21.5t29.5 -60.5q0 -30 -20 -51t-48.5 -31.5t-52.5 -10.5q-42 0 -69.5 13.5t-56.5 44.5l26 22q21 -19 39 -30t42 -11q27 0 46 11.5t19 33.5q0 21 -17 35.5t-37 14.5q-16 0 -30.5 -4.5t-32.5 -20.5l-33 26l70 92z" />
    <glyph glyph-name="uni00B9" unicode="&#xb9;" horiz-adv-x="185" 
d="M47 640q-10 0 -20 -5l-7 15l104 60h17v-248q0 -17 7 -26t17 -9v-17h-118v17q10 0 17 9t7 26v144q0 34 -24 34z" />
    <glyph glyph-name="guillemotright" unicode="&#xbb;" horiz-adv-x="451" 
d="M60 77l-40 30l100 184l-100 184l40 30l175 -194v-40zM431 311v-40l-175 -194l-40 30l100 184l-100 184l40 30z" />
    <glyph glyph-name="onequarter" unicode="&#xbc;" horiz-adv-x="322" 
d="M111 628q-9 0 -18 -5l-8 13l94 54h15v-222q0 -16 6.5 -24.5t16.5 -8.5v-15h-107v15q10 0 16.5 8.5t6.5 24.5v128q0 32 -22 32zM20 362h282v-40h-282v40zM34 86l138 184h43v-184h34v-23h-34v-16q0 -15 6 -23t16 -8v-16h-106v16q10 0 16 8t6 23v16h-119v23zM153 86v119
l-90 -119h90z" />
    <glyph glyph-name="onehalf" unicode="&#xbd;" horiz-adv-x="322" 
d="M111 628q-9 0 -18 -5l-8 13l94 54h15v-222q0 -16 6.5 -24.5t16.5 -8.5v-15h-107v15q10 0 16.5 8.5t6.5 24.5v128q0 32 -22 32zM302 362v-40h-282v40h282zM76 32q49 40 72 61t35.5 43t12.5 48q0 28 -15 44.5t-39 16.5q-28 0 -38 -19q14 0 24 -10.5t10 -24.5q0 -15 -10 -26
t-24 -11q-16 0 -27.5 11.5t-11.5 27.5q0 35 27 56t64 21q44 0 72 -21t28 -56q0 -30 -15.5 -53t-37 -39t-69.5 -48h51q20 0 32.5 9t18 19t5.5 14h16v-95h-181v32z" />
    <glyph glyph-name="threequarters" unicode="&#xbe;" horiz-adv-x="300" 
d="M59 495q0 12 8.5 21t19.5 9q12 0 20 -8t8 -19q0 -17 -14 -25q14 -24 54 -24q20 0 34.5 14t14.5 40q0 24 -21 39t-41 15v27q15 0 29 11.5t14 27.5q0 17 -10.5 28t-29.5 11q-30 0 -39 -15q15 -10 15 -24q0 -11 -8 -19t-19 -8q-13 0 -21 8t-8 19v1v3q0 25 25.5 44t61.5 19
q43 0 68 -18t25 -44q0 -23 -14 -35t-40 -20v-2q72 -13 72 -68q0 -40 -34 -61.5t-74 -21.5q-36 0 -66 19.5t-30 53.5v2zM20 362h282v-40h-282v40zM34 86l138 184h43v-184h34v-23h-34v-16q0 -15 6 -23t16 -8v-16h-106v16q10 0 16 8t6 23v16h-119v23zM153 86v119l-90 -119h90z
" />
    <glyph glyph-name="questiondown" unicode="&#xbf;" horiz-adv-x="525" 
d="M194 549q-28 28 -28 66q0 40 28 68t66 28q40 0 68 -28t28 -68q0 -38 -28 -66t-68 -28q-38 0 -66 28zM476.5 225.5q28.5 -30.5 28.5 -70.5q0 -46 -33 -86t-90 -64t-124 -24q-70 0 -124 24.5t-84 67t-30 92.5q0 33 15.5 60.5t38 48.5t60.5 52q52 41 76.5 69.5t24.5 65.5h50
q0 -65 -16 -106.5t-45 -88.5q-22 -36 -33 -62t-11 -59q0 -44 32.5 -74t74.5 -30q58 0 84 33q-25 11 -40.5 34.5t-15.5 51.5q0 40 28 68t66 28q39 0 67.5 -30.5z" />
    <glyph glyph-name="Agrave" unicode="&#xc0;" horiz-adv-x="816" 
d="M398.5 789q-28.5 16 -68.5 33q-52 23 -76 42t-24 53q0 28 22.5 50.5t52.5 22.5q34 0 54 -24.5t46 -77.5q22 -43 36 -66.5t35 -44.5l-26 -27q-23 23 -51.5 39zM739 59q30 -19 57 -19v-40h-285v40q25 0 25 21q0 17 -14 51l-22 55h-276l-22 -55q-14 -34 -14 -51
q0 -21 25 -21v-40h-193v40q27 0 57 19t44 53l199 489q-17 24 -42 36.5t-47 12.5v40h285v-40q-25 0 -25 -21q0 -17 14 -51l190 -466q14 -34 44 -53zM469 242l-107 263l-107 -263h214z" />
    <glyph glyph-name="Aacute" unicode="&#xc1;" horiz-adv-x="816" 
d="M491 864q-24 -19 -76 -42q-40 -17 -68.5 -33t-51.5 -39l-26 27q21 21 35 44.5t36 66.5q26 53 46 77.5t54 24.5q30 0 52.5 -22.5t22.5 -50.5q0 -34 -24 -53zM739 59q30 -19 57 -19v-40h-285v40q25 0 25 21q0 17 -14 51l-22 55h-276l-22 -55q-14 -34 -14 -51q0 -21 25 -21
v-40h-193v40q27 0 57 19t44 53l199 489q-17 24 -42 36.5t-47 12.5v40h285v-40q-25 0 -25 -21q0 -17 14 -51l190 -466q14 -34 44 -53zM469 242l-107 263l-107 -263h214z" />
    <glyph glyph-name="Acircumflex" unicode="&#xc2;" horiz-adv-x="816" 
d="M255 740l-20 36l139 123l139 -123l-20 -36l-119 64zM739 59q30 -19 57 -19v-40h-285v40q25 0 25 21q0 17 -14 51l-22 55h-276l-22 -55q-14 -34 -14 -51q0 -21 25 -21v-40h-193v40q27 0 57 19t44 53l199 489q-17 24 -42 36.5t-47 12.5v40h285v-40q-25 0 -25 -21
q0 -17 14 -51l190 -466q14 -34 44 -53zM469 242l-107 263l-107 -263h214z" />
    <glyph glyph-name="Atilde" unicode="&#xc3;" horiz-adv-x="816" 
d="M280 768.5q-13 -9.5 -13 -28.5h-30q0 52 24 84.5t65 32.5q16 0 29.5 -4t32.5 -13q15 -7 25.5 -10.5t22.5 -3.5q19 0 32 10t13 28h30q0 -52 -24 -84.5t-65 -32.5q-16 0 -29.5 4t-32.5 13q-15 7 -25.5 10.5t-22.5 3.5q-19 0 -32 -9.5zM739 59q30 -19 57 -19v-40h-285v40
q25 0 25 21q0 17 -14 51l-22 55h-276l-22 -55q-14 -34 -14 -51q0 -21 25 -21v-40h-193v40q27 0 57 19t44 53l199 489q-17 24 -42 36.5t-47 12.5v40h285v-40q-25 0 -25 -21q0 -17 14 -51l190 -466q14 -34 44 -53zM469 242l-107 263l-107 -263h214z" />
    <glyph glyph-name="Adieresis" unicode="&#xc4;" horiz-adv-x="816" 
d="M199 775q-25 25 -25 61q0 35 25 59.5t61 24.5q35 0 59.5 -24.5t24.5 -59.5q0 -36 -24.5 -61t-59.5 -25q-36 0 -61 25zM429 775q-25 25 -25 61q0 35 25 59.5t61 24.5q35 0 59.5 -24.5t24.5 -59.5q0 -36 -24.5 -61t-59.5 -25q-36 0 -61 25zM739 59q30 -19 57 -19v-40h-285
v40q25 0 25 21q0 17 -14 51l-22 55h-276l-22 -55q-14 -34 -14 -51q0 -21 25 -21v-40h-193v40q27 0 57 19t44 53l199 489q-17 24 -42 36.5t-47 12.5v40h285v-40q-25 0 -25 -21q0 -17 14 -51l190 -466q14 -34 44 -53zM469 242l-107 263l-107 -263h214z" />
    <glyph glyph-name="Aring" unicode="&#xc5;" horiz-adv-x="816" 
d="M303 769q-29 29 -29 71t29 71t71 29t71 -29t29 -71t-29 -71t-71 -29t-71 29zM339 875q-15 -15 -15 -35t15 -35t35 -15t35 15t15 35t-15 35t-35 15t-35 -15zM739 59q30 -19 57 -19v-40h-285v40q25 0 25 21q0 17 -14 51l-22 55h-276l-22 -55q-14 -34 -14 -51q0 -21 25 -21
v-40h-193v40q27 0 57 19t44 53l199 489q-17 24 -42 36.5t-47 12.5v40h285v-40q-25 0 -25 -21q0 -17 14 -51l190 -466q14 -34 44 -53zM469 242l-107 263l-107 -263h214z" />
    <glyph glyph-name="AE" unicode="&#xc6;" horiz-adv-x="1027" 
d="M987 509h-40q0 7 -14.5 33t-48 49.5t-88.5 23.5h-133v-232h93q39 0 60 16t21 40h40v-187h-40q0 24 -21 40t-60 16h-93v-233h133q55 0 88.5 23.5t48 49.5t14.5 33h40v-181h-540v40q24 0 40 21t16 60v46h-222l-46 -67q-4 -6 -13.5 -19.5t-13 -21t-3.5 -11.5q0 -8 18 -8v-40
h-203v40q30 0 67 15t57 45l351 515q-7 17 -20 26t-28 9v40h540v-181zM503 242v251l-171 -251h171z" />
    <glyph glyph-name="Ccedilla" unicode="&#xc7;" horiz-adv-x="720" 
d="M631.5 90.5q-24.5 -36.5 -77.5 -70t-135 -38.5l-30 -37q21 18 56 18q38 0 67.5 -21.5t29.5 -60.5q0 -30 -20 -51t-48.5 -31.5t-52.5 -10.5q-42 0 -69.5 13.5t-56.5 44.5l26 22q21 -19 39 -30t42 -11q27 0 46 11.5t19 33.5q0 21 -17 35.5t-37 14.5q-16 0 -30.5 -4.5
t-32.5 -20.5l-33 26l45 59q-100 6 -178 55.5t-121 128.5t-43 170q0 111 51.5 196.5t136.5 132t182 46.5q63 0 118.5 -15t92.5 -37t50 -40v-183h-40q0 49 -24.5 90.5t-70.5 65.5t-107 24q-62 0 -114.5 -30.5t-83.5 -88.5t-31 -135q0 -83 35 -148t94.5 -101.5t130.5 -36.5
q59 0 112.5 31.5t85.5 95.5l42 -26q-24 -50 -48.5 -86.5z" />
    <glyph glyph-name="Egrave" unicode="&#xc8;" horiz-adv-x="600" 
d="M314.5 789q-28.5 16 -68.5 33q-52 23 -76 42t-24 53q0 28 22.5 50.5t52.5 22.5q34 0 54 -24.5t46 -77.5q22 -43 36 -66.5t35 -44.5l-26 -27q-23 23 -51.5 39zM560 509h-40q0 7 -14.5 33t-48 49.5t-88.5 23.5h-133v-232h93q39 0 60 16t21 40h40v-187h-40q0 24 -21 40
t-60 16h-93v-233h133q55 0 88.5 23.5t48 49.5t14.5 33h40v-181h-540v40q24 0 40 21t16 60v448q0 39 -16 60t-40 21v40h540v-181z" />
    <glyph glyph-name="Eacute" unicode="&#xc9;" horiz-adv-x="600" 
d="M407 864q-24 -19 -76 -42q-40 -17 -68.5 -33t-51.5 -39l-26 27q21 21 35 44.5t36 66.5q26 53 46 77.5t54 24.5q30 0 52.5 -22.5t22.5 -50.5q0 -34 -24 -53zM560 509h-40q0 7 -14.5 33t-48 49.5t-88.5 23.5h-133v-232h93q39 0 60 16t21 40h40v-187h-40q0 24 -21 40t-60 16
h-93v-233h133q55 0 88.5 23.5t48 49.5t14.5 33h40v-181h-540v40q24 0 40 21t16 60v448q0 39 -16 60t-40 21v40h540v-181z" />
    <glyph glyph-name="Ecircumflex" unicode="&#xca;" horiz-adv-x="600" 
d="M171 740l-20 36l139 123l139 -123l-20 -36l-119 64zM560 509h-40q0 7 -14.5 33t-48 49.5t-88.5 23.5h-133v-232h93q39 0 60 16t21 40h40v-187h-40q0 24 -21 40t-60 16h-93v-233h133q55 0 88.5 23.5t48 49.5t14.5 33h40v-181h-540v40q24 0 40 21t16 60v448q0 39 -16 60
t-40 21v40h540v-181z" />
    <glyph glyph-name="Edieresis" unicode="&#xcb;" horiz-adv-x="600" 
d="M115 775q-25 25 -25 61q0 35 25 59.5t61 24.5q35 0 59.5 -24.5t24.5 -59.5q0 -36 -24.5 -61t-59.5 -25q-36 0 -61 25zM345 775q-25 25 -25 61q0 35 25 59.5t61 24.5q35 0 59.5 -24.5t24.5 -59.5q0 -36 -24.5 -61t-59.5 -25q-36 0 -61 25zM560 509h-40q0 7 -14.5 33
t-48 49.5t-88.5 23.5h-133v-232h93q39 0 60 16t21 40h40v-187h-40q0 24 -21 40t-60 16h-93v-233h133q55 0 88.5 23.5t48 49.5t14.5 33h40v-181h-540v40q24 0 40 21t16 60v448q0 39 -16 60t-40 21v40h540v-181z" />
    <glyph glyph-name="Igrave" unicode="&#xcc;" 
d="M180.5 789q-28.5 16 -68.5 33q-52 23 -76 42t-24 53q0 28 22.5 50.5t52.5 22.5q34 0 54 -24.5t46 -77.5q22 -43 36 -66.5t35 -44.5l-26 -27q-23 23 -51.5 39zM60 629q-16 21 -40 21v40h272v-40q-24 0 -40 -21t-16 -60v-448q0 -39 16 -60t40 -21v-40h-272v40q24 0 40 21
t16 60v448q0 39 -16 60z" />
    <glyph glyph-name="Iacute" unicode="&#xcd;" 
d="M51 777q21 21 35 44.5t36 66.5q26 53 46 77.5t54 24.5q30 0 52.5 -22.5t22.5 -50.5q0 -34 -24 -53t-76 -42q-40 -17 -68.5 -33t-51.5 -39zM60 629q-16 21 -40 21v40h272v-40q-24 0 -40 -21t-16 -60v-448q0 -39 16 -60t40 -21v-40h-272v40q24 0 40 21t16 60v448
q0 39 -16 60z" />
    <glyph glyph-name="Icircumflex" unicode="&#xce;" 
d="M156 899l139 -123l-20 -36l-119 64l-119 -64l-20 36zM60 629q-16 21 -40 21v40h272v-40q-24 0 -40 -21t-16 -60v-448q0 -39 16 -60t40 -21v-40h-272v40q24 0 40 21t16 60v448q0 39 -16 60z" />
    <glyph glyph-name="Idieresis" unicode="&#xcf;" 
d="M-19 775q-25 25 -25 61q0 35 25 59.5t61 24.5q35 0 59.5 -24.5t24.5 -59.5q0 -36 -24.5 -61t-59.5 -25q-36 0 -61 25zM211 775q-25 25 -25 61q0 35 25 59.5t61 24.5q35 0 59.5 -24.5t24.5 -59.5q0 -36 -24.5 -61t-59.5 -25q-36 0 -61 25zM60 629q-16 21 -40 21v40h272
v-40q-24 0 -40 -21t-16 -60v-448q0 -39 16 -60t40 -21v-40h-272v40q24 0 40 21t16 60v448q0 39 -16 60z" />
    <glyph glyph-name="Ntilde" unicode="&#xd1;" horiz-adv-x="756" 
d="M266 768.5q-13 -9.5 -13 -28.5h-30q0 52 24 84.5t65 32.5q16 0 29.5 -4t32.5 -13q15 -7 25.5 -10.5t22.5 -3.5q19 0 32 10t13 28h30q0 -52 -24 -84.5t-65 -32.5q-16 0 -29.5 4t-32.5 13q-15 7 -25.5 10.5t-22.5 3.5q-19 0 -32 -9.5zM736 650q-24 0 -40 -21t-16 -60v-569
h-75l-454 445v-324q0 -39 16 -60t40 -21v-40h-187v40q24 0 40 21t16 60v448q0 39 -16 60t-40 21v40h131l454 -445v324q0 39 -16 60t-40 21v40h187v-40z" />
    <glyph glyph-name="Ograve" unicode="&#xd2;" horiz-adv-x="800" 
d="M414.5 810q-28.5 16 -68.5 33q-52 23 -76 42t-24 53q0 28 22.5 50.5t52.5 22.5q34 0 54 -24.5t46 -77.5q22 -43 36 -66.5t35 -44.5l-26 -27q-23 23 -51.5 39zM70 536q50 83 135 129t185 46t185 -46t135 -129t50 -190t-50 -190t-135 -129t-185 -46t-185 46t-135 129
t-50 190t50 190zM207 192q27 -66 74.5 -101t107.5 -35t108 35.5t75.5 101t27.5 153.5t-27.5 153.5t-75.5 101t-108 35.5q-61 0 -108.5 -35t-74 -101t-26.5 -154t27 -154z" />
    <glyph glyph-name="Oacute" unicode="&#xd3;" horiz-adv-x="800" 
d="M285 798q21 21 35 44.5t36 66.5q26 53 46 77.5t54 24.5q30 0 52.5 -22.5t22.5 -50.5q0 -34 -24 -53t-76 -42q-40 -17 -68.5 -33t-51.5 -39zM70 536q50 83 135 129t185 46t185 -46t135 -129t50 -190t-50 -190t-135 -129t-185 -46t-185 46t-135 129t-50 190t50 190z
M207 192q27 -66 74.5 -101t107.5 -35t108 35.5t75.5 101t27.5 153.5t-27.5 153.5t-75.5 101t-108 35.5q-61 0 -108.5 -35t-74 -101t-26.5 -154t27 -154z" />
    <glyph glyph-name="Ocircumflex" unicode="&#xd4;" horiz-adv-x="800" 
d="M390 920l139 -123l-20 -36l-119 64l-119 -64l-20 36zM70 536q50 83 135 129t185 46t185 -46t135 -129t50 -190t-50 -190t-135 -129t-185 -46t-185 46t-135 129t-50 190t50 190zM207 192q27 -66 74.5 -101t107.5 -35t108 35.5t75.5 101t27.5 153.5t-27.5 153.5t-75.5 101
t-108 35.5q-61 0 -108.5 -35t-74 -101t-26.5 -154t27 -154z" />
    <glyph glyph-name="Otilde" unicode="&#xd5;" horiz-adv-x="800" 
d="M408.5 772q-13.5 4 -32.5 13q-15 7 -25.5 10.5t-22.5 3.5q-19 0 -32 -9.5t-13 -28.5h-30q0 52 24 84.5t65 32.5q16 0 29.5 -4t32.5 -13q15 -7 25.5 -10.5t22.5 -3.5q19 0 32 10t13 28h30q0 -52 -24 -84.5t-65 -32.5q-16 0 -29.5 4zM70 536q50 83 135 129t185 46t185 -46
t135 -129t50 -190t-50 -190t-135 -129t-185 -46t-185 46t-135 129t-50 190t50 190zM207 192q27 -66 74.5 -101t107.5 -35t108 35.5t75.5 101t27.5 153.5t-27.5 153.5t-75.5 101t-108 35.5q-61 0 -108.5 -35t-74 -101t-26.5 -154t27 -154z" />
    <glyph glyph-name="Odieresis" unicode="&#xd6;" horiz-adv-x="800" 
d="M215 796q-25 25 -25 61q0 35 25 59.5t61 24.5q35 0 59.5 -24.5t24.5 -59.5q0 -36 -24.5 -61t-59.5 -25q-36 0 -61 25zM445 796q-25 25 -25 61q0 35 25 59.5t61 24.5q35 0 59.5 -24.5t24.5 -59.5q0 -36 -24.5 -61t-59.5 -25q-36 0 -61 25zM70 536q50 83 135 129t185 46
t185 -46t135 -129t50 -190t-50 -190t-135 -129t-185 -46t-185 46t-135 129t-50 190t50 190zM207 192q27 -66 74.5 -101t107.5 -35t108 35.5t75.5 101t27.5 153.5t-27.5 153.5t-75.5 101t-108 35.5q-61 0 -108.5 -35t-74 -101t-26.5 -154t27 -154z" />
    <glyph glyph-name="multiply" unicode="&#xd7;" horiz-adv-x="460" 
d="M283 291l157 -158l-53 -53l-157 157l-157 -157l-53 53l157 158l-157 157l53 53l157 -157l157 157l53 -53z" />
    <glyph glyph-name="Oslash" unicode="&#xd8;" horiz-adv-x="800" 
d="M725.5 506q34.5 -72 34.5 -160q0 -107 -50 -190t-135 -129t-185 -46q-95 0 -179 42l-43 -62l-65 40l45 64q-60 49 -94 121.5t-34 159.5q0 107 50 190t135 129t185 46q95 0 177 -42l43 62l65 -40l-44 -63q60 -50 94.5 -122zM218 167l293 422q-52 47 -122 47
q-61 0 -108.5 -35t-74 -101t-26.5 -154q0 -105 38 -179zM497 91.5q48 35.5 75.5 101t27.5 153.5q0 105 -40 180l-293 -423q53 -47 122 -47q60 0 108 35.5z" />
    <glyph glyph-name="Ugrave" unicode="&#xd9;" horiz-adv-x="728" 
d="M411.5 789q-28.5 16 -68.5 33q-52 23 -76 42t-24 53q0 28 22.5 50.5t52.5 22.5q34 0 54 -24.5t46 -77.5q22 -43 36 -66.5t35 -44.5l-26 -27q-23 23 -51.5 39zM238.5 5q-69.5 25 -116 79.5t-46.5 138.5v346q0 39 -16 60t-40 21v40h271v-40q-24 0 -40 -21t-16 -60l1 -356
q0 -59 28 -94.5t67.5 -49.5t75.5 -14q35 0 74.5 16.5t67.5 52.5t28 92v353q0 39 -16 60t-40 21v40h187v-40q-24 0 -40 -21t-16 -60v-343q0 -75 -34 -131t-96.5 -85.5t-144.5 -29.5q-69 0 -138.5 25z" />
    <glyph glyph-name="Uacute" unicode="&#xda;" horiz-adv-x="728" 
d="M282 777q21 21 35 44.5t36 66.5q26 53 46 77.5t54 24.5q30 0 52.5 -22.5t22.5 -50.5q0 -34 -24 -53t-76 -42q-40 -17 -68.5 -33t-51.5 -39zM238.5 5q-69.5 25 -116 79.5t-46.5 138.5v346q0 39 -16 60t-40 21v40h271v-40q-24 0 -40 -21t-16 -60l1 -356q0 -59 28 -94.5
t67.5 -49.5t75.5 -14q35 0 74.5 16.5t67.5 52.5t28 92v353q0 39 -16 60t-40 21v40h187v-40q-24 0 -40 -21t-16 -60v-343q0 -75 -34 -131t-96.5 -85.5t-144.5 -29.5q-69 0 -138.5 25z" />
    <glyph glyph-name="Ucircumflex" unicode="&#xdb;" horiz-adv-x="728" 
d="M387 899l139 -123l-20 -36l-119 64l-119 -64l-20 36zM238.5 5q-69.5 25 -116 79.5t-46.5 138.5v346q0 39 -16 60t-40 21v40h271v-40q-24 0 -40 -21t-16 -60l1 -356q0 -59 28 -94.5t67.5 -49.5t75.5 -14q35 0 74.5 16.5t67.5 52.5t28 92v353q0 39 -16 60t-40 21v40h187
v-40q-24 0 -40 -21t-16 -60v-343q0 -75 -34 -131t-96.5 -85.5t-144.5 -29.5q-69 0 -138.5 25z" />
    <glyph glyph-name="Udieresis" unicode="&#xdc;" horiz-adv-x="728" 
d="M212 775q-25 25 -25 61q0 35 25 59.5t61 24.5q35 0 59.5 -24.5t24.5 -59.5q0 -36 -24.5 -61t-59.5 -25q-36 0 -61 25zM442 775q-25 25 -25 61q0 35 25 59.5t61 24.5q35 0 59.5 -24.5t24.5 -59.5q0 -36 -24.5 -61t-59.5 -25q-36 0 -61 25zM238.5 5q-69.5 25 -116 79.5
t-46.5 138.5v346q0 39 -16 60t-40 21v40h271v-40q-24 0 -40 -21t-16 -60l1 -356q0 -59 28 -94.5t67.5 -49.5t75.5 -14q35 0 74.5 16.5t67.5 52.5t28 92v353q0 39 -16 60t-40 21v40h187v-40q-24 0 -40 -21t-16 -60v-343q0 -75 -34 -131t-96.5 -85.5t-144.5 -29.5
q-69 0 -138.5 25z" />
    <glyph glyph-name="Yacute" unicode="&#xdd;" horiz-adv-x="792" 
d="M565 864q-24 -19 -76 -42q-40 -17 -68.5 -33t-51.5 -39l-26 27q21 21 35 44.5t36 66.5q26 53 46 77.5t54 24.5q30 0 52.5 -22.5t22.5 -50.5q0 -34 -24 -53zM772 650q-29 0 -65 -16t-56 -46l-175 -278v-189q0 -39 16 -60t40 -21v-40h-272v40q24 0 40 21t16 60v189
l-175 278q-20 30 -56 46t-65 16v40h351v-40q-2 0 -10.5 -4t-15.5 -14.5t-7 -26.5q0 -29 29 -76l80 -126l78 125q29 47 29 77q0 16 -7 26.5t-15.5 14.5t-10.5 4v40h251v-40z" />
    <glyph glyph-name="Thorn" unicode="&#xde;" horiz-adv-x="649" 
d="M496.5 538.5q60.5 -25.5 96.5 -75t36 -118.5t-36 -118.5t-96.5 -75t-132.5 -25.5h-128v-5q0 -39 16 -60t40 -21v-40h-272v40q24 0 40 21t16 60v448q0 39 -16 60t-40 21v40h272v-40q-24 0 -40 -21t-16 -60v-5h128q72 0 132.5 -25.5zM428 236q41 35 41 109t-41 109t-94 35
h-98v-288h98q53 0 94 35z" />
    <glyph glyph-name="germandbls" unicode="&#xdf;" horiz-adv-x="714" 
d="M468 313q21 -15 66 -33t72.5 -34t47.5 -44.5t20 -72.5q0 -66 -52 -107.5t-137 -41.5q-48 0 -96 23.5t-61 50.5l1 114h47q0 -44 27.5 -78.5t66.5 -34.5q32 0 48.5 20.5t15.5 43.5q0 26 -19.5 41.5t-60.5 34.5q-37 17 -61.5 32.5t-42 43t-17.5 67.5q0 33 16 54t47 45
q29 22 43.5 40.5t14.5 47.5q0 46 -28.5 78t-75.5 32q-51 0 -82.5 -43.5t-31.5 -122.5v-348q0 -39 16 -60t40 -21v-40h-272v40q24 0 40 21t16 60v299h-50v40h50v19q0 64 33.5 117t96 83.5t144.5 30.5q68 0 124 -24.5t88 -65t32 -86.5q0 -36 -13 -59.5t-31 -36t-46 -26.5
q-29 -14 -43 -26t-14 -33q0 -25 21 -40z" />
    <glyph glyph-name="agrave" unicode="&#xe0;" horiz-adv-x="670" 
d="M298.5 579q-28.5 16 -68.5 33q-52 23 -76 42t-24 53q0 28 22.5 50.5t52.5 22.5q34 0 54 -24.5t46 -77.5q22 -43 36 -66.5t35 -44.5l-26 -27q-23 23 -51.5 39zM610 61q16 -21 40 -21v-40h-216v48q-33 -32 -73.5 -50t-86.5 -18q-72 0 -130 33t-91 90t-33 127t33 127t91 90
t130 33q46 0 86.5 -18t73.5 -50v48h39q39 0 60 16t21 40h40v-395q0 -39 16 -60zM366.5 77.5q30.5 22.5 49 62.5t18.5 90t-18.5 90t-49 62.5t-66.5 22.5t-65.5 -22.5t-47 -62.5t-17.5 -90t17.5 -90t47 -62.5t65.5 -22.5t66.5 22.5z" />
    <glyph glyph-name="aacute" unicode="&#xe1;" horiz-adv-x="670" 
d="M391 654q-24 -19 -76 -42q-40 -17 -68.5 -33t-51.5 -39l-26 27q21 21 35 44.5t36 66.5q26 53 46 77.5t54 24.5q30 0 52.5 -22.5t22.5 -50.5q0 -34 -24 -53zM610 61q16 -21 40 -21v-40h-216v48q-33 -32 -73.5 -50t-86.5 -18q-72 0 -130 33t-91 90t-33 127t33 127t91 90
t130 33q46 0 86.5 -18t73.5 -50v48h39q39 0 60 16t21 40h40v-395q0 -39 16 -60zM366.5 77.5q30.5 22.5 49 62.5t18.5 90t-18.5 90t-49 62.5t-66.5 22.5t-65.5 -22.5t-47 -62.5t-17.5 -90t17.5 -90t47 -62.5t65.5 -22.5t66.5 22.5z" />
    <glyph glyph-name="acircumflex" unicode="&#xe2;" horiz-adv-x="670" 
d="M155 530l-20 36l139 123l139 -123l-20 -36l-119 64zM610 61q16 -21 40 -21v-40h-216v48q-33 -32 -73.5 -50t-86.5 -18q-72 0 -130 33t-91 90t-33 127t33 127t91 90t130 33q46 0 86.5 -18t73.5 -50v48h39q39 0 60 16t21 40h40v-395q0 -39 16 -60zM366.5 77.5
q30.5 22.5 49 62.5t18.5 90t-18.5 90t-49 62.5t-66.5 22.5t-65.5 -22.5t-47 -62.5t-17.5 -90t17.5 -90t47 -62.5t65.5 -22.5t66.5 22.5z" />
    <glyph glyph-name="atilde" unicode="&#xe3;" horiz-adv-x="670" 
d="M180 558.5q-13 -9.5 -13 -28.5h-30q0 52 24 84.5t65 32.5q16 0 29.5 -4t32.5 -13q15 -7 25.5 -10.5t22.5 -3.5q19 0 32 10t13 28h30q0 -52 -24 -84.5t-65 -32.5q-16 0 -29.5 4t-32.5 13q-15 7 -25.5 10.5t-22.5 3.5q-19 0 -32 -9.5zM610 61q16 -21 40 -21v-40h-216v48
q-33 -32 -73.5 -50t-86.5 -18q-72 0 -130 33t-91 90t-33 127t33 127t91 90t130 33q46 0 86.5 -18t73.5 -50v48h39q39 0 60 16t21 40h40v-395q0 -39 16 -60zM366.5 77.5q30.5 22.5 49 62.5t18.5 90t-18.5 90t-49 62.5t-66.5 22.5t-65.5 -22.5t-47 -62.5t-17.5 -90t17.5 -90
t47 -62.5t65.5 -22.5t66.5 22.5z" />
    <glyph glyph-name="adieresis" unicode="&#xe4;" horiz-adv-x="670" 
d="M99 565q-25 25 -25 61q0 35 25 59.5t61 24.5q35 0 59.5 -24.5t24.5 -59.5q0 -36 -24.5 -61t-59.5 -25q-36 0 -61 25zM329 565q-25 25 -25 61q0 35 25 59.5t61 24.5q35 0 59.5 -24.5t24.5 -59.5q0 -36 -24.5 -61t-59.5 -25q-36 0 -61 25zM610 61q16 -21 40 -21v-40h-216
v48q-33 -32 -73.5 -50t-86.5 -18q-72 0 -130 33t-91 90t-33 127t33 127t91 90t130 33q46 0 86.5 -18t73.5 -50v48h39q39 0 60 16t21 40h40v-395q0 -39 16 -60zM366.5 77.5q30.5 22.5 49 62.5t18.5 90t-18.5 90t-49 62.5t-66.5 22.5t-65.5 -22.5t-47 -62.5t-17.5 -90
t17.5 -90t47 -62.5t65.5 -22.5t66.5 22.5z" />
    <glyph glyph-name="aring" unicode="&#xe5;" horiz-adv-x="670" 
d="M203 559q-29 29 -29 71t29 71t71 29t71 -29t29 -71t-29 -71t-71 -29t-71 29zM239 665q-15 -15 -15 -35t15 -35t35 -15t35 15t15 35t-15 35t-35 15t-35 -15zM610 61q16 -21 40 -21v-40h-216v48q-33 -32 -73.5 -50t-86.5 -18q-72 0 -130 33t-91 90t-33 127t33 127t91 90
t130 33q46 0 86.5 -18t73.5 -50v48h39q39 0 60 16t21 40h40v-395q0 -39 16 -60zM366.5 77.5q30.5 22.5 49 62.5t18.5 90t-18.5 90t-49 62.5t-66.5 22.5t-65.5 -22.5t-47 -62.5t-17.5 -90t17.5 -90t47 -62.5t65.5 -22.5t66.5 22.5z" />
    <glyph glyph-name="ae" unicode="&#xe6;" horiz-adv-x="896" 
d="M806 132l29 -18q-17 -35 -36 -62t-59.5 -49.5t-103.5 -22.5q-71 0 -126.5 22t-91.5 62q-34 -41 -85 -62.5t-109 -21.5q-87 0 -145.5 34t-58.5 102q0 93 83.5 129t254.5 36q0 38 -12.5 73.5t-37.5 58t-59 22.5q-16 0 -32.5 -3.5t-24.5 -11.5q7 -10 9.5 -20t2.5 -25
q0 -34 -23 -57t-57 -23t-57 23t-23 57q0 33 28.5 58t74.5 38.5t97 13.5q59 0 105.5 -21t76.5 -61q35 37 83 57t98 20q75 0 131.5 -31t87 -85.5t30.5 -122.5h-338q0 -85 43 -135.5t110 -50.5q97 0 135 77zM545.5 390.5q-21.5 -39.5 -26.5 -109.5h175q-5 63 -26.5 106
t-60.5 43q-40 0 -61.5 -39.5zM332 100.5q26 45.5 26 140.5q-186 5 -186 -99q0 -42 22.5 -64.5t55.5 -22.5q56 0 82 45.5z" />
    <glyph glyph-name="ccedilla" unicode="&#xe7;" horiz-adv-x="567" 
d="M383 -38q38 0 67.5 -21.5t29.5 -60.5q0 -30 -20 -51t-48.5 -31.5t-52.5 -10.5q-42 0 -69.5 13.5t-56.5 44.5l26 22q21 -19 39 -30t42 -11q27 0 46 11.5t19 33.5q0 21 -17 35.5t-37 14.5q-16 0 -30.5 -4.5t-32.5 -20.5l-33 26l44 58q-74 4 -133 37t-92.5 87.5t-33.5 121.5
q0 72 38.5 130.5t104.5 91t145 32.5q63 0 102.5 -18t79.5 -51v-126h-40q0 55 -34 95t-95 40q-38 0 -70 -21t-51.5 -60.5t-19.5 -92.5q0 -56 22 -99.5t59.5 -67.5t81.5 -24q39 0 68.5 20t52.5 65l43 -26q-54 -114 -169 -131l-31 -39q21 18 56 18z" />
    <glyph glyph-name="egrave" unicode="&#xe8;" horiz-adv-x="578" 
d="M313.5 579q-28.5 16 -68.5 33q-52 23 -76 42t-24 53q0 28 22.5 50.5t52.5 22.5q34 0 54 -24.5t46 -77.5q22 -43 36 -66.5t35 -44.5l-26 -27q-23 23 -51.5 39zM437.5 72.5q39.5 17.5 60.5 59.5l29 -18q-25 -52 -72 -93t-137 -41q-87 0 -150 33t-95.5 88.5t-32.5 121.5
q0 80 36 138.5t93.5 88.5t119.5 30q75 0 131.5 -31t87 -85.5t30.5 -122.5h-338q0 -85 43 -135.5t110 -50.5q45 0 84.5 17.5zM227.5 390.5q-21.5 -39.5 -26.5 -109.5h175q-5 63 -26.5 106t-60.5 43q-40 0 -61.5 -39.5z" />
    <glyph glyph-name="eacute" unicode="&#xe9;" horiz-adv-x="578" 
d="M406 654q-24 -19 -76 -42q-40 -17 -68.5 -33t-51.5 -39l-26 27q21 21 35 44.5t36 66.5q26 53 46 77.5t54 24.5q30 0 52.5 -22.5t22.5 -50.5q0 -34 -24 -53zM437.5 72.5q39.5 17.5 60.5 59.5l29 -18q-25 -52 -72 -93t-137 -41q-87 0 -150 33t-95.5 88.5t-32.5 121.5
q0 80 36 138.5t93.5 88.5t119.5 30q75 0 131.5 -31t87 -85.5t30.5 -122.5h-338q0 -85 43 -135.5t110 -50.5q45 0 84.5 17.5zM227.5 390.5q-21.5 -39.5 -26.5 -109.5h175q-5 63 -26.5 106t-60.5 43q-40 0 -61.5 -39.5z" />
    <glyph glyph-name="ecircumflex" unicode="&#xea;" horiz-adv-x="578" 
d="M170 530l-20 36l139 123l139 -123l-20 -36l-119 64zM437.5 72.5q39.5 17.5 60.5 59.5l29 -18q-25 -52 -72 -93t-137 -41q-87 0 -150 33t-95.5 88.5t-32.5 121.5q0 80 36 138.5t93.5 88.5t119.5 30q75 0 131.5 -31t87 -85.5t30.5 -122.5h-338q0 -85 43 -135.5t110 -50.5
q45 0 84.5 17.5zM227.5 390.5q-21.5 -39.5 -26.5 -109.5h175q-5 63 -26.5 106t-60.5 43q-40 0 -61.5 -39.5z" />
    <glyph glyph-name="edieresis" unicode="&#xeb;" horiz-adv-x="578" 
d="M114 565q-25 25 -25 61q0 35 25 59.5t61 24.5q35 0 59.5 -24.5t24.5 -59.5q0 -36 -24.5 -61t-59.5 -25q-36 0 -61 25zM344 565q-25 25 -25 61q0 35 25 59.5t61 24.5q35 0 59.5 -24.5t24.5 -59.5q0 -36 -24.5 -61t-59.5 -25q-36 0 -61 25zM437.5 72.5q39.5 17.5 60.5 59.5
l29 -18q-25 -52 -72 -93t-137 -41q-87 0 -150 33t-95.5 88.5t-32.5 121.5q0 80 36 138.5t93.5 88.5t119.5 30q75 0 131.5 -31t87 -85.5t30.5 -122.5h-338q0 -85 43 -135.5t110 -50.5q45 0 84.5 17.5zM227.5 390.5q-21.5 -39.5 -26.5 -109.5h175q-5 63 -26.5 106t-60.5 43
q-40 0 -61.5 -39.5z" />
    <glyph glyph-name="igrave" unicode="&#xec;" 
d="M151.5 569q-28.5 16 -68.5 33q-52 23 -76 42t-24 53q0 28 22.5 50.5t52.5 22.5q34 0 54 -24.5t46 -77.5q22 -43 36 -66.5t35 -44.5l-26 -27q-23 23 -51.5 39zM60 399q-16 21 -40 21v40h216v-339q0 -39 16 -60t40 -21v-40h-272v40q24 0 40 21t16 60v218q0 39 -16 60z" />
    <glyph glyph-name="iacute" unicode="&#xed;" 
d="M22 557q21 21 35 44.5t36 66.5q26 53 46 77.5t54 24.5q30 0 52.5 -22.5t22.5 -50.5q0 -34 -24 -53t-76 -42q-40 -17 -68.5 -33t-51.5 -39zM60 399q-16 21 -40 21v40h216v-339q0 -39 16 -60t40 -21v-40h-272v40q24 0 40 21t16 60v218q0 39 -16 60z" />
    <glyph glyph-name="icircumflex" unicode="&#xee;" 
d="M127 679l139 -123l-20 -36l-119 64l-119 -64l-20 36zM60 399q-16 21 -40 21v40h216v-339q0 -39 16 -60t40 -21v-40h-272v40q24 0 40 21t16 60v218q0 39 -16 60z" />
    <glyph glyph-name="idieresis" unicode="&#xef;" 
d="M-48 555q-25 25 -25 61q0 35 25 59.5t61 24.5q35 0 59.5 -24.5t24.5 -59.5q0 -36 -24.5 -61t-59.5 -25q-36 0 -61 25zM182 555q-25 25 -25 61q0 35 25 59.5t61 24.5q35 0 59.5 -24.5t24.5 -59.5q0 -36 -24.5 -61t-59.5 -25q-36 0 -61 25zM60 399q-16 21 -40 21v40h216
v-339q0 -39 16 -60t40 -21v-40h-272v40q24 0 40 21t16 60v218q0 39 -16 60z" />
    <glyph glyph-name="ntilde" unicode="&#xf1;" horiz-adv-x="684" 
d="M318 558.5q-13 -9.5 -13 -28.5h-30q0 52 24 84.5t65 32.5q16 0 29.5 -4t32.5 -13q15 -7 25.5 -10.5t22.5 -3.5q19 0 32 10t13 28h30q0 -52 -24 -84.5t-65 -32.5q-16 0 -29.5 4t-32.5 13q-15 7 -25.5 10.5t-22.5 3.5q-19 0 -32 -9.5zM624 61q16 -21 40 -21v-40h-272v40
q24 0 40 21t16 60v119q0 69 -30 101.5t-75 32.5q-54 0 -79.5 -45t-27.5 -118v-90q0 -39 16 -60t40 -21v-40h-272v40q24 0 40 21t16 60v218q0 39 -16 60t-40 21v40h216v-97q16 52 62.5 84.5t113.5 32.5q95 0 145.5 -61t50.5 -180v-118q0 -39 16 -60z" />
    <glyph glyph-name="ograve" unicode="&#xf2;" horiz-adv-x="622" 
d="M335.5 579q-28.5 16 -68.5 33q-52 23 -76 42t-24 53q0 28 22.5 50.5t52.5 22.5q34 0 54 -24.5t46 -77.5q22 -43 36 -66.5t35 -44.5l-26 -27q-23 23 -51.5 39zM76 356.5q36 57.5 98 90.5t137 33t137 -33t98 -90.5t36 -126.5t-36 -126.5t-98 -90.5t-137 -33t-137 33
t-98 90.5t-36 126.5t36 126.5zM224.5 101.5q34.5 -46.5 86.5 -46.5t86.5 46.5t34.5 128.5t-34.5 128.5t-86.5 46.5t-86.5 -46.5t-34.5 -128.5t34.5 -128.5z" />
    <glyph glyph-name="oacute" unicode="&#xf3;" horiz-adv-x="622" 
d="M206 567q21 21 35 44.5t36 66.5q26 53 46 77.5t54 24.5q30 0 52.5 -22.5t22.5 -50.5q0 -34 -24 -53t-76 -42q-40 -17 -68.5 -33t-51.5 -39zM76 356.5q36 57.5 98 90.5t137 33t137 -33t98 -90.5t36 -126.5t-36 -126.5t-98 -90.5t-137 -33t-137 33t-98 90.5t-36 126.5
t36 126.5zM224.5 101.5q34.5 -46.5 86.5 -46.5t86.5 46.5t34.5 128.5t-34.5 128.5t-86.5 46.5t-86.5 -46.5t-34.5 -128.5t34.5 -128.5z" />
    <glyph glyph-name="ocircumflex" unicode="&#xf4;" horiz-adv-x="622" 
d="M311 689l139 -123l-20 -36l-119 64l-119 -64l-20 36zM76 356.5q36 57.5 98 90.5t137 33t137 -33t98 -90.5t36 -126.5t-36 -126.5t-98 -90.5t-137 -33t-137 33t-98 90.5t-36 126.5t36 126.5zM224.5 101.5q34.5 -46.5 86.5 -46.5t86.5 46.5t34.5 128.5t-34.5 128.5
t-86.5 46.5t-86.5 -46.5t-34.5 -128.5t34.5 -128.5z" />
    <glyph glyph-name="otilde" unicode="&#xf5;" horiz-adv-x="622" 
d="M329.5 541q-13.5 4 -32.5 13q-15 7 -25.5 10.5t-22.5 3.5q-19 0 -32 -9.5t-13 -28.5h-30q0 52 24 84.5t65 32.5q16 0 29.5 -4t32.5 -13q15 -7 25.5 -10.5t22.5 -3.5q19 0 32 10t13 28h30q0 -52 -24 -84.5t-65 -32.5q-16 0 -29.5 4zM76 356.5q36 57.5 98 90.5t137 33
t137 -33t98 -90.5t36 -126.5t-36 -126.5t-98 -90.5t-137 -33t-137 33t-98 90.5t-36 126.5t36 126.5zM224.5 101.5q34.5 -46.5 86.5 -46.5t86.5 46.5t34.5 128.5t-34.5 128.5t-86.5 46.5t-86.5 -46.5t-34.5 -128.5t34.5 -128.5z" />
    <glyph glyph-name="odieresis" unicode="&#xf6;" horiz-adv-x="622" 
d="M136 565q-25 25 -25 61q0 35 25 59.5t61 24.5q35 0 59.5 -24.5t24.5 -59.5q0 -36 -24.5 -61t-59.5 -25q-36 0 -61 25zM366 565q-25 25 -25 61q0 35 25 59.5t61 24.5q35 0 59.5 -24.5t24.5 -59.5q0 -36 -24.5 -61t-59.5 -25q-36 0 -61 25zM76 356.5q36 57.5 98 90.5
t137 33t137 -33t98 -90.5t36 -126.5t-36 -126.5t-98 -90.5t-137 -33t-137 33t-98 90.5t-36 126.5t36 126.5zM224.5 101.5q34.5 -46.5 86.5 -46.5t86.5 46.5t34.5 128.5t-34.5 128.5t-86.5 46.5t-86.5 -46.5t-34.5 -128.5t34.5 -128.5z" />
    <glyph glyph-name="divide" unicode="&#xf7;" horiz-adv-x="560" 
d="M213 439q-28 28 -28 68q0 38 28 66t68 28q38 0 66 -28t28 -66q0 -40 -28 -68t-66 -28q-40 0 -68 28zM540 328v-75h-520v75h520zM213 8q-28 28 -28 68q0 38 28 66t68 28q38 0 66 -28t28 -66q0 -40 -28 -68t-66 -28q-40 0 -68 28z" />
    <glyph glyph-name="oslash" unicode="&#xf8;" horiz-adv-x="622" 
d="M558 335q24 -49 24 -105q0 -69 -36 -126.5t-98 -90.5t-137 -33q-60 0 -111 21l-28 -41l-65 40l27 39q-44 34 -69 84t-25 107q0 69 36 126.5t98 90.5t137 33q61 0 114 -22l30 42l65 -40l-29 -41q43 -35 67 -84zM204 140l170 243q-28 22 -63 22q-52 0 -86.5 -46.5
t-34.5 -128.5q0 -51 14 -90zM397.5 101.5q34.5 46.5 34.5 128.5q0 46 -13 85l-167 -241q27 -19 59 -19q52 0 86.5 46.5z" />
    <glyph glyph-name="ugrave" unicode="&#xf9;" horiz-adv-x="684" 
d="M366.5 559q-28.5 16 -68.5 33q-52 23 -76 42t-24 53q0 28 22.5 50.5t52.5 22.5q34 0 54 -24.5t46 -77.5q22 -43 36 -66.5t35 -44.5l-26 -27q-23 23 -51.5 39zM624 399q-16 -21 -16 -60v-218q0 -39 16 -60t40 -21v-40h-216v97q-16 -52 -62.5 -84.5t-113.5 -32.5
q-95 0 -145.5 61t-50.5 180v118q0 39 -16 60t-40 21v40h272v-40q-24 0 -40 -21t-16 -60v-119q0 -69 30 -101.5t75 -32.5q54 0 79.5 45t27.5 118v90q0 39 -16 60t-40 21v40h272v-40q-24 0 -40 -21z" />
    <glyph glyph-name="uacute" unicode="&#xfa;" horiz-adv-x="684" 
d="M459 634q-24 -19 -76 -42q-40 -17 -68.5 -33t-51.5 -39l-26 27q21 21 35 44.5t36 66.5q26 53 46 77.5t54 24.5q30 0 52.5 -22.5t22.5 -50.5q0 -34 -24 -53zM624 399q-16 -21 -16 -60v-218q0 -39 16 -60t40 -21v-40h-216v97q-16 -52 -62.5 -84.5t-113.5 -32.5
q-95 0 -145.5 61t-50.5 180v118q0 39 -16 60t-40 21v40h272v-40q-24 0 -40 -21t-16 -60v-119q0 -69 30 -101.5t75 -32.5q54 0 79.5 45t27.5 118v90q0 39 -16 60t-40 21v40h272v-40q-24 0 -40 -21z" />
    <glyph glyph-name="ucircumflex" unicode="&#xfb;" horiz-adv-x="684" 
d="M223 510l-20 36l139 123l139 -123l-20 -36l-119 64zM624 399q-16 -21 -16 -60v-218q0 -39 16 -60t40 -21v-40h-216v97q-16 -52 -62.5 -84.5t-113.5 -32.5q-95 0 -145.5 61t-50.5 180v118q0 39 -16 60t-40 21v40h272v-40q-24 0 -40 -21t-16 -60v-119q0 -69 30 -101.5
t75 -32.5q54 0 79.5 45t27.5 118v90q0 39 -16 60t-40 21v40h272v-40q-24 0 -40 -21z" />
    <glyph glyph-name="udieresis" unicode="&#xfc;" horiz-adv-x="684" 
d="M167 545q-25 25 -25 61q0 35 25 59.5t61 24.5q35 0 59.5 -24.5t24.5 -59.5q0 -36 -24.5 -61t-59.5 -25q-36 0 -61 25zM397 545q-25 25 -25 61q0 35 25 59.5t61 24.5q35 0 59.5 -24.5t24.5 -59.5q0 -36 -24.5 -61t-59.5 -25q-36 0 -61 25zM624 399q-16 -21 -16 -60v-218
q0 -39 16 -60t40 -21v-40h-216v97q-16 -52 -62.5 -84.5t-113.5 -32.5q-95 0 -145.5 61t-50.5 180v118q0 39 -16 60t-40 21v40h272v-40q-24 0 -40 -21t-16 -60v-119q0 -69 30 -101.5t75 -32.5q54 0 79.5 45t27.5 118v90q0 39 -16 60t-40 21v40h272v-40q-24 0 -40 -21z" />
    <glyph glyph-name="yacute" unicode="&#xfd;" horiz-adv-x="683" 
d="M284 547q21 21 35 44.5t36 66.5q26 53 46 77.5t54 24.5q30 0 52.5 -22.5t22.5 -50.5q0 -34 -24 -53t-76 -42q-40 -17 -68.5 -33t-51.5 -39zM139 -261.5q-31 28.5 -31 67.5q0 38 28 66t68 28q35 0 61 -25.5t26 -64.5q0 -13 -3 -26l11 -5q8 21 8 46q0 39 -19 61l26 59
l-187 405q-16 34 -48 52t-59 18v40h289v-40q-23 0 -23 -18q0 -15 17 -52l93 -204l84 202q14 36 14 51q0 21 -24 21v40h193v-40q-27 0 -57.5 -19t-44.5 -53l-54 -131q-89 -217 -133 -322t-53 -122q-17 -31 -47 -47t-65 -16q-39 0 -70 28.5z" />
    <glyph glyph-name="thorn" unicode="&#xfe;" horiz-adv-x="669" 
d="M496.5 438.5q60.5 -25.5 96.5 -75t36 -118.5t-36 -118.5t-96.5 -75t-132.5 -25.5h-128v-105q0 -39 16 -60t40 -21v-40h-272v40q24 0 40 21t16 60v648q0 39 -16 60t-40 21v40h272v-40q-24 0 -40 -21t-16 -60v-105h128q72 0 132.5 -25.5zM428 136q41 35 41 109t-41 109
t-94 35h-98v-288h98q53 0 94 35z" />
    <glyph glyph-name="ydieresis" unicode="&#xff;" horiz-adv-x="683" 
d="M214 545q-25 25 -25 61q0 35 25 59.5t61 24.5q35 0 59.5 -24.5t24.5 -59.5q0 -36 -24.5 -61t-59.5 -25q-36 0 -61 25zM444 545q-25 25 -25 61q0 35 25 59.5t61 24.5q35 0 59.5 -24.5t24.5 -59.5q0 -36 -24.5 -61t-59.5 -25q-36 0 -61 25zM139 -261.5q-31 28.5 -31 67.5
q0 38 28 66t68 28q35 0 61 -25.5t26 -64.5q0 -13 -3 -26l11 -5q8 21 8 46q0 39 -19 61l26 59l-187 405q-16 34 -48 52t-59 18v40h289v-40q-23 0 -23 -18q0 -15 17 -52l93 -204l84 202q14 36 14 51q0 21 -24 21v40h193v-40q-27 0 -57.5 -19t-44.5 -53l-54 -131
q-89 -217 -133 -322t-53 -122q-17 -31 -47 -47t-65 -16q-39 0 -70 28.5z" />
    <glyph glyph-name="Amacron" unicode="&#x100;" horiz-adv-x="816" 
d="M514 760h-280v75h280v-75zM739 59q30 -19 57 -19v-40h-285v40q25 0 25 21q0 17 -14 51l-22 55h-276l-22 -55q-14 -34 -14 -51q0 -21 25 -21v-40h-193v40q27 0 57 19t44 53l199 489q-17 24 -42 36.5t-47 12.5v40h285v-40q-25 0 -25 -21q0 -17 14 -51l190 -466
q14 -34 44 -53zM469 242l-107 263l-107 -263h214z" />
    <glyph glyph-name="amacron" unicode="&#x101;" horiz-adv-x="670" 
d="M414 550h-280v75h280v-75zM610 61q16 -21 40 -21v-40h-216v48q-33 -32 -73.5 -50t-86.5 -18q-72 0 -130 33t-91 90t-33 127t33 127t91 90t130 33q46 0 86.5 -18t73.5 -50v48h39q39 0 60 16t21 40h40v-395q0 -39 16 -60zM366.5 77.5q30.5 22.5 49 62.5t18.5 90t-18.5 90
t-49 62.5t-66.5 22.5t-65.5 -22.5t-47 -62.5t-17.5 -90t17.5 -90t47 -62.5t65.5 -22.5t66.5 22.5z" />
    <glyph glyph-name="Abreve" unicode="&#x102;" horiz-adv-x="816" 
d="M290 759q-37 19 -54 54l55 39q7 -19 31.5 -32.5t51.5 -13.5t51 13.5t31 32.5l55 -39q-17 -35 -53.5 -54t-83.5 -19t-84 19zM739 59q30 -19 57 -19v-40h-285v40q25 0 25 21q0 17 -14 51l-22 55h-276l-22 -55q-14 -34 -14 -51q0 -21 25 -21v-40h-193v40q27 0 57 19t44 53
l199 489q-17 24 -42 36.5t-47 12.5v40h285v-40q-25 0 -25 -21q0 -17 14 -51l190 -466q14 -34 44 -53zM469 242l-107 263l-107 -263h214z" />
    <glyph glyph-name="abreve" unicode="&#x103;" horiz-adv-x="670" 
d="M190 549q-37 19 -54 54l55 39q7 -19 31.5 -32.5t51.5 -13.5t51 13.5t31 32.5l55 -39q-17 -35 -53.5 -54t-83.5 -19t-84 19zM610 61q16 -21 40 -21v-40h-216v48q-33 -32 -73.5 -50t-86.5 -18q-72 0 -130 33t-91 90t-33 127t33 127t91 90t130 33q46 0 86.5 -18t73.5 -50v48
h39q39 0 60 16t21 40h40v-395q0 -39 16 -60zM366.5 77.5q30.5 22.5 49 62.5t18.5 90t-18.5 90t-49 62.5t-66.5 22.5t-65.5 -22.5t-47 -62.5t-17.5 -90t17.5 -90t47 -62.5t65.5 -22.5t66.5 22.5z" />
    <glyph glyph-name="Aogonek" unicode="&#x104;" horiz-adv-x="816" 
d="M626 -81q0 -25 15 -43.5t42 -18.5q35 0 62 36l41 -21q-16 -26 -44 -45.5t-72 -19.5q-54 0 -86.5 28.5t-32.5 73.5q0 26 14 50t35 41h-89v40q25 0 25 21q0 17 -14 51l-22 55h-276l-22 -55q-14 -34 -14 -51q0 -21 25 -21v-40h-193v40q27 0 57 19t44 53l199 489
q-17 24 -42 36.5t-47 12.5v40h285v-40q-25 0 -25 -21q0 -17 14 -51l190 -466q14 -34 44 -53t57 -19v-40h-131q-39 -34 -39 -81zM469 242l-107 263l-107 -263h214z" />
    <glyph glyph-name="aogonek" unicode="&#x105;" horiz-adv-x="670" 
d="M733 -128q-16 -26 -44 -45.5t-72 -19.5q-54 0 -86.5 28.5t-32.5 73.5q0 26 14 50t35 41h-113v48q-33 -32 -73.5 -50t-86.5 -18q-72 0 -130 33t-91 90t-33 127t33 127t91 90t130 33q46 0 86.5 -18t73.5 -50v48h39q39 0 60 16t21 40h40v-395q0 -39 16 -60t40 -21v-40h-38
q-39 -34 -39 -81q0 -25 15 -43.5t42 -18.5q35 0 62 36zM366.5 77.5q30.5 22.5 49 62.5t18.5 90t-18.5 90t-49 62.5t-66.5 22.5t-65.5 -22.5t-47 -62.5t-17.5 -90t17.5 -90t47 -62.5t65.5 -22.5t66.5 22.5z" />
    <glyph glyph-name="Cacute" unicode="&#x106;" horiz-adv-x="720" 
d="M285 798q21 21 35 44.5t36 66.5q26 53 46 77.5t54 24.5q30 0 52.5 -22.5t22.5 -50.5q0 -34 -24 -53t-76 -42q-40 -17 -68.5 -33t-51.5 -39zM71.5 532.5q51.5 85.5 136.5 132t182 46.5q63 0 118.5 -15t92.5 -37t50 -40v-183h-40q0 49 -24.5 90.5t-70.5 65.5t-107 24
q-62 0 -114.5 -30.5t-83.5 -88.5t-31 -135q0 -83 35 -148t94.5 -101.5t130.5 -36.5q59 0 112.5 31.5t85.5 95.5l42 -26q-25 -52 -52 -91t-86.5 -72t-151.5 -33q-107 0 -191.5 48.5t-131.5 130t-47 176.5q0 111 51.5 196.5z" />
    <glyph glyph-name="cacute" unicode="&#x107;" horiz-adv-x="567" 
d="M223 567q21 21 35 44.5t36 66.5q26 53 46 77.5t54 24.5q30 0 52.5 -22.5t22.5 -50.5q0 -34 -24 -53t-76 -42q-40 -17 -68.5 -33t-51.5 -39zM78.5 356.5q38.5 58.5 104.5 91t145 32.5q63 0 102.5 -18t79.5 -51v-126h-40q0 55 -34 95t-95 40q-38 0 -70 -21t-51.5 -60.5
t-19.5 -92.5q0 -56 22 -99.5t59.5 -67.5t81.5 -24q39 0 68.5 20t52.5 65l43 -26q-25 -52 -72 -93t-137 -41q-79 0 -142.5 32t-99.5 88.5t-36 125.5q0 72 38.5 130.5z" />
    <glyph glyph-name="Ccircumflex" unicode="&#x108;" horiz-adv-x="720" 
d="M390 920l139 -123l-20 -36l-119 64l-119 -64l-20 36zM71.5 532.5q51.5 85.5 136.5 132t182 46.5q63 0 118.5 -15t92.5 -37t50 -40v-183h-40q0 49 -24.5 90.5t-70.5 65.5t-107 24q-62 0 -114.5 -30.5t-83.5 -88.5t-31 -135q0 -83 35 -148t94.5 -101.5t130.5 -36.5
q59 0 112.5 31.5t85.5 95.5l42 -26q-25 -52 -52 -91t-86.5 -72t-151.5 -33q-107 0 -191.5 48.5t-131.5 130t-47 176.5q0 111 51.5 196.5z" />
    <glyph glyph-name="ccircumflex" unicode="&#x109;" horiz-adv-x="567" 
d="M328 689l139 -123l-20 -36l-119 64l-119 -64l-20 36zM78.5 356.5q38.5 58.5 104.5 91t145 32.5q63 0 102.5 -18t79.5 -51v-126h-40q0 55 -34 95t-95 40q-38 0 -70 -21t-51.5 -60.5t-19.5 -92.5q0 -56 22 -99.5t59.5 -67.5t81.5 -24q39 0 68.5 20t52.5 65l43 -26
q-25 -52 -72 -93t-137 -41q-79 0 -142.5 32t-99.5 88.5t-36 125.5q0 72 38.5 130.5z" />
    <glyph glyph-name="Ccaron" unicode="&#x10c;" horiz-adv-x="720" 
d="M271 920l119 -64l119 64l20 -36l-139 -123l-139 123zM71.5 532.5q51.5 85.5 136.5 132t182 46.5q63 0 118.5 -15t92.5 -37t50 -40v-183h-40q0 49 -24.5 90.5t-70.5 65.5t-107 24q-62 0 -114.5 -30.5t-83.5 -88.5t-31 -135q0 -83 35 -148t94.5 -101.5t130.5 -36.5
q59 0 112.5 31.5t85.5 95.5l42 -26q-25 -52 -52 -91t-86.5 -72t-151.5 -33q-107 0 -191.5 48.5t-131.5 130t-47 176.5q0 111 51.5 196.5z" />
    <glyph glyph-name="ccaron" unicode="&#x10d;" horiz-adv-x="567" 
d="M209 689l119 -64l119 64l20 -36l-139 -123l-139 123zM78.5 356.5q38.5 58.5 104.5 91t145 32.5q63 0 102.5 -18t79.5 -51v-126h-40q0 55 -34 95t-95 40q-38 0 -70 -21t-51.5 -60.5t-19.5 -92.5q0 -56 22 -99.5t59.5 -67.5t81.5 -24q39 0 68.5 20t52.5 65l43 -26
q-25 -52 -72 -93t-137 -41q-79 0 -142.5 32t-99.5 88.5t-36 125.5q0 72 38.5 130.5z" />
    <glyph glyph-name="Dcaron" unicode="&#x10e;" horiz-adv-x="766" 
d="M325 740l-139 123l20 36l119 -64l119 64l20 -36zM540 648.5q83 -41.5 134.5 -120t51.5 -183.5t-51.5 -183.5t-134.5 -120t-175 -41.5h-345v40q24 0 40 21t16 60v448q0 39 -16 60t-40 21v40h345q92 0 175 -41.5zM465 106q46 31 73.5 92t27.5 147t-27.5 147t-73.5 92
t-100 31h-129v-540h129q54 0 100 31z" />
    <glyph glyph-name="dcaron" unicode="&#x10f;" horiz-adv-x="862" 
d="M610 61q16 -21 40 -21v-40h-216v48q-33 -32 -73.5 -50t-86.5 -18q-72 0 -130 33t-91 90t-33 127t33 127t91 90t130 33q46 0 86.5 -18t73.5 -50v157q0 39 -16 60t-40 21v40h216v-569q0 -39 16 -60zM780 676q24 -14 39 -40t15 -60q0 -30 -15 -72t-52.5 -91t-99.5 -93
l-17 24q46 49 64.5 89.5t15.5 66.5q-40 0 -68 28t-28 68q0 38 28 66t68 28q26 0 50 -14zM366.5 77.5q30.5 22.5 49 62.5t18.5 90t-18.5 90t-49 62.5t-66.5 22.5t-65.5 -22.5t-47 -62.5t-17.5 -90t17.5 -90t47 -62.5t65.5 -22.5t66.5 22.5z" />
    <glyph glyph-name="Dcroat" unicode="&#x110;" horiz-adv-x="766" 
d="M540 648.5q83 -41.5 134.5 -120t51.5 -183.5t-51.5 -183.5t-134.5 -120t-175 -41.5h-345v40q24 0 40 21t16 60v187h-100v75h100v186q0 39 -16 60t-40 21v40h345q92 0 175 -41.5zM465 106q46 31 73.5 92t27.5 147t-27.5 147t-73.5 92t-100 31h-129v-232h100v-75h-100v-233
h129q54 0 100 31z" />
    <glyph glyph-name="dcroat" unicode="&#x111;" horiz-adv-x="670" 
d="M594 543v-422q0 -39 16 -60t40 -21v-40h-216v48q-33 -32 -73.5 -50t-86.5 -18q-72 0 -130 33t-91 90t-33 127t33 127t91 90t130 33q46 0 86.5 -18t73.5 -50v131h-56v40h55q-3 33 -18 50t-37 17v40h216v-107h56v-40h-56zM366.5 77.5q30.5 22.5 49 62.5t18.5 90t-18.5 90
t-49 62.5t-66.5 22.5t-65.5 -22.5t-47 -62.5t-17.5 -90t17.5 -90t47 -62.5t65.5 -22.5t66.5 22.5z" />
    <glyph glyph-name="Emacron" unicode="&#x112;" horiz-adv-x="600" 
d="M430 760h-280v75h280v-75zM560 509h-40q0 7 -14.5 33t-48 49.5t-88.5 23.5h-133v-232h93q39 0 60 16t21 40h40v-187h-40q0 24 -21 40t-60 16h-93v-233h133q55 0 88.5 23.5t48 49.5t14.5 33h40v-181h-540v40q24 0 40 21t16 60v448q0 39 -16 60t-40 21v40h540v-181z" />
    <glyph glyph-name="emacron" unicode="&#x113;" horiz-adv-x="578" 
d="M429 550h-280v75h280v-75zM437.5 72.5q39.5 17.5 60.5 59.5l29 -18q-25 -52 -72 -93t-137 -41q-87 0 -150 33t-95.5 88.5t-32.5 121.5q0 80 36 138.5t93.5 88.5t119.5 30q75 0 131.5 -31t87 -85.5t30.5 -122.5h-338q0 -85 43 -135.5t110 -50.5q45 0 84.5 17.5z
M227.5 390.5q-21.5 -39.5 -26.5 -109.5h175q-5 63 -26.5 106t-60.5 43q-40 0 -61.5 -39.5z" />
    <glyph glyph-name="Ebreve" unicode="&#x114;" horiz-adv-x="600" 
d="M206 759q-37 19 -54 54l55 39q7 -19 31.5 -32.5t51.5 -13.5t51 13.5t31 32.5l55 -39q-17 -35 -53.5 -54t-83.5 -19t-84 19zM560 509h-40q0 7 -14.5 33t-48 49.5t-88.5 23.5h-133v-232h93q39 0 60 16t21 40h40v-187h-40q0 24 -21 40t-60 16h-93v-233h133q55 0 88.5 23.5
t48 49.5t14.5 33h40v-181h-540v40q24 0 40 21t16 60v448q0 39 -16 60t-40 21v40h540v-181z" />
    <glyph glyph-name="ebreve" unicode="&#x115;" horiz-adv-x="578" 
d="M205 549q-37 19 -54 54l55 39q7 -19 31.5 -32.5t51.5 -13.5t51 13.5t31 32.5l55 -39q-17 -35 -53.5 -54t-83.5 -19t-84 19zM437.5 72.5q39.5 17.5 60.5 59.5l29 -18q-25 -52 -72 -93t-137 -41q-87 0 -150 33t-95.5 88.5t-32.5 121.5q0 80 36 138.5t93.5 88.5t119.5 30
q75 0 131.5 -31t87 -85.5t30.5 -122.5h-338q0 -85 43 -135.5t110 -50.5q45 0 84.5 17.5zM227.5 390.5q-21.5 -39.5 -26.5 -109.5h175q-5 63 -26.5 106t-60.5 43q-40 0 -61.5 -39.5z" />
    <glyph glyph-name="Edotaccent" unicode="&#x116;" horiz-adv-x="600" 
d="M229 775q-25 25 -25 61q0 35 25 59.5t61 24.5q35 0 59.5 -24.5t24.5 -59.5q0 -36 -24.5 -61t-59.5 -25q-36 0 -61 25zM560 509h-40q0 7 -14.5 33t-48 49.5t-88.5 23.5h-133v-232h93q39 0 60 16t21 40h40v-187h-40q0 24 -21 40t-60 16h-93v-233h133q55 0 88.5 23.5
t48 49.5t14.5 33h40v-181h-540v40q24 0 40 21t16 60v448q0 39 -16 60t-40 21v40h540v-181z" />
    <glyph glyph-name="edotaccent" unicode="&#x117;" horiz-adv-x="578" 
d="M228 565q-25 25 -25 61q0 35 25 59.5t61 24.5q35 0 59.5 -24.5t24.5 -59.5q0 -36 -24.5 -61t-59.5 -25q-36 0 -61 25zM437.5 72.5q39.5 17.5 60.5 59.5l29 -18q-25 -52 -72 -93t-137 -41q-87 0 -150 33t-95.5 88.5t-32.5 121.5q0 80 36 138.5t93.5 88.5t119.5 30
q75 0 131.5 -31t87 -85.5t30.5 -122.5h-338q0 -85 43 -135.5t110 -50.5q45 0 84.5 17.5zM227.5 390.5q-21.5 -39.5 -26.5 -109.5h175q-5 63 -26.5 106t-60.5 43q-40 0 -61.5 -39.5z" />
    <glyph glyph-name="Eogonek" unicode="&#x118;" horiz-adv-x="600" 
d="M560 509h-40q0 7 -14.5 33t-48 49.5t-88.5 23.5h-133v-232h93q39 0 60 16t21 40h40v-187h-40q0 24 -21 40t-60 16h-93v-233h133q55 0 88.5 23.5t48 49.5t14.5 33h40v-181h-247q-39 -34 -39 -81q0 -25 15 -43.5t42 -18.5q35 0 62 36l41 -21q-16 -26 -44 -45.5t-72 -19.5
q-54 0 -86.5 28.5t-32.5 73.5q0 26 14 50t35 41h-228v40q24 0 40 21t16 60v448q0 39 -16 60t-40 21v40h540v-181z" />
    <glyph glyph-name="eogonek" unicode="&#x119;" horiz-adv-x="578" 
d="M437.5 72.5q39.5 17.5 60.5 59.5l29 -18q-59 -124 -187 -133l1 -1q-39 -34 -39 -81q0 -25 15 -43.5t42 -18.5q35 0 62 36l41 -21q-16 -26 -44 -45.5t-72 -19.5q-54 0 -86.5 28.5t-32.5 73.5q0 27 15 51.5t37 41.5q-75 7 -129 41.5t-82 86.5t-28 113q0 80 36 138.5
t93.5 88.5t119.5 30q75 0 131.5 -31t87 -85.5t30.5 -122.5h-338q0 -85 43 -135.5t110 -50.5q45 0 84.5 17.5zM227.5 390.5q-21.5 -39.5 -26.5 -109.5h175q-5 63 -26.5 106t-60.5 43q-40 0 -61.5 -39.5z" />
    <glyph glyph-name="Ecaron" unicode="&#x11a;" horiz-adv-x="600" 
d="M290 740l-139 123l20 36l119 -64l119 64l20 -36zM560 509h-40q0 7 -14.5 33t-48 49.5t-88.5 23.5h-133v-232h93q39 0 60 16t21 40h40v-187h-40q0 24 -21 40t-60 16h-93v-233h133q55 0 88.5 23.5t48 49.5t14.5 33h40v-181h-540v40q24 0 40 21t16 60v448q0 39 -16 60
t-40 21v40h540v-181z" />
    <glyph glyph-name="ecaron" unicode="&#x11b;" horiz-adv-x="578" 
d="M289 530l-139 123l20 36l119 -64l119 64l20 -36zM437.5 72.5q39.5 17.5 60.5 59.5l29 -18q-25 -52 -72 -93t-137 -41q-87 0 -150 33t-95.5 88.5t-32.5 121.5q0 80 36 138.5t93.5 88.5t119.5 30q75 0 131.5 -31t87 -85.5t30.5 -122.5h-338q0 -85 43 -135.5t110 -50.5
q45 0 84.5 17.5zM227.5 390.5q-21.5 -39.5 -26.5 -109.5h175q-5 63 -26.5 106t-60.5 43q-40 0 -61.5 -39.5z" />
    <glyph glyph-name="Gcircumflex" unicode="&#x11c;" horiz-adv-x="797" 
d="M271 761l-20 36l139 123l139 -123l-20 -36l-119 64zM757 259q-24 0 -40 -21t-16 -60l1 -178h-40q0 12 -13.5 34t-36.5 34q-80 -87 -222 -87q-107 0 -191.5 48.5t-131.5 130t-47 176.5q0 111 51.5 196.5t136.5 132t182 46.5q63 0 118.5 -15t92.5 -37t50 -40v-183h-40
q0 49 -24.5 90.5t-70.5 65.5t-107 24q-62 0 -114.5 -30.5t-83.5 -88.5t-31 -135q0 -83 35 -148t94.5 -101.5t130.5 -36.5q62 0 114 32v70q0 39 -16 60t-40 21v40h259v-40z" />
    <glyph glyph-name="gcircumflex" unicode="&#x11d;" horiz-adv-x="575" 
d="M451 477q-18 18 -18 43v1q-40 -14 -49 -62q58 -23 92.5 -67t34.5 -106t-34.5 -106t-89.5 -66.5t-117 -22.5q-74 0 -136 32q-5 -10 -5 -21q0 -18 14 -27t41 -13q26 -4 101 -6q79 -2 126 -8q61 -9 93 -44t32 -84q0 -73 -70.5 -106.5t-190.5 -33.5q-121 0 -188 34t-67 96
q0 43 50 70q-25 15 -37.5 36.5t-12.5 42.5q0 31 20 55t50 39q-60 52 -60 133q0 62 34.5 105.5t89.5 66t116 22.5q32 0 60 -6q12 38 42 65l-102 55l-119 -64l-20 36l139 123l139 -123l-1 -2q34 17 77 17q31 0 50.5 -18t19.5 -43t-18 -43t-43 -18t-43 18zM329.5 187.5
q21.5 37.5 21.5 98.5t-21.5 98t-59.5 37t-59 -37t-21 -98t21 -98.5t59 -37.5t59.5 37.5zM413.5 -67.5q-18.5 12.5 -49.5 14.5q-26 2 -51.5 3t-49.5 2q-70 2 -117 6q-21 -16 -21 -41q0 -42 41 -59.5t129 -17.5q68 0 102.5 17t34.5 44q0 19 -18.5 31.5z" />
    <glyph glyph-name="Gbreve" unicode="&#x11e;" horiz-adv-x="797" 
d="M306 780q-37 19 -54 54l55 39q7 -19 31.5 -32.5t51.5 -13.5t51 13.5t31 32.5l55 -39q-17 -35 -53.5 -54t-83.5 -19t-84 19zM757 259q-24 0 -40 -21t-16 -60l1 -178h-40q0 12 -13.5 34t-36.5 34q-80 -87 -222 -87q-107 0 -191.5 48.5t-131.5 130t-47 176.5
q0 111 51.5 196.5t136.5 132t182 46.5q63 0 118.5 -15t92.5 -37t50 -40v-183h-40q0 49 -24.5 90.5t-70.5 65.5t-107 24q-62 0 -114.5 -30.5t-83.5 -88.5t-31 -135q0 -83 35 -148t94.5 -101.5t130.5 -36.5q62 0 114 32v70q0 39 -16 60t-40 21v40h259v-40z" />
    <glyph glyph-name="gbreve" unicode="&#x11f;" horiz-adv-x="575" 
d="M186 549q-37 19 -54 54l55 39q7 -19 31.5 -32.5t51.5 -13.5t51 13.5t31 32.5l55 -39q-17 -35 -53.5 -54t-83.5 -19t-84 19zM451 477q-18 18 -18 43v1q-40 -14 -49 -62q58 -23 92.5 -67t34.5 -106t-34.5 -106t-89.5 -66.5t-117 -22.5q-74 0 -136 32q-5 -10 -5 -21
q0 -18 14 -27t41 -13q26 -4 101 -6q79 -2 126 -8q61 -9 93 -44t32 -84q0 -73 -70.5 -106.5t-190.5 -33.5q-121 0 -188 34t-67 96q0 43 50 70q-25 15 -37.5 36.5t-12.5 42.5q0 31 20 55t50 39q-60 52 -60 133q0 62 34.5 105.5t89.5 66t116 22.5q32 0 60 -6q15 48 57 77.5
t98 29.5q31 0 50.5 -18t19.5 -43t-18 -43t-43 -18t-43 18zM329.5 187.5q21.5 37.5 21.5 98.5t-21.5 98t-59.5 37t-59 -37t-21 -98t21 -98.5t59 -37.5t59.5 37.5zM413.5 -67.5q-18.5 12.5 -49.5 14.5q-26 2 -51.5 3t-49.5 2q-70 2 -117 6q-21 -16 -21 -41q0 -42 41 -59.5
t129 -17.5q68 0 102.5 17t34.5 44q0 19 -18.5 31.5z" />
    <glyph glyph-name="Hcircumflex" unicode="&#x124;" horiz-adv-x="772" 
d="M271 740l-20 36l139 123l139 -123l-20 -36l-119 64zM712 629q-16 -21 -16 -60v-448q0 -39 16 -60t40 -21v-40h-272v40q24 0 40 21t16 60v187h-300v-187q0 -39 16 -60t40 -21v-40h-272v40q24 0 40 21t16 60v448q0 39 -16 60t-40 21v40h272v-40q-24 0 -40 -21t-16 -60v-186
h300v186q0 39 -16 60t-40 21v40h272v-40q-24 0 -40 -21z" />
    <glyph glyph-name="hcircumflex" unicode="&#x125;" horiz-adv-x="684" 
d="M126 804l-119 -64l-20 36l139 123l139 -123l-20 -36zM624 61q16 -21 40 -21v-40h-272v40q24 0 40 21t16 60v119q0 69 -30 101.5t-75 32.5q-54 0 -79.5 -45t-27.5 -118v-90q0 -39 16 -60t40 -21v-40h-272v40q24 0 40 21t16 60v448q0 39 -16 60t-40 21v40h216v-327
q16 52 62.5 84.5t113.5 32.5q95 0 145.5 -61t50.5 -180v-118q0 -39 16 -60z" />
    <glyph glyph-name="Itilde" unicode="&#x128;" 
d="M174.5 751q-13.5 4 -32.5 13q-15 7 -25.5 10.5t-22.5 3.5q-19 0 -32 -9.5t-13 -28.5h-30q0 52 24 84.5t65 32.5q16 0 29.5 -4t32.5 -13q15 -7 25.5 -10.5t22.5 -3.5q19 0 32 10t13 28h30q0 -52 -24 -84.5t-65 -32.5q-16 0 -29.5 4zM60 629q-16 21 -40 21v40h272v-40
q-24 0 -40 -21t-16 -60v-448q0 -39 16 -60t40 -21v-40h-272v40q24 0 40 21t16 60v448q0 39 -16 60z" />
    <glyph glyph-name="itilde" unicode="&#x129;" 
d="M145.5 531q-13.5 4 -32.5 13q-15 7 -25.5 10.5t-22.5 3.5q-19 0 -32 -9.5t-13 -28.5h-30q0 52 24 84.5t65 32.5q16 0 29.5 -4t32.5 -13q15 -7 25.5 -10.5t22.5 -3.5q19 0 32 10t13 28h30q0 -52 -24 -84.5t-65 -32.5q-16 0 -29.5 4zM60 399q-16 21 -40 21v40h216v-339
q0 -39 16 -60t40 -21v-40h-272v40q24 0 40 21t16 60v218q0 39 -16 60z" />
    <glyph glyph-name="Imacron" unicode="&#x12a;" 
d="M296 835v-75h-280v75h280zM60 629q-16 21 -40 21v40h272v-40q-24 0 -40 -21t-16 -60v-448q0 -39 16 -60t40 -21v-40h-272v40q24 0 40 21t16 60v448q0 39 -16 60z" />
    <glyph glyph-name="imacron" unicode="&#x12b;" 
d="M267 615v-75h-280v75h280zM60 399q-16 21 -40 21v40h216v-339q0 -39 16 -60t40 -21v-40h-272v40q24 0 40 21t16 60v218q0 39 -16 60z" />
    <glyph glyph-name="Ibreve" unicode="&#x12c;" 
d="M73 852q7 -19 31.5 -32.5t51.5 -13.5t51 13.5t31 32.5l55 -39q-17 -35 -53.5 -54t-83.5 -19t-84 19t-54 54zM60 629q-16 21 -40 21v40h272v-40q-24 0 -40 -21t-16 -60v-448q0 -39 16 -60t40 -21v-40h-272v40q24 0 40 21t16 60v448q0 39 -16 60z" />
    <glyph glyph-name="ibreve" unicode="&#x12d;" 
d="M44 632q7 -19 31.5 -32.5t51.5 -13.5t51 13.5t31 32.5l55 -39q-17 -35 -53.5 -54t-83.5 -19t-84 19t-54 54zM60 399q-16 21 -40 21v40h216v-339q0 -39 16 -60t40 -21v-40h-272v40q24 0 40 21t16 60v218q0 39 -16 60z" />
    <glyph glyph-name="Iogonek" unicode="&#x12e;" 
d="M300 -128q-16 -26 -44 -45.5t-72 -19.5q-54 0 -86.5 28.5t-32.5 73.5q0 26 14 50t35 41h-94v40q24 0 40 21t16 60v448q0 39 -16 60t-40 21v40h272v-40q-24 0 -40 -21t-16 -60v-448q0 -39 16 -60t40 -21v-40h-113q-39 -34 -39 -81q0 -25 15 -43.5t42 -18.5q35 0 62 36z
" />
    <glyph glyph-name="iogonek" unicode="&#x12f;" 
d="M66 555q-25 25 -25 61q0 35 25 59.5t61 24.5q35 0 59.5 -24.5t24.5 -59.5q0 -36 -24.5 -61t-59.5 -25q-36 0 -61 25zM293 -128q-16 -26 -44 -45.5t-72 -19.5q-54 0 -86.5 28.5t-32.5 73.5q0 26 14 50t35 41h-87v40q24 0 40 21t16 60v218q0 39 -16 60t-40 21v40h216v-339
q0 -39 16 -60t40 -21v-40h-120q-39 -34 -39 -81q0 -25 15 -43.5t42 -18.5q35 0 62 36z" />
    <glyph glyph-name="Idotaccent" unicode="&#x130;" 
d="M95 775q-25 25 -25 61q0 35 25 59.5t61 24.5q35 0 59.5 -24.5t24.5 -59.5q0 -36 -24.5 -61t-59.5 -25q-36 0 -61 25zM60 629q-16 21 -40 21v40h272v-40q-24 0 -40 -21t-16 -60v-448q0 -39 16 -60t40 -21v-40h-272v40q24 0 40 21t16 60v448q0 39 -16 60z" />
    <glyph glyph-name="dotlessi" unicode="&#x131;" 
d="M60 399q-16 21 -40 21v40h216v-339q0 -39 16 -60t40 -21v-40h-272v40q24 0 40 21t16 60v218q0 39 -16 60z" />
    <glyph glyph-name="Jcircumflex" unicode="&#x134;" horiz-adv-x="436" 
d="M280 899l139 -123l-20 -36l-119 64l-119 -64l-20 36zM184 629q-16 21 -40 21v40h272v-40q-24 0 -40 -21t-16 -60v-379q0 -106 -50.5 -158t-139.5 -52q-60 0 -98.5 31t-51.5 89l40 10q9 -37 26 -53.5t44 -16.5q35 0 52.5 23.5t17.5 76.5v429q0 39 -16 60z" />
    <glyph glyph-name="jcircumflex" unicode="&#x135;" horiz-adv-x="317" 
d="M288 556l-20 -36l-119 64l-119 -64l-20 36l139 123zM257 460v-608q0 -78 -40.5 -110t-95.5 -32q-40 0 -70.5 28t-30.5 68q0 38 28 66t68 28q39 0 66.5 -28t27.5 -66q0 -14 -3 -24l10 -4q9 18 9 38q0 51 -33.5 82.5t-95.5 31.5v409q0 39 -16 60t-40 21v40h216z" />
    <glyph glyph-name="Lacute" unicode="&#x139;" horiz-adv-x="600" 
d="M273 864q-24 -19 -76 -42q-40 -17 -68.5 -33t-51.5 -39l-26 27q21 21 35 44.5t36 66.5q26 53 46 77.5t54 24.5q30 0 52.5 -22.5t22.5 -50.5q0 -34 -24 -53zM560 181v-181h-540v40q24 0 40 21t16 60v448q0 39 -16 60t-40 21v40h272v-40q-24 0 -40 -21t-16 -60v-494h133
q55 0 88.5 23.5t48 49.5t14.5 33h40z" />
    <glyph glyph-name="lacute" unicode="&#x13a;" 
d="M44 777q21 21 35 44.5t36 66.5q26 53 46 77.5t54 24.5q30 0 52.5 -22.5t22.5 -50.5q0 -34 -24 -53t-76 -42q-40 -17 -68.5 -33t-51.5 -39zM60 629q-16 21 -40 21v40h216v-569q0 -39 16 -60t40 -21v-40h-272v40q24 0 40 21t16 60v448q0 39 -16 60z" />
    <glyph glyph-name="Lcaron" unicode="&#x13d;" horiz-adv-x="600" 
d="M156 740l-139 123l20 36l119 -64l119 64l20 -36zM560 181v-181h-540v40q24 0 40 21t16 60v448q0 39 -16 60t-40 21v40h272v-40q-24 0 -40 -21t-16 -60v-494h133q55 0 88.5 23.5t48 49.5t14.5 33h40z" />
    <glyph glyph-name="lcaron" unicode="&#x13e;" horiz-adv-x="496" 
d="M60 629q-16 21 -40 21v40h216v-569q0 -39 16 -60t40 -21v-40h-272v40q24 0 40 21t16 60v448q0 39 -16 60zM304 528q-28 28 -28 68q0 38 28 66t68 28q26 0 50 -14t39 -40t15 -60q0 -30 -15 -72t-52.5 -91t-99.5 -93l-17 24q46 49 64.5 89.5t15.5 66.5q-40 0 -68 28z" />
    <glyph glyph-name="Nacute" unicode="&#x143;" horiz-adv-x="756" 
d="M477 864q-24 -19 -76 -42q-40 -17 -68.5 -33t-51.5 -39l-26 27q21 21 35 44.5t36 66.5q26 53 46 77.5t54 24.5q30 0 52.5 -22.5t22.5 -50.5q0 -34 -24 -53zM736 650q-24 0 -40 -21t-16 -60v-569h-75l-454 445v-324q0 -39 16 -60t40 -21v-40h-187v40q24 0 40 21t16 60v448
q0 39 -16 60t-40 21v40h131l454 -445v324q0 39 -16 60t-40 21v40h187v-40z" />
    <glyph glyph-name="nacute" unicode="&#x144;" horiz-adv-x="684" 
d="M529 654q-24 -19 -76 -42q-40 -17 -68.5 -33t-51.5 -39l-26 27q21 21 35 44.5t36 66.5q26 53 46 77.5t54 24.5q30 0 52.5 -22.5t22.5 -50.5q0 -34 -24 -53zM624 61q16 -21 40 -21v-40h-272v40q24 0 40 21t16 60v119q0 69 -30 101.5t-75 32.5q-54 0 -79.5 -45t-27.5 -118
v-90q0 -39 16 -60t40 -21v-40h-272v40q24 0 40 21t16 60v218q0 39 -16 60t-40 21v40h216v-97q16 52 62.5 84.5t113.5 32.5q95 0 145.5 -61t50.5 -180v-118q0 -39 16 -60z" />
    <glyph glyph-name="Ncaron" unicode="&#x147;" horiz-adv-x="756" 
d="M360 740l-139 123l20 36l119 -64l119 64l20 -36zM736 650q-24 0 -40 -21t-16 -60v-569h-75l-454 445v-324q0 -39 16 -60t40 -21v-40h-187v40q24 0 40 21t16 60v448q0 39 -16 60t-40 21v40h131l454 -445v324q0 39 -16 60t-40 21v40h187v-40z" />
    <glyph glyph-name="ncaron" unicode="&#x148;" horiz-adv-x="684" 
d="M412 530l-139 123l20 36l119 -64l119 64l20 -36zM624 61q16 -21 40 -21v-40h-272v40q24 0 40 21t16 60v119q0 69 -30 101.5t-75 32.5q-54 0 -79.5 -45t-27.5 -118v-90q0 -39 16 -60t40 -21v-40h-272v40q24 0 40 21t16 60v218q0 39 -16 60t-40 21v40h216v-97
q16 52 62.5 84.5t113.5 32.5q95 0 145.5 -61t50.5 -180v-118q0 -39 16 -60z" />
    <glyph glyph-name="Omacron" unicode="&#x14c;" horiz-adv-x="800" 
d="M530 856v-75h-280v75h280zM70 536q50 83 135 129t185 46t185 -46t135 -129t50 -190t-50 -190t-135 -129t-185 -46t-185 46t-135 129t-50 190t50 190zM207 192q27 -66 74.5 -101t107.5 -35t108 35.5t75.5 101t27.5 153.5t-27.5 153.5t-75.5 101t-108 35.5
q-61 0 -108.5 -35t-74 -101t-26.5 -154t27 -154z" />
    <glyph glyph-name="omacron" unicode="&#x14d;" horiz-adv-x="622" 
d="M451 625v-75h-280v75h280zM76 356.5q36 57.5 98 90.5t137 33t137 -33t98 -90.5t36 -126.5t-36 -126.5t-98 -90.5t-137 -33t-137 33t-98 90.5t-36 126.5t36 126.5zM224.5 101.5q34.5 -46.5 86.5 -46.5t86.5 46.5t34.5 128.5t-34.5 128.5t-86.5 46.5t-86.5 -46.5
t-34.5 -128.5t34.5 -128.5z" />
    <glyph glyph-name="Obreve" unicode="&#x14e;" horiz-adv-x="800" 
d="M307 873q7 -19 31.5 -32.5t51.5 -13.5t51 13.5t31 32.5l55 -39q-17 -35 -53.5 -54t-83.5 -19t-84 19t-54 54zM70 536q50 83 135 129t185 46t185 -46t135 -129t50 -190t-50 -190t-135 -129t-185 -46t-185 46t-135 129t-50 190t50 190zM207 192q27 -66 74.5 -101t107.5 -35
t108 35.5t75.5 101t27.5 153.5t-27.5 153.5t-75.5 101t-108 35.5q-61 0 -108.5 -35t-74 -101t-26.5 -154t27 -154z" />
    <glyph glyph-name="obreve" unicode="&#x14f;" horiz-adv-x="622" 
d="M228 642q7 -19 31.5 -32.5t51.5 -13.5t51 13.5t31 32.5l55 -39q-17 -35 -53.5 -54t-83.5 -19t-84 19t-54 54zM76 356.5q36 57.5 98 90.5t137 33t137 -33t98 -90.5t36 -126.5t-36 -126.5t-98 -90.5t-137 -33t-137 33t-98 90.5t-36 126.5t36 126.5zM224.5 101.5
q34.5 -46.5 86.5 -46.5t86.5 46.5t34.5 128.5t-34.5 128.5t-86.5 46.5t-86.5 -46.5t-34.5 -128.5t34.5 -128.5z" />
    <glyph glyph-name="Ohungarumlaut" unicode="&#x150;" horiz-adv-x="800" 
d="M283 769q15 27 23.5 56t16.5 70q10 57 23.5 86t46.5 38q6 2 19 2q30 0 52.5 -21.5t22.5 -49.5q0 -26 -19 -48t-57 -52q-37 -31 -58.5 -51.5t-37.5 -48.5zM496 769q15 27 23.5 56t16.5 70q10 57 23.5 86t46.5 38q6 2 19 2q30 0 52.5 -21t22.5 -49q0 -26 -18 -47t-58 -53
q-35 -29 -57 -51t-39 -50zM70 536q50 83 135 129t185 46t185 -46t135 -129t50 -190t-50 -190t-135 -129t-185 -46t-185 46t-135 129t-50 190t50 190zM207 192q27 -66 74.5 -101t107.5 -35t108 35.5t75.5 101t27.5 153.5t-27.5 153.5t-75.5 101t-108 35.5q-61 0 -108.5 -35
t-74 -101t-26.5 -154t27 -154z" />
    <glyph glyph-name="ohungarumlaut" unicode="&#x151;" horiz-adv-x="622" 
d="M204 538q15 27 23.5 56t16.5 70q10 57 23.5 86t46.5 38q6 2 19 2q30 0 52.5 -21.5t22.5 -49.5q0 -26 -19 -48t-57 -52q-37 -31 -58.5 -51.5t-37.5 -48.5zM417 538q15 27 23.5 56t16.5 70q10 57 23.5 86t46.5 38q6 2 19 2q30 0 52.5 -21t22.5 -49q0 -26 -18 -47t-58 -53
q-35 -29 -57 -51t-39 -50zM76 356.5q36 57.5 98 90.5t137 33t137 -33t98 -90.5t36 -126.5t-36 -126.5t-98 -90.5t-137 -33t-137 33t-98 90.5t-36 126.5t36 126.5zM224.5 101.5q34.5 -46.5 86.5 -46.5t86.5 46.5t34.5 128.5t-34.5 128.5t-86.5 46.5t-86.5 -46.5t-34.5 -128.5
t34.5 -128.5z" />
    <glyph glyph-name="OE" unicode="&#x152;" horiz-adv-x="943" 
d="M903 509h-40q0 7 -14.5 33t-48 49.5t-88.5 23.5h-133v-232h93q39 0 60 16t21 40h40v-187h-40q0 24 -21 40t-60 16h-93v-233h133q55 0 88.5 23.5t48 49.5t14.5 33h40v-181h-524q-95 0 -177.5 43.5t-132 122t-49.5 179.5t49.5 179.5t132 122t177.5 43.5h524v-181zM419 615
h-40q-58 -2 -103 -34t-70.5 -92.5t-25.5 -143.5t26 -144t71 -93.5t102 -32.5h40v540z" />
    <glyph glyph-name="oe" unicode="&#x153;" horiz-adv-x="1000" 
d="M910 132l29 -18q-17 -35 -36 -62t-59.5 -49.5t-103.5 -22.5q-73 0 -128.5 23.5t-92.5 64.5q-37 -41 -91 -64.5t-117 -23.5q-75 0 -137 33t-98 90.5t-36 126.5t36 126.5t98 90.5t137 33q63 0 117.5 -23.5t91.5 -64.5q36 43 86.5 65.5t104.5 22.5q75 0 131.5 -31t87 -85.5
t30.5 -122.5h-338q0 -85 43 -135.5t110 -50.5q97 0 135 77zM649.5 390.5q-21.5 -39.5 -26.5 -109.5h175q-5 63 -26.5 106t-60.5 43q-40 0 -61.5 -39.5zM397.5 101.5q34.5 46.5 34.5 128.5t-34.5 128.5t-86.5 46.5t-86.5 -46.5t-34.5 -128.5t34.5 -128.5t86.5 -46.5
t86.5 46.5z" />
    <glyph glyph-name="Racute" unicode="&#x154;" horiz-adv-x="740" 
d="M407 864q-24 -19 -76 -42q-40 -17 -68.5 -33t-51.5 -39l-26 27q21 21 35 44.5t36 66.5q26 53 46 77.5t54 24.5q30 0 52.5 -22.5t22.5 -50.5q0 -34 -24 -53zM654.5 55.5q36.5 -15.5 65.5 -15.5v-40h-303v40q19 0 19 10q0 6 -8 20t-20 32l-95 150h-77v-131q0 -39 16 -60
t40 -21v-40h-272v40q24 0 40 21t16 60v448q0 39 -16 60t-40 21v40h344q72 0 132.5 -25.5t96.5 -75t36 -118.5t-36 -118.5t-96.5 -75t-132.5 -25.5q37 -18 70 -24t87 -6l77 -120q20 -31 56.5 -46.5zM334 327q53 0 94 35t41 109t-41 109t-94 35h-98v-288h98z" />
    <glyph glyph-name="racute" unicode="&#x155;" horiz-adv-x="526" 
d="M354 634q-24 -19 -76 -42q-40 -17 -68.5 -33t-51.5 -39l-26 27q21 21 35 44.5t36 66.5q26 53 46 77.5t54 24.5q30 0 52.5 -22.5t22.5 -50.5q0 -34 -24 -53zM474.5 454q31.5 -26 31.5 -68q0 -40 -28 -68t-66 -28q-34 0 -60.5 21.5t-33.5 54.5q-3 13 -3 27q0 7 2 19l-9 3
l-2 -4q-9 -18 -10 -53q-57 -33 -60 -147v-90q0 -39 16 -60t40 -21v-40h-272v40q24 0 40 21t16 60v218q0 39 -16 60t-40 21v40h216v-97q15 51 60.5 84t105.5 33q41 0 72.5 -26z" />
    <glyph glyph-name="Rcaron" unicode="&#x158;" horiz-adv-x="740" 
d="M290 740l-139 123l20 36l119 -64l119 64l20 -36zM654.5 55.5q36.5 -15.5 65.5 -15.5v-40h-303v40q19 0 19 10q0 6 -8 20t-20 32l-95 150h-77v-131q0 -39 16 -60t40 -21v-40h-272v40q24 0 40 21t16 60v448q0 39 -16 60t-40 21v40h344q72 0 132.5 -25.5t96.5 -75t36 -118.5
t-36 -118.5t-96.5 -75t-132.5 -25.5q37 -18 70 -24t87 -6l77 -120q20 -31 56.5 -46.5zM334 327q53 0 94 35t41 109t-41 109t-94 35h-98v-288h98z" />
    <glyph glyph-name="rcaron" unicode="&#x159;" horiz-adv-x="526" 
d="M237 510l-139 123l20 36l119 -64l119 64l20 -36zM474.5 454q31.5 -26 31.5 -68q0 -40 -28 -68t-66 -28q-34 0 -60.5 21.5t-33.5 54.5q-3 13 -3 27q0 7 2 19l-9 3l-2 -4q-9 -18 -10 -53q-57 -33 -60 -147v-90q0 -39 16 -60t40 -21v-40h-272v40q24 0 40 21t16 60v218
q0 39 -16 60t-40 21v40h216v-97q15 51 60.5 84t105.5 33q41 0 72.5 -26z" />
    <glyph glyph-name="Sacute" unicode="&#x15a;" horiz-adv-x="613" 
d="M183 797q21 21 35 44.5t36 66.5q26 53 46 77.5t54 24.5q30 0 52.5 -22.5t22.5 -50.5q0 -34 -24 -53t-76 -42q-40 -17 -68.5 -33t-51.5 -39zM132.5 5.5q-69.5 25.5 -111.5 62.5v175h40q0 -56 28 -101.5t77.5 -71t111.5 -25.5q76 0 121.5 29t45.5 76q0 35 -29 54.5
t-59.5 31t-38.5 14.5l-163 68q-38 17 -66 37t-48.5 55t-20.5 88q0 66 37 114t98 73t133 25q54 0 96 -10t95 -28l34 -12v-150h-40q0 34 -24.5 65.5t-63 50.5t-77.5 19q-54 0 -91 -28.5t-37 -74.5q0 -31 13 -50t27 -27t41 -20l158 -61q81 -31 117.5 -79.5t36.5 -116.5
q0 -60 -35.5 -107t-100.5 -74t-149 -27q-86 0 -155.5 25.5z" />
    <glyph glyph-name="sacute" unicode="&#x15b;" horiz-adv-x="458" 
d="M111 567q21 21 35 44.5t36 66.5q26 53 46 77.5t54 24.5q30 0 52.5 -22.5t22.5 -50.5q0 -34 -24 -53t-76 -42q-40 -17 -68.5 -33t-51.5 -39zM45 412q25 32 70 50t101 18q76 0 166 -46v-120h-40q0 23 -17 46.5t-43.5 39t-53.5 15.5q-29 0 -52.5 -14.5t-23.5 -39.5
q0 -23 12.5 -33t36.5 -21l108 -41q58 -22 83.5 -53t25.5 -81q0 -72 -57.5 -112t-143.5 -40q-70 0 -123.5 22t-73.5 49v134h40q0 -39 22 -68.5t57 -45.5t73 -16q96 0 96 51q0 18 -16.5 29t-36.5 19.5t-28 11.5l-111 47q-43 19 -69.5 45.5t-26.5 81.5q0 40 25 72z" />
    <glyph glyph-name="Scircumflex" unicode="&#x15c;" horiz-adv-x="613" 
d="M288 919l139 -123l-20 -36l-119 64l-119 -64l-20 36zM132.5 5.5q-69.5 25.5 -111.5 62.5v175h40q0 -56 28 -101.5t77.5 -71t111.5 -25.5q76 0 121.5 29t45.5 76q0 35 -29 54.5t-59.5 31t-38.5 14.5l-163 68q-38 17 -66 37t-48.5 55t-20.5 88q0 66 37 114t98 73t133 25
q54 0 96 -10t95 -28l34 -12v-150h-40q0 34 -24.5 65.5t-63 50.5t-77.5 19q-54 0 -91 -28.5t-37 -74.5q0 -31 13 -50t27 -27t41 -20l158 -61q81 -31 117.5 -79.5t36.5 -116.5q0 -60 -35.5 -107t-100.5 -74t-149 -27q-86 0 -155.5 25.5z" />
    <glyph glyph-name="scircumflex" unicode="&#x15d;" horiz-adv-x="458" 
d="M216 689l139 -123l-20 -36l-119 64l-119 -64l-20 36zM45 412q25 32 70 50t101 18q76 0 166 -46v-120h-40q0 23 -17 46.5t-43.5 39t-53.5 15.5q-29 0 -52.5 -14.5t-23.5 -39.5q0 -23 12.5 -33t36.5 -21l108 -41q58 -22 83.5 -53t25.5 -81q0 -72 -57.5 -112t-143.5 -40
q-70 0 -123.5 22t-73.5 49v134h40q0 -39 22 -68.5t57 -45.5t73 -16q96 0 96 51q0 18 -16.5 29t-36.5 19.5t-28 11.5l-111 47q-43 19 -69.5 45.5t-26.5 81.5q0 40 25 72z" />
    <glyph glyph-name="Scedilla" unicode="&#x15e;" horiz-adv-x="613" 
d="M541.5 86.5q-31.5 -45.5 -90 -73.5t-134.5 -32l-30 -37q21 18 56 18q38 0 67.5 -21.5t29.5 -60.5q0 -30 -20 -51t-48.5 -31.5t-52.5 -10.5q-42 0 -69.5 13.5t-56.5 44.5l26 22q21 -19 39 -30t42 -11q27 0 46 11.5t19 33.5q0 21 -17 35.5t-37 14.5q-16 0 -30.5 -4.5
t-32.5 -20.5l-33 26l45 59q-78 4 -140 29t-99 58v175h40q0 -56 28 -101.5t77.5 -71t111.5 -25.5q76 0 121.5 29t45.5 76q0 35 -29 54.5t-59.5 31t-38.5 14.5l-163 68q-38 17 -66 37t-48.5 55t-20.5 88q0 66 37 114t98 73t133 25q54 0 96 -10t95 -28l34 -12v-150h-40
q0 34 -24.5 65.5t-63 50.5t-77.5 19q-54 0 -91 -28.5t-37 -74.5q0 -31 13 -50t27 -27t41 -20l158 -61q81 -31 117.5 -79.5t36.5 -116.5q0 -56 -31.5 -101.5z" />
    <glyph glyph-name="scedilla" unicode="&#x15f;" horiz-adv-x="458" 
d="M370 27.5q-48 -39.5 -124 -46.5l-30 -37q21 18 56 18q38 0 67.5 -21.5t29.5 -60.5q0 -30 -20 -51t-48.5 -31.5t-52.5 -10.5q-42 0 -69.5 13.5t-56.5 44.5l26 22q21 -19 39 -30t42 -11q27 0 46 11.5t19 33.5q0 21 -17 35.5t-37 14.5q-16 0 -30.5 -4.5t-32.5 -20.5l-33 26
l45 59q-60 4 -105.5 25t-63.5 45v134h40q0 -39 22 -68.5t57 -45.5t73 -16q96 0 96 51q0 18 -16.5 29t-36.5 19.5t-28 11.5l-111 47q-43 19 -69.5 45.5t-26.5 81.5q0 40 25 72t70 50t101 18q76 0 166 -46v-120h-40q0 23 -17 46.5t-43.5 39t-53.5 15.5q-29 0 -52.5 -14.5
t-23.5 -39.5q0 -23 12.5 -33t36.5 -21l108 -41q58 -22 83.5 -53t25.5 -81q0 -65 -48 -104.5z" />
    <glyph glyph-name="Scaron" unicode="&#x160;" horiz-adv-x="613" 
d="M169 919l119 -64l119 64l20 -36l-139 -123l-139 123zM132.5 5.5q-69.5 25.5 -111.5 62.5v175h40q0 -56 28 -101.5t77.5 -71t111.5 -25.5q76 0 121.5 29t45.5 76q0 35 -29 54.5t-59.5 31t-38.5 14.5l-163 68q-38 17 -66 37t-48.5 55t-20.5 88q0 66 37 114t98 73t133 25
q54 0 96 -10t95 -28l34 -12v-150h-40q0 34 -24.5 65.5t-63 50.5t-77.5 19q-54 0 -91 -28.5t-37 -74.5q0 -31 13 -50t27 -27t41 -20l158 -61q81 -31 117.5 -79.5t36.5 -116.5q0 -60 -35.5 -107t-100.5 -74t-149 -27q-86 0 -155.5 25.5z" />
    <glyph glyph-name="scaron" unicode="&#x161;" horiz-adv-x="458" 
d="M97 689l119 -64l119 64l20 -36l-139 -123l-139 123zM45 412q25 32 70 50t101 18q76 0 166 -46v-120h-40q0 23 -17 46.5t-43.5 39t-53.5 15.5q-29 0 -52.5 -14.5t-23.5 -39.5q0 -23 12.5 -33t36.5 -21l108 -41q58 -22 83.5 -53t25.5 -81q0 -72 -57.5 -112t-143.5 -40
q-70 0 -123.5 22t-73.5 49v134h40q0 -39 22 -68.5t57 -45.5t73 -16q96 0 96 51q0 18 -16.5 29t-36.5 19.5t-28 11.5l-111 47q-43 19 -69.5 45.5t-26.5 81.5q0 40 25 72z" />
    <glyph glyph-name="Tcaron" unicode="&#x164;" horiz-adv-x="700" 
d="M350 740l-139 123l20 36l119 -64l119 64l20 -36zM680 509h-40q0 7 -14.5 33t-48 49.5t-88.5 23.5h-59v-494q0 -39 16 -60t40 -21v-40h-272v40q24 0 40 21t16 60v494h-59q-55 0 -88.5 -23.5t-48 -49.5t-14.5 -33h-40v181h660v-181z" />
    <glyph glyph-name="tcaron" unicode="&#x165;" horiz-adv-x="488" 
d="M296 528q-28 28 -28 68q0 38 28 66t68 28q26 0 50 -14t39 -40t15 -60q0 -30 -15 -72t-52.5 -91t-99.5 -93l-17 24q46 49 64.5 89.5t15.5 66.5q-40 0 -68 28zM313.5 56.5q13.5 16.5 22.5 53.5l40 -10q-13 -59 -48.5 -89.5t-91.5 -30.5q-82 0 -121 42.5t-39 147.5v250h-56
v40q46 0 86.5 19.5t65 53.5t24.5 77h40v-150h56v-40h-56v-280q0 -56 10.5 -78t34.5 -22q19 0 32.5 16.5z" />
    <glyph glyph-name="Utilde" unicode="&#x168;" horiz-adv-x="728" 
d="M405.5 751q-13.5 4 -32.5 13q-15 7 -25.5 10.5t-22.5 3.5q-19 0 -32 -9.5t-13 -28.5h-30q0 52 24 84.5t65 32.5q16 0 29.5 -4t32.5 -13q15 -7 25.5 -10.5t22.5 -3.5q19 0 32 10t13 28h30q0 -52 -24 -84.5t-65 -32.5q-16 0 -29.5 4zM238.5 5q-69.5 25 -116 79.5
t-46.5 138.5v346q0 39 -16 60t-40 21v40h271v-40q-24 0 -40 -21t-16 -60l1 -356q0 -59 28 -94.5t67.5 -49.5t75.5 -14q35 0 74.5 16.5t67.5 52.5t28 92v353q0 39 -16 60t-40 21v40h187v-40q-24 0 -40 -21t-16 -60v-343q0 -75 -34 -131t-96.5 -85.5t-144.5 -29.5
q-69 0 -138.5 25z" />
    <glyph glyph-name="utilde" unicode="&#x169;" horiz-adv-x="684" 
d="M248 538.5q-13 -9.5 -13 -28.5h-30q0 52 24 84.5t65 32.5q16 0 29.5 -4t32.5 -13q15 -7 25.5 -10.5t22.5 -3.5q19 0 32 10t13 28h30q0 -52 -24 -84.5t-65 -32.5q-16 0 -29.5 4t-32.5 13q-15 7 -25.5 10.5t-22.5 3.5q-19 0 -32 -9.5zM624 399q-16 -21 -16 -60v-218
q0 -39 16 -60t40 -21v-40h-216v97q-16 -52 -62.5 -84.5t-113.5 -32.5q-95 0 -145.5 61t-50.5 180v118q0 39 -16 60t-40 21v40h272v-40q-24 0 -40 -21t-16 -60v-119q0 -69 30 -101.5t75 -32.5q54 0 79.5 45t27.5 118v90q0 39 -16 60t-40 21v40h272v-40q-24 0 -40 -21z" />
    <glyph glyph-name="Umacron" unicode="&#x16a;" horiz-adv-x="728" 
d="M527 835v-75h-280v75h280zM238.5 5q-69.5 25 -116 79.5t-46.5 138.5v346q0 39 -16 60t-40 21v40h271v-40q-24 0 -40 -21t-16 -60l1 -356q0 -59 28 -94.5t67.5 -49.5t75.5 -14q35 0 74.5 16.5t67.5 52.5t28 92v353q0 39 -16 60t-40 21v40h187v-40q-24 0 -40 -21t-16 -60
v-343q0 -75 -34 -131t-96.5 -85.5t-144.5 -29.5q-69 0 -138.5 25z" />
    <glyph glyph-name="umacron" unicode="&#x16b;" horiz-adv-x="684" 
d="M482 530h-280v75h280v-75zM624 399q-16 -21 -16 -60v-218q0 -39 16 -60t40 -21v-40h-216v97q-16 -52 -62.5 -84.5t-113.5 -32.5q-95 0 -145.5 61t-50.5 180v118q0 39 -16 60t-40 21v40h272v-40q-24 0 -40 -21t-16 -60v-119q0 -69 30 -101.5t75 -32.5q54 0 79.5 45
t27.5 118v90q0 39 -16 60t-40 21v40h272v-40q-24 0 -40 -21z" />
    <glyph glyph-name="Ubreve" unicode="&#x16c;" horiz-adv-x="728" 
d="M304 852q7 -19 31.5 -32.5t51.5 -13.5t51 13.5t31 32.5l55 -39q-17 -35 -53.5 -54t-83.5 -19t-84 19t-54 54zM238.5 5q-69.5 25 -116 79.5t-46.5 138.5v346q0 39 -16 60t-40 21v40h271v-40q-24 0 -40 -21t-16 -60l1 -356q0 -59 28 -94.5t67.5 -49.5t75.5 -14
q35 0 74.5 16.5t67.5 52.5t28 92v353q0 39 -16 60t-40 21v40h187v-40q-24 0 -40 -21t-16 -60v-343q0 -75 -34 -131t-96.5 -85.5t-144.5 -29.5q-69 0 -138.5 25z" />
    <glyph glyph-name="ubreve" unicode="&#x16d;" horiz-adv-x="684" 
d="M258 529q-37 19 -54 54l55 39q7 -19 31.5 -32.5t51.5 -13.5t51 13.5t31 32.5l55 -39q-17 -35 -53.5 -54t-83.5 -19t-84 19zM624 399q-16 -21 -16 -60v-218q0 -39 16 -60t40 -21v-40h-216v97q-16 -52 -62.5 -84.5t-113.5 -32.5q-95 0 -145.5 61t-50.5 180v118q0 39 -16 60
t-40 21v40h272v-40q-24 0 -40 -21t-16 -60v-119q0 -69 30 -101.5t75 -32.5q54 0 79.5 45t27.5 118v90q0 39 -16 60t-40 21v40h272v-40q-24 0 -40 -21z" />
    <glyph glyph-name="Uring" unicode="&#x16e;" horiz-adv-x="728" 
d="M316 911q29 29 71 29t71 -29t29 -71t-29 -71t-71 -29t-71 29t-29 71t29 71zM352 805q15 -15 35 -15t35 15t15 35t-15 35t-35 15t-35 -15t-15 -35t15 -35zM238.5 5q-69.5 25 -116 79.5t-46.5 138.5v346q0 39 -16 60t-40 21v40h271v-40q-24 0 -40 -21t-16 -60l1 -356
q0 -59 28 -94.5t67.5 -49.5t75.5 -14q35 0 74.5 16.5t67.5 52.5t28 92v353q0 39 -16 60t-40 21v40h187v-40q-24 0 -40 -21t-16 -60v-343q0 -75 -34 -131t-96.5 -85.5t-144.5 -29.5q-69 0 -138.5 25z" />
    <glyph glyph-name="uring" unicode="&#x16f;" horiz-adv-x="684" 
d="M271 539q-29 29 -29 71t29 71t71 29t71 -29t29 -71t-29 -71t-71 -29t-71 29zM307 645q-15 -15 -15 -35t15 -35t35 -15t35 15t15 35t-15 35t-35 15t-35 -15zM624 399q-16 -21 -16 -60v-218q0 -39 16 -60t40 -21v-40h-216v97q-16 -52 -62.5 -84.5t-113.5 -32.5
q-95 0 -145.5 61t-50.5 180v118q0 39 -16 60t-40 21v40h272v-40q-24 0 -40 -21t-16 -60v-119q0 -69 30 -101.5t75 -32.5q54 0 79.5 45t27.5 118v90q0 39 -16 60t-40 21v40h272v-40q-24 0 -40 -21z" />
    <glyph glyph-name="Uhungarumlaut" unicode="&#x170;" horiz-adv-x="728" 
d="M280 748q15 27 23.5 56t16.5 70q10 57 23.5 86t46.5 38q6 2 19 2q30 0 52.5 -21.5t22.5 -49.5q0 -26 -19 -48t-57 -52q-37 -31 -58.5 -51.5t-37.5 -48.5zM493 748q15 27 23.5 56t16.5 70q10 57 23.5 86t46.5 38q6 2 19 2q30 0 52.5 -21t22.5 -49q0 -26 -18 -47t-58 -53
q-35 -29 -57 -51t-39 -50zM238.5 5q-69.5 25 -116 79.5t-46.5 138.5v346q0 39 -16 60t-40 21v40h271v-40q-24 0 -40 -21t-16 -60l1 -356q0 -59 28 -94.5t67.5 -49.5t75.5 -14q35 0 74.5 16.5t67.5 52.5t28 92v353q0 39 -16 60t-40 21v40h187v-40q-24 0 -40 -21t-16 -60v-343
q0 -75 -34 -131t-96.5 -85.5t-144.5 -29.5q-69 0 -138.5 25z" />
    <glyph glyph-name="uhungarumlaut" unicode="&#x171;" horiz-adv-x="684" 
d="M420 651q-19 -22 -57 -52q-37 -31 -58.5 -51.5t-37.5 -48.5l-32 19q15 27 23.5 56t16.5 70q10 57 23.5 86t46.5 38q9 3 19 3q30 0 52.5 -21.5t22.5 -50.5q0 -26 -19 -48zM634 653q-18 -21 -58 -53q-35 -29 -57 -51t-39 -50l-32 19q15 27 23.5 56t16.5 70q10 57 23.5 86
t46.5 38q6 2 18 2q30 0 53 -21t23 -49q0 -26 -18 -47zM624 399q-16 -21 -16 -60v-218q0 -39 16 -60t40 -21v-40h-216v97q-16 -52 -62.5 -84.5t-113.5 -32.5q-95 0 -145.5 61t-50.5 180v118q0 39 -16 60t-40 21v40h272v-40q-24 0 -40 -21t-16 -60v-119q0 -69 30 -101.5
t75 -32.5q54 0 79.5 45t27.5 118v90q0 39 -16 60t-40 21v40h272v-40q-24 0 -40 -21z" />
    <glyph glyph-name="Uogonek" unicode="&#x172;" horiz-adv-x="728" 
d="M708 650q-24 0 -40 -21t-16 -60v-343q0 -108 -68.5 -173.5t-184.5 -71.5l1 -1q-39 -34 -39 -81q0 -25 15 -43.5t42 -18.5q35 0 62 36l41 -21q-16 -26 -44 -45.5t-72 -19.5q-54 0 -86.5 28.5t-32.5 73.5q0 27 15.5 52t36.5 41q-66 7 -125.5 34t-98 79t-38.5 128v346
q0 39 -16 60t-40 21v40h271v-40q-24 0 -40 -21t-16 -60l1 -356q0 -59 28 -94.5t67.5 -49.5t75.5 -14q35 0 74.5 16.5t67.5 52.5t28 92v353q0 39 -16 60t-40 21v40h187v-40z" />
    <glyph glyph-name="uogonek" unicode="&#x173;" horiz-adv-x="684" 
d="M752 -128q-16 -26 -44 -45.5t-72 -19.5q-54 0 -86.5 28.5t-32.5 73.5q0 26 14 50t35 41h-118v97q-16 -52 -62.5 -84.5t-113.5 -32.5q-95 0 -145.5 61t-50.5 180v118q0 39 -16 60t-40 21v40h272v-40q-24 0 -40 -21t-16 -60v-119q0 -69 30 -101.5t75 -32.5q54 0 79.5 45
t27.5 118v90q0 39 -16 60t-40 21v40h272v-40q-24 0 -40 -21t-16 -60v-218q0 -39 16 -60t40 -21v-40h-33q-39 -34 -39 -81q0 -25 15 -43.5t42 -18.5q35 0 62 36z" />
    <glyph glyph-name="Wcircumflex" unicode="&#x174;" horiz-adv-x="1306" 
d="M540 740l-20 36l139 123l139 -123l-20 -36l-119 64zM1286 650q-27 0 -57 -19t-44 -53l-235 -578h-104l-193 475l-193 -475h-104l-235 578q-14 34 -44 53t-57 19v40h285v-40q-25 0 -25 -22q0 -19 13 -51l157 -403l163 400l-2 4q-14 34 -44 53t-57 19v40h286v-40h-8
q-18 -3 -18 -22t13 -51l157 -403l164 404q14 34 14 51q0 21 -25 21v40h193v-40z" />
    <glyph glyph-name="wcircumflex" unicode="&#x175;" horiz-adv-x="1088" 
d="M453 510l-20 36l139 123l139 -123l-20 -36l-119 64zM1068 420q-27 0 -57.5 -19t-44.5 -53l-141 -348h-160l-122 315l-128 -315h-160l-135 347q-14 35 -43.5 54t-56.5 19v40h284v-40q-25 0 -25 -22q0 -19 13 -51l89 -230l94 231q15 37 15 51q-14 10 -30.5 15.5t-29.5 5.5
v40h284v-40q-25 0 -25 -22q0 -19 13 -51l89 -230l94 231q15 38 15 51q0 21 -25 21v40h193v-40z" />
    <glyph glyph-name="Ycircumflex" unicode="&#x176;" horiz-adv-x="792" 
d="M329 740l-20 36l139 123l139 -123l-20 -36l-119 64zM772 650q-29 0 -65 -16t-56 -46l-175 -278v-189q0 -39 16 -60t40 -21v-40h-272v40q24 0 40 21t16 60v189l-175 278q-20 30 -56 46t-65 16v40h351v-40q-2 0 -10.5 -4t-15.5 -14.5t-7 -26.5q0 -29 29 -76l80 -126l78 125
q29 47 29 77q0 16 -7 26.5t-15.5 14.5t-10.5 4v40h251v-40z" />
    <glyph glyph-name="ycircumflex" unicode="&#x177;" horiz-adv-x="683" 
d="M389 669l139 -123l-20 -36l-119 64l-119 -64l-20 36zM139 -261.5q-31 28.5 -31 67.5q0 38 28 66t68 28q35 0 61 -25.5t26 -64.5q0 -13 -3 -26l11 -5q8 21 8 46q0 39 -19 61l26 59l-187 405q-16 34 -48 52t-59 18v40h289v-40q-23 0 -23 -18q0 -15 17 -52l93 -204l84 202
q14 36 14 51q0 21 -24 21v40h193v-40q-27 0 -57.5 -19t-44.5 -53l-54 -131q-89 -217 -133 -322t-53 -122q-17 -31 -47 -47t-65 -16q-39 0 -70 28.5z" />
    <glyph glyph-name="Ydieresis" unicode="&#x178;" horiz-adv-x="792" 
d="M273 775q-25 25 -25 61q0 35 25 59.5t61 24.5q35 0 59.5 -24.5t24.5 -59.5q0 -36 -24.5 -61t-59.5 -25q-36 0 -61 25zM503 775q-25 25 -25 61q0 35 25 59.5t61 24.5q35 0 59.5 -24.5t24.5 -59.5q0 -36 -24.5 -61t-59.5 -25q-36 0 -61 25zM772 650q-29 0 -65 -16t-56 -46
l-175 -278v-189q0 -39 16 -60t40 -21v-40h-272v40q24 0 40 21t16 60v189l-175 278q-20 30 -56 46t-65 16v40h351v-40q-2 0 -10.5 -4t-15.5 -14.5t-7 -26.5q0 -29 29 -76l80 -126l78 125q29 47 29 77q0 16 -7 26.5t-15.5 14.5t-10.5 4v40h251v-40z" />
    <glyph glyph-name="Zdotaccent" unicode="&#x17b;" horiz-adv-x="612" 
d="M229 775q-25 25 -25 61q0 35 25 59.5t61 24.5q35 0 59.5 -24.5t24.5 -59.5q0 -36 -24.5 -61t-59.5 -25q-36 0 -61 25zM572 615l-360 -540h159q55 0 88.5 23.5t48 49.5t14.5 33h40v-181h-542v75l360 540h-159q-55 0 -88.5 -23.5t-48 -49.5t-14.5 -33h-40v181h542v-75z" />
    <glyph glyph-name="zdotaccent" unicode="&#x17c;" horiz-adv-x="475" 
d="M178 545q-25 25 -25 61q0 35 25 59.5t61 24.5q35 0 59.5 -24.5t24.5 -59.5q0 -36 -24.5 -61t-59.5 -25q-36 0 -61 25zM435 131v-131h-402v75l212 310h-104q-39 0 -60 -16t-21 -40h-40v131h409v-75l-212 -310h97q39 0 60 16t21 40h40z" />
    <glyph glyph-name="Zcaron" unicode="&#x17d;" horiz-adv-x="612" 
d="M290 740l-139 123l20 36l119 -64l119 64l20 -36zM572 615l-360 -540h159q55 0 88.5 23.5t48 49.5t14.5 33h40v-181h-542v75l360 540h-159q-55 0 -88.5 -23.5t-48 -49.5t-14.5 -33h-40v181h542v-75z" />
    <glyph glyph-name="zcaron" unicode="&#x17e;" horiz-adv-x="475" 
d="M239 510l-139 123l20 36l119 -64l119 64l20 -36zM435 131v-131h-402v75l212 310h-104q-39 0 -60 -16t-21 -40h-40v131h409v-75l-212 -310h97q39 0 60 16t21 40h40z" />
    <glyph glyph-name="uni0228" unicode="&#x228;" horiz-adv-x="600" 
d="M560 509h-40q0 7 -14.5 33t-48 49.5t-88.5 23.5h-133v-232h93q39 0 60 16t21 40h40v-187h-40q0 24 -21 40t-60 16h-93v-233h133q55 0 88.5 23.5t48 49.5t14.5 33h40v-181h-242l-29 -36q21 18 56 18q38 0 67.5 -21.5t29.5 -60.5q0 -30 -20 -51t-48.5 -31.5t-52.5 -10.5
q-42 0 -69.5 13.5t-56.5 44.5l26 22q21 -19 39 -30t42 -11q27 0 46 11.5t19 33.5q0 21 -17 35.5t-37 14.5q-16 0 -30.5 -4.5t-32.5 -20.5l-33 26l44 58h-241v40q24 0 40 21t16 60v448q0 39 -16 60t-40 21v40h540v-181z" />
    <glyph glyph-name="uni0229" unicode="&#x229;" horiz-adv-x="578" 
d="M437.5 72.5q39.5 17.5 60.5 59.5l29 -18q-23 -48 -63.5 -86.5t-116.5 -46.5l-30 -37q21 18 56 18q38 0 67.5 -21.5t29.5 -60.5q0 -30 -20 -51t-48.5 -31.5t-52.5 -10.5q-42 0 -69.5 13.5t-56.5 44.5l26 22q21 -19 39 -30t42 -11q27 0 46 11.5t19 33.5q0 21 -17 35.5
t-37 14.5q-16 0 -30.5 -4.5t-32.5 -20.5l-33 26l45 59q-78 5 -135 39t-86 87t-29 116q0 80 36 138.5t93.5 88.5t119.5 30q75 0 131.5 -31t87 -85.5t30.5 -122.5h-338q0 -85 43 -135.5t110 -50.5q45 0 84.5 17.5zM227.5 390.5q-21.5 -39.5 -26.5 -109.5h175q-5 63 -26.5 106
t-60.5 43q-40 0 -61.5 -39.5z" />
    <glyph glyph-name="circumflex" unicode="&#x2c6;" horiz-adv-x="318" 
d="M159 899l139 -123l-20 -36l-119 64l-119 -64l-20 36z" />
    <glyph glyph-name="caron" unicode="&#x2c7;" horiz-adv-x="336" 
d="M40 899l119 -64l119 64l20 -36l-139 -123l-139 123z" />
    <glyph glyph-name="breve" unicode="&#x2d8;" horiz-adv-x="315" 
d="M75 852q7 -19 31.5 -32.5t51.5 -13.5t51 13.5t31 32.5l55 -39q-17 -35 -53.5 -54t-83.5 -19t-84 19t-54 54z" />
    <glyph glyph-name="dotaccent" unicode="&#x2d9;" horiz-adv-x="210" 
d="M45 775q-25 25 -25 61q0 35 25 59.5t61 24.5q35 0 59.5 -24.5t24.5 -59.5q0 -36 -24.5 -61t-59.5 -25q-36 0 -61 25z" />
    <glyph glyph-name="ring" unicode="&#x2da;" horiz-adv-x="240" 
d="M49 911q29 29 71 29t71 -29t29 -71t-29 -71t-71 -29t-71 29t-29 71t29 71zM85 805q15 -15 35 -15t35 15t15 35t-15 35t-35 15t-35 -15t-15 -35t15 -35z" />
    <glyph glyph-name="ogonek" unicode="&#x2db;" horiz-adv-x="259" 
d="M81.5 -164.5q-32.5 28.5 -32.5 73.5q0 28 15.5 52.5t36.5 40.5t34 17l28 -19q-39 -34 -39 -81q0 -25 15 -43.5t42 -18.5q35 0 62 36l41 -21q-16 -26 -44 -45.5t-72 -19.5q-54 0 -86.5 28.5z" />
    <glyph glyph-name="tilde" unicode="&#x2dc;" horiz-adv-x="314" 
d="M175.5 751q-13.5 4 -32.5 13q-15 7 -25.5 10.5t-22.5 3.5q-19 0 -32 -9.5t-13 -28.5h-30q0 52 24 84.5t65 32.5q16 0 29.5 -4t32.5 -13q15 -7 25.5 -10.5t22.5 -3.5q19 0 32 10t13 28h30q0 -52 -24 -84.5t-65 -32.5q-16 0 -29.5 4z" />
    <glyph glyph-name="hungarumlaut" unicode="&#x2dd;" horiz-adv-x="430" 
d="M56 748q15 27 23.5 56t16.5 70q10 57 23.5 86t46.5 38q6 2 19 2q30 0 52.5 -21.5t22.5 -49.5q0 -26 -19 -48t-57 -52q-37 -31 -58.5 -51.5t-37.5 -48.5zM269 748q15 27 23.5 56t16.5 70q10 57 23.5 86t46.5 38q6 2 19 2q30 0 52.5 -21t22.5 -49q0 -26 -18 -47t-58 -53
q-35 -29 -57 -51t-39 -50z" />
    <glyph glyph-name="Wgrave" unicode="&#x1e80;" horiz-adv-x="1306" 
d="M683.5 789q-28.5 16 -68.5 33q-52 23 -76 42t-24 53q0 28 22.5 50.5t52.5 22.5q34 0 54 -24.5t46 -77.5q22 -43 36 -66.5t35 -44.5l-26 -27q-23 23 -51.5 39zM1286 650q-27 0 -57 -19t-44 -53l-235 -578h-104l-193 475l-193 -475h-104l-235 578q-14 34 -44 53t-57 19v40
h285v-40q-25 0 -25 -22q0 -19 13 -51l157 -403l163 400l-2 4q-14 34 -44 53t-57 19v40h286v-40h-8q-18 -3 -18 -22t13 -51l157 -403l164 404q14 34 14 51q0 21 -25 21v40h193v-40z" />
    <glyph glyph-name="wgrave" unicode="&#x1e81;" horiz-adv-x="1088" 
d="M596.5 559q-28.5 16 -68.5 33q-52 23 -76 42t-24 53q0 28 22.5 50.5t52.5 22.5q34 0 54 -24.5t46 -77.5q22 -43 36 -66.5t35 -44.5l-26 -27q-23 23 -51.5 39zM1068 420q-27 0 -57.5 -19t-44.5 -53l-141 -348h-160l-122 315l-128 -315h-160l-135 347q-14 35 -43.5 54
t-56.5 19v40h284v-40q-25 0 -25 -22q0 -19 13 -51l89 -230l94 231q15 37 15 51q-14 10 -30.5 15.5t-29.5 5.5v40h284v-40q-25 0 -25 -22q0 -19 13 -51l89 -230l94 231q15 38 15 51q0 21 -25 21v40h193v-40z" />
    <glyph glyph-name="Wacute" unicode="&#x1e82;" horiz-adv-x="1306" 
d="M776 864q-24 -19 -76 -42q-40 -17 -68.5 -33t-51.5 -39l-26 27q21 21 35 44.5t36 66.5q26 53 46 77.5t54 24.5q30 0 52.5 -22.5t22.5 -50.5q0 -34 -24 -53zM1286 650q-27 0 -57 -19t-44 -53l-235 -578h-104l-193 475l-193 -475h-104l-235 578q-14 34 -44 53t-57 19v40
h285v-40q-25 0 -25 -22q0 -19 13 -51l157 -403l163 400l-2 4q-14 34 -44 53t-57 19v40h286v-40h-8q-18 -3 -18 -22t13 -51l157 -403l164 404q14 34 14 51q0 21 -25 21v40h193v-40z" />
    <glyph glyph-name="wacute" unicode="&#x1e83;" horiz-adv-x="1088" 
d="M689 634q-24 -19 -76 -42q-40 -17 -68.5 -33t-51.5 -39l-26 27q21 21 35 44.5t36 66.5q26 53 46 77.5t54 24.5q30 0 52.5 -22.5t22.5 -50.5q0 -34 -24 -53zM1068 420q-27 0 -57.5 -19t-44.5 -53l-141 -348h-160l-122 315l-128 -315h-160l-135 347q-14 35 -43.5 54
t-56.5 19v40h284v-40q-25 0 -25 -22q0 -19 13 -51l89 -230l94 231q15 37 15 51q-14 10 -30.5 15.5t-29.5 5.5v40h284v-40q-25 0 -25 -22q0 -19 13 -51l89 -230l94 231q15 38 15 51q0 21 -25 21v40h193v-40z" />
    <glyph glyph-name="Wdieresis" unicode="&#x1e84;" horiz-adv-x="1306" 
d="M484 775q-25 25 -25 61q0 35 25 59.5t61 24.5q35 0 59.5 -24.5t24.5 -59.5q0 -36 -24.5 -61t-59.5 -25q-36 0 -61 25zM714 775q-25 25 -25 61q0 35 25 59.5t61 24.5q35 0 59.5 -24.5t24.5 -59.5q0 -36 -24.5 -61t-59.5 -25q-36 0 -61 25zM1286 650q-27 0 -57 -19t-44 -53
l-235 -578h-104l-193 475l-193 -475h-104l-235 578q-14 34 -44 53t-57 19v40h285v-40q-25 0 -25 -22q0 -19 13 -51l157 -403l163 400l-2 4q-14 34 -44 53t-57 19v40h286v-40h-8q-18 -3 -18 -22t13 -51l157 -403l164 404q14 34 14 51q0 21 -25 21v40h193v-40z" />
    <glyph glyph-name="wdieresis" unicode="&#x1e85;" horiz-adv-x="1088" 
d="M397 545q-25 25 -25 61q0 35 25 59.5t61 24.5q35 0 59.5 -24.5t24.5 -59.5q0 -36 -24.5 -61t-59.5 -25q-36 0 -61 25zM627 545q-25 25 -25 61q0 35 25 59.5t61 24.5q35 0 59.5 -24.5t24.5 -59.5q0 -36 -24.5 -61t-59.5 -25q-36 0 -61 25zM1068 420q-27 0 -57.5 -19
t-44.5 -53l-141 -348h-160l-122 315l-128 -315h-160l-135 347q-14 35 -43.5 54t-56.5 19v40h284v-40q-25 0 -25 -22q0 -19 13 -51l89 -230l94 231q15 37 15 51q-14 10 -30.5 15.5t-29.5 5.5v40h284v-40q-25 0 -25 -22q0 -19 13 -51l89 -230l94 231q15 38 15 51q0 21 -25 21
v40h193v-40z" />
    <glyph glyph-name="Ygrave" unicode="&#x1ef2;" horiz-adv-x="792" 
d="M472.5 789q-28.5 16 -68.5 33q-52 23 -76 42t-24 53q0 28 22.5 50.5t52.5 22.5q34 0 54 -24.5t46 -77.5q22 -43 36 -66.5t35 -44.5l-26 -27q-23 23 -51.5 39zM772 650q-29 0 -65 -16t-56 -46l-175 -278v-189q0 -39 16 -60t40 -21v-40h-272v40q24 0 40 21t16 60v189
l-175 278q-20 30 -56 46t-65 16v40h351v-40q-2 0 -10.5 -4t-15.5 -14.5t-7 -26.5q0 -29 29 -76l80 -126l78 125q29 47 29 77q0 16 -7 26.5t-15.5 14.5t-10.5 4v40h251v-40z" />
    <glyph glyph-name="ygrave" unicode="&#x1ef3;" horiz-adv-x="683" 
d="M413.5 559q-28.5 16 -68.5 33q-52 23 -76 42t-24 53q0 28 22.5 50.5t52.5 22.5q34 0 54 -24.5t46 -77.5q22 -43 36 -66.5t35 -44.5l-26 -27q-23 23 -51.5 39zM139 -261.5q-31 28.5 -31 67.5q0 38 28 66t68 28q35 0 61 -25.5t26 -64.5q0 -13 -3 -26l11 -5q8 21 8 46
q0 39 -19 61l26 59l-187 405q-16 34 -48 52t-59 18v40h289v-40q-23 0 -23 -18q0 -15 17 -52l93 -204l84 202q14 36 14 51q0 21 -24 21v40h193v-40q-27 0 -57.5 -19t-44.5 -53l-54 -131q-89 -217 -133 -322t-53 -122q-17 -31 -47 -47t-65 -16q-39 0 -70 28.5z" />
    <glyph glyph-name="endash" unicode="&#x2013;" horiz-adv-x="600" 
d="M560 328v-75h-520v75h520z" />
    <glyph glyph-name="emdash" unicode="&#x2014;" horiz-adv-x="800" 
d="M760 328v-75h-720v75h720z" />
    <glyph glyph-name="quoteleft" unicode="&#x2018;" horiz-adv-x="240" 
d="M192 502q28 -28 28 -68q0 -38 -28 -66t-68 -28q-26 0 -50 14t-39 40t-15 60q0 30 15 72t52.5 91t99.5 93l17 -24q-46 -49 -64.5 -89.5t-15.5 -66.5q40 0 68 -28z" />
    <glyph glyph-name="quoteright" unicode="&#x2019;" horiz-adv-x="240" 
d="M48 548q-28 28 -28 68q0 38 28 66t68 28q26 0 50 -14t39 -40t15 -60q0 -30 -15 -72t-52.5 -91t-99.5 -93l-17 24q46 49 64.5 89.5t15.5 66.5q-40 0 -68 28z" />
    <glyph glyph-name="quotesinglbase" unicode="&#x201a;" horiz-adv-x="240" 
d="M48 8q-28 28 -28 68q0 38 28 66t68 28q26 0 50 -14t39 -40t15 -60q0 -30 -15 -72t-52.5 -91t-99.5 -93l-17 24q46 49 64.5 89.5t15.5 66.5q-40 0 -68 28z" />
    <glyph glyph-name="quotedblleft" unicode="&#x201c;" horiz-adv-x="489" 
d="M192 502q28 -28 28 -68q0 -38 -28 -66t-68 -28q-26 0 -50 14t-39 40t-15 60q0 30 15 72t52.5 91t99.5 93l17 -24q-46 -49 -64.5 -89.5t-15.5 -66.5q40 0 68 -28zM441 502q28 -28 28 -68q0 -38 -28 -66t-68 -28q-26 0 -50 14t-39 40t-15 60q0 30 15 72t52.5 91t99.5 93
l17 -24q-46 -49 -64.5 -89.5t-15.5 -66.5q40 0 68 -28z" />
    <glyph glyph-name="quotedblright" unicode="&#x201d;" horiz-adv-x="489" 
d="M48 548q-28 28 -28 68q0 38 28 66t68 28q26 0 50 -14t39 -40t15 -60q0 -30 -15 -72t-52.5 -91t-99.5 -93l-17 24q46 49 64.5 89.5t15.5 66.5q-40 0 -68 28zM297 548q-28 28 -28 68q0 38 28 66t68 28q26 0 50 -14t39 -40t15 -60q0 -30 -15 -72t-52.5 -91t-99.5 -93l-17 24
q46 49 64.5 89.5t15.5 66.5q-40 0 -68 28z" />
    <glyph glyph-name="quotedblbase" unicode="&#x201e;" horiz-adv-x="489" 
d="M48 8q-28 28 -28 68q0 38 28 66t68 28q26 0 50 -14t39 -40t15 -60q0 -30 -15 -72t-52.5 -91t-99.5 -93l-17 24q46 49 64.5 89.5t15.5 66.5q-40 0 -68 28zM297 8q-28 28 -28 68q0 38 28 66t68 28q26 0 50 -14t39 -40t15 -60q0 -30 -15 -72t-52.5 -91t-99.5 -93l-17 24
q46 49 64.5 89.5t15.5 66.5q-40 0 -68 28z" />
    <glyph glyph-name="dagger" unicode="&#x2020;" horiz-adv-x="528" 
d="M484 522.5q24 -23.5 24 -55.5t-23.5 -55.5t-57.5 -23.5q-19 0 -33 7t-34 22q-23 16 -40 24.5t-41 8.5q0 -25 19 -51.5t46 -48.5q-27 -51 -46 -141.5t-19 -208.5h-30q0 118 -19 208.5t-46 141.5q27 22 46 48.5t19 51.5q-24 0 -42 -9t-38 -25q-21 -15 -34.5 -22.5
t-32.5 -7.5q-34 0 -58 23.5t-24 55.5t23.5 55.5t57.5 23.5q19 0 33.5 -7t33.5 -22q23 -16 40 -24.5t41 -8.5q0 24 -8.5 40.5t-26.5 39.5q-15 19 -22.5 33t-7.5 33q0 34 23.5 58t55.5 24t55.5 -23.5t23.5 -57.5q0 -19 -7 -33t-22 -34q-16 -20 -25 -38t-9 -42q24 0 42 9t38 25
q21 15 34.5 22.5t32.5 7.5q34 0 58 -23.5z" />
    <glyph glyph-name="daggerdbl" unicode="&#x2021;" horiz-adv-x="504" 
d="M484 280.5q24 -23.5 24 -55.5t-23.5 -55.5t-57.5 -23.5q-19 0 -33 7t-34 22q-23 16 -40 24.5t-41 8.5q0 -24 8.5 -40.5t26.5 -39.5q15 -19 22.5 -33t7.5 -33q0 -34 -23.5 -58t-55.5 -24t-55.5 23.5t-23.5 57.5q0 19 7 33.5t22 33.5q16 20 25 38t9 42q-24 0 -42 -9
t-38 -25q-21 -15 -34.5 -22.5t-32.5 -7.5q-34 0 -58 23.5t-24 55.5t23.5 55.5t57.5 23.5q19 0 33.5 -7t33.5 -22q23 -16 40 -24.5t41 -8.5q0 25 -19 54.5t-46 55.5q27 22 46 48.5t19 51.5q-24 0 -42 -9t-38 -25q-21 -15 -34.5 -22.5t-32.5 -7.5q-34 0 -58 23.5t-24 55.5
t23.5 55.5t57.5 23.5q19 0 33.5 -7t33.5 -22q23 -16 40 -24.5t41 -8.5q0 24 -8.5 40.5t-26.5 39.5q-15 19 -22.5 33t-7.5 33q0 34 23.5 58t55.5 24t55.5 -23.5t23.5 -57.5q0 -19 -7 -33t-22 -34q-16 -20 -25 -38t-9 -42q24 0 42 9t38 25q21 15 34.5 22.5t32.5 7.5
q34 0 58 -23.5t24 -55.5t-23.5 -55.5t-57.5 -23.5q-19 0 -33 7t-34 22q-23 16 -40 24.5t-41 8.5q0 -25 19 -51.5t46 -48.5q-27 -26 -46 -55.5t-19 -54.5q24 0 42 9t38 25q21 15 34.5 22.5t32.5 7.5q34 0 58 -23.5z" />
    <glyph glyph-name="bullet" unicode="&#x2022;" horiz-adv-x="230" 
d="M48 278q-28 28 -28 68q0 38 28 66t68 28q38 0 66 -28t28 -66q0 -40 -28 -68t-66 -28q-40 0 -68 28z" />
    <glyph glyph-name="ellipsis" unicode="&#x2026;" horiz-adv-x="810" 
d="M48 8q-28 28 -28 68q0 38 28 66t68 28q38 0 66 -28t28 -66q0 -40 -28 -68t-66 -28q-40 0 -68 28zM338 8q-28 28 -28 68q0 38 28 66t68 28q38 0 66 -28t28 -66q0 -40 -28 -68t-66 -28q-40 0 -68 28zM628 8q-28 28 -28 68q0 38 28 66t68 28q38 0 66 -28t28 -66
q0 -40 -28 -68t-66 -28q-40 0 -68 28z" />
    <glyph glyph-name="guilsinglleft" unicode="&#x2039;" horiz-adv-x="255" 
d="M135 291l100 -184l-40 -30l-175 194v40l175 194l40 -30z" />
    <glyph glyph-name="guilsinglright" unicode="&#x203a;" horiz-adv-x="255" 
d="M235 311v-40l-175 -194l-40 30l100 184l-100 184l40 30z" />
    <glyph glyph-name="Euro" unicode="&#x20ac;" horiz-adv-x="770" 
d="M750 177q-25 -52 -52 -91t-86.5 -72t-151.5 -33q-90 0 -164.5 34.5t-124.5 95t-70 136.5h-81v75h70v14q0 31 5 66h-75v75h95q27 72 80 125t122 81t143 28q63 0 118.5 -15t92.5 -37t50 -40v-183h-40q0 49 -24.5 90.5t-70.5 65.5t-107 24q-69 0 -124.5 -36.5t-82.5 -102.5
h182v-75h-202q-2 -26 -2 -40t2 -40h202v-75h-184q30 -79 95 -125t145 -46q59 0 112.5 31.5t85.5 95.5z" />
    <glyph glyph-name="trademark" unicode="&#x2122;" horiz-adv-x="508" 
d="M211 637h-11q0 2 -4 10t-14.5 14.5t-26.5 6.5h-17v-143q0 -11 5 -17.5t12 -6.5v-11h-79v11q7 0 12 6.5t5 17.5v143h-18q-16 0 -26 -6.5t-14 -14.5t-4 -10h-11v53h191v-53zM471 654v-129q0 -12 4.5 -18t12.5 -6v-11h-78v11q6 0 10.5 6.5t4.5 17.5v114l-71 -149h-25
l-65 149v-114q0 -24 16 -24v-11h-54v11q7 0 11.5 6t4.5 18v129q0 12 -4.5 18.5t-11.5 6.5v11h66l64 -145l69 145h63v-11q-17 0 -17 -25z" />
    <glyph glyph-name="product" unicode="&#x220f;" horiz-adv-x="684" 
d="M624 629q-16 -21 -16 -60v-448q0 -39 16 -60t40 -21v-40h-272v40q24 0 40 21t16 60v494h-212v-494q0 -39 16 -60t40 -21v-40h-272v40q24 0 40 21t16 60v448q0 39 -16 60t-40 21v40h644v-40q-24 0 -40 -21z" />
    <glyph glyph-name="minus" unicode="&#x2212;" horiz-adv-x="380" 
d="M360 328v-75h-340v75h340z" />
    <glyph glyph-name="notequal" unicode="&#x2260;" horiz-adv-x="560" 
d="M345 353l-48 -125h243v-75h-272l-60 -158l-69 30l49 128h-168v75h196l48 125h-244v75h273l60 158l69 -30l-49 -128h167v-75h-195z" />
    <glyph glyph-name="lessequal" unicode="&#x2264;" horiz-adv-x="315" 
d="M145 291l150 -134l-30 -40l-235 154v40l235 154l30 -40zM30 75h265v-75h-265v75z" />
    <glyph glyph-name="greaterequal" unicode="&#x2265;" horiz-adv-x="315" 
d="M295 311v-40l-235 -154l-30 40l150 134l-150 134l30 40zM30 75h265v-75h-265v75z" />
    <glyph glyph-name="A.ss01" unicode="&#xe000;" horiz-adv-x="916" 
d="M839 59q30 -19 57 -19v-40h-285v40q25 0 25 21q0 17 -14 51l-35 87q-31 -43 -84.5 -67t-125.5 -24q-40 0 -74 7l-1 -3q-14 -34 -14 -51q0 -21 25 -21v-40h-193v40q27 0 57 19t44 53l10 24q-94 37 -152.5 112.5t-58.5 175.5q0 64 23.5 113.5t60 76t75.5 27.5h1v0h1
q40 0 67 -27t27 -67t-27 -68t-67 -28q-38 0 -68 28q-15 -32 -15 -65q0 -66 43 -122t118 -86l36 89q84 204 125 306q-17 24 -42 36.5t-47 12.5v40h285v-40q-25 0 -25 -21q0 -17 14 -51l190 -466q14 -34 44 -53zM493.5 211.5q39.5 30.5 39.5 86.5q0 28 -10 58l-61 149
l-130 -319q33 -5 64 -5q58 0 97.5 30.5z" />
    <glyph glyph-name="C.ss01" unicode="&#xe001;" horiz-adv-x="977" 
d="M937 177q-25 -52 -52 -91t-86.5 -72t-151.5 -33q-107 0 -191.5 48.5t-131.5 130t-47 176.5q0 73 25.5 136t71.5 112q-36 25 -68.5 38.5t-68.5 13.5q-27 0 -40 -18q13 -23 13 -48q0 -40 -28 -67t-68 -27q-41 0 -67.5 27t-26.5 67v1q0 38 26 69.5t73.5 51t107.5 19.5
q59 0 110.5 -18.5t102.5 -51.5q51 34 109.5 52t117.5 18q75 0 129 -21.5t81.5 -57.5t27.5 -79q0 -67 -49.5 -102t-119.5 -35q-80 0 -142 25t-122 69q-35 -67 -35 -148q0 -83 35 -148t94.5 -101.5t130.5 -36.5q59 0 112.5 31.5t85.5 95.5zM591 621.5q-36 -14.5 -65 -41.5
q59 -44 104.5 -67t95.5 -23q37 0 65.5 15.5t28.5 47.5q0 21 -18 40t-53 31t-83 12q-39 0 -75 -14.5z" />
    <glyph glyph-name="D.ss01" unicode="&#xe002;" horiz-adv-x="1013" 
d="M787 648.5q83 -41.5 134.5 -120t51.5 -183.5t-51.5 -183.5t-134.5 -120t-175 -41.5h-345v40q24 0 40 21t16 60v413q0 39 -22.5 60t-55.5 21q-28 0 -45 -4.5t-32 -19.5q19 -13 30.5 -34t11.5 -45q0 -38 -28 -66t-68 -28q-38 0 -66 28t-28 66v10v0q0 43 26.5 81.5t80 62.5
t130.5 24h355q92 0 175 -41.5zM712 106q46 31 73.5 92t27.5 147t-27.5 147t-73.5 92t-100 31h-129v-540h129q54 0 100 31z" />
    <glyph glyph-name="E.ss01" unicode="&#xe003;" horiz-adv-x="847" 
d="M807 509h-40q0 7 -14.5 33t-48 49.5t-88.5 23.5h-133v-232h93q39 0 60 16t21 40h40v-187h-40q0 24 -21 40t-60 16h-93v-233h133q55 0 88.5 23.5t48 49.5t14.5 33h40v-181h-540v40q24 0 40 21t16 60v413q0 39 -22.5 60t-55.5 21q-28 0 -45 -4.5t-32 -19.5q19 -13 30.5 -34
t11.5 -45q0 -38 -28 -66t-68 -28q-38 0 -66 28t-28 66v10v0q0 43 26.5 81.5t80 62.5t130.5 24h550v-181z" />
    <glyph glyph-name="F.ss01" unicode="&#xe004;" horiz-adv-x="827" 
d="M807 509h-40q0 7 -14.5 33t-48 49.5t-88.5 23.5h-133v-232h93q39 0 60 16t21 40h40v-187h-40q0 24 -21 40t-60 16h-93v-187q0 -39 16 -60t40 -21v-40h-272v40q24 0 40 21t16 60v413q0 39 -22.5 60t-55.5 21q-28 0 -45 -4.5t-32 -19.5q19 -13 30.5 -34t11.5 -45
q0 -38 -28 -66t-68 -28q-38 0 -66 28t-28 66v10v0q0 43 26.5 81.5t80 62.5t130.5 24h550v-181z" />
    <glyph glyph-name="G.ss01" unicode="&#xe005;" horiz-adv-x="1054" 
d="M1014 259q-24 0 -40 -21t-16 -60l1 -178h-40q0 12 -13.5 34t-36.5 34q-80 -87 -222 -87q-107 0 -191.5 48.5t-131.5 130t-47 176.5q0 73 25.5 136t71.5 112q-36 25 -68.5 38.5t-68.5 13.5q-27 0 -40 -18q13 -23 13 -48q0 -40 -28 -67t-68 -27q-41 0 -67.5 27t-26.5 67v1
q0 38 26 69.5t73.5 51t107.5 19.5q59 0 110.5 -18.5t102.5 -51.5q51 34 109.5 52t117.5 18q75 0 129 -21.5t81.5 -57.5t27.5 -79q0 -67 -49.5 -102t-119.5 -35q-80 0 -142 25t-122 69q-35 -67 -35 -148q0 -83 35 -148t94.5 -101.5t130.5 -36.5q62 0 114 32v70q0 39 -16 60
t-40 21v40h259v-40zM591 621.5q-36 -14.5 -65 -41.5q59 -44 104.5 -67t95.5 -23q37 0 65.5 15.5t28.5 47.5q0 21 -18 40t-53 31t-83 12q-39 0 -75 -14.5z" />
    <glyph glyph-name="H.ss01" unicode="&#xe006;" horiz-adv-x="772" 
d="M1020 -192q-20 -43 -73 -70.5t-143 -27.5q-133 0 -200.5 81t-67.5 229v288h-300v-187q0 -39 16 -60t40 -21v-40h-272v40q24 0 40 21t16 60v448q0 39 -16 60t-40 21v40h272v-40q-24 0 -40 -21t-16 -60v-186h300v186q0 39 -16 60t-40 21v40h272v-40q-24 0 -40 -21t-16 -60
v-569q0 -105 31 -160t89 -55q29 0 43 17q-18 26 -18 56q0 38 28 66t68 28q38 0 66 -28t28 -66v-1q0 -27 -11 -49z" />
    <glyph glyph-name="I.ss01" unicode="&#xe007;" horiz-adv-x="559" 
d="M499 629q-16 -21 -16 -60v-448q0 -39 16 -60t40 -21v-40h-272v40q24 0 40 21t16 60v413q0 39 -22.5 60t-55.5 21q-28 0 -45 -4.5t-32 -19.5q19 -13 30.5 -34t11.5 -45q0 -38 -28 -66t-68 -28q-38 0 -66 28t-28 66v10v0q0 43 26.5 81.5t80 62.5t130.5 24h282v-40
q-24 0 -40 -21z" />
    <glyph glyph-name="J.ss01" unicode="&#xe008;" horiz-adv-x="518" 
d="M498 650q-24 0 -40 -21t-16 -60v-379q0 -104 -59 -157t-151 -53q-60 0 -108 21.5t-76 61.5t-28 95q0 41 28.5 72.5t67.5 31.5q40 0 67 -27t27 -67q0 -29 -15 -52.5t-40 -35.5q19 -40 57 -40q35 0 52.5 23.5t17.5 76.5v429q0 39 -16 60t-40 21v40h272v-40z" />
    <glyph glyph-name="K.ss01" unicode="&#xe009;" horiz-adv-x="833" 
d="M1205 -82q27 -27 27 -67q0 -42 -29 -74t-82.5 -49.5t-125.5 -17.5q-119 0 -229.5 77.5t-198.5 212.5l-228 363l-103 -109v-133q0 -39 16 -60t40 -21v-40h-272v40q24 0 40 21t16 60v448q0 39 -16 60t-40 21v40h272v-40q-24 0 -40 -21t-16 -60v-207l179 189q46 50 46 76
q0 13 -8 18t-13 5v40h265v-40q-33 0 -74 -11t-65 -37l-113 -119l302 -483q50 -74 86.5 -118t79.5 -70.5t94 -26.5q23 0 47 7q-20 27 -20 59q0 40 28 67t68 27t67 -27z" />
    <glyph glyph-name="L.ss01" unicode="&#xe010;" horiz-adv-x="847" 
d="M807 181v-181h-540v40q24 0 40 21t16 60v413q0 39 -22.5 60t-55.5 21q-28 0 -45 -4.5t-32 -19.5q19 -13 30.5 -34t11.5 -45q0 -38 -28 -66t-68 -28q-38 0 -66 28t-28 66v10v0q0 43 26.5 81.5t80 62.5t130.5 24h282v-40q-24 0 -40 -21t-16 -60v-494h133q55 0 88.5 23.5
t48 49.5t14.5 33h40z" />
    <glyph glyph-name="M.ss01" unicode="&#xe011;" horiz-adv-x="943" 
d="M1191 -192q-20 -43 -73 -70.5t-143 -27.5q-133 0 -200.5 81t-67.5 229v498l-247 -518h-82l-227 519v-398q0 -39 16 -60t40 -21v-40h-187v40q24 0 40 21t16 60v448q0 39 -16 60t-40 21v40h231l218 -499l238 499h216v-40q-24 0 -40 -21t-16 -60v-569q0 -105 31 -160t89 -55
q29 0 43 17q-18 26 -18 56q0 38 28 66t68 28q38 0 66 -28t28 -66v-1q0 -27 -11 -49z" />
    <glyph glyph-name="N.ss01" unicode="&#xe012;" horiz-adv-x="756" 
d="M1279 -82q27 -27 27 -67q0 -42 -29 -74t-82.5 -49.5t-125.5 -17.5q-122 0 -283.5 96.5t-343.5 292.5l-291 346v-324q0 -39 16 -60t40 -21v-40h-187v40q24 0 40 21t16 60v448q0 39 -16 60t-40 21v40h131l374 -445l80 -92v416q0 39 -16 60t-40 21v40h187v-40q-24 0 -40 -21
t-16 -60v-501q117 -129 218.5 -206t190.5 -77q23 0 47 7q-20 27 -20 59q0 40 28 67t68 27t67 -27z" />
    <glyph glyph-name="P.ss01" unicode="&#xe013;" horiz-adv-x="916" 
d="M743.5 664.5q60.5 -25.5 96.5 -75t36 -118.5t-36 -118.5t-96.5 -75t-132.5 -25.5h-128v-131q0 -39 16 -60t40 -21v-40h-272v40q24 0 40 21t16 60v413q0 39 -22.5 60t-55.5 21q-28 0 -45 -4.5t-32 -19.5q19 -13 30.5 -34t11.5 -45q0 -38 -28 -66t-68 -28q-38 0 -66 28
t-28 66v10v0q0 43 26.5 81.5t80 62.5t130.5 24h354q72 0 132.5 -25.5zM675 362q41 35 41 109t-41 109t-94 35h-98v-288h98q53 0 94 35z" />
    <glyph glyph-name="R.ss01" unicode="&#xe014;" horiz-adv-x="740" 
d="M1127 -82q27 -27 27 -67q0 -42 -29 -74t-82.5 -49.5t-125.5 -17.5q-121 0 -239 79t-205 211l-160 252h-77v-131q0 -39 16 -60t40 -21v-40h-272v40q24 0 40 21t16 60v448q0 39 -16 60t-40 21v40h344q72 0 132.5 -25.5t96.5 -75t36 -118.5t-36 -118.5t-96.5 -75
t-132.5 -25.5q37 -18 70 -24t87 -6l143 -222q74 -107 136 -161t137 -54q22 0 47 7q-20 27 -20 59q0 40 28 67t68 27t67 -27zM334 327q53 0 94 35t41 109t-41 109t-94 35h-98v-288h98z" />
    <glyph glyph-name="S.ss01" unicode="&#xe015;" horiz-adv-x="713" 
d="M551 329.5q54 -43.5 88 -105.5t34 -136q0 -93 -45.5 -163.5t-125.5 -108.5t-181 -38q-68 0 -137.5 25.5t-116.5 78.5t-47 132q0 59 28.5 104t74.5 69.5t97 24.5q62 0 104.5 -22.5t63 -56.5t20.5 -68v-1q0 -38 -28 -66t-66 -28q-40 0 -68 28t-28 66q0 31 18 57
q-12 16 -46 16q-23 0 -45 -15t-36 -43t-14 -65q0 -51 32.5 -90t80.5 -60t93 -21q77 0 127 31.5t73.5 81t23.5 104.5q0 46 -26.5 85t-63 66t-67.5 39l-163 68q-38 17 -66 37t-48.5 55t-20.5 88q0 66 37 114t98 73t133 25q54 0 96 -10t95 -28l34 -12v-149h-40q0 34 -24.5 65
t-63 50t-77.5 19q-54 0 -91 -28.5t-37 -74.5q0 -31 13 -50t27 -27t41 -20l126 -49q60 -23 114 -66.5z" />
    <glyph glyph-name="T.ss01" unicode="&#xe016;" horiz-adv-x="770" 
d="M750 509h-40q0 7 -14.5 33t-48 49.5t-88.5 23.5h-59v-494q0 -39 16 -60t40 -21v-40h-272v40q24 0 40 21t16 60v494h-95q-28 0 -45 -4.5t-32 -19.5q19 -13 30.5 -34t11.5 -45q0 -38 -28 -66t-68 -28q-38 0 -66 28t-28 66v10v0q0 43 26.5 81.5t80 62.5t130.5 24h493v-181z
" />
    <glyph glyph-name="U.ss01" unicode="&#xe017;" horiz-adv-x="965" 
d="M945 650q-24 0 -40 -21t-16 -60v-343q0 -75 -34 -131t-96.5 -85.5t-144.5 -29.5q-69 0 -138.5 25t-116 79.5t-46.5 138.5v311q0 40 -18 60.5t-50 20.5q-28 0 -45 -4.5t-32 -19.5q19 -13 30.5 -34t11.5 -45q0 -38 -28 -66t-68 -28q-38 0 -66 28t-28 66v10v0
q0 43 26.5 81.5t80 62.5t130.5 24h272v-40q-24 0 -40 -21t-16 -60l1 -356q0 -59 28 -94.5t67 -49.5t75 -14q35 0 74.5 16.5t67.5 52.5t28 92v353q0 39 -16 60t-40 21v40h187v-40z" />
    <glyph glyph-name="V.ss01" unicode="&#xe018;" horiz-adv-x="816" 
d="M992.5 822.5q30.5 -26.5 30.5 -67.5q0 -40 -27 -68t-67 -28q-26 0 -51.5 16.5t-40.5 40.5q-39 0 -72.5 -37.5t-58.5 -87.5t-58 -129l-22 -52l-167 -410h-103l-235 578q-14 34 -44 53t-57 19v40h285v-40q-25 0 -25 -22q0 -19 13 -51l156 -402l96 235q15 32 33 77
q47 113 86.5 185.5t100.5 124.5t144 52q53 0 83.5 -26.5z" />
    <glyph glyph-name="W.ss01" unicode="&#xe019;" horiz-adv-x="1306" 
d="M1483.5 822.5q30.5 -26.5 30.5 -67.5q0 -40 -27 -68t-67 -28q-26 0 -51.5 16.5t-40.5 40.5q-39 0 -72.5 -37.5t-58.5 -87.5t-58 -129l-22 -52l-167 -410h-104l-193 475l-193 -475h-104l-235 578q-14 34 -44 53t-57 19v40h285v-40q-25 0 -25 -22q0 -19 13 -51l157 -403
l163 400l-2 4q-14 34 -44 53t-57 19v40h286v-40h-8q-18 -3 -18 -22t13 -51l157 -403l96 236q15 32 33 77q47 113 86.5 185.5t100.5 124.5t144 52q53 0 83.5 -26.5z" />
    <glyph glyph-name="X.ss01" unicode="&#xe020;" horiz-adv-x="743" 
d="M1120 -82q27 -27 27 -67q0 -42 -29 -74t-82.5 -49.5t-125.5 -17.5q-121 0 -235 79t-193 211l-149 257l-102 -156q-12 -18 -20 -32t-8 -20q0 -9 18 -9v-40h-201v40q29 0 65.5 15.5t56.5 45.5l149 229l-148 255q-18 32 -53.5 48.5t-63.5 16.5v40h297v-40q-20 0 -20 -11
q0 -7 7.5 -21.5t17.5 -32.5l61 -105l71 109q12 18 20 32t8 20q0 9 -18 9v40h202v-40q-29 0 -65.5 -15.5t-56.5 -45.5l-119 -182l236 -407q64 -104 126 -159.5t137 -55.5q22 0 47 7q-20 27 -20 59q0 40 28 67t68 27t67 -27z" />
    <glyph glyph-name="Y.ss01" unicode="&#xe021;" horiz-adv-x="774" 
d="M973.5 822.5q30.5 -26.5 30.5 -67.5q0 -40 -27 -68t-67 -28q-26 0 -51.5 16.5t-40.5 40.5q-41 0 -88 -44.5t-92.5 -110.5t-121.5 -187l-40 -64v-189q0 -39 16 -60t40 -21v-40h-272v40q24 0 40 21t16 60v189l-175 278q-20 30 -56 46t-65 16v40h351v-40q-2 0 -10.5 -4
t-15.5 -14.5t-7 -26.5q0 -29 29 -76l80 -126q5 7 8 12.5t6 10.5q78 127 139 212.5t136.5 148t153.5 62.5q53 0 83.5 -26.5z" />
    <glyph glyph-name="Z.ss01" unicode="&#xe022;" horiz-adv-x="592" 
d="M871 -82q27 -27 27 -67q0 -42 -29 -74t-82.5 -49.5t-125.5 -17.5q-94 0 -164.5 24t-117.5 57.5t-107 87.5q-47 42 -78 65.5t-71.5 39.5t-89.5 16h-13v75l360 540h-159q-55 0 -88.5 -23.5t-48 -49.5t-14.5 -33h-40v181h542v-75l-350 -524q28 -9 56 -35t68 -73
q54 -61 97.5 -101t104 -68.5t133.5 -28.5q23 0 47 7q-20 27 -20 59q0 40 28 67t68 27t67 -27z" />
    <glyph glyph-name="b.ss01" unicode="&#xe023;" horiz-adv-x="670" 
d="M526 447q58 -33 91 -90t33 -127t-33 -127t-91 -90t-130 -33q-46 0 -86.5 18t-73.5 50v-48h-216v40q24 0 40 21t16 60v379q0 101 62 182q-27 21 -55 32t-67 11q-27 0 -40 -18q13 -23 13 -48q0 -40 -28 -67t-68 -27q-41 0 -67.5 27t-26.5 67v1q0 38 26 70t73 51t108 19
q64 0 109.5 -15.5t83.5 -43.5q81 59 186 59q39 0 75.5 -14.5t60 -41t23.5 -62.5q0 -35 -23 -62t-57.5 -41t-68.5 -14q-92 0 -158 38q-1 -8 -1 -23v-168q33 32 73.5 50t86.5 18q72 0 130 -33zM274 682q26 -21 52 -32t59 -11q31 0 47.5 11.5t16.5 31.5q0 19 -17 31t-47 12
q-70 0 -111 -43zM435.5 77.5q29.5 22.5 47 62.5t17.5 90t-17.5 90t-47 62.5t-65.5 22.5t-66.5 -22.5t-49 -62.5t-18.5 -90t18.5 -90t49 -62.5t66.5 -22.5t65.5 22.5z" />
    <glyph glyph-name="c.ss01" unicode="&#xe024;" horiz-adv-x="517" 
d="M497 114q-17 -35 -36 -62t-59.5 -49.5t-103.5 -22.5q-87 0 -150 35t-95.5 92t-32.5 124q0 72 33 129q-27 22 -55.5 33.5t-68.5 11.5q-27 0 -40 -18q13 -23 13 -48q0 -40 -28 -67t-68 -27q-41 0 -67.5 27t-26.5 67v1q0 38 26 70t73 51t108 19q62 0 107.5 -15t83.5 -42
q36 28 84 42.5t104 14.5q39 0 75.5 -14.5t60 -41t23.5 -62.5q0 -35 -23 -62t-57.5 -41t-68.5 -14q-73 0 -127 22q-1 -8 -1 -26q0 -85 43 -135.5t110 -50.5q39 0 68.5 20t52.5 65zM202 350q46 -31 96 -31q31 0 47.5 11.5t16.5 31.5q0 19 -17 31t-47 12q-66 0 -96 -55z" />
    <glyph glyph-name="d.ss01" unicode="&#xe025;" horiz-adv-x="670" 
d="M871 659q0 -40 -26.5 -67t-67.5 -27q-40 0 -68 27t-28 67q0 25 13 48q-13 18 -40 18q-39 0 -67 -11t-55 -32q62 -81 62 -182v-379q0 -39 16 -60t40 -21v-40h-216v48q-33 -32 -73.5 -50t-86.5 -18q-72 0 -130 33t-91 90t-33 127t33 127t91 90t130 33q46 0 86.5 -18
t73.5 -50v168q0 15 -1 23q-66 -38 -158 -38q-34 0 -68.5 14t-57.5 41t-23 62q0 36 23.5 62.5t60 41t75.5 14.5q105 0 186 -59q38 28 83.5 43.5t109.5 15.5q61 0 108 -19t73 -51t26 -70v-1zM344 650q26 11 52 32q-41 43 -111 43q-30 0 -47 -12t-17 -31q0 -20 16.5 -31.5
t47.5 -11.5q33 0 59 11zM366.5 77.5q30.5 22.5 49 62.5t18.5 90t-18.5 90t-49 62.5t-66.5 22.5t-65.5 -22.5t-47 -62.5t-17.5 -90t17.5 -90t47 -62.5t65.5 -22.5t66.5 22.5z" />
    <glyph glyph-name="e.ss01" unicode="&#xe026;" horiz-adv-x="757" 
d="M543.5 720q94.5 -60 144 -158.5t49.5 -209.5q0 -107 -50 -191.5t-145 -132.5t-224 -48q-87 0 -155 33t-105.5 89t-37.5 121q0 80 36 138.5t93.5 88.5t119.5 30q75 0 131.5 -31t87 -85.5t30.5 -122.5h-338q0 -85 48.5 -132.5t124.5 -47.5q75 0 142 30t109.5 95.5
t42.5 165.5q0 85 -42 166.5t-119 134t-177 52.5q-27 0 -47 -12q22 -25 22 -61q0 -40 -27 -68t-67 -28t-68 28t-28 68q0 35 22.5 69t73.5 56.5t131 22.5q128 0 222.5 -60zM207.5 390.5q-21.5 -39.5 -26.5 -109.5h175q-5 63 -26.5 106t-60.5 43q-40 0 -61.5 -39.5z" />
    <glyph glyph-name="h.ss01" unicode="&#xe027;" horiz-adv-x="681" 
d="M932 -192q-20 -43 -73 -70.5t-143 -27.5q-133 0 -200.5 81t-67.5 229v220q0 69 -30 101.5t-75 32.5q-54 0 -79.5 -45t-27.5 -118v-90q0 -39 16 -60t40 -21v-40h-272v40q24 0 40 21t16 60v448q0 39 -16 60t-40 21v40h216v-327q16 52 62.5 84.5t113.5 32.5q95 0 145.5 -61
t50.5 -180v-239q0 -105 31 -160t89 -55q29 0 43 17q-18 26 -18 56q0 38 28 66t68 28q38 0 66 -28t28 -66v-1q0 -27 -11 -49z" />
    <glyph glyph-name="j.ss01" unicode="&#xe028;" horiz-adv-x="285" 
d="M69 548q-28 28 -28 68q0 38 28 66t68 28q38 0 66 -28t28 -66q0 -40 -28 -68t-66 -28q-40 0 -68 28zM513 -150q0 -38 -26 -70t-73 -51t-108 -19q-64 0 -109.5 15.5t-84.5 43.5q-80 -59 -185 -59q-39 0 -75.5 14.5t-60 41t-23.5 62.5q0 35 23 62t57.5 41t68.5 14
q92 0 158 -38q1 8 1 23v409q0 39 -16 60t-40 21v40h216v-450q0 -49 -16 -95.5t-46 -85.5q26 -21 54.5 -32.5t67.5 -11.5q27 0 40 18q-13 23 -13 48q0 40 28 67t68 27q41 0 67.5 -27t26.5 -67v-1zM38 -172q-26 21 -52 32t-59 11q-31 0 -47.5 -11.5t-16.5 -31.5q0 -19 17 -31
t47 -12q70 0 111 43z" />
    <glyph glyph-name="k.ss01" unicode="&#xe029;" horiz-adv-x="720" 
d="M1106 -82q27 -27 27 -67q0 -42 -29 -74t-82.5 -49.5t-125.5 -17.5q-119 0 -229.5 77.5t-198.5 212.5l-145 234l-87 -80v-33q0 -39 16 -60t40 -21v-40h-272v40q24 0 40 21t16 60v448q0 39 -16 60t-40 21v40h216v-429l76 70q53 49 53 72q0 9 -7 13t-11 4v40h278v-40
q-36 0 -77.5 -9t-67.5 -33l-37 -34l213 -344q50 -74 86.5 -118t79.5 -70.5t94 -26.5q22 0 47 7q-20 27 -20 59q0 40 28 67t68 27t67 -27z" />
    <glyph glyph-name="m.ss01" unicode="&#xe030;" horiz-adv-x="1035" 
d="M1304 -192q-20 -43 -73 -70.5t-143 -27.5q-133 0 -200.5 81t-67.5 229v220q0 69 -30 101.5t-75 32.5q-54 0 -79.5 -45t-27.5 -118v-90q0 -39 16 -60t40 -21v-40h-272v40q24 0 40 21t16 60v119q0 69 -30 101.5t-75 32.5q-54 0 -79.5 -45t-27.5 -118v-90q0 -39 16 -60
t40 -21v-40h-272v40q24 0 40 21t16 60v218q0 39 -16 60t-40 21v40h216v-97q16 52 62.5 84.5t113.5 32.5q70 0 116 -33t65 -97q69 130 191 130q95 0 145.5 -61t50.5 -180v-239q0 -105 31 -160t89 -55q29 0 43 17q-18 26 -18 56q0 38 28 66t68 28q38 0 66 -28t28 -66v-1
q0 -27 -11 -49z" />
    <glyph glyph-name="n.ss01" unicode="&#xe031;" horiz-adv-x="681" 
d="M932 -192q-20 -43 -73 -70.5t-143 -27.5q-133 0 -200.5 81t-67.5 229v220q0 69 -30 101.5t-75 32.5q-54 0 -79.5 -45t-27.5 -118v-90q0 -39 16 -60t40 -21v-40h-272v40q24 0 40 21t16 60v218q0 39 -16 60t-40 21v40h216v-97q16 52 62.5 84.5t113.5 32.5q95 0 145.5 -61
t50.5 -180v-239q0 -105 31 -160t89 -55q29 0 43 17q-18 26 -18 56q0 38 28 66t68 28q38 0 66 -28t28 -66v-1q0 -27 -11 -49z" />
    <glyph glyph-name="p.ss01" unicode="&#xe032;" horiz-adv-x="670" 
d="M236 10q0 -101 -62 -182q27 -21 55 -32t67 -11q27 0 40 18q-13 23 -13 48q0 40 28 67t68 27q41 0 67.5 -27t26.5 -67v-1q0 -38 -26 -70t-73 -51t-108 -19q-64 0 -109.5 15.5t-83.5 43.5q-81 -59 -186 -59q-39 0 -75.5 14.5t-60 41t-23.5 62.5q0 35 23 62t57.5 41t68.5 14
q92 0 158 -38q1 8 1 23v409q0 39 -16 60t-40 21v40h216v-48q33 32 73.5 50t86.5 18q72 0 130 -33t91 -90t33 -127t-33 -127t-91 -90t-130 -33q-46 0 -86.5 18t-73.5 50v-38zM303.5 382.5q-30.5 -22.5 -49 -62.5t-18.5 -90t18.5 -90t49 -62.5t66.5 -22.5t65.5 22.5t47 62.5
t17.5 90t-17.5 90t-47 62.5t-65.5 22.5t-66.5 -22.5zM38 -172q-26 21 -52 32t-59 11q-31 0 -47.5 -11.5t-16.5 -31.5q0 -19 17 -31t47 -12q70 0 111 43z" />
    <glyph glyph-name="q.ss01" unicode="&#xe033;" horiz-adv-x="670" 
d="M918 -192q-20 -43 -73 -70.5t-143 -27.5q-133 0 -200.5 81t-67.5 229v28q-33 -32 -73.5 -50t-86.5 -18q-72 0 -130 33t-91 90t-33 127t33 127t91 90t130 33q46 0 86.5 -18t73.5 -50v48h216v-40q-24 0 -40 -21t-16 -60v-339q0 -105 31 -160t89 -55q29 0 43 17
q-18 26 -18 56q0 38 28 66t68 28q38 0 66 -28t28 -66v-1q0 -27 -11 -49zM366.5 77.5q30.5 22.5 49 62.5t18.5 90t-18.5 90t-49 62.5t-66.5 22.5t-65.5 -22.5t-47 -62.5t-17.5 -90t17.5 -90t47 -62.5t65.5 -22.5t66.5 22.5z" />
    <glyph glyph-name="r.ss01" unicode="&#xe034;" horiz-adv-x="500" 
d="M700.5 703.5q30.5 -26.5 30.5 -67.5q0 -40 -27 -68t-67 -28q-26 0 -51.5 16t-40.5 40q-82 -12 -152 -102t-113.5 -196t-43.5 -147v-30q0 -39 16 -60t40 -21v-40h-272v40q24 0 40 21t16 60v218q0 39 -16 60t-40 21v40h216v-127q0 23 51 125t136.5 187t193.5 85
q53 0 83.5 -26.5z" />
    <glyph glyph-name="t.ss01" unicode="&#xe035;" horiz-adv-x="599" 
d="M799.5 702.5q30.5 -26.5 30.5 -67.5q0 -40 -27 -68t-67 -28q-33 0 -59 21t-34 53q-78 -13 -172 -56.5t-234 -136.5h-1v-280q0 -56 10.5 -78t34.5 -22q19 0 32.5 16.5t22.5 53.5l40 -10q-13 -59 -48.5 -89.5t-91.5 -30.5q-82 0 -121 42.5t-39 147.5v250h-56v40
q46 0 86.5 19.5t65 53.5t24.5 77h40v-120h1q126 98 250.5 168.5t228.5 70.5q53 0 83.5 -26.5z" />
    <glyph glyph-name="v.ss01" unicode="&#xe036;" horiz-adv-x="733" 
d="M933.5 703.5q30.5 -26.5 30.5 -67.5q0 -40 -27 -68t-67 -28q-26 0 -51.5 16.5t-40.5 40.5q-68 0 -111.5 -47t-84.5 -140l-167 -410h-160l-135 347q-14 35 -43.5 54t-56.5 19v40h284v-40q-25 0 -25 -22q0 -19 13 -51l90 -230l119 293q45 99 91 168t109.5 110.5t148.5 41.5
q53 0 83.5 -26.5z" />
    <glyph glyph-name="w.ss01" unicode="&#xe037;" horiz-adv-x="1088" 
d="M1343.5 703.5q30.5 -26.5 30.5 -67.5q0 -40 -27 -68t-67 -28q-26 0 -51.5 16.5t-40.5 40.5q-69 -6 -112.5 -51.5t-83.5 -135.5l-167 -410h-160l-122 315l-128 -315h-160l-135 347q-14 35 -43.5 54t-56.5 19v40h284v-40q-25 0 -25 -22q0 -19 13 -51l89 -230l94 231
q15 37 15 51q-14 10 -30.5 15.5t-29.5 5.5v40h284v-40q-25 0 -25 -22q0 -19 13 -51l90 -230l119 293q44 99 90 167.5t110 110.5t149 42q53 0 83.5 -26.5z" />
    <glyph glyph-name="x.ss01" unicode="&#xe038;" horiz-adv-x="673" 
d="M873.5 703.5q30.5 -26.5 30.5 -67.5q0 -40 -27 -68t-67 -28q-26 0 -51.5 16.5t-40.5 40.5q-47 -4 -81 -20.5t-60.5 -43t-63.5 -73.5l-140 -191l105 -167q19 -30 55 -46t65 -16v-40h-289v40q19 0 19 10q0 6 -8 20t-19 32l-23 37l-30 -41q-4 -6 -14.5 -19.5t-14.5 -20.5
t-4 -11q0 -7 17 -7v-40h-206v40q30 0 68 14.5t59 43.5l81 111l-94 149q-19 30 -55 46t-65 16v40h289v-40q-19 0 -19 -10q0 -6 8 -20t19 -32l12 -19l89 121q66 89 110.5 139.5t111.5 90.5t150 40q53 0 83.5 -26.5z" />
    <glyph glyph-name="y.ss01" unicode="&#xe039;" horiz-adv-x="683" 
d="M663 420q-27 0 -57.5 -19t-44.5 -53l-91 -220l-100 -242q-29 -66 -82 -121t-145 -55q-86 0 -136.5 39t-50.5 102q0 40 27 67t67 27t68 -27t28 -67q0 -32 -19 -57q14 -9 36 -9q86 0 151 160l-187 405q-16 34 -48 52t-59 18v40h289v-40q-23 0 -23 -18q0 -15 17 -52l93 -204
l84 202q14 36 14 51q0 21 -24 21v40h193v-40z" />
    <glyph glyph-name="z.ss01" unicode="&#xe040;" horiz-adv-x="455" 
d="M871 -82q27 -27 27 -67q0 -42 -29 -74t-82.5 -49.5t-125.5 -17.5q-94 0 -164.5 24t-117.5 57.5t-107 87.5q-47 42 -78 65.5t-71.5 39.5t-89.5 16v75l212 310h-104q-39 0 -60 -16t-21 -40h-40v131h409v-75l-202 -296q26 -10 51.5 -34t68.5 -72q55 -61 98 -101t103 -68.5
t133 -28.5q23 0 47 7q-20 27 -20 59q0 40 28 67t68 27t67 -27z" />
    <glyph glyph-name="A_H" unicode="&#xe041;" horiz-adv-x="1253" 
d="M1193 629q-16 -21 -16 -60v-448q0 -39 16 -60t40 -21v-40h-272v40q24 0 40 21t16 60v187h-300v-187q0 -39 16 -60t40 -21v-40h-272v40q24 0 40 21t16 60v46h-264l-52 -70q-6 -8 -14 -18.5t-13.5 -19t-5.5 -12.5q0 -7 17 -7v-40h-205v40q30 0 68.5 14t59.5 43l393 532
q-15 21 -40 21v40h272v-40q-24 0 -40 -21t-16 -60v-186h300v186q0 39 -16 60t-40 21v40h272v-40q-24 0 -40 -21zM557 242v283l-209 -283h209z" />
    <glyph glyph-name="A_K" unicode="&#xe042;" horiz-adv-x="1314" 
d="M1229 56q36 -16 65 -16v-40h-349v40q2 0 10.5 4t15.5 14.5t7 26.5q0 29 -29 76l-128 202l-104 -109v-133q0 -39 16 -60t40 -21v-40h-272v40q24 0 40 21t16 60v46h-264l-52 -70q-6 -8 -14 -18.5t-13.5 -19t-5.5 -12.5q0 -7 17 -7v-40h-205v40q30 0 68.5 14t59.5 43
l393 532q-15 21 -40 21v40h272v-40q-24 0 -40 -21t-16 -60v-207l179 189q46 50 46 76q0 13 -8 18t-13 5v40h265v-40q-33 0 -74 -11t-65 -37l-113 -119l240 -381q19 -30 55 -46zM557 242v283l-209 -283h209z" />
    <glyph glyph-name="A_L" unicode="&#xe043;" horiz-adv-x="1081" 
d="M1041 181v-181h-540v40q24 0 40 21t16 60v46h-264l-52 -70q-6 -8 -14 -18.5t-13.5 -19t-5.5 -12.5q0 -7 17 -7v-40h-205v40q30 0 68.5 14t59.5 43l393 532q-15 21 -40 21v40h272v-40q-24 0 -40 -21t-16 -60v-494h133q55 0 88.5 23.5t48 49.5t14.5 33h40zM557 242v283
l-209 -283h209z" />
    <glyph glyph-name="A_R" unicode="&#xe044;" horiz-adv-x="1221" 
d="M1135.5 55.5q36.5 -15.5 65.5 -15.5v-40h-303v40q19 0 19 10q0 6 -8 20t-20 32l-95 150h-77v-131q0 -39 16 -60t40 -21v-40h-272v40q24 0 40 21t16 60v46h-264l-52 -70q-6 -8 -14 -18.5t-13.5 -19t-5.5 -12.5q0 -7 17 -7v-40h-205v40q30 0 68.5 14t59.5 43l393 532
q-15 21 -40 21v40h344q72 0 132.5 -25.5t96.5 -75t36 -118.5t-36 -118.5t-96.5 -75t-132.5 -25.5q37 -18 70 -24t87 -6l77 -120q20 -31 56.5 -46.5zM815 327q53 0 94 35t41 109t-41 109t-94 35h-98v-288h98zM557 242v283l-209 -283h209z" />
    <glyph glyph-name="A_V" unicode="&#xe045;" horiz-adv-x="1027" 
d="M1007 650q-27 0 -57 -19t-44 -53l-235 -578h-104l-68 167h-275l-22 -55q-14 -34 -14 -51q0 -21 25 -21v-40h-193v40q27 0 57 19t44 53l199 489q-17 24 -42 36.5t-47 12.5v40h285v-40q-25 0 -25 -22q0 -19 13 -51l157 -403l164 404q14 34 14 51q0 21 -25 21v40h193v-40z
M469 242l-107 263l-107 -263h214z" />
    <glyph glyph-name="C_A" unicode="&#xe046;" horiz-adv-x="1072" 
d="M995 59q30 -19 57 -19v-40h-285v40q25 0 25 21q0 17 -14 51l-79 195h-161l-13 -31q-15 -38 -15 -51q0 -21 25 -21v-40h-193v40q27 0 57.5 19t44.5 53l121 298q-27 29 -67 45.5t-89 16.5q-61 0 -113.5 -35.5t-84 -98t-31.5 -140.5q0 -83 35 -148t94.5 -101.5t130.5 -36.5
q59 0 112.5 31.5t85.5 95.5l42 -26q-25 -52 -52 -91t-86.5 -72t-151.5 -33q-107 0 -191.5 48.5t-131.5 130t-47 176.5q0 111 51.5 196.5t136.5 132t182 46.5h19h355v-40q-25 0 -25 -21q0 -17 14 -51l198 -487q14 -34 44 -53zM668 382l-50 123l-50 -123h100z" />
    <glyph glyph-name="C_A_alt" unicode="&#xe047;" horiz-adv-x="1112" 
d="M552.5 107.5q53.5 31.5 85.5 95.5l42 -26q-25 -52 -52 -91t-86.5 -72t-151.5 -33q-107 0 -191.5 48.5t-131.5 130t-47 176.5q0 111 51.5 196.5t136.5 132t182 46.5q63 0 118.5 -15t92.5 -37t50 -40v-183h-40q0 49 -24.5 90.5t-70.5 65.5t-107 24q-62 0 -114.5 -30.5
t-83.5 -88.5t-31 -135q0 -83 35 -148t94.5 -101.5t130.5 -36.5q59 0 112.5 31.5zM1052 629q-16 -21 -16 -60v-448q0 -39 16 -60t40 -21v-40h-285v40q24 0 40 21t16 60v176h-230l-37 -41l-24 -25q-17 -15 -17 -20q0 -4 15 -4v-40h-213v40q32 0 72.5 11.5t65.5 37.5l346 380
q-14 14 -34 14v40h285v-40q-24 0 -40 -21zM863 372v177l-161 -177h161z" />
    <glyph glyph-name="C_C" unicode="&#xe048;" horiz-adv-x="923" 
d="M92 480q72 109 187 169.5t238 60.5q105 0 196.5 -32.5t153.5 -79.5v-214h-51q0 57 -30 115t-92.5 97t-156.5 39q-100 0 -181 -48.5t-128.5 -139t-47.5 -212.5q0 -120 50 -206.5t131.5 -131t175.5 -44.5q71 0 151 31.5t131 107.5l64 -39q-56 -81 -150.5 -128t-219.5 -47
q-141 0 -253 55.5t-176 159t-64 242.5q0 136 72 245zM312 357.5q36 58.5 99 90.5t143 32q64 0 104.5 -17t77.5 -47v-126h-40q0 54 -34 92t-95 38q-37 0 -67 -22t-47 -62.5t-17 -94.5q0 -85 43 -135.5t110 -50.5q39 0 68.5 20t52.5 65l43 -26q-17 -35 -36 -62t-59.5 -49.5
t-103.5 -22.5q-87 0 -150 32.5t-95.5 87.5t-32.5 121q0 78 36 136.5z" />
    <glyph glyph-name="C_O" unicode="&#xe049;" horiz-adv-x="923" 
d="M92 480q72 109 187 169.5t238 60.5q105 0 196.5 -32.5t153.5 -79.5v-214h-51q0 57 -30 115t-92.5 97t-156.5 39q-100 0 -181 -48.5t-128.5 -139t-47.5 -212.5q0 -120 50 -206.5t131.5 -131t175.5 -44.5q71 0 151 31.5t131 107.5l64 -39q-56 -81 -150.5 -128t-219.5 -47
q-141 0 -253 55.5t-176 159t-64 242.5q0 136 72 245zM309.5 357q33.5 57 93 90t134.5 33t134.5 -33t93 -90t33.5 -127t-33.5 -127t-93 -90t-134.5 -33t-134.5 33t-93 90t-33.5 127t33.5 127zM456 101q30 -46 81 -46t81 46t30 129t-30 129t-81 46t-81 -46t-30 -129t30 -129z
" />
    <glyph glyph-name="D_C" unicode="&#xe050;" horiz-adv-x="1006" 
d="M966 177q-25 -52 -52 -91t-86.5 -72t-151.5 -33q-98 0 -179 42q-64 -23 -132 -23h-345v40q24 0 40 21t16 60v448q0 39 -16 60t-40 21v40h345q69 0 133 -23q82 44 178 44q63 0 118.5 -15t92.5 -37t50 -40v-183h-40q0 49 -24.5 90.5t-70.5 65.5t-107 24q-44 0 -83 -15
q53 -46 83.5 -111t30.5 -145q0 -76 -27.5 -138.5t-76.5 -108.5q50 -22 104 -22q59 0 112.5 31.5t85.5 95.5zM414 82q-51 49 -79.5 115t-28.5 139q0 83 29.5 151.5t81.5 119.5q-27 8 -52 8h-129v-540h129q27 0 49 7zM527 174q39 70 39 171q0 115 -48 185q-52 -68 -52 -168
q0 -109 61 -188z" />
    <glyph glyph-name="F_F" unicode="&#xe051;" horiz-adv-x="1064" 
d="M1044 509h-40q0 7 -14.5 33t-48 49.5t-88.5 23.5h-133v-232h93q39 0 60 16t21 40h40v-187h-40q0 24 -21 40t-60 16h-93v-187q0 -39 16 -60t40 -21v-40h-272v40q24 0 40 21t16 60v494h-324v-232h93q39 0 60 16t21 40h40v-187h-40q0 24 -21 40t-60 16h-93v-187
q0 -39 16 -60t40 -21v-40h-272v40q24 0 40 21t16 60v448q0 39 -16 60t-40 21v40h1024v-181z" />
    <glyph glyph-name="F_T" unicode="&#xe052;" horiz-adv-x="990" 
d="M970 509h-40q0 7 -14.5 33t-48 49.5t-88.5 23.5h-59v-494q0 -39 16 -60t40 -21v-40h-272v40q24 0 40 21t16 60v494h-324v-232h93q39 0 60 16t21 40h40v-187h-40q0 24 -21 40t-60 16h-93v-187q0 -39 16 -60t40 -21v-40h-272v40q24 0 40 21t16 60v448q0 39 -16 60t-40 21
v40h950v-181z" />
    <glyph glyph-name="H_E" unicode="&#xe053;" horiz-adv-x="1060" 
d="M1020 509h-40q0 7 -14.5 33t-48 49.5t-88.5 23.5h-133v-232h93q39 0 60 16t21 40h40v-187h-40q0 24 -21 40t-60 16h-93v-233h133q55 0 88.5 23.5t48 49.5t14.5 33h40v-181h-540v40q24 0 40 21t16 60v187h-300v-187q0 -39 16 -60t40 -21v-40h-272v40q24 0 40 21t16 60v448
q0 39 -16 60t-40 21v40h272v-40q-24 0 -40 -21t-16 -60v-186h300v186q0 39 -16 60t-40 21v40h540v-181z" />
    <glyph glyph-name="L_A" unicode="&#xe054;" horiz-adv-x="1004" 
d="M457.5 98.5q33.5 23.5 48 49.5t14.5 33h40v-181h-540v40q24 0 40 21t16 60v448q0 39 -16 60t-40 21v40h272v-40q-24 0 -40 -21t-16 -60v-494h133q55 0 88.5 23.5zM927 59q30 -19 57 -19v-40h-285v40q25 0 25 21q0 17 -14 51l-71 175h-178l-6 -16q-15 -38 -15 -51
q0 -21 25 -21v-40h-193v40q27 0 57.5 19t44.5 53l134 330q-17 24 -42 36.5t-47 12.5v40h285v-40q-25 0 -25 -21q0 -17 14 -51l190 -466q14 -34 44 -53zM608 362l-58 143l-58 -143h116z" />
    <glyph glyph-name="L_E" unicode="&#xe055;" horiz-adv-x="872" 
d="M457.5 98.5q33.5 23.5 48 49.5t14.5 33h40v-181h-540v40q24 0 40 21t16 60v448q0 39 -16 60t-40 21v40h272v-40q-24 0 -40 -21t-16 -60v-494h133q55 0 88.5 23.5zM812 509h-40q0 7 -14.5 33t-48 49.5t-88.5 23.5h-53v-117h13q39 0 60 16t21 40h40v-187h-40q0 24 -21 40
t-60 16h-13v-118h53q55 0 88.5 23.5t48 49.5t14.5 33h40v-181h-460v40q24 0 40 21t16 60v218q0 39 -16 60t-40 21v40h460v-181z" />
    <glyph glyph-name="L_I" unicode="&#xe056;" horiz-adv-x="684" 
d="M457.5 98.5q33.5 23.5 48 49.5t14.5 33h40v-181h-540v40q24 0 40 21t16 60v448q0 39 -16 60t-40 21v40h272v-40q-24 0 -40 -21t-16 -60v-494h133q55 0 88.5 23.5zM584 629q-16 -21 -16 -60v-218q0 -39 16 -60t40 -21v-40h-272v40q24 0 40 21t16 60v218q0 39 -16 60
t-40 21v40h272v-40q-24 0 -40 -21z" />
    <glyph glyph-name="L_L" unicode="&#xe057;" horiz-adv-x="852" 
d="M457.5 98.5q33.5 23.5 48 49.5t14.5 33h40v-181h-540v40q24 0 40 21t16 60v448q0 39 -16 60t-40 21v40h272v-40q-24 0 -40 -21t-16 -60v-494h133q55 0 88.5 23.5zM812 411v-181h-460v40q24 0 40 21t16 60v218q0 39 -16 60t-40 21v40h272v-40q-24 0 -40 -21t-16 -60v-264
h53q55 0 88.5 23.5t48 49.5t14.5 33h40z" />
    <glyph glyph-name="N_N" unicode="&#xe058;" horiz-adv-x="1285" 
d="M1265 650q-24 0 -40 -21t-16 -60v-569h-75l-454 445v-445h-75l-454 445v-324q0 -39 16 -60t40 -21v-40h-187v40q24 0 40 21t16 60v448q0 39 -16 60t-40 21v40h131l454 -445v324q0 39 -16 60t-40 21v40h131l454 -445v324q0 39 -16 60t-40 21v40h187v-40z" />
    <glyph glyph-name="O_C" unicode="&#xe059;" horiz-adv-x="1050" 
d="M1010 177q-25 -52 -52 -91t-86.5 -72t-151.5 -33q-88 0 -166 35q-76 -35 -164 -35q-100 0 -185 46t-135 129t-50 190t50 190t135 129t185 46q90 0 167 -37q79 37 163 37q63 0 118.5 -15t92.5 -37t50 -40v-183h-40q0 49 -24.5 90.5t-70.5 65.5t-107 24q-41 0 -80 -14
q48 -49 74.5 -114t26.5 -142q0 -74 -24.5 -136.5t-68.5 -111.5q50 -22 103 -22q59 0 112.5 31.5t85.5 95.5zM467 73q-56 50 -86.5 118.5t-30.5 144.5q0 87 32 159t89 122q-40 19 -82 19q-61 0 -108.5 -35t-74 -101t-26.5 -154t27 -154t74.5 -101t107.5 -35q41 0 78 17z
M567 179q33 71 33 167q0 106 -40 181q-50 -68 -50 -165q0 -107 57 -183z" />
    <glyph glyph-name="O_G" unicode="&#xe060;" horiz-adv-x="1127" 
d="M1087 259q-24 0 -40 -21t-16 -60l1 -178h-40q0 12 -13.5 34t-36.5 34q-80 -87 -222 -87q-88 0 -166 35q-76 -35 -164 -35q-100 0 -185 46t-135 129t-50 190t50 190t135 129t185 46q90 0 167 -37q79 37 163 37q63 0 118.5 -15t92.5 -37t50 -40v-183h-40q0 49 -24.5 90.5
t-70.5 65.5t-107 24q-41 0 -80 -14q48 -49 74.5 -114t26.5 -142q0 -74 -24.5 -136.5t-68.5 -111.5q50 -22 103 -22q62 0 114 32v70q0 39 -16 60t-40 21v40h259v-40zM467 73q-56 50 -86.5 118.5t-30.5 144.5q0 87 32 159t89 122q-40 19 -82 19q-61 0 -108.5 -35t-74 -101
t-26.5 -154t27 -154t74.5 -101t107.5 -35q41 0 78 17zM567 179q33 71 33 167q0 106 -40 181q-50 -68 -50 -165q0 -107 57 -183z" />
    <glyph glyph-name="O_O" unicode="&#xe061;" horiz-adv-x="1130" 
d="M905 665q85 -46 135 -129t50 -190t-50 -190t-135 -129t-185 -46q-87 0 -165 36q-78 -36 -165 -36q-100 0 -185 46t-135 129t-50 190t50 190t135 129t185 46q87 0 165 -36q78 36 165 36q100 0 185 -46zM468 74q-56 49 -87 119t-31 153t31 153t87 119q-36 18 -79 18
q-61 0 -108.5 -35t-74 -101t-26.5 -154t27 -154t74.5 -101t107.5 -35q43 0 79 18zM827 91.5q48 35.5 75.5 101t27.5 153.5t-27.5 153.5t-75.5 101t-108 35.5q-41 0 -78 -17q56 -49 87.5 -119t31.5 -154t-31.5 -154t-87.5 -119q37 -17 78 -17q60 0 108 35.5zM600 346
q0 113 -46 191q-44 -77 -44 -191q0 -116 45 -190q45 77 45 190z" />
    <glyph glyph-name="O_Q" unicode="&#xe062;" horiz-adv-x="1130" 
d="M898 -78.5q35 -21.5 74 -21.5q25 0 60 11l27 -36l-209 -75l-40 42q-87 89 -136 142q-60 6 -119 33q-78 -36 -165 -36q-100 0 -185 46t-135 129t-50 190t50 190t135 129t185 46q87 0 165 -36q78 36 165 36q100 0 185 -46t135 -129t50 -190q0 -90 -35.5 -163.5t-98 -122.5
t-141.5 -68q48 -49 83 -70.5zM468 74q-56 49 -87 119t-31 153t31 153t87 119q-36 18 -79 18q-61 0 -108.5 -35t-74 -101t-26.5 -154t27 -154t74.5 -101t107.5 -35q43 0 79 18zM728.5 500q31.5 -70 31.5 -154t-31.5 -154t-87.5 -119q37 -17 78 -17q60 0 108 35.5t75.5 101
t27.5 153.5t-27.5 153.5t-75.5 101t-108 35.5q-41 0 -78 -17q56 -49 87.5 -119zM600 346q0 113 -46 191q-44 -77 -44 -191q0 -116 45 -190q45 77 45 190z" />
    <glyph glyph-name="T_E" unicode="&#xe063;" horiz-adv-x="1200" 
d="M1160 509h-40q0 7 -14.5 33t-48 49.5t-88.5 23.5h-133v-232h93q39 0 60 16t21 40h40v-187h-40q0 24 -21 40t-60 16h-93v-233h133q55 0 88.5 23.5t48 49.5t14.5 33h40v-181h-540v40q24 0 40 21t16 60v494h-246v-494q0 -39 16 -60t40 -21v-40h-272v40q24 0 40 21t16 60v494
h-59q-55 0 -88.5 -23.5t-48 -49.5t-14.5 -33h-40v181h1140v-181z" />
    <glyph glyph-name="T_T" unicode="&#xe064;" horiz-adv-x="1106" 
d="M1086 509h-40q0 7 -14.5 33t-48 49.5t-88.5 23.5h-59v-494q0 -39 16 -60t40 -21v-40h-272v40q24 0 40 21t16 60v494h-246v-494q0 -39 16 -60t40 -21v-40h-272v40q24 0 40 21t16 60v494h-59q-55 0 -88.5 -23.5t-48 -49.5t-14.5 -33h-40v181h1066v-181z" />
    <glyph glyph-name="T_h" unicode="&#xe065;" horiz-adv-x="1308" 
d="M1248 61q16 -21 40 -21v-40h-272v40q24 0 40 21t16 60v119q0 69 -30 101.5t-75 32.5q-54 0 -79.5 -45t-27.5 -118v-90q0 -39 16 -60t40 -21v-40h-272v40q24 0 40 21t16 60v494h-200v-494q0 -39 16 -60t40 -21v-40h-272v40q24 0 40 21t16 60v494h-95q-28 0 -45 -4.5
t-32 -19.5q19 -13 30.5 -34t11.5 -45q0 -38 -28 -66t-68 -28q-38 0 -66 28t-28 66v10v0q0 43 26.5 81.5t80 62.5t130.5 24h659v-40q-24 0 -40 -21t-16 -60v-206q16 52 62.5 84.5t113.5 32.5q95 0 145.5 -61t50.5 -180v-118q0 -39 16 -60z" />
    <glyph glyph-name="T_h_alt" unicode="&#xe066;" horiz-adv-x="1305" 
d="M1556 -192q-20 -43 -73 -70.5t-143 -27.5q-133 0 -200.5 81t-67.5 229v220q0 69 -30 101.5t-75 32.5q-54 0 -79.5 -45t-27.5 -118v-90q0 -39 16 -60t40 -21v-40h-272v40q24 0 40 21t16 60v494h-200v-494q0 -39 16 -60t40 -21v-40h-272v40q24 0 40 21t16 60v494h-95
q-28 0 -45 -4.5t-32 -19.5q19 -13 30.5 -34t11.5 -45q0 -38 -28 -66t-68 -28q-38 0 -66 28t-28 66v10v0q0 43 26.5 81.5t80 62.5t130.5 24h659v-40q-24 0 -40 -21t-16 -60v-206q16 52 62.5 84.5t113.5 32.5q95 0 145.5 -61t50.5 -180v-239q0 -105 31 -160t89 -55q29 0 43 17
q-18 26 -18 56q0 38 28 66t68 28q38 0 66 -28t28 -66v-1q0 -27 -11 -49z" />
    <glyph glyph-name="V_A" unicode="&#xe067;" horiz-adv-x="1120" 
d="M1043 59q30 -19 57 -19v-40h-285v40q25 0 25 21q0 17 -14 51l-22 55h-276l-68 -167h-104l-235 578q-14 34 -44 53t-57 19v40h285v-40q-25 0 -25 -22q0 -19 13 -51l157 -403l164 404q3 7 5 13t4 11q-17 23 -42 35.5t-46 12.5v40h285v-40q-25 0 -25 -21q0 -17 14 -51
l190 -466q14 -34 44 -53zM773 242l-107 264l-108 -264h215z" />
    <glyph glyph-name="V_i" unicode="&#xe068;" horiz-adv-x="1108" 
d="M877.5 585.5q-25.5 16.5 -40.5 40.5q-67 0 -117.5 -59t-93.5 -157l-167 -410h-103l-235 578q-14 34 -44 53t-57 19v40h285v-40q-25 0 -25 -22q0 -19 13 -51l156 -402l96 235q50 110 94 181.5t110.5 119.5t159.5 48q53 0 83.5 -26.5t30.5 -67.5q0 -40 -27 -68t-67 -28
q-26 0 -51.5 16.5zM1048 61q16 -21 40 -21v-40h-272v40q24 0 40 21t16 60v218q0 39 -16 60t-40 21v40h216v-339q0 -39 16 -60z" />
    <glyph glyph-name="W_A" unicode="&#xe069;" horiz-adv-x="1610" 
d="M1533 59q30 -19 57 -19v-40h-285v40q25 0 25 21q0 17 -14 51l-22 55h-276l-68 -167h-104l-193 475l-193 -475h-104l-235 578q-14 34 -44 53t-57 19v40h285v-40q-25 0 -25 -22q0 -19 13 -51l157 -403l163 400l-2 4q-14 34 -44 53t-57 19v40h286v-40h-8q-18 -3 -18 -22
t13 -51l157 -403l164 404q3 7 5 13t4 11q-17 23 -42 35.5t-46 12.5v40h285v-40q-25 0 -25 -21q0 -17 14 -51l190 -466q14 -34 44 -53zM1263 242l-107 264l-108 -264h215z" />
    <glyph glyph-name="Y_i" unicode="&#xe070;" horiz-adv-x="1085" 
d="M730 671.5q-47 -44.5 -92.5 -110.5t-121.5 -187l-40 -64v-189q0 -39 16 -60t40 -21v-40h-272v40q24 0 40 21t16 60v189l-175 278q-20 30 -56 46t-65 16v40h351v-40q-2 0 -10.5 -4t-15.5 -14.5t-7 -26.5q0 -29 29 -76l80 -126q5 7 8 12.5t6 10.5q78 127 139 212.5
t136.5 148t153.5 62.5q53 0 83.5 -26.5t30.5 -67.5q0 -40 -27 -68t-67 -28q-26 0 -51.5 16.5t-40.5 40.5q-41 0 -88 -44.5zM1025 61q16 -21 40 -21v-40h-272v40q24 0 40 21t16 60v218q0 39 -16 60t-40 21v40h216v-339q0 -39 16 -60z" />
    <glyph glyph-name="i_t" unicode="&#xe072;" horiz-adv-x="642" 
d="M69 548q-28 28 -28 68q0 38 28 66t68 28q38 0 66 -28t28 -66q0 -40 -28 -68t-66 -28q-40 0 -68 28zM622 100q-13 -59 -48.5 -89.5t-91.5 -30.5q-82 0 -121 42.5t-39 147.5v250h-86v-299q0 -39 16 -60t40 -21v-40h-272v40q24 0 40 21t16 60v218q0 39 -16 60t-40 21v40h246
q46 0 86.5 19.5t65 53.5t24.5 77h40v-150h56v-40h-56v-280q0 -56 10.5 -78t34.5 -22q19 0 32.5 16.5t22.5 53.5z" />
    <glyph glyph-name="r_i" unicode="&#xe073;" horiz-adv-x="732" 
d="M346 489q-53 -94 -79.5 -204.5t-30.5 -173.5q2 -34 17.5 -52.5t38.5 -18.5v-40h-272v40q24 0 40 21t16 60v218q0 39 -16 60t-40 21v40h216v-127q0 35 28 131.5t97 181t186 84.5q53 0 83.5 -26.5t30.5 -67.5q0 -40 -27 -68t-67 -28q-26 0 -51.5 16t-40.5 40
q-76 -13 -129 -107zM672 61q16 -21 40 -21v-40h-272v40q24 0 40 21t16 60v218q0 39 -16 60t-40 21v40h216v-339q0 -39 16 -60z" />
    <glyph glyph-name="r_j" unicode="&#xe074;" horiz-adv-x="721" 
d="M346 489q-53 -94 -79.5 -204.5t-30.5 -173.5q2 -34 17.5 -52.5t38.5 -18.5v-40h-272v40q24 0 40 21t16 60v218q0 39 -16 60t-40 21v40h216v-127q0 35 28 131.5t97 181t186 84.5q53 0 83.5 -26.5t30.5 -67.5q0 -40 -27 -68t-67 -28q-26 0 -51.5 16t-40.5 40
q-76 -13 -129 -107zM656 460v-608q0 -78 -40.5 -110t-95.5 -32q-40 0 -70.5 28t-30.5 68q0 38 28 66t68 28q39 0 66.5 -28t27.5 -66q0 -28 -13 -52q29 24 29 62q0 51 -33.5 82.5t-95.5 31.5v409q0 39 -16 60t-40 21v40h216z" />
    <glyph glyph-name="t_i" unicode="&#xe075;" horiz-adv-x="712" 
d="M317.5 56.5q13.5 16.5 22.5 53.5l40 -10q-13 -59 -48.5 -89.5t-91.5 -30.5q-82 0 -121 42.5t-39 147.5v250h-60v40l62 9q52 16 85 53.5t33 87.5h40v-117q86 101 153.5 158.5t132.5 57.5q53 0 83.5 -26.5t30.5 -67.5q0 -40 -25.5 -68t-64.5 -28q-32 0 -58 19.5t-35 50.5
q-29 -10 -57.5 -31t-86.5 -72l-73 -63v-283q0 -56 10.5 -78t34.5 -22q19 0 32.5 16.5zM652 61q16 -21 40 -21v-40h-272v40q24 0 40 21t16 60v218q0 39 -16 60t-40 21v40h216v-339q0 -39 16 -60z" />
    <glyph glyph-name="t_j" unicode="&#xe076;" horiz-adv-x="700" 
d="M317.5 56.5q13.5 16.5 22.5 53.5l40 -10q-13 -59 -48.5 -89.5t-91.5 -30.5q-82 0 -121 42.5t-39 147.5v250h-60v40l62 9q52 16 85 53.5t33 87.5h40v-117q86 101 153.5 158.5t132.5 57.5q53 0 83.5 -26.5t30.5 -67.5q0 -40 -25.5 -68t-64.5 -28q-32 0 -58 19.5t-35 50.5
q-29 -10 -57.5 -31t-86.5 -72l-73 -63v-283q0 -56 10.5 -78t34.5 -22q19 0 32.5 16.5zM635 460v-608q0 -78 -40.5 -110t-95.5 -32q-40 0 -70.5 28t-30.5 68q0 38 28 66t68 28q39 0 66.5 -28t27.5 -66q0 -14 -3 -24l10 -4q9 18 9 38q0 51 -33.5 82.5t-95.5 31.5v409
q0 39 -16 60t-40 21v40h216z" />
    <glyph glyph-name="t_t" unicode="&#xe077;" horiz-adv-x="651" 
d="M631 100q-13 -59 -48.5 -89.5t-91.5 -30.5q-51 0 -84 15t-52 49q-37 -64 -119 -64t-121 42.5t-39 147.5v250h-56v40q46 0 86.5 19.5t65 53.5t24.5 77h40v-150h39q46 0 86.5 19.5t65 53.5t24.5 77h40v-150h56v-40h-56v-280q0 -56 10.5 -78t34.5 -22q19 0 32.5 16.5
t22.5 53.5zM313 56q13 16 22 51q-4 25 -4 63v250h-95v-280q0 -56 10.5 -78t34.5 -22q19 0 32 16z" />
    </font>
</defs>
</svg>
