<?xml version="1.0" standalone="no"?>
<!DOCTYPE svg PUBLIC "-//W3C//DTD SVG 1.1//EN" "http://www.w3.org/Graphics/SVG/1.1/DTD/svg11.dtd" >
<svg xmlns="http://www.w3.org/2000/svg" xmlns:xlink="http://www.w3.org/1999/xlink" version="1.1">
<metadata>
Created by FontForge 20170731 at Wed Sep 25 00:42:49 2019
 By Aleksey,,,
Sweetest Goods
</metadata>
<defs>
<font id="Celesse-Regular" horiz-adv-x="0" >
  <font-face 
    font-family="Celesse"
    font-weight="400"
    font-stretch="normal"
    units-per-em="1000"
    panose-1="0 0 5 0 0 0 0 0 0 0"
    ascent="750"
    descent="-250"
    x-height="400"
    cap-height="690"
    bbox="-456 -260 1134 930"
    underline-thickness="50"
    underline-position="-150"
    unicode-range="U+0020-2265"
  />
<missing-glyph horiz-adv-x="180" 
 />
    <glyph glyph-name=".notdef" horiz-adv-x="180" 
 />
    <glyph glyph-name=".null" 
 />
    <glyph glyph-name="nonmarkingreturn" horiz-adv-x="333" 
 />
    <glyph glyph-name="space" unicode=" " horiz-adv-x="180" 
 />
    <glyph glyph-name="exclam" unicode="!" horiz-adv-x="199" 
d="M80.5 378.5q-14.5 71.5 -38.5 143.5q-12 38 -17 58t-5 40q0 32 23.5 55.5t56.5 23.5q32 0 55.5 -23.5t23.5 -55.5q0 -20 -5 -40t-17 -58q-24 -74 -38 -145t-14 -177h-10q0 107 -14.5 178.5zM43 14.5q-23 23.5 -23 56.5q0 32 23.5 55.5t56.5 23.5q32 0 55.5 -23.5
t23.5 -55.5q0 -33 -23 -56.5t-56 -23.5q-34 0 -57 23.5z" />
    <glyph glyph-name="quotedbl" unicode="&#x22;" horiz-adv-x="428" 
d="M72.5 468q-12.5 48 -33.5 94q-10 25 -14.5 38t-4.5 26q0 29 20 51t48 22q27 0 47.5 -22t20.5 -51q0 -23 -19 -64q-21 -50 -32.5 -96t-11.5 -119h-8q0 73 -12.5 121zM248 467q-12 47 -33 95q-19 41 -19 64q0 29 20.5 51t47.5 22t45.5 -21.5t18.5 -50.5q0 -13 -4 -26
t-14 -38q-20 -51 -31 -97t-11 -119h-8q0 73 -12 120z" />
    <glyph glyph-name="numbersign" unicode="#" horiz-adv-x="579" 
d="M453 464l-73 -219h119v-11h-122l-73 -220l-10 4l71 216h-218l-73 -220l-10 4l71 216h-115v11h119l73 219h-132v11h135l70 211l10 -4l-68 -207h218l70 211l10 -4l-68 -207h102v-11h-106zM442 464h-219l-73 -219h219z" />
    <glyph glyph-name="dollar" unicode="$" horiz-adv-x="585" 
d="M311 430q8 -4 19 -9q66 -31 107 -57t70.5 -67.5t29.5 -100.5q0 -43 -28.5 -90t-92 -81t-161.5 -35l-5 -49l-10 2l4 47q-75 1 -134 33t-81 76q-9 18 -9 35q0 21 11.5 39t31.5 28q15 8 35 8q21 0 39.5 -10.5t27.5 -30.5q9 -18 9 -35q0 -37 -42 -67q-4 -2 -4 -7q0 -6 5 -11
q15 -18 44.5 -31t68.5 -14l24 267l-18 9q-65 31 -106 57t-70 67t-29 100q0 40 24 84.5t82.5 77t156.5 33.5l5 52l10 -2l-5 -50q75 -1 134 -33t82 -76q9 -18 9 -35q0 -21 -11.5 -39t-31.5 -28q-15 -8 -35 -8q-21 0 -39.5 10.5t-27.5 30.5q-9 18 -9 35q0 37 42 67q4 2 4 7
q0 6 -5 11q-15 18 -44.5 31.5t-68.5 13.5l-23 -248q7 -3 15 -7zM207.5 495q27.5 -27 78.5 -53l23 243q-76 -2 -102.5 -39.5t-26.5 -85.5q0 -38 27.5 -65zM342 27.5q33 23.5 47.5 54.5t14.5 57q0 41 -31.5 69t-92.5 58l-24 -263q53 1 86 24.5z" />
    <glyph glyph-name="percent" unicode="%" horiz-adv-x="650" 
d="M558 703l-434 -715l-10 4l434 715zM39.5 609q19.5 33 52.5 52t72 19t72 -19t52 -52t19 -71q0 -39 -19 -72t-52 -52t-72 -19t-72 19t-52.5 52t-19.5 72q0 38 19.5 71zM164 401q41 0 41 136q0 63 -9 100t-32 37q-41 0 -41 -137q0 -136 41 -136zM362.5 209q19.5 33 52.5 52
t72 19t72 -19t52 -52t19 -71q0 -39 -19 -72t-52 -52t-72 -19t-72 19t-52.5 52t-19.5 72q0 38 19.5 71zM487 1q41 0 41 136q0 63 -9 100t-32 37q-41 0 -41 -137q0 -136 41 -136z" />
    <glyph glyph-name="ampersand" unicode="&#x26;" horiz-adv-x="861" 
d="M841 168q0 -35 -14 -76t-48.5 -71t-90.5 -30q-46 0 -108.5 35.5t-129.5 96.5q-23 -50 -68.5 -91t-111.5 -41q-71 1 -128 24.5t-89.5 68t-32.5 105.5q0 85 67 129.5t153 58.5q-53 93 -53 153q0 46 22 84.5t63.5 61t96.5 22.5q37 0 76.5 -18t66 -53t26.5 -82
q0 -64 -48.5 -101t-112.5 -54q46 -69 103 -132q10 35 37.5 66t65 50t76.5 19q26 0 51 -9q67 -26 86 -78q4 -9 4 -21q0 -21 -13 -37.5t-32 -21.5q-10 -3 -20 -3q-19 0 -34.5 10.5t-22.5 28.5q-4 9 -4 21q0 34 40 56q18 8 12 18q-6 7 -21 15q-22 8 -42 8q-37 0 -73.5 -19
t-63.5 -50t-35 -65q70 -76 138 -123.5t113 -47.5q40 0 61.5 27t25.5 66h12zM319.5 656.5q-20.5 -28.5 -20.5 -77.5q0 -64 66 -170q34 20 58.5 53.5t24.5 82.5q0 58 -22.5 99t-56.5 41q-29 0 -49.5 -28.5zM360 38q29 17 44 37.5t36 55.5q-54 50 -103.5 109.5t-85.5 117.5
q-43 -16 -68 -53t-25 -116q0 -77 37 -122.5t95 -45.5q41 0 70 17z" />
    <glyph glyph-name="quotesingle" unicode="'" horiz-adv-x="156" 
d="M62.5 468q-12.5 48 -33.5 94q-10 25 -14.5 38t-4.5 26q0 29 20 51t48 22q27 0 47.5 -22t20.5 -51q0 -23 -19 -64q-21 -50 -32.5 -96t-11.5 -119h-8q0 73 -12.5 121z" />
    <glyph glyph-name="parenleft" unicode="(" horiz-adv-x="416" 
d="M376 708q-46 -36 -93 -98t-79.5 -151.5t-32.5 -195.5t33 -196t79.5 -152.5t92.5 -98.5l-6 -21q-69 35 -147.5 96t-140.5 157.5t-62 214.5t62 214t140.5 156.5t147.5 95.5z" />
    <glyph glyph-name="parenright" unicode=")" horiz-adv-x="376" 
d="M163.5 633.5q78.5 -60.5 140.5 -156.5t62 -214t-62 -214.5t-140.5 -157.5t-147.5 -96l-6 21q46 36 92.5 98.5t79.5 152.5t33 196t-32.5 195.5t-79.5 151.5t-93 98l6 21q69 -35 147.5 -95.5z" />
    <glyph glyph-name="asterisk" unicode="*" horiz-adv-x="360" 
d="M343 507q7 -12 7 -25q0 -21 -14.5 -33.5t-33.5 -12.5q-15 0 -26 7q-14 8 -21.5 18t-14.5 25q-9 19 -21 34t-37 30q1 -29 7.5 -45.5t19.5 -37.5q10 -15 14.5 -25.5t4.5 -25.5q0 -21 -14 -36t-34 -15q-19 0 -33.5 15.5t-14.5 35.5q0 15 4.5 25.5t14.5 25.5q13 21 19.5 37.5
t7.5 45.5q-25 -15 -37 -30t-21 -34q-7 -15 -14.5 -25t-21.5 -18q-11 -7 -26 -7q-13 0 -24 6t-18 17q-6 11 -6 22q0 14 7 26.5t19 19.5q17 10 38 10q8 0 16.5 -1t18.5 -1q33 0 66 19q-33 19 -66 19q-10 0 -18.5 -1t-17.5 -1q-20 0 -37 10q-12 7 -19 19.5t-7 26.5q0 12 6 22
q7 11 18 17t24 6q15 0 26 -7q14 -8 21.5 -18t14.5 -25q9 -19 21 -34t37 -30q-1 29 -7.5 45.5t-19.5 37.5q-10 15 -14.5 25.5t-4.5 25.5q0 20 14.5 35.5t33.5 15.5q20 0 34 -15t14 -36q0 -15 -4.5 -25.5t-14.5 -25.5q-13 -21 -19.5 -37.5t-7.5 -45.5q25 15 37 30t21 34
q7 15 14.5 25t21.5 18q12 6 25 6t24.5 -6t18.5 -17q6 -10 6 -22q0 -13 -7 -25t-19 -20q-18 -10 -38 -10q-8 0 -16.5 1t-18.5 1q-33 0 -66 -19q33 -19 66 -19q10 0 19 1t17 1q21 0 37 -10q12 -8 19 -20z" />
    <glyph glyph-name="plus" unicode="+" horiz-adv-x="370" 
d="M350 184h-157v-158h-15v158h-158v15h157v157h16v-157h157v-15z" />
    <glyph glyph-name="comma" unicode="," horiz-adv-x="199" 
d="M43.5 126.5q23.5 23.5 56.5 23.5t56 -23.5t23 -55.5q0 -57 -28 -100t-85 -59l-2 8q41 11 64.5 40t29.5 66q-5 -16 -21.5 -25.5t-36.5 -9.5q-34 0 -57 23.5t-23 56.5q0 32 23.5 55.5z" />
    <glyph glyph-name="hyphen" unicode="-" horiz-adv-x="320" 
d="M280 234v-85h-240v85h240z" />
    <glyph glyph-name="period" unicode="." horiz-adv-x="199" 
d="M43 14.5q-23 23.5 -23 56.5q0 32 23.5 55.5t56.5 23.5q32 0 55.5 -23.5t23.5 -55.5q0 -33 -23 -56.5t-56 -23.5q-34 0 -57 23.5z" />
    <glyph glyph-name="slash" unicode="/" horiz-adv-x="337" 
d="M317 718l-287 -868l-10 4l287 868z" />
    <glyph glyph-name="zero" unicode="0" horiz-adv-x="546" 
d="M48 521.5q38 81.5 99 129.5t127 48q64 0 125 -48t99 -129.5t38 -175.5q0 -95 -38 -176.5t-99 -130t-125 -48.5q-66 0 -127 48t-99 130t-38 177q0 94 38 175.5zM173.5 179q13.5 -78 40 -126.5t61.5 -48.5q34 0 59 48.5t38.5 126.5t13.5 166q0 91 -13 169t-38.5 125
t-59.5 47q-36 0 -62 -47t-39.5 -125t-13.5 -169q0 -88 13.5 -166z" />
    <glyph glyph-name="one" unicode="1" horiz-adv-x="322" 
d="M266.5 38q14.5 -18 45.5 -18v-20h-270v20q31 0 45.5 18t14.5 62v380q0 46 -25 46q-20 0 -67 -30l-7 15q83 57 128 94.5t101 93.5h20v-599q0 -44 14.5 -62z" />
    <glyph glyph-name="two" unicode="2" horiz-adv-x="522" 
d="M451 167q22 16 28 47l20 -4l-15 -69l-30 -140h-434l30 150q10 46 47 88t104 100q51 45 80.5 74.5t50 64.5t20.5 72q0 68 -24.5 102t-78.5 34q-35 0 -66 -14.5t-31 -29.5q0 -9 12 -13q22 -9 35.5 -28t13.5 -43q0 -32 -24.5 -55t-58.5 -23t-58 23t-24 55q0 48 35.5 80
t82.5 46.5t83 14.5q44 0 102 -13t104.5 -50.5t46.5 -104.5q0 -45 -32 -82t-78 -65t-122 -67q-65 -33 -103.5 -55.5t-67.5 -50.5t-36 -60h323q43 0 65 16z" />
    <glyph glyph-name="three" unicode="3" horiz-adv-x="562" 
d="M44 189q24 23 58 23t58.5 -23t24.5 -55q0 -24 -13.5 -43t-35.5 -28q-12 -4 -12 -13t17 -19.5t46.5 -17.5t63.5 -7q71 0 106 54.5t35 130.5q0 42 -16.5 80.5t-40 62.5t-44.5 24h-62v13h62q21 1 42 22t35 56t14 74q0 162 -131 162q-33 0 -60 -6.5t-42.5 -16.5t-15.5 -20
q0 -8 13 -14q22 -9 35.5 -28t13.5 -43q0 -32 -24.5 -55t-58.5 -23t-58 23t-24 55q0 72 67 106.5t154 34.5q118 0 199.5 -42.5t81.5 -131.5q0 -54 -27.5 -90t-70 -53t-87.5 -17q44 0 89.5 -20.5t75.5 -59.5t30 -93q0 -61 -42.5 -106t-109.5 -68.5t-139 -23.5q-55 0 -108 14
t-88 46t-35 81q0 32 24 55z" />
    <glyph glyph-name="four" unicode="4" horiz-adv-x="553" 
d="M420 235v-135q0 -44 14.5 -62t45.5 -18v-20h-270v20q31 0 45.5 18t14.5 62v135h-260v13l260 442h150v-442h123v-13h-123zM270 248v413l-243 -413h243z" />
    <glyph glyph-name="five" unicode="5" horiz-adv-x="495" 
d="M355.5 373.5q56.5 -27.5 90.5 -74.5t34 -101q0 -56 -34 -103.5t-90.5 -75.5t-118.5 -28q-66 0 -118 17.5t-80.5 49t-28.5 72.5q0 32 23 55t55 23t55 -23t23 -55q0 -54 18 -92t53 -38q37 0 57 57.5t20 138.5q0 66 -4 104t-20.5 63t-52.5 25q-69 0 -103 -27.5t-47.5 -51
t-16.5 -28.5h-13l82 409h234q43 0 64.5 16t27.5 47l20 -4l-14 -69l-28 -140h-321l-46 -231q28 46 67.5 69t93.5 23q62 0 118.5 -27.5z" />
    <glyph glyph-name="six" unicode="6" horiz-adv-x="525" 
d="M72.5 477.5q52.5 99.5 150.5 160.5t229 61v-9q-87 0 -145.5 -54t-88.5 -125.5t-37 -128.5q14 23 38.5 39.5t57.5 16.5q68 0 122 -29.5t85 -82t31 -118.5q0 -56 -33 -106.5t-88 -80.5t-117 -30q-68 0 -126 28.5t-94.5 90t-36.5 155.5q0 113 52.5 212.5zM185.5 108.5
q15.5 -53.5 40 -81t51.5 -27.5q26 0 46 30.5t31 78.5t11 99q0 96 -18 153.5t-70 57.5q-57 0 -82 -54t-25 -127q0 -76 15.5 -129.5z" />
    <glyph glyph-name="seven" unicode="7" horiz-adv-x="602" 
d="M471 533q-53 -72 -87.5 -121.5t-58.5 -92.5q-26 -46 -35 -77t-9 -62l1 -34q2 -28 2 -47q0 -45 -29.5 -76.5t-74.5 -31.5t-74.5 32t-29.5 78q0 40 24 79t63 77.5t107 95.5q62 52 112.5 104.5t69.5 82.5h-313q-43 0 -66.5 -16t-33.5 -47l-19 6l69 207h493
q-40 -59 -111 -157z" />
    <glyph glyph-name="eight" unicode="8" horiz-adv-x="584" 
d="M518 317q46 -47 46 -121q0 -44 -26.5 -91.5t-88.5 -81t-162 -33.5q-84 0 -144.5 25t-91.5 64t-31 81q0 74 50.5 113.5t119.5 56.5q-59 34 -92.5 75t-33.5 98q0 42 24.5 87.5t78 76.5t135.5 31q54 0 107.5 -19t88 -53.5t34.5 -77.5q0 -54 -39.5 -87.5t-103.5 -54.5
q83 -42 129 -89zM216.5 650.5q-29.5 -34.5 -29.5 -80.5q0 -34 23 -59.5t54 -43t95 -47.5q30 25 46.5 59.5t16.5 84.5q0 46 -28.5 83.5t-91.5 37.5q-56 0 -85.5 -34.5zM259 340zM399 44q32 41 32 95q0 32 -21 57.5t-53 45t-86 45.5q-15 8 -27.5 14.5t-22.5 11.5
q-40 -21 -65.5 -57t-25.5 -96q0 -29 14 -65t49 -64t94 -28q80 0 112 41z" />
    <glyph glyph-name="nine" unicode="9" horiz-adv-x="535" 
d="M462.5 212.5q-52.5 -99.5 -150.5 -160.5t-229 -61v9q87 0 145.5 54t88.5 125.5t37 128.5q-14 -23 -38.5 -39.5t-57.5 -16.5q-68 0 -122 29.5t-85 82t-31 118.5q0 56 33 106.5t88 80.5t117 30q68 0 126 -28.5t94.5 -90t36.5 -155.5q0 -113 -52.5 -212.5zM349.5 581.5
q-15.5 53.5 -40 81t-51.5 27.5q-26 0 -46 -30.5t-31 -78.5t-11 -99q0 -96 18 -153.5t70 -57.5q57 0 82 54t25 127q0 76 -15.5 129.5z" />
    <glyph glyph-name="colon" unicode=":" horiz-adv-x="199" 
d="M43 273.5q-23 23.5 -23 56.5q0 32 23.5 55.5t56.5 23.5q32 0 55.5 -23.5t23.5 -55.5q0 -33 -23 -56.5t-56 -23.5q-34 0 -57 23.5zM43 14.5q-23 23.5 -23 56.5q0 32 23.5 55.5t56.5 23.5q32 0 55.5 -23.5t23.5 -55.5q0 -33 -23 -56.5t-56 -23.5q-34 0 -57 23.5z" />
    <glyph glyph-name="semicolon" unicode=";" horiz-adv-x="199" 
d="M43 273.5q-23 23.5 -23 56.5q0 32 23.5 55.5t56.5 23.5q32 0 55.5 -23.5t23.5 -55.5q0 -33 -23 -56.5t-56 -23.5q-34 0 -57 23.5zM43.5 126.5q23.5 23.5 56.5 23.5t56 -23.5t23 -55.5q0 -57 -28 -100t-85 -59l-2 8q41 11 64.5 40t29.5 66q-5 -16 -21.5 -25.5t-36.5 -9.5
q-34 0 -57 23.5t-23 56.5q0 32 23.5 55.5z" />
    <glyph glyph-name="less" unicode="&#x3c;" horiz-adv-x="414" 
d="M32 194l362 -171l-6 -11l-368 171v22l368 171l6 -11z" />
    <glyph glyph-name="equal" unicode="=" horiz-adv-x="410" 
d="M370 259v-15h-330v15h330zM370 139v-15h-330v15h330z" />
    <glyph glyph-name="greater" unicode="&#x3e;" horiz-adv-x="414" 
d="M394 205v-22l-368 -171l-6 11l362 171l-362 171l6 11z" />
    <glyph glyph-name="question" unicode="?" horiz-adv-x="551" 
d="M113 667q61 32 137 32q74 0 137.5 -19.5t103.5 -61t40 -103.5q0 -47 -23.5 -81.5t-57 -57.5t-86.5 -52q-58 -32 -85 -53.5t-30 -51.5h-14q0 34 17 64t53 76q38 47 57 82t19 74q0 60 -20 99.5t-50 57.5t-61 18q-41 0 -71 -14.5t-46 -34.5q-5 -5 -5 -11q0 -5 4 -7
q42 -30 42 -67q0 -17 -9 -35q-9 -20 -27.5 -30.5t-39.5 -10.5q-20 0 -35 8q-20 10 -31.5 28t-11.5 39q0 17 9 35q23 45 84 77zM185.5 126.5q23.5 23.5 56.5 23.5q32 0 55.5 -23.5t23.5 -55.5q0 -33 -23 -56.5t-56 -23.5q-34 0 -57 23.5t-23 56.5q0 32 23.5 55.5z" />
    <glyph glyph-name="at" unicode="@" horiz-adv-x="786" 
d="M581.5 544q85.5 -45 135 -125.5t49.5 -181.5q0 -91 -46 -138.5t-118 -47.5q-66 0 -117.5 30.5t-57.5 83.5q-44 -113 -130 -113q-32 0 -65.5 18.5t-55.5 50.5t-22 71q0 68 42 117t104 74t120 25q42 0 85 -19.5t70.5 -51.5t27.5 -67q0 -7 -1 -11q-2 -18 -13 -79
q-1 -8 -6 -38.5t-5 -46.5t5.5 -23.5t18.5 -7.5q36 0 70.5 18t57.5 56.5t23 98.5q0 97 -48 174.5t-130.5 121.5t-181.5 44q-98 0 -180.5 -48.5t-131 -131.5t-48.5 -180q0 -98 48.5 -181t131 -131.5t180.5 -48.5q45 0 84.5 9.5t79.5 30.5l11 -9q-84 -43 -175 -43
q-101 0 -187 50t-136 136t-50 187t50 186.5t136 135.5t187 50q103 0 188.5 -45zM408.5 153.5q20.5 48.5 29.5 98.5q8 44 10 67q1 8 1 22q0 31 -8.5 43.5t-20.5 12.5q-33 0 -59.5 -29.5t-41.5 -75.5t-15 -93q0 -59 16 -76.5t36 -17.5q32 0 52.5 48.5z" />
    <glyph glyph-name="A" unicode="A" horiz-adv-x="705" 
d="M685 20v-20h-288v20q19 0 27.5 5.5t8.5 18.5t-13 49l-32 80h-234l-27 -78q-10 -29 -10 -46q0 -16 9 -22.5t29 -6.5v-20h-135v20q32 0 55 17t37 58l204 595h14l256 -598q30 -72 99 -72zM383 186l-122 302l-103 -302h225z" />
    <glyph glyph-name="B" unicode="B" horiz-adv-x="549" 
d="M443 315q39 -25 62.5 -61.5t23.5 -77.5q0 -47 -30 -87.5t-78 -64.5t-100 -24h-301v20q31 0 45.5 18t14.5 62v490q0 44 -14.5 62t-45.5 18v20h278q52 0 100 -24t78 -64.5t30 -86.5q0 -56 -42.5 -102.5t-104.5 -64.5q45 -8 84 -33zM230 677v-326h34q52 0 72 45t20 118
q0 75 -20 119t-72 44h-34zM379 176q0 75 -20 119t-71 44h-58v-326h58q91 0 91 163z" />
    <glyph glyph-name="C" unicode="C" horiz-adv-x="683" 
d="M275.5 644.5q-46.5 -44.5 -66.5 -111t-20 -136.5q0 -110 38.5 -179.5t93.5 -99.5t106 -30q66 0 130 31t94 130l12 -6q-31 -117 -102.5 -184.5t-172.5 -67.5q-88 0 -168 40.5t-130 118t-50 180.5q0 101 43.5 186t126 135.5t193.5 50.5q31 1 59 -4t74 -16q48 -11 63 -11
q23 0 23 19h20l3 -246h-20q-11 39 -36.5 94t-74.5 103t-116 48q-76 0 -122.5 -44.5z" />
    <glyph glyph-name="D" unicode="D" horiz-adv-x="716" 
d="M650 172.5q-47 -79.5 -130.5 -126t-186.5 -46.5h-313v20q31 0 45.5 18t14.5 62v490q0 44 -14.5 62t-45.5 18v20h313q102 0 185 -46t130.5 -125t47.5 -172q1 -95 -46 -174.5zM423.5 60q62.5 47 92.5 122.5t30 163.5q0 91 -29.5 166t-92.5 120t-157 45h-37v-664h37
q94 0 156.5 47z" />
    <glyph glyph-name="E" unicode="E" horiz-adv-x="564" 
d="M230 677v-325h100q44 0 62 14.5t18 45.5h20v-133h-20q0 31 -18 45.5t-62 14.5h-100v-326h160q38 0 65 73t49 161h20v-247h-10h-144h-350v20q31 0 45.5 18t14.5 62v490q0 44 -14.5 62t-45.5 18v20h350h144h10v-247h-20q-22 88 -49 161t-65 73h-160z" />
    <glyph glyph-name="F" unicode="F" horiz-adv-x="564" 
d="M524 690v-247h-20q-22 88 -49 161t-65 73h-160v-325h100q44 0 62 14.5t18 45.5h20v-133h-20q0 31 -18 45.5t-62 14.5h-100v-239q0 -44 14.5 -62t45.5 -18v-20h-270v20q31 0 45.5 18t14.5 62v490q0 44 -14.5 62t-45.5 18v20h350h144h10z" />
    <glyph glyph-name="G" unicode="G" horiz-adv-x="743" 
d="M723 269q-31 0 -45.5 -18t-14.5 -62v-89q-38 -50 -113 -79.5t-162 -29.5q-88 0 -168 40.5t-130 118t-50 180.5q0 101 43.5 185.5t126 134t193.5 49.5q49 1 130 -18q7 -1 29 -5.5t35 -4.5q25 0 25 19h20l3 -246h-20q-11 39 -36.5 93.5t-74 101.5t-116.5 47
q-76 0 -122.5 -44t-66.5 -109.5t-20 -135.5q0 -114 31 -204t81.5 -139.5t105.5 -49.5q49 0 75 28t31 68v89q0 44 -14.5 62t-45.5 18v20h270v-20z" />
    <glyph glyph-name="H" unicode="H" horiz-adv-x="680" 
d="M614.5 652q-14.5 -18 -14.5 -62v-490q0 -44 14.5 -62t45.5 -18v-20h-270v20q31 0 45.5 18t14.5 62v245h-220v-245q0 -44 14.5 -62t45.5 -18v-20h-270v20q31 0 45.5 18t14.5 62v490q0 44 -14.5 62t-45.5 18v20h270v-20q-31 0 -45.5 -18t-14.5 -62v-232h220v232
q0 44 -14.5 62t-45.5 18v20h270v-20q-31 0 -45.5 -18z" />
    <glyph glyph-name="I" unicode="I" horiz-adv-x="310" 
d="M65.5 652q-14.5 18 -45.5 18v20h270v-20q-31 0 -45.5 -18t-14.5 -62v-490q0 -44 14.5 -62t45.5 -18v-20h-270v20q31 0 45.5 18t14.5 62v490q0 44 -14.5 62z" />
    <glyph glyph-name="J" unicode="J" horiz-adv-x="470" 
d="M43 192.5q23 22.5 54 22.5q32 0 54.5 -22.5t22.5 -54.5q0 -28 -18.5 -47.5t-34.5 -25.5q-7 -3 -7 -11q0 -10 9.5 -22.5t27 -22t39.5 -9.5q23 0 36.5 19t13.5 56v515q0 44 -14.5 62t-45.5 18v20h270v-20q-31 0 -45.5 -18t-14.5 -62v-430q0 -53 -28.5 -91.5t-74.5 -58.5
t-97 -20q-47 0 -86 23.5t-61.5 58t-22.5 66.5t23 54.5z" />
    <glyph glyph-name="K" unicode="K" horiz-adv-x="700" 
d="M680 20v-20h-280v20q18 0 25.5 4.5t7.5 14.5q0 16 -18 50l-125 252l-60 -86v-155q0 -44 14.5 -62t45.5 -18v-20h-270v20q31 0 45.5 18t14.5 62v490q0 44 -14.5 62t-45.5 18v20h270v-20q-31 0 -45.5 -18t-14.5 -62v-312l232 330q26 38 26 49q0 7 -7 10t-22 3v20h136v-20
q-74 0 -117 -62l-94 -134l191 -384q35 -70 105 -70z" />
    <glyph glyph-name="L" unicode="L" horiz-adv-x="545" 
d="M505 247v-247h-10h-144h-331v20q31 0 45.5 18t14.5 62v490q0 44 -14.5 62t-45.5 18v20h270v-20q-31 0 -45.5 -18t-14.5 -62v-577h141q38 0 65 73t49 161h20z" />
    <glyph glyph-name="M" unicode="M" horiz-adv-x="840" 
d="M774.5 652q-14.5 -18 -14.5 -62v-490q0 -44 14.5 -62t45.5 -18v-20h-270v20q31 0 45.5 18t14.5 62v555l-223 -655h-12l-256 598q-7 15 -15 28v-526q0 -44 14.5 -62t45.5 -18v-20h-133v20q31 0 45.5 18t14.5 62v542q-27 28 -71 28v20h228l196 -487l166 487h210v-20
q-31 0 -45.5 -18z" />
    <glyph glyph-name="N" unicode="N" horiz-adv-x="683" 
d="M663 670q-31 0 -45.5 -18t-14.5 -62v-590h-13l-451 610q-14 19 -35 35v-545q0 -44 14.5 -62t45.5 -18v-20h-133v20q31 0 45.5 18t14.5 62v553q-30 17 -71 17v20h228l342 -446v346q0 44 -14.5 62t-45.5 18v20h133v-20z" />
    <glyph glyph-name="O" unicode="O" horiz-adv-x="775" 
d="M88.5 523.5q48.5 81.5 131 130t180.5 48.5q96 0 177.5 -48.5t129.5 -130t48 -177.5t-48 -178.5t-129.5 -131t-177.5 -48.5q-98 0 -180.5 48.5t-131 130.5t-48.5 179q0 96 48.5 177.5zM247 178q21 -79 60.5 -128t92.5 -49q52 0 90.5 49t58.5 128t20 167q0 91 -20 170
t-58.5 126.5t-90.5 47.5q-53 0 -92.5 -47.5t-60.5 -126.5t-21 -170q0 -88 21 -167z" />
    <glyph glyph-name="P" unicode="P" horiz-adv-x="557" 
d="M429 664q50 -26 79 -70t29 -96q0 -53 -29 -98t-79 -71t-112 -26h-87v-203q0 -44 14.5 -62t45.5 -18v-20h-270v20q31 0 45.5 18t14.5 62v490q0 44 -14.5 62t-45.5 18v20h297q62 0 112 -26zM387 497q0 84 -24.5 134.5t-85.5 50.5h-47v-370h47q110 0 110 185z" />
    <glyph glyph-name="Q" unicode="Q" horiz-adv-x="795" 
d="M705 -94.5q23 8.5 32 20.5h8q0 -26 -14.5 -67.5t-50.5 -75t-95 -33.5q-33 0 -66.5 12t-81.5 35q-35 17 -57.5 25.5t-40.5 8.5q-37 0 -55 -17.5t-22 -41.5l-1 -12h-13q8 92 28 140.5t72 94.5q-87 12 -157 61.5t-110.5 125.5t-40.5 164q0 96 48 177t130.5 128.5t180.5 47.5
q96 0 178 -47.5t130 -129t48 -176.5q0 -96 -48 -177.5t-130 -129.5t-178 -48q-13 0 -37 2q-38 -33 -58.5 -66t-30.5 -80q21 43 56 70t73 27q25 0 49.5 -5.5t63.5 -16.5q43 -13 71.5 -19t60.5 -6q35 0 58 8.5zM247 179q21 -78 60.5 -126.5t92.5 -48.5q52 0 90.5 48.5
t58.5 126.5t20 166q0 91 -20 169t-58 125t-91 47q-54 0 -93 -47t-60 -125t-21 -169q0 -88 21 -166z" />
    <glyph glyph-name="R" unicode="R" horiz-adv-x="680" 
d="M594 37q24 -17 56 -17v-20h-70h-62q-50 0 -83.5 39t-53.5 96q-46 134 -151 192v-227q0 -44 14.5 -62t45.5 -18v-20h-270v20q31 0 45.5 18t14.5 62v490q0 44 -14.5 62t-45.5 18v20h297q61 0 111.5 -25t79.5 -66.5t29 -89.5q0 -50 -28.5 -91t-79 -64.5t-112.5 -23.5h-23
q85 0 136.5 -34t76.5 -81.5t48 -120.5q15 -40 39 -57zM230 680v-337h47q61 0 85.5 45t24.5 120q0 78 -24.5 125t-85.5 47h-47z" />
    <glyph glyph-name="S" unicode="S" horiz-adv-x="550" 
d="M170 -5.5q-27 5.5 -64 15.5q-22 8 -33 8q-8 0 -11 -4.5t-3 -14.5h-20l-3 246h20q1 -2 5 -30q7 -54 19.5 -97.5t47 -79t95.5 -35.5q55 0 89.5 23t49.5 54.5t15 58.5q0 32 -20 56t-49 41.5t-82 42.5q-67 32 -107.5 57t-69.5 66.5t-29 100.5q0 39 23.5 83t81 77t153.5 35
q36 1 63 -4.5t64 -15.5q22 -8 33 -8q8 0 11 4.5t3 14.5h20l3 -246h-20q-1 2 -5 30q-7 54 -19.5 97.5t-47 79t-95.5 35.5q-79 0 -107 -38t-28 -87q0 -32 20 -56t49 -41.5t82 -42.5q67 -32 107.5 -57t69.5 -66.5t29 -100.5q0 -42 -28 -89t-90.5 -81t-158.5 -36q-36 -1 -63 4.5
z" />
    <glyph glyph-name="T" unicode="T" horiz-adv-x="638" 
d="M598 690v-247h-20q-22 88 -49 161t-65 73h-80v-577q0 -44 14.5 -62t45.5 -18v-20h-270v20q31 0 45.5 18t14.5 62v577h-80q-38 0 -65 -73t-49 -161h-20v247h10h144h270h144h10z" />
    <glyph glyph-name="U" unicode="U" horiz-adv-x="637" 
d="M617 670q-31 0 -45.5 -18t-14.5 -62v-396q0 -76 -36.5 -121.5t-86 -63.5t-93.5 -18q-51 0 -111 17.5t-105 62.5t-45 123v240v156q0 44 -14.5 62t-45.5 18v20h270v-20q-31 0 -45.5 -18t-14.5 -62v-159v-237q0 -38 14 -79.5t47 -71t85 -29.5q39 0 78 20.5t64.5 61
t25.5 98.5v396q0 44 -14.5 62t-45.5 18v20h133v-20z" />
    <glyph glyph-name="V" unicode="V" horiz-adv-x="722" 
d="M682 670q-32 0 -55 -17t-37 -58l-203 -595h-12l-256 598q-30 72 -99 72v20h288v-20q-19 0 -27.5 -5.5t-8.5 -18.5t13 -49l159 -395l134 393q10 29 10 46q0 16 -9 22.5t-29 6.5v20h132v-20z" />
    <glyph glyph-name="W" unicode="W" horiz-adv-x="1174" 
d="M1134 670q-32 0 -55 -17t-37 -58l-203 -595h-12l-245 572l-195 -572h-12l-256 598q-30 72 -99 72v20h288v-20q-19 0 -27.5 -5.5t-8.5 -18.5t13 -49l159 -395l131 386l-4 10q-30 72 -99 72v20h288v-20q-19 0 -27.5 -5.5t-8.5 -18.5t13 -49l159 -395l134 393q10 29 10 46
q0 16 -9 22.5t-29 6.5v20h132v-20z" />
    <glyph glyph-name="X" unicode="X" horiz-adv-x="695" 
d="M655 20v-20h-288v20q18 0 25.5 4.5t7.5 14.5q0 16 -18 50l-98 197l-133 -201q-25 -37 -25 -50q0 -7 7 -10t23 -3v-20h-136v20q73 0 115 63l142 215l-150 301q-35 69 -105 69v20h288v-20q-18 0 -25.5 -4.5t-7.5 -14.5q0 -15 18 -50l77 -156l107 162q25 38 25 50q0 7 -7 10
t-23 3v20h136v-20q-73 0 -115 -63l-116 -175l171 -343q35 -69 105 -69z" />
    <glyph glyph-name="Y" unicode="Y" horiz-adv-x="722" 
d="M682 670q-69 0 -103 -70l-117 -244v-256q0 -44 14.5 -62t45.5 -18v-20h-270v20q31 0 45.5 18t14.5 62v205l-180 299q-39 66 -112 66v20h288v-20q-16 0 -23 -3t-7 -10t6 -18.5t20 -31.5l156 -231l107 224q17 36 17 50q0 11 -8 15.5t-26 4.5v20h132v-20z" />
    <glyph glyph-name="Z" unicode="Z" horiz-adv-x="592" 
d="M448 86q27 73 49 161h20v-247h-10h-144h-343l357 677h-200q-38 0 -65 -73t-49 -161h-20v247h10h144h355l-357 -677h188q38 0 65 73z" />
    <glyph glyph-name="bracketleft" unicode="[" horiz-adv-x="296" 
d="M97 720v-917h189v-9h-276v935h276v-9h-189z" />
    <glyph glyph-name="backslash" unicode="\" horiz-adv-x="317" 
d="M307 -146l-10 -4l-287 868l10 4z" />
    <glyph glyph-name="bracketright" unicode="]" horiz-adv-x="296" 
d="M286 -206h-276v9h189v917h-189v9h276v-935z" />
    <glyph glyph-name="asciicircum" unicode="^" horiz-adv-x="382" 
d="M372 341l-11 -6l-170 362l-170 -362l-11 6l170 368h22z" />
    <glyph glyph-name="underscore" unicode="_" horiz-adv-x="410" 
d="M370 0v-15h-330v15h330z" />
    <glyph glyph-name="grave" unicode="`" horiz-adv-x="448" 
d="M228 501q-22 18 -42 35.5t-27 27.5q-9 14 -9 29q0 22 18 35q10 7 23 7q11 0 21.5 -5.5t17.5 -14.5q8 -10 19.5 -40.5t21.5 -60.5q19 -58 27 -71l-4 -3q-10 15 -66 61z" />
    <glyph glyph-name="a" unicode="a" horiz-adv-x="521" 
d="M501 119q0 -38 -15 -67.5t-39 -45t-50 -15.5q-36 0 -67.5 17.5t-50.5 51.5q-39 -69 -110 -69q-62 0 -105.5 28.5t-43.5 87.5q0 105 237 137v60q0 42 -15 68.5t-47 26.5q-21 0 -37.5 -7t-23.5 -15.5t-3 -12.5q33 -25 33 -56q0 -17 -8 -32q-9 -16 -24 -25t-33 -9
q-15 0 -31 8q-17 8 -27.5 24t-10.5 34q0 17 10 31q21 35 63 52.5t88 17.5q63 0 112 -21.5t76.5 -59t27.5 -82.5v-86q0 -53 10 -79.5t32 -26.5q21 0 31.5 19.5t10.5 45.5h10zM250 42q12 10 24 29q-17 37 -17 89v69q-87 -25 -87 -115q0 -82 54 -82q14 0 26 10z" />
    <glyph glyph-name="b" unicode="b" horiz-adv-x="524" 
d="M322 409q44 0 86.5 -25.5t69 -73t26.5 -110.5t-27 -110.5t-69 -73t-86 -25.5q-32 0 -60 14q-22 12 -32 20v-25h-210v20q31 0 45.5 18t14.5 62v490q0 44 -14.5 62t-45.5 18v20h60q76 0 130 9h20v-324q10 8 32 20q28 14 60 14zM318 54.5q26 21.5 41 59.5t15 87q0 46 -15 84
t-41 60.5t-56 22.5q-18 0 -32 -12v-311q14 -12 32 -12q30 0 56 21.5z" />
    <glyph glyph-name="c" unicode="c" horiz-adv-x="472" 
d="M48.5 300q28.5 50 81.5 80t123 30q49 0 90 -22.5t64.5 -54t23.5 -55.5t-18.5 -41.5t-44.5 -17.5t-44.5 17t-18.5 42q0 33 44 57q8 4 -2.5 21t-35.5 30.5t-58 13.5q-85 0 -85 -175q0 -55 20.5 -96t56 -63.5t79.5 -22.5q38 0 62 13.5t34 28.5t23 42l9 -7
q-19 -51 -67.5 -89.5t-131.5 -38.5q-62 0 -115.5 26t-85.5 71.5t-32 102.5q0 58 28.5 108z" />
    <glyph glyph-name="d" unicode="d" horiz-adv-x="544" 
d="M478.5 38q14.5 -18 45.5 -18v-20h-210v25q-10 -8 -32 -20q-28 -14 -62 -14q-47 0 -93.5 25.5t-76.5 73t-30 110.5t30 110.5t76 73t94 25.5q34 0 62 -14q22 -12 32 -20v215q0 44 -14.5 62t-45.5 18v20h60q76 0 130 9h20v-599q0 -44 14.5 -62zM314 45v311q-13 12 -32 12
q-30 0 -56 -22.5t-41 -60.5t-15 -84q0 -49 15 -87t41 -59.5t56 -21.5q19 0 32 12z" />
    <glyph glyph-name="e" unicode="e" horiz-adv-x="470" 
d="M45.5 299q25.5 50 73.5 80t113 30q64 0 109.5 -30.5t68.5 -78t23 -96.5h-264q8 -83 45 -122.5t97 -39.5q91 0 129 84l10 -7q-19 -50 -68 -89t-131 -39q-62 0 -115 26t-84.5 71.5t-31.5 102.5q0 58 25.5 108zM295 217q0 78 -14 130t-49 52q-32 0 -48.5 -45t-16.5 -109
q0 -19 1 -28h127z" />
    <glyph glyph-name="f" unicode="f" horiz-adv-x="490" 
d="M387 728.5q39 -21.5 61 -56t22 -70.5q0 -31 -22.5 -54t-54.5 -23t-54.5 22.5t-22.5 54.5q0 28 18.5 47.5t34.5 25.5q7 3 7 11q0 10 -9.5 22.5t-27 22t-39.5 9.5q-26 0 -48 -20t-22 -55v-265h50v-13h-50v-287q0 -44 14.5 -62t45.5 -18v-20h-270v20q31 0 45.5 18t14.5 62
v287h-50v13h50v180q0 48 33.5 87t84.5 61t102 22q48 0 87 -21.5z" />
    <glyph glyph-name="g" unicode="g" horiz-adv-x="454" 
d="M184 37q26 -13 82 -28q53 -14 86.5 -27.5t57.5 -37.5t24 -61q0 -34 -25 -63t-76 -47.5t-125 -18.5q-104 0 -146 33t-42 76q0 30 29 53.5t76 34.5q-44 14 -69 32.5t-25 48.5q0 33 33.5 56t108.5 30q-53 17 -86.5 56t-33.5 85q0 39 24 73t65 54.5t91 20.5q22 0 38 -4
q19 43 47 64t59 21q24 0 40 -15.5t16 -36.5q0 -23 -16 -39t-40 -16q-43 0 -52 55q-1 13 -8 13q-12 0 -35 -48q56 -14 93 -54t37 -88q0 -40 -24.5 -74.5t-65 -55t-87.5 -20.5q-12 0 -19 1q-27 -1 -42.5 -9t-15.5 -29q0 -22 26 -35zM193 357.5q-11 -36.5 -11 -99.5
q0 -136 51 -136q50 0 50 136q0 62 -11 99t-39 37q-29 0 -40 -36.5zM286.5 -205.5q20.5 27.5 20.5 60.5q0 30 -32 46t-97 34l-38 11q-49 -21 -50 -83q0 -47 32 -71.5t86 -24.5q58 0 78.5 27.5z" />
    <glyph glyph-name="h" unicode="h" horiz-adv-x="600" 
d="M534.5 38q14.5 -18 45.5 -18v-20h-270v20q31 0 45.5 18t14.5 62v167q0 44 -18.5 73t-45.5 29q-19 0 -39 -17t-37 -52v-200q0 -44 14.5 -62t45.5 -18v-20h-270v20q31 0 45.5 18t14.5 62v490q0 44 -14.5 62t-45.5 18v20h60q76 0 130 9h20v-379q24 48 68 79t101 31
q59 0 90 -43.5t31 -119.5v-167q0 -44 14.5 -62z" />
    <glyph glyph-name="i" unicode="i" horiz-adv-x="310" 
d="M68 493.5q-23 23.5 -23 56.5q0 32 23.5 55.5t56.5 23.5q32 0 55.5 -23.5t23.5 -55.5q0 -33 -23 -56.5t-56 -23.5q-34 0 -57 23.5zM244.5 38q14.5 -18 45.5 -18v-20h-270v20q31 0 45.5 18t14.5 62v200q0 44 -14.5 62t-45.5 18v20h60q76 0 130 9h20v-309q0 -44 14.5 -62z
" />
    <glyph glyph-name="j" unicode="j" horiz-adv-x="450" 
d="M248 493.5q-23 23.5 -23 56.5q0 32 23.5 55.5t56.5 23.5q32 0 55.5 -23.5t23.5 -55.5q0 -33 -23 -56.5t-56 -23.5q-34 0 -57 23.5zM43 -58q23 23 54 23q32 0 54.5 -22.5t22.5 -54.5q0 -28 -18.5 -47.5t-34.5 -25.5q-7 -3 -7 -11q0 -10 9.5 -22.5t27 -22t39.5 -9.5
q26 0 48 19.5t22 54.5v476q0 44 -14.5 62t-45.5 18v20h60q76 0 130 9h20v-500q0 -48 -33 -86.5t-84.5 -60.5t-102.5 -22q-48 0 -87 21.5t-61 56t-22 70.5q0 31 23 54z" />
    <glyph glyph-name="k" unicode="k" horiz-adv-x="610" 
d="M590 20v-20h-280v20q18 0 25.5 4.5t7.5 14.5q0 16 -18 50l-41 83l-54 -77q1 -41 15.5 -58t44.5 -17v-20h-270v20q31 0 45.5 18t14.5 62v490q0 44 -14.5 62t-45.5 18v20h60q76 0 130 9h20v-581l141 200q26 38 26 49q0 7 -7 10t-22 3v20h136v-20q-74 0 -117 -62l-9 -13
l107 -215q35 -70 105 -70z" />
    <glyph glyph-name="l" unicode="l" horiz-adv-x="310" 
d="M244.5 38q14.5 -18 45.5 -18v-20h-270v20q31 0 45.5 18t14.5 62v490q0 44 -14.5 62t-45.5 18v20h60q76 0 130 9h20v-599q0 -44 14.5 -62z" />
    <glyph glyph-name="m" unicode="m" horiz-adv-x="890" 
d="M824.5 38q14.5 -18 45.5 -18v-20h-270v20q31 0 45.5 18t14.5 62v157q0 42 -17 69t-43 27q-20 0 -40.5 -18t-39.5 -55l-1 -2q1 -6 1 -21v-157q0 -44 14.5 -62t45.5 -18v-20h-270v20q31 0 45.5 18t14.5 62v157q0 42 -17 69t-43 27q-20 0 -40.5 -18t-39.5 -55v-180
q0 -44 14.5 -62t45.5 -18v-20h-270v20q31 0 45.5 18t14.5 62v200q0 44 -14.5 62t-45.5 18v20h60q76 0 130 9h20v-109q24 48 68 78.5t101 30.5q104 0 119 -114l2 5q24 48 68 78.5t101 30.5q60 0 90.5 -38.5t30.5 -113.5v-157q0 -44 14.5 -62z" />
    <glyph glyph-name="n" unicode="n" horiz-adv-x="600" 
d="M534.5 38q14.5 -18 45.5 -18v-20h-270v20q31 0 45.5 18t14.5 62v157q0 42 -17 69t-43 27q-20 0 -40.5 -18t-39.5 -55v-180q0 -44 14.5 -62t45.5 -18v-20h-270v20q31 0 45.5 18t14.5 62v200q0 44 -14.5 62t-45.5 18v20h60q76 0 130 9h20v-109q24 48 68 78.5t101 30.5
q60 0 90.5 -38.5t30.5 -113.5v-157q0 -44 14.5 -62z" />
    <glyph glyph-name="o" unicode="o" horiz-adv-x="462" 
d="M48.5 305q28.5 48 77 76t106.5 28q57 0 105 -28t76.5 -76t28.5 -104q0 -57 -28 -105.5t-76.5 -76.5t-105.5 -28q-58 0 -106.5 28t-77 76.5t-28.5 105.5q0 56 28.5 104zM232 1q60 0 60 199q0 91 -13 145t-47 54q-61 0 -61 -199t61 -199z" />
    <glyph glyph-name="p" unicode="p" horiz-adv-x="544" 
d="M324 409q47 0 93.5 -25.5t76.5 -73t30 -110.5t-30 -110.5t-76 -73t-94 -25.5q-34 0 -62 14q-22 12 -32 20v-175q0 -44 14.5 -62t45.5 -18v-20h-270v20q31 0 45.5 18t14.5 62v450q0 44 -14.5 62t-45.5 18v20h60q76 0 130 9h20v-34q10 8 32 20q28 14 62 14zM318 54.5
q26 22.5 41 60.5t15 84q0 49 -15 87t-41 59.5t-56 21.5q-18 0 -32 -12v-311q14 -12 32 -12q30 0 56 22.5z" />
    <glyph glyph-name="q" unicode="q" horiz-adv-x="544" 
d="M478.5 -212q14.5 -18 45.5 -18v-20h-270v20q31 0 45.5 18t14.5 62v175q-10 -8 -32 -20q-28 -14 -62 -14q-48 0 -94 25.5t-76 73t-30 110.5t30 110.5t76.5 73t93.5 25.5q34 0 62 -14q22 -12 32 -20v25q76 0 130 9h20v-559q0 -44 14.5 -62zM314 44v311q-13 12 -32 12
q-30 0 -56 -21.5t-41 -59.5t-15 -87q0 -46 15 -84t41 -60.5t56 -22.5q19 0 32 12z" />
    <glyph glyph-name="r" unicode="r" horiz-adv-x="470" 
d="M428.5 407q21.5 -23 21.5 -54t-22 -53.5t-54 -22.5t-51.5 19.5t-24.5 56.5q-3 19 -13 19q-20 0 -55 -72v-200q0 -44 14.5 -62t45.5 -18v-20h-270v20q31 0 45.5 18t14.5 62v200q0 44 -14.5 62t-45.5 18v20h60q76 0 130 9h20v-89q24 48 62 79t82 31q33 0 54.5 -23z" />
    <glyph glyph-name="s" unicode="s" horiz-adv-x="371" 
d="M80 8q-19 7 -26 7q-10 0 -10 -15h-20l-1 125h20q31 -125 115 -125q28 0 50.5 20.5t22.5 52.5q0 27 -22 44t-69 39q-38 18 -62 32.5t-41 37.5t-17 56q0 22 13 50t51.5 51.5t108.5 25.5q24 1 42 -3.5t45 -13.5q21 -7 27 -7q10 0 10 15h20l2 -125h-20q-14 50 -39 87t-77 37
q-27 0 -45 -19.5t-18 -52.5q0 -27 22 -44t69 -39q38 -18 62 -32.5t41 -37.5t17 -56q0 -49 -40.5 -88.5t-144.5 -39.5q-41 0 -86 18z" />
    <glyph glyph-name="t" unicode="t" horiz-adv-x="364" 
d="M344 119q0 -59 -35 -94t-89 -35q-36 0 -71 20t-57 59t-22 91v227h-50v13h50v90q65 0 97.5 26t32.5 84h20v-200h50v-13h-50v-227q0 -56 16 -81t41 -25q22 0 39.5 21t17.5 44h10z" />
    <glyph glyph-name="u" unicode="u" horiz-adv-x="600" 
d="M534.5 38q14.5 -18 45.5 -18v-20h-60q-76 0 -130 -9h-20v109q-24 -48 -68 -78.5t-101 -30.5q-60 0 -90.5 38.5t-30.5 113.5v157q0 44 -14.5 62t-45.5 18v20h60q76 0 130 9h20v-19v-105v-142q0 -42 17 -69t43 -27q20 0 40.5 18t39.5 55v180q0 44 -14.5 62t-45.5 18v20h60
q76 0 130 9h20v-309q0 -44 14.5 -62z" />
    <glyph glyph-name="v" unicode="v" horiz-adv-x="514" 
d="M494 380q-32 0 -55.5 -17t-37.5 -57l-109 -306h-12l-155 311q-35 69 -105 69v20h288v-20q-18 0 -25.5 -4.5t-7.5 -14.5q0 -15 18 -50l57 -115l39 110q11 31 11 46t-9 21.5t-29 6.5v20h132v-20z" />
    <glyph glyph-name="w" unicode="w" horiz-adv-x="822" 
d="M802 380q-32 0 -55.5 -17t-37.5 -57l-109 -306h-12l-155 311q-6 13 -17 27q-9 -13 -15 -32l-109 -306h-12l-155 311q-35 69 -105 69v20h288v-20q-18 0 -25.5 -4.5t-7.5 -14.5q0 -15 18 -50l57 -115l39 110q11 30 11 49q-31 25 -72 25v20h288v-20q-18 0 -25.5 -4.5
t-7.5 -14.5q0 -15 18 -50l57 -115l39 110q11 31 11 46t-9 21.5t-29 6.5v20h132v-20z" />
    <glyph glyph-name="x" unicode="x" horiz-adv-x="568" 
d="M548 20v-20h-288v20q16 0 23.5 3.5t7.5 11.5q0 12 -22 51l-31 51l-53 -61q-14 -17 -23 -29t-9 -18q0 -5 6 -7t21 -2v-20h-136v20q78 0 125 56l62 72l-100 166q-38 66 -111 66v20h288v-20q-16 0 -23.5 -3.5t-7.5 -11.5q0 -12 22 -51l31 -51l53 61q14 17 23 29t9 18
q0 5 -6 7t-21 2v20h136v-20q-78 0 -125 -56l-62 -72l100 -166q38 -66 111 -66z" />
    <glyph glyph-name="y" unicode="y" horiz-adv-x="536" 
d="M41 -133.5q21 21.5 52 21.5t52 -21.5t21 -52.5q0 -17 -6 -30q-2 -4 -2 -6q0 -4 4 -4q5 0 14 6q21 15 38 41t26 50l48 127l-127 309q-16 40 -41 56.5t-57 16.5v20h288v-20q-19 0 -28 -6t-9 -20q0 -16 12 -48l40 -104l41 105q13 34 13 48q0 13 -9 19t-28 6v20h133v-20
q-32 0 -56 -16.5t-40 -56.5l-167 -439q-11 -28 -25 -52.5t-48 -49.5t-87 -25q-31 0 -52 21t-21 52t21 52.5z" />
    <glyph glyph-name="z" unicode="z" horiz-adv-x="448" 
d="M369 37q18 27 29 69h20v-106h-230h-168l234 390h-117q-40 0 -58 -27t-29 -69h-20v106h230h93h75l-234 -390h117q40 0 58 27z" />
    <glyph glyph-name="braceleft" unicode="{" horiz-adv-x="336" 
d="M237.5 -132q25.5 -29 51 -36t37.5 -7v-13q-112 0 -188 33.5t-76 129.5q0 29 5 53.5t15 56.5t15 54.5t5 48.5q0 40 -28 57t-64 17v17q36 0 64 17t28 57q0 26 -5 48.5t-15 54.5t-15 56.5t-5 53.5q0 96 76 129.5t188 33.5v-13q-12 0 -37.5 -7t-51 -36t-25.5 -87q0 -21 4 -69
q4 -50 4 -75q0 -67 -26 -111t-98 -60q72 -17 98 -60.5t26 -111.5q0 -25 -4 -75q-4 -48 -4 -69q0 -58 25.5 -87z" />
    <glyph glyph-name="bar" unicode="|" horiz-adv-x="96" 
d="M56 -170h-15l-1 890h16v-890z" />
    <glyph glyph-name="braceright" unicode="}" horiz-adv-x="336" 
d="M262 245q-28 -17 -28 -57q0 -26 5 -48.5t15 -54.5t15 -56.5t5 -53.5q0 -96 -76 -129.5t-188 -33.5v13q12 0 37.5 7t51 36t25.5 87q0 21 -4 69q-4 50 -4 75q0 68 26 111.5t98 60.5q-72 16 -98 60t-26 111q0 25 4 75q4 48 4 69q0 58 -25.5 87t-51 36t-37.5 7v13
q112 0 188 -33.5t76 -129.5q0 -29 -5 -53.5t-15 -56.5t-15 -54.5t-5 -48.5q0 -40 28 -57t64 -17v-17q-36 0 -64 -17z" />
    <glyph glyph-name="asciitilde" unicode="~" horiz-adv-x="306" 
d="M20 253q0 29 14.5 56t38 44t49.5 17q17 0 30.5 -6t30.5 -17q16 -9 25 -13.5t20 -4.5q21 0 36.5 11t15.5 27h6q0 -27 -14 -54.5t-37.5 -45t-49.5 -17.5q-17 0 -30.5 6t-30.5 17q-16 9 -25.5 13.5t-20.5 4.5q-22 0 -36.5 -10.5t-14.5 -27.5h-7z" />
    <glyph glyph-name="exclamdown" unicode="&#xa1;" horiz-adv-x="179" 
d="M146 675.5q23 -23.5 23 -56.5q0 -32 -23.5 -55.5t-55.5 -23.5q-33 0 -56.5 23.5t-23.5 55.5q0 33 23 56.5t57 23.5q33 0 56 -23.5zM109 313q14 -71 38 -145q12 -38 17 -58t5 -40q0 -32 -23.5 -55.5t-55.5 -23.5q-33 0 -56.5 23.5t-23.5 55.5q0 20 5 39.5t17 59.5
q24 72 38 143.5t15 177.5h10q0 -106 14 -177z" />
    <glyph glyph-name="cent" unicode="&#xa2;" horiz-adv-x="462" 
d="M442 120q-19 -51 -67.5 -89.5t-131.5 -38.5q-57 0 -106 22l-52 -157l-10 4l52 158q-49 26 -78 71.5t-29 101.5q0 58 26 108t76.5 80t120.5 30h13l68 204l10 -4l-67 -202q44 -5 79 -29t55 -56t20 -61q0 -32 -23.5 -54.5t-57.5 -22.5q-33 0 -57 22.5t-24 54.5
q0 28 19.5 47.5t36.5 25.5q8 3 8 13q0 15 -15.5 30.5t-43.5 19.5l-89 -270q17 -42 50 -63.5t79 -21.5q55 0 83.5 24.5t45.5 59.5zM169 144l84 256h-10q-52 0 -68.5 -54t-16.5 -111t11 -91z" />
    <glyph glyph-name="sterling" unicode="&#xa3;" horiz-adv-x="619" 
d="M565.5 237q14.5 -26 24 -59t9.5 -67q0 -54 -38.5 -87t-93.5 -33q-37 0 -71.5 21t-76.5 60q-36 -37 -83.5 -59t-101.5 -22q-46 0 -80 32t-34 76t34 76t80 32q59 0 142 -30q-8 32 -26 56t-53 60q-28 27 -46 48h-81v15h69q-47 64 -47 147q0 40 24 84.5t84 77.5t160 33
q49 0 91 -17t66 -43t24 -53q0 -17 -9 -31t-24 -22q-12 -6 -27 -6q-17 0 -31.5 8.5t-22.5 23.5q-7 13 -7 27q0 30 33 54q4 2 4 6t-4 8q-10 13 -34.5 22.5t-58.5 9.5q-79 0 -107 -38t-28 -87q0 -34 10.5 -60.5t26 -45t42.5 -45.5q33 -33 48 -53h118v-15h-108q31 -50 31 -115
q0 -41 -23 -85q66 -25 96 -25q32 0 55 15t32 42q4 11 4 24q0 14 -5 28t-15 37l11 7q3 -6 17.5 -32zM232.5 36.5q34.5 32.5 44.5 76.5q-41 39 -74.5 60t-68.5 21q-40 0 -70.5 -28t-30.5 -67t30.5 -67t70.5 -28q64 0 98.5 32.5z" />
    <glyph glyph-name="currency" unicode="&#xa4;" horiz-adv-x="451" 
d="M416.5 117.5q-14.5 -36.5 -39.5 -65.5l50 -50l-11 -10l-50 50q-28 -27 -63.5 -42t-74.5 -15q-42 0 -78.5 15t-65.5 42l-50 -50l-11 10l51 52q-26 28 -40 64t-14 75q0 38 15.5 73.5t42.5 63.5l-55 55l11 10l54 -54q29 26 65 40.5t75 14.5q37 0 71.5 -14.5t62.5 -39.5
l54 54l11 -11l-54 -54q27 -29 42.5 -64.5t15.5 -73.5q0 -39 -14.5 -75.5zM321.5 26.5q43.5 26.5 69 71t25.5 95.5q0 48 -26.5 91.5t-70 70t-91.5 26.5q-50 0 -94.5 -26.5t-71.5 -70t-27 -91.5q0 -51 26 -95.5t70 -71t97 -26.5q50 0 93.5 26.5z" />
    <glyph glyph-name="yen" unicode="&#xa5;" horiz-adv-x="722" 
d="M682 670q-69 0 -103 -70l-117 -244v-77h127v-15h-127v-80h127v-15h-127v-69q0 -44 14.5 -62t45.5 -18v-20h-270v20q31 0 45.5 18t14.5 62v69h-123v15h123v80h-123v15h123v26l-180 299q-39 66 -112 66v20h288v-20q-16 0 -23 -3t-7 -10t6 -18.5t20 -31.5l156 -231l107 224
q17 36 17 50q0 11 -8 15.5t-26 4.5v20h132v-20z" />
    <glyph glyph-name="brokenbar" unicode="&#xa6;" horiz-adv-x="96" 
d="M56 335h-15l-1 385h16v-385zM56 -170h-15l-1 385h16v-385z" />
    <glyph glyph-name="section" unicode="&#xa7;" horiz-adv-x="440" 
d="M386 229q-29 -35 -72 -63q48 -30 74.5 -60t26.5 -66q0 -26 -16 -57t-63.5 -56t-134.5 -25q-60 0 -107.5 25t-66.5 60q-7 14 -7 28q0 17 9 31t24 22q12 6 27 6q17 0 31.5 -8.5t22.5 -23.5q7 -13 7 -27q0 -30 -33 -54q-4 -2 -4 -6t4 -8q24 -16 42 -23t51 -7q32 0 52.5 21.5
t20.5 59.5q0 32 -26 57.5t-81 62.5q-46 31 -74 54t-48 54.5t-20 70.5q0 40 29 75t72 63q-48 30 -74.5 60t-26.5 66q0 26 16 57t63.5 56t134.5 25q49 0 91 -17t66 -43t24 -53q0 -17 -9 -31t-24 -22q-12 -6 -27 -6q-17 0 -31.5 8.5t-22.5 23.5q-7 13 -7 27q0 30 33 54q4 2 4 6
t-4 8q-24 16 -42 23t-51 7q-32 0 -52.5 -21.5t-20.5 -59.5q0 -32 26 -57.5t81 -62.5q46 -31 74 -54t48 -54.5t20 -70.5q0 -40 -29 -75zM324 264q0 37 -35 67t-106 70l-37 22q-30 -35 -30 -86q0 -37 35 -67t106 -70l37 -22q30 35 30 86z" />
    <glyph glyph-name="dieresis" unicode="&#xa8;" horiz-adv-x="597" 
d="M187 566.5q17 16.5 40 16.5t39.5 -17t16.5 -40t-16.5 -39.5t-38.5 -16.5q-24 0 -41 16.5t-17 39.5q0 24 17 40.5zM331 566.5q17 16.5 40 16.5t39.5 -17t16.5 -40q0 -22 -17 -39t-39 -17q-23 0 -40 16.5t-17 39.5q0 24 17 40.5z" />
    <glyph glyph-name="copyright" unicode="&#xa9;" horiz-adv-x="753" 
d="M69.5 519.5q49.5 81.5 132 130.5t177.5 49q92 0 174 -49t131 -130.5t49 -172.5q0 -96 -47.5 -179t-129 -132.5t-177.5 -49.5q-98 0 -180.5 49.5t-130.5 132.5t-48 179q0 91 49.5 172.5zM81.5 176q46.5 -80 125.5 -127.5t172 -47.5q91 0 169.5 47.5t124.5 127.5t46 172
q0 86 -48 164t-126.5 125.5t-165.5 47.5q-89 0 -168.5 -47.5t-127.5 -125.5t-48 -164q0 -92 46.5 -172zM311.5 487.5q-28.5 -50.5 -28.5 -115.5q0 -63 22 -102.5t53.5 -57t61.5 -17.5q100 0 129 92l6 -3q-18 -68 -58.5 -106.5t-99.5 -38.5q-50 0 -96 23.5t-74.5 68
t-28.5 103.5q0 58 25 106.5t72 77t111 28.5q28 0 74 -11q30 -6 37 -6q15 0 15 11h11l2 -141h-11q-14 44 -45 91.5t-86 47.5q-63 0 -91.5 -50.5z" />
    <glyph glyph-name="guillemotleft" unicode="&#xab;" horiz-adv-x="380" 
d="M200 378l5 -5q-58 -101 -100 -171q42 -70 100 -171l-5 -5l-180 176zM355 378l5 -5q-58 -101 -100 -171q42 -70 100 -171l-5 -5l-180 176z" />
    <glyph glyph-name="logicalnot" unicode="&#xac;" horiz-adv-x="351" 
d="M326 184l-1 100h-315v15h330l1 -115h-15z" />
    <glyph glyph-name="registered" unicode="&#xae;" horiz-adv-x="513" 
d="M53 580q33 54 87.5 86.5t117.5 32.5q61 0 115.5 -32.5t87 -86.5t32.5 -115q0 -64 -31.5 -119t-85.5 -87.5t-118 -32.5q-65 0 -119.5 32.5t-86.5 87.5t-32 119q0 61 33 115zM62.5 352q29.5 -52 81 -82.5t114.5 -30.5q61 0 112 30.5t80.5 82.5t29.5 113q0 59 -30.5 110
t-81.5 81t-110 30q-61 0 -113 -30t-82 -80.5t-30 -110.5q0 -61 29.5 -113zM168 367q20 0 20 26v157q0 13 -5 18.5t-15 5.5v7h95q29 0 49 -16.5t22 -39.5q0 -25 -21 -42t-50 -17h-8q27 0 43.5 -11t24 -25.5t16.5 -38.5q8 -24 30 -24v-6h-42q-28 0 -43 44q-5 16 -17.5 32.5
t-32.5 27.5v-72q0 -26 20 -26v-6h-86v6zM250 469q35 0 35 55q0 54 -35 54h-16v-109h16z" />
    <glyph glyph-name="macron" unicode="&#xaf;" horiz-adv-x="550" 
d="M400 485v-15h-250v15h250z" />
    <glyph glyph-name="degree" unicode="&#xb0;" horiz-adv-x="280" 
d="M36.5 638.5q16.5 27.5 44.5 44t60 16.5q31 0 58.5 -16.5t44 -44t16.5 -58.5q0 -32 -16 -60t-43.5 -44.5t-59.5 -16.5q-33 0 -61 16.5t-44 44.5t-16 60q0 31 16.5 58.5zM64 503.5q32 -32.5 77 -32.5q44 0 75.5 32.5t31.5 76.5q0 27 -15 52t-40 40t-52 15q-28 0 -53.5 -15
t-40.5 -39.5t-15 -52.5q0 -44 32 -76.5z" />
    <glyph glyph-name="plusminus" unicode="&#xb1;" horiz-adv-x="369" 
d="M349 249v-15h-157v-158h-15v158h-157v15h156v157h16v-157h157zM21 6h328v-15h-328v15z" />
    <glyph glyph-name="uni00B2" unicode="&#xb2;" horiz-adv-x="225" 
d="M211 492l9 -2l-7 -30l-13 -60h-185l12 65q5 20 20.5 37.5t44.5 42.5q32 28 48.5 48t16.5 43q0 58 -44 58q-13 0 -25 -5t-16 -11t4 -9q21 -8 21 -30q0 -13 -10.5 -23t-24.5 -10q-15 0 -25 9.5t-10 23.5q0 30 29.5 45t56.5 15q35 0 71.5 -15.5t36.5 -56.5
q0 -27 -24.5 -46.5t-74.5 -44.5q-41 -21 -63 -36.5t-26 -34.5h138q35 0 40 27z" />
    <glyph glyph-name="uni00B3" unicode="&#xb3;" horiz-adv-x="239" 
d="M25.5 476q10.5 10 24.5 10q15 0 25.5 -10t10.5 -24q0 -21 -21 -31q-8 -3 -3 -9t20 -10.5t33 -4.5q31 0 46.5 23.5t15.5 56.5q0 27 -15 50t-29 23h-27v5h27q14 1 26.5 21t12.5 45q0 71 -57 71q-21 0 -36 -6t-15 -13q0 -3 6 -6q9 -4 15 -12.5t6 -18.5q0 -14 -10.5 -24
t-25.5 -10t-25.5 10t-10.5 24q0 32 29 47t67 15q51 0 86.5 -19t35.5 -57q0 -35 -24.5 -52.5t-55.5 -17.5q31 0 58 -20t27 -55q0 -39 -39 -62.5t-88 -23.5q-38 0 -69 15t-31 46q0 14 10.5 24z" />
    <glyph glyph-name="acute" unicode="&#xb4;" horiz-adv-x="449" 
d="M179 517q26 79 40 98q7 9 17.5 14.5t21.5 5.5q13 0 23 -7q18 -13 18 -35q0 -15 -9 -29q-7 -10 -27 -27.5t-42 -35.5q-56 -46 -66 -61l-5 3q7 11 29 74z" />
    <glyph glyph-name="paragraph" unicode="&#xb6;" horiz-adv-x="496" 
d="M476 670q-31 0 -45.5 -18t-14.5 -62v-743h-20v823h-63v-823h-20v395h-70q-61 0 -112 30.5t-81 82t-30 112.5q0 60 30 111.5t81 81.5t112 30h233v-20z" />
    <glyph glyph-name="periodcentered" unicode="&#xb7;" horiz-adv-x="179" 
d="M33 194.5q-23 23.5 -23 56.5q0 32 23.5 55.5t56.5 23.5q32 0 55.5 -23.5t23.5 -55.5q0 -33 -23 -56.5t-56 -23.5q-34 0 -57 23.5z" />
    <glyph glyph-name="cedilla" unicode="&#xb8;" horiz-adv-x="545" 
d="M250 -220q25 21 25 57q0 19 -9.5 29t-24.5 10q-18 0 -37 -11t-32 -30l-10 8l111 158h16l-61 -91q16 16 51 16q31 0 51.5 -20t20.5 -49q0 -52 -53 -79.5t-128 -27.5v9q55 0 80 21z" />
    <glyph glyph-name="guillemotright" unicode="&#xbb;" horiz-adv-x="380" 
d="M25 26l-5 5q58 101 100 171q-42 70 -100 171l5 5l180 -176zM180 26l-5 5q58 101 100 171q-42 70 -100 171l5 5l180 -176z" />
    <glyph glyph-name="onequarter" unicode="&#xbc;" horiz-adv-x="590" 
d="M407 718l-287 -868l-10 4l287 868zM152.5 369q7.5 -9 22.5 -9v-10h-135v10q16 0 23 9t7 31v190q0 23 -12 23q-9 0 -34 -15l-4 7q42 29 64.5 47.5t50.5 46.5h10v-299q0 -22 7.5 -31zM303 124l130 221h75v-221h62v-7h-62v-67q0 -22 7.5 -31t22.5 -9v-10h-135v10q16 0 23 9
t7 31v67h-130v7zM433 124v206l-121 -206h121z" />
    <glyph glyph-name="onehalf" unicode="&#xbd;" horiz-adv-x="600" 
d="M407 718l-287 -868l-10 4l287 868zM152.5 369q7.5 -9 22.5 -9v-10h-135v10q16 0 23 9t7 31v190q0 23 -12 23q-9 0 -34 -15l-4 7q42 29 64.5 47.5t50.5 46.5h10v-299q0 -22 7.5 -31zM354 75q5 23 23 43.5t52 50.5q39 34 57.5 56t18.5 49q0 34 -12.5 51t-39.5 17
q-17 0 -32.5 -7t-15.5 -14q0 -4 6 -7q11 -5 17.5 -14.5t6.5 -21.5q0 -16 -12 -27.5t-29 -11.5t-29 11.5t-12 27.5q0 24 17.5 40t41 23.5t41.5 7.5q41 0 84 -18t43 -66q0 -32 -29.5 -55t-87.5 -52q-49 -26 -73.5 -43t-29.5 -40h162q39 0 46 31l10 -2l-7 -34l-15 -70h-217z
" />
    <glyph glyph-name="threequarters" unicode="&#xbe;" horiz-adv-x="635" 
d="M462 718l-287 -868l-10 4l287 868zM32 444.5q12 11.5 29 11.5t29 -11.5t12 -27.5q0 -12 -6.5 -21.5t-17.5 -14.5q-6 -3 -6 -6q0 -7 19 -14.5t44 -7.5q29 0 45 28t16 64q0 33 -12.5 58.5t-28.5 25.5h-31v6h31q16 1 26 23t10 53q0 37 -13.5 59t-42.5 22q-25 0 -42 -7
t-17 -14q0 -4 7 -7q11 -5 17.5 -14.5t6.5 -21.5q0 -16 -12 -27.5t-29 -11.5t-29 11.5t-12 27.5q0 36 33.5 53.5t76.5 17.5q57 0 94 -21.5t37 -65.5q0 -24 -22.5 -40.5t-46 -26.5t-23.5 -12q0 -1 9 -1q34 0 61 -23.5t27 -63.5q0 -45 -40 -72t-96 -27q-44 0 -79.5 17.5
t-35.5 53.5q0 16 12 27.5zM358 124l130 221h75v-221h62v-7h-62v-67q0 -22 7.5 -31t22.5 -9v-10h-135v10q16 0 23 9t7 31v67h-130v7zM488 124v206l-121 -206h121z" />
    <glyph glyph-name="questiondown" unicode="&#xbf;" horiz-adv-x="551" 
d="M365.5 563.5q-23.5 -23.5 -56.5 -23.5q-32 0 -55.5 23.5t-23.5 55.5q0 33 23 56.5t56 23.5q34 0 57 -23.5t23 -56.5q0 -32 -23.5 -55.5zM438 23q-61 -32 -137 -32q-74 0 -137.5 19.5t-103.5 61t-40 103.5q0 47 23.5 81.5t57 57.5t86.5 52q58 32 85 53.5t30 51.5h14
q0 -34 -17 -64t-53 -76q-38 -47 -57 -82t-19 -74q0 -60 20 -99.5t50 -57.5t61 -18q41 0 71 14.5t46 34.5q5 5 5 11q0 5 -4 7q-42 30 -42 67q0 17 9 35q9 20 27.5 30.5t39.5 10.5q20 0 35 -8q20 -10 31.5 -28t11.5 -39q0 -17 -9 -35q-23 -45 -84 -77z" />
    <glyph glyph-name="Agrave" unicode="&#xc0;" horiz-adv-x="705" 
d="M685 20v-20h-288v20q19 0 27.5 5.5t8.5 18.5t-13 49l-32 80h-234l-27 -78q-10 -29 -10 -46q0 -16 9 -22.5t29 -6.5v-20h-135v20q32 0 55 17t37 58l204 595h14l256 -598q30 -72 99 -72zM383 186l-122 302l-103 -302h225zM250 791q-22 18 -42 35.5t-27 27.5q-9 14 -9 29
q0 22 18 35q10 7 23 7q11 0 21.5 -5.5t17.5 -14.5q14 -19 40 -98q22 -63 29 -74l-5 -3q-10 15 -66 61z" />
    <glyph glyph-name="Aacute" unicode="&#xc1;" horiz-adv-x="705" 
d="M685 20v-20h-288v20q19 0 27.5 5.5t8.5 18.5t-13 49l-32 80h-234l-27 -78q-10 -29 -10 -46q0 -16 9 -22.5t29 -6.5v-20h-135v20q32 0 55 17t37 58l204 595h14l256 -598q30 -72 99 -72zM383 186l-122 302l-103 -302h225zM352 806q26 79 40 98q7 9 17.5 14.5t21.5 5.5
q13 0 23 -7q18 -13 18 -35q0 -15 -9 -29q-7 -10 -27 -27.5t-42 -35.5q-56 -46 -66 -61l-5 3q7 11 29 74z" />
    <glyph glyph-name="Acircumflex" unicode="&#xc2;" horiz-adv-x="705" 
d="M685 20v-20h-288v20q19 0 27.5 5.5t8.5 18.5t-13 49l-32 80h-234l-27 -78q-10 -29 -10 -46q0 -16 9 -22.5t29 -6.5v-20h-135v20q32 0 55 17t37 58l204 595h14l256 -598q30 -72 99 -72zM383 186l-122 302l-103 -302h225zM317 905h12l100 -155h-13l-93 75l-93 -75h-13z" />
    <glyph glyph-name="Atilde" unicode="&#xc3;" horiz-adv-x="705" 
d="M685 20v-20h-288v20q19 0 27.5 5.5t8.5 18.5t-13 49l-32 80h-234l-27 -78q-10 -29 -10 -46q0 -16 9 -22.5t29 -6.5v-20h-135v20q32 0 55 17t37 58l204 595h14l256 -598q30 -72 99 -72zM383 186l-122 302l-103 -302h225zM189 753q0 29 14.5 56t38 44t49.5 17q17 0 30.5 -6
t30.5 -17q16 -9 25 -13.5t20 -4.5q21 0 36.5 11t15.5 27h6q0 -27 -14 -54.5t-37.5 -45t-49.5 -17.5q-17 0 -30.5 6t-30.5 17q-16 9 -25.5 13.5t-20.5 4.5q-22 0 -36.5 -10.5t-14.5 -27.5h-7z" />
    <glyph glyph-name="Adieresis" unicode="&#xc4;" horiz-adv-x="705" 
d="M685 20v-20h-288v20q19 0 27.5 5.5t8.5 18.5t-13 49l-32 80h-234l-27 -78q-10 -29 -10 -46q0 -16 9 -22.5t29 -6.5v-20h-135v20q32 0 55 17t37 58l204 595h14l256 -598q30 -72 99 -72zM383 186l-122 302l-103 -302h225zM212 826.5q17 16.5 40 16.5t39.5 -17t16.5 -40
t-16.5 -39.5t-38.5 -16.5q-24 0 -41 16.5t-17 39.5q0 24 17 40.5zM356 826.5q17 16.5 40 16.5t39.5 -17t16.5 -40q0 -22 -17 -39t-39 -17q-23 0 -40 16.5t-17 39.5q0 24 17 40.5z" />
    <glyph glyph-name="Aring" unicode="&#xc5;" horiz-adv-x="705" 
d="M685 20v-20h-288v20q19 0 27.5 5.5t8.5 18.5t-13 49l-32 80h-234l-27 -78q-10 -29 -10 -46q0 -16 9 -22.5t29 -6.5v-20h-135v20q32 0 55 17t37 58l204 595h14l256 -598q30 -72 99 -72zM383 186l-122 302l-103 -302h225zM253.5 900q30.5 30 70.5 30q39 0 69 -30t30 -69
q0 -41 -29 -71t-70 -30q-42 0 -71.5 30t-29.5 71q0 39 30.5 69zM262 769.5q26 -26.5 62 -26.5q35 0 60.5 26.5t25.5 61.5q0 34 -26 60t-60 26q-35 0 -61.5 -26t-26.5 -60q0 -35 26 -61.5z" />
    <glyph glyph-name="AE" unicode="&#xc6;" horiz-adv-x="952" 
d="M618 677v-325h100q44 0 62 14.5t18 45.5h20v-133h-20q0 31 -18 45.5t-62 14.5h-100v-326h160q38 0 65 73t49 161h20v-247h-10h-144h-350v20q31 0 45.5 18t14.5 62v73h-276l-48 -86q-21 -39 -21 -50q0 -9 7.5 -13t24.5 -4v-20h-135v20q72 0 109 67l290 516q21 39 21 50
q0 10 -7.5 13.5t-24.5 3.5v20h350h144h10v-247h-20q-22 88 -49 161t-65 73h-160zM199 186h269v479z" />
    <glyph glyph-name="Ccedilla" unicode="&#xc7;" horiz-adv-x="683" 
d="M349 -7l-56 -83q16 16 51 16q31 0 51.5 -20t20.5 -49q0 -52 -53 -79.5t-128 -27.5v9q55 0 80 21t25 57q0 19 -9.5 29t-24.5 10q-18 0 -37 -11t-32 -30l-10 8l107 152q-79 12 -146 55.5t-107.5 115t-40.5 164.5q0 101 43.5 186t126 135.5t193.5 50.5q31 1 59 -4t74 -16
q48 -11 63 -11q23 0 23 19h20l3 -246h-20q-11 39 -36.5 94t-74.5 103t-116 48q-76 0 -122.5 -44.5t-66.5 -111t-20 -136.5q0 -110 38.5 -179.5t93.5 -99.5t106 -30q66 0 130 31t94 130l12 -6q-31 -117 -102.5 -184.5t-172.5 -67.5q-13 0 -39 2z" />
    <glyph glyph-name="Egrave" unicode="&#xc8;" horiz-adv-x="564" 
d="M230 677v-325h100q44 0 62 14.5t18 45.5h20v-133h-20q0 31 -18 45.5t-62 14.5h-100v-326h160q38 0 65 73t49 161h20v-247h-10h-144h-350v20q31 0 45.5 18t14.5 62v490q0 44 -14.5 62t-45.5 18v20h350h144h10v-247h-20q-22 88 -49 161t-65 73h-160zM275 791
q-22 18 -42 35.5t-27 27.5q-9 14 -9 29q0 22 18 35q10 7 23 7q11 0 21.5 -5.5t17.5 -14.5q14 -19 40 -98q22 -63 29 -74l-5 -3q-10 15 -66 61z" />
    <glyph glyph-name="Eacute" unicode="&#xc9;" horiz-adv-x="564" 
d="M230 677v-325h100q44 0 62 14.5t18 45.5h20v-133h-20q0 31 -18 45.5t-62 14.5h-100v-326h160q38 0 65 73t49 161h20v-247h-10h-144h-350v20q31 0 45.5 18t14.5 62v490q0 44 -14.5 62t-45.5 18v20h350h144h10v-247h-20q-22 88 -49 161t-65 73h-160zM286 807q26 79 40 98
q7 9 17.5 14.5t21.5 5.5q13 0 23 -7q18 -13 18 -35q0 -15 -9 -29q-7 -10 -27 -27.5t-42 -35.5q-56 -46 -66 -61l-5 3q7 11 29 74z" />
    <glyph glyph-name="Ecircumflex" unicode="&#xca;" horiz-adv-x="564" 
d="M230 677v-325h100q44 0 62 14.5t18 45.5h20v-133h-20q0 31 -18 45.5t-62 14.5h-100v-326h160q38 0 65 73t49 161h20v-247h-10h-144h-350v20q31 0 45.5 18t14.5 62v490q0 44 -14.5 62t-45.5 18v20h350h144h10v-247h-20q-22 88 -49 161t-65 73h-160zM266 905h12l100 -155
h-13l-93 75l-93 -75h-13z" />
    <glyph glyph-name="Edieresis" unicode="&#xcb;" horiz-adv-x="564" 
d="M230 677v-325h100q44 0 62 14.5t18 45.5h20v-133h-20q0 31 -18 45.5t-62 14.5h-100v-326h160q38 0 65 73t49 161h20v-247h-10h-144h-350v20q31 0 45.5 18t14.5 62v490q0 44 -14.5 62t-45.5 18v20h350h144h10v-247h-20q-22 88 -49 161t-65 73h-160zM160 826.5
q17 16.5 40 16.5t39.5 -17t16.5 -40t-16.5 -39.5t-38.5 -16.5q-24 0 -41 16.5t-17 39.5q0 24 17 40.5zM304 826.5q17 16.5 40 16.5t39.5 -17t16.5 -40q0 -22 -17 -39t-39 -17q-23 0 -40 16.5t-17 39.5q0 24 17 40.5z" />
    <glyph glyph-name="Igrave" unicode="&#xcc;" horiz-adv-x="310" 
d="M65.5 652q-14.5 18 -45.5 18v20h270v-20q-31 0 -45.5 -18t-14.5 -62v-490q0 -44 14.5 -62t45.5 -18v-20h-270v20q31 0 45.5 18t14.5 62v490q0 44 -14.5 62zM137 791q-22 18 -42 35.5t-27 27.5q-9 14 -9 29q0 22 18 35q10 7 23 7q11 0 21.5 -5.5t17.5 -14.5q14 -19 40 -98
q22 -63 29 -74l-5 -3q-10 15 -66 61z" />
    <glyph glyph-name="Iacute" unicode="&#xcd;" horiz-adv-x="310" 
d="M65.5 652q-14.5 18 -45.5 18v20h270v-20q-31 0 -45.5 -18t-14.5 -62v-490q0 -44 14.5 -62t45.5 -18v-20h-270v20q31 0 45.5 18t14.5 62v490q0 44 -14.5 62zM131 807q26 79 40 98q7 9 17.5 14.5t21.5 5.5q13 0 23 -7q18 -13 18 -35q0 -15 -9 -29q-7 -10 -27 -27.5
t-42 -35.5q-56 -46 -66 -61l-5 3q7 11 29 74z" />
    <glyph glyph-name="Icircumflex" unicode="&#xce;" horiz-adv-x="310" 
d="M65.5 652q-14.5 18 -45.5 18v20h270v-20q-31 0 -45.5 -18t-14.5 -62v-490q0 -44 14.5 -62t45.5 -18v-20h-270v20q31 0 45.5 18t14.5 62v490q0 44 -14.5 62zM149 905h12l100 -155h-13l-93 75l-93 -75h-13z" />
    <glyph glyph-name="Idieresis" unicode="&#xcf;" horiz-adv-x="310" 
d="M65.5 652q-14.5 18 -45.5 18v20h270v-20q-31 0 -45.5 -18t-14.5 -62v-490q0 -44 14.5 -62t45.5 -18v-20h-270v20q31 0 45.5 18t14.5 62v490q0 44 -14.5 62zM43 826.5q17 16.5 40 16.5t39.5 -17t16.5 -40t-16.5 -39.5t-38.5 -16.5q-24 0 -41 16.5t-17 39.5q0 24 17 40.5z
M187 826.5q17 16.5 40 16.5t39.5 -17t16.5 -40q0 -22 -17 -39t-39 -17q-23 0 -40 16.5t-17 39.5q0 24 17 40.5z" />
    <glyph glyph-name="Ntilde" unicode="&#xd1;" horiz-adv-x="683" 
d="M663 670q-31 0 -45.5 -18t-14.5 -62v-590h-13l-451 610q-14 19 -35 35v-545q0 -44 14.5 -62t45.5 -18v-20h-133v20q31 0 45.5 18t14.5 62v553q-30 17 -71 17v20h228l342 -446v346q0 44 -14.5 62t-45.5 18v20h133v-20zM238 753q0 29 14.5 56t38 44t49.5 17q17 0 30.5 -6
t30.5 -17q16 -9 25 -13.5t20 -4.5q21 0 36.5 11t15.5 27h6q0 -27 -14 -54.5t-37.5 -45t-49.5 -17.5q-17 0 -30.5 6t-30.5 17q-16 9 -25.5 13.5t-20.5 4.5q-22 0 -36.5 -10.5t-14.5 -27.5h-7z" />
    <glyph glyph-name="Ograve" unicode="&#xd2;" horiz-adv-x="775" 
d="M88.5 523.5q48.5 81.5 131 130t180.5 48.5q96 0 177.5 -48.5t129.5 -130t48 -177.5t-48 -178.5t-129.5 -131t-177.5 -48.5q-98 0 -180.5 48.5t-131 130.5t-48.5 179q0 96 48.5 177.5zM247 178q21 -79 60.5 -128t92.5 -49q52 0 90.5 49t58.5 128t20 167q0 91 -20 170
t-58.5 126.5t-90.5 47.5q-53 0 -92.5 -47.5t-60.5 -126.5t-21 -170q0 -88 21 -167zM328 791q-22 18 -42 35.5t-27 27.5q-9 14 -9 29q0 22 18 35q10 7 23 7q11 0 21.5 -5.5t17.5 -14.5q14 -19 40 -98q22 -63 29 -74l-5 -3q-10 15 -66 61z" />
    <glyph glyph-name="Oacute" unicode="&#xd3;" horiz-adv-x="775" 
d="M88.5 523.5q48.5 81.5 131 130t180.5 48.5q96 0 177.5 -48.5t129.5 -130t48 -177.5t-48 -178.5t-129.5 -131t-177.5 -48.5q-98 0 -180.5 48.5t-131 130.5t-48.5 179q0 96 48.5 177.5zM247 178q21 -79 60.5 -128t92.5 -49q52 0 90.5 49t58.5 128t20 167q0 91 -20 170
t-58.5 126.5t-90.5 47.5q-53 0 -92.5 -47.5t-60.5 -126.5t-21 -170q0 -88 21 -167zM402 807q26 79 40 98q7 9 17.5 14.5t21.5 5.5q13 0 23 -7q18 -13 18 -35q0 -15 -9 -29q-7 -10 -27 -27.5t-42 -35.5q-56 -46 -66 -61l-5 3q7 11 29 74z" />
    <glyph glyph-name="Ocircumflex" unicode="&#xd4;" horiz-adv-x="775" 
d="M88.5 523.5q48.5 81.5 131 130t180.5 48.5q96 0 177.5 -48.5t129.5 -130t48 -177.5t-48 -178.5t-129.5 -131t-177.5 -48.5q-98 0 -180.5 48.5t-131 130.5t-48.5 179q0 96 48.5 177.5zM247 178q21 -79 60.5 -128t92.5 -49q52 0 90.5 49t58.5 128t20 167q0 91 -20 170
t-58.5 126.5t-90.5 47.5q-53 0 -92.5 -47.5t-60.5 -126.5t-21 -170q0 -88 21 -167zM392 905h12l100 -155h-13l-93 75l-93 -75h-13z" />
    <glyph glyph-name="Otilde" unicode="&#xd5;" horiz-adv-x="775" 
d="M88.5 523.5q48.5 81.5 131 130t180.5 48.5q96 0 177.5 -48.5t129.5 -130t48 -177.5t-48 -178.5t-129.5 -131t-177.5 -48.5q-98 0 -180.5 48.5t-131 130.5t-48.5 179q0 96 48.5 177.5zM247 178q21 -79 60.5 -128t92.5 -49q52 0 90.5 49t58.5 128t20 167q0 91 -20 170
t-58.5 126.5t-90.5 47.5q-53 0 -92.5 -47.5t-60.5 -126.5t-21 -170q0 -88 21 -167zM264 753q0 29 14.5 56t38 44t49.5 17q17 0 30.5 -6t30.5 -17q16 -9 25 -13.5t20 -4.5q21 0 36.5 11t15.5 27h6q0 -27 -14 -54.5t-37.5 -45t-49.5 -17.5q-17 0 -30.5 6t-30.5 17
q-16 9 -25.5 13.5t-20.5 4.5q-22 0 -36.5 -10.5t-14.5 -27.5h-7z" />
    <glyph glyph-name="Odieresis" unicode="&#xd6;" horiz-adv-x="775" 
d="M88.5 523.5q48.5 81.5 131 130t180.5 48.5q96 0 177.5 -48.5t129.5 -130t48 -177.5t-48 -178.5t-129.5 -131t-177.5 -48.5q-98 0 -180.5 48.5t-131 130.5t-48.5 179q0 96 48.5 177.5zM247 178q21 -79 60.5 -128t92.5 -49q52 0 90.5 49t58.5 128t20 167q0 91 -20 170
t-58.5 126.5t-90.5 47.5q-53 0 -92.5 -47.5t-60.5 -126.5t-21 -170q0 -88 21 -167zM286 826.5q17 16.5 40 16.5t39.5 -17t16.5 -40t-16.5 -39.5t-38.5 -16.5q-24 0 -41 16.5t-17 39.5q0 24 17 40.5zM430 826.5q17 16.5 40 16.5t39.5 -17t16.5 -40q0 -22 -17 -39t-39 -17
q-23 0 -40 16.5t-17 39.5q0 24 17 40.5z" />
    <glyph glyph-name="multiply" unicode="&#xd7;" horiz-adv-x="284" 
d="M153 191l111 -111l-10 -11l-111 112l-112 -112l-11 10l112 112l-112 112l11 10l111 -111l111 111l11 -11z" />
    <glyph glyph-name="Ugrave" unicode="&#xd9;" horiz-adv-x="637" 
d="M617 670q-31 0 -45.5 -18t-14.5 -62v-396q0 -76 -36.5 -121.5t-86 -63.5t-93.5 -18q-51 0 -111 17.5t-105 62.5t-45 123v240v156q0 44 -14.5 62t-45.5 18v20h270v-20q-31 0 -45.5 -18t-14.5 -62v-159v-237q0 -38 14 -79.5t47 -71t85 -29.5q39 0 78 20.5t64.5 61
t25.5 98.5v396q0 44 -14.5 62t-45.5 18v20h133v-20zM282 791q-22 18 -42 35.5t-27 27.5q-9 14 -9 29q0 22 18 35q10 7 23 7q11 0 21.5 -5.5t17.5 -14.5q14 -19 40 -98q22 -63 29 -74l-5 -3q-10 15 -66 61z" />
    <glyph glyph-name="Uacute" unicode="&#xda;" horiz-adv-x="637" 
d="M617 670q-31 0 -45.5 -18t-14.5 -62v-396q0 -76 -36.5 -121.5t-86 -63.5t-93.5 -18q-51 0 -111 17.5t-105 62.5t-45 123v240v156q0 44 -14.5 62t-45.5 18v20h270v-20q-31 0 -45.5 -18t-14.5 -62v-159v-237q0 -38 14 -79.5t47 -71t85 -29.5q39 0 78 20.5t64.5 61
t25.5 98.5v396q0 44 -14.5 62t-45.5 18v20h133v-20zM338 807q26 79 40 98q7 9 17.5 14.5t21.5 5.5q13 0 23 -7q18 -13 18 -35q0 -15 -9 -29q-7 -10 -27 -27.5t-42 -35.5q-56 -46 -66 -61l-5 3q7 11 29 74z" />
    <glyph glyph-name="Ucircumflex" unicode="&#xdb;" horiz-adv-x="637" 
d="M617 670q-31 0 -45.5 -18t-14.5 -62v-396q0 -76 -36.5 -121.5t-86 -63.5t-93.5 -18q-51 0 -111 17.5t-105 62.5t-45 123v240v156q0 44 -14.5 62t-45.5 18v20h270v-20q-31 0 -45.5 -18t-14.5 -62v-159v-237q0 -38 14 -79.5t47 -71t85 -29.5q39 0 78 20.5t64.5 61
t25.5 98.5v396q0 44 -14.5 62t-45.5 18v20h133v-20zM339 905h12l100 -155h-13l-93 75l-93 -75h-13z" />
    <glyph glyph-name="Udieresis" unicode="&#xdc;" horiz-adv-x="637" 
d="M617 670q-31 0 -45.5 -18t-14.5 -62v-396q0 -76 -36.5 -121.5t-86 -63.5t-93.5 -18q-51 0 -111 17.5t-105 62.5t-45 123v240v156q0 44 -14.5 62t-45.5 18v20h270v-20q-31 0 -45.5 -18t-14.5 -62v-159v-237q0 -38 14 -79.5t47 -71t85 -29.5q39 0 78 20.5t64.5 61
t25.5 98.5v396q0 44 -14.5 62t-45.5 18v20h133v-20zM237 826.5q17 16.5 40 16.5t39.5 -17t16.5 -40t-16.5 -39.5t-38.5 -16.5q-24 0 -41 16.5t-17 39.5q0 24 17 40.5zM381 826.5q17 16.5 40 16.5t39.5 -17t16.5 -40q0 -22 -17 -39t-39 -17q-23 0 -40 16.5t-17 39.5
q0 24 17 40.5z" />
    <glyph glyph-name="Yacute" unicode="&#xdd;" horiz-adv-x="722" 
d="M682 670q-69 0 -103 -70l-117 -244v-256q0 -44 14.5 -62t45.5 -18v-20h-270v20q31 0 45.5 18t14.5 62v205l-180 299q-39 66 -112 66v20h288v-20q-16 0 -23 -3t-7 -10t6 -18.5t20 -31.5l156 -231l107 224q17 36 17 50q0 11 -8 15.5t-26 4.5v20h132v-20zM379 807
q26 79 40 98q7 9 17.5 14.5t21.5 5.5q13 0 23 -7q18 -13 18 -35q0 -15 -9 -29q-7 -10 -27 -27.5t-42 -35.5q-56 -46 -66 -61l-5 3q7 11 29 74z" />
    <glyph glyph-name="Thorn" unicode="&#xde;" horiz-adv-x="504" 
d="M230 187v-87q0 -44 14.5 -62t45.5 -18v-20h-270v20q31 0 45.5 18t14.5 62v490q0 44 -14.5 62t-45.5 18v20h270v-20q-31 0 -45.5 -18t-14.5 -62v-87h32q57 0 108.5 -22t82.5 -58.5t31 -76.5q0 -41 -31 -78t-82.5 -59t-108.5 -22h-32zM230 490v-290h32q40 0 55 40t15 105
q0 67 -15 106t-55 39h-32z" />
    <glyph glyph-name="agrave" unicode="&#xe0;" horiz-adv-x="521" 
d="M501 119q0 -38 -15 -67.5t-39 -45t-50 -15.5q-36 0 -67.5 17.5t-50.5 51.5q-39 -69 -110 -69q-62 0 -105.5 28.5t-43.5 87.5q0 105 237 137v60q0 42 -15 68.5t-47 26.5q-21 0 -37.5 -7t-23.5 -15.5t-3 -12.5q33 -25 33 -56q0 -17 -8 -32q-9 -16 -24 -25t-33 -9
q-15 0 -31 8q-17 8 -27.5 24t-10.5 34q0 17 10 31q21 35 63 52.5t88 17.5q63 0 112 -21.5t76.5 -59t27.5 -82.5v-86q0 -53 10 -79.5t32 -26.5q21 0 31.5 19.5t10.5 45.5h10zM250 42q12 10 24 29q-17 37 -17 89v69q-87 -25 -87 -115q0 -82 54 -82q14 0 26 10zM172 501
q-22 18 -42 35.5t-27 27.5q-9 14 -9 29q0 22 18 35q10 7 23 7q11 0 21.5 -5.5t17.5 -14.5q8 -10 19.5 -40.5t21.5 -60.5q19 -58 27 -71l-4 -3q-10 15 -66 61z" />
    <glyph glyph-name="aacute" unicode="&#xe1;" horiz-adv-x="521" 
d="M501 119q0 -38 -15 -67.5t-39 -45t-50 -15.5q-36 0 -67.5 17.5t-50.5 51.5q-39 -69 -110 -69q-62 0 -105.5 28.5t-43.5 87.5q0 105 237 137v60q0 42 -15 68.5t-47 26.5q-21 0 -37.5 -7t-23.5 -15.5t-3 -12.5q33 -25 33 -56q0 -17 -8 -32q-9 -16 -24 -25t-33 -9
q-15 0 -31 8q-17 8 -27.5 24t-10.5 34q0 17 10 31q21 35 63 52.5t88 17.5q63 0 112 -21.5t76.5 -59t27.5 -82.5v-86q0 -53 10 -79.5t32 -26.5q21 0 31.5 19.5t10.5 45.5h10zM250 42q12 10 24 29q-17 37 -17 89v69q-87 -25 -87 -115q0 -82 54 -82q14 0 26 10zM229 517
q26 79 40 98q7 9 17.5 14.5t21.5 5.5q13 0 23 -7q18 -13 18 -35q0 -15 -9 -29q-7 -10 -27 -27.5t-42 -35.5q-56 -46 -66 -61l-5 3q7 11 29 74z" />
    <glyph glyph-name="acircumflex" unicode="&#xe2;" horiz-adv-x="521" 
d="M501 119q0 -38 -15 -67.5t-39 -45t-50 -15.5q-36 0 -67.5 17.5t-50.5 51.5q-39 -69 -110 -69q-62 0 -105.5 28.5t-43.5 87.5q0 105 237 137v60q0 42 -15 68.5t-47 26.5q-21 0 -37.5 -7t-23.5 -15.5t-3 -12.5q33 -25 33 -56q0 -17 -8 -32q-9 -16 -24 -25t-33 -9
q-15 0 -31 8q-17 8 -27.5 24t-10.5 34q0 17 10 31q21 35 63 52.5t88 17.5q63 0 112 -21.5t76.5 -59t27.5 -82.5v-86q0 -53 10 -79.5t32 -26.5q21 0 31.5 19.5t10.5 45.5h10zM250 42q12 10 24 29q-17 37 -17 89v69q-87 -25 -87 -115q0 -82 54 -82q14 0 26 10zM190 625h12
l110 -155h-13l-103 75l-103 -75h-13z" />
    <glyph glyph-name="atilde" unicode="&#xe3;" horiz-adv-x="521" 
d="M501 119q0 -38 -15 -67.5t-39 -45t-50 -15.5q-36 0 -67.5 17.5t-50.5 51.5q-39 -69 -110 -69q-62 0 -105.5 28.5t-43.5 87.5q0 105 237 137v60q0 42 -15 68.5t-47 26.5q-21 0 -37.5 -7t-23.5 -15.5t-3 -12.5q33 -25 33 -56q0 -17 -8 -32q-9 -16 -24 -25t-33 -9
q-15 0 -31 8q-17 8 -27.5 24t-10.5 34q0 17 10 31q21 35 63 52.5t88 17.5q63 0 112 -21.5t76.5 -59t27.5 -82.5v-86q0 -53 10 -79.5t32 -26.5q21 0 31.5 19.5t10.5 45.5h10zM250 42q12 10 24 29q-17 37 -17 89v69q-87 -25 -87 -115q0 -82 54 -82q14 0 26 10zM77 473
q0 29 14.5 56t38 44t49.5 17q17 0 30.5 -6t30.5 -17q16 -9 25 -13.5t20 -4.5q21 0 36.5 11t15.5 27h6q0 -27 -14 -54.5t-37.5 -45t-49.5 -17.5q-17 0 -30.5 6t-30.5 17q-16 9 -25.5 13.5t-20.5 4.5q-22 0 -36.5 -10.5t-14.5 -27.5h-7z" />
    <glyph glyph-name="adieresis" unicode="&#xe4;" horiz-adv-x="521" 
d="M501 119q0 -38 -15 -67.5t-39 -45t-50 -15.5q-36 0 -67.5 17.5t-50.5 51.5q-39 -69 -110 -69q-62 0 -105.5 28.5t-43.5 87.5q0 105 237 137v60q0 42 -15 68.5t-47 26.5q-21 0 -37.5 -7t-23.5 -15.5t-3 -12.5q33 -25 33 -56q0 -17 -8 -32q-9 -16 -24 -25t-33 -9
q-15 0 -31 8q-17 8 -27.5 24t-10.5 34q0 17 10 31q21 35 63 52.5t88 17.5q63 0 112 -21.5t76.5 -59t27.5 -82.5v-86q0 -53 10 -79.5t32 -26.5q21 0 31.5 19.5t10.5 45.5h10zM250 42q12 10 24 29q-17 37 -17 89v69q-87 -25 -87 -115q0 -82 54 -82q14 0 26 10zM96 566.5
q17 16.5 40 16.5t39.5 -17t16.5 -40t-16.5 -39.5t-38.5 -16.5q-24 0 -41 16.5t-17 39.5q0 24 17 40.5zM240 566.5q17 16.5 40 16.5t39.5 -17t16.5 -40q0 -22 -17 -39t-39 -17q-23 0 -40 16.5t-17 39.5q0 24 17 40.5z" />
    <glyph glyph-name="aring" unicode="&#xe5;" horiz-adv-x="521" 
d="M501 119q0 -38 -15 -67.5t-39 -45t-50 -15.5q-36 0 -67.5 17.5t-50.5 51.5q-39 -69 -110 -69q-62 0 -105.5 28.5t-43.5 87.5q0 105 237 137v60q0 42 -15 68.5t-47 26.5q-21 0 -37.5 -7t-23.5 -15.5t-3 -12.5q33 -25 33 -56q0 -17 -8 -32q-9 -16 -24 -25t-33 -9
q-15 0 -31 8q-17 8 -27.5 24t-10.5 34q0 17 10 31q21 35 63 52.5t88 17.5q63 0 112 -21.5t76.5 -59t27.5 -82.5v-86q0 -53 10 -79.5t32 -26.5q21 0 31.5 19.5t10.5 45.5h10zM250 42q12 10 24 29q-17 37 -17 89v69q-87 -25 -87 -115q0 -82 54 -82q14 0 26 10zM137.5 610
q26.5 26 60.5 26q33 0 59 -26t26 -59q0 -35 -25 -61t-60 -26q-36 0 -61.5 26t-25.5 61q0 33 26.5 59zM145 498.5q22 -22.5 53 -22.5q30 0 51.5 22.5t21.5 52.5q0 29 -22.5 51t-50.5 22q-30 0 -52.5 -22t-22.5 -51q0 -30 22 -52.5z" />
    <glyph glyph-name="ae" unicode="&#xe6;" horiz-adv-x="699" 
d="M611 30q-49 -39 -131 -39h-4h-1h-2q-57 1 -104.5 25t-76.5 65q-13 -24 -25.5 -41t-37.5 -33t-60 -16q-62 0 -105.5 28.5t-43.5 87.5q0 105 237 137v60q0 42 -15 69t-47 27q-21 0 -37.5 -7t-23.5 -16t-3 -13q33 -25 33 -56q0 -17 -8 -32q-9 -16 -24 -25t-33 -9
q-15 0 -31 8q-17 8 -27 24t-10 34q0 16 9 31q21 35 63 52.5t88 17.5q90 0 141 -42q53 42 134 42q69 0 113 -30t63.5 -76.5t19.5 -98.5h-264q5 -54 27.5 -90.5t53.5 -54t61 -17.5q91 0 129 84l10 -7q-19 -50 -68 -89zM411 346.5q-16 -52.5 -14 -122.5h127q0 175 -63 175
q-34 0 -50 -52.5zM255.5 47q13.5 15 29.5 43q-28 45 -28 100v39q-87 -25 -87 -115q0 -82 54 -82q18 0 31.5 15z" />
    <glyph glyph-name="ccedilla" unicode="&#xe7;" horiz-adv-x="472" 
d="M246 -8l-55 -82q16 16 51 16q31 0 51.5 -20t20.5 -49q0 -52 -53 -79.5t-128 -27.5v9q55 0 80 21t25 57q0 19 -9.5 29t-24.5 10q-18 0 -37 -11t-32 -30l-10 8l105 150q-57 4 -105.5 31t-76.5 71t-28 97q0 58 28.5 108t81.5 80t123 30q49 0 90 -22.5t64.5 -54t23.5 -55.5
t-18.5 -41.5t-44.5 -17.5t-44.5 17t-18.5 42q0 33 44 57q8 4 -2.5 21t-35.5 30.5t-58 13.5q-85 0 -85 -175q0 -55 20.5 -96t56 -63.5t79.5 -22.5q38 0 62 13.5t34 28.5t23 42l9 -7q-19 -51 -67.5 -89.5t-131.5 -38.5h-7z" />
    <glyph glyph-name="egrave" unicode="&#xe8;" horiz-adv-x="470" 
d="M45.5 299q25.5 50 73.5 80t113 30q64 0 109.5 -30.5t68.5 -78t23 -96.5h-264q8 -83 45 -122.5t97 -39.5q91 0 129 84l10 -7q-19 -50 -68 -89t-131 -39q-62 0 -115 26t-84.5 71.5t-31.5 102.5q0 58 25.5 108zM295 217q0 78 -14 130t-49 52q-32 0 -48.5 -45t-16.5 -109
q0 -19 1 -28h127zM163 501q-22 18 -42 35.5t-27 27.5q-9 14 -9 29q0 22 18 35q10 7 23 7q11 0 21.5 -5.5t17.5 -14.5q8 -10 19.5 -40.5t21.5 -60.5q19 -58 27 -71l-4 -3q-10 15 -66 61z" />
    <glyph glyph-name="eacute" unicode="&#xe9;" horiz-adv-x="470" 
d="M45.5 299q25.5 50 73.5 80t113 30q64 0 109.5 -30.5t68.5 -78t23 -96.5h-264q8 -83 45 -122.5t97 -39.5q91 0 129 84l10 -7q-19 -50 -68 -89t-131 -39q-62 0 -115 26t-84.5 71.5t-31.5 102.5q0 58 25.5 108zM295 217q0 78 -14 130t-49 52q-32 0 -48.5 -45t-16.5 -109
q0 -19 1 -28h127zM229 517q26 79 40 98q7 9 17.5 14.5t21.5 5.5q13 0 23 -7q18 -13 18 -35q0 -15 -9 -29q-7 -10 -27 -27.5t-42 -35.5q-56 -46 -66 -61l-5 3q7 11 29 74z" />
    <glyph glyph-name="ecircumflex" unicode="&#xea;" horiz-adv-x="470" 
d="M45.5 299q25.5 50 73.5 80t113 30q64 0 109.5 -30.5t68.5 -78t23 -96.5h-264q8 -83 45 -122.5t97 -39.5q91 0 129 84l10 -7q-19 -50 -68 -89t-131 -39q-62 0 -115 26t-84.5 71.5t-31.5 102.5q0 58 25.5 108zM295 217q0 78 -14 130t-49 52q-32 0 -48.5 -45t-16.5 -109
q0 -19 1 -28h127zM219 625h12l110 -155h-13l-103 75l-103 -75h-13z" />
    <glyph glyph-name="edieresis" unicode="&#xeb;" horiz-adv-x="470" 
d="M45.5 299q25.5 50 73.5 80t113 30q64 0 109.5 -30.5t68.5 -78t23 -96.5h-264q8 -83 45 -122.5t97 -39.5q91 0 129 84l10 -7q-19 -50 -68 -89t-131 -39q-62 0 -115 26t-84.5 71.5t-31.5 102.5q0 58 25.5 108zM295 217q0 78 -14 130t-49 52q-32 0 -48.5 -45t-16.5 -109
q0 -19 1 -28h127zM113 566.5q17 16.5 40 16.5t39.5 -17t16.5 -40t-16.5 -39.5t-38.5 -16.5q-24 0 -41 16.5t-17 39.5q0 24 17 40.5zM257 566.5q17 16.5 40 16.5t39.5 -17t16.5 -40q0 -22 -17 -39t-39 -17q-23 0 -40 16.5t-17 39.5q0 24 17 40.5z" />
    <glyph glyph-name="igrave" unicode="&#xec;" horiz-adv-x="310" 
d="M244.5 38q14.5 -18 45.5 -18v-20h-270v20q31 0 45.5 18t14.5 62v200q0 44 -14.5 62t-45.5 18v20h60q76 0 130 9h20v-309q0 -44 14.5 -62zM122 501q-22 18 -42 35.5t-27 27.5q-9 14 -9 29q0 22 18 35q10 7 23 7q11 0 21.5 -5.5t17.5 -14.5q8 -10 19.5 -40.5t21.5 -60.5
q19 -58 27 -71l-4 -3q-10 15 -66 61z" />
    <glyph glyph-name="iacute" unicode="&#xed;" horiz-adv-x="310" 
d="M244.5 38q14.5 -18 45.5 -18v-20h-270v20q31 0 45.5 18t14.5 62v200q0 44 -14.5 62t-45.5 18v20h60q76 0 130 9h20v-309q0 -44 14.5 -62zM99 517q26 79 40 98q7 9 17.5 14.5t21.5 5.5q13 0 23 -7q18 -13 18 -35q0 -15 -9 -29q-7 -10 -27 -27.5t-42 -35.5q-56 -46 -66 -61
l-5 3q7 11 29 74z" />
    <glyph glyph-name="icircumflex" unicode="&#xee;" horiz-adv-x="310" 
d="M244.5 38q14.5 -18 45.5 -18v-20h-270v20q31 0 45.5 18t14.5 62v200q0 44 -14.5 62t-45.5 18v20h60q76 0 130 9h20v-309q0 -44 14.5 -62zM125 625h12l110 -155h-13l-103 75l-103 -75h-13z" />
    <glyph glyph-name="idieresis" unicode="&#xef;" horiz-adv-x="310" 
d="M244.5 38q14.5 -18 45.5 -18v-20h-270v20q31 0 45.5 18t14.5 62v200q0 44 -14.5 62t-45.5 18v20h60q76 0 130 9h20v-309q0 -44 14.5 -62zM38 566.5q17 16.5 40 16.5t39.5 -17t16.5 -40t-16.5 -39.5t-38.5 -16.5q-24 0 -41 16.5t-17 39.5q0 24 17 40.5zM182 566.5
q17 16.5 40 16.5t39.5 -17t16.5 -40q0 -22 -17 -39t-39 -17q-23 0 -40 16.5t-17 39.5q0 24 17 40.5z" />
    <glyph glyph-name="ntilde" unicode="&#xf1;" horiz-adv-x="600" 
d="M534.5 38q14.5 -18 45.5 -18v-20h-270v20q31 0 45.5 18t14.5 62v157q0 42 -17 69t-43 27q-20 0 -40.5 -18t-39.5 -55v-180q0 -44 14.5 -62t45.5 -18v-20h-270v20q31 0 45.5 18t14.5 62v200q0 44 -14.5 62t-45.5 18v20h60q76 0 130 9h20v-109q24 48 68 78.5t101 30.5
q60 0 90.5 -38.5t30.5 -113.5v-157q0 -44 14.5 -62zM160 473q0 29 14.5 56t38 44t49.5 17q17 0 30.5 -6t30.5 -17q16 -9 25 -13.5t20 -4.5q21 0 36.5 11t15.5 27h6q0 -27 -14 -54.5t-37.5 -45t-49.5 -17.5q-17 0 -30.5 6t-30.5 17q-16 9 -25.5 13.5t-20.5 4.5
q-22 0 -36.5 -10.5t-14.5 -27.5h-7z" />
    <glyph glyph-name="ograve" unicode="&#xf2;" horiz-adv-x="462" 
d="M48.5 305q28.5 48 77 76t106.5 28q57 0 105 -28t76.5 -76t28.5 -104q0 -57 -28 -105.5t-76.5 -76.5t-105.5 -28q-58 0 -106.5 28t-77 76.5t-28.5 105.5q0 56 28.5 104zM232 1q60 0 60 199q0 91 -13 145t-47 54q-61 0 -61 -199t61 -199zM155 501q-22 18 -42 35.5t-27 27.5
q-9 14 -9 29q0 22 18 35q10 7 23 7q11 0 21.5 -5.5t17.5 -14.5q8 -10 19.5 -40.5t21.5 -60.5q19 -58 27 -71l-4 -3q-10 15 -66 61z" />
    <glyph glyph-name="oacute" unicode="&#xf3;" horiz-adv-x="462" 
d="M48.5 305q28.5 48 77 76t106.5 28q57 0 105 -28t76.5 -76t28.5 -104q0 -57 -28 -105.5t-76.5 -76.5t-105.5 -28q-58 0 -106.5 28t-77 76.5t-28.5 105.5q0 56 28.5 104zM232 1q60 0 60 199q0 91 -13 145t-47 54q-61 0 -61 -199t61 -199zM248 517q26 79 40 98
q7 9 17.5 14.5t21.5 5.5q13 0 23 -7q18 -13 18 -35q0 -15 -9 -29q-7 -10 -27 -27.5t-42 -35.5q-56 -46 -66 -61l-5 3q7 11 29 74z" />
    <glyph glyph-name="ocircumflex" unicode="&#xf4;" horiz-adv-x="462" 
d="M48.5 305q28.5 48 77 76t106.5 28q57 0 105 -28t76.5 -76t28.5 -104q0 -57 -28 -105.5t-76.5 -76.5t-105.5 -28q-58 0 -106.5 28t-77 76.5t-28.5 105.5q0 56 28.5 104zM232 1q60 0 60 199q0 91 -13 145t-47 54q-61 0 -61 -199t61 -199zM225 625h12l110 -155h-13l-103 75
l-103 -75h-13z" />
    <glyph glyph-name="otilde" unicode="&#xf5;" horiz-adv-x="462" 
d="M48.5 305q28.5 48 77 76t106.5 28q57 0 105 -28t76.5 -76t28.5 -104q0 -57 -28 -105.5t-76.5 -76.5t-105.5 -28q-58 0 -106.5 28t-77 76.5t-28.5 105.5q0 56 28.5 104zM232 1q60 0 60 199q0 91 -13 145t-47 54q-61 0 -61 -199t61 -199zM98 473q0 29 14.5 56t38 44
t49.5 17q17 0 30.5 -6t30.5 -17q16 -9 25 -13.5t20 -4.5q21 0 36.5 11t15.5 27h6q0 -27 -14 -54.5t-37.5 -45t-49.5 -17.5q-17 0 -30.5 6t-30.5 17q-16 9 -25.5 13.5t-20.5 4.5q-22 0 -36.5 -10.5t-14.5 -27.5h-7z" />
    <glyph glyph-name="odieresis" unicode="&#xf6;" horiz-adv-x="462" 
d="M48.5 305q28.5 48 77 76t106.5 28q57 0 105 -28t76.5 -76t28.5 -104q0 -57 -28 -105.5t-76.5 -76.5t-105.5 -28q-58 0 -106.5 28t-77 76.5t-28.5 105.5q0 56 28.5 104zM232 1q60 0 60 199q0 91 -13 145t-47 54q-61 0 -61 -199t61 -199zM120 566.5q17 16.5 40 16.5
t39.5 -17t16.5 -40t-16.5 -39.5t-38.5 -16.5q-24 0 -41 16.5t-17 39.5q0 24 17 40.5zM264 566.5q17 16.5 40 16.5t39.5 -17t16.5 -40q0 -22 -17 -39t-39 -17q-23 0 -40 16.5t-17 39.5q0 24 17 40.5z" />
    <glyph glyph-name="divide" unicode="&#xf7;" horiz-adv-x="410" 
d="M149 383.5q-23 23.5 -23 56.5q0 32 23.5 55.5t56.5 23.5q32 0 55.5 -23.5t23.5 -55.5q0 -33 -23 -56.5t-56 -23.5q-34 0 -57 23.5zM370 289v-15h-330v15h330zM149 84.5q-23 23.5 -23 56.5q0 32 23.5 55.5t56.5 23.5q32 0 55.5 -23.5t23.5 -55.5q0 -33 -23 -56.5
t-56 -23.5q-34 0 -57 23.5z" />
    <glyph glyph-name="ugrave" unicode="&#xf9;" horiz-adv-x="600" 
d="M534.5 38q14.5 -18 45.5 -18v-20h-60q-76 0 -130 -9h-20v109q-24 -48 -68 -78.5t-101 -30.5q-60 0 -90.5 38.5t-30.5 113.5v157q0 44 -14.5 62t-45.5 18v20h60q76 0 130 9h20v-19v-105v-142q0 -42 17 -69t43 -27q20 0 40.5 18t39.5 55v180q0 44 -14.5 62t-45.5 18v20h60
q76 0 130 9h20v-309q0 -44 14.5 -62zM228 501q-22 18 -42 35.5t-27 27.5q-9 14 -9 29q0 22 18 35q10 7 23 7q11 0 21.5 -5.5t17.5 -14.5q8 -10 19.5 -40.5t21.5 -60.5q19 -58 27 -71l-4 -3q-10 15 -66 61z" />
    <glyph glyph-name="uacute" unicode="&#xfa;" horiz-adv-x="600" 
d="M534.5 38q14.5 -18 45.5 -18v-20h-60q-76 0 -130 -9h-20v109q-24 -48 -68 -78.5t-101 -30.5q-60 0 -90.5 38.5t-30.5 113.5v157q0 44 -14.5 62t-45.5 18v20h60q76 0 130 9h20v-19v-105v-142q0 -42 17 -69t43 -27q20 0 40.5 18t39.5 55v180q0 44 -14.5 62t-45.5 18v20h60
q76 0 130 9h20v-309q0 -44 14.5 -62zM277 517q26 79 40 98q7 9 17.5 14.5t21.5 5.5q13 0 23 -7q18 -13 18 -35q0 -15 -9 -29q-7 -10 -27 -27.5t-42 -35.5q-56 -46 -66 -61l-5 3q7 11 29 74z" />
    <glyph glyph-name="ucircumflex" unicode="&#xfb;" horiz-adv-x="600" 
d="M534.5 38q14.5 -18 45.5 -18v-20h-60q-76 0 -130 -9h-20v109q-24 -48 -68 -78.5t-101 -30.5q-60 0 -90.5 38.5t-30.5 113.5v157q0 44 -14.5 62t-45.5 18v20h60q76 0 130 9h20v-19v-105v-142q0 -42 17 -69t43 -27q20 0 40.5 18t39.5 55v180q0 44 -14.5 62t-45.5 18v20h60
q76 0 130 9h20v-309q0 -44 14.5 -62zM274 625h12l110 -155h-13l-103 75l-103 -75h-13z" />
    <glyph glyph-name="udieresis" unicode="&#xfc;" horiz-adv-x="600" 
d="M534.5 38q14.5 -18 45.5 -18v-20h-60q-76 0 -130 -9h-20v109q-24 -48 -68 -78.5t-101 -30.5q-60 0 -90.5 38.5t-30.5 113.5v157q0 44 -14.5 62t-45.5 18v20h60q76 0 130 9h20v-19v-105v-142q0 -42 17 -69t43 -27q20 0 40.5 18t39.5 55v180q0 44 -14.5 62t-45.5 18v20h60
q76 0 130 9h20v-309q0 -44 14.5 -62zM178 566.5q17 16.5 40 16.5t39.5 -17t16.5 -40t-16.5 -39.5t-38.5 -16.5q-24 0 -41 16.5t-17 39.5q0 24 17 40.5zM322 566.5q17 16.5 40 16.5t39.5 -17t16.5 -40q0 -22 -17 -39t-39 -17q-23 0 -40 16.5t-17 39.5q0 24 17 40.5z" />
    <glyph glyph-name="yacute" unicode="&#xfd;" horiz-adv-x="536" 
d="M41 -133.5q21 21.5 52 21.5t52 -21.5t21 -52.5q0 -17 -6 -30q-2 -4 -2 -6q0 -4 4 -4q5 0 14 6q21 15 38 41t26 50l48 127l-127 309q-16 40 -41 56.5t-57 16.5v20h288v-20q-19 0 -28 -6t-9 -20q0 -16 12 -48l40 -104l41 105q13 34 13 48q0 13 -9 19t-28 6v20h133v-20
q-32 0 -56 -16.5t-40 -56.5l-167 -439q-11 -28 -25 -52.5t-48 -49.5t-87 -25q-31 0 -52 21t-21 52t21 52.5zM253 517q26 79 40 98q7 9 17.5 14.5t21.5 5.5q13 0 23 -7q18 -13 18 -35q0 -15 -9 -29q-7 -10 -27 -27.5t-42 -35.5q-56 -46 -66 -61l-5 3q7 11 29 74z" />
    <glyph glyph-name="thorn" unicode="&#xfe;" horiz-adv-x="543" 
d="M324 409q47 0 93.5 -25.5t76.5 -73t30 -110.5t-30 -110.5t-76 -73t-94 -25.5q-34 0 -62 14q-22 12 -32 20v-175q0 -44 14.5 -62t45.5 -18v-20h-270v20q31 0 45.5 18t14.5 62v740q0 44 -14.5 62t-45.5 18v20h60q76 0 130 9h20v-324q10 8 32 20q28 14 62 14zM318 54.5
q26 22.5 41 60.5t15 84q0 49 -15 87t-41 59.5t-56 21.5q-18 0 -32 -12v-311q14 -12 32 -12q30 0 56 22.5z" />
    <glyph glyph-name="ydieresis" unicode="&#xff;" horiz-adv-x="536" 
d="M41 -133.5q21 21.5 52 21.5t52 -21.5t21 -52.5q0 -17 -6 -30q-2 -4 -2 -6q0 -4 4 -4q5 0 14 6q21 15 38 41t26 50l48 127l-127 309q-16 40 -41 56.5t-57 16.5v20h288v-20q-19 0 -28 -6t-9 -20q0 -16 12 -48l40 -104l41 105q13 34 13 48q0 13 -9 19t-28 6v20h133v-20
q-32 0 -56 -16.5t-40 -56.5l-167 -439q-11 -28 -25 -52.5t-48 -49.5t-87 -25q-31 0 -52 21t-21 52t21 52.5zM201 566.5q17 16.5 40 16.5t39.5 -17t16.5 -40t-16.5 -39.5t-38.5 -16.5q-24 0 -41 16.5t-17 39.5q0 24 17 40.5zM345 566.5q17 16.5 40 16.5t39.5 -17t16.5 -40
q0 -22 -17 -39t-39 -17q-23 0 -40 16.5t-17 39.5q0 24 17 40.5z" />
    <glyph glyph-name="Amacron" unicode="&#x100;" horiz-adv-x="705" 
d="M685 20v-20h-288v20q19 0 27.5 5.5t8.5 18.5t-13 49l-32 80h-234l-27 -78q-10 -29 -10 -46q0 -16 9 -22.5t29 -6.5v-20h-135v20q32 0 55 17t37 58l204 595h14l256 -598q30 -72 99 -72zM383 186l-122 302l-103 -302h225zM448 785v-15h-250v15h250z" />
    <glyph glyph-name="amacron" unicode="&#x101;" horiz-adv-x="521" 
d="M501 119q0 -38 -15 -67.5t-39 -45t-50 -15.5q-36 0 -67.5 17.5t-50.5 51.5q-39 -69 -110 -69q-62 0 -105.5 28.5t-43.5 87.5q0 105 237 137v60q0 42 -15 68.5t-47 26.5q-21 0 -37.5 -7t-23.5 -15.5t-3 -12.5q33 -25 33 -56q0 -17 -8 -32q-9 -16 -24 -25t-33 -9
q-15 0 -31 8q-17 8 -27.5 24t-10.5 34q0 17 10 31q21 35 63 52.5t88 17.5q63 0 112 -21.5t76.5 -59t27.5 -82.5v-86q0 -53 10 -79.5t32 -26.5q21 0 31.5 19.5t10.5 45.5h10zM250 42q12 10 24 29q-17 37 -17 89v69q-87 -25 -87 -115q0 -82 54 -82q14 0 26 10zM329 485v-15
h-250v15h250z" />
    <glyph glyph-name="Abreve" unicode="&#x102;" horiz-adv-x="705" 
d="M685 20v-20h-288v20q19 0 27.5 5.5t8.5 18.5t-13 49l-32 80h-234l-27 -78q-10 -29 -10 -46q0 -16 9 -22.5t29 -6.5v-20h-135v20q32 0 55 17t37 58l204 595h14l256 -598q30 -72 99 -72zM383 186l-122 302l-103 -302h225zM237 851q0 -25 27 -41.5t61 -16.5t60 16.5t26 41.5
h13q0 -41 -29 -71t-70 -30q-42 0 -71.5 30t-29.5 71h13z" />
    <glyph glyph-name="abreve" unicode="&#x103;" horiz-adv-x="521" 
d="M501 119q0 -38 -15 -67.5t-39 -45t-50 -15.5q-36 0 -67.5 17.5t-50.5 51.5q-39 -69 -110 -69q-62 0 -105.5 28.5t-43.5 87.5q0 105 237 137v60q0 42 -15 68.5t-47 26.5q-21 0 -37.5 -7t-23.5 -15.5t-3 -12.5q33 -25 33 -56q0 -17 -8 -32q-9 -16 -24 -25t-33 -9
q-15 0 -31 8q-17 8 -27.5 24t-10.5 34q0 17 10 31q21 35 63 52.5t88 17.5q63 0 112 -21.5t76.5 -59t27.5 -82.5v-86q0 -53 10 -79.5t32 -26.5q21 0 31.5 19.5t10.5 45.5h10zM250 42q12 10 24 29q-17 37 -17 89v69q-87 -25 -87 -115q0 -82 54 -82q14 0 26 10zM114 571
q0 -25 27 -41.5t61 -16.5t60 16.5t26 41.5h13q0 -41 -29 -71t-70 -30q-42 0 -71.5 30t-29.5 71h13z" />
    <glyph glyph-name="Aogonek" unicode="&#x104;" horiz-adv-x="705" 
d="M685 20v-20h-165q-4 -2 -29.5 -15.5t-45 -43t-19.5 -69.5q0 -32 17.5 -51t42.5 -19q23 0 52 15t58 59l10 -6q-70 -120 -160 -120q-39 0 -73 25.5t-34 78.5q0 60 49 95t96 51h-87v20q19 0 27.5 5.5t8.5 18.5t-13 49l-32 80h-234l-27 -78q-10 -29 -10 -46q0 -16 9 -22.5
t29 -6.5v-20h-135v20q32 0 55 17t37 58l204 595h14l256 -598q30 -72 99 -72zM383 186l-122 302l-103 -302h225z" />
    <glyph glyph-name="aogonek" unicode="&#x105;" horiz-adv-x="521" 
d="M503 -130q-70 -120 -160 -120q-39 0 -73 25.5t-34 78.5t41 87.5t89 52.5q-59 13 -87 66q-39 -69 -110 -69q-62 0 -105.5 28.5t-43.5 87.5q0 105 237 137v60q0 42 -15 68.5t-47 26.5q-21 0 -37.5 -7t-23.5 -15.5t-3 -12.5q33 -25 33 -56q0 -17 -8 -32q-9 -16 -24 -25
t-33 -9q-15 0 -31 8q-17 8 -27.5 24t-10.5 34q0 17 10 31q21 35 63 52.5t88 17.5q63 0 112 -21.5t76.5 -59t27.5 -82.5v-86q0 -53 10 -79.5t32 -26.5q21 0 31.5 19.5t10.5 45.5h10q0 -37 -14.5 -66t-37.5 -45t-48 -17q-32 -17 -55 -44.5t-23 -74.5q0 -32 17.5 -51t42.5 -19
q23 0 52 15t58 59zM250 42q12 10 24 29q-17 37 -17 89v69q-87 -25 -87 -115q0 -82 54 -82q14 0 26 10z" />
    <glyph glyph-name="Cacute" unicode="&#x106;" horiz-adv-x="683" 
d="M275.5 644.5q-46.5 -44.5 -66.5 -111t-20 -136.5q0 -110 38.5 -179.5t93.5 -99.5t106 -30q66 0 130 31t94 130l12 -6q-31 -117 -102.5 -184.5t-172.5 -67.5q-88 0 -168 40.5t-130 118t-50 180.5q0 101 43.5 186t126 135.5t193.5 50.5q31 1 59 -4t74 -16q48 -11 63 -11
q23 0 23 19h20l3 -246h-20q-11 39 -36.5 94t-74.5 103t-116 48q-76 0 -122.5 -44.5zM358 807q26 79 40 98q7 9 17.5 14.5t21.5 5.5q13 0 23 -7q18 -13 18 -35q0 -15 -9 -29q-7 -10 -27 -27.5t-42 -35.5q-56 -46 -66 -61l-5 3q7 11 29 74z" />
    <glyph glyph-name="cacute" unicode="&#x107;" horiz-adv-x="472" 
d="M48.5 300q28.5 50 81.5 80t123 30q49 0 90 -22.5t64.5 -54t23.5 -55.5t-18.5 -41.5t-44.5 -17.5t-44.5 17t-18.5 42q0 33 44 57q8 4 -2.5 21t-35.5 30.5t-58 13.5q-85 0 -85 -175q0 -55 20.5 -96t56 -63.5t79.5 -22.5q38 0 62 13.5t34 28.5t23 42l9 -7
q-19 -51 -67.5 -89.5t-131.5 -38.5q-62 0 -115.5 26t-85.5 71.5t-32 102.5q0 58 28.5 108zM229 517q26 79 40 98q7 9 17.5 14.5t21.5 5.5q13 0 23 -7q18 -13 18 -35q0 -15 -9 -29q-7 -10 -27 -27.5t-42 -35.5q-56 -46 -66 -61l-5 3q7 11 29 74z" />
    <glyph glyph-name="Ccircumflex" unicode="&#x108;" horiz-adv-x="683" 
d="M275.5 644.5q-46.5 -44.5 -66.5 -111t-20 -136.5q0 -110 38.5 -179.5t93.5 -99.5t106 -30q66 0 130 31t94 130l12 -6q-31 -117 -102.5 -184.5t-172.5 -67.5q-88 0 -168 40.5t-130 118t-50 180.5q0 101 43.5 186t126 135.5t193.5 50.5q31 1 59 -4t74 -16q48 -11 63 -11
q23 0 23 19h20l3 -246h-20q-11 39 -36.5 94t-74.5 103t-116 48q-76 0 -122.5 -44.5zM386 905h12l100 -155h-13l-93 75l-93 -75h-13z" />
    <glyph glyph-name="ccircumflex" unicode="&#x109;" horiz-adv-x="472" 
d="M48.5 300q28.5 50 81.5 80t123 30q49 0 90 -22.5t64.5 -54t23.5 -55.5t-18.5 -41.5t-44.5 -17.5t-44.5 17t-18.5 42q0 33 44 57q8 4 -2.5 21t-35.5 30.5t-58 13.5q-85 0 -85 -175q0 -55 20.5 -96t56 -63.5t79.5 -22.5q38 0 62 13.5t34 28.5t23 42l9 -7
q-19 -51 -67.5 -89.5t-131.5 -38.5q-62 0 -115.5 26t-85.5 71.5t-32 102.5q0 58 28.5 108zM225 625h12l110 -155h-13l-103 75l-103 -75h-13z" />
    <glyph glyph-name="Ccaron" unicode="&#x10c;" horiz-adv-x="683" 
d="M275.5 644.5q-46.5 -44.5 -66.5 -111t-20 -136.5q0 -110 38.5 -179.5t93.5 -99.5t106 -30q66 0 130 31t94 130l12 -6q-31 -117 -102.5 -184.5t-172.5 -67.5q-88 0 -168 40.5t-130 118t-50 180.5q0 101 43.5 186t126 135.5t193.5 50.5q31 1 59 -4t74 -16q48 -11 63 -11
q23 0 23 19h20l3 -246h-20q-11 39 -36.5 94t-74.5 103t-116 48q-76 0 -122.5 -44.5zM299 905l103 -75l103 75h13l-110 -155h-12l-110 155h13z" />
    <glyph glyph-name="ccaron" unicode="&#x10d;" horiz-adv-x="472" 
d="M48.5 300q28.5 50 81.5 80t123 30q49 0 90 -22.5t64.5 -54t23.5 -55.5t-18.5 -41.5t-44.5 -17.5t-44.5 17t-18.5 42q0 33 44 57q8 4 -2.5 21t-35.5 30.5t-58 13.5q-85 0 -85 -175q0 -55 20.5 -96t56 -63.5t79.5 -22.5q38 0 62 13.5t34 28.5t23 42l9 -7
q-19 -51 -67.5 -89.5t-131.5 -38.5q-62 0 -115.5 26t-85.5 71.5t-32 102.5q0 58 28.5 108zM128 625l103 -75l103 75h13l-110 -155h-12l-110 155h13z" />
    <glyph glyph-name="Dcaron" unicode="&#x10e;" horiz-adv-x="716" 
d="M650 172.5q-47 -79.5 -130.5 -126t-186.5 -46.5h-313v20q31 0 45.5 18t14.5 62v490q0 44 -14.5 62t-45.5 18v20h313q102 0 185 -46t130.5 -125t47.5 -172q1 -95 -46 -174.5zM423.5 60q62.5 47 92.5 122.5t30 163.5q0 91 -29.5 166t-92.5 120t-157 45h-37v-664h37
q94 0 156.5 47zM185 905l103 -75l103 75h13l-110 -155h-12l-110 155h13z" />
    <glyph glyph-name="dcaron" unicode="&#x10f;" horiz-adv-x="645" 
d="M478.5 38q14.5 -18 45.5 -18v-20h-210v25q-10 -8 -32 -20q-28 -14 -62 -14q-47 0 -93.5 25.5t-76.5 73t-30 110.5t30 110.5t76 73t94 25.5q34 0 62 -14q22 -12 32 -20v215q0 44 -14.5 62t-45.5 18v20h60q76 0 130 9h20v-599q0 -44 14.5 -62zM623 623q0 -15 -9 -29
q-7 -10 -27 -27.5t-42 -35.5q-56 -46 -66 -61l-5 3q7 11 29 74q26 79 40 98q7 9 17.5 14.5t21.5 5.5q13 0 23 -7q18 -13 18 -35zM314 45v311q-13 12 -32 12q-30 0 -56 -22.5t-41 -60.5t-15 -84q0 -49 15 -87t41 -59.5t56 -21.5q19 0 32 12z" />
    <glyph glyph-name="Dcroat" unicode="&#x110;" horiz-adv-x="716" 
d="M650 172.5q-47 -79.5 -130.5 -126t-186.5 -46.5h-313v20q31 0 45.5 18t14.5 62v240h-60v13h60v237q0 44 -14.5 62t-45.5 18v20h313q102 0 185 -46t130.5 -125t47.5 -172q1 -95 -46 -174.5zM423.5 60q62.5 47 92.5 122.5t30 163.5q0 91 -29.5 166t-92.5 120t-157 45h-37
v-324h60v-13h-60v-327h37q94 0 156.5 47z" />
    <glyph glyph-name="dcroat" unicode="&#x111;" horiz-adv-x="544" 
d="M478.5 38q14.5 -18 45.5 -18v-20h-210v25q-10 -8 -32 -20q-28 -14 -62 -14q-47 0 -93.5 25.5t-76.5 73t-30 110.5t30 110.5t76 73t94 25.5q34 0 62 -14q22 -12 32 -20v206h-61v13h61q-1 42 -15.5 59t-44.5 17v20h60q76 0 130 9h20v-105h59v-13h-59v-481q0 -44 14.5 -62z
M314 45v311q-13 12 -32 12q-30 0 -56 -22.5t-41 -60.5t-15 -84q0 -49 15 -87t41 -59.5t56 -21.5q19 0 32 12z" />
    <glyph glyph-name="Emacron" unicode="&#x112;" horiz-adv-x="564" 
d="M230 677v-325h100q44 0 62 14.5t18 45.5h20v-133h-20q0 31 -18 45.5t-62 14.5h-100v-326h160q38 0 65 73t49 161h20v-247h-10h-144h-350v20q31 0 45.5 18t14.5 62v490q0 44 -14.5 62t-45.5 18v20h350h144h10v-247h-20q-22 88 -49 161t-65 73h-160zM397 785v-15h-250v15
h250z" />
    <glyph glyph-name="emacron" unicode="&#x113;" horiz-adv-x="470" 
d="M45.5 299q25.5 50 73.5 80t113 30q64 0 109.5 -30.5t68.5 -78t23 -96.5h-264q8 -83 45 -122.5t97 -39.5q91 0 129 84l10 -7q-19 -50 -68 -89t-131 -39q-62 0 -115 26t-84.5 71.5t-31.5 102.5q0 58 25.5 108zM295 217q0 78 -14 130t-49 52q-32 0 -48.5 -45t-16.5 -109
q0 -19 1 -28h127zM356 485v-15h-250v15h250z" />
    <glyph glyph-name="Ebreve" unicode="&#x114;" horiz-adv-x="564" 
d="M230 677v-325h100q44 0 62 14.5t18 45.5h20v-133h-20q0 31 -18 45.5t-62 14.5h-100v-326h160q38 0 65 73t49 161h20v-247h-10h-144h-350v20q31 0 45.5 18t14.5 62v490q0 44 -14.5 62t-45.5 18v20h350h144h10v-247h-20q-22 88 -49 161t-65 73h-160zM185 851
q0 -25 27 -41.5t61 -16.5t60 16.5t26 41.5h13q0 -41 -29 -71t-70 -30q-42 0 -71.5 30t-29.5 71h13z" />
    <glyph glyph-name="ebreve" unicode="&#x115;" horiz-adv-x="470" 
d="M45.5 299q25.5 50 73.5 80t113 30q64 0 109.5 -30.5t68.5 -78t23 -96.5h-264q8 -83 45 -122.5t97 -39.5q91 0 129 84l10 -7q-19 -50 -68 -89t-131 -39q-62 0 -115 26t-84.5 71.5t-31.5 102.5q0 58 25.5 108zM295 217q0 78 -14 130t-49 52q-32 0 -48.5 -45t-16.5 -109
q0 -19 1 -28h127zM134 571q0 -25 27 -41.5t61 -16.5t60 16.5t26 41.5h13q0 -41 -29 -71t-70 -30q-42 0 -71.5 30t-29.5 71h13z" />
    <glyph glyph-name="Edotaccent" unicode="&#x116;" horiz-adv-x="564" 
d="M230 677v-325h100q44 0 62 14.5t18 45.5h20v-133h-20q0 31 -18 45.5t-62 14.5h-100v-326h160q38 0 65 73t49 161h20v-247h-10h-144h-350v20q31 0 45.5 18t14.5 62v490q0 44 -14.5 62t-45.5 18v20h350h144h10v-247h-20q-22 88 -49 161t-65 73h-160zM233 826.5
q17 16.5 40 16.5t39.5 -17t16.5 -40q0 -22 -17 -39t-39 -17q-23 0 -40 16.5t-17 39.5q0 24 17 40.5z" />
    <glyph glyph-name="edotaccent" unicode="&#x117;" horiz-adv-x="470" 
d="M45.5 299q25.5 50 73.5 80t113 30q64 0 109.5 -30.5t68.5 -78t23 -96.5h-264q8 -83 45 -122.5t97 -39.5q91 0 129 84l10 -7q-19 -50 -68 -89t-131 -39q-62 0 -115 26t-84.5 71.5t-31.5 102.5q0 58 25.5 108zM295 217q0 78 -14 130t-49 52q-32 0 -48.5 -45t-16.5 -109
q0 -19 1 -28h127zM185 566.5q17 16.5 40 16.5t39.5 -17t16.5 -40q0 -22 -17 -39t-39 -17q-23 0 -40 16.5t-17 39.5q0 24 17 40.5z" />
    <glyph glyph-name="Eogonek" unicode="&#x118;" horiz-adv-x="564" 
d="M230 677v-325h100q44 0 62 14.5t18 45.5h20v-133h-20q0 31 -18 45.5t-62 14.5h-100v-326h160q38 0 65 73t49 161h20v-247h-10h-80q-4 -2 -29.5 -15.5t-45 -43t-19.5 -69.5q0 -32 17.5 -51t42.5 -19q23 0 52 15t58 59l10 -6q-70 -120 -160 -120q-39 0 -73 25.5t-34 78.5
q0 60 49 95t96 51h-28h-350v20q31 0 45.5 18t14.5 62v490q0 44 -14.5 62t-45.5 18v20h350h144h10v-247h-20q-22 88 -49 161t-65 73h-160z" />
    <glyph glyph-name="eogonek" unicode="&#x119;" horiz-adv-x="470" 
d="M181 -53.5q-23 -27.5 -23 -74.5q0 -32 17.5 -51t42.5 -19q23 0 52 15t58 59l10 -6q-70 -120 -160 -120q-39 0 -73 25.5t-34 78.5q0 54 42 88.5t90 52.5q-79 15 -131 68.5t-52 127.5q0 58 25.5 108t73.5 80t113 30q64 0 109.5 -30.5t68.5 -78t23 -96.5h-264
q8 -83 45 -122.5t97 -39.5q91 0 129 84l10 -7q-19 -50 -68 -89t-131 -39h-15q-32 -17 -55 -44.5zM183.5 354q-16.5 -45 -16.5 -109q0 -19 1 -28h127q0 78 -14 130t-49 52q-32 0 -48.5 -45z" />
    <glyph glyph-name="Ecaron" unicode="&#x11a;" horiz-adv-x="564" 
d="M230 677v-325h100q44 0 62 14.5t18 45.5h20v-133h-20q0 31 -18 45.5t-62 14.5h-100v-326h160q38 0 65 73t49 161h20v-247h-10h-144h-350v20q31 0 45.5 18t14.5 62v490q0 44 -14.5 62t-45.5 18v20h350h144h10v-247h-20q-22 88 -49 161t-65 73h-160zM169 905l103 -75
l103 75h13l-110 -155h-12l-110 155h13z" />
    <glyph glyph-name="ecaron" unicode="&#x11b;" horiz-adv-x="470" 
d="M45.5 299q25.5 50 73.5 80t113 30q64 0 109.5 -30.5t68.5 -78t23 -96.5h-264q8 -83 45 -122.5t97 -39.5q91 0 129 84l10 -7q-19 -50 -68 -89t-131 -39q-62 0 -115 26t-84.5 71.5t-31.5 102.5q0 58 25.5 108zM295 217q0 78 -14 130t-49 52q-32 0 -48.5 -45t-16.5 -109
q0 -19 1 -28h127zM122 625l103 -75l103 75h13l-110 -155h-12l-110 155h13z" />
    <glyph glyph-name="Gcircumflex" unicode="&#x11c;" horiz-adv-x="743" 
d="M723 269q-31 0 -45.5 -18t-14.5 -62v-89q-38 -50 -113 -79.5t-162 -29.5q-88 0 -168 40.5t-130 118t-50 180.5q0 101 43.5 185.5t126 134t193.5 49.5q49 1 130 -18q7 -1 29 -5.5t35 -4.5q25 0 25 19h20l3 -246h-20q-11 39 -36.5 93.5t-74 101.5t-116.5 47
q-76 0 -122.5 -44t-66.5 -109.5t-20 -135.5q0 -114 31 -204t81.5 -139.5t105.5 -49.5q49 0 75 28t31 68v89q0 44 -14.5 62t-45.5 18v20h270v-20zM376 905h12l100 -155h-13l-93 75l-93 -75h-13z" />
    <glyph glyph-name="gcircumflex" unicode="&#x11d;" horiz-adv-x="454" 
d="M184 37q26 -13 82 -28q53 -14 86.5 -27.5t57.5 -37.5t24 -61q0 -34 -25 -63t-76 -47.5t-125 -18.5q-104 0 -146 33t-42 76q0 30 29 53.5t76 34.5q-44 14 -69 32.5t-25 48.5q0 33 33.5 56t108.5 30q-53 17 -86.5 56t-33.5 85q0 39 24 73t65 54.5t91 20.5q22 0 38 -4
q21 50 57 71l-97 71l-103 -75h-13l110 155h12l103 -145q19 8 37 8q24 0 40 -15.5t16 -36.5q0 -23 -16 -39t-40 -16q-43 0 -52 55q-1 13 -8 13q-12 0 -35 -48q56 -14 93 -54t37 -88q0 -40 -24.5 -74.5t-65 -55t-87.5 -20.5q-12 0 -19 1q-27 -1 -42.5 -9t-15.5 -29
q0 -22 26 -35zM193 357.5q-11 -36.5 -11 -99.5q0 -136 51 -136q50 0 50 136q0 62 -11 99t-39 37q-29 0 -40 -36.5zM286.5 -205.5q20.5 27.5 20.5 60.5q0 30 -32 46t-97 34l-38 11q-49 -21 -50 -83q0 -47 32 -71.5t86 -24.5q58 0 78.5 27.5z" />
    <glyph glyph-name="Gbreve" unicode="&#x11e;" horiz-adv-x="743" 
d="M723 269q-31 0 -45.5 -18t-14.5 -62v-89q-38 -50 -113 -79.5t-162 -29.5q-88 0 -168 40.5t-130 118t-50 180.5q0 101 43.5 185.5t126 134t193.5 49.5q49 1 130 -18q7 -1 29 -5.5t35 -4.5q25 0 25 19h20l3 -246h-20q-11 39 -36.5 93.5t-74 101.5t-116.5 47
q-76 0 -122.5 -44t-66.5 -109.5t-20 -135.5q0 -114 31 -204t81.5 -139.5t105.5 -49.5q49 0 75 28t31 68v89q0 44 -14.5 62t-45.5 18v20h270v-20zM295 851q0 -25 27 -41.5t61 -16.5t60 16.5t26 41.5h13q0 -41 -29 -71t-70 -30q-42 0 -71.5 30t-29.5 71h13z" />
    <glyph glyph-name="gbreve" unicode="&#x11f;" horiz-adv-x="454" 
d="M184 37q26 -13 82 -28q53 -14 86.5 -27.5t57.5 -37.5t24 -61q0 -34 -25 -63t-76 -47.5t-125 -18.5q-104 0 -146 33t-42 76q0 30 29 53.5t76 34.5q-44 14 -69 32.5t-25 48.5q0 33 33.5 56t108.5 30q-53 17 -86.5 56t-33.5 85q0 39 24 73t65 54.5t91 20.5q22 0 38 -4
q19 43 47 64t59 21q24 0 40 -15.5t16 -36.5q0 -23 -16 -39t-40 -16q-43 0 -52 55q-1 13 -8 13q-12 0 -35 -48q56 -14 93 -54t37 -88q0 -40 -24.5 -74.5t-65 -55t-87.5 -20.5q-12 0 -19 1q-27 -1 -42.5 -9t-15.5 -29q0 -22 26 -35zM193 357.5q-11 -36.5 -11 -99.5
q0 -136 51 -136q50 0 50 136q0 62 -11 99t-39 37q-29 0 -40 -36.5zM286.5 -205.5q20.5 27.5 20.5 60.5q0 30 -32 46t-97 34l-38 11q-49 -21 -50 -83q0 -47 32 -71.5t86 -24.5q58 0 78.5 27.5zM141 571q0 -25 27 -41.5t61 -16.5t60 16.5t26 41.5h13q0 -41 -29 -71t-70 -30
q-42 0 -71.5 30t-29.5 71h13z" />
    <glyph glyph-name="Hcircumflex" unicode="&#x124;" horiz-adv-x="680" 
d="M614.5 652q-14.5 -18 -14.5 -62v-490q0 -44 14.5 -62t45.5 -18v-20h-270v20q31 0 45.5 18t14.5 62v245h-220v-245q0 -44 14.5 -62t45.5 -18v-20h-270v20q31 0 45.5 18t14.5 62v490q0 44 -14.5 62t-45.5 18v20h270v-20q-31 0 -45.5 -18t-14.5 -62v-232h220v232
q0 44 -14.5 62t-45.5 18v20h270v-20q-31 0 -45.5 -18zM334 905h12l100 -155h-13l-93 75l-93 -75h-13z" />
    <glyph glyph-name="hcircumflex" unicode="&#x125;" horiz-adv-x="600" 
d="M534.5 38q14.5 -18 45.5 -18v-20h-270v20q31 0 45.5 18t14.5 62v167q0 44 -18.5 73t-45.5 29q-19 0 -39 -17t-37 -52v-200q0 -44 14.5 -62t45.5 -18v-20h-270v20q31 0 45.5 18t14.5 62v490q0 44 -14.5 62t-45.5 18v20h60q76 0 130 9h20v-379q24 48 68 79t101 31
q59 0 90 -43.5t31 -119.5v-167q0 -44 14.5 -62zM120 895h12l110 -155h-13l-103 75l-103 -75h-13z" />
    <glyph glyph-name="Itilde" unicode="&#x128;" horiz-adv-x="310" 
d="M65.5 652q-14.5 18 -45.5 18v20h270v-20q-31 0 -45.5 -18t-14.5 -62v-490q0 -44 14.5 -62t45.5 -18v-20h-270v20q31 0 45.5 18t14.5 62v490q0 44 -14.5 62zM22 753q0 29 14.5 56t38 44t49.5 17q17 0 30.5 -6t30.5 -17q16 -9 25 -13.5t20 -4.5q21 0 36.5 11t15.5 27h6
q0 -27 -14 -54.5t-37.5 -45t-49.5 -17.5q-17 0 -30.5 6t-30.5 17q-16 9 -25.5 13.5t-20.5 4.5q-22 0 -36.5 -10.5t-14.5 -27.5h-7z" />
    <glyph glyph-name="itilde" unicode="&#x129;" horiz-adv-x="310" 
d="M244.5 38q14.5 -18 45.5 -18v-20h-270v20q31 0 45.5 18t14.5 62v200q0 44 -14.5 62t-45.5 18v20h60q76 0 130 9h20v-309q0 -44 14.5 -62zM22 473q0 29 14.5 56t38 44t49.5 17q17 0 30.5 -6t30.5 -17q16 -9 25 -13.5t20 -4.5q21 0 36.5 11t15.5 27h6q0 -27 -14 -54.5
t-37.5 -45t-49.5 -17.5q-17 0 -30.5 6t-30.5 17q-16 9 -25.5 13.5t-20.5 4.5q-22 0 -36.5 -10.5t-14.5 -27.5h-7z" />
    <glyph glyph-name="Imacron" unicode="&#x12a;" horiz-adv-x="310" 
d="M65.5 652q-14.5 18 -45.5 18v20h270v-20q-31 0 -45.5 -18t-14.5 -62v-490q0 -44 14.5 -62t45.5 -18v-20h-270v20q31 0 45.5 18t14.5 62v490q0 44 -14.5 62zM280 785v-15h-250v15h250z" />
    <glyph glyph-name="imacron" unicode="&#x12b;" horiz-adv-x="310" 
d="M244.5 38q14.5 -18 45.5 -18v-20h-270v20q31 0 45.5 18t14.5 62v200q0 44 -14.5 62t-45.5 18v20h60q76 0 130 9h20v-309q0 -44 14.5 -62zM260 484v-15h-250v15h250z" />
    <glyph glyph-name="Ibreve" unicode="&#x12c;" horiz-adv-x="310" 
d="M65.5 652q-14.5 18 -45.5 18v20h270v-20q-31 0 -45.5 -18t-14.5 -62v-490q0 -44 14.5 -62t45.5 -18v-20h-270v20q31 0 45.5 18t14.5 62v490q0 44 -14.5 62zM68 851q0 -25 27 -41.5t61 -16.5t60 16.5t26 41.5h13q0 -41 -29 -71t-70 -30q-42 0 -71.5 30t-29.5 71h13z" />
    <glyph glyph-name="ibreve" unicode="&#x12d;" horiz-adv-x="310" 
d="M244.5 38q14.5 -18 45.5 -18v-20h-270v20q31 0 45.5 18t14.5 62v200q0 44 -14.5 62t-45.5 18v20h60q76 0 130 9h20v-309q0 -44 14.5 -62zM50 571q0 -25 27 -41.5t61 -16.5t60 16.5t26 41.5h13q0 -41 -29 -71t-70 -30q-42 0 -71.5 30t-29.5 71h13z" />
    <glyph glyph-name="Iogonek" unicode="&#x12e;" horiz-adv-x="310" 
d="M323 -130q-70 -120 -160 -120q-39 0 -73 25.5t-34 78.5q0 60 49 95t96 51h-181v20q31 0 45.5 18t14.5 62v490q0 44 -14.5 62t-45.5 18v20h270v-20q-31 0 -45.5 -18t-14.5 -62v-490q0 -44 14.5 -62t45.5 -18v-20h-53q-4 -2 -29.5 -15.5t-45 -43t-19.5 -69.5
q0 -32 17.5 -51t42.5 -19q23 0 52 15t58 59z" />
    <glyph glyph-name="iogonek" unicode="&#x12f;" horiz-adv-x="310" 
d="M105 486.5q-17 16.5 -17 39.5q0 24 17 40.5t40 16.5t39.5 -17t16.5 -40q0 -22 -16.5 -39t-39.5 -17t-40 16.5zM323 -130q-70 -120 -160 -120q-39 0 -73 25.5t-34 78.5q0 60 49 95t96 51h-181v20q31 0 45.5 18t14.5 62v200q0 44 -14.5 62t-45.5 18v20h60q76 0 130 9h20
v-309q0 -44 14.5 -62t45.5 -18v-20h-53q-4 -2 -29.5 -15.5t-45 -43t-19.5 -69.5q0 -32 17.5 -51t42.5 -19q23 0 52 15t58 59z" />
    <glyph glyph-name="Idotaccent" unicode="&#x130;" horiz-adv-x="310" 
d="M65.5 652q-14.5 18 -45.5 18v20h270v-20q-31 0 -45.5 -18t-14.5 -62v-490q0 -44 14.5 -62t45.5 -18v-20h-270v20q31 0 45.5 18t14.5 62v490q0 44 -14.5 62zM115 826.5q17 16.5 40 16.5t39.5 -17t16.5 -40q0 -22 -17 -39t-39 -17q-23 0 -40 16.5t-17 39.5q0 24 17 40.5z
" />
    <glyph glyph-name="dotlessi" unicode="&#x131;" horiz-adv-x="310" 
d="M244.5 38q14.5 -18 45.5 -18v-20h-270v20q31 0 45.5 18t14.5 62v200q0 44 -14.5 62t-45.5 18v20h60q76 0 130 9h20v-309q0 -44 14.5 -62z" />
    <glyph glyph-name="Jcircumflex" unicode="&#x134;" horiz-adv-x="441" 
d="M43 192.5q23 22.5 54 22.5q32 0 54.5 -22.5t22.5 -54.5q0 -28 -18.5 -47.5t-34.5 -25.5q-7 -3 -7 -11q0 -10 9.5 -22.5t27 -22t39.5 -9.5q23 0 36.5 19t13.5 56v515q0 44 -14.5 62t-45.5 18v20h270v-20q-31 0 -45.5 -18t-14.5 -62v-430q0 -53 -28.5 -91.5t-74.5 -58.5
t-97 -20q-47 0 -86 23.5t-61.5 58t-22.5 66.5t23 54.5zM309 905h12l100 -155h-13l-93 75l-93 -75h-13z" />
    <glyph glyph-name="jcircumflex" unicode="&#x135;" horiz-adv-x="450" 
d="M43 -58q23 23 54 23q32 0 54.5 -22.5t22.5 -54.5q0 -28 -18.5 -47.5t-34.5 -25.5q-7 -3 -7 -11q0 -10 9.5 -22.5t27 -22t39.5 -9.5q26 0 48 19.5t22 54.5v476q0 44 -14.5 62t-45.5 18v20h60q76 0 130 9h20v-500q0 -48 -33 -86.5t-84.5 -60.5t-102.5 -22q-48 0 -87 21.5
t-61 56t-22 70.5q0 31 23 54zM298 625h12l110 -155h-13l-103 75l-103 -75h-13z" />
    <glyph glyph-name="Lacute" unicode="&#x139;" horiz-adv-x="545" 
d="M505 247v-247h-10h-144h-331v20q31 0 45.5 18t14.5 62v490q0 44 -14.5 62t-45.5 18v20h270v-20q-31 0 -45.5 -18t-14.5 -62v-577h141q38 0 65 73t49 161h20zM138 807q26 79 40 98q7 9 17.5 14.5t21.5 5.5q13 0 23 -7q18 -13 18 -35q0 -15 -9 -29q-7 -10 -27 -27.5
t-42 -35.5q-56 -46 -66 -61l-5 3q7 11 29 74z" />
    <glyph glyph-name="lacute" unicode="&#x13a;" horiz-adv-x="310" 
d="M244.5 38q14.5 -18 45.5 -18v-20h-270v20q31 0 45.5 18t14.5 62v490q0 44 -14.5 62t-45.5 18v20h60q76 0 130 9h20v-599q0 -44 14.5 -62zM99 807q26 79 40 98q7 9 17.5 14.5t21.5 5.5q13 0 23 -7q18 -13 18 -35q0 -15 -9 -29q-7 -10 -27 -27.5t-42 -35.5q-56 -46 -66 -61
l-5 3q7 11 29 74z" />
    <glyph glyph-name="Lcaron" unicode="&#x13d;" horiz-adv-x="475" 
d="M505 247v-247h-10h-144h-331v20q31 0 45.5 18t14.5 62v490q0 44 -14.5 62t-45.5 18v20h270v-20q-31 0 -45.5 -18t-14.5 -62v-577h141q38 0 65 73t49 161h20zM261 473q7 11 29 74q26 79 40 98q7 9 17.5 14.5t21.5 5.5q13 0 23 -7q18 -13 18 -35q0 -15 -9 -29
q-7 -10 -27 -27.5t-42 -35.5q-56 -46 -66 -61z" />
    <glyph glyph-name="lcaron" unicode="&#x13e;" horiz-adv-x="419" 
d="M244.5 38q14.5 -18 45.5 -18v-20h-270v20q31 0 45.5 18t14.5 62v490q0 44 -14.5 62t-45.5 18v20h60q76 0 130 9h20v-599q0 -44 14.5 -62zM409 623q0 -15 -9 -29q-7 -10 -27 -27.5t-42 -35.5q-56 -46 -66 -61l-5 3q7 11 29 74q26 79 40 98q7 9 17.5 14.5t21.5 5.5
q13 0 23 -7q18 -13 18 -35z" />
    <glyph glyph-name="Nacute" unicode="&#x143;" horiz-adv-x="683" 
d="M663 670q-31 0 -45.5 -18t-14.5 -62v-590h-13l-451 610q-14 19 -35 35v-545q0 -44 14.5 -62t45.5 -18v-20h-133v20q31 0 45.5 18t14.5 62v553q-30 17 -71 17v20h228l342 -446v346q0 44 -14.5 62t-45.5 18v20h133v-20zM313 807q26 79 40 98q7 9 17.5 14.5t21.5 5.5
q13 0 23 -7q18 -13 18 -35q0 -15 -9 -29q-7 -10 -27 -27.5t-42 -35.5q-56 -46 -66 -61l-5 3q7 11 29 74z" />
    <glyph glyph-name="nacute" unicode="&#x144;" horiz-adv-x="600" 
d="M534.5 38q14.5 -18 45.5 -18v-20h-270v20q31 0 45.5 18t14.5 62v157q0 42 -17 69t-43 27q-20 0 -40.5 -18t-39.5 -55v-180q0 -44 14.5 -62t45.5 -18v-20h-270v20q31 0 45.5 18t14.5 62v200q0 44 -14.5 62t-45.5 18v20h60q76 0 130 9h20v-109q24 48 68 78.5t101 30.5
q60 0 90.5 -38.5t30.5 -113.5v-157q0 -44 14.5 -62zM279 517q26 79 40 98q7 9 17.5 14.5t21.5 5.5q13 0 23 -7q18 -13 18 -35q0 -15 -9 -29q-7 -10 -27 -27.5t-42 -35.5q-56 -46 -66 -61l-5 3q7 11 29 74z" />
    <glyph glyph-name="Ncaron" unicode="&#x147;" horiz-adv-x="683" 
d="M663 670q-31 0 -45.5 -18t-14.5 -62v-590h-13l-451 610q-14 19 -35 35v-545q0 -44 14.5 -62t45.5 -18v-20h-133v20q31 0 45.5 18t14.5 62v553q-30 17 -71 17v20h228l342 -446v346q0 44 -14.5 62t-45.5 18v20h133v-20zM259 905l103 -75l103 75h13l-110 -155h-12l-110 155
h13z" />
    <glyph glyph-name="ncaron" unicode="&#x148;" horiz-adv-x="600" 
d="M534.5 38q14.5 -18 45.5 -18v-20h-270v20q31 0 45.5 18t14.5 62v157q0 42 -17 69t-43 27q-20 0 -40.5 -18t-39.5 -55v-180q0 -44 14.5 -62t45.5 -18v-20h-270v20q31 0 45.5 18t14.5 62v200q0 44 -14.5 62t-45.5 18v20h60q76 0 130 9h20v-109q24 48 68 78.5t101 30.5
q60 0 90.5 -38.5t30.5 -113.5v-157q0 -44 14.5 -62zM167 625l103 -75l103 75h13l-110 -155h-12l-110 155h13z" />
    <glyph glyph-name="Omacron" unicode="&#x14c;" horiz-adv-x="775" 
d="M88.5 523.5q48.5 81.5 131 130t180.5 48.5q96 0 177.5 -48.5t129.5 -130t48 -177.5t-48 -178.5t-129.5 -131t-177.5 -48.5q-98 0 -180.5 48.5t-131 130.5t-48.5 179q0 96 48.5 177.5zM247 178q21 -79 60.5 -128t92.5 -49q52 0 90.5 49t58.5 128t20 167q0 91 -20 170
t-58.5 126.5t-90.5 47.5q-53 0 -92.5 -47.5t-60.5 -126.5t-21 -170q0 -88 21 -167zM523 785v-15h-250v15h250z" />
    <glyph glyph-name="omacron" unicode="&#x14d;" horiz-adv-x="462" 
d="M48.5 305q28.5 48 77 76t106.5 28q57 0 105 -28t76.5 -76t28.5 -104q0 -57 -28 -105.5t-76.5 -76.5t-105.5 -28q-58 0 -106.5 28t-77 76.5t-28.5 105.5q0 56 28.5 104zM232 1q60 0 60 199q0 91 -13 145t-47 54q-61 0 -61 -199t61 -199zM356 485v-15h-250v15h250z" />
    <glyph glyph-name="Obreve" unicode="&#x14e;" horiz-adv-x="775" 
d="M88.5 523.5q48.5 81.5 131 130t180.5 48.5q96 0 177.5 -48.5t129.5 -130t48 -177.5t-48 -178.5t-129.5 -131t-177.5 -48.5q-98 0 -180.5 48.5t-131 130.5t-48.5 179q0 96 48.5 177.5zM247 178q21 -79 60.5 -128t92.5 -49q52 0 90.5 49t58.5 128t20 167q0 91 -20 170
t-58.5 126.5t-90.5 47.5q-53 0 -92.5 -47.5t-60.5 -126.5t-21 -170q0 -88 21 -167zM311 851q0 -25 27 -41.5t61 -16.5t60 16.5t26 41.5h13q0 -41 -29 -71t-70 -30q-42 0 -71.5 30t-29.5 71h13z" />
    <glyph glyph-name="obreve" unicode="&#x14f;" horiz-adv-x="462" 
d="M48.5 305q28.5 48 77 76t106.5 28q57 0 105 -28t76.5 -76t28.5 -104q0 -57 -28 -105.5t-76.5 -76.5t-105.5 -28q-58 0 -106.5 28t-77 76.5t-28.5 105.5q0 56 28.5 104zM232 1q60 0 60 199q0 91 -13 145t-47 54q-61 0 -61 -199t61 -199zM146 561q0 -25 27 -41.5t61 -16.5
t60 16.5t26 41.5h13q0 -41 -29 -71t-70 -30q-42 0 -71.5 30t-29.5 71h13z" />
    <glyph glyph-name="Ohungarumlaut" unicode="&#x150;" horiz-adv-x="775" 
d="M88.5 523.5q48.5 81.5 131 130t180.5 48.5q96 0 177.5 -48.5t129.5 -130t48 -177.5t-48 -178.5t-129.5 -131t-177.5 -48.5q-98 0 -180.5 48.5t-131 130.5t-48.5 179q0 96 48.5 177.5zM247 178q21 -79 60.5 -128t92.5 -49q52 0 90.5 49t58.5 128t20 167q0 91 -20 170
t-58.5 126.5t-90.5 47.5q-53 0 -92.5 -47.5t-60.5 -126.5t-21 -170q0 -88 21 -167zM347 807q26 79 40 98q7 9 17.5 14.5t21.5 5.5q13 0 23 -7q18 -13 18 -35q0 -15 -9 -29q-7 -10 -27 -27.5t-42 -35.5q-56 -46 -66 -61l-5 3q7 11 29 74zM497 807q26 79 40 98q7 9 17.5 14.5
t21.5 5.5q13 0 23 -7q18 -13 18 -35q0 -15 -9 -29q-7 -10 -27 -27.5t-42 -35.5q-56 -46 -66 -61l-5 3q7 11 29 74z" />
    <glyph glyph-name="ohungarumlaut" unicode="&#x151;" horiz-adv-x="462" 
d="M48.5 305q28.5 48 77 76t106.5 28q57 0 105 -28t76.5 -76t28.5 -104q0 -57 -28 -105.5t-76.5 -76.5t-105.5 -28q-58 0 -106.5 28t-77 76.5t-28.5 105.5q0 56 28.5 104zM232 1q60 0 60 199q0 91 -13 145t-47 54q-61 0 -61 -199t61 -199zM185 547q26 79 40 98
q7 9 17.5 14.5t21.5 5.5q13 0 23 -7q18 -13 18 -35q0 -15 -9 -29q-7 -10 -27 -27.5t-42 -35.5q-56 -46 -66 -61l-5 3q7 11 29 74zM335 547q26 79 40 98q7 9 17.5 14.5t21.5 5.5q13 0 23 -7q18 -13 18 -35q0 -15 -9 -29q-7 -10 -27 -27.5t-42 -35.5q-56 -46 -66 -61l-5 3
q7 11 29 74z" />
    <glyph glyph-name="OE" unicode="&#x152;" horiz-adv-x="944" 
d="M610 686v-334h100q44 0 62 14.5t18 45.5h20v-133h-20q0 31 -18 45.5t-62 14.5h-100v-335h160q38 0 65 73t49 161h20v-247h-10h-144h-351q-98 0 -180.5 47.5t-130.5 129t-48 178.5q0 96 48 177t130.5 128.5t180.5 47.5h351h144h10v-247h-20q-22 88 -49 161t-65 73h-160z
M399 686q-53 0 -92.5 -47.5t-60 -125t-20.5 -168.5q0 -87 21 -165t60 -127t92 -49h61v682h-61z" />
    <glyph glyph-name="oe" unicode="&#x153;" horiz-adv-x="743" 
d="M723 119q-19 -50 -68 -89t-131 -39q-90 0 -153 52q-28 -25 -64 -38.5t-75 -13.5q-58 0 -106.5 28t-77 76.5t-28.5 105.5q0 56 28.5 104t77 76t106.5 28q38 0 72.5 -13t62.5 -36q56 49 143 49q69 0 113 -30t63.5 -76.5t19.5 -98.5h-264q8 -83 45 -122.5t97 -39.5
q91 0 129 84zM292 200q0 91 -13 145.5t-47 54.5q-61 0 -61 -200t61 -200q60 0 60 200zM455 346.5q-16 -52.5 -14 -122.5h127q0 175 -63 175q-34 0 -50 -52.5z" />
    <glyph glyph-name="Racute" unicode="&#x154;" horiz-adv-x="680" 
d="M594 37q24 -17 56 -17v-20h-70h-62q-50 0 -83.5 39t-53.5 96q-46 134 -151 192v-227q0 -44 14.5 -62t45.5 -18v-20h-270v20q31 0 45.5 18t14.5 62v490q0 44 -14.5 62t-45.5 18v20h297q61 0 111.5 -25t79.5 -66.5t29 -89.5q0 -50 -28.5 -91t-79 -64.5t-112.5 -23.5h-23
q85 0 136.5 -34t76.5 -81.5t48 -120.5q15 -40 39 -57zM230 680v-337h47q61 0 85.5 45t24.5 120q0 78 -24.5 125t-85.5 47h-47zM256 807q26 79 40 98q7 9 17.5 14.5t21.5 5.5q13 0 23 -7q18 -13 18 -35q0 -15 -9 -29q-7 -10 -27 -27.5t-42 -35.5q-56 -46 -66 -61l-5 3
q7 11 29 74z" />
    <glyph glyph-name="racute" unicode="&#x155;" horiz-adv-x="470" 
d="M428.5 407q21.5 -23 21.5 -54t-22 -53.5t-54 -22.5t-51.5 19.5t-24.5 56.5q-3 19 -13 19q-20 0 -55 -72v-200q0 -44 14.5 -62t45.5 -18v-20h-270v20q31 0 45.5 18t14.5 62v200q0 44 -14.5 62t-45.5 18v20h60q76 0 130 9h20v-89q24 48 62 79t82 31q33 0 54.5 -23zM97 517
q26 79 40 98q7 9 17.5 14.5t21.5 5.5q13 0 23 -7q18 -13 18 -35q0 -15 -9 -29q-7 -10 -27 -27.5t-42 -35.5q-56 -46 -66 -61l-5 3q7 11 29 74z" />
    <glyph glyph-name="Rcaron" unicode="&#x158;" horiz-adv-x="680" 
d="M594 37q24 -17 56 -17v-20h-70h-62q-50 0 -83.5 39t-53.5 96q-46 134 -151 192v-227q0 -44 14.5 -62t45.5 -18v-20h-270v20q31 0 45.5 18t14.5 62v490q0 44 -14.5 62t-45.5 18v20h297q61 0 111.5 -25t79.5 -66.5t29 -89.5q0 -50 -28.5 -91t-79 -64.5t-112.5 -23.5h-23
q85 0 136.5 -34t76.5 -81.5t48 -120.5q15 -40 39 -57zM230 680v-337h47q61 0 85.5 45t24.5 120q0 78 -24.5 125t-85.5 47h-47zM143 905l103 -75l103 75h13l-110 -155h-12l-110 155h13z" />
    <glyph glyph-name="rcaron" unicode="&#x159;" horiz-adv-x="470" 
d="M428.5 407q21.5 -23 21.5 -54t-22 -53.5t-54 -22.5t-51.5 19.5t-24.5 56.5q-3 19 -13 19q-20 0 -55 -72v-200q0 -44 14.5 -62t45.5 -18v-20h-270v20q31 0 45.5 18t14.5 62v200q0 44 -14.5 62t-45.5 18v20h60q76 0 130 9h20v-89q24 48 62 79t82 31q33 0 54.5 -23zM102 625
l103 -75l103 75h13l-110 -155h-12l-110 155h13z" />
    <glyph glyph-name="Sacute" unicode="&#x15a;" horiz-adv-x="550" 
d="M170 -5.5q-27 5.5 -64 15.5q-22 8 -33 8q-8 0 -11 -4.5t-3 -14.5h-20l-3 246h20q1 -2 5 -30q7 -54 19.5 -97.5t47 -79t95.5 -35.5q55 0 89.5 23t49.5 54.5t15 58.5q0 32 -20 56t-49 41.5t-82 42.5q-67 32 -107.5 57t-69.5 66.5t-29 100.5q0 39 23.5 83t81 77t153.5 35
q36 1 63 -4.5t64 -15.5q22 -8 33 -8q8 0 11 4.5t3 14.5h20l3 -246h-20q-1 2 -5 30q-7 54 -19.5 97.5t-47 79t-95.5 35.5q-79 0 -107 -38t-28 -87q0 -32 20 -56t49 -41.5t82 -42.5q67 -32 107.5 -57t69.5 -66.5t29 -100.5q0 -42 -28 -89t-90.5 -81t-158.5 -36q-36 -1 -63 4.5
zM288 807q26 79 40 98q7 9 17.5 14.5t21.5 5.5q13 0 23 -7q18 -13 18 -35q0 -15 -9 -29q-7 -10 -27 -27.5t-42 -35.5q-56 -46 -66 -61l-5 3q7 11 29 74z" />
    <glyph glyph-name="sacute" unicode="&#x15b;" horiz-adv-x="371" 
d="M80 8q-19 7 -26 7q-10 0 -10 -15h-20l-1 125h20q31 -125 115 -125q28 0 50.5 20.5t22.5 52.5q0 27 -22 44t-69 39q-38 18 -62 32.5t-41 37.5t-17 56q0 22 13 50t51.5 51.5t108.5 25.5q24 1 42 -3.5t45 -13.5q21 -7 27 -7q10 0 10 15h20l2 -125h-20q-14 50 -39 87t-77 37
q-27 0 -45 -19.5t-18 -52.5q0 -27 22 -44t69 -39q38 -18 62 -32.5t41 -37.5t17 -56q0 -49 -40.5 -88.5t-144.5 -39.5q-41 0 -86 18zM172 517q26 79 40 98q7 9 17.5 14.5t21.5 5.5q13 0 23 -7q18 -13 18 -35q0 -15 -9 -29q-7 -10 -27 -27.5t-42 -35.5q-56 -46 -66 -61l-5 3
q7 11 29 74z" />
    <glyph glyph-name="Scircumflex" unicode="&#x15c;" horiz-adv-x="550" 
d="M170 -5.5q-27 5.5 -64 15.5q-22 8 -33 8q-8 0 -11 -4.5t-3 -14.5h-20l-3 246h20q1 -2 5 -30q7 -54 19.5 -97.5t47 -79t95.5 -35.5q55 0 89.5 23t49.5 54.5t15 58.5q0 32 -20 56t-49 41.5t-82 42.5q-67 32 -107.5 57t-69.5 66.5t-29 100.5q0 39 23.5 83t81 77t153.5 35
q36 1 63 -4.5t64 -15.5q22 -8 33 -8q8 0 11 4.5t3 14.5h20l3 -246h-20q-1 2 -5 30q-7 54 -19.5 97.5t-47 79t-95.5 35.5q-79 0 -107 -38t-28 -87q0 -32 20 -56t49 -41.5t82 -42.5q67 -32 107.5 -57t69.5 -66.5t29 -100.5q0 -42 -28 -89t-90.5 -81t-158.5 -36q-36 -1 -63 4.5
zM260 905h12l100 -155h-13l-93 75l-93 -75h-13z" />
    <glyph glyph-name="scircumflex" unicode="&#x15d;" horiz-adv-x="371" 
d="M80 8q-19 7 -26 7q-10 0 -10 -15h-20l-1 125h20q31 -125 115 -125q28 0 50.5 20.5t22.5 52.5q0 27 -22 44t-69 39q-38 18 -62 32.5t-41 37.5t-17 56q0 22 13 50t51.5 51.5t108.5 25.5q24 1 42 -3.5t45 -13.5q21 -7 27 -7q10 0 10 15h20l2 -125h-20q-14 50 -39 87t-77 37
q-27 0 -45 -19.5t-18 -52.5q0 -27 22 -44t69 -39q38 -18 62 -32.5t41 -37.5t17 -56q0 -49 -40.5 -88.5t-144.5 -39.5q-41 0 -86 18zM179 625h12l110 -155h-13l-103 75l-103 -75h-13z" />
    <glyph glyph-name="Scedilla" unicode="&#x15e;" horiz-adv-x="550" 
d="M487 115q-23 -43 -74 -77t-129 -44l-56 -84q16 16 51 16q31 0 51.5 -20t20.5 -49q0 -52 -53 -79.5t-128 -27.5v9q55 0 80 21t25 57q0 19 -9.5 29t-24.5 10q-18 0 -37 -11t-32 -30l-10 8l105 149q-24 -2 -37 -2q-58 0 -123 21q-24 8 -34 8q-8 0 -11 -4.5t-3 -15.5h-20
l-3 246h20q1 -2 5 -30q7 -54 19.5 -97.5t47 -79t95.5 -35.5q55 0 89.5 23t49.5 54.5t15 58.5q0 32 -20 56t-49 41.5t-82 42.5q-67 32 -107.5 57t-69.5 66.5t-29 100.5q0 39 23.5 83t81 77t153.5 35q36 1 63 -4.5t64 -15.5q22 -8 33 -8q8 0 11 4.5t3 14.5h20l3 -246h-20
q-1 2 -5 30q-7 54 -19.5 97.5t-47 79t-95.5 35.5q-79 0 -107 -38t-28 -87q0 -32 20 -56t49 -41.5t82 -42.5q67 -32 107.5 -57t69.5 -66.5t29 -100.5q0 -38 -23 -81z" />
    <glyph glyph-name="scedilla" unicode="&#x15f;" horiz-adv-x="371" 
d="M317 35.5q-34 -37.5 -121 -44.5l-55 -81q16 16 51 16q31 0 51.5 -20t20.5 -49q0 -52 -53 -79.5t-128 -27.5v9q55 0 80 21t25 57q0 19 -9.5 29t-24.5 10q-18 0 -37 -11t-32 -30l-10 8l104 147h-11q-24 -1 -45 4t-43 14q-19 7 -26 7q-10 0 -10 -15h-20l-1 125h20
q31 -125 115 -125q28 0 50.5 20.5t22.5 52.5q0 27 -22 44t-69 39q-38 18 -62 32.5t-41 37.5t-17 56q0 22 13 50t51.5 51.5t108.5 25.5q24 1 42 -3.5t45 -13.5q21 -7 27 -7q10 0 10 15h20l2 -125h-20q-14 50 -39 87t-77 37q-27 0 -45 -19.5t-18 -52.5q0 -27 22 -44t69 -39
q38 -18 62 -32.5t41 -37.5t17 -56q0 -45 -34 -82.5z" />
    <glyph glyph-name="Scaron" unicode="&#x160;" horiz-adv-x="550" 
d="M170 -5.5q-27 5.5 -64 15.5q-22 8 -33 8q-8 0 -11 -4.5t-3 -14.5h-20l-3 246h20q1 -2 5 -30q7 -54 19.5 -97.5t47 -79t95.5 -35.5q55 0 89.5 23t49.5 54.5t15 58.5q0 32 -20 56t-49 41.5t-82 42.5q-67 32 -107.5 57t-69.5 66.5t-29 100.5q0 39 23.5 83t81 77t153.5 35
q36 1 63 -4.5t64 -15.5q22 -8 33 -8q8 0 11 4.5t3 14.5h20l3 -246h-20q-1 2 -5 30q-7 54 -19.5 97.5t-47 79t-95.5 35.5q-79 0 -107 -38t-28 -87q0 -32 20 -56t49 -41.5t82 -42.5q67 -32 107.5 -57t69.5 -66.5t29 -100.5q0 -42 -28 -89t-90.5 -81t-158.5 -36q-36 -1 -63 4.5
zM162 905l103 -75l103 75h13l-110 -155h-12l-110 155h13z" />
    <glyph glyph-name="scaron" unicode="&#x161;" horiz-adv-x="371" 
d="M80 8q-19 7 -26 7q-10 0 -10 -15h-20l-1 125h20q31 -125 115 -125q28 0 50.5 20.5t22.5 52.5q0 27 -22 44t-69 39q-38 18 -62 32.5t-41 37.5t-17 56q0 22 13 50t51.5 51.5t108.5 25.5q24 1 42 -3.5t45 -13.5q21 -7 27 -7q10 0 10 15h20l2 -125h-20q-14 50 -39 87t-77 37
q-27 0 -45 -19.5t-18 -52.5q0 -27 22 -44t69 -39q38 -18 62 -32.5t41 -37.5t17 -56q0 -49 -40.5 -88.5t-144.5 -39.5q-41 0 -86 18zM78 625l103 -75l103 75h13l-110 -155h-12l-110 155h13z" />
    <glyph glyph-name="Tcaron" unicode="&#x164;" horiz-adv-x="638" 
d="M598 690v-247h-20q-22 88 -49 161t-65 73h-80v-577q0 -44 14.5 -62t45.5 -18v-20h-270v20q31 0 45.5 18t14.5 62v577h-80q-38 0 -65 -73t-49 -161h-20v247h10h144h270h144h10zM206 905l103 -75l103 75h13l-110 -155h-12l-110 155h13z" />
    <glyph glyph-name="tcaron" unicode="&#x165;" horiz-adv-x="410" 
d="M400 623q0 -15 -9 -29q-7 -10 -27 -27.5t-42 -35.5q-56 -46 -66 -61l-5 3q7 11 29 74q26 79 40 98q7 9 17.5 14.5t21.5 5.5q13 0 23 -7q18 -13 18 -35zM316.5 75q17.5 21 17.5 44h10q0 -59 -35 -94t-89 -35q-36 0 -71 20t-57 59t-22 91v227h-50v13h50v90q65 0 97.5 26
t32.5 84h20v-200h50v-13h-50v-227q0 -56 16 -81t41 -25q22 0 39.5 21z" />
    <glyph glyph-name="Utilde" unicode="&#x168;" horiz-adv-x="637" 
d="M617 670q-31 0 -45.5 -18t-14.5 -62v-396q0 -76 -36.5 -121.5t-86 -63.5t-93.5 -18q-51 0 -111 17.5t-105 62.5t-45 123v240v156q0 44 -14.5 62t-45.5 18v20h270v-20q-31 0 -45.5 -18t-14.5 -62v-159v-237q0 -38 14 -79.5t47 -71t85 -29.5q39 0 78 20.5t64.5 61
t25.5 98.5v396q0 44 -14.5 62t-45.5 18v20h133v-20zM232 753q0 29 14.5 56t38 44t49.5 17q17 0 30.5 -6t30.5 -17q16 -9 25 -13.5t20 -4.5q21 0 36.5 11t15.5 27h6q0 -27 -14 -54.5t-37.5 -45t-49.5 -17.5q-17 0 -30.5 6t-30.5 17q-16 9 -25.5 13.5t-20.5 4.5
q-22 0 -36.5 -10.5t-14.5 -27.5h-7z" />
    <glyph glyph-name="utilde" unicode="&#x169;" horiz-adv-x="600" 
d="M534.5 38q14.5 -18 45.5 -18v-20h-60q-76 0 -130 -9h-20v109q-24 -48 -68 -78.5t-101 -30.5q-60 0 -90.5 38.5t-30.5 113.5v157q0 44 -14.5 62t-45.5 18v20h60q76 0 130 9h20v-19v-105v-142q0 -42 17 -69t43 -27q20 0 40.5 18t39.5 55v180q0 44 -14.5 62t-45.5 18v20h60
q76 0 130 9h20v-309q0 -44 14.5 -62zM157 473q0 29 14.5 56t38 44t49.5 17q17 0 30.5 -6t30.5 -17q16 -9 25 -13.5t20 -4.5q21 0 36.5 11t15.5 27h6q0 -27 -14 -54.5t-37.5 -45t-49.5 -17.5q-17 0 -30.5 6t-30.5 17q-16 9 -25.5 13.5t-20.5 4.5q-22 0 -36.5 -10.5
t-14.5 -27.5h-7z" />
    <glyph glyph-name="Umacron" unicode="&#x16a;" horiz-adv-x="637" 
d="M617 670q-31 0 -45.5 -18t-14.5 -62v-396q0 -76 -36.5 -121.5t-86 -63.5t-93.5 -18q-51 0 -111 17.5t-105 62.5t-45 123v240v156q0 44 -14.5 62t-45.5 18v20h270v-20q-31 0 -45.5 -18t-14.5 -62v-159v-237q0 -38 14 -79.5t47 -71t85 -29.5q39 0 78 20.5t64.5 61
t25.5 98.5v396q0 44 -14.5 62t-45.5 18v20h133v-20zM500 785v-15h-250v15h250z" />
    <glyph glyph-name="umacron" unicode="&#x16b;" horiz-adv-x="600" 
d="M534.5 38q14.5 -18 45.5 -18v-20h-60q-76 0 -130 -9h-20v109q-24 -48 -68 -78.5t-101 -30.5q-60 0 -90.5 38.5t-30.5 113.5v157q0 44 -14.5 62t-45.5 18v20h60q76 0 130 9h20v-19v-105v-142q0 -42 17 -69t43 -27q20 0 40.5 18t39.5 55v180q0 44 -14.5 62t-45.5 18v20h60
q76 0 130 9h20v-309q0 -44 14.5 -62zM400 485v-15h-250v15h250z" />
    <glyph glyph-name="Ubreve" unicode="&#x16c;" horiz-adv-x="637" 
d="M617 670q-31 0 -45.5 -18t-14.5 -62v-396q0 -76 -36.5 -121.5t-86 -63.5t-93.5 -18q-51 0 -111 17.5t-105 62.5t-45 123v240v156q0 44 -14.5 62t-45.5 18v20h270v-20q-31 0 -45.5 -18t-14.5 -62v-159v-237q0 -38 14 -79.5t47 -71t85 -29.5q39 0 78 20.5t64.5 61
t25.5 98.5v396q0 44 -14.5 62t-45.5 18v20h133v-20zM268 851q0 -25 27 -41.5t61 -16.5t60 16.5t26 41.5h13q0 -41 -29 -71t-70 -30q-42 0 -71.5 30t-29.5 71h13z" />
    <glyph glyph-name="ubreve" unicode="&#x16d;" horiz-adv-x="600" 
d="M534.5 38q14.5 -18 45.5 -18v-20h-60q-76 0 -130 -9h-20v109q-24 -48 -68 -78.5t-101 -30.5q-60 0 -90.5 38.5t-30.5 113.5v157q0 44 -14.5 62t-45.5 18v20h60q76 0 130 9h20v-19v-105v-142q0 -42 17 -69t43 -27q20 0 40.5 18t39.5 55v180q0 44 -14.5 62t-45.5 18v20h60
q76 0 130 9h20v-309q0 -44 14.5 -62zM203 571q0 -25 27 -41.5t61 -16.5t60 16.5t26 41.5h13q0 -41 -29 -71t-70 -30q-42 0 -71.5 30t-29.5 71h13z" />
    <glyph glyph-name="uring" unicode="&#x16f;" horiz-adv-x="600" 
d="M534.5 38q14.5 -18 45.5 -18v-20h-60q-76 0 -130 -9h-20v109q-24 -48 -68 -78.5t-101 -30.5q-60 0 -90.5 38.5t-30.5 113.5v157q0 44 -14.5 62t-45.5 18v20h60q76 0 130 9h20v-19v-105v-142q0 -42 17 -69t43 -27q20 0 40.5 18t39.5 55v180q0 44 -14.5 62t-45.5 18v20h60
q76 0 130 9h20v-309q0 -44 14.5 -62zM216.5 610q26.5 26 60.5 26q33 0 59 -26t26 -59q0 -35 -25 -61t-60 -26q-36 0 -61.5 26t-25.5 61q0 33 26.5 59zM224 498.5q22 -22.5 53 -22.5q30 0 51.5 22.5t21.5 52.5q0 29 -22.5 51t-50.5 22q-30 0 -52.5 -22t-22.5 -51
q0 -30 22 -52.5z" />
    <glyph glyph-name="Uhungarumlaut" unicode="&#x170;" horiz-adv-x="637" 
d="M617 670q-31 0 -45.5 -18t-14.5 -62v-396q0 -76 -36.5 -121.5t-86 -63.5t-93.5 -18q-51 0 -111 17.5t-105 62.5t-45 123v240v156q0 44 -14.5 62t-45.5 18v20h270v-20q-31 0 -45.5 -18t-14.5 -62v-159v-237q0 -38 14 -79.5t47 -71t85 -29.5q39 0 78 20.5t64.5 61
t25.5 98.5v396q0 44 -14.5 62t-45.5 18v20h133v-20zM271 807q26 79 40 98q7 9 17.5 14.5t21.5 5.5q13 0 23 -7q18 -13 18 -35q0 -15 -9 -29q-7 -10 -27 -27.5t-42 -35.5q-56 -46 -66 -61l-5 3q7 11 29 74zM421 807q26 79 40 98q7 9 17.5 14.5t21.5 5.5q13 0 23 -7
q18 -13 18 -35q0 -15 -9 -29q-7 -10 -27 -27.5t-42 -35.5q-56 -46 -66 -61l-5 3q7 11 29 74z" />
    <glyph glyph-name="uhungarumlaut" unicode="&#x171;" horiz-adv-x="600" 
d="M534.5 38q14.5 -18 45.5 -18v-20h-60q-76 0 -130 -9h-20v109q-24 -48 -68 -78.5t-101 -30.5q-60 0 -90.5 38.5t-30.5 113.5v157q0 44 -14.5 62t-45.5 18v20h60q76 0 130 9h20v-19v-105v-142q0 -42 17 -69t43 -27q20 0 40.5 18t39.5 55v180q0 44 -14.5 62t-45.5 18v20h60
q76 0 130 9h20v-309q0 -44 14.5 -62zM179 547q26 79 40 98q7 9 17.5 14.5t21.5 5.5q13 0 23 -7q18 -13 18 -35q0 -15 -9 -29q-7 -10 -27 -27.5t-42 -35.5q-56 -46 -66 -61l-5 3q7 11 29 74zM329 547q26 79 40 98q7 9 17.5 14.5t21.5 5.5q13 0 23 -7q18 -13 18 -35
q0 -15 -9 -29q-7 -10 -27 -27.5t-42 -35.5q-56 -46 -66 -61l-5 3q7 11 29 74z" />
    <glyph glyph-name="Uogonek" unicode="&#x172;" horiz-adv-x="637" 
d="M617 670q-31 0 -45.5 -18t-14.5 -62v-396q0 -98 -58.5 -145.5t-131.5 -55.5q-33 -18 -56.5 -45.5t-23.5 -75.5q0 -32 17.5 -51t42.5 -19q23 0 52 15t58 59l10 -6q-70 -120 -160 -120q-39 0 -73 25.5t-34 78.5q0 51 38 85t85 53q-53 2 -108 21t-95 63.5t-40 117.5v240v156
q0 44 -14.5 62t-45.5 18v20h270v-20q-31 0 -45.5 -18t-14.5 -62v-159v-237q0 -38 14 -79.5t47 -71t85 -29.5q39 0 78 20.5t64.5 61t25.5 98.5v396q0 44 -14.5 62t-45.5 18v20h133v-20z" />
    <glyph glyph-name="uogonek" unicode="&#x173;" horiz-adv-x="600" 
d="M591 -130q-70 -120 -160 -120q-39 0 -73 25.5t-34 78.5q0 58 46 92.5t95 52.5q-45 -3 -75 -8h-20v109q-24 -48 -68 -78.5t-101 -30.5q-60 0 -90.5 38.5t-30.5 113.5v157q0 44 -14.5 62t-45.5 18v20h60q76 0 130 9h20v-19v-105v-142q0 -42 17 -69t43 -27q20 0 40.5 18
t39.5 55v180q0 44 -14.5 62t-45.5 18v20h60q76 0 130 9h20v-309q0 -44 14.5 -62t45.5 -18v-20h-60h-15q-4 -2 -29.5 -15.5t-45 -43t-19.5 -69.5q0 -32 17.5 -51t42.5 -19q23 0 52 15t58 59z" />
    <glyph glyph-name="Wcircumflex" unicode="&#x174;" horiz-adv-x="1174" 
d="M1134 670q-32 0 -55 -17t-37 -58l-203 -595h-12l-245 572l-195 -572h-12l-256 598q-30 72 -99 72v20h288v-20q-19 0 -27.5 -5.5t-8.5 -18.5t13 -49l159 -395l131 386l-4 10q-30 72 -99 72v20h288v-20q-19 0 -27.5 -5.5t-8.5 -18.5t13 -49l159 -395l134 393q10 29 10 46
q0 16 -9 22.5t-29 6.5v20h132v-20zM610 905h12l100 -155h-13l-93 75l-93 -75h-13z" />
    <glyph glyph-name="wcircumflex" unicode="&#x175;" horiz-adv-x="822" 
d="M802 380q-32 0 -55.5 -17t-37.5 -57l-109 -306h-12l-155 311q-6 13 -17 27q-9 -13 -15 -32l-109 -306h-12l-155 311q-35 69 -105 69v20h288v-20q-18 0 -25.5 -4.5t-7.5 -14.5q0 -15 18 -50l57 -115l39 110q11 30 11 49q-31 25 -72 25v20h288v-20q-18 0 -25.5 -4.5
t-7.5 -14.5q0 -15 18 -50l57 -115l39 110q11 31 11 46t-9 21.5t-29 6.5v20h132v-20zM417 625h12l110 -155h-13l-103 75l-103 -75h-13z" />
    <glyph glyph-name="Ycircumflex" unicode="&#x176;" horiz-adv-x="722" 
d="M682 670q-69 0 -103 -70l-117 -244v-256q0 -44 14.5 -62t45.5 -18v-20h-270v20q31 0 45.5 18t14.5 62v205l-180 299q-39 66 -112 66v20h288v-20q-16 0 -23 -3t-7 -10t6 -18.5t20 -31.5l156 -231l107 224q17 36 17 50q0 11 -8 15.5t-26 4.5v20h132v-20zM423 905h12
l100 -155h-13l-93 75l-93 -75h-13z" />
    <glyph glyph-name="ycircumflex" unicode="&#x177;" horiz-adv-x="536" 
d="M41 -133.5q21 21.5 52 21.5t52 -21.5t21 -52.5q0 -17 -6 -30q-2 -4 -2 -6q0 -4 4 -4q5 0 14 6q21 15 38 41t26 50l48 127l-127 309q-16 40 -41 56.5t-57 16.5v20h288v-20q-19 0 -28 -6t-9 -20q0 -16 12 -48l40 -104l41 105q13 34 13 48q0 13 -9 19t-28 6v20h133v-20
q-32 0 -56 -16.5t-40 -56.5l-167 -439q-11 -28 -25 -52.5t-48 -49.5t-87 -25q-31 0 -52 21t-21 52t21 52.5zM309 625h12l110 -155h-13l-103 75l-103 -75h-13z" />
    <glyph glyph-name="Ydieresis" unicode="&#x178;" horiz-adv-x="722" 
d="M682 670q-69 0 -103 -70l-117 -244v-256q0 -44 14.5 -62t45.5 -18v-20h-270v20q31 0 45.5 18t14.5 62v205l-180 299q-39 66 -112 66v20h288v-20q-16 0 -23 -3t-7 -10t6 -18.5t20 -31.5l156 -231l107 224q17 36 17 50q0 11 -8 15.5t-26 4.5v20h132v-20zM318 846.5
q17 16.5 40 16.5t39.5 -17t16.5 -40t-16.5 -39.5t-38.5 -16.5q-24 0 -41 16.5t-17 39.5q0 24 17 40.5zM462 846.5q17 16.5 40 16.5t39.5 -17t16.5 -40q0 -22 -17 -39t-39 -17q-23 0 -40 16.5t-17 39.5q0 24 17 40.5z" />
    <glyph glyph-name="Zacute" unicode="&#x179;" horiz-adv-x="592" 
d="M448 86q27 73 49 161h20v-247h-10h-144h-343l357 677h-200q-38 0 -65 -73t-49 -161h-20v247h10h144h355l-357 -677h188q38 0 65 73zM275 807q26 79 40 98q7 9 17.5 14.5t21.5 5.5q13 0 23 -7q18 -13 18 -35q0 -15 -9 -29q-7 -10 -27 -27.5t-42 -35.5q-56 -46 -66 -61
l-5 3q7 11 29 74z" />
    <glyph glyph-name="zacute" unicode="&#x17a;" horiz-adv-x="448" 
d="M369 37q18 27 29 69h20v-106h-230h-168l234 390h-117q-40 0 -58 -27t-29 -69h-20v106h230h93h75l-234 -390h117q40 0 58 27zM224 517q26 79 40 98q7 9 17.5 14.5t21.5 5.5q13 0 23 -7q18 -13 18 -35q0 -15 -9 -29q-7 -10 -27 -27.5t-42 -35.5q-56 -46 -66 -61l-5 3
q7 11 29 74z" />
    <glyph glyph-name="Zdotaccent" unicode="&#x17b;" horiz-adv-x="592" 
d="M448 86q27 73 49 161h20v-247h-10h-144h-343l357 677h-200q-38 0 -65 -73t-49 -161h-20v247h10h144h355l-357 -677h188q38 0 65 73zM247 826.5q17 16.5 40 16.5t39.5 -17t16.5 -40q0 -22 -17 -39t-39 -17q-23 0 -40 16.5t-17 39.5q0 24 17 40.5z" />
    <glyph glyph-name="zdotaccent" unicode="&#x17c;" horiz-adv-x="448" 
d="M369 37q18 27 29 69h20v-106h-230h-168l234 390h-117q-40 0 -58 -27t-29 -69h-20v106h230h93h75l-234 -390h117q40 0 58 27zM185 566.5q17 16.5 40 16.5t39.5 -17t16.5 -40q0 -22 -17 -39t-39 -17q-23 0 -40 16.5t-17 39.5q0 24 17 40.5z" />
    <glyph glyph-name="Zcaron" unicode="&#x17d;" horiz-adv-x="592" 
d="M448 86q27 73 49 161h20v-247h-10h-144h-343l357 677h-200q-38 0 -65 -73t-49 -161h-20v247h10h144h355l-357 -677h188q38 0 65 73zM183 905l103 -75l103 75h13l-110 -155h-12l-110 155h13z" />
    <glyph glyph-name="zcaron" unicode="&#x17e;" horiz-adv-x="448" 
d="M369 37q18 27 29 69h20v-106h-230h-168l234 390h-117q-40 0 -58 -27t-29 -69h-20v106h230h93h75l-234 -390h117q40 0 58 27zM131 625l103 -75l103 75h13l-110 -155h-12l-110 155h13z" />
    <glyph glyph-name="uni0237" unicode="&#x237;" horiz-adv-x="450" 
d="M43 -58q23 23 54 23q32 0 54.5 -22.5t22.5 -54.5q0 -28 -18.5 -47.5t-34.5 -25.5q-7 -3 -7 -11q0 -10 9.5 -22.5t27 -22t39.5 -9.5q26 0 48 19.5t22 54.5v476q0 44 -14.5 62t-45.5 18v20h60q76 0 130 9h20v-500q0 -48 -33 -86.5t-84.5 -60.5t-102.5 -22q-48 0 -87 21.5
t-61 56t-22 70.5q0 31 23 54z" />
    <glyph glyph-name="circumflex" unicode="&#x2c6;" horiz-adv-x="532" 
d="M250 625h12l110 -155h-13l-103 75l-103 -75h-13z" />
    <glyph glyph-name="caron" unicode="&#x2c7;" horiz-adv-x="572" 
d="M163 625l103 -75l103 75h13l-110 -155h-12l-110 155h13z" />
    <glyph glyph-name="breve" unicode="&#x2d8;" horiz-adv-x="500" 
d="M163 571q0 -25 27 -41.5t61 -16.5t60 16.5t26 41.5h13q0 -41 -29 -71t-70 -30q-42 0 -71.5 30t-29.5 71h13z" />
    <glyph glyph-name="dotaccent" unicode="&#x2d9;" horiz-adv-x="413" 
d="M167 566.5q17 16.5 40 16.5t39.5 -17t16.5 -40q0 -22 -17 -39t-39 -17q-23 0 -40 16.5t-17 39.5q0 24 17 40.5z" />
    <glyph glyph-name="ring" unicode="&#x2da;" horiz-adv-x="500" 
d="M176.5 610q26.5 26 60.5 26q33 0 59 -26t26 -59q0 -35 -25 -61t-60 -26q-36 0 -61.5 26t-25.5 61q0 33 26.5 59zM184 498.5q22 -22.5 53 -22.5q30 0 51.5 22.5t21.5 52.5q0 29 -22.5 51t-50.5 22q-30 0 -52.5 -22t-22.5 -51q0 -30 22 -52.5z" />
    <glyph glyph-name="ogonek" unicode="&#x2db;" horiz-adv-x="600" 
d="M441 -130q-70 -120 -160 -120q-39 0 -73 25.5t-34 78.5q0 62 49.5 96t98.5 51h35q-5 -3 -31 -16.5t-45.5 -42.5t-19.5 -70q0 -32 17.5 -51t42.5 -19q23 0 52 15t58 59z" />
    <glyph glyph-name="tilde" unicode="&#x2dc;" horiz-adv-x="646" 
d="M190 473q0 29 14.5 56t38 44t49.5 17q17 0 30.5 -6t30.5 -17q16 -9 25 -13.5t20 -4.5q21 0 36.5 11t15.5 27h6q0 -27 -14 -54.5t-37.5 -45t-49.5 -17.5q-17 0 -30.5 6t-30.5 17q-16 9 -25.5 13.5t-20.5 4.5q-22 0 -36.5 -10.5t-14.5 -27.5h-7z" />
    <glyph glyph-name="hungarumlaut" unicode="&#x2dd;" horiz-adv-x="599" 
d="M179 547q26 79 40 98q7 9 17.5 14.5t21.5 5.5q13 0 23 -7q18 -13 18 -35q0 -15 -9 -29q-7 -10 -27 -27.5t-42 -35.5q-56 -46 -66 -61l-5 3q7 11 29 74zM329 547q26 79 40 98q7 9 17.5 14.5t21.5 5.5q13 0 23 -7q18 -13 18 -35q0 -15 -9 -29q-7 -10 -27 -27.5t-42 -35.5
q-56 -46 -66 -61l-5 3q7 11 29 74z" />
    <glyph glyph-name="gravecomb" unicode="&#x300;" 
d="M-220 501q-22 18 -42 35.5t-27 27.5q-9 14 -9 29q0 22 18 35q10 7 23 7q11 0 21.5 -5.5t17.5 -14.5q8 -10 19.5 -40.5t21.5 -60.5q19 -58 27 -71l-4 -3q-10 15 -66 61z" />
    <glyph glyph-name="acutecomb" unicode="&#x301;" 
d="M-270 517q26 79 40 98q7 9 17.5 14.5t21.5 5.5q13 0 23 -7q18 -13 18 -35q0 -15 -9 -29q-7 -10 -27 -27.5t-42 -35.5q-56 -46 -66 -61l-5 3q7 11 29 74z" />
    <glyph glyph-name="uni0302" unicode="&#x302;" 
d="M-262 625h12l110 -155h-13l-103 75l-103 -75h-13z" />
    <glyph glyph-name="tildecomb" unicode="&#x303;" 
d="M-456 473q0 29 14.5 56t38 44t49.5 17q17 0 30.5 -6t30.5 -17q16 -9 25 -13.5t20 -4.5q21 0 36.5 11t15.5 27h6q0 -27 -14 -54.5t-37.5 -45t-49.5 -17.5q-17 0 -30.5 6t-30.5 17q-16 9 -25.5 13.5t-20.5 4.5q-22 0 -36.5 -10.5t-14.5 -27.5h-7z" />
    <glyph glyph-name="uni0304" unicode="&#x304;" 
d="M-150 485v-15h-250v15h250z" />
    <glyph glyph-name="uni0306" unicode="&#x306;" 
d="M-337 571q0 -25 27 -41.5t61 -16.5t60 16.5t26 41.5h13q0 -41 -29 -71t-70 -30q-42 0 -71.5 30t-29.5 71h13z" />
    <glyph glyph-name="uni0307" unicode="&#x307;" 
d="M-246 566.5q17 16.5 40 16.5t39.5 -17t16.5 -40q0 -22 -17 -39t-39 -17q-23 0 -40 16.5t-17 39.5q0 24 17 40.5z" />
    <glyph glyph-name="uni0308" unicode="&#x308;" 
d="M-410 566.5q17 16.5 40 16.5t39.5 -17t16.5 -40t-16.5 -39.5t-38.5 -16.5q-24 0 -41 16.5t-17 39.5q0 24 17 40.5zM-266 566.5q17 16.5 40 16.5t39.5 -17t16.5 -40q0 -22 -17 -39t-39 -17q-23 0 -40 16.5t-17 39.5q0 24 17 40.5z" />
    <glyph glyph-name="uni030A" unicode="&#x30a;" 
d="M-295.5 610q26.5 26 60.5 26q33 0 59 -26t26 -59q0 -35 -25 -61t-60 -26q-36 0 -61.5 26t-25.5 61q0 33 26.5 59zM-288 498.5q22 -22.5 53 -22.5q30 0 51.5 22.5t21.5 52.5q0 29 -22.5 51t-50.5 22q-30 0 -52.5 -22t-22.5 -51q0 -30 22 -52.5z" />
    <glyph glyph-name="uni030B" unicode="&#x30b;" 
d="M-420 547q26 79 40 98q7 9 17.5 14.5t21.5 5.5q13 0 23 -7q18 -13 18 -35q0 -15 -9 -29q-7 -10 -27 -27.5t-42 -35.5q-56 -46 -66 -61l-5 3q7 11 29 74zM-270 547q26 79 40 98q7 9 17.5 14.5t21.5 5.5q13 0 23 -7q18 -13 18 -35q0 -15 -9 -29q-7 -10 -27 -27.5t-42 -35.5
q-56 -46 -66 -61l-5 3q7 11 29 74z" />
    <glyph glyph-name="uni030C" unicode="&#x30c;" 
d="M-369 625l103 -75l103 75h13l-110 -155h-12l-110 155h13z" />
    <glyph glyph-name="uni0327" unicode="&#x327;" 
d="M-295 -220q25 21 25 57q0 19 -9.5 29t-24.5 10q-18 0 -37 -11t-32 -30l-10 8l111 158h16l-61 -91q16 16 51 16q31 0 51.5 -20t20.5 -49q0 -52 -53 -79.5t-128 -27.5v9q55 0 80 21z" />
    <glyph glyph-name="uni0328" unicode="&#x328;" 
d="M-159 -130q-70 -120 -160 -120q-39 0 -73 25.5t-34 78.5q0 62 49.5 96t98.5 51h35q-5 -3 -31 -16.5t-45.5 -42.5t-19.5 -70q0 -32 17.5 -51t42.5 -19q23 0 52 15t58 59z" />
    <glyph glyph-name="Wgrave" unicode="&#x1e80;" horiz-adv-x="1174" 
d="M1134 670q-32 0 -55 -17t-37 -58l-203 -595h-12l-245 572l-195 -572h-12l-256 598q-30 72 -99 72v20h288v-20q-19 0 -27.5 -5.5t-8.5 -18.5t13 -49l159 -395l131 386l-4 10q-30 72 -99 72v20h288v-20q-19 0 -27.5 -5.5t-8.5 -18.5t13 -49l159 -395l134 393q10 29 10 46
q0 16 -9 22.5t-29 6.5v20h132v-20zM534 791q-22 18 -42 35.5t-27 27.5q-9 14 -9 29q0 22 18 35q10 7 23 7q11 0 21.5 -5.5t17.5 -14.5q14 -19 40 -98q22 -63 29 -74l-5 -3q-10 15 -66 61z" />
    <glyph glyph-name="wgrave" unicode="&#x1e81;" horiz-adv-x="822" 
d="M802 380q-32 0 -55.5 -17t-37.5 -57l-109 -306h-12l-155 311q-6 13 -17 27q-9 -13 -15 -32l-109 -306h-12l-155 311q-35 69 -105 69v20h288v-20q-18 0 -25.5 -4.5t-7.5 -14.5q0 -15 18 -50l57 -115l39 110q11 30 11 49q-31 25 -72 25v20h288v-20q-18 0 -25.5 -4.5
t-7.5 -14.5q0 -15 18 -50l57 -115l39 110q11 31 11 46t-9 21.5t-29 6.5v20h132v-20zM387 501q-22 18 -42 35.5t-27 27.5q-9 14 -9 29q0 22 18 35q10 7 23 7q11 0 21.5 -5.5t17.5 -14.5q8 -10 19.5 -40.5t21.5 -60.5q19 -58 27 -71l-4 -3q-10 15 -66 61z" />
    <glyph glyph-name="Wdieresis" unicode="&#x1e84;" horiz-adv-x="1174" 
d="M1134 670q-32 0 -55 -17t-37 -58l-203 -595h-12l-245 572l-195 -572h-12l-256 598q-30 72 -99 72v20h288v-20q-19 0 -27.5 -5.5t-8.5 -18.5t13 -49l159 -395l131 386l-4 10q-30 72 -99 72v20h288v-20q-19 0 -27.5 -5.5t-8.5 -18.5t13 -49l159 -395l134 393q10 29 10 46
q0 16 -9 22.5t-29 6.5v20h132v-20zM505 826.5q17 16.5 40 16.5t39.5 -17t16.5 -40t-16.5 -39.5t-38.5 -16.5q-24 0 -41 16.5t-17 39.5q0 24 17 40.5zM649 826.5q17 16.5 40 16.5t39.5 -17t16.5 -40q0 -22 -17 -39t-39 -17q-23 0 -40 16.5t-17 39.5q0 24 17 40.5z" />
    <glyph glyph-name="wdieresis" unicode="&#x1e85;" horiz-adv-x="822" 
d="M802 380q-32 0 -55.5 -17t-37.5 -57l-109 -306h-12l-155 311q-6 13 -17 27q-9 -13 -15 -32l-109 -306h-12l-155 311q-35 69 -105 69v20h288v-20q-18 0 -25.5 -4.5t-7.5 -14.5q0 -15 18 -50l57 -115l39 110q11 30 11 49q-31 25 -72 25v20h288v-20q-18 0 -25.5 -4.5
t-7.5 -14.5q0 -15 18 -50l57 -115l39 110q11 31 11 46t-9 21.5t-29 6.5v20h132v-20zM290 566.5q17 16.5 40 16.5t39.5 -17t16.5 -40t-16.5 -39.5t-38.5 -16.5q-24 0 -41 16.5t-17 39.5q0 24 17 40.5zM434 566.5q17 16.5 40 16.5t39.5 -17t16.5 -40q0 -22 -17 -39t-39 -17
q-23 0 -40 16.5t-17 39.5q0 24 17 40.5z" />
    <glyph glyph-name="uni1E9E" unicode="&#x1e9e;" horiz-adv-x="653" 
d="M403.5 331.5q28.5 -28.5 86.5 -66.5q61 -40 92 -71.5t31 -75.5q0 -49 -40.5 -88.5t-144.5 -39.5q-41 0 -86 18q-19 7 -26 7q-10 0 -10 -15h-20l-1 125h20q31 -122 115 -122q28 0 50.5 19t22.5 51q0 25 -19.5 43.5t-62.5 47.5q-40 25 -66.5 47.5t-45.5 56.5t-19 79
t17.5 72t52.5 58q33 29 50 55t17 67q0 52 -23 96.5t-94 44.5q-26 0 -48 -20t-22 -55v-665h-210v20q31 0 45.5 18t14.5 62v280h-60v20h60v180q0 48 33.5 87t84.5 61t102 22q70 0 121 -23.5t76.5 -59t25.5 -68.5q0 -35 -17.5 -54.5t-54.5 -41.5q-38 -22 -57 -43.5t-19 -60.5
t28.5 -67.5z" />
    <glyph glyph-name="Ygrave" unicode="&#x1ef2;" horiz-adv-x="722" 
d="M682 670q-69 0 -103 -70l-117 -244v-256q0 -44 14.5 -62t45.5 -18v-20h-270v20q31 0 45.5 18t14.5 62v205l-180 299q-39 66 -112 66v20h288v-20q-16 0 -23 -3t-7 -10t6 -18.5t20 -31.5l156 -231l107 224q17 36 17 50q0 11 -8 15.5t-26 4.5v20h132v-20zM384 791
q-22 18 -42 35.5t-27 27.5q-9 14 -9 29q0 22 18 35q10 7 23 7q11 0 21.5 -5.5t17.5 -14.5q14 -19 40 -98q22 -63 29 -74l-5 -3q-10 15 -66 61z" />
    <glyph glyph-name="ygrave" unicode="&#x1ef3;" horiz-adv-x="536" 
d="M41 -133.5q21 21.5 52 21.5t52 -21.5t21 -52.5q0 -17 -6 -30q-2 -4 -2 -6q0 -4 4 -4q5 0 14 6q21 15 38 41t26 50l48 127l-127 309q-16 40 -41 56.5t-57 16.5v20h288v-20q-19 0 -28 -6t-9 -20q0 -16 12 -48l40 -104l41 105q13 34 13 48q0 13 -9 19t-28 6v20h133v-20
q-32 0 -56 -16.5t-40 -56.5l-167 -439q-11 -28 -25 -52.5t-48 -49.5t-87 -25q-31 0 -52 21t-21 52t21 52.5zM228 501q-22 18 -42 35.5t-27 27.5q-9 14 -9 29q0 22 18 35q10 7 23 7q11 0 21.5 -5.5t17.5 -14.5q8 -10 19.5 -40.5t21.5 -60.5q19 -58 27 -71l-4 -3
q-10 15 -66 61z" />
    <glyph glyph-name="endash" unicode="&#x2013;" horiz-adv-x="410" 
d="M370 199v-15h-330v15h330z" />
    <glyph glyph-name="emdash" unicode="&#x2014;" horiz-adv-x="620" 
d="M580 199v-15h-540v15h540z" />
    <glyph glyph-name="quoteleft" unicode="&#x2018;" horiz-adv-x="199" 
d="M155.5 469.5q-23.5 -23.5 -56.5 -23.5t-56 23.5t-23 55.5q0 57 28 100t85 59l2 -8q-41 -11 -64.5 -40t-29.5 -66q5 16 21.5 25.5t36.5 9.5q34 0 57 -23.5t23 -56.5q0 -32 -23.5 -55.5z" />
    <glyph glyph-name="quoteright" unicode="&#x2019;" horiz-adv-x="199" 
d="M43.5 675.5q23.5 23.5 56.5 23.5t56 -23.5t23 -55.5q0 -57 -28 -100t-85 -59l-2 8q41 11 64.5 40t29.5 66q-5 -16 -21.5 -25.5t-36.5 -9.5q-34 0 -57 23.5t-23 56.5q0 32 23.5 55.5z" />
    <glyph glyph-name="quotesinglbase" unicode="&#x201a;" horiz-adv-x="199" 
d="M43.5 126.5q23.5 23.5 56.5 23.5t56 -23.5t23 -55.5q0 -57 -28 -100t-85 -59l-2 8q41 11 64.5 40t29.5 66q-5 -16 -21.5 -25.5t-36.5 -9.5q-34 0 -57 23.5t-23 56.5q0 32 23.5 55.5z" />
    <glyph glyph-name="quotedblleft" unicode="&#x201c;" horiz-adv-x="398" 
d="M155.5 469.5q-23.5 -23.5 -56.5 -23.5t-56 23.5t-23 55.5q0 57 28 100t85 59l2 -8q-41 -11 -64.5 -40t-29.5 -66q5 16 21.5 25.5t36.5 9.5q34 0 57 -23.5t23 -56.5q0 -32 -23.5 -55.5zM354.5 469.5q-23.5 -23.5 -56.5 -23.5t-56 23.5t-23 55.5q0 57 28 100t85 59l2 -8
q-41 -11 -64.5 -40t-29.5 -66q5 16 21.5 25.5t36.5 9.5q34 0 57 -23.5t23 -56.5q0 -32 -23.5 -55.5z" />
    <glyph glyph-name="quotedblright" unicode="&#x201d;" horiz-adv-x="398" 
d="M242.5 675.5q23.5 23.5 56.5 23.5t56 -23.5t23 -55.5q0 -57 -28 -100t-85 -59l-2 8q41 11 64.5 40t29.5 66q-5 -16 -21.5 -25.5t-36.5 -9.5q-34 0 -57 23.5t-23 56.5q0 32 23.5 55.5zM43.5 675.5q23.5 23.5 56.5 23.5t56 -23.5t23 -55.5q0 -57 -28 -100t-85 -59l-2 8
q41 11 64.5 40t29.5 66q-5 -16 -21.5 -25.5t-36.5 -9.5q-34 0 -57 23.5t-23 56.5q0 32 23.5 55.5z" />
    <glyph glyph-name="quotedblbase" unicode="&#x201e;" horiz-adv-x="199" 
d="M156 126.5q23 -23.5 23 -55.5q0 -57 -28 -100t-85 -59l-2 8q41 11 64.5 40t29.5 66q-5 -16 -21.5 -25.5t-36.5 -9.5q-34 0 -57 23.5t-23 56.5q0 32 23.5 55.5t56.5 23.5t56 -23.5z" />
    <glyph glyph-name="dagger" unicode="&#x2020;" horiz-adv-x="422" 
d="M35.5 545.5q15.5 14.5 35.5 14.5q15 0 25.5 -4.5t25.5 -14.5q19 -13 37.5 -20t49.5 -7q0 31 -7 49.5t-20 37.5q-10 15 -14.5 25.5t-4.5 25.5q0 20 14.5 35.5t33.5 15.5q20 0 34 -15t14 -36q0 -15 -4.5 -25.5t-14.5 -25.5q-13 -19 -20 -37.5t-7 -49.5q31 0 49.5 7t37.5 20
q15 10 25.5 14.5t25.5 4.5q20 0 35.5 -14.5t15.5 -33.5q0 -20 -15 -34t-36 -14q-15 0 -25.5 4.5t-25.5 14.5q-19 13 -37.5 20t-49.5 7q0 -11 22 -42.5t28 -35.5q-22 -84 -36 -224.5t-14 -207.5h-4q0 67 -14 207t-36 224q6 4 28 36t22 43q-31 0 -49.5 -7t-37.5 -20
q-15 -10 -25.5 -14.5t-25.5 -4.5q-21 0 -36 14t-15 34q0 19 15.5 33.5z" />
    <glyph glyph-name="daggerdbl" unicode="&#x2021;" horiz-adv-x="422" 
d="M35.5 545.5q15.5 14.5 35.5 14.5q15 0 25.5 -4.5t25.5 -14.5q19 -13 37.5 -20t49.5 -7q0 22 -6.5 36t-18.5 29q-11 15 -16 25.5t-5 27.5q0 20 14.5 35.5t33.5 15.5q20 0 34 -15t14 -36q0 -17 -5 -27.5t-16 -25.5q-12 -15 -18.5 -29t-6.5 -36q31 0 49.5 7t37.5 20
q15 10 25.5 14.5t25.5 4.5q20 0 35.5 -14.5t15.5 -33.5q0 -20 -15 -34t-36 -14q-15 0 -25.5 4.5t-25.5 14.5q-19 13 -37.5 20t-49.5 7q0 -11 22 -42.5t28 -35.5q-21 -20 -35.5 -42t-14.5 -40h-4q0 18 -14.5 39.5t-35.5 41.5q6 4 28 36t22 43q-31 0 -49.5 -7t-37.5 -20
q-15 -10 -25.5 -14.5t-25.5 -4.5q-21 0 -36 14t-15 34q0 19 15.5 33.5zM35 205q15 14 36 14q15 0 25.5 -4.5t25.5 -14.5q19 -13 37.5 -20t49.5 -7q0 11 -22 43t-28 36q21 20 35.5 41.5t14.5 39.5h4q0 -18 14.5 -40t35.5 -42q-6 -4 -28 -35.5t-22 -42.5q31 0 49.5 7t37.5 20
q15 10 25.5 14.5t25.5 4.5q21 0 36 -14t15 -34q0 -19 -15.5 -33.5t-35.5 -14.5q-15 0 -25.5 4.5t-25.5 14.5q-19 13 -37.5 20t-49.5 7q0 -22 6.5 -36t18.5 -29q11 -15 16 -25.5t5 -27.5q0 -21 -14 -36t-34 -15q-19 0 -33.5 15.5t-14.5 35.5q0 17 5 27.5t16 25.5
q12 15 18.5 29t6.5 36q-31 0 -49.5 -7t-37.5 -20q-15 -10 -25.5 -14.5t-25.5 -4.5q-20 0 -35.5 14.5t-15.5 33.5q0 20 15 34z" />
    <glyph glyph-name="bullet" unicode="&#x2022;" horiz-adv-x="179" 
d="M33 194.5q-23 23.5 -23 56.5q0 32 23.5 55.5t56.5 23.5q32 0 55.5 -23.5t23.5 -55.5q0 -33 -23 -56.5t-56 -23.5q-34 0 -57 23.5z" />
    <glyph glyph-name="ellipsis" unicode="&#x2026;" horiz-adv-x="179" 
d="M155.5 126.5q23.5 -23.5 23.5 -55.5q0 -33 -23 -56.5t-56 -23.5q-34 0 -57 23.5t-23 56.5q0 32 23.5 55.5t56.5 23.5q32 0 55.5 -23.5z" />
    <glyph glyph-name="guilsinglleft" unicode="&#x2039;" horiz-adv-x="205" 
d="M190 378l5 -5q-58 -101 -100 -171q42 -70 100 -171l-5 -5l-180 176z" />
    <glyph glyph-name="guilsinglright" unicode="&#x203a;" horiz-adv-x="205" 
d="M15 26l-5 5q58 101 100 171q-42 70 -100 171l5 5l180 -176z" />
    <glyph glyph-name="Euro" unicode="&#x20ac;" horiz-adv-x="766" 
d="M746 243q-31 -117 -102.5 -184.5t-172.5 -67.5q-81 0 -156 34.5t-126 100t-63 155.5h-106v15h104l-1 34q0 16 2 46h-105v15h107q13 87 59 157t123 110.5t177 40.5q76 0 137 -32t84 -77q9 -18 9 -35q0 -21 -11.5 -39t-31.5 -28q-15 -8 -35 -8q-21 0 -39.5 10.5t-27.5 30.5
q-9 18 -9 35q0 37 42 67q4 2 4 7q0 6 -5 11q-16 19 -46 32t-71 13q-78 0 -125.5 -44t-68 -109.5t-20.5 -135.5v-6h148v-15h-148q3 -48 10 -80h138v-15h-134q18 -68 56.5 -111t83 -62.5t84.5 -19.5q66 0 130 31t94 130z" />
    <glyph glyph-name="trademark" unicode="&#x2122;" horiz-adv-x="760" 
d="M315 687v-126h-10q-1 4 -9.5 36t-22 57.5t-27.5 25.5h-40v-294q0 -22 7.5 -31.5t22.5 -9.5v-10h-137v10q15 0 22.5 9.5t7.5 31.5v294h-40q-18 0 -31.5 -33t-20 -57.5t-7.5 -28.5h-10v126h5h74h211h5zM717.5 668q-7.5 -9 -7.5 -31v-249q0 -24 7 -33.5t23 -9.5v-10h-139v10
q17 0 24.5 9.5t7.5 33.5v283l-115 -336h-6l-131 309l1 -4l-8 15v-267q0 -24 7 -33.5t23 -9.5v-10h-66v10q16 0 23 9.5t7 33.5v274q-14 15 -36 15v10h117l100 -247l84 247h107v-10q-15 0 -22.5 -9z" />
    <glyph glyph-name="product" unicode="&#x220f;" horiz-adv-x="709" 
d="M653.5 652q-14.5 -18 -14.5 -62v-490q0 -44 14.5 -62t45.5 -18v-20h-270v20q31 0 45.5 18t14.5 62v490q0 44 -14.5 62t-45.5 18h-149q-31 0 -45.5 -18t-14.5 -62v-490q0 -44 14.5 -62t45.5 -18v-20h-270v20q31 0 45.5 18t14.5 62v490q0 44 -14.5 62t-45.5 18v20h689v-20
q-31 0 -45.5 -18z" />
    <glyph glyph-name="minus" unicode="&#x2212;" horiz-adv-x="320" 
d="M280 234v-85h-240v85h240z" />
    <glyph glyph-name="notequal" unicode="&#x2260;" horiz-adv-x="410" 
d="M225 244l-35 -105h180v-15h-185l-48 -145l-14 5l46 140h-129v15h134l35 105h-169v15h174l57 174l14 -6l-55 -168h140v-15h-145z" />
    <glyph glyph-name="lessequal" unicode="&#x2264;" horiz-adv-x="418" 
d="M395 153l-375 114v26l375 114l2 -14l-363 -113l363 -113zM398 99v-15h-378v15h378z" />
    <glyph glyph-name="greaterequal" unicode="&#x2265;" horiz-adv-x="418" 
d="M398 293v-26l-375 -114l-2 14l363 113l-363 113l2 14zM20 99h378v-15h-378v15z" />
    <glyph glyph-name="i.loclTRK" horiz-adv-x="310" 
d="M244.5 38q14.5 -18 45.5 -18v-20h-270v20q31 0 45.5 18t14.5 62v200q0 44 -14.5 62t-45.5 18v20h60q76 0 130 9h20v-309q0 -44 14.5 -62zM85 566.5q17 16.5 40 16.5t39.5 -17t16.5 -40q0 -22 -17 -39t-39 -17q-23 0 -40 16.5t-17 39.5q0 24 17 40.5z" />
    <glyph glyph-name="f_b" horiz-adv-x="814" 
d="M612 409q44 0 86.5 -25.5t69 -73t26.5 -110.5t-27 -110.5t-69 -73t-86 -25.5q-32 0 -60 14q-22 12 -32 20v-25h-210v20q31 0 45.5 18t14.5 62v590q0 18 -15.5 34t-54.5 16q-26 0 -48 -20t-22 -55v-265h50v-20h-50v-280q0 -44 14.5 -62t45.5 -18v-20h-270v20q31 0 45.5 18
t14.5 62v280h-50v20h50v180q0 48 33.5 87t84.5 61t102 22q39 0 72.5 -16t57.5 -42q42 2 70 7h20v-324q10 8 32 20q28 14 60 14zM608 54.5q26 21.5 41 59.5t15 87q0 46 -15 84t-41 60.5t-56 22.5q-18 0 -32 -12v-311q14 -12 32 -12q30 0 56 21.5z" />
    <glyph glyph-name="f_f" horiz-adv-x="780" 
d="M677 728.5q39 -21.5 61 -56t22 -70.5q0 -31 -22.5 -54t-54.5 -23t-54.5 22.5t-22.5 54.5q0 28 18.5 47.5t34.5 25.5q7 3 7 11q0 10 -9.5 22.5t-27 22t-39.5 9.5q-26 0 -48 -20t-22 -55v-265h50v-20h-50v-280q0 -44 14.5 -62t45.5 -18v-20h-270v20q31 0 45.5 18t14.5 62
v280h-140v-280q0 -44 14.5 -62t45.5 -18v-20h-270v20q31 0 45.5 18t14.5 62v280h-50v20h50v135q0 58 34 102.5t89.5 68.5t116.5 24q58 0 105 -41q33 28 77.5 44.5t87.5 16.5q48 0 87 -21.5zM370 580q0 48 34 88q-13 20 -36 36t-48 16q-90 0 -90 -185v-135h140v180z" />
    <glyph glyph-name="f_h" horiz-adv-x="890" 
d="M824.5 38q14.5 -18 45.5 -18v-20h-270v20q31 0 45.5 18t14.5 62v167q0 44 -18.5 73t-45.5 29q-19 0 -39 -17t-37 -52v-200q0 -44 14.5 -62t45.5 -18v-20h-270v20q31 0 45.5 18t14.5 62v590q0 18 -15.5 34t-54.5 16q-26 0 -48 -20t-22 -55v-265h50v-20h-50v-280
q0 -44 14.5 -62t45.5 -18v-20h-270v20q31 0 45.5 18t14.5 62v280h-50v20h50v180q0 48 33.5 87t84.5 61t102 22q39 0 72.5 -16t57.5 -42q42 2 70 7h20v-379q24 48 68 79t101 31q59 0 90 -43.5t31 -119.5v-167q0 -44 14.5 -62z" />
    <glyph glyph-name="f_i" horiz-adv-x="600" 
d="M387 728.5q39 -21.5 61 -56t22 -70.5q0 -31 -22.5 -54t-54.5 -23t-54.5 22.5t-22.5 54.5q0 28 18.5 47.5t34.5 25.5q7 3 7 11q0 10 -9.5 22.5t-27 22t-39.5 9.5q-26 0 -48 -20t-22 -55v-265h50v-13h-50v-287q0 -44 14.5 -62t45.5 -18v-20h-270v20q31 0 45.5 18t14.5 62
v287h-50v13h50v180q0 48 33.5 87t84.5 61t102 22q48 0 87 -21.5zM534.5 38q14.5 -18 45.5 -18v-20h-270v20q31 0 45.5 18t14.5 62v200q0 44 -14.5 62t-45.5 18v20h60q76 0 130 9h20v-309q0 -44 14.5 -62z" />
    <glyph glyph-name="f_j" horiz-adv-x="540" 
d="M290 0h-270v20q31 0 45.5 18t14.5 62v287h-50v13h50v180q0 48 33.5 87t84.5 61t102 22q48 0 87 -21.5t61 -56t22 -70.5q0 -31 -22.5 -54t-54.5 -23t-54.5 22.5t-22.5 54.5q0 28 18.5 47.5t34.5 25.5q7 3 7 11q0 10 -9.5 22.5t-27 22t-39.5 9.5q-26 0 -48 -20t-22 -55
v-265h50v-13h-50v-287q0 -44 14.5 -62t45.5 -18v-20zM520 409v-500q0 -48 -33 -86.5t-84.5 -60.5t-102.5 -22q-48 0 -87 21.5t-61 56t-22 70.5q0 31 23 54t54 23q32 0 54.5 -22.5t22.5 -54.5q0 -28 -18.5 -47.5t-34.5 -25.5q-7 -3 -7 -11q0 -10 9.5 -22.5t27 -22t39.5 -9.5
q26 0 48 19.5t22 54.5v476q0 44 -14.5 62t-45.5 18v20h60q76 0 130 9h20z" />
    <glyph glyph-name="f_l" horiz-adv-x="600" 
d="M534.5 38q14.5 -18 45.5 -18v-20h-270v20q31 0 45.5 18t14.5 62v590q0 18 -15.5 34t-54.5 16q-26 0 -48 -20t-22 -55v-265h50v-20h-50v-280q0 -44 14.5 -62t45.5 -18v-20h-270v20q31 0 45.5 18t14.5 62v280h-50v20h50v180q0 48 33.5 87t84.5 61t102 22q35 0 66 -13.5
t55 -35.5q47 2 79 7h20v-608q0 -44 14.5 -62z" />
    <glyph glyph-name="uni0308.case" 
d="M-410 826.5q17 16.5 40 16.5t39.5 -17t16.5 -40t-16.5 -39.5t-38.5 -16.5q-24 0 -41 16.5t-17 39.5q0 24 17 40.5zM-266 826.5q17 16.5 40 16.5t39.5 -17t16.5 -40q0 -22 -17 -39t-39 -17q-23 0 -40 16.5t-17 39.5q0 24 17 40.5z" />
    <glyph glyph-name="uni0307.case" 
d="M-246 826.5q17 16.5 40 16.5t39.5 -17t16.5 -40q0 -22 -17 -39t-39 -17q-23 0 -40 16.5t-17 39.5q0 24 17 40.5z" />
    <glyph glyph-name="gravecomb.case" 
d="M-221 791q-22 18 -42 35.5t-27 27.5q-9 14 -9 29q0 22 18 35q10 7 23 7q11 0 21.5 -5.5t17.5 -14.5q14 -19 40 -98q22 -63 29 -74l-5 -3q-10 15 -66 61z" />
    <glyph glyph-name="acutecomb.case" 
d="M-270 807q26 79 40 98q7 9 17.5 14.5t21.5 5.5q13 0 23 -7q18 -13 18 -35q0 -15 -9 -29q-7 -10 -27 -27.5t-42 -35.5q-56 -46 -66 -61l-5 3q7 11 29 74z" />
    <glyph glyph-name="uni030B.case" 
d="M-420 807q26 79 40 98q7 9 17.5 14.5t21.5 5.5q13 0 23 -7q18 -13 18 -35q0 -15 -9 -29q-7 -10 -27 -27.5t-42 -35.5q-56 -46 -66 -61l-5 3q7 11 29 74zM-270 807q26 79 40 98q7 9 17.5 14.5t21.5 5.5q13 0 23 -7q18 -13 18 -35q0 -15 -9 -29q-7 -10 -27 -27.5t-42 -35.5
q-56 -46 -66 -61l-5 3q7 11 29 74z" />
    <glyph glyph-name="uni0302.case" 
d="M-262 905h12l100 -155h-13l-93 75l-93 -75h-13z" />
    <glyph glyph-name="uni030C.case" 
d="M-369 905l103 -75l103 75h13l-110 -155h-12l-110 155h13z" />
    <glyph glyph-name="uni0306.case" 
d="M-337 851q0 -25 27 -41.5t61 -16.5t60 16.5t26 41.5h13q0 -41 -29 -71t-70 -30q-42 0 -71.5 30t-29.5 71h13z" />
    <glyph glyph-name="uni030A.case" 
d="M-320.5 900q30.5 30 70.5 30q39 0 69 -30t30 -69q0 -41 -29 -71t-70 -30q-42 0 -71.5 30t-29.5 71q0 39 30.5 69zM-312 769.5q26 -26.5 62 -26.5q35 0 60.5 26.5t25.5 61.5q0 34 -26 60t-60 26q-35 0 -61.5 -26t-26.5 -60q0 -35 26 -61.5z" />
    <glyph glyph-name="tildecomb.case" 
d="M-456 753q0 29 14.5 56t38 44t49.5 17q17 0 30.5 -6t30.5 -17q16 -9 25 -13.5t20 -4.5q21 0 36.5 11t15.5 27h6q0 -27 -14 -54.5t-37.5 -45t-49.5 -17.5q-17 0 -30.5 6t-30.5 17q-16 9 -25.5 13.5t-20.5 4.5q-22 0 -36.5 -10.5t-14.5 -27.5h-7z" />
    <glyph glyph-name="uni0304.case" 
d="M-150 785v-15h-250v15h250z" />
    </font>
</defs>
</svg>
