<?xml version="1.0" standalone="no"?>
<!DOCTYPE svg PUBLIC "-//W3C//DTD SVG 1.1//EN" "http://www.w3.org/Graphics/SVG/1.1/DTD/svg11.dtd" >
<svg xmlns="http://www.w3.org/2000/svg" xmlns:xlink="http://www.w3.org/1999/xlink" version="1.1">
<metadata>
Created by FontForge 20170731 at Mon Apr 20 20:23:22 2020
 By Aleksey,,,
Copyright (c) 2020 by Sweetest Goods. All rights reserved.
</metadata>
<defs>
<font id="Chatoyer-Regular" horiz-adv-x="320" >
  <font-face 
    font-family="Chatoyer"
    font-weight="400"
    font-stretch="normal"
    units-per-em="1600"
    panose-1="0 0 5 0 0 0 0 0 0 0"
    ascent="1280"
    descent="-320"
    x-height="1350"
    cap-height="1350"
    bbox="-953 -922 3450 1800"
    underline-thickness="50"
    underline-position="-150"
    unicode-range="U+0020-E041"
  />
<missing-glyph horiz-adv-x="1000" 
d="M820 -500h-634v2000h634v-2000zM336 1366v-66h130v-74h-132v-66h332v66h-132v74h132v66h-330zM334 1108v-208h332v68h-132v140h-200zM466 968h-66v72h66v-72zM334 846v-66h132v-74h-132v-66h200v140h132v66h-332zM600 726v-132h-266v-68h332v200h-66zM466 482v-112h68v46
h66v-94h-200v160h-66v-226h332v226h-200zM334 136v-226h332v226h-332zM600 -24h-200v94h200v-94zM334 -136v-66h140l-140 -94v-66h332v66h-204l140 94h64v66h-332z" />
    <glyph glyph-name=".notdef" horiz-adv-x="1000" 
d="M820 -500h-634v2000h634v-2000zM336 1366v-66h130v-74h-132v-66h332v66h-132v74h132v66h-330zM334 1108v-208h332v68h-132v140h-200zM466 968h-66v72h66v-72zM334 846v-66h132v-74h-132v-66h200v140h132v66h-332zM600 726v-132h-266v-68h332v200h-66zM466 482v-112h68v46
h66v-94h-200v160h-66v-226h332v226h-200zM334 136v-226h332v226h-332zM600 -24h-200v94h200v-94zM334 -136v-66h140l-140 -94v-66h332v66h-204l140 94h64v66h-332z" />
    <glyph glyph-name=".null" horiz-adv-x="0" 
 />
    <glyph glyph-name="nonmarkingreturn" horiz-adv-x="533" 
 />
    <glyph glyph-name="space" unicode=" " horiz-adv-x="400" 
 />
    <glyph glyph-name="exclam" unicode="!" horiz-adv-x="370" 
d="M170 330q0 85 -10.5 306t-21.5 420q-13 245 -13 254q0 25 17.5 42.5t42.5 17.5t42.5 -17.5t17.5 -42.5q0 -9 -13 -254q-11 -199 -21.5 -420t-10.5 -306h-30zM124.5 4.5q-24.5 24.5 -24.5 60.5q0 35 24.5 60t60.5 25q35 0 60 -25t25 -60q0 -36 -25 -60.5t-60 -24.5
q-36 0 -60.5 24.5z" />
    <glyph glyph-name="quotedbl" unicode="&#x22;" horiz-adv-x="620" 
d="M158 1047.5q-11 48.5 -31 115.5q-15 48 -21 73t-6 48q0 36 24.5 61t60.5 25t60.5 -25t24.5 -61q0 -23 -7 -50t-21 -71q-21 -66 -32.5 -115t-11.5 -104h-29q0 55 -11 103.5zM408 1047.5q-11 48.5 -31 115.5q-15 48 -21 73t-6 48q0 36 24.5 61t60.5 25t60.5 -25t24.5 -61
q0 -23 -7 -50t-21 -71q-21 -66 -32.5 -115t-11.5 -104h-29q0 55 -11 103.5z" />
    <glyph glyph-name="numbersign" unicode="#" horiz-adv-x="1669" 
d="M1214 984l-220 -607h360v-30h-371l-182 -502h-31l182 502h-540l-182 -502h-31l182 502h-281v30h292l220 607h-297v30h308l176 486h31l-176 -486h540l176 486h31l-176 -486h344v-30h-355zM1183 984h-540l-220 -607h540z" />
    <glyph glyph-name="dollar" unicode="$" horiz-adv-x="996" 
d="M661 695q76 -50 122.5 -91t79.5 -106.5t33 -158.5q0 -91 -52.5 -174t-146 -134t-210.5 -51q-37 0 -79 5l-17 -140h-30l17 144q-76 14 -141.5 51t-136.5 100v70q68 -78 135.5 -124.5t146.5 -64.5l79 653l-171 104q-79 53 -126 118t-47 148q0 98 48 172t132.5 114t189.5 40
q33 0 58 -4l16 134h30l-17 -139q113 -23 204 -103v-70q-48 57 -98 91.5t-110 49.5l-65 -539l124 -74zM477 807l64 528q-33 4 -54 5q-91 0 -156.5 -29.5t-99.5 -83t-34 -123.5q0 -79 35.5 -125.5t92.5 -80.5zM658.5 50.5q75.5 40.5 116.5 103.5t41 125q0 72 -25 124.5
t-58 84.5t-80 66q-6 4 -12 8.5t-12 9.5l-140 85l-77 -641q36 -6 75 -6q96 0 171.5 40.5z" />
    <glyph glyph-name="percent" unicode="%" horiz-adv-x="1745" 
d="M1191 1500l-600 -1655h-32l600 1655h32zM144 1183q44 74 118.5 118t162.5 44t162.5 -44t118.5 -118t44 -162t-44 -163t-118.5 -119t-162.5 -44t-162.5 44t-118.5 119t-44 163t44 162zM207.5 867q31.5 -69 88 -108t129.5 -39t129.5 39t88 108t31.5 154t-31.5 153.5
t-88 107.5t-129.5 39t-129.5 -39t-88 -107.5t-31.5 -153.5t31.5 -154zM1039 488q44 74 118.5 118t162.5 44t162.5 -44t118.5 -118t44 -162t-44 -163t-118.5 -119t-162.5 -44t-162.5 44t-118.5 119t-44 163t44 162zM1102.5 172q31.5 -69 88 -108t129.5 -39t129.5 39t88 108
t31.5 154t-31.5 153.5t-88 107.5t-129.5 39t-129.5 -39t-88 -107.5t-31.5 -153.5t31.5 -154z" />
    <glyph glyph-name="ampersand" unicode="&#x26;" horiz-adv-x="1310" 
d="M1210 -20q-77 0 -150 43t-144 113q-68 -74 -154 -115t-190 -41q-93 0 -202.5 34.5t-189.5 114t-80 205.5q0 138 94.5 234.5t220.5 155.5l-14 17q-79 91 -122.5 167.5t-43.5 167.5q0 82 37.5 149t106 106t156.5 39t156.5 -39t106 -106t37.5 -149q0 -106 -75 -187.5
t-206 -145.5l18 -23q209 -271 354 -442q65 170 65 422h120q0 -125 -34 -252.5t-99 -229.5q184 -208 232 -208v-30zM371 1011.5q16 -47.5 39 -82t61 -80.5l21 -26l44 -56q100 61 139.5 147.5t39.5 204.5q0 71 -27 121t-69 75t-84 25t-84 -25t-69 -75t-27 -121
q0 -60 16 -107.5zM877 176l-71 78q-18 19 -189 226q-152 185 -180 218q-81 -54 -139 -136.5t-58 -195.5q0 -102 42.5 -182.5t123 -127t190.5 -46.5q177 0 281 166z" />
    <glyph glyph-name="quotesingle" unicode="'" horiz-adv-x="370" 
d="M158 1047.5q-11 48.5 -31 115.5q-15 48 -21 73t-6 48q0 36 24.5 61t60.5 25t60.5 -25t24.5 -61q0 -23 -7 -50t-21 -71q-21 -66 -32.5 -115t-11.5 -104h-29q0 55 -11 103.5z" />
    <glyph glyph-name="parenleft" unicode="(" horiz-adv-x="670" 
d="M570 1500q-120 -141 -193 -255t-115 -253.5t-42 -319.5t42 -319t115 -253t193 -255h-30q-143 129 -238 250t-148.5 263.5t-53.5 313.5t53.5 313.5t149 264t237.5 250.5h30z" />
    <glyph glyph-name="parenright" unicode=")" horiz-adv-x="670" 
d="M367.5 1249.5q95.5 -121.5 149 -264t53.5 -313.5t-53.5 -313.5t-148.5 -263.5t-238 -250h-30q120 141 193 255t115 253t42 319t-42 319.5t-115 253.5t-193 255h30q142 -129 237.5 -250.5z" />
    <glyph glyph-name="asterisk" unicode="*" horiz-adv-x="725" 
d="M619 966.5q5 -9.5 5 -21.5q0 -19 -12 -30.5t-29 -11.5q-10 0 -21 6q-22 14 -93 72q-69 58 -98 78q2 -26 16 -114q17 -102 17 -127q0 -17 -12.5 -29.5t-29.5 -12.5t-29.5 12.5t-12.5 29.5q0 24 17 124q3 16 9 56.5t8 60.5q-14 -9 -92 -72q-82 -66 -100 -77q-11 -6 -21 -6
q-11 0 -21 5.5t-15 15.5q-5 9 -5 21t5 21.5t15 14.5q17 9 103 41q99 38 124 50q-15 7 -117 48q-96 37 -109 44q-10 5 -15 14.5t-5 21.5q0 19 12 30.5t29 11.5q10 0 21 -6q22 -14 93 -72q69 -58 98 -78q-2 26 -16 114q-17 102 -17 127q0 17 12.5 29.5t29.5 12.5t29.5 -12.5
t12.5 -29.5q0 -24 -17 -124q-3 -16 -9 -56.5t-8 -60.5q14 9 92 72q82 66 100 77q11 6 21 6q11 0 21 -5.5t15 -15.5q5 -9 5 -21t-5 -21.5t-15 -14.5q-17 -9 -103 -41q-99 -38 -124 -50q15 -7 117 -48q96 -37 109 -44q10 -5 15 -14.5z" />
    <glyph glyph-name="plus" unicode="+" horiz-adv-x="780" 
d="M680 670h-275v-275h-30v275h-275v30h275v275h30v-275h275v-30z" />
    <glyph glyph-name="comma" unicode="," horiz-adv-x="413" 
d="M124.5 4.5q-24.5 24.5 -24.5 60.5q0 35 27 60t63 25q37 0 67.5 -20.5t48 -57t17.5 -83.5q0 -70 -32 -135t-114 -130v27q92 82 92 187q0 21 -5 38.5t-10.5 29t-6.5 10.5q-9 -18 -26.5 -27t-35.5 -9q-36 0 -60.5 24.5z" />
    <glyph glyph-name="hyphen" unicode="-" horiz-adv-x="780" 
d="M680 700v-30h-580v30h580z" />
    <glyph glyph-name="period" unicode="." horiz-adv-x="370" 
d="M124.5 4.5q-24.5 24.5 -24.5 60.5q0 35 24.5 60t60.5 25q35 0 60 -25t25 -60q0 -36 -25 -60.5t-60 -24.5q-36 0 -60.5 24.5z" />
    <glyph glyph-name="slash" unicode="/" horiz-adv-x="832" 
d="M732 1500l-600 -1655h-32l600 1655h32z" />
    <glyph glyph-name="zero" unicode="0" horiz-adv-x="1170" 
d="M167.5 1022q67.5 160 179.5 254t238 94t238 -94t179.5 -254t67.5 -347t-67.5 -347t-179.5 -254t-238 -94t-238 94t-179.5 254t-67.5 347t67.5 347zM267 341q47 -152 130.5 -241.5t187.5 -89.5t187.5 89.5t130.5 241.5t47 334t-47 334t-130.5 241.5t-187.5 89.5
t-187.5 -89.5t-130.5 -241.5t-47 -334t47 -334z" />
    <glyph glyph-name="one" unicode="1" horiz-adv-x="472" 
d="M372 1370v-1370h-120v1253l-152 -102v36z" />
    <glyph glyph-name="two" unicode="2" horiz-adv-x="1046" 
d="M889.5 813.5q-56.5 -78.5 -138.5 -135t-220 -133.5q-133 -73 -213 -127.5t-134 -128.5t-54 -169h814v-120h-844v120q0 96 49.5 172t120.5 131.5t193 133.5q121 77 193 133t121 132t49 172q0 88 -34.5 167.5t-102.5 129t-163 49.5t-163 -49.5t-102.5 -129t-34.5 -167.5
h-120q0 85 58 173t155 145.5t207 57.5q113 0 209.5 -50t153.5 -136.5t57 -189.5q0 -102 -56.5 -180.5z" />
    <glyph glyph-name="three" unicode="3" horiz-adv-x="1210" 
d="M877.5 837q106.5 -56 169.5 -159.5t63 -240.5q0 -135 -72 -239t-188.5 -160.5t-244.5 -56.5q-125 0 -242 61.5t-190 166.5t-73 227h120q0 -127 44 -222.5t131 -149t210 -53.5q121 0 208 59t132 156t45 211q0 113 -41 210.5t-119.5 156.5t-184.5 59q-131 0 -211 -63h-42
l432 430h-619l54 120h729l-489 -485q67 28 146 28q126 0 232.5 -56z" />
    <glyph glyph-name="four" unicode="4" horiz-adv-x="1227" 
d="M1127 390h-270v-390h-118v390h-639v30l639 930h118v-930h270v-30zM739 420v878l-603 -878h603z" />
    <glyph glyph-name="five" unicode="5" horiz-adv-x="1130" 
d="M796.5 881q106.5 -62 170 -172t63.5 -247t-63 -247t-170 -172t-232 -62q-124 0 -231 61t-170.5 165.5t-63.5 228.5h120q0 -200 82.5 -312.5t262.5 -112.5q119 0 196.5 64t113 166t35.5 221t-35.5 221t-113 166t-196.5 64q-148 0 -244.5 -78t-158.5 -233h-20l97 628h-1
l20 120h722l-80 -120h-632l-91 -537q58 115 159.5 182.5t228.5 67.5q125 0 231.5 -62z" />
    <glyph glyph-name="six" unicode="6" horiz-adv-x="1130" 
d="M799.5 881q104.5 -62 167.5 -172t63 -247q0 -142 -53.5 -250.5t-156 -169.5t-245.5 -61q-140 0 -248 79t-167 206.5t-60 265.5q0 223 95 411t249.5 297.5t321.5 109.5v-30q-116 0 -228.5 -74t-195 -215.5t-110.5 -332.5q48 106 139.5 175.5t203.5 69.5q120 0 224.5 -62z
M769 74.5q75 63.5 108 165.5t33 222q0 116 -37 219.5t-113 167.5t-185 64q-99 0 -180.5 -55.5t-128 -146t-46.5 -189.5q0 -133 38 -249.5t118 -189t199 -72.5t194 63.5z" />
    <glyph glyph-name="seven" unicode="7" horiz-adv-x="963" 
d="M154 1350h709l-618 -1350h-120l652 1230h-677z" />
    <glyph glyph-name="eight" unicode="8" horiz-adv-x="1140" 
d="M864.5 633q74.5 -49 125 -117t50.5 -157q0 -91 -63.5 -179t-171.5 -144t-235 -56t-235 56t-171.5 144t-63.5 179q0 167 109.5 254t235.5 120q-127 73 -196 147t-69 174q0 96 56.5 167.5t146.5 110t187 38.5t187 -38.5t146.5 -110t56.5 -167.5q0 -102 -90.5 -180
t-200.5 -129q121 -63 195.5 -112zM344 968.5q44 -59.5 112 -104t176 -100.5q79 50 143.5 135t64.5 205q0 70 -33 123.5t-94.5 83t-142.5 29.5t-142.5 -29.5t-94.5 -83t-33 -123.5q0 -76 44 -135.5zM753.5 47.5q79.5 37.5 123 103.5t43.5 148q0 83 -50.5 148.5t-123 113
t-197.5 115.5l-63 34q-95 -44 -180.5 -136.5t-85.5 -244.5q0 -96 43 -168t122.5 -111.5t184.5 -39.5q104 0 183.5 37.5z" />
    <glyph glyph-name="nine" unicode="9" horiz-adv-x="1130" 
d="M803 1291q108 -79 167 -206.5t60 -265.5q0 -223 -95 -411t-249.5 -297.5t-321.5 -109.5v30q116 0 228.5 74t195 215.5t110.5 332.5q-48 -106 -139.5 -175.5t-203.5 -69.5q-120 0 -224.5 62t-167.5 172t-63 247q0 142 53.5 250.5t156 169.5t245.5 61q140 0 248 -79z
M735.5 493.5q81.5 55.5 128 146t46.5 189.5q0 133 -38 249.5t-118 189t-199 72.5t-194 -63.5t-108 -165.5t-33 -222q0 -116 37 -219.5t113 -167.5t185 -64q99 0 180.5 55.5z" />
    <glyph glyph-name="colon" unicode=":" horiz-adv-x="370" 
d="M124.5 574.5q-24.5 24.5 -24.5 60.5q0 35 24.5 60t60.5 25q35 0 60 -25t25 -60q0 -36 -25 -60.5t-60 -24.5q-36 0 -60.5 24.5zM124.5 4.5q-24.5 24.5 -24.5 60.5q0 35 24.5 60t60.5 25q35 0 60 -25t25 -60q0 -36 -25 -60.5t-60 -24.5q-36 0 -60.5 24.5z" />
    <glyph glyph-name="semicolon" unicode=";" horiz-adv-x="423" 
d="M124.5 574.5q-24.5 24.5 -24.5 60.5q0 35 24.5 60t60.5 25q35 0 60 -25t25 -60q0 -36 -25 -60.5t-60 -24.5q-36 0 -60.5 24.5zM124.5 4.5q-24.5 24.5 -24.5 60.5q0 35 27 60t63 25q37 0 67.5 -20.5t48 -57t17.5 -83.5q0 -70 -32 -135t-114 -130v27q92 82 92 187
q0 21 -5 38.5t-10.5 29t-6.5 10.5q-9 -18 -26.5 -27t-35.5 -9q-36 0 -60.5 24.5z" />
    <glyph glyph-name="less" unicode="&#x3c;" horiz-adv-x="498" 
d="M142 700l256 -266l-22 -20l-276 286l276 286l22 -20z" />
    <glyph glyph-name="equal" unicode="=" horiz-adv-x="780" 
d="M680 865v-30h-580v30h580zM680 565v-30h-580v30h580z" />
    <glyph glyph-name="greater" unicode="&#x3e;" horiz-adv-x="498" 
d="M398 700l-276 -286l-22 20l256 266l-256 266l22 20z" />
    <glyph glyph-name="question" unicode="?" horiz-adv-x="1004" 
d="M488 330q0 74 21 133t50.5 102t80.5 104q48 58 76.5 99t48 94.5t19.5 119.5q0 122 -39.5 202.5t-103.5 118t-138 37.5t-138.5 -37.5t-104.5 -118t-40 -202.5h-120q0 130 67.5 217.5t161.5 129t174 41.5t173.5 -41.5t160.5 -129t67 -217.5q0 -69 -25.5 -124t-63.5 -96
t-101 -98q-65 -59 -103.5 -101.5t-65.5 -101t-27 -131.5h-30zM442.5 4.5q-24.5 24.5 -24.5 60.5q0 35 24.5 60t60.5 25q35 0 60 -25t25 -60q0 -36 -25 -60.5t-60 -24.5q-36 0 -60.5 24.5z" />
    <glyph glyph-name="at" unicode="@" horiz-adv-x="1959" 
d="M1212 281q-13 -43 -13 -83q0 -79 51.5 -123.5t148.5 -44.5q109 0 207.5 62t160.5 189t62 312q0 222 -115 387t-299.5 252.5t-388.5 87.5q-208 0 -416 -109t-344 -311t-136 -466q0 -273 123.5 -474.5t335 -307.5t469.5 -106q159 0 293 49t220 120l22 -21
q-90 -74 -230 -126t-305 -52q-265 0 -483.5 110t-346.5 318t-128 490q0 275 141.5 484t356.5 320.5t428 111.5q217 0 408.5 -93t308 -265.5t116.5 -398.5q0 -190 -65 -323.5t-180 -201.5t-265 -68q-74 0 -135.5 26t-97.5 72.5t-37 105.5q-56 -89 -127.5 -146t-156.5 -57
q-54 0 -110 29t-94 88t-38 145q0 130 77 264t195.5 221t234.5 87q67 0 112.5 -40t56.5 -106l41 122h124zM973.5 123.5q67.5 62.5 117.5 151.5l107 321q8 38 8 64q0 73 -44.5 109t-111.5 36q-93 0 -180.5 -87t-142 -215t-54.5 -240q0 -99 42 -150.5t124 -51.5
q67 0 134.5 62.5z" />
    <glyph glyph-name="A" unicode="A" horiz-adv-x="1300" 
d="M2340 -239q-14 -13 -35 -37q-55 -61 -112.5 -107t-163 -81.5t-259.5 -35.5q-193 0 -326 61.5t-219 169.5t-155 269l-141 347h-655l-142 -347h-32l550 1350l550 -1350q202 -470 630 -470q122 0 213.5 35.5t145 78.5t103.5 97q6 8 18 20h30zM917 377l-315 775l-316 -775
h631z" />
    <glyph glyph-name="B" unicode="B" horiz-adv-x="1544" 
d="M1200 652q111 -84 187.5 -223t76.5 -304q0 -153 -99.5 -298t-272 -236t-381.5 -91q-149 0 -290.5 65.5t-231 189.5t-89.5 288q0 126 54.5 236.5t149.5 186t211 100.5v784h343q84 0 165.5 -42t133 -114.5t51.5 -158.5q0 -91 -62 -169.5t-154 -117.5q97 -12 208 -96z
M635 1320v-570h206q70 0 126.5 39t88.5 104.5t32 141.5q0 81 -30.5 146t-86.5 102t-130 37h-206zM1021.5 -399.5q145.5 70.5 234 206t88.5 318.5q0 167 -64 303.5t-158 214t-177 77.5h-310v-143q120 -3 212 -63t141 -146t48 -164h-30q0 52 -46.5 120.5t-131.5 119t-193 53.5
v-497h-120v487q-108 -20 -193 -79.5t-133.5 -152.5t-48.5 -212q0 -160 85.5 -276.5t217.5 -176.5t268 -60q165 0 310.5 70.5z" />
    <glyph glyph-name="C" unicode="C" horiz-adv-x="1459" 
d="M193.5 1023q93.5 160 253.5 253.5t348 93.5q171 0 319 -77.5t245 -211.5h-157q-100 101 -229 158t-268 57q-150 0 -271.5 -69t-190.5 -190.5t-69 -271.5q0 -185 99 -349t263 -263t350 -99q136 0 248.5 57t184.5 158h40q-97 -134 -245 -211.5t-319 -77.5q-188 0 -348 93.5
t-253.5 253.5t-93.5 348t93.5 348z" />
    <glyph glyph-name="D" unicode="D" horiz-adv-x="1784" 
d="M1315.5 1222.5q164.5 -127.5 266.5 -329.5t102 -408q0 -328 -130.5 -549.5t-345 -328t-467.5 -107.5q-150 0 -299 66t-245.5 189.5t-96.5 287.5q0 136 56 248t153 183.5t217 93.5v782h450q175 0 339.5 -127.5zM1137.5 -384.5q184.5 85.5 305.5 298t121 571.5
q0 184 -88 380t-229.5 325.5t-290.5 129.5h-310v-744q117 -6 206 -68.5t136.5 -149.5t47.5 -164h-30q0 52 -45.5 124t-127.5 127t-187 61v-506h-120v499q-111 -17 -198.5 -75t-137.5 -155t-50 -226q0 -159 92.5 -275.5t232 -177t276.5 -60.5q212 0 396.5 85.5z" />
    <glyph glyph-name="E" unicode="E" horiz-adv-x="913" 
d="M1813 -239q-14 -13 -35 -37q-55 -61 -112.5 -107t-163 -81.5t-259.5 -35.5q-147 0 -279 44.5t-234 106t-240 158.5q-93 66 -152 104t-120 62.5t-118 24.5v1350h730v-30h-610v-621h450v-30h-450v-642q67 -8 144.5 -41.5t153 -77.5t191.5 -117q138 -87 228.5 -138
t186.5 -87t179 -36q122 0 213.5 35.5t145 78.5t103.5 97q6 8 18 20h30z" />
    <glyph glyph-name="F" unicode="F" horiz-adv-x="1433" 
d="M723 700h450v-30h-450v-670h-120v1320h-20q-117 0 -208 -38t-143 -115.5t-52 -190.5q0 -107 57.5 -190.5t140.5 -129.5l-17 -21q-47 24 -108.5 75.5t-107 122t-45.5 143.5q0 132 74 216t184.5 121t224.5 37h750v-30h-610v-620z" />
    <glyph glyph-name="G" unicode="G" horiz-adv-x="1350" 
d="M1250 700v-550q-93 -81 -210 -125.5t-245 -44.5q-188 0 -348 93.5t-253.5 253.5t-93.5 348t93.5 348t253.5 253.5t348 93.5q108 0 208.5 -32t186.5 -92v-88q-79 86 -180.5 134t-214.5 48q-156 0 -288 -89.5t-209.5 -242.5t-77.5 -333t77.5 -333t209.5 -242.5t288 -89.5
q92 0 177.5 32.5t157.5 92.5v409q-41 -29 -103.5 -59.5t-139.5 -30.5q-95 0 -174.5 60t-134.5 167l28 19q51 -100 124.5 -158t164.5 -58q58 0 119.5 28t102 77.5t40.5 109.5z" />
    <glyph glyph-name="H" unicode="H" horiz-adv-x="1280" 
d="M1180 1350v-1350h-120v659q-30 -49 -84.5 -80t-125.5 -31q-41 0 -81.5 16.5t-75 40.5t-88.5 65q-71 56 -118.5 84t-96.5 28q-47 0 -86 -24.5t-61.5 -60.5t-22.5 -67v-630h-120v1350h120v-623q32 54 89.5 89.5t122.5 35.5q57 0 111 -31t130 -91q72 -56 120 -84t97 -28
q56 0 94.5 22t57 54.5t18.5 65.5v590h120z" />
    <glyph glyph-name="I" unicode="I" 
d="M220 1350v-1350h-120v1350h120z" />
    <glyph glyph-name="J" unicode="J" horiz-adv-x="1161" 
d="M1061 1350v-1220q0 -317 -127 -473.5t-396 -156.5q-103 0 -205 47t-167.5 134.5t-65.5 201.5t66 204t167.5 139.5t204.5 49.5q71 0 122 -23t102 -64l-38 -14q-41 36 -82 53t-104 18q-91 0 -163 -43.5t-113.5 -125.5t-41.5 -194t41.5 -191.5t113.5 -120.5t163 -41
q180 0 268.5 91t111.5 219.5t23 313.5v66v1130h120z" />
    <glyph glyph-name="K" unicode="K" horiz-adv-x="1193" 
d="M2233 -239q-14 -13 -35 -37q-55 -61 -112.5 -107t-163 -81.5t-259.5 -35.5q-215 0 -369.5 94t-254.5 228.5t-225 353.5q-84 146 -141 233.5t-130.5 162t-160.5 111.5l-162 -198v-485h-120v1350h120v-818l672 818h39l-532 -647q121 -28 218.5 -108.5t171 -182.5
t176.5 -270q124 -202 217.5 -323.5t228 -205t312.5 -83.5q122 0 213.5 35.5t145 78.5t103.5 97q6 8 18 20h30z" />
    <glyph glyph-name="L" unicode="L" horiz-adv-x="493" 
d="M1813 -239q-14 -13 -35 -37q-55 -61 -112.5 -107t-163 -81.5t-259.5 -35.5q-147 0 -279 44.5t-234 106t-240 158.5q-93 66 -152 104t-120 62.5t-118 24.5v1350h120v-1323q67 -8 144.5 -41.5t153 -77.5t191.5 -117q138 -87 228.5 -138t186.5 -87t179 -36q122 0 213.5 35.5
t145 78.5t103.5 97q6 8 18 20h30z" />
    <glyph glyph-name="M" unicode="M" horiz-adv-x="1538" 
d="M1972 -239q-14 -13 -35 -37q-55 -61 -112.5 -107t-163 -81.5t-259.5 -35.5q-188 0 -314 64.5t-201.5 160.5t-166.5 255l-590 1078v-1058h-30v1350l668 -1212l670 1212v-1350h-120v1055l-530 -952q17 -27 30 -49.5t23 -39.5q96 -163 169 -258.5t184 -160.5t268 -65
q122 0 213.5 35.5t145 78.5t103.5 97q6 8 18 20h30z" />
    <glyph glyph-name="N" unicode="N" horiz-adv-x="1330" 
d="M2485 -239q-14 -13 -35 -37q-55 -61 -112.5 -107t-163 -81.5t-259.5 -35.5q-178 0 -342.5 87.5t-276.5 191t-216 221.5l-950 1127v-1127h-30v1350l950 -1128v1128h30v-1164q140 -174 296.5 -322t313 -241t285.5 -93q122 0 213.5 35.5t145 78.5t103.5 97q6 8 18 20h30z
" />
    <glyph glyph-name="O" unicode="O" horiz-adv-x="1590" 
d="M193.5 1023q93.5 160 253.5 253.5t348 93.5t348 -93.5t253.5 -253.5t93.5 -348t-93.5 -348t-253.5 -253.5t-348 -93.5t-348 93.5t-253.5 253.5t-93.5 348t93.5 348zM1157 123q121 69 190 190t69 272q0 184 -99 348.5t-263 263.5t-349 99q-150 0 -271.5 -69t-190.5 -190.5
t-69 -271.5q0 -185 99 -349t263 -263t350 -99q150 0 271 69z" />
    <glyph glyph-name="P" unicode="P" horiz-adv-x="1492" 
d="M1185 1299.5q92 -50.5 149.5 -136.5t57.5 -187q0 -100 -57.5 -186.5t-150 -138t-191.5 -51.5h-270v-600h-120v1320h-20q-117 0 -208 -38t-143 -115.5t-52 -190.5q0 -107 57.5 -190.5t140.5 -129.5l-17 -21q-47 24 -108.5 75.5t-107 122t-45.5 143.5q0 132 74 216
t184.5 121t224.5 37h410q100 0 192 -50.5zM1124.5 678q68.5 48 108 128t39.5 170q0 97 -37.5 175.5t-105.5 123.5t-156 45h-250v-690h250q83 0 151.5 48z" />
    <glyph glyph-name="Q" unicode="Q" horiz-adv-x="1590" 
d="M1448 437.5q-42 -113.5 -118.5 -205.5t-177.5 -153l316 -384h-40l-303 369q-152 -84 -330 -84q-188 0 -348 93.5t-253.5 253.5t-93.5 348t93.5 348t253.5 253.5t348 93.5t348 -93.5t253.5 -253.5t93.5 -348q0 -124 -42 -237.5zM1099 95l-141 172h40l131 -159
q132 64 209.5 190t77.5 287q0 184 -99 348.5t-263 263.5t-349 99q-150 0 -271.5 -69t-190.5 -190.5t-69 -271.5q0 -185 99 -349t263 -263t350 -99q116 0 213 41z" />
    <glyph glyph-name="R" unicode="R" horiz-adv-x="1233" 
d="M2233 -239q-14 -13 -35 -37q-55 -61 -112.5 -107t-163 -81.5t-259.5 -35.5q-206 0 -337.5 74t-206 182.5t-165.5 295.5q-69 143 -124 235.5t-139 176.5t-201 136h-270v-600h-120v1350h470q100 0 192.5 -50t149.5 -136t57 -188q0 -100 -57.5 -186.5t-150 -138
t-191.5 -51.5h-38q131 -28 226 -105t158 -173t145 -253q94 -180 169 -286.5t196 -179.5t297 -73q122 0 213.5 35.5t145 78.5t103.5 97q6 8 18 20h30zM550 630q83 0 151.5 48t108 128t39.5 170q0 97 -37.5 175.5t-105.5 123.5t-156 45h-330v-690h330z" />
    <glyph glyph-name="S" unicode="S" horiz-adv-x="1312" 
d="M425.5 951.5q46.5 -69.5 116 -124t190.5 -134.5q154 -101 249.5 -180t163 -195t67.5 -268q0 -173 -85 -297.5t-220 -188.5t-281 -64q-135 0 -256 54t-195.5 155.5t-74.5 236.5q0 117 56 218t150 161t202 60q109 0 195.5 -56t134 -139.5t46.5 -161.5h-30q0 47 -45 113.5
t-124 115t-177 48.5q-101 0 -186.5 -43t-136 -124t-50.5 -192q0 -131 71 -225.5t183.5 -142.5t236.5 -48q126 0 242.5 55t190 164t73.5 261q0 123 -62.5 224.5t-152 177t-238.5 180.5q-129 91 -204 152.5t-125.5 137t-50.5 162.5q0 98 48.5 172t133 114t189.5 40
q78 0 153.5 -28.5t136.5 -83.5v-70q-63 76 -131 112t-159 40q-91 0 -156.5 -29.5t-100 -83t-34.5 -123.5q0 -83 46.5 -152.5z" />
    <glyph glyph-name="T" unicode="T" horiz-adv-x="1180" 
d="M1080 1320h-430v-1320h-120v1320h-430v30h980v-30z" />
    <glyph glyph-name="U" unicode="U" horiz-adv-x="1261" 
d="M1161 1350v-795q0 -212 -74.5 -340.5t-185 -181.5t-230.5 -53q-121 0 -239.5 53t-199.5 180.5t-81 336.5v585q0 157 -90.5 284.5t-228.5 200t-272 72.5q-122 0 -213.5 -36t-145 -79.5t-105.5 -99.5l-19 -21h-30q4 3 36 38q55 62 113 108.5t164 83t260 36.5
q176 0 324 -68.5t237.5 -207.5t89.5 -341v-555q0 -190 56 -311t146.5 -175t197.5 -54q114 0 218 50t173 171.5t69 323.5v795h30z" />
    <glyph glyph-name="V" unicode="V" horiz-adv-x="1350" 
d="M1250 1350l-550 -1350l-468 1150q-110 260 -252.5 398.5t-331.5 138.5q-122 0 -213.5 -35.5t-145 -78.5t-103.5 -97q-6 -8 -18 -20h-30q14 13 35 37q55 61 112.5 107t163 81.5t259.5 35.5q169 0 286.5 -59.5t203 -181.5t164.5 -326l386 -952l470 1152h32z" />
    <glyph glyph-name="W" unicode="W" horiz-adv-x="1609" 
d="M1059 0l-275 825l-275 -825l-450 1350h127l371 -1113l211 636l-94 282q-55 166 -142 286.5t-199.5 185.5t-242.5 65q-121 0 -212 -35.5t-145 -80t-103 -98.5l-20 -22h-30q16 15 36 39q55 62 112.5 108.5t162.5 82.5t259 36q170 0 292.5 -60t209.5 -184.5t149 -322.5
l31 -92l95 287h32l-112 -335l260 -778l370 1113h32z" />
    <glyph glyph-name="X" unicode="X" horiz-adv-x="1161" 
d="M2260 -239q-14 -13 -35 -37q-55 -61 -112.5 -107t-163 -81.5t-259.5 -35.5q-193 0 -334.5 61.5t-244.5 169t-201 269.5l-376 627l-395 -627h-35l413 655l-417 695h140l348 -581l366 581h35l-384 -609l445 -741q135 -206 309 -338t391 -132q122 0 213.5 35.5t145 78.5
t103.5 97q6 8 18 20h30z" />
    <glyph glyph-name="Y" unicode="Y" horiz-adv-x="1237" 
d="M1137 1350l-467 -760v-590h-120v600l-329 550l-32 49q-126 189 -199.5 282.5t-164 149.5t-209.5 56q-122 0 -213.5 -35.5t-145 -78.5t-103.5 -97q-6 -8 -18 -20h-30q14 13 35 37q55 61 112.5 107t163 81.5t259.5 35.5q166 0 274 -58t190.5 -167.5t220.5 -341.5l305 -510
l436 710h35z" />
    <glyph glyph-name="Z" unicode="Z" horiz-adv-x="1191" 
d="M1031.5 1112q-59.5 -118 -146 -220.5t-230.5 -252.5q-129 -135 -206 -224t-132.5 -188.5t-63.5 -196.5h838v-30h-991q0 120 60 238t146.5 221t230.5 252q129 135 206 224t132.5 188.5t63.5 196.5h-809v30h961q0 -120 -59.5 -238z" />
    <glyph glyph-name="bracketleft" unicode="[" horiz-adv-x="560" 
d="M220 1470v-1595h240v-30h-360v1655h360v-30h-240z" />
    <glyph glyph-name="backslash" unicode="\" horiz-adv-x="832" 
d="M732 -155h-32l-600 1655h32z" />
    <glyph glyph-name="bracketright" unicode="]" horiz-adv-x="560" 
d="M460 -155h-360v30h240v1595h-240v30h360v-1655z" />
    <glyph glyph-name="asciicircum" unicode="^" horiz-adv-x="492" 
d="M452 1084l-26 -16l-180 233l-180 -233l-26 16l206 266z" />
    <glyph glyph-name="underscore" unicode="_" horiz-adv-x="1080" 
d="M980 30v-30h-880v30h880z" />
    <glyph glyph-name="grave" unicode="`" horiz-adv-x="325" 
d="M233 1528.5q-49 19.5 -62 24.5q-89 33 -111 45q-10 5 -15 14.5t-5 21.5q0 19 12 30.5t29 11.5q10 0 21 -6q14 -8 51.5 -38t46.5 -38q88 -72 105 -82l-7 -12q-16 9 -65 28.5z" />
    <glyph glyph-name="a" unicode="a" horiz-adv-x="1300" 
d="M929 347h-655l-142 -347h-32l550 1350l550 -1350h-130zM917 377l-315 775l-316 -775h631z" />
    <glyph glyph-name="b" unicode="b" horiz-adv-x="1049" 
d="M758.5 690.5q85.5 -51.5 138 -134.5t52.5 -180q0 -100 -57.5 -186.5t-150 -138t-191.5 -51.5h-450v1350h343q84 0 165.5 -42t133 -114.5t51.5 -158.5q0 -91 -61.5 -169t-153.5 -117q95 -7 180.5 -58.5zM220 1320v-570h206q70 0 126.5 39t88.5 104.5t32 141.5
q0 81 -30.5 146t-86.5 102t-130 37h-206zM681.5 78q68.5 48 108 128t39.5 170q0 97 -37.5 175.5t-105.5 123.5t-156 45h-310v-690h310q83 0 151.5 48z" />
    <glyph glyph-name="c" unicode="c" horiz-adv-x="1350" 
d="M193.5 1023q93.5 160 253.5 253.5t348 93.5q128 0 245 -44.5t210 -125.5v-119q-80 120 -199.5 189.5t-255.5 69.5q-156 0 -288 -89.5t-209.5 -242.5t-77.5 -333t77.5 -333t210 -242.5t288.5 -89.5q136 0 255 69.5t199 189.5v-119q-93 -81 -209.5 -125.5t-244.5 -44.5
q-188 0 -348 93.5t-254 253.5t-94 348t93.5 348z" />
    <glyph glyph-name="d" unicode="d" horiz-adv-x="1258" 
d="M864 1257.5q139 -92.5 216.5 -247.5t77.5 -335t-77.5 -335t-216.5 -247.5t-314 -92.5h-450v1350h450q175 0 314 -92.5zM794 124q116 94 180 243.5t64 307.5t-64 307.5t-180 243.5t-264 94h-310v-1290h310q148 0 264 94z" />
    <glyph glyph-name="e" unicode="e" horiz-adv-x="930" 
d="M220 1320v-621h450v-30h-450v-639h610v-30h-730v1350h730v-30h-610z" />
    <glyph glyph-name="f" unicode="f" horiz-adv-x="930" 
d="M220 1320v-620h450v-30h-450v-670h-120v1350h730v-30h-610z" />
    <glyph glyph-name="g" unicode="g" horiz-adv-x="1350" 
d="M1250 605v-455q-93 -81 -210 -125.5t-245 -44.5q-188 0 -348 93.5t-253.5 253.5t-93.5 348t93.5 348t253.5 253.5t348 93.5q108 0 208.5 -32t186.5 -92v-88q-79 86 -180.5 134t-214.5 48q-156 0 -288 -89.5t-209.5 -242.5t-77.5 -333t77.5 -333t209.5 -242.5t288 -89.5
q92 0 177.5 32.5t157.5 92.5v470h120z" />
    <glyph glyph-name="h" unicode="h" horiz-adv-x="1280" 
d="M1180 1350v-1350h-120v670h-840v-670h-120v1350h120v-650h840v650h120z" />
    <glyph glyph-name="i" unicode="i" 
d="M220 1350v-1350h-120v1350h120z" />
    <glyph glyph-name="j" unicode="j" 
d="M220 1350v-1270q0 -176 -55.5 -297.5t-122 -184t-149.5 -118.5v30q106 75 156.5 222t50.5 348v1270h120z" />
    <glyph glyph-name="k" unicode="k" horiz-adv-x="1225" 
d="M980 0l-528 767l-232 -282v-485h-120v1350h120v-818l672 818h39l-400 -486l594 -864h-145z" />
    <glyph glyph-name="l" unicode="l" horiz-adv-x="850" 
d="M750 30v-30h-650v1350h120v-1320h530z" />
    <glyph glyph-name="m" unicode="m" horiz-adv-x="1538" 
d="M1438 1350v-1350h-120v1055l-598 -1075l-590 1078v-1058h-30v1350l678 -1193z" />
    <glyph glyph-name="n" unicode="n" horiz-adv-x="1180" 
d="M1080 1350v-1350l-950 1127v-1127h-30v1350l2 -3l948 -1125v1128h30z" />
    <glyph glyph-name="o" unicode="o" horiz-adv-x="1590" 
d="M193.5 1023q93.5 160 253.5 253.5t348 93.5t348 -93.5t253.5 -253.5t93.5 -348t-93.5 -348t-253.5 -253.5t-348 -93.5t-348 93.5t-253.5 253.5t-93.5 348t93.5 348zM297.5 342q77.5 -153 209.5 -242.5t288 -89.5t288 89.5t209.5 242.5t77.5 333t-77.5 333t-209.5 242.5
t-288 89.5t-288 -89.5t-209.5 -242.5t-77.5 -333t77.5 -333z" />
    <glyph glyph-name="p" unicode="p" horiz-adv-x="1049" 
d="M742 1299.5q92 -50.5 149.5 -136.5t57.5 -187q0 -100 -57.5 -186.5t-150 -138t-191.5 -51.5h-330v-600h-120v1350h450q100 0 192 -50.5zM681.5 678q68.5 48 108 128t39.5 170q0 97 -37.5 175.5t-105.5 123.5t-156 45h-310v-690h310q83 0 151.5 48z" />
    <glyph glyph-name="q" unicode="q" horiz-adv-x="1590" 
d="M1423 377.5q-67 -139.5 -185 -237.5t-266 -137l254 -308h-40l-248 300q-69 -15 -143 -15q-188 0 -348 93.5t-253.5 253.5t-93.5 348t93.5 348t253.5 253.5t348 93.5t348 -93.5t253.5 -253.5t93.5 -348q0 -158 -67 -297.5zM1163.5 166q96.5 94 151.5 226.5t55 282.5
q0 180 -77.5 333t-209.5 242.5t-288 89.5t-288 -89.5t-209.5 -242.5t-77.5 -333t77.5 -333t209.5 -242.5t288 -89.5q60 0 119 14l-118 143h40l110 -134q121 39 217.5 133z" />
    <glyph glyph-name="r" unicode="r" horiz-adv-x="1119" 
d="M1019 0h-42l-587 600h-170v-600h-120v1350h470q100 0 192.5 -50t149.5 -136t57 -188q0 -100 -57.5 -186.5t-150 -138t-191.5 -51.5h-138zM550 630q83 0 151.5 48t108 128t39.5 170q0 97 -37.5 175.5t-105.5 123.5t-156 45h-330v-690h330z" />
    <glyph glyph-name="s" unicode="s" horiz-adv-x="996" 
d="M646.5 1300q-68.5 36 -159.5 40q-91 0 -156.5 -29.5t-99.5 -83t-34 -123.5q0 -79 35.5 -125.5t92.5 -80.5l304 -182l32 -21q76 -50 122.5 -91t79.5 -106.5t33 -158.5q0 -91 -52.5 -174t-146 -134t-210.5 -51q-119 0 -207 38.5t-180 121.5v70q90 -101 180 -150.5
t207 -49.5q96 0 171.5 40.5t116.5 103.5t41 125q0 72 -25 124.5t-58 84.5t-80 66q-6 4 -12 8.5t-12 9.5l-339 206q-79 53 -126 118t-47 148q0 98 48 172t132.5 114t189.5 40q78 0 154 -28.5t137 -83.5v-70q-63 76 -131.5 112z" />
    <glyph glyph-name="t" unicode="t" horiz-adv-x="1180" 
d="M1080 1320h-430v-1320h-120v1320h-430v30h980v-30z" />
    <glyph glyph-name="u" unicode="u" horiz-adv-x="1150" 
d="M1050 1350v-795q0 -215 -60.5 -343t-156.5 -180t-213 -52q-121 0 -239.5 53t-199.5 180.5t-81 336.5v800h120v-800q0 -190 56 -311t146.5 -175t197.5 -54q174 0 287 124t113 421v795h30z" />
    <glyph glyph-name="v" unicode="v" horiz-adv-x="1300" 
d="M1200 1350l-550 -1350l-550 1350h130l468 -1152l470 1152h32z" />
    <glyph glyph-name="w" unicode="w" horiz-adv-x="1650" 
d="M1100 0l-275 825l-275 -825l-450 1350h127l371 -1113l211 636l-159 477h127l96 -287l95 287h32l-112 -335l260 -778l370 1113h32z" />
    <glyph glyph-name="x" unicode="x" horiz-adv-x="1150" 
d="M910 0l-376 627l-395 -627h-35l413 655l-417 695h140l348 -581l366 581h35l-384 -609l445 -741h-140z" />
    <glyph glyph-name="y" unicode="y" horiz-adv-x="1237" 
d="M240 1350l426 -710l436 710h35l-467 -760v-590h-120v600l-450 750h140z" />
    <glyph glyph-name="z" unicode="z" horiz-adv-x="1191" 
d="M1091 30v-30h-991l792 1320h-762v30h931l-791 -1320h821z" />
    <glyph glyph-name="braceleft" unicode="{" horiz-adv-x="717" 
d="M376.5 761.5q-35.5 -64.5 -95.5 -88.5q60 -25 95.5 -89.5t35.5 -163.5v-319q0 -80 40.5 -130.5t89.5 -73t75 -22.5v-30q-92 0 -169 42.5t-121.5 114.5t-44.5 157v316q0 99 -43 141t-139 42v29q96 0 139 42t43 141v316q0 85 44.5 157t121.5 114.5t169 42.5v-30
q-26 0 -75 -22.5t-89.5 -73t-40.5 -130.5v-319q0 -99 -35.5 -163.5z" />
    <glyph glyph-name="bar" unicode="|" horiz-adv-x="230" 
d="M130 1350v-1350h-30v1350h30z" />
    <glyph glyph-name="braceright" unicode="}" horiz-adv-x="717" 
d="M478 729q43 -42 139 -42v-29q-96 0 -139 -42t-43 -141v-316q0 -85 -44.5 -157t-121.5 -114.5t-169 -42.5v30q26 0 75 22.5t89.5 73t40.5 130.5v319q0 99 35.5 163.5t95.5 89.5q-60 24 -95.5 88.5t-35.5 163.5v319q0 80 -40.5 130.5t-89.5 73t-75 22.5v30q92 0 169 -42.5
t121.5 -114.5t44.5 -157v-316q0 -99 43 -141z" />
    <glyph glyph-name="asciitilde" unicode="~" horiz-adv-x="1100" 
d="M134 732q34 52 90 86t118 34q58 0 113 -31.5t131 -91.5q72 -56 119 -83.5t95 -27.5q47 0 86 24.5t61.5 60.5t22.5 67h30q0 -50 -33.5 -102t-89 -86t-117.5 -34q-41 0 -81.5 16.5t-75 40.5t-88.5 65q-71 56 -118.5 84t-96.5 28q-47 0 -86 -24.5t-61.5 -60.5t-22.5 -67h-30
q0 50 34 102z" />
    <glyph glyph-name="exclamdown" unicode="&#xa1;" horiz-adv-x="370" 
d="M245 1345.5q25 -24.5 25 -60.5q0 -35 -25 -60t-60 -25q-36 0 -60.5 25t-24.5 60q0 36 24.5 60.5t60.5 24.5q35 0 60 -24.5zM210.5 714q10.5 -221 21.5 -420q13 -245 13 -254q0 -25 -17.5 -42.5t-42.5 -17.5t-42.5 17.5t-17.5 42.5q0 9 13 254q11 199 21.5 420t10.5 306
h30q0 -85 10.5 -306z" />
    <glyph glyph-name="cent" unicode="&#xa2;" horiz-adv-x="806" 
d="M632 645.5q-43 32.5 -94 46.5l-232 -639q73 -53 161 -53q73 0 135.5 36.5t103.5 100.5v-63q-48 -43 -109.5 -66.5t-129.5 -23.5q-92 0 -171 42l-65 -181h-31l71 196q-79 50 -125 131.5t-46 178.5q0 100 49.5 184t133.5 133t184 49q24 0 48 -3l76 211h31l-78 -216
q92 -20 162 -82v-61q-31 47 -74 79.5zM509 698q-21 3 -42 3q-83 0 -152.5 -47t-110.5 -127.5t-41 -175.5q0 -84 32 -157t87 -122z" />
    <glyph glyph-name="sterling" unicode="&#xa3;" horiz-adv-x="1263" 
d="M1163 324q0 -160 -60.5 -252t-176.5 -92q-48 0 -93 22t-83.5 54.5t-96.5 88.5l-60 56q-16 -55 -52 -105.5t-91.5 -83t-124.5 -32.5q-58 0 -109.5 21t-83.5 64t-32 105t32 105t83.5 64t109.5 21q97 0 205 -53q-9 52 -31.5 97t-63.5 109q-35 54 -58 96t-41 91h-169v30h159
q-30 97 -30 206q0 116 51 216t138.5 159t190.5 59q101 0 186 -54t134.5 -141t49.5 -179h-120q0 117 -39.5 194.5t-97 113.5t-113.5 36q-57 0 -117 -38.5t-101.5 -124.5t-41.5 -221q0 -124 26 -226h255v-30h-247q14 -50 31.5 -90t47.5 -102q38 -76 56 -128t18 -113v-1l74 -48
q90 -60 149 -89t120 -29q79 0 133 53.5t54 170.5h30zM443.5 44.5q46.5 34.5 68 89t22.5 116.5q-51 38 -102 59t-107 21q-48 0 -93 -17t-73.5 -53t-28.5 -90t28.5 -90t73.5 -53t93 -17q72 0 118.5 34.5z" />
    <glyph glyph-name="currency" unicode="&#xa4;" horiz-adv-x="976" 
d="M770.5 249.5q-21.5 -53.5 -59.5 -95.5l154 -154l-21 -21l-154 154q-41 -38 -94.5 -59.5t-112.5 -21.5t-112.5 21.5t-95.5 59.5l-154 -154l-21 21l154 154q-38 42 -59.5 95.5t-21.5 112.5t21 112.5t59 95.5l-153 153l22 22l153 -154q42 38 95 59t112 21t112.5 -21.5
t95.5 -59.5l165 165l21 -21l-165 -165q38 -41 59.5 -94.5t21.5 -112.5t-21.5 -112.5zM622 120q64 38 102 102t38 140q0 75 -38 139.5t-102.5 102t-139.5 37.5q-76 0 -140 -38t-101.5 -102t-37.5 -139q0 -76 37.5 -140t102 -102t140.5 -38q75 0 139 38z" />
    <glyph glyph-name="yen" unicode="&#xa5;" horiz-adv-x="1247" 
d="M693 609h217v-30h-230v-160h230v-30h-230v-389h-120v389h-230v30h230v160h-230v30h224l-454 741h141l436 -710l435 710h35z" />
    <glyph glyph-name="brokenbar" unicode="&#xa6;" horiz-adv-x="230" 
d="M130 1350v-580h-30v580h30zM130 580v-580h-30v580h30z" />
    <glyph glyph-name="section" unicode="&#xa7;" horiz-adv-x="787" 
d="M687 240q0 -66 -40.5 -126t-110.5 -97t-156 -37t-149.5 28t-130.5 88v51q65 -74 130 -109.5t150 -35.5q70 0 121.5 29.5t78.5 74.5t27 91q0 50 -15 84t-35 53t-51 39l-23 16l-245 150q-57 37 -96.5 94.5t-39.5 118.5q0 60 29 109t79 81q-47 37 -77.5 88t-30.5 104
q0 71 37.5 124.5t101 82.5t139.5 29q57 0 111.5 -21t99.5 -60v-51q-46 55 -95.5 81.5t-115.5 28.5q-96 0 -147 -43t-51 -108q0 -58 23 -93t58 -56l220 -132q64 -43 103.5 -77t70 -88.5t30.5 -128.5q0 -48 -23.5 -94t-64.5 -83q88 -88 88 -205zM483 534q59 -40 89 -65
q35 48 35 110q0 50 -15 84t-35 53t-51 39l-23 16l-245 150l-4 3q-26 -21 -39 -49.5t-13 -59.5q0 -58 23 -93t58 -56z" />
    <glyph glyph-name="dieresis" unicode="&#xa8;" horiz-adv-x="600" 
d="M84.5 1524.5q-24.5 24.5 -24.5 60.5q0 35 24.5 60t60.5 25q35 0 60 -25t25 -60q0 -36 -25 -60.5t-60 -24.5q-36 0 -60.5 24.5zM394.5 1524.5q-24.5 24.5 -24.5 60.5q0 35 24.5 60t60.5 25q35 0 60 -25t25 -60q0 -36 -25 -60.5t-60 -24.5q-36 0 -60.5 24.5z" />
    <glyph glyph-name="copyright" unicode="&#xa9;" horiz-adv-x="840" 
d="M208.5 1023.5q93.5 159.5 253 253t348.5 93.5t348.5 -93.5t253 -253t93.5 -348.5t-93.5 -348.5t-253 -253t-348.5 -93.5t-348.5 93.5t-253 253t-93.5 348.5t93.5 348.5zM234.5 341.5q89.5 -152.5 242 -242t333.5 -89.5t333.5 89.5t242 242t89.5 333.5t-89.5 333.5
t-242 242t-333.5 89.5t-333.5 -89.5t-242 -242t-89.5 -333.5t89.5 -333.5zM402.5 910.5q63.5 108.5 172 172t235.5 63.5q87 0 166 -30t143 -85v-81q-55 82 -135.5 129t-173.5 47q-105 0 -194.5 -61t-142 -164.5t-52.5 -225.5t52.5 -225.5t142 -164.5t194.5 -61
q93 0 173.5 47t135.5 129v-81q-64 -55 -143 -85t-166 -30q-127 0 -235.5 63.5t-172 172t-63.5 235.5t63.5 235.5z" />
    <glyph glyph-name="guillemotleft" unicode="&#xab;" horiz-adv-x="819" 
d="M417 966l-256 -266l256 -266l-22 -20l-276 286l276 286zM463 700l256 -266l-22 -20l-276 286l276 286l22 -20z" />
    <glyph glyph-name="logicalnot" unicode="&#xac;" horiz-adv-x="780" 
d="M680 510h-30v160h-550v30h580v-190z" />
    <glyph glyph-name="registered" unicode="&#xae;" horiz-adv-x="696" 
d="M472 1336.5q57 -33.5 90.5 -90.5t33.5 -124t-33.5 -124t-90.5 -90.5t-124 -33.5t-124 33.5t-90.5 90.5t-33.5 124t33.5 124t90.5 90.5t124 33.5t124 -33.5zM466 918.5q54 31.5 85.5 85.5t31.5 118t-31.5 118t-85.5 85.5t-118 31.5t-118 -31.5t-85.5 -85.5t-31.5 -118
t31.5 -118t85.5 -85.5t118 -31.5t118 31.5zM339 1107l90 -92h-12l-91 92h-20v-92h-19v208h72q24 0 42.5 -17t18.5 -40q0 -24 -18.5 -41.5t-42.5 -17.5h-20zM357 1116q20 0 32.5 14t12.5 36t-12 35t-33 13h-51v-98h51z" />
    <glyph glyph-name="macron" unicode="&#xaf;" horiz-adv-x="500" 
d="M460 1530v-30h-420v30h420z" />
    <glyph glyph-name="degree" unicode="&#xb0;" horiz-adv-x="500" 
d="M120 1295.5q20 34.5 54.5 54.5t75.5 20t75.5 -20t54.5 -54.5t20 -75.5t-20 -75.5t-54.5 -54.5t-75.5 -20t-75.5 20t-54.5 54.5t-20 75.5t20 75.5zM165 1135q35 -35 85 -35t85 35t35 85t-35 85t-85 35t-85 -35t-35 -85t35 -85z" />
    <glyph glyph-name="plusminus" unicode="&#xb1;" horiz-adv-x="780" 
d="M680 700v-30h-275v-275h-30v275h-275v30h275v275h30v-275h275zM100 273h580v-30h-580v30z" />
    <glyph glyph-name="uni00B2" unicode="&#xb2;" horiz-adv-x="496" 
d="M376 1166q-20 -28 -48.5 -47.5t-76.5 -46.5q-47 -26 -74.5 -45t-46.5 -45t-19 -59h284v-42h-295v42q0 34 17.5 60.5t42.5 46t67 46.5q43 27 68 46.5t42 46t17 60.5q0 48 -28 84.5t-77 36.5t-77 -36.5t-28 -84.5h-42q0 30 20.5 60.5t54.5 51t72 20.5q40 0 73.5 -17.5
t53.5 -48t20 -66.5q0 -35 -20 -63z" />
    <glyph glyph-name="uni00B3" unicode="&#xb3;" horiz-adv-x="553" 
d="M372.5 1171.5q37.5 -19.5 59.5 -56t22 -84.5t-25.5 -84t-66 -56t-85.5 -20q-44 0 -85 21.5t-66.5 58.5t-25.5 80h42q0 -68 35 -108.5t100 -40.5q63 0 99 43.5t36 105.5t-33 105.5t-88 43.5q-46 0 -74 -22h-15l151 151h-216l19 42h255l-171 -170q25 10 51 10
q44 0 81.5 -19.5z" />
    <glyph glyph-name="acute" unicode="&#xb4;" horiz-adv-x="325" 
d="M20 1512q17 10 105 82q9 8 46.5 38t51.5 38q10 6 21 6t21 -5.5t15 -15.5q5 -9 5 -21t-5 -21.5t-15 -14.5q-22 -12 -111 -45q-13 -5 -62 -24.5t-65 -28.5z" />
    <glyph glyph-name="paragraph" unicode="&#xb6;" horiz-adv-x="1084" 
d="M984 0h-120v1320h-150v-1320h-120v700h-140q-99 0 -180 41.5t-127.5 115.5t-46.5 168q0 93 46.5 167.5t127.5 116t180 41.5h530v-1350zM594 1320h-120q-69 0 -127 -40t-92.5 -108t-34.5 -147t34.5 -147t92.5 -108t127 -40h120v590z" />
    <glyph glyph-name="periodcentered" unicode="&#xb7;" horiz-adv-x="370" 
d="M124.5 284.5q-24.5 24.5 -24.5 60.5q0 35 24.5 60t60.5 25q35 0 60 -25t25 -60q0 -36 -25 -60.5t-60 -24.5q-36 0 -60.5 24.5z" />
    <glyph glyph-name="cedilla" unicode="&#xb8;" horiz-adv-x="413" 
d="M193 0l-26 -87q52 0 99.5 -18t77 -52.5t29.5 -82.5q0 -78 -92 -121.5t-241 -60.5l10 30q109 13 166 55t57 97q0 54 -36.5 88.5t-100.5 34.5l37 117h20z" />
    <glyph glyph-name="guillemotright" unicode="&#xbb;" horiz-adv-x="819" 
d="M141 986l276 -286l-276 -286l-22 20l256 266l-256 266zM719 700l-276 -286l-22 20l256 266l-256 266l22 20z" />
    <glyph glyph-name="onequarter" unicode="&#xbc;" horiz-adv-x="900" 
d="M313 1284l99 66v-500h-44v457l-55 -37v14zM680 690v-30h-580v30h580zM200 156l237 344h44v-344h100v-12h-100v-144h-44v144h-237v12zM437 156v325l-223 -325h223z" />
    <glyph glyph-name="onehalf" unicode="&#xbd;" horiz-adv-x="780" 
d="M313 1284l99 66v-500h-44v457l-55 -37v14zM680 690v-30h-580v30h580zM236 44q0 35 18 62.5t44 48t71 49.5q44 28 70 48.5t44 48t18 62.5q0 51 -29 88.5t-81 37.5t-80.5 -37.5t-28.5 -88.5h-44q0 31 21 63t56.5 53t75.5 21q41 0 76.5 -18.5t56 -50t20.5 -68.5t-20.5 -65.5
t-50.5 -49.5t-80 -49q-48 -26 -77 -46t-49 -47t-20 -62h296v-44h-307v44z" />
    <glyph glyph-name="threequarters" unicode="&#xbe;" horiz-adv-x="780" 
d="M249 1016q0 -71 37 -113.5t104 -42.5q66 0 103.5 45.5t37.5 110.5q0 64 -34 110t-92 46q-48 0 -77 -23h-16l158 157h-226l20 44h266l-179 -178q25 11 54 11q46 0 84.5 -20.5t61.5 -58.5t23 -88q0 -49 -26 -87t-68.5 -58.5t-89.5 -20.5q-46 0 -88.5 22.5t-69 60.5
t-26.5 83h43zM680 690v-30h-580v30h580zM200 156l237 344h44v-344h100v-12h-100v-144h-44v144h-237v12zM437 156v325l-223 -325h223z" />
    <glyph glyph-name="questiondown" unicode="&#xbf;" horiz-adv-x="1004" 
d="M561.5 1345.5q24.5 -24.5 24.5 -60.5q0 -35 -24.5 -60t-60.5 -25q-35 0 -60 25t-25 60q0 36 25 60.5t60 24.5q36 0 60.5 -24.5zM516 1020q0 -74 -21 -133t-50.5 -102t-80.5 -104q-48 -58 -76.5 -99t-48 -94.5t-19.5 -119.5q0 -122 39.5 -202.5t103.5 -118t138 -37.5
t138.5 37.5t104.5 118t40 202.5h120q0 -130 -67.5 -217.5t-161.5 -129t-174 -41.5t-173.5 41.5t-160.5 129t-67 217.5q0 69 25.5 124t63.5 96t101 98q65 59 103.5 101.5t65.5 101t27 131.5h30z" />
    <glyph glyph-name="Agrave" unicode="&#xc0;" horiz-adv-x="1300" 
d="M2340 -239q-14 -13 -35 -37q-55 -61 -112.5 -107t-163 -81.5t-259.5 -35.5q-193 0 -326 61.5t-219 169.5t-155 269l-141 347h-655l-142 -347h-32l550 1350l550 -1350q202 -470 630 -470q122 0 213.5 35.5t145 78.5t103.5 97q6 8 18 20h30zM917 377l-315 775l-316 -775
h631zM585 1528.5q-49 19.5 -62 24.5q-89 33 -111 45q-10 5 -15 14.5t-5 21.5q0 19 12 30.5t29 11.5q11 0 21 -6q14 -8 51.5 -38t46.5 -38q88 -72 105 -82l-7 -12q-16 9 -65 28.5z" />
    <glyph glyph-name="Aacute" unicode="&#xc1;" horiz-adv-x="1300" 
d="M2340 -239q-14 -13 -35 -37q-55 -61 -112.5 -107t-163 -81.5t-259.5 -35.5q-193 0 -326 61.5t-219 169.5t-155 269l-141 347h-655l-142 -347h-32l550 1350l550 -1350q202 -470 630 -470q122 0 213.5 35.5t145 78.5t103.5 97q6 8 18 20h30zM917 377l-315 775l-316 -775
h631zM643 1512q17 10 105 82q9 8 46.5 38t51.5 38q11 6 21 6q11 0 21 -5.5t15 -15.5q5 -9 5 -21t-5 -21.5t-15 -14.5q-22 -12 -111 -45q-13 -5 -62 -24.5t-65 -28.5z" />
    <glyph glyph-name="Acircumflex" unicode="&#xc2;" horiz-adv-x="1300" 
d="M2340 -239q-14 -13 -35 -37q-55 -61 -112.5 -107t-163 -81.5t-259.5 -35.5q-193 0 -326 61.5t-219 169.5t-155 269l-141 347h-655l-142 -347h-32l550 1350l550 -1350q202 -470 630 -470q122 0 213.5 35.5t145 78.5t103.5 97q6 8 18 20h30zM917 377l-315 775l-316 -775
h631zM839 1543q0 -21 -17 -35q-11 -8 -23 -8q-10 0 -19.5 5t-15.5 14q-10 15 -62 120q-43 88 -52 104q-9 -16 -52 -104q-52 -105 -62 -120q-6 -9 -15.5 -14t-19.5 -5q-12 0 -23 8q-17 14 -17 35q0 13 7 23q9 13 40.5 46t45.5 49q71 71 88 95h16q17 -24 88 -95
q14 -16 45.5 -49t40.5 -46q7 -10 7 -23z" />
    <glyph glyph-name="Atilde" unicode="&#xc3;" horiz-adv-x="1300" 
d="M2340 -239q-14 -13 -35 -37q-55 -61 -112.5 -107t-163 -81.5t-259.5 -35.5q-193 0 -326 61.5t-219 169.5t-155 269l-141 347h-655l-142 -347h-32l550 1350l550 -1350q202 -470 630 -470q122 0 213.5 35.5t145 78.5t103.5 97q6 8 18 20h30zM917 377l-315 775l-316 -775
h631zM403.5 1607.5q23.5 38.5 62.5 60.5t84 22q51 0 81 -17.5t61 -50.5q27 -26 47 -39t51 -13q45 0 72.5 27.5t27.5 72.5h30q0 -49 -23.5 -87.5t-62.5 -60.5t-84 -22q-51 0 -81 17.5t-61 50.5q-26 27 -46.5 39.5t-51.5 12.5q-45 0 -72.5 -27.5t-27.5 -72.5h-30
q0 49 23.5 87.5z" />
    <glyph glyph-name="Adieresis" unicode="&#xc4;" horiz-adv-x="1300" 
d="M2340 -239q-14 -13 -35 -37q-55 -61 -112.5 -107t-163 -81.5t-259.5 -35.5q-193 0 -326 61.5t-219 169.5t-155 269l-141 347h-655l-142 -347h-32l550 1350l550 -1350q202 -470 630 -470q122 0 213.5 35.5t145 78.5t103.5 97q6 8 18 20h30zM917 377l-315 775l-316 -775
h631zM434.5 1524.5q-24.5 24.5 -24.5 60.5q0 35 24.5 60t60.5 25q35 0 60 -25t25 -60q0 -36 -25 -60.5t-60 -24.5q-36 0 -60.5 24.5zM744.5 1524.5q-24.5 24.5 -24.5 60.5q0 35 24.5 60t60.5 25q35 0 60 -25t25 -60q0 -36 -25 -60.5t-60 -24.5q-36 0 -60.5 24.5z" />
    <glyph glyph-name="Aring" unicode="&#xc5;" horiz-adv-x="1300" 
d="M2340 -239q-14 -13 -35 -37q-55 -61 -112.5 -107t-163 -81.5t-259.5 -35.5q-193 0 -326 61.5t-219 169.5t-155 269l-141 347h-655l-142 -347h-32l550 1350l550 -1350q202 -470 630 -470q122 0 213.5 35.5t145 78.5t103.5 97q6 8 18 20h30zM917 377l-315 775l-316 -775
h631zM520 1725.5q20 34.5 54.5 54.5t75.5 20t75.5 -20t54.5 -54.5t20 -75.5t-20 -75.5t-54.5 -54.5t-75.5 -20t-75.5 20t-54.5 54.5t-20 75.5t20 75.5zM565 1565q35 -35 85 -35t85 35t35 85t-35 85t-85 35t-85 -35t-35 -85t35 -85z" />
    <glyph glyph-name="AE" unicode="&#xc6;" horiz-adv-x="1610" 
d="M900 1320v-621h450v-30h-450v-639h610v-30h-730v347h-472l-176 -347h-32l680 1350h730v-30h-610zM780 377v899l-457 -899h457z" />
    <glyph glyph-name="Ccedilla" unicode="&#xc7;" horiz-adv-x="1459" 
d="M193.5 1023q93.5 160 253.5 253.5t348 93.5q171 0 319 -77.5t245 -211.5h-157q-100 101 -229 158t-268 57q-150 0 -271.5 -69t-190.5 -190.5t-69 -271.5q0 -185 99 -349t263 -263t350 -99q136 0 248.5 57t184.5 158h40q-97 -134 -245 -211.5t-319 -77.5q-188 0 -348 93.5
t-253.5 253.5t-93.5 348t93.5 348zM806 -20l-26 -87q52 0 99.5 -18t77 -52.5t29.5 -82.5q0 -78 -92 -121.5t-241 -60.5l10 30q109 13 166 55t57 97q0 54 -36.5 88.5t-100.5 34.5l37 117h20z" />
    <glyph glyph-name="Egrave" unicode="&#xc8;" horiz-adv-x="913" 
d="M1813 -239q-14 -13 -35 -37q-55 -61 -112.5 -107t-163 -81.5t-259.5 -35.5q-147 0 -279 44.5t-234 106t-240 158.5q-93 66 -152 104t-120 62.5t-118 24.5v1350h730v-30h-610v-621h450v-30h-450v-642q67 -8 144.5 -41.5t153 -77.5t191.5 -117q138 -87 228.5 -138
t186.5 -87t179 -36q122 0 213.5 35.5t145 78.5t103.5 97q6 8 18 20h30zM410 1528.5q-49 19.5 -62 24.5q-89 33 -111 45q-10 5 -15 14.5t-5 21.5q0 19 12 30.5t29 11.5q11 0 21 -6q14 -8 51.5 -38t46.5 -38q88 -72 105 -82l-7 -12q-16 9 -65 28.5z" />
    <glyph glyph-name="Eacute" unicode="&#xc9;" horiz-adv-x="913" 
d="M1813 -239q-14 -13 -35 -37q-55 -61 -112.5 -107t-163 -81.5t-259.5 -35.5q-147 0 -279 44.5t-234 106t-240 158.5q-93 66 -152 104t-120 62.5t-118 24.5v1350h730v-30h-610v-621h450v-30h-450v-642q67 -8 144.5 -41.5t153 -77.5t191.5 -117q138 -87 228.5 -138
t186.5 -87t179 -36q122 0 213.5 35.5t145 78.5t103.5 97q6 8 18 20h30zM468 1512q17 10 105 82q9 8 46.5 38t51.5 38q11 6 21 6q11 0 21 -5.5t15 -15.5q5 -9 5 -21t-5 -21.5t-15 -14.5q-22 -12 -111 -45q-13 -5 -62 -24.5t-65 -28.5z" />
    <glyph glyph-name="Ecircumflex" unicode="&#xca;" horiz-adv-x="913" 
d="M1813 -239q-14 -13 -35 -37q-55 -61 -112.5 -107t-163 -81.5t-259.5 -35.5q-147 0 -279 44.5t-234 106t-240 158.5q-93 66 -152 104t-120 62.5t-118 24.5v1350h730v-30h-610v-621h450v-30h-450v-642q67 -8 144.5 -41.5t153 -77.5t191.5 -117q138 -87 228.5 -138
t186.5 -87t179 -36q122 0 213.5 35.5t145 78.5t103.5 97q6 8 18 20h30zM664 1543q0 -21 -17 -35q-11 -8 -23 -8q-10 0 -19.5 5t-15.5 14q-10 15 -62 120q-43 88 -52 104q-9 -16 -52 -104q-52 -105 -62 -120q-6 -9 -15.5 -14t-19.5 -5q-12 0 -23 8q-17 14 -17 35q0 13 7 23
q9 13 40.5 46t45.5 49q71 71 88 95h16q17 -24 88 -95q14 -16 45.5 -49t40.5 -46q7 -10 7 -23z" />
    <glyph glyph-name="Edieresis" unicode="&#xcb;" horiz-adv-x="913" 
d="M1813 -239q-14 -13 -35 -37q-55 -61 -112.5 -107t-163 -81.5t-259.5 -35.5q-147 0 -279 44.5t-234 106t-240 158.5q-93 66 -152 104t-120 62.5t-118 24.5v1350h730v-30h-610v-621h450v-30h-450v-642q67 -8 144.5 -41.5t153 -77.5t191.5 -117q138 -87 228.5 -138
t186.5 -87t179 -36q122 0 213.5 35.5t145 78.5t103.5 97q6 8 18 20h30zM259.5 1524.5q-24.5 24.5 -24.5 60.5q0 35 24.5 60t60.5 25q35 0 60 -25t25 -60q0 -36 -25 -60.5t-60 -24.5q-36 0 -60.5 24.5zM569.5 1524.5q-24.5 24.5 -24.5 60.5q0 35 24.5 60t60.5 25q35 0 60 -25
t25 -60q0 -36 -25 -60.5t-60 -24.5q-36 0 -60.5 24.5z" />
    <glyph glyph-name="Igrave" unicode="&#xcc;" 
d="M220 1350v-1350h-120v1350h120zM95 1528.5q-49 19.5 -62 24.5q-89 33 -111 45q-10 5 -15 14.5t-5 21.5q0 19 12 30.5t29 11.5q11 0 21 -6q14 -8 51.5 -38t46.5 -38q88 -72 105 -82l-7 -12q-16 9 -65 28.5z" />
    <glyph glyph-name="Iacute" unicode="&#xcd;" 
d="M220 1350v-1350h-120v1350h120zM153 1512q17 10 105 82q9 8 46.5 38t51.5 38q11 6 21 6q11 0 21 -5.5t15 -15.5q5 -9 5 -21t-5 -21.5t-15 -14.5q-22 -12 -111 -45q-13 -5 -62 -24.5t-65 -28.5z" />
    <glyph glyph-name="Icircumflex" unicode="&#xce;" 
d="M220 1350v-1350h-120v1350h120zM349 1543q0 -21 -17 -35q-11 -8 -23 -8q-10 0 -19.5 5t-15.5 14q-10 15 -62 120q-43 88 -52 104q-9 -16 -52 -104q-52 -105 -62 -120q-6 -9 -15.5 -14t-19.5 -5q-12 0 -23 8q-17 14 -17 35q0 13 7 23q9 13 40.5 46t45.5 49q71 71 88 95h16
q17 -24 88 -95q14 -16 45.5 -49t40.5 -46q7 -10 7 -23z" />
    <glyph glyph-name="Idieresis" unicode="&#xcf;" 
d="M220 1350v-1350h-120v1350h120zM-55.5 1524.5q-24.5 24.5 -24.5 60.5q0 35 24.5 60t60.5 25q35 0 60 -25t25 -60q0 -36 -25 -60.5t-60 -24.5q-36 0 -60.5 24.5zM254.5 1524.5q-24.5 24.5 -24.5 60.5q0 35 24.5 60t60.5 25q35 0 60 -25t25 -60q0 -36 -25 -60.5t-60 -24.5
q-36 0 -60.5 24.5z" />
    <glyph glyph-name="Ntilde" unicode="&#xd1;" horiz-adv-x="1330" 
d="M2485 -239q-14 -13 -35 -37q-55 -61 -112.5 -107t-163 -81.5t-259.5 -35.5q-178 0 -342.5 87.5t-276.5 191t-216 221.5l-950 1127v-1127h-30v1350l950 -1128v1128h30v-1164q140 -174 296.5 -322t313 -241t285.5 -93q122 0 213.5 35.5t145 78.5t103.5 97q6 8 18 20h30z
M343.5 1607.5q23.5 38.5 62.5 60.5t84 22q51 0 81 -17.5t61 -50.5q27 -26 47 -39t51 -13q45 0 72.5 27.5t27.5 72.5h30q0 -49 -23.5 -87.5t-62.5 -60.5t-84 -22q-51 0 -81 17.5t-61 50.5q-26 27 -46.5 39.5t-51.5 12.5q-45 0 -72.5 -27.5t-27.5 -72.5h-30q0 49 23.5 87.5z
" />
    <glyph glyph-name="Ograve" unicode="&#xd2;" horiz-adv-x="1590" 
d="M193.5 1023q93.5 160 253.5 253.5t348 93.5t348 -93.5t253.5 -253.5t93.5 -348t-93.5 -348t-253.5 -253.5t-348 -93.5t-348 93.5t-253.5 253.5t-93.5 348t93.5 348zM1157 123q121 69 190 190t69 272q0 184 -99 348.5t-263 263.5t-349 99q-150 0 -271.5 -69t-190.5 -190.5
t-69 -271.5q0 -185 99 -349t263 -263t350 -99q150 0 271 69zM730 1528.5q-49 19.5 -62 24.5q-89 33 -111 45q-10 5 -15 14.5t-5 21.5q0 19 12 30.5t29 11.5q11 0 21 -6q14 -8 51.5 -38t46.5 -38q88 -72 105 -82l-7 -12q-16 9 -65 28.5z" />
    <glyph glyph-name="Oacute" unicode="&#xd3;" horiz-adv-x="1590" 
d="M193.5 1023q93.5 160 253.5 253.5t348 93.5t348 -93.5t253.5 -253.5t93.5 -348t-93.5 -348t-253.5 -253.5t-348 -93.5t-348 93.5t-253.5 253.5t-93.5 348t93.5 348zM1157 123q121 69 190 190t69 272q0 184 -99 348.5t-263 263.5t-349 99q-150 0 -271.5 -69t-190.5 -190.5
t-69 -271.5q0 -185 99 -349t263 -263t350 -99q150 0 271 69zM788 1512q17 10 105 82q9 8 46.5 38t51.5 38q11 6 21 6q11 0 21 -5.5t15 -15.5q5 -9 5 -21t-5 -21.5t-15 -14.5q-22 -12 -111 -45q-13 -5 -62 -24.5t-65 -28.5z" />
    <glyph glyph-name="Ocircumflex" unicode="&#xd4;" horiz-adv-x="1590" 
d="M193.5 1023q93.5 160 253.5 253.5t348 93.5t348 -93.5t253.5 -253.5t93.5 -348t-93.5 -348t-253.5 -253.5t-348 -93.5t-348 93.5t-253.5 253.5t-93.5 348t93.5 348zM1157 123q121 69 190 190t69 272q0 184 -99 348.5t-263 263.5t-349 99q-150 0 -271.5 -69t-190.5 -190.5
t-69 -271.5q0 -185 99 -349t263 -263t350 -99q150 0 271 69zM984 1543q0 -21 -17 -35q-11 -8 -23 -8q-10 0 -19.5 5t-15.5 14q-10 15 -62 120q-43 88 -52 104q-9 -16 -52 -104q-52 -105 -62 -120q-6 -9 -15.5 -14t-19.5 -5q-12 0 -23 8q-17 14 -17 35q0 13 7 23
q9 13 40.5 46t45.5 49q71 71 88 95h16q17 -24 88 -95q14 -16 45.5 -49t40.5 -46q7 -10 7 -23z" />
    <glyph glyph-name="Otilde" unicode="&#xd5;" horiz-adv-x="1590" 
d="M193.5 1023q93.5 160 253.5 253.5t348 93.5t348 -93.5t253.5 -253.5t93.5 -348t-93.5 -348t-253.5 -253.5t-348 -93.5t-348 93.5t-253.5 253.5t-93.5 348t93.5 348zM1157 123q121 69 190 190t69 272q0 184 -99 348.5t-263 263.5t-349 99q-150 0 -271.5 -69t-190.5 -190.5
t-69 -271.5q0 -185 99 -349t263 -263t350 -99q150 0 271 69zM548.5 1607.5q23.5 38.5 62.5 60.5t84 22q51 0 81 -17.5t61 -50.5q27 -26 47 -39t51 -13q45 0 72.5 27.5t27.5 72.5h30q0 -49 -23.5 -87.5t-62.5 -60.5t-84 -22q-51 0 -81 17.5t-61 50.5q-26 27 -46.5 39.5
t-51.5 12.5q-45 0 -72.5 -27.5t-27.5 -72.5h-30q0 49 23.5 87.5z" />
    <glyph glyph-name="Odieresis" unicode="&#xd6;" horiz-adv-x="1590" 
d="M193.5 1023q93.5 160 253.5 253.5t348 93.5t348 -93.5t253.5 -253.5t93.5 -348t-93.5 -348t-253.5 -253.5t-348 -93.5t-348 93.5t-253.5 253.5t-93.5 348t93.5 348zM1157 123q121 69 190 190t69 272q0 184 -99 348.5t-263 263.5t-349 99q-150 0 -271.5 -69t-190.5 -190.5
t-69 -271.5q0 -185 99 -349t263 -263t350 -99q150 0 271 69zM579.5 1524.5q-24.5 24.5 -24.5 60.5q0 35 24.5 60t60.5 25q35 0 60 -25t25 -60q0 -36 -25 -60.5t-60 -24.5q-36 0 -60.5 24.5zM889.5 1524.5q-24.5 24.5 -24.5 60.5q0 35 24.5 60t60.5 25q35 0 60 -25t25 -60
q0 -36 -25 -60.5t-60 -24.5q-36 0 -60.5 24.5z" />
    <glyph glyph-name="multiply" unicode="&#xd7;" horiz-adv-x="632" 
d="M338 700l194 -194l-22 -22l-194 194l-194 -194l-22 22l194 194l-194 194l22 22l194 -194l194 194l22 -22z" />
    <glyph glyph-name="Oslash" unicode="&#xd8;" horiz-adv-x="2014" 
d="M1524 1135q83 -94 128.5 -212t45.5 -248q0 -188 -93.5 -348t-253.5 -253.5t-348 -93.5q-142 0 -270 54.5t-224 152.5l-365 -342h-44l389 363q-86 95 -133.5 215t-47.5 252q0 188 93.5 348t253.5 253.5t348 93.5q144 0 274 -56.5t226 -156.5l367 343h44zM433.5 511
q51.5 -123 142.5 -221l840 785q-100 103 -231 162t-272 59q-150 0 -271.5 -69t-190.5 -190.5t-69 -271.5q0 -131 51.5 -254zM1574.5 835q-49.5 121 -138.5 219l-840 -786q101 -100 230 -157t268 -57q150 0 271 69t190 190t69 272q0 129 -49.5 250z" />
    <glyph glyph-name="Ugrave" unicode="&#xd9;" horiz-adv-x="1261" 
d="M1161 1350v-795q0 -212 -74.5 -340.5t-185 -181.5t-230.5 -53q-121 0 -239.5 53t-199.5 180.5t-81 336.5v585q0 157 -90.5 284.5t-228.5 200t-272 72.5q-122 0 -213.5 -36t-145 -79.5t-105.5 -99.5l-19 -21h-30q4 3 36 38q55 62 113 108.5t164 83t260 36.5
q176 0 324 -68.5t237.5 -207.5t89.5 -341v-555q0 -190 56 -311t146.5 -175t197.5 -54q114 0 218 50t173 171.5t69 323.5v795h30zM606 1528.5q-49 19.5 -62 24.5q-89 33 -111 45q-10 5 -15 14.5t-5 21.5q0 19 12 30.5t29 11.5q11 0 21 -6q14 -8 51.5 -38t46.5 -38
q88 -72 105 -82l-7 -12q-16 9 -65 28.5z" />
    <glyph glyph-name="Uacute" unicode="&#xda;" horiz-adv-x="1261" 
d="M1161 1350v-795q0 -212 -74.5 -340.5t-185 -181.5t-230.5 -53q-121 0 -239.5 53t-199.5 180.5t-81 336.5v585q0 157 -90.5 284.5t-228.5 200t-272 72.5q-122 0 -213.5 -36t-145 -79.5t-105.5 -99.5l-19 -21h-30q4 3 36 38q55 62 113 108.5t164 83t260 36.5
q176 0 324 -68.5t237.5 -207.5t89.5 -341v-555q0 -190 56 -311t146.5 -175t197.5 -54q114 0 218 50t173 171.5t69 323.5v795h30zM664 1512q17 10 105 82q9 8 46.5 38t51.5 38q11 6 21 6q11 0 21 -5.5t15 -15.5q5 -9 5 -21t-5 -21.5t-15 -14.5q-22 -12 -111 -45
q-13 -5 -62 -24.5t-65 -28.5z" />
    <glyph glyph-name="Ucircumflex" unicode="&#xdb;" horiz-adv-x="1261" 
d="M1161 1350v-795q0 -212 -74.5 -340.5t-185 -181.5t-230.5 -53q-121 0 -239.5 53t-199.5 180.5t-81 336.5v585q0 157 -90.5 284.5t-228.5 200t-272 72.5q-122 0 -213.5 -36t-145 -79.5t-105.5 -99.5l-19 -21h-30q4 3 36 38q55 62 113 108.5t164 83t260 36.5
q176 0 324 -68.5t237.5 -207.5t89.5 -341v-555q0 -190 56 -311t146.5 -175t197.5 -54q114 0 218 50t173 171.5t69 323.5v795h30zM860 1543q0 -21 -17 -35q-11 -8 -23 -8q-10 0 -19.5 5t-15.5 14q-10 15 -62 120q-43 88 -52 104q-9 -16 -52 -104q-52 -105 -62 -120
q-6 -9 -15.5 -14t-19.5 -5q-12 0 -23 8q-17 14 -17 35q0 13 7 23q9 13 40.5 46t45.5 49q71 71 88 95h16q17 -24 88 -95q14 -16 45.5 -49t40.5 -46q7 -10 7 -23z" />
    <glyph glyph-name="Udieresis" unicode="&#xdc;" horiz-adv-x="1261" 
d="M1161 1350v-795q0 -212 -74.5 -340.5t-185 -181.5t-230.5 -53q-121 0 -239.5 53t-199.5 180.5t-81 336.5v585q0 157 -90.5 284.5t-228.5 200t-272 72.5q-122 0 -213.5 -36t-145 -79.5t-105.5 -99.5l-19 -21h-30q4 3 36 38q55 62 113 108.5t164 83t260 36.5
q176 0 324 -68.5t237.5 -207.5t89.5 -341v-555q0 -190 56 -311t146.5 -175t197.5 -54q114 0 218 50t173 171.5t69 323.5v795h30zM455.5 1524.5q-24.5 24.5 -24.5 60.5q0 35 24.5 60t60.5 25q35 0 60 -25t25 -60q0 -36 -25 -60.5t-60 -24.5q-36 0 -60.5 24.5zM765.5 1524.5
q-24.5 24.5 -24.5 60.5q0 35 24.5 60t60.5 25q35 0 60 -25t25 -60q0 -36 -25 -60.5t-60 -24.5q-36 0 -60.5 24.5z" />
    <glyph glyph-name="Yacute" unicode="&#xdd;" horiz-adv-x="1237" 
d="M1137 1350l-467 -760v-590h-120v600l-329 550l-32 49q-126 189 -199.5 282.5t-164 149.5t-209.5 56q-122 0 -213.5 -35.5t-145 -78.5t-103.5 -97q-6 -8 -18 -20h-30q14 13 35 37q55 61 112.5 107t163 81.5t259.5 35.5q166 0 274 -58t190.5 -167.5t220.5 -341.5l305 -510
l436 710h35zM643 1512q17 10 105 82q9 8 46.5 38t51.5 38q11 6 21 6q11 0 21 -5.5t15 -15.5q5 -9 5 -21t-5 -21.5t-15 -14.5q-22 -12 -111 -45q-13 -5 -62 -24.5t-65 -28.5z" />
    <glyph glyph-name="Thorn" unicode="&#xde;" horiz-adv-x="1049" 
d="M742 999.5q92 -50.5 149.5 -136.5t57.5 -187q0 -100 -57.5 -186.5t-150 -138t-191.5 -51.5h-330v-300h-120v1350h120v-300h330q100 0 192 -50.5zM681.5 378q68.5 48 108 128t39.5 170q0 97 -37.5 175.5t-105.5 123.5t-156 45h-310v-690h310q83 0 151.5 48z" />
    <glyph glyph-name="germandbls" unicode="&#xdf;" horiz-adv-x="1018" 
d="M149.5 1204.5q49.5 71.5 128.5 108.5t167 37q84 0 149 -34.5t100.5 -96.5t35.5 -144q0 -51 -20 -92t-49 -71t-74 -67q-52 -44 -76.5 -74t-24.5 -66q0 -32 21.5 -57.5t53 -45t90.5 -49.5q84 -42 137 -77.5t91.5 -94t38.5 -141.5q0 -72 -45.5 -131.5t-122 -94t-164.5 -34.5
q-64 0 -127.5 32.5t-98.5 72.5l25 28q40 -46 93 -74.5t118 -28.5q90 0 146 59.5t56 170.5q0 58 -27.5 102t-67.5 75t-106 72q-59 37 -92 62t-56 58.5t-23 75.5q0 39 15.5 70.5t38.5 55t62 56.5q42 34 67.5 60.5t43 63.5t17.5 84q0 120 -61.5 182.5t-163.5 62.5
q-101 0 -163 -61t-62 -174v-1085h-120v1035q0 98 49.5 169.5z" />
    <glyph glyph-name="agrave" unicode="&#xe0;" horiz-adv-x="1300" 
d="M929 347h-655l-142 -347h-32l550 1350l550 -1350h-130zM917 377l-315 775l-316 -775h631zM585 1528.5q-49 19.5 -62 24.5q-89 33 -111 45q-10 5 -15 14.5t-5 21.5q0 19 12 30.5t29 11.5q11 0 21 -6q14 -8 51.5 -38t46.5 -38q88 -72 105 -82l-7 -12q-16 9 -65 28.5z" />
    <glyph glyph-name="aacute" unicode="&#xe1;" horiz-adv-x="1300" 
d="M929 347h-655l-142 -347h-32l550 1350l550 -1350h-130zM917 377l-315 775l-316 -775h631zM643 1512q17 10 105 82q9 8 46.5 38t51.5 38q11 6 21 6q11 0 21 -5.5t15 -15.5q5 -9 5 -21t-5 -21.5t-15 -14.5q-22 -12 -111 -45q-13 -5 -62 -24.5t-65 -28.5z" />
    <glyph glyph-name="acircumflex" unicode="&#xe2;" horiz-adv-x="1300" 
d="M929 347h-655l-142 -347h-32l550 1350l550 -1350h-130zM917 377l-315 775l-316 -775h631zM839 1543q0 -21 -17 -35q-11 -8 -23 -8q-10 0 -19.5 5t-15.5 14q-10 15 -62 120q-43 88 -52 104q-9 -16 -52 -104q-52 -105 -62 -120q-6 -9 -15.5 -14t-19.5 -5q-12 0 -23 8
q-17 14 -17 35q0 13 7 23q9 13 40.5 46t45.5 49q71 71 88 95h16q17 -24 88 -95q14 -16 45.5 -49t40.5 -46q7 -10 7 -23z" />
    <glyph glyph-name="atilde" unicode="&#xe3;" horiz-adv-x="1300" 
d="M929 347h-655l-142 -347h-32l550 1350l550 -1350h-130zM917 377l-315 775l-316 -775h631zM403.5 1607.5q23.5 38.5 62.5 60.5t84 22q51 0 81 -17.5t61 -50.5q27 -26 47 -39t51 -13q45 0 72.5 27.5t27.5 72.5h30q0 -49 -23.5 -87.5t-62.5 -60.5t-84 -22q-51 0 -81 17.5
t-61 50.5q-26 27 -46.5 39.5t-51.5 12.5q-45 0 -72.5 -27.5t-27.5 -72.5h-30q0 49 23.5 87.5z" />
    <glyph glyph-name="adieresis" unicode="&#xe4;" horiz-adv-x="1300" 
d="M929 347h-655l-142 -347h-32l550 1350l550 -1350h-130zM917 377l-315 775l-316 -775h631zM434.5 1524.5q-24.5 24.5 -24.5 60.5q0 35 24.5 60t60.5 25q35 0 60 -25t25 -60q0 -36 -25 -60.5t-60 -24.5q-36 0 -60.5 24.5zM744.5 1524.5q-24.5 24.5 -24.5 60.5q0 35 24.5 60
t60.5 25q35 0 60 -25t25 -60q0 -36 -25 -60.5t-60 -24.5q-36 0 -60.5 24.5z" />
    <glyph glyph-name="aring" unicode="&#xe5;" horiz-adv-x="1300" 
d="M929 347h-655l-142 -347h-32l550 1350l550 -1350h-130zM917 377l-315 775l-316 -775h631zM520 1725.5q20 34.5 54.5 54.5t75.5 20t75.5 -20t54.5 -54.5t20 -75.5t-20 -75.5t-54.5 -54.5t-75.5 -20t-75.5 20t-54.5 54.5t-20 75.5t20 75.5zM565 1565q35 -35 85 -35t85 35
t35 85t-35 85t-85 35t-85 -35t-35 -85t35 -85z" />
    <glyph glyph-name="ae" unicode="&#xe6;" horiz-adv-x="1610" 
d="M900 1320v-621h450v-30h-450v-639h610v-30h-730v347h-472l-176 -347h-32l680 1350h730v-30h-610zM780 377v899l-457 -899h457z" />
    <glyph glyph-name="ccedilla" unicode="&#xe7;" horiz-adv-x="1350" 
d="M193.5 1023q93.5 160 253.5 253.5t348 93.5q128 0 245 -44.5t210 -125.5v-119q-80 120 -199.5 189.5t-255.5 69.5q-156 0 -288 -89.5t-209.5 -242.5t-77.5 -333t77.5 -333t210 -242.5t288.5 -89.5q136 0 255 69.5t199 189.5v-119q-93 -81 -209.5 -125.5t-244.5 -44.5
q-188 0 -348 93.5t-254 253.5t-94 348t93.5 348zM806 -20l-26 -87q52 0 99.5 -18t77 -52.5t29.5 -82.5q0 -78 -92 -121.5t-241 -60.5l10 30q109 13 166 55t57 97q0 54 -36.5 88.5t-100.5 34.5l37 117h20z" />
    <glyph glyph-name="egrave" unicode="&#xe8;" horiz-adv-x="930" 
d="M220 1320v-621h450v-30h-450v-639h610v-30h-730v1350h730v-30h-610zM410 1528.5q-49 19.5 -62 24.5q-89 33 -111 45q-10 5 -15 14.5t-5 21.5q0 19 12 30.5t29 11.5q11 0 21 -6q14 -8 51.5 -38t46.5 -38q88 -72 105 -82l-7 -12q-16 9 -65 28.5z" />
    <glyph glyph-name="eacute" unicode="&#xe9;" horiz-adv-x="930" 
d="M220 1320v-621h450v-30h-450v-639h610v-30h-730v1350h730v-30h-610zM468 1512q17 10 105 82q9 8 46.5 38t51.5 38q11 6 21 6q11 0 21 -5.5t15 -15.5q5 -9 5 -21t-5 -21.5t-15 -14.5q-22 -12 -111 -45q-13 -5 -62 -24.5t-65 -28.5z" />
    <glyph glyph-name="ecircumflex" unicode="&#xea;" horiz-adv-x="930" 
d="M220 1320v-621h450v-30h-450v-639h610v-30h-730v1350h730v-30h-610zM664 1543q0 -21 -17 -35q-11 -8 -23 -8q-10 0 -19.5 5t-15.5 14q-10 15 -62 120q-43 88 -52 104q-9 -16 -52 -104q-52 -105 -62 -120q-6 -9 -15.5 -14t-19.5 -5q-12 0 -23 8q-17 14 -17 35q0 13 7 23
q9 13 40.5 46t45.5 49q71 71 88 95h16q17 -24 88 -95q14 -16 45.5 -49t40.5 -46q7 -10 7 -23z" />
    <glyph glyph-name="edieresis" unicode="&#xeb;" horiz-adv-x="930" 
d="M220 1320v-621h450v-30h-450v-639h610v-30h-730v1350h730v-30h-610zM259.5 1524.5q-24.5 24.5 -24.5 60.5q0 35 24.5 60t60.5 25q35 0 60 -25t25 -60q0 -36 -25 -60.5t-60 -24.5q-36 0 -60.5 24.5zM569.5 1524.5q-24.5 24.5 -24.5 60.5q0 35 24.5 60t60.5 25q35 0 60 -25
t25 -60q0 -36 -25 -60.5t-60 -24.5q-36 0 -60.5 24.5z" />
    <glyph glyph-name="igrave" unicode="&#xec;" 
d="M95 1528.5q-49 19.5 -62 24.5q-89 33 -111 45q-10 5 -15 14.5t-5 21.5q0 19 12 30.5t29 11.5q10 0 21 -6q14 -8 51.5 -38t46.5 -38q88 -72 105 -82l-7 -12q-16 9 -65 28.5zM220 1350v-1350h-120v1350h120z" />
    <glyph glyph-name="iacute" unicode="&#xed;" 
d="M153 1512q17 10 105 82q9 8 46.5 38t51.5 38q10 6 21 6t21 -5.5t15 -15.5q5 -9 5 -21t-5 -21.5t-15 -14.5q-22 -12 -111 -45q-13 -5 -62 -24.5t-65 -28.5zM220 1350v-1350h-120v1350h120z" />
    <glyph glyph-name="icircumflex" unicode="&#xee;" 
d="M349 1543q0 -21 -17 -35q-11 -8 -23 -8q-10 0 -19.5 5t-15.5 14q-10 15 -62 120q-43 88 -52 104q-9 -16 -52 -104q-52 -105 -62 -120q-6 -9 -15.5 -14t-19.5 -5q-12 0 -23 8q-17 14 -17 35q0 13 7 23q9 13 40.5 46t45.5 49q71 71 88 95h16q17 -24 88 -95q14 -16 45.5 -49
t40.5 -46q7 -10 7 -23zM100 1350h120v-1350h-120v1350z" />
    <glyph glyph-name="idieresis" unicode="&#xef;" 
d="M-55.5 1524.5q-24.5 24.5 -24.5 60.5q0 35 24.5 60t60.5 25q35 0 60 -25t25 -60q0 -36 -25 -60.5t-60 -24.5q-36 0 -60.5 24.5zM254.5 1524.5q-24.5 24.5 -24.5 60.5q0 35 24.5 60t60.5 25q35 0 60 -25t25 -60q0 -36 -25 -60.5t-60 -24.5q-36 0 -60.5 24.5zM220 1350
v-1350h-120v1350h120z" />
    <glyph glyph-name="ntilde" unicode="&#xf1;" horiz-adv-x="1180" 
d="M1080 1350v-1350l-950 1127v-1127h-30v1350l2 -3l948 -1125v1128h30zM343.5 1607.5q23.5 38.5 62.5 60.5t84 22q51 0 81 -17.5t61 -50.5q27 -26 47 -39t51 -13q45 0 72.5 27.5t27.5 72.5h30q0 -49 -23.5 -87.5t-62.5 -60.5t-84 -22q-51 0 -81 17.5t-61 50.5
q-26 27 -46.5 39.5t-51.5 12.5q-45 0 -72.5 -27.5t-27.5 -72.5h-30q0 49 23.5 87.5z" />
    <glyph glyph-name="ograve" unicode="&#xf2;" horiz-adv-x="1590" 
d="M193.5 1023q93.5 160 253.5 253.5t348 93.5t348 -93.5t253.5 -253.5t93.5 -348t-93.5 -348t-253.5 -253.5t-348 -93.5t-348 93.5t-253.5 253.5t-93.5 348t93.5 348zM297.5 342q77.5 -153 209.5 -242.5t288 -89.5t288 89.5t209.5 242.5t77.5 333t-77.5 333t-209.5 242.5
t-288 89.5t-288 -89.5t-209.5 -242.5t-77.5 -333t77.5 -333zM730 1528.5q-49 19.5 -62 24.5q-89 33 -111 45q-10 5 -15 14.5t-5 21.5q0 19 12 30.5t29 11.5q11 0 21 -6q14 -8 51.5 -38t46.5 -38q88 -72 105 -82l-7 -12q-16 9 -65 28.5z" />
    <glyph glyph-name="oacute" unicode="&#xf3;" horiz-adv-x="1590" 
d="M193.5 1023q93.5 160 253.5 253.5t348 93.5t348 -93.5t253.5 -253.5t93.5 -348t-93.5 -348t-253.5 -253.5t-348 -93.5t-348 93.5t-253.5 253.5t-93.5 348t93.5 348zM297.5 342q77.5 -153 209.5 -242.5t288 -89.5t288 89.5t209.5 242.5t77.5 333t-77.5 333t-209.5 242.5
t-288 89.5t-288 -89.5t-209.5 -242.5t-77.5 -333t77.5 -333zM788 1512q17 10 105 82q9 8 46.5 38t51.5 38q11 6 21 6q11 0 21 -5.5t15 -15.5q5 -9 5 -21t-5 -21.5t-15 -14.5q-22 -12 -111 -45q-13 -5 -62 -24.5t-65 -28.5z" />
    <glyph glyph-name="ocircumflex" unicode="&#xf4;" horiz-adv-x="1590" 
d="M193.5 1023q93.5 160 253.5 253.5t348 93.5t348 -93.5t253.5 -253.5t93.5 -348t-93.5 -348t-253.5 -253.5t-348 -93.5t-348 93.5t-253.5 253.5t-93.5 348t93.5 348zM297.5 342q77.5 -153 209.5 -242.5t288 -89.5t288 89.5t209.5 242.5t77.5 333t-77.5 333t-209.5 242.5
t-288 89.5t-288 -89.5t-209.5 -242.5t-77.5 -333t77.5 -333zM984 1543q0 -21 -17 -35q-11 -8 -23 -8q-10 0 -19.5 5t-15.5 14q-10 15 -62 120q-43 88 -52 104q-9 -16 -52 -104q-52 -105 -62 -120q-6 -9 -15.5 -14t-19.5 -5q-12 0 -23 8q-17 14 -17 35q0 13 7 23
q9 13 40.5 46t45.5 49q71 71 88 95h16q17 -24 88 -95q14 -16 45.5 -49t40.5 -46q7 -10 7 -23z" />
    <glyph glyph-name="otilde" unicode="&#xf5;" horiz-adv-x="1590" 
d="M193.5 1023q93.5 160 253.5 253.5t348 93.5t348 -93.5t253.5 -253.5t93.5 -348t-93.5 -348t-253.5 -253.5t-348 -93.5t-348 93.5t-253.5 253.5t-93.5 348t93.5 348zM297.5 342q77.5 -153 209.5 -242.5t288 -89.5t288 89.5t209.5 242.5t77.5 333t-77.5 333t-209.5 242.5
t-288 89.5t-288 -89.5t-209.5 -242.5t-77.5 -333t77.5 -333zM548.5 1607.5q23.5 38.5 62.5 60.5t84 22q51 0 81 -17.5t61 -50.5q27 -26 47 -39t51 -13q45 0 72.5 27.5t27.5 72.5h30q0 -49 -23.5 -87.5t-62.5 -60.5t-84 -22q-51 0 -81 17.5t-61 50.5q-26 27 -46.5 39.5
t-51.5 12.5q-45 0 -72.5 -27.5t-27.5 -72.5h-30q0 49 23.5 87.5z" />
    <glyph glyph-name="odieresis" unicode="&#xf6;" horiz-adv-x="1590" 
d="M193.5 1023q93.5 160 253.5 253.5t348 93.5t348 -93.5t253.5 -253.5t93.5 -348t-93.5 -348t-253.5 -253.5t-348 -93.5t-348 93.5t-253.5 253.5t-93.5 348t93.5 348zM297.5 342q77.5 -153 209.5 -242.5t288 -89.5t288 89.5t209.5 242.5t77.5 333t-77.5 333t-209.5 242.5
t-288 89.5t-288 -89.5t-209.5 -242.5t-77.5 -333t77.5 -333zM579.5 1524.5q-24.5 24.5 -24.5 60.5q0 35 24.5 60t60.5 25q35 0 60 -25t25 -60q0 -36 -25 -60.5t-60 -24.5q-36 0 -60.5 24.5zM889.5 1524.5q-24.5 24.5 -24.5 60.5q0 35 24.5 60t60.5 25q35 0 60 -25t25 -60
q0 -36 -25 -60.5t-60 -24.5q-36 0 -60.5 24.5z" />
    <glyph glyph-name="divide" unicode="&#xf7;" horiz-adv-x="780" 
d="M329.5 911.5q-24.5 24.5 -24.5 60.5q0 35 24.5 60t60.5 25q35 0 60 -25t25 -60q0 -36 -25 -60.5t-60 -24.5q-36 0 -60.5 24.5zM680 700v-30h-580v30h580zM329.5 328.5q-24.5 24.5 -24.5 60.5q0 35 24.5 60t60.5 25q35 0 60 -25t25 -60q0 -36 -25 -60.5t-60 -24.5
q-36 0 -60.5 24.5z" />
    <glyph glyph-name="oslash" unicode="&#xf8;" horiz-adv-x="1590" 
d="M1276.5 1176q100.5 -97 157 -227t56.5 -274q0 -188 -93.5 -348t-253.5 -253.5t-348 -93.5q-112 0 -222 36l-62 -171h-32l66 182q-130 50 -231 147t-157.5 226.5t-56.5 274.5q0 188 93.5 348t253.5 253.5t348 93.5q115 0 223 -37l61 167h32l-64 -177q129 -50 229.5 -147z
M263 423.5q43 -119.5 120 -211t177 -144.5l444 1226q-100 46 -209 46q-156 0 -288 -89.5t-209.5 -242.5t-77.5 -333q0 -132 43 -251.5zM1083 99.5q132 89.5 209.5 242.5t77.5 333q0 132 -42.5 251t-119 210.5t-176.5 144.5l-445 -1226q101 -45 208 -45q156 0 288 89.5z" />
    <glyph glyph-name="ugrave" unicode="&#xf9;" horiz-adv-x="1150" 
d="M1050 1350v-795q0 -215 -60.5 -343t-156.5 -180t-213 -52q-121 0 -239.5 53t-199.5 180.5t-81 336.5v800h120v-800q0 -190 56 -311t146.5 -175t197.5 -54q174 0 287 124t113 421v795h30zM555 1528.5q-49 19.5 -62 24.5q-89 33 -111 45q-10 5 -15 14.5t-5 21.5
q0 19 12 30.5t29 11.5q11 0 21 -6q14 -8 51.5 -38t46.5 -38q88 -72 105 -82l-7 -12q-16 9 -65 28.5z" />
    <glyph glyph-name="uacute" unicode="&#xfa;" horiz-adv-x="1150" 
d="M1050 1350v-795q0 -215 -60.5 -343t-156.5 -180t-213 -52q-121 0 -239.5 53t-199.5 180.5t-81 336.5v800h120v-800q0 -190 56 -311t146.5 -175t197.5 -54q174 0 287 124t113 421v795h30zM613 1512q17 10 105 82q9 8 46.5 38t51.5 38q11 6 21 6q11 0 21 -5.5t15 -15.5
q5 -9 5 -21t-5 -21.5t-15 -14.5q-22 -12 -111 -45q-13 -5 -62 -24.5t-65 -28.5z" />
    <glyph glyph-name="ucircumflex" unicode="&#xfb;" horiz-adv-x="1150" 
d="M1050 1350v-795q0 -215 -60.5 -343t-156.5 -180t-213 -52q-121 0 -239.5 53t-199.5 180.5t-81 336.5v800h120v-800q0 -190 56 -311t146.5 -175t197.5 -54q174 0 287 124t113 421v795h30zM809 1543q0 -21 -17 -35q-11 -8 -23 -8q-10 0 -19.5 5t-15.5 14q-10 15 -62 120
q-43 88 -52 104q-9 -16 -52 -104q-52 -105 -62 -120q-6 -9 -15.5 -14t-19.5 -5q-12 0 -23 8q-17 14 -17 35q0 13 7 23q9 13 40.5 46t45.5 49q71 71 88 95h16q17 -24 88 -95q14 -16 45.5 -49t40.5 -46q7 -10 7 -23z" />
    <glyph glyph-name="udieresis" unicode="&#xfc;" horiz-adv-x="1150" 
d="M1050 1350v-795q0 -215 -60.5 -343t-156.5 -180t-213 -52q-121 0 -239.5 53t-199.5 180.5t-81 336.5v800h120v-800q0 -190 56 -311t146.5 -175t197.5 -54q174 0 287 124t113 421v795h30zM404.5 1524.5q-24.5 24.5 -24.5 60.5q0 35 24.5 60t60.5 25q35 0 60 -25t25 -60
q0 -36 -25 -60.5t-60 -24.5q-36 0 -60.5 24.5zM714.5 1524.5q-24.5 24.5 -24.5 60.5q0 35 24.5 60t60.5 25q35 0 60 -25t25 -60q0 -36 -25 -60.5t-60 -24.5q-36 0 -60.5 24.5z" />
    <glyph glyph-name="yacute" unicode="&#xfd;" horiz-adv-x="1237" 
d="M240 1350l426 -710l436 710h35l-467 -760v-590h-120v600l-450 750h140zM643 1512q17 10 105 82q9 8 46.5 38t51.5 38q11 6 21 6q11 0 21 -5.5t15 -15.5q5 -9 5 -21t-5 -21.5t-15 -14.5q-22 -12 -111 -45q-13 -5 -62 -24.5t-65 -28.5z" />
    <glyph glyph-name="thorn" unicode="&#xfe;" horiz-adv-x="1049" 
d="M742 999.5q92 -50.5 149.5 -136.5t57.5 -187q0 -100 -57.5 -186.5t-150 -138t-191.5 -51.5h-330v-300h-120v1350h120v-300h330q100 0 192 -50.5zM681.5 378q68.5 48 108 128t39.5 170q0 97 -37.5 175.5t-105.5 123.5t-156 45h-310v-690h310q83 0 151.5 48z" />
    <glyph glyph-name="ydieresis" unicode="&#xff;" horiz-adv-x="1237" 
d="M240 1350l426 -710l436 710h35l-467 -760v-590h-120v600l-450 750h140zM434.5 1524.5q-24.5 24.5 -24.5 60.5q0 35 24.5 60t60.5 25q35 0 60 -25t25 -60q0 -36 -25 -60.5t-60 -24.5q-36 0 -60.5 24.5zM744.5 1524.5q-24.5 24.5 -24.5 60.5q0 35 24.5 60t60.5 25
q35 0 60 -25t25 -60q0 -36 -25 -60.5t-60 -24.5q-36 0 -60.5 24.5z" />
    <glyph glyph-name="Amacron" unicode="&#x100;" horiz-adv-x="1300" 
d="M2340 -239q-14 -13 -35 -37q-55 -61 -112.5 -107t-163 -81.5t-259.5 -35.5q-193 0 -326 61.5t-219 169.5t-155 269l-141 347h-655l-142 -347h-32l550 1350l550 -1350q202 -470 630 -470q122 0 213.5 35.5t145 78.5t103.5 97q6 8 18 20h30zM917 377l-315 775l-316 -775
h631zM860 1530v-30h-420v30h420z" />
    <glyph glyph-name="amacron" unicode="&#x101;" horiz-adv-x="1300" 
d="M929 347h-655l-142 -347h-32l550 1350l550 -1350h-130zM917 377l-315 775l-316 -775h631zM860 1530v-30h-420v30h420z" />
    <glyph glyph-name="Abreve" unicode="&#x102;" horiz-adv-x="1300" 
d="M2340 -239q-14 -13 -35 -37q-55 -61 -112.5 -107t-163 -81.5t-259.5 -35.5q-193 0 -326 61.5t-219 169.5t-155 269l-141 347h-655l-142 -347h-32l550 1350l550 -1350q202 -470 630 -470q122 0 213.5 35.5t145 78.5t103.5 97q6 8 18 20h30zM917 377l-315 775l-316 -775
h631zM510 1650q0 -30 35.5 -49.5t104.5 -19.5t104.5 19.5t35.5 49.5h30q0 -45 -24.5 -79t-64 -52.5t-81.5 -18.5t-81.5 18.5t-64 52.5t-24.5 79h30z" />
    <glyph glyph-name="abreve" unicode="&#x103;" horiz-adv-x="1300" 
d="M929 347h-655l-142 -347h-32l550 1350l550 -1350h-130zM917 377l-315 775l-316 -775h631zM510 1650q0 -30 35.5 -49.5t104.5 -19.5t104.5 19.5t35.5 49.5h30q0 -45 -24.5 -79t-64 -52.5t-81.5 -18.5t-81.5 18.5t-64 52.5t-24.5 79h30z" />
    <glyph glyph-name="Aogonek" unicode="&#x104;" horiz-adv-x="1300" 
d="M2340 -239q-14 -13 -35 -37q-55 -61 -112.5 -107t-163 -81.5t-259.5 -35.5q-193 0 -326 61.5t-219 169.5t-155 269l-141 347h-655l-142 -347h-32l550 1350l550 -1350q202 -470 630 -470q122 0 213.5 35.5t145 78.5t103.5 97q6 8 18 20h30zM917 377l-315 775l-316 -775
h631zM1683.5 -578.5q-45.5 -53.5 -45.5 -135.5q0 -84 39.5 -126t99.5 -42q68 0 111 27t79 85l21 -18q-38 -61 -93.5 -97.5t-147.5 -36.5q-50 0 -101 21t-84.5 63.5t-33.5 103.5q0 63 41 110t86.5 73t101.5 51h33q-61 -25 -106.5 -78.5z" />
    <glyph glyph-name="aogonek" unicode="&#x105;" horiz-adv-x="1300" 
d="M929 347h-655l-142 -347h-32l550 1350l550 -1350h-130zM917 377l-315 775l-316 -775h631zM1044.5 -78.5q-45.5 -53.5 -45.5 -135.5q0 -84 39.5 -126t99.5 -42q68 0 111 27t79 85l21 -18q-38 -61 -93.5 -97.5t-147.5 -36.5q-50 0 -101 21t-84.5 63.5t-33.5 103.5
q0 63 41 110t86.5 73t101.5 51h33q-61 -25 -106.5 -78.5z" />
    <glyph glyph-name="Cacute" unicode="&#x106;" horiz-adv-x="1459" 
d="M193.5 1023q93.5 160 253.5 253.5t348 93.5q171 0 319 -77.5t245 -211.5h-157q-100 101 -229 158t-268 57q-150 0 -271.5 -69t-190.5 -190.5t-69 -271.5q0 -185 99 -349t263 -263t350 -99q136 0 248.5 57t184.5 158h40q-97 -134 -245 -211.5t-319 -77.5q-188 0 -348 93.5
t-253.5 253.5t-93.5 348t93.5 348zM788 1512q17 10 105 82q9 8 46.5 38t51.5 38q11 6 21 6q11 0 21 -5.5t15 -15.5q5 -9 5 -21t-5 -21.5t-15 -14.5q-22 -12 -111 -45q-13 -5 -62 -24.5t-65 -28.5z" />
    <glyph glyph-name="cacute" unicode="&#x107;" horiz-adv-x="1350" 
d="M193.5 1023q93.5 160 253.5 253.5t348 93.5q128 0 245 -44.5t210 -125.5v-119q-80 120 -199.5 189.5t-255.5 69.5q-156 0 -288 -89.5t-209.5 -242.5t-77.5 -333t77.5 -333t210 -242.5t288.5 -89.5q136 0 255 69.5t199 189.5v-119q-93 -81 -209.5 -125.5t-244.5 -44.5
q-188 0 -348 93.5t-254 253.5t-94 348t93.5 348zM788 1512q17 10 105 82q9 8 46.5 38t51.5 38q11 6 21 6q11 0 21 -5.5t15 -15.5q5 -9 5 -21t-5 -21.5t-15 -14.5q-22 -12 -111 -45q-13 -5 -62 -24.5t-65 -28.5z" />
    <glyph glyph-name="Ccircumflex" unicode="&#x108;" horiz-adv-x="1459" 
d="M193.5 1023q93.5 160 253.5 253.5t348 93.5q171 0 319 -77.5t245 -211.5h-157q-100 101 -229 158t-268 57q-150 0 -271.5 -69t-190.5 -190.5t-69 -271.5q0 -185 99 -349t263 -263t350 -99q136 0 248.5 57t184.5 158h40q-97 -134 -245 -211.5t-319 -77.5q-188 0 -348 93.5
t-253.5 253.5t-93.5 348t93.5 348zM984 1543q0 -21 -17 -35q-11 -8 -23 -8q-10 0 -19.5 5t-15.5 14q-10 15 -62 120q-43 88 -52 104q-9 -16 -52 -104q-52 -105 -62 -120q-6 -9 -15.5 -14t-19.5 -5q-12 0 -23 8q-17 14 -17 35q0 13 7 23q9 13 40.5 46t45.5 49q71 71 88 95h16
q17 -24 88 -95q14 -16 45.5 -49t40.5 -46q7 -10 7 -23z" />
    <glyph glyph-name="ccircumflex" unicode="&#x109;" horiz-adv-x="1350" 
d="M193.5 1023q93.5 160 253.5 253.5t348 93.5q128 0 245 -44.5t210 -125.5v-119q-80 120 -199.5 189.5t-255.5 69.5q-156 0 -288 -89.5t-209.5 -242.5t-77.5 -333t77.5 -333t210 -242.5t288.5 -89.5q136 0 255 69.5t199 189.5v-119q-93 -81 -209.5 -125.5t-244.5 -44.5
q-188 0 -348 93.5t-254 253.5t-94 348t93.5 348zM984 1543q0 -21 -17 -35q-11 -8 -23 -8q-10 0 -19.5 5t-15.5 14q-10 15 -62 120q-43 88 -52 104q-9 -16 -52 -104q-52 -105 -62 -120q-6 -9 -15.5 -14t-19.5 -5q-12 0 -23 8q-17 14 -17 35q0 13 7 23q9 13 40.5 46t45.5 49
q71 71 88 95h16q17 -24 88 -95q14 -16 45.5 -49t40.5 -46q7 -10 7 -23z" />
    <glyph glyph-name="Ccaron" unicode="&#x10c;" horiz-adv-x="1459" 
d="M193.5 1023q93.5 160 253.5 253.5t348 93.5q171 0 319 -77.5t245 -211.5h-157q-100 101 -229 158t-268 57q-150 0 -271.5 -69t-190.5 -190.5t-69 -271.5q0 -185 99 -349t263 -263t350 -99q136 0 248.5 57t184.5 158h40q-97 -134 -245 -211.5t-319 -77.5q-188 0 -348 93.5
t-253.5 253.5t-93.5 348t93.5 348zM984 1713q0 -13 -7 -23q-9 -13 -40.5 -46t-45.5 -49q-71 -71 -88 -95h-16q-17 24 -88 95q-14 16 -45.5 49t-40.5 46q-7 10 -7 23q0 21 17 35q11 8 23 8q10 0 19.5 -5t15.5 -14q10 -15 62 -120q43 -88 52 -104q9 16 52 104q52 105 62 120
q6 9 15.5 14t19.5 5q12 0 23 -8q17 -14 17 -35z" />
    <glyph glyph-name="ccaron" unicode="&#x10d;" horiz-adv-x="1350" 
d="M193.5 1023q93.5 160 253.5 253.5t348 93.5q128 0 245 -44.5t210 -125.5v-119q-80 120 -199.5 189.5t-255.5 69.5q-156 0 -288 -89.5t-209.5 -242.5t-77.5 -333t77.5 -333t210 -242.5t288.5 -89.5q136 0 255 69.5t199 189.5v-119q-93 -81 -209.5 -125.5t-244.5 -44.5
q-188 0 -348 93.5t-254 253.5t-94 348t93.5 348zM984 1713q0 -13 -7 -23q-9 -13 -40.5 -46t-45.5 -49q-71 -71 -88 -95h-16q-17 24 -88 95q-14 16 -45.5 49t-40.5 46q-7 10 -7 23q0 21 17 35q11 8 23 8q10 0 19.5 -5t15.5 -14q10 -15 62 -120q43 -88 52 -104q9 16 52 104
q52 105 62 120q6 9 15.5 14t19.5 5q12 0 23 -8q17 -14 17 -35z" />
    <glyph glyph-name="Dcaron" unicode="&#x10e;" horiz-adv-x="1784" 
d="M1315.5 1222.5q164.5 -127.5 266.5 -329.5t102 -408q0 -328 -130.5 -549.5t-345 -328t-467.5 -107.5q-150 0 -299 66t-245.5 189.5t-96.5 287.5q0 136 56 248t153 183.5t217 93.5v782h450q175 0 339.5 -127.5zM1137.5 -384.5q184.5 85.5 305.5 298t121 571.5
q0 184 -88 380t-229.5 325.5t-290.5 129.5h-310v-744q117 -6 206 -68.5t136.5 -149.5t47.5 -164h-30q0 52 -45.5 124t-127.5 127t-187 61v-506h-120v499q-111 -17 -198.5 -75t-137.5 -155t-50 -226q0 -159 92.5 -275.5t232 -177t276.5 -60.5q212 0 396.5 85.5zM1029 1713
q0 -13 -7 -23q-9 -13 -40.5 -46t-45.5 -49q-71 -71 -88 -95h-16q-17 24 -88 95q-14 16 -45.5 49t-40.5 46q-7 10 -7 23q0 21 17 35q11 8 23 8q10 0 19.5 -5t15.5 -14q10 -15 62 -120q43 -88 52 -104q9 16 52 104q52 105 62 120q6 9 15.5 14t19.5 5q12 0 23 -8q17 -14 17 -35
z" />
    <glyph glyph-name="dcaron" unicode="&#x10f;" horiz-adv-x="1258" 
d="M864 1257.5q139 -92.5 216.5 -247.5t77.5 -335t-77.5 -335t-216.5 -247.5t-314 -92.5h-450v1350h450q175 0 314 -92.5zM794 124q116 94 180 243.5t64 307.5t-64 307.5t-180 243.5t-264 94h-310v-1290h310q148 0 264 94zM603 1713q0 -13 -7 -23q-9 -13 -40.5 -46
t-45.5 -49q-71 -71 -88 -95h-16q-17 24 -88 95q-14 16 -45.5 49t-40.5 46q-7 10 -7 23q0 21 17 35q11 8 23 8q10 0 19.5 -5t15.5 -14q10 -15 62 -120q43 -88 52 -104q9 16 52 104q52 105 62 120q6 9 15.5 14t19.5 5q12 0 23 -8q17 -14 17 -35z" />
    <glyph glyph-name="Dcroat" unicode="&#x110;" horiz-adv-x="1784" 
d="M1315.5 1222.5q164.5 -127.5 266.5 -329.5t102 -408q0 -328 -130.5 -549.5t-345 -328t-467.5 -107.5q-150 0 -299 66t-245.5 189.5t-96.5 287.5q0 136 56 248t153 183.5t217 93.5v101h-200v30h200v651h450q175 0 339.5 -127.5zM1137.5 -384.5q184.5 85.5 305.5 298
t121 571.5q0 184 -88 380t-229.5 325.5t-290.5 129.5h-310v-621h200v-30h-200v-93q117 -6 206 -68.5t136.5 -149.5t47.5 -164h-30q0 52 -45.5 124t-127.5 127t-187 61v-506h-120v499q-111 -17 -198.5 -75t-137.5 -155t-50 -226q0 -159 92.5 -275.5t232 -177t276.5 -60.5
q212 0 396.5 85.5z" />
    <glyph glyph-name="dcroat" unicode="&#x111;" horiz-adv-x="1258" 
d="M864 1257.5q139 -92.5 216.5 -247.5t77.5 -335t-77.5 -335t-216.5 -247.5t-314 -92.5h-450v669h-180v30h180v651h450q175 0 314 -92.5zM794 124q116 94 180 243.5t64 307.5t-64 307.5t-180 243.5t-264 94h-310v-621h200v-30h-200v-639h310q148 0 264 94z" />
    <glyph glyph-name="Emacron" unicode="&#x112;" horiz-adv-x="913" 
d="M1813 -239q-14 -13 -35 -37q-55 -61 -112.5 -107t-163 -81.5t-259.5 -35.5q-147 0 -279 44.5t-234 106t-240 158.5q-93 66 -152 104t-120 62.5t-118 24.5v1350h730v-30h-610v-621h450v-30h-450v-642q67 -8 144.5 -41.5t153 -77.5t191.5 -117q138 -87 228.5 -138
t186.5 -87t179 -36q122 0 213.5 35.5t145 78.5t103.5 97q6 8 18 20h30zM685 1530v-30h-420v30h420z" />
    <glyph glyph-name="emacron" unicode="&#x113;" horiz-adv-x="930" 
d="M220 1320v-621h450v-30h-450v-639h610v-30h-730v1350h730v-30h-610zM685 1530v-30h-420v30h420z" />
    <glyph glyph-name="Ebreve" unicode="&#x114;" horiz-adv-x="913" 
d="M1813 -239q-14 -13 -35 -37q-55 -61 -112.5 -107t-163 -81.5t-259.5 -35.5q-147 0 -279 44.5t-234 106t-240 158.5q-93 66 -152 104t-120 62.5t-118 24.5v1350h730v-30h-610v-621h450v-30h-450v-642q67 -8 144.5 -41.5t153 -77.5t191.5 -117q138 -87 228.5 -138
t186.5 -87t179 -36q122 0 213.5 35.5t145 78.5t103.5 97q6 8 18 20h30zM335 1650q0 -30 35.5 -49.5t104.5 -19.5t104.5 19.5t35.5 49.5h30q0 -45 -24.5 -79t-64 -52.5t-81.5 -18.5t-81.5 18.5t-64 52.5t-24.5 79h30z" />
    <glyph glyph-name="ebreve" unicode="&#x115;" horiz-adv-x="930" 
d="M220 1320v-621h450v-30h-450v-639h610v-30h-730v1350h730v-30h-610zM335 1650q0 -30 35.5 -49.5t104.5 -19.5t104.5 19.5t35.5 49.5h30q0 -45 -24.5 -79t-64 -52.5t-81.5 -18.5t-81.5 18.5t-64 52.5t-24.5 79h30z" />
    <glyph glyph-name="Edotaccent" unicode="&#x116;" horiz-adv-x="913" 
d="M1813 -239q-14 -13 -35 -37q-55 -61 -112.5 -107t-163 -81.5t-259.5 -35.5q-147 0 -279 44.5t-234 106t-240 158.5q-93 66 -152 104t-120 62.5t-118 24.5v1350h730v-30h-610v-621h450v-30h-450v-642q67 -8 144.5 -41.5t153 -77.5t191.5 -117q138 -87 228.5 -138
t186.5 -87t179 -36q122 0 213.5 35.5t145 78.5t103.5 97q6 8 18 20h30zM414.5 1524.5q-24.5 24.5 -24.5 60.5q0 35 24.5 60t60.5 25q35 0 60 -25t25 -60q0 -36 -25 -60.5t-60 -24.5q-36 0 -60.5 24.5z" />
    <glyph glyph-name="edotaccent" unicode="&#x117;" horiz-adv-x="930" 
d="M220 1320v-621h450v-30h-450v-639h610v-30h-730v1350h730v-30h-610zM414.5 1524.5q-24.5 24.5 -24.5 60.5q0 35 24.5 60t60.5 25q35 0 60 -25t25 -60q0 -36 -25 -60.5t-60 -24.5q-36 0 -60.5 24.5z" />
    <glyph glyph-name="Eogonek" unicode="&#x118;" horiz-adv-x="913" 
d="M1813 -239q-14 -13 -35 -37q-55 -61 -112.5 -107t-163 -81.5t-259.5 -35.5q-147 0 -279 44.5t-234 106t-240 158.5q-93 66 -152 104t-120 62.5t-118 24.5v1350h730v-30h-610v-621h450v-30h-450v-642q67 -8 144.5 -41.5t153 -77.5t191.5 -117q138 -87 228.5 -138
t186.5 -87t179 -36q122 0 213.5 35.5t145 78.5t103.5 97q6 8 18 20h30zM1156.5 -578.5q-45.5 -53.5 -45.5 -135.5q0 -84 39.5 -126t99.5 -42q68 0 111 27t79 85l21 -18q-38 -61 -93.5 -97.5t-147.5 -36.5q-50 0 -101 21t-84.5 63.5t-33.5 103.5q0 63 41 110t86.5 73
t101.5 51h33q-61 -25 -106.5 -78.5z" />
    <glyph glyph-name="eogonek" unicode="&#x119;" horiz-adv-x="930" 
d="M220 1320v-621h450v-30h-450v-639h610v-30h-730v1350h730v-30h-610zM378.5 -78.5q-45.5 -53.5 -45.5 -135.5q0 -84 39.5 -126t99.5 -42q68 0 111 27t79 85l21 -18q-38 -61 -93.5 -97.5t-147.5 -36.5q-50 0 -101 21t-84.5 63.5t-33.5 103.5q0 63 41 110t86.5 73t101.5 51
h33q-61 -25 -106.5 -78.5z" />
    <glyph glyph-name="Ecaron" unicode="&#x11a;" horiz-adv-x="913" 
d="M1813 -239q-14 -13 -35 -37q-55 -61 -112.5 -107t-163 -81.5t-259.5 -35.5q-147 0 -279 44.5t-234 106t-240 158.5q-93 66 -152 104t-120 62.5t-118 24.5v1350h730v-30h-610v-621h450v-30h-450v-642q67 -8 144.5 -41.5t153 -77.5t191.5 -117q138 -87 228.5 -138
t186.5 -87t179 -36q122 0 213.5 35.5t145 78.5t103.5 97q6 8 18 20h30zM664 1713q0 -13 -7 -23q-9 -13 -40.5 -46t-45.5 -49q-71 -71 -88 -95h-16q-17 24 -88 95q-14 16 -45.5 49t-40.5 46q-7 10 -7 23q0 21 17 35q11 8 23 8q10 0 19.5 -5t15.5 -14q10 -15 62 -120
q43 -88 52 -104q9 16 52 104q52 105 62 120q6 9 15.5 14t19.5 5q12 0 23 -8q17 -14 17 -35z" />
    <glyph glyph-name="ecaron" unicode="&#x11b;" horiz-adv-x="930" 
d="M220 1320v-621h450v-30h-450v-639h610v-30h-730v1350h730v-30h-610zM664 1713q0 -13 -7 -23q-9 -13 -40.5 -46t-45.5 -49q-71 -71 -88 -95h-16q-17 24 -88 95q-14 16 -45.5 49t-40.5 46q-7 10 -7 23q0 21 17 35q11 8 23 8q10 0 19.5 -5t15.5 -14q10 -15 62 -120
q43 -88 52 -104q9 16 52 104q52 105 62 120q6 9 15.5 14t19.5 5q12 0 23 -8q17 -14 17 -35z" />
    <glyph glyph-name="Gcircumflex" unicode="&#x11c;" horiz-adv-x="1350" 
d="M1250 700v-550q-93 -81 -210 -125.5t-245 -44.5q-188 0 -348 93.5t-253.5 253.5t-93.5 348t93.5 348t253.5 253.5t348 93.5q108 0 208.5 -32t186.5 -92v-88q-79 86 -180.5 134t-214.5 48q-156 0 -288 -89.5t-209.5 -242.5t-77.5 -333t77.5 -333t209.5 -242.5t288 -89.5
q92 0 177.5 32.5t157.5 92.5v409q-41 -29 -103.5 -59.5t-139.5 -30.5q-95 0 -174.5 60t-134.5 167l28 19q51 -100 124.5 -158t164.5 -58q58 0 119.5 28t102 77.5t40.5 109.5zM984 1543q0 -21 -17 -35q-11 -8 -23 -8q-10 0 -19.5 5t-15.5 14q-10 15 -62 120q-43 88 -52 104
q-9 -16 -52 -104q-52 -105 -62 -120q-6 -9 -15.5 -14t-19.5 -5q-12 0 -23 8q-17 14 -17 35q0 13 7 23q9 13 40.5 46t45.5 49q71 71 88 95h16q17 -24 88 -95q14 -16 45.5 -49t40.5 -46q7 -10 7 -23z" />
    <glyph glyph-name="gcircumflex" unicode="&#x11d;" horiz-adv-x="1350" 
d="M1250 605v-455q-93 -81 -210 -125.5t-245 -44.5q-188 0 -348 93.5t-253.5 253.5t-93.5 348t93.5 348t253.5 253.5t348 93.5q108 0 208.5 -32t186.5 -92v-88q-79 86 -180.5 134t-214.5 48q-156 0 -288 -89.5t-209.5 -242.5t-77.5 -333t77.5 -333t209.5 -242.5t288 -89.5
q92 0 177.5 32.5t157.5 92.5v470h120zM984 1543q0 -21 -17 -35q-11 -8 -23 -8q-10 0 -19.5 5t-15.5 14q-10 15 -62 120q-43 88 -52 104q-9 -16 -52 -104q-52 -105 -62 -120q-6 -9 -15.5 -14t-19.5 -5q-12 0 -23 8q-17 14 -17 35q0 13 7 23q9 13 40.5 46t45.5 49q71 71 88 95
h16q17 -24 88 -95q14 -16 45.5 -49t40.5 -46q7 -10 7 -23z" />
    <glyph glyph-name="Gbreve" unicode="&#x11e;" horiz-adv-x="1350" 
d="M1250 700v-550q-93 -81 -210 -125.5t-245 -44.5q-188 0 -348 93.5t-253.5 253.5t-93.5 348t93.5 348t253.5 253.5t348 93.5q108 0 208.5 -32t186.5 -92v-88q-79 86 -180.5 134t-214.5 48q-156 0 -288 -89.5t-209.5 -242.5t-77.5 -333t77.5 -333t209.5 -242.5t288 -89.5
q92 0 177.5 32.5t157.5 92.5v409q-41 -29 -103.5 -59.5t-139.5 -30.5q-95 0 -174.5 60t-134.5 167l28 19q51 -100 124.5 -158t164.5 -58q58 0 119.5 28t102 77.5t40.5 109.5zM655 1650q0 -30 35.5 -49.5t104.5 -19.5t104.5 19.5t35.5 49.5h30q0 -45 -24.5 -79t-64 -52.5
t-81.5 -18.5t-81.5 18.5t-64 52.5t-24.5 79h30z" />
    <glyph glyph-name="gbreve" unicode="&#x11f;" horiz-adv-x="1350" 
d="M1250 605v-455q-93 -81 -210 -125.5t-245 -44.5q-188 0 -348 93.5t-253.5 253.5t-93.5 348t93.5 348t253.5 253.5t348 93.5q108 0 208.5 -32t186.5 -92v-88q-79 86 -180.5 134t-214.5 48q-156 0 -288 -89.5t-209.5 -242.5t-77.5 -333t77.5 -333t209.5 -242.5t288 -89.5
q92 0 177.5 32.5t157.5 92.5v470h120zM655 1650q0 -30 35.5 -49.5t104.5 -19.5t104.5 19.5t35.5 49.5h30q0 -45 -24.5 -79t-64 -52.5t-81.5 -18.5t-81.5 18.5t-64 52.5t-24.5 79h30z" />
    <glyph glyph-name="Hcircumflex" unicode="&#x124;" horiz-adv-x="1280" 
d="M1180 1350v-1350h-120v659q-30 -49 -84.5 -80t-125.5 -31q-41 0 -81.5 16.5t-75 40.5t-88.5 65q-71 56 -118.5 84t-96.5 28q-47 0 -86 -24.5t-61.5 -60.5t-22.5 -67v-630h-120v1350h120v-623q32 54 89.5 89.5t122.5 35.5q57 0 111 -31t130 -91q72 -56 120 -84t97 -28
q56 0 94.5 22t57 54.5t18.5 65.5v590h120zM829 1543q0 -21 -17 -35q-11 -8 -23 -8q-10 0 -19.5 5t-15.5 14q-10 15 -62 120q-43 88 -52 104q-9 -16 -52 -104q-52 -105 -62 -120q-6 -9 -15.5 -14t-19.5 -5q-12 0 -23 8q-17 14 -17 35q0 13 7 23q9 13 40.5 46t45.5 49
q71 71 88 95h16q17 -24 88 -95q14 -16 45.5 -49t40.5 -46q7 -10 7 -23z" />
    <glyph glyph-name="hcircumflex" unicode="&#x125;" horiz-adv-x="1280" 
d="M1180 1350v-1350h-120v670h-840v-670h-120v1350h120v-650h840v650h120zM829 1543q0 -21 -17 -35q-11 -8 -23 -8q-10 0 -19.5 5t-15.5 14q-10 15 -62 120q-43 88 -52 104q-9 -16 -52 -104q-52 -105 -62 -120q-6 -9 -15.5 -14t-19.5 -5q-12 0 -23 8q-17 14 -17 35
q0 13 7 23q9 13 40.5 46t45.5 49q71 71 88 95h16q17 -24 88 -95q14 -16 45.5 -49t40.5 -46q7 -10 7 -23z" />
    <glyph glyph-name="Itilde" unicode="&#x128;" 
d="M220 1350v-1350h-120v1350h120zM-86.5 1607.5q23.5 38.5 62.5 60.5t84 22q51 0 81 -17.5t61 -50.5q27 -26 47 -39t51 -13q45 0 72.5 27.5t27.5 72.5h30q0 -49 -23.5 -87.5t-62.5 -60.5t-84 -22q-51 0 -81 17.5t-61 50.5q-26 27 -46.5 39.5t-51.5 12.5q-45 0 -72.5 -27.5
t-27.5 -72.5h-30q0 49 23.5 87.5z" />
    <glyph glyph-name="itilde" unicode="&#x129;" 
d="M-86.5 1607.5q23.5 38.5 62.5 60.5t84 22q51 0 81 -17.5t61 -50.5q27 -26 47 -39t51 -13q45 0 72.5 27.5t27.5 72.5h30q0 -49 -23.5 -87.5t-62.5 -60.5t-84 -22q-51 0 -81 17.5t-61 50.5q-26 26 -46.5 39t-51.5 13q-45 0 -72.5 -27.5t-27.5 -72.5h-30q0 49 23.5 87.5z
M220 1350v-1350h-120v1350h120z" />
    <glyph glyph-name="Imacron" unicode="&#x12a;" 
d="M220 1350v-1350h-120v1350h120zM370 1530v-30h-420v30h420z" />
    <glyph glyph-name="imacron" unicode="&#x12b;" 
d="M370 1530v-30h-420v30h420zM220 1350v-1350h-120v1350h120z" />
    <glyph glyph-name="Ibreve" unicode="&#x12c;" 
d="M220 1350v-1350h-120v1350h120zM20 1650q0 -30 35.5 -49.5t104.5 -19.5t104.5 19.5t35.5 49.5h30q0 -45 -24.5 -79t-64 -52.5t-81.5 -18.5t-81.5 18.5t-64 52.5t-24.5 79h30z" />
    <glyph glyph-name="ibreve" unicode="&#x12d;" 
d="M20 1650q0 -30 35.5 -49.5t104.5 -19.5t104.5 19.5t35.5 49.5h30q0 -45 -24.5 -79t-64 -52.5t-81.5 -18.5t-81.5 18.5t-64 52.5t-24.5 79h30zM220 1350v-1350h-120v1350h120z" />
    <glyph glyph-name="Iogonek" unicode="&#x12e;" 
d="M220 1350v-1350h-120v1350h120zM73.5 -78.5q-45.5 -53.5 -45.5 -135.5q0 -84 39.5 -126t99.5 -42q68 0 111 27t79 85l21 -18q-38 -61 -93.5 -97.5t-147.5 -36.5q-50 0 -101 21t-84.5 63.5t-33.5 103.5q0 63 41 110t86.5 73t101.5 51h33q-61 -25 -106.5 -78.5z" />
    <glyph glyph-name="iogonek" unicode="&#x12f;" 
d="M378 -288q-38 -61 -93.5 -97.5t-147.5 -36.5q-50 0 -101 21t-84.5 63.5t-33.5 103.5q0 63 41 110t86.5 73t101.5 51h-47v1350h120v-1350h-40q-61 -25 -106.5 -78.5t-45.5 -135.5q0 -84 39.5 -126t99.5 -42q68 0 111 27t79 85z" />
    <glyph glyph-name="Idotaccent" unicode="&#x130;" 
d="M220 1350v-1350h-120v1350h120zM99.5 1524.5q-24.5 24.5 -24.5 60.5q0 35 24.5 60t60.5 25q35 0 60 -25t25 -60q0 -36 -25 -60.5t-60 -24.5q-36 0 -60.5 24.5z" />
    <glyph glyph-name="Jcircumflex" unicode="&#x134;" horiz-adv-x="1161" 
d="M1061 1350v-1220q0 -317 -127 -473.5t-396 -156.5q-103 0 -205 47t-167.5 134.5t-65.5 201.5t66 204t167.5 139.5t204.5 49.5q71 0 122 -23t102 -64l-38 -14q-41 36 -82 53t-104 18q-91 0 -163 -43.5t-113.5 -125.5t-41.5 -194t41.5 -191.5t113.5 -120.5t163 -41
q180 0 268.5 91t111.5 219.5t23 313.5v66v1130h120zM1190 1543q0 -21 -17 -35q-11 -8 -23 -8q-10 0 -19.5 5t-15.5 14q-10 15 -62 120q-43 88 -52 104q-9 -16 -52 -104q-52 -105 -62 -120q-6 -9 -15.5 -14t-19.5 -5q-12 0 -23 8q-17 14 -17 35q0 13 7 23q9 13 40.5 46
t45.5 49q71 71 88 95h16q17 -24 88 -95q14 -16 45.5 -49t40.5 -46q7 -10 7 -23z" />
    <glyph glyph-name="jcircumflex" unicode="&#x135;" 
d="M349 1543q0 -21 -17 -35q-11 -8 -23 -8q-10 0 -19.5 5t-15.5 14q-10 15 -62 120q-43 88 -52 104q-9 -16 -52 -104q-52 -105 -62 -120q-6 -9 -15.5 -14t-19.5 -5q-12 0 -23 8q-17 14 -17 35q0 13 7 23q9 13 40.5 46t45.5 49q71 71 88 95h16q17 -24 88 -95q14 -16 45.5 -49
t40.5 -46q7 -10 7 -23zM100 1350h120v-1270q0 -176 -55.5 -297.5t-122 -184t-149.5 -118.5v30q106 75 156.5 222t50.5 348v1270z" />
    <glyph glyph-name="Lacute" unicode="&#x139;" horiz-adv-x="493" 
d="M1813 -239q-14 -13 -35 -37q-55 -61 -112.5 -107t-163 -81.5t-259.5 -35.5q-147 0 -279 44.5t-234 106t-240 158.5q-93 66 -152 104t-120 62.5t-118 24.5v1350h120v-1323q67 -8 144.5 -41.5t153 -77.5t191.5 -117q138 -87 228.5 -138t186.5 -87t179 -36q122 0 213.5 35.5
t145 78.5t103.5 97q6 8 18 20h30zM153 1512q17 10 105 82q9 8 46.5 38t51.5 38q11 6 21 6q11 0 21 -5.5t15 -15.5q5 -9 5 -21t-5 -21.5t-15 -14.5q-22 -12 -111 -45q-13 -5 -62 -24.5t-65 -28.5z" />
    <glyph glyph-name="lacute" unicode="&#x13a;" horiz-adv-x="850" 
d="M750 30v-30h-650v1350h120v-1320h530zM153 1512q17 10 105 82q9 8 46.5 38t51.5 38q11 6 21 6q11 0 21 -5.5t15 -15.5q5 -9 5 -21t-5 -21.5t-15 -14.5q-22 -12 -111 -45q-13 -5 -62 -24.5t-65 -28.5z" />
    <glyph glyph-name="Lcaron" unicode="&#x13d;" horiz-adv-x="493" 
d="M1813 -239q-14 -13 -35 -37q-55 -61 -112.5 -107t-163 -81.5t-259.5 -35.5q-147 0 -279 44.5t-234 106t-240 158.5q-93 66 -152 104t-120 62.5t-118 24.5v1350h120v-1323q67 -8 144.5 -41.5t153 -77.5t191.5 -117q138 -87 228.5 -138t186.5 -87t179 -36q122 0 213.5 35.5
t145 78.5t103.5 97q6 8 18 20h30zM349 1713q0 -13 -7 -23q-9 -13 -40.5 -46t-45.5 -49q-71 -71 -88 -95h-16q-17 24 -88 95q-14 16 -45.5 49t-40.5 46q-7 10 -7 23q0 21 17 35q11 8 23 8q10 0 19.5 -5t15.5 -14q10 -15 62 -120q43 -88 52 -104q9 16 52 104q52 105 62 120
q6 9 15.5 14t19.5 5q12 0 23 -8q17 -14 17 -35z" />
    <glyph glyph-name="lcaron" unicode="&#x13e;" horiz-adv-x="850" 
d="M750 30v-30h-650v1350h120v-1320h530zM349 1713q0 -13 -7 -23q-9 -13 -40.5 -46t-45.5 -49q-71 -71 -88 -95h-16q-17 24 -88 95q-14 16 -45.5 49t-40.5 46q-7 10 -7 23q0 21 17 35q11 8 23 8q10 0 19.5 -5t15.5 -14q10 -15 62 -120q43 -88 52 -104q9 16 52 104
q52 105 62 120q6 9 15.5 14t19.5 5q12 0 23 -8q17 -14 17 -35z" />
    <glyph glyph-name="Nacute" unicode="&#x143;" horiz-adv-x="1330" 
d="M2485 -239q-14 -13 -35 -37q-55 -61 -112.5 -107t-163 -81.5t-259.5 -35.5q-178 0 -342.5 87.5t-276.5 191t-216 221.5l-950 1127v-1127h-30v1350l950 -1128v1128h30v-1164q140 -174 296.5 -322t313 -241t285.5 -93q122 0 213.5 35.5t145 78.5t103.5 97q6 8 18 20h30z
M583 1512q17 10 105 82q9 8 46.5 38t51.5 38q11 6 21 6q11 0 21 -5.5t15 -15.5q5 -9 5 -21t-5 -21.5t-15 -14.5q-22 -12 -111 -45q-13 -5 -62 -24.5t-65 -28.5z" />
    <glyph glyph-name="nacute" unicode="&#x144;" horiz-adv-x="1180" 
d="M1080 1350v-1350l-950 1127v-1127h-30v1350l2 -3l948 -1125v1128h30zM583 1512q17 10 105 82q9 8 46.5 38t51.5 38q11 6 21 6q11 0 21 -5.5t15 -15.5q5 -9 5 -21t-5 -21.5t-15 -14.5q-22 -12 -111 -45q-13 -5 -62 -24.5t-65 -28.5z" />
    <glyph glyph-name="Ncaron" unicode="&#x147;" horiz-adv-x="1330" 
d="M2485 -239q-14 -13 -35 -37q-55 -61 -112.5 -107t-163 -81.5t-259.5 -35.5q-178 0 -342.5 87.5t-276.5 191t-216 221.5l-950 1127v-1127h-30v1350l950 -1128v1128h30v-1164q140 -174 296.5 -322t313 -241t285.5 -93q122 0 213.5 35.5t145 78.5t103.5 97q6 8 18 20h30z
M779 1713q0 -13 -7 -23q-9 -13 -40.5 -46t-45.5 -49q-71 -71 -88 -95h-16q-17 24 -88 95q-14 16 -45.5 49t-40.5 46q-7 10 -7 23q0 21 17 35q11 8 23 8q10 0 19.5 -5t15.5 -14q10 -15 62 -120q43 -88 52 -104q9 16 52 104q52 105 62 120q6 9 15.5 14t19.5 5q12 0 23 -8
q17 -14 17 -35z" />
    <glyph glyph-name="ncaron" unicode="&#x148;" horiz-adv-x="1180" 
d="M1080 1350v-1350l-950 1127v-1127h-30v1350l2 -3l948 -1125v1128h30zM779 1713q0 -13 -7 -23q-9 -13 -40.5 -46t-45.5 -49q-71 -71 -88 -95h-16q-17 24 -88 95q-14 16 -45.5 49t-40.5 46q-7 10 -7 23q0 21 17 35q11 8 23 8q10 0 19.5 -5t15.5 -14q10 -15 62 -120
q43 -88 52 -104q9 16 52 104q52 105 62 120q6 9 15.5 14t19.5 5q12 0 23 -8q17 -14 17 -35z" />
    <glyph glyph-name="Omacron" unicode="&#x14c;" horiz-adv-x="1590" 
d="M193.5 1023q93.5 160 253.5 253.5t348 93.5t348 -93.5t253.5 -253.5t93.5 -348t-93.5 -348t-253.5 -253.5t-348 -93.5t-348 93.5t-253.5 253.5t-93.5 348t93.5 348zM1157 123q121 69 190 190t69 272q0 184 -99 348.5t-263 263.5t-349 99q-150 0 -271.5 -69t-190.5 -190.5
t-69 -271.5q0 -185 99 -349t263 -263t350 -99q150 0 271 69zM1005 1530v-30h-420v30h420z" />
    <glyph glyph-name="omacron" unicode="&#x14d;" horiz-adv-x="1590" 
d="M193.5 1023q93.5 160 253.5 253.5t348 93.5t348 -93.5t253.5 -253.5t93.5 -348t-93.5 -348t-253.5 -253.5t-348 -93.5t-348 93.5t-253.5 253.5t-93.5 348t93.5 348zM297.5 342q77.5 -153 209.5 -242.5t288 -89.5t288 89.5t209.5 242.5t77.5 333t-77.5 333t-209.5 242.5
t-288 89.5t-288 -89.5t-209.5 -242.5t-77.5 -333t77.5 -333zM1005 1530v-30h-420v30h420z" />
    <glyph glyph-name="Obreve" unicode="&#x14e;" horiz-adv-x="1590" 
d="M193.5 1023q93.5 160 253.5 253.5t348 93.5t348 -93.5t253.5 -253.5t93.5 -348t-93.5 -348t-253.5 -253.5t-348 -93.5t-348 93.5t-253.5 253.5t-93.5 348t93.5 348zM1157 123q121 69 190 190t69 272q0 184 -99 348.5t-263 263.5t-349 99q-150 0 -271.5 -69t-190.5 -190.5
t-69 -271.5q0 -185 99 -349t263 -263t350 -99q150 0 271 69zM655 1650q0 -30 35.5 -49.5t104.5 -19.5t104.5 19.5t35.5 49.5h30q0 -45 -24.5 -79t-64 -52.5t-81.5 -18.5t-81.5 18.5t-64 52.5t-24.5 79h30z" />
    <glyph glyph-name="obreve" unicode="&#x14f;" horiz-adv-x="1590" 
d="M193.5 1023q93.5 160 253.5 253.5t348 93.5t348 -93.5t253.5 -253.5t93.5 -348t-93.5 -348t-253.5 -253.5t-348 -93.5t-348 93.5t-253.5 253.5t-93.5 348t93.5 348zM297.5 342q77.5 -153 209.5 -242.5t288 -89.5t288 89.5t209.5 242.5t77.5 333t-77.5 333t-209.5 242.5
t-288 89.5t-288 -89.5t-209.5 -242.5t-77.5 -333t77.5 -333zM655 1650q0 -30 35.5 -49.5t104.5 -19.5t104.5 19.5t35.5 49.5h30q0 -45 -24.5 -79t-64 -52.5t-81.5 -18.5t-81.5 18.5t-64 52.5t-24.5 79h30z" />
    <glyph glyph-name="Ohungarumlaut" unicode="&#x150;" horiz-adv-x="1590" 
d="M193.5 1023q93.5 160 253.5 253.5t348 93.5t348 -93.5t253.5 -253.5t93.5 -348t-93.5 -348t-253.5 -253.5t-348 -93.5t-348 93.5t-253.5 253.5t-93.5 348t93.5 348zM1157 123q121 69 190 190t69 272q0 184 -99 348.5t-263 263.5t-349 99q-150 0 -271.5 -69t-190.5 -190.5
t-69 -271.5q0 -185 99 -349t263 -263t350 -99q150 0 271 69zM688 1508q15 23 58 115q9 17 29.5 59t29.5 55q6 9 15.5 14t19.5 5q12 0 23 -8q17 -14 17 -35q0 -13 -7 -23q-9 -13 -40.5 -46t-45.5 -49q-71 -71 -88 -95zM878 1508q15 23 58 115q9 17 29.5 59t29.5 55
q6 9 15.5 14t19.5 5q12 0 23 -8q17 -14 17 -35q0 -13 -7 -23q-9 -13 -40.5 -46t-45.5 -49q-71 -71 -88 -95z" />
    <glyph glyph-name="ohungarumlaut" unicode="&#x151;" horiz-adv-x="1590" 
d="M193.5 1023q93.5 160 253.5 253.5t348 93.5t348 -93.5t253.5 -253.5t93.5 -348t-93.5 -348t-253.5 -253.5t-348 -93.5t-348 93.5t-253.5 253.5t-93.5 348t93.5 348zM297.5 342q77.5 -153 209.5 -242.5t288 -89.5t288 89.5t209.5 242.5t77.5 333t-77.5 333t-209.5 242.5
t-288 89.5t-288 -89.5t-209.5 -242.5t-77.5 -333t77.5 -333zM688 1508q15 23 58 115q9 17 29.5 59t29.5 55q6 9 15.5 14t19.5 5q12 0 23 -8q17 -14 17 -35q0 -13 -7 -23q-9 -13 -40.5 -46t-45.5 -49q-71 -71 -88 -95zM878 1508q15 23 58 115q9 17 29.5 59t29.5 55
q6 9 15.5 14t19.5 5q12 0 23 -8q17 -14 17 -35q0 -13 -7 -23q-9 -13 -40.5 -46t-45.5 -49q-71 -71 -88 -95z" />
    <glyph glyph-name="OE" unicode="&#x152;" horiz-adv-x="1625" 
d="M915 1340v-641h450v-30h-450v-659h610v-30h-730q-188 0 -348 93.5t-253.5 253.5t-93.5 348t93.5 348t253.5 253.5t348 93.5h730v-30h-610zM795 1340q-156 0 -288 -89.5t-209.5 -242.5t-77.5 -333t77.5 -333t209.5 -242.5t288 -89.5v1330z" />
    <glyph glyph-name="oe" unicode="&#x153;" horiz-adv-x="1625" 
d="M915 1340v-641h450v-30h-450v-659h610v-30h-730q-188 0 -348 93.5t-253.5 253.5t-93.5 348t93.5 348t253.5 253.5t348 93.5h730v-30h-610zM795 1340q-156 0 -288 -89.5t-209.5 -242.5t-77.5 -333t77.5 -333t209.5 -242.5t288 -89.5v1330z" />
    <glyph glyph-name="Racute" unicode="&#x154;" horiz-adv-x="1233" 
d="M2233 -239q-14 -13 -35 -37q-55 -61 -112.5 -107t-163 -81.5t-259.5 -35.5q-206 0 -337.5 74t-206 182.5t-165.5 295.5q-69 143 -124 235.5t-139 176.5t-201 136h-270v-600h-120v1350h470q100 0 192.5 -50t149.5 -136t57 -188q0 -100 -57.5 -186.5t-150 -138
t-191.5 -51.5h-38q131 -28 226 -105t158 -173t145 -253q94 -180 169 -286.5t196 -179.5t297 -73q122 0 213.5 35.5t145 78.5t103.5 97q6 8 18 20h30zM550 630q83 0 151.5 48t108 128t39.5 170q0 97 -37.5 175.5t-105.5 123.5t-156 45h-330v-690h330zM430 1512q17 10 105 82
q9 8 46.5 38t51.5 38q11 6 21 6q11 0 21 -5.5t15 -15.5q5 -9 5 -21t-5 -21.5t-15 -14.5q-22 -12 -111 -45q-13 -5 -62 -24.5t-65 -28.5z" />
    <glyph glyph-name="racute" unicode="&#x155;" horiz-adv-x="1119" 
d="M1019 0h-42l-587 600h-170v-600h-120v1350h470q100 0 192.5 -50t149.5 -136t57 -188q0 -100 -57.5 -186.5t-150 -138t-191.5 -51.5h-138zM550 630q83 0 151.5 48t108 128t39.5 170q0 97 -37.5 175.5t-105.5 123.5t-156 45h-330v-690h330zM430 1512q17 10 105 82
q9 8 46.5 38t51.5 38q11 6 21 6q11 0 21 -5.5t15 -15.5q5 -9 5 -21t-5 -21.5t-15 -14.5q-22 -12 -111 -45q-13 -5 -62 -24.5t-65 -28.5z" />
    <glyph glyph-name="Rcaron" unicode="&#x158;" horiz-adv-x="1233" 
d="M2233 -239q-14 -13 -35 -37q-55 -61 -112.5 -107t-163 -81.5t-259.5 -35.5q-206 0 -337.5 74t-206 182.5t-165.5 295.5q-69 143 -124 235.5t-139 176.5t-201 136h-270v-600h-120v1350h470q100 0 192.5 -50t149.5 -136t57 -188q0 -100 -57.5 -186.5t-150 -138
t-191.5 -51.5h-38q131 -28 226 -105t158 -173t145 -253q94 -180 169 -286.5t196 -179.5t297 -73q122 0 213.5 35.5t145 78.5t103.5 97q6 8 18 20h30zM550 630q83 0 151.5 48t108 128t39.5 170q0 97 -37.5 175.5t-105.5 123.5t-156 45h-330v-690h330zM626 1713q0 -13 -7 -23
q-9 -13 -40.5 -46t-45.5 -49q-71 -71 -88 -95h-16q-17 24 -88 95q-14 16 -45.5 49t-40.5 46q-7 10 -7 23q0 21 17 35q11 8 23 8q10 0 19.5 -5t15.5 -14q10 -15 62 -120q43 -88 52 -104q9 16 52 104q52 105 62 120q6 9 15.5 14t19.5 5q12 0 23 -8q17 -14 17 -35z" />
    <glyph glyph-name="rcaron" unicode="&#x159;" horiz-adv-x="1119" 
d="M1019 0h-42l-587 600h-170v-600h-120v1350h470q100 0 192.5 -50t149.5 -136t57 -188q0 -100 -57.5 -186.5t-150 -138t-191.5 -51.5h-138zM550 630q83 0 151.5 48t108 128t39.5 170q0 97 -37.5 175.5t-105.5 123.5t-156 45h-330v-690h330zM626 1713q0 -13 -7 -23
q-9 -13 -40.5 -46t-45.5 -49q-71 -71 -88 -95h-16q-17 24 -88 95q-14 16 -45.5 49t-40.5 46q-7 10 -7 23q0 21 17 35q11 8 23 8q10 0 19.5 -5t15.5 -14q10 -15 62 -120q43 -88 52 -104q9 16 52 104q52 105 62 120q6 9 15.5 14t19.5 5q12 0 23 -8q17 -14 17 -35z" />
    <glyph glyph-name="Sacute" unicode="&#x15a;" horiz-adv-x="1312" 
d="M425.5 951.5q46.5 -69.5 116 -124t190.5 -134.5q154 -101 249.5 -180t163 -195t67.5 -268q0 -173 -85 -297.5t-220 -188.5t-281 -64q-135 0 -256 54t-195.5 155.5t-74.5 236.5q0 117 56 218t150 161t202 60q109 0 195.5 -56t134 -139.5t46.5 -161.5h-30q0 47 -45 113.5
t-124 115t-177 48.5q-101 0 -186.5 -43t-136 -124t-50.5 -192q0 -131 71 -225.5t183.5 -142.5t236.5 -48q126 0 242.5 55t190 164t73.5 261q0 123 -62.5 224.5t-152 177t-238.5 180.5q-129 91 -204 152.5t-125.5 137t-50.5 162.5q0 98 48.5 172t133 114t189.5 40
q78 0 153.5 -28.5t136.5 -83.5v-70q-63 76 -131 112t-159 40q-91 0 -156.5 -29.5t-100 -83t-34.5 -123.5q0 -83 46.5 -152.5zM663 1512q17 10 105 82q9 8 46.5 38t51.5 38q11 6 21 6q11 0 21 -5.5t15 -15.5q5 -9 5 -21t-5 -21.5t-15 -14.5q-22 -12 -111 -45
q-13 -5 -62 -24.5t-65 -28.5z" />
    <glyph glyph-name="sacute" unicode="&#x15b;" horiz-adv-x="996" 
d="M646.5 1300q-68.5 36 -159.5 40q-91 0 -156.5 -29.5t-99.5 -83t-34 -123.5q0 -79 35.5 -125.5t92.5 -80.5l304 -182l32 -21q76 -50 122.5 -91t79.5 -106.5t33 -158.5q0 -91 -52.5 -174t-146 -134t-210.5 -51q-119 0 -207 38.5t-180 121.5v70q90 -101 180 -150.5
t207 -49.5q96 0 171.5 40.5t116.5 103.5t41 125q0 72 -25 124.5t-58 84.5t-80 66q-6 4 -12 8.5t-12 9.5l-339 206q-79 53 -126 118t-47 148q0 98 48 172t132.5 114t189.5 40q78 0 154 -28.5t137 -83.5v-70q-63 76 -131.5 112zM480 1512q17 10 105 82q9 8 46.5 38t51.5 38
q11 6 21 6q11 0 21 -5.5t15 -15.5q5 -9 5 -21t-5 -21.5t-15 -14.5q-22 -12 -111 -45q-13 -5 -62 -24.5t-65 -28.5z" />
    <glyph glyph-name="Scircumflex" unicode="&#x15c;" horiz-adv-x="1312" 
d="M425.5 951.5q46.5 -69.5 116 -124t190.5 -134.5q154 -101 249.5 -180t163 -195t67.5 -268q0 -173 -85 -297.5t-220 -188.5t-281 -64q-135 0 -256 54t-195.5 155.5t-74.5 236.5q0 117 56 218t150 161t202 60q109 0 195.5 -56t134 -139.5t46.5 -161.5h-30q0 47 -45 113.5
t-124 115t-177 48.5q-101 0 -186.5 -43t-136 -124t-50.5 -192q0 -131 71 -225.5t183.5 -142.5t236.5 -48q126 0 242.5 55t190 164t73.5 261q0 123 -62.5 224.5t-152 177t-238.5 180.5q-129 91 -204 152.5t-125.5 137t-50.5 162.5q0 98 48.5 172t133 114t189.5 40
q78 0 153.5 -28.5t136.5 -83.5v-70q-63 76 -131 112t-159 40q-91 0 -156.5 -29.5t-100 -83t-34.5 -123.5q0 -83 46.5 -152.5zM859 1543q0 -21 -17 -35q-11 -8 -23 -8q-10 0 -19.5 5t-15.5 14q-10 15 -62 120q-43 88 -52 104q-9 -16 -52 -104q-52 -105 -62 -120
q-6 -9 -15.5 -14t-19.5 -5q-12 0 -23 8q-17 14 -17 35q0 13 7 23q9 13 40.5 46t45.5 49q71 71 88 95h16q17 -24 88 -95q14 -16 45.5 -49t40.5 -46q7 -10 7 -23z" />
    <glyph glyph-name="scircumflex" unicode="&#x15d;" horiz-adv-x="996" 
d="M646.5 1300q-68.5 36 -159.5 40q-91 0 -156.5 -29.5t-99.5 -83t-34 -123.5q0 -79 35.5 -125.5t92.5 -80.5l304 -182l32 -21q76 -50 122.5 -91t79.5 -106.5t33 -158.5q0 -91 -52.5 -174t-146 -134t-210.5 -51q-119 0 -207 38.5t-180 121.5v70q90 -101 180 -150.5
t207 -49.5q96 0 171.5 40.5t116.5 103.5t41 125q0 72 -25 124.5t-58 84.5t-80 66q-6 4 -12 8.5t-12 9.5l-339 206q-79 53 -126 118t-47 148q0 98 48 172t132.5 114t189.5 40q78 0 154 -28.5t137 -83.5v-70q-63 76 -131.5 112zM676 1543q0 -21 -17 -35q-11 -8 -23 -8
q-10 0 -19.5 5t-15.5 14q-10 15 -62 120q-43 88 -52 104q-9 -16 -52 -104q-52 -105 -62 -120q-6 -9 -15.5 -14t-19.5 -5q-12 0 -23 8q-17 14 -17 35q0 13 7 23q9 13 40.5 46t45.5 49q71 71 88 95h16q17 -24 88 -95q14 -16 45.5 -49t40.5 -46q7 -10 7 -23z" />
    <glyph glyph-name="Scedilla" unicode="&#x15e;" horiz-adv-x="1312" 
d="M425.5 951.5q46.5 -69.5 116 -124t190.5 -134.5q154 -101 249.5 -180t163 -195t67.5 -268q0 -173 -85 -297.5t-220 -188.5t-281 -64q-135 0 -256 54t-195.5 155.5t-74.5 236.5q0 117 56 218t150 161t202 60q109 0 195.5 -56t134 -139.5t46.5 -161.5h-30q0 47 -45 113.5
t-124 115t-177 48.5q-101 0 -186.5 -43t-136 -124t-50.5 -192q0 -131 71 -225.5t183.5 -142.5t236.5 -48q126 0 242.5 55t190 164t73.5 261q0 123 -62.5 224.5t-152 177t-238.5 180.5q-129 91 -204 152.5t-125.5 137t-50.5 162.5q0 98 48.5 172t133 114t189.5 40
q78 0 153.5 -28.5t136.5 -83.5v-70q-63 76 -131 112t-159 40q-91 0 -156.5 -29.5t-100 -83t-34.5 -123.5q0 -83 46.5 -152.5zM637 -500l-26 -87q52 0 99.5 -18t77 -52.5t29.5 -82.5q0 -78 -92 -121.5t-241 -60.5l10 30q109 13 166 55t57 97q0 54 -36.5 88.5t-100.5 34.5
l37 117h20z" />
    <glyph glyph-name="scedilla" unicode="&#x15f;" horiz-adv-x="996" 
d="M646.5 1300q-68.5 36 -159.5 40q-91 0 -156.5 -29.5t-99.5 -83t-34 -123.5q0 -79 35.5 -125.5t92.5 -80.5l304 -182l32 -21q76 -50 122.5 -91t79.5 -106.5t33 -158.5q0 -91 -52.5 -174t-146 -134t-210.5 -51q-119 0 -207 38.5t-180 121.5v70q90 -101 180 -150.5
t207 -49.5q96 0 171.5 40.5t116.5 103.5t41 125q0 72 -25 124.5t-58 84.5t-80 66q-6 4 -12 8.5t-12 9.5l-339 206q-79 53 -126 118t-47 148q0 98 48 172t132.5 114t189.5 40q78 0 154 -28.5t137 -83.5v-70q-63 76 -131.5 112zM498 -20l-26 -87q52 0 99.5 -18t77 -52.5
t29.5 -82.5q0 -78 -92 -121.5t-241 -60.5l10 30q109 13 166 55t57 97q0 54 -36.5 88.5t-100.5 34.5l37 117h20z" />
    <glyph glyph-name="Scaron" unicode="&#x160;" horiz-adv-x="1312" 
d="M425.5 951.5q46.5 -69.5 116 -124t190.5 -134.5q154 -101 249.5 -180t163 -195t67.5 -268q0 -173 -85 -297.5t-220 -188.5t-281 -64q-135 0 -256 54t-195.5 155.5t-74.5 236.5q0 117 56 218t150 161t202 60q109 0 195.5 -56t134 -139.5t46.5 -161.5h-30q0 47 -45 113.5
t-124 115t-177 48.5q-101 0 -186.5 -43t-136 -124t-50.5 -192q0 -131 71 -225.5t183.5 -142.5t236.5 -48q126 0 242.5 55t190 164t73.5 261q0 123 -62.5 224.5t-152 177t-238.5 180.5q-129 91 -204 152.5t-125.5 137t-50.5 162.5q0 98 48.5 172t133 114t189.5 40
q78 0 153.5 -28.5t136.5 -83.5v-70q-63 76 -131 112t-159 40q-91 0 -156.5 -29.5t-100 -83t-34.5 -123.5q0 -83 46.5 -152.5zM859 1713q0 -13 -7 -23q-9 -13 -40.5 -46t-45.5 -49q-71 -71 -88 -95h-16q-17 24 -88 95q-14 16 -45.5 49t-40.5 46q-7 10 -7 23q0 21 17 35
q11 8 23 8q10 0 19.5 -5t15.5 -14q10 -15 62 -120q43 -88 52 -104q9 16 52 104q52 105 62 120q6 9 15.5 14t19.5 5q12 0 23 -8q17 -14 17 -35z" />
    <glyph glyph-name="scaron" unicode="&#x161;" horiz-adv-x="996" 
d="M646.5 1300q-68.5 36 -159.5 40q-91 0 -156.5 -29.5t-99.5 -83t-34 -123.5q0 -79 35.5 -125.5t92.5 -80.5l304 -182l32 -21q76 -50 122.5 -91t79.5 -106.5t33 -158.5q0 -91 -52.5 -174t-146 -134t-210.5 -51q-119 0 -207 38.5t-180 121.5v70q90 -101 180 -150.5
t207 -49.5q96 0 171.5 40.5t116.5 103.5t41 125q0 72 -25 124.5t-58 84.5t-80 66q-6 4 -12 8.5t-12 9.5l-339 206q-79 53 -126 118t-47 148q0 98 48 172t132.5 114t189.5 40q78 0 154 -28.5t137 -83.5v-70q-63 76 -131.5 112zM676 1713q0 -13 -7 -23q-9 -13 -40.5 -46
t-45.5 -49q-71 -71 -88 -95h-16q-17 24 -88 95q-14 16 -45.5 49t-40.5 46q-7 10 -7 23q0 21 17 35q11 8 23 8q10 0 19.5 -5t15.5 -14q10 -15 62 -120q43 -88 52 -104q9 16 52 104q52 105 62 120q6 9 15.5 14t19.5 5q12 0 23 -8q17 -14 17 -35z" />
    <glyph glyph-name="Tcaron" unicode="&#x164;" horiz-adv-x="1180" 
d="M1080 1320h-430v-1320h-120v1320h-430v30h980v-30zM779 1713q0 -13 -7 -23q-9 -13 -40.5 -46t-45.5 -49q-71 -71 -88 -95h-16q-17 24 -88 95q-14 16 -45.5 49t-40.5 46q-7 10 -7 23q0 21 17 35q11 8 23 8q10 0 19.5 -5t15.5 -14q10 -15 62 -120q43 -88 52 -104
q9 16 52 104q52 105 62 120q6 9 15.5 14t19.5 5q12 0 23 -8q17 -14 17 -35z" />
    <glyph glyph-name="tcaron" unicode="&#x165;" horiz-adv-x="1180" 
d="M1080 1320h-430v-1320h-120v1320h-430v30h980v-30zM779 1713q0 -13 -7 -23q-9 -13 -40.5 -46t-45.5 -49q-71 -71 -88 -95h-16q-17 24 -88 95q-14 16 -45.5 49t-40.5 46q-7 10 -7 23q0 21 17 35q11 8 23 8q10 0 19.5 -5t15.5 -14q10 -15 62 -120q43 -88 52 -104
q9 16 52 104q52 105 62 120q6 9 15.5 14t19.5 5q12 0 23 -8q17 -14 17 -35z" />
    <glyph glyph-name="Utilde" unicode="&#x168;" horiz-adv-x="1261" 
d="M1161 1350v-795q0 -212 -74.5 -340.5t-185 -181.5t-230.5 -53q-121 0 -239.5 53t-199.5 180.5t-81 336.5v585q0 157 -90.5 284.5t-228.5 200t-272 72.5q-122 0 -213.5 -36t-145 -79.5t-105.5 -99.5l-19 -21h-30q4 3 36 38q55 62 113 108.5t164 83t260 36.5
q176 0 324 -68.5t237.5 -207.5t89.5 -341v-555q0 -190 56 -311t146.5 -175t197.5 -54q114 0 218 50t173 171.5t69 323.5v795h30zM424.5 1607.5q23.5 38.5 62.5 60.5t84 22q51 0 81 -17.5t61 -50.5q27 -26 47 -39t51 -13q45 0 72.5 27.5t27.5 72.5h30q0 -49 -23.5 -87.5
t-62.5 -60.5t-84 -22q-51 0 -81 17.5t-61 50.5q-26 27 -46.5 39.5t-51.5 12.5q-45 0 -72.5 -27.5t-27.5 -72.5h-30q0 49 23.5 87.5z" />
    <glyph glyph-name="utilde" unicode="&#x169;" horiz-adv-x="1150" 
d="M1050 1350v-795q0 -215 -60.5 -343t-156.5 -180t-213 -52q-121 0 -239.5 53t-199.5 180.5t-81 336.5v800h120v-800q0 -190 56 -311t146.5 -175t197.5 -54q174 0 287 124t113 421v795h30zM373.5 1607.5q23.5 38.5 62.5 60.5t84 22q51 0 81 -17.5t61 -50.5q27 -26 47 -39
t51 -13q45 0 72.5 27.5t27.5 72.5h30q0 -49 -23.5 -87.5t-62.5 -60.5t-84 -22q-51 0 -81 17.5t-61 50.5q-26 27 -46.5 39.5t-51.5 12.5q-45 0 -72.5 -27.5t-27.5 -72.5h-30q0 49 23.5 87.5z" />
    <glyph glyph-name="Umacron" unicode="&#x16a;" horiz-adv-x="1261" 
d="M1161 1350v-795q0 -212 -74.5 -340.5t-185 -181.5t-230.5 -53q-121 0 -239.5 53t-199.5 180.5t-81 336.5v585q0 157 -90.5 284.5t-228.5 200t-272 72.5q-122 0 -213.5 -36t-145 -79.5t-105.5 -99.5l-19 -21h-30q4 3 36 38q55 62 113 108.5t164 83t260 36.5
q176 0 324 -68.5t237.5 -207.5t89.5 -341v-555q0 -190 56 -311t146.5 -175t197.5 -54q114 0 218 50t173 171.5t69 323.5v795h30zM881 1530v-30h-420v30h420z" />
    <glyph glyph-name="umacron" unicode="&#x16b;" horiz-adv-x="1150" 
d="M1050 1350v-795q0 -215 -60.5 -343t-156.5 -180t-213 -52q-121 0 -239.5 53t-199.5 180.5t-81 336.5v800h120v-800q0 -190 56 -311t146.5 -175t197.5 -54q174 0 287 124t113 421v795h30zM830 1530v-30h-420v30h420z" />
    <glyph glyph-name="Ubreve" unicode="&#x16c;" horiz-adv-x="1261" 
d="M1161 1350v-795q0 -212 -74.5 -340.5t-185 -181.5t-230.5 -53q-121 0 -239.5 53t-199.5 180.5t-81 336.5v585q0 157 -90.5 284.5t-228.5 200t-272 72.5q-122 0 -213.5 -36t-145 -79.5t-105.5 -99.5l-19 -21h-30q4 3 36 38q55 62 113 108.5t164 83t260 36.5
q176 0 324 -68.5t237.5 -207.5t89.5 -341v-555q0 -190 56 -311t146.5 -175t197.5 -54q114 0 218 50t173 171.5t69 323.5v795h30zM531 1650q0 -30 35.5 -49.5t104.5 -19.5t104.5 19.5t35.5 49.5h30q0 -45 -24.5 -79t-64 -52.5t-81.5 -18.5t-81.5 18.5t-64 52.5t-24.5 79h30z
" />
    <glyph glyph-name="ubreve" unicode="&#x16d;" horiz-adv-x="1150" 
d="M1050 1350v-795q0 -215 -60.5 -343t-156.5 -180t-213 -52q-121 0 -239.5 53t-199.5 180.5t-81 336.5v800h120v-800q0 -190 56 -311t146.5 -175t197.5 -54q174 0 287 124t113 421v795h30zM480 1650q0 -30 35.5 -49.5t104.5 -19.5t104.5 19.5t35.5 49.5h30q0 -45 -24.5 -79
t-64 -52.5t-81.5 -18.5t-81.5 18.5t-64 52.5t-24.5 79h30z" />
    <glyph glyph-name="Uring" unicode="&#x16e;" horiz-adv-x="1261" 
d="M1161 1350v-795q0 -212 -74.5 -340.5t-185 -181.5t-230.5 -53q-121 0 -239.5 53t-199.5 180.5t-81 336.5v585q0 157 -90.5 284.5t-228.5 200t-272 72.5q-122 0 -213.5 -36t-145 -79.5t-105.5 -99.5l-19 -21h-30q4 3 36 38q55 62 113 108.5t164 83t260 36.5
q176 0 324 -68.5t237.5 -207.5t89.5 -341v-555q0 -190 56 -311t146.5 -175t197.5 -54q114 0 218 50t173 171.5t69 323.5v795h30zM541 1725.5q20 34.5 54.5 54.5t75.5 20t75.5 -20t54.5 -54.5t20 -75.5t-20 -75.5t-54.5 -54.5t-75.5 -20t-75.5 20t-54.5 54.5t-20 75.5
t20 75.5zM586 1565q35 -35 85 -35t85 35t35 85t-35 85t-85 35t-85 -35t-35 -85t35 -85z" />
    <glyph glyph-name="uring" unicode="&#x16f;" horiz-adv-x="1150" 
d="M1050 1350v-795q0 -215 -60.5 -343t-156.5 -180t-213 -52q-121 0 -239.5 53t-199.5 180.5t-81 336.5v800h120v-800q0 -190 56 -311t146.5 -175t197.5 -54q174 0 287 124t113 421v795h30zM490 1725.5q20 34.5 54.5 54.5t75.5 20t75.5 -20t54.5 -54.5t20 -75.5t-20 -75.5
t-54.5 -54.5t-75.5 -20t-75.5 20t-54.5 54.5t-20 75.5t20 75.5zM535 1565q35 -35 85 -35t85 35t35 85t-35 85t-85 35t-85 -35t-35 -85t35 -85z" />
    <glyph glyph-name="Uhungarumlaut" unicode="&#x170;" horiz-adv-x="1261" 
d="M1161 1350v-795q0 -212 -74.5 -340.5t-185 -181.5t-230.5 -53q-121 0 -239.5 53t-199.5 180.5t-81 336.5v585q0 157 -90.5 284.5t-228.5 200t-272 72.5q-122 0 -213.5 -36t-145 -79.5t-105.5 -99.5l-19 -21h-30q4 3 36 38q55 62 113 108.5t164 83t260 36.5
q176 0 324 -68.5t237.5 -207.5t89.5 -341v-555q0 -190 56 -311t146.5 -175t197.5 -54q114 0 218 50t173 171.5t69 323.5v795h30zM564 1508q15 23 58 115q9 17 29.5 59t29.5 55q6 9 15.5 14t19.5 5q12 0 23 -8q17 -14 17 -35q0 -13 -7 -23q-9 -13 -40.5 -46t-45.5 -49
q-71 -71 -88 -95zM754 1508q15 23 58 115q9 17 29.5 59t29.5 55q6 9 15.5 14t19.5 5q12 0 23 -8q17 -14 17 -35q0 -13 -7 -23q-9 -13 -40.5 -46t-45.5 -49q-71 -71 -88 -95z" />
    <glyph glyph-name="uhungarumlaut" unicode="&#x171;" horiz-adv-x="1150" 
d="M1050 1350v-795q0 -215 -60.5 -343t-156.5 -180t-213 -52q-121 0 -239.5 53t-199.5 180.5t-81 336.5v800h120v-800q0 -190 56 -311t146.5 -175t197.5 -54q174 0 287 124t113 421v795h30zM513 1508q15 23 58 115q9 17 29.5 59t29.5 55q6 9 15.5 14t19.5 5q12 0 23 -8
q17 -14 17 -35q0 -13 -7 -23q-9 -13 -40.5 -46t-45.5 -49q-71 -71 -88 -95zM703 1508q15 23 58 115q9 17 29.5 59t29.5 55q6 9 15.5 14t19.5 5q12 0 23 -8q17 -14 17 -35q0 -13 -7 -23q-9 -13 -40.5 -46t-45.5 -49q-71 -71 -88 -95z" />
    <glyph glyph-name="Uogonek" unicode="&#x172;" horiz-adv-x="1261" 
d="M1161 1350v-795q0 -212 -74.5 -340.5t-185 -181.5t-230.5 -53q-121 0 -239.5 53t-199.5 180.5t-81 336.5v585q0 157 -90.5 284.5t-228.5 200t-272 72.5q-122 0 -213.5 -36t-145 -79.5t-105.5 -99.5l-19 -21h-30q4 3 36 38q55 62 113 108.5t164 83t260 36.5
q176 0 324 -68.5t237.5 -207.5t89.5 -341v-555q0 -190 56 -311t146.5 -175t197.5 -54q114 0 218 50t173 171.5t69 323.5v795h30zM584.5 -98.5q-45.5 -53.5 -45.5 -135.5q0 -84 39.5 -126t99.5 -42q68 0 111 27t79 85l21 -18q-38 -61 -93.5 -97.5t-147.5 -36.5q-50 0 -101 21
t-84.5 63.5t-33.5 103.5q0 63 41 110t86.5 73t101.5 51h33q-61 -25 -106.5 -78.5z" />
    <glyph glyph-name="uogonek" unicode="&#x173;" horiz-adv-x="1150" 
d="M1050 1350v-795q0 -215 -60.5 -343t-156.5 -180t-213 -52q-121 0 -239.5 53t-199.5 180.5t-81 336.5v800h120v-800q0 -190 56 -311t146.5 -175t197.5 -54q174 0 287 124t113 421v795h30zM533.5 -98.5q-45.5 -53.5 -45.5 -135.5q0 -84 39.5 -126t99.5 -42q68 0 111 27
t79 85l21 -18q-38 -61 -93.5 -97.5t-147.5 -36.5q-50 0 -101 21t-84.5 63.5t-33.5 103.5q0 63 41 110t86.5 73t101.5 51h33q-61 -25 -106.5 -78.5z" />
    <glyph glyph-name="Wcircumflex" unicode="&#x174;" horiz-adv-x="1609" 
d="M1059 0l-275 825l-275 -825l-450 1350h127l371 -1113l211 636l-94 282q-55 166 -142 286.5t-199.5 185.5t-242.5 65q-121 0 -212 -35.5t-145 -80t-103 -98.5l-20 -22h-30q16 15 36 39q55 62 112.5 108.5t162.5 82.5t259 36q146 0 257 -44.5t195 -136.5v3q0 10 7 22
q9 13 40.5 46t45.5 49q71 71 88 95h16q17 -24 88 -95q14 -16 45.5 -49t40.5 -46q7 -10 7 -23q0 -21 -17 -35q-11 -8 -23 -8q-10 0 -19.5 5t-15.5 14q-10 15 -62 120q-43 88 -52 104q-9 -16 -52 -104q-52 -105 -62 -120q-7 -10 -19 -15t-23 -3q98 -129 166 -346l31 -92
l95 287h32l-112 -335l260 -778l370 1113h32z" />
    <glyph glyph-name="wcircumflex" unicode="&#x175;" horiz-adv-x="1650" 
d="M1100 0l-275 825l-275 -825l-450 1350h127l371 -1113l211 636l-159 477h127l96 -287l95 287h32l-112 -335l260 -778l370 1113h32zM1014 1543q0 -21 -17 -35q-11 -8 -23 -8q-10 0 -19.5 5t-15.5 14q-10 15 -62 120q-43 88 -52 104q-9 -16 -52 -104q-52 -105 -62 -120
q-6 -9 -15.5 -14t-19.5 -5q-12 0 -23 8q-17 14 -17 35q0 13 7 23q9 13 40.5 46t45.5 49q71 71 88 95h16q17 -24 88 -95q14 -16 45.5 -49t40.5 -46q7 -10 7 -23z" />
    <glyph glyph-name="Ycircumflex" unicode="&#x176;" horiz-adv-x="1237" 
d="M1137 1350l-467 -760v-590h-120v600l-329 550l-32 49q-126 189 -199.5 282.5t-164 149.5t-209.5 56q-122 0 -213.5 -35.5t-145 -78.5t-103.5 -97q-6 -8 -18 -20h-30q14 13 35 37q55 61 112.5 107t163 81.5t259.5 35.5q166 0 274 -58t190.5 -167.5t220.5 -341.5l305 -510
l436 710h35zM839 1543q0 -21 -17 -35q-11 -8 -23 -8q-10 0 -19.5 5t-15.5 14q-10 15 -62 120q-43 88 -52 104q-9 -16 -52 -104q-52 -105 -62 -120q-6 -9 -15.5 -14t-19.5 -5q-12 0 -23 8q-17 14 -17 35q0 13 7 23q9 13 40.5 46t45.5 49q71 71 88 95h16q17 -24 88 -95
q14 -16 45.5 -49t40.5 -46q7 -10 7 -23z" />
    <glyph glyph-name="ycircumflex" unicode="&#x177;" horiz-adv-x="1237" 
d="M240 1350l426 -710l436 710h35l-467 -760v-590h-120v600l-450 750h140zM839 1543q0 -21 -17 -35q-11 -8 -23 -8q-10 0 -19.5 5t-15.5 14q-10 15 -62 120q-43 88 -52 104q-9 -16 -52 -104q-52 -105 -62 -120q-6 -9 -15.5 -14t-19.5 -5q-12 0 -23 8q-17 14 -17 35
q0 13 7 23q9 13 40.5 46t45.5 49q71 71 88 95h16q17 -24 88 -95q14 -16 45.5 -49t40.5 -46q7 -10 7 -23z" />
    <glyph glyph-name="Ydieresis" unicode="&#x178;" horiz-adv-x="1237" 
d="M1137 1350l-467 -760v-590h-120v600l-329 550l-32 49q-126 189 -199.5 282.5t-164 149.5t-209.5 56q-122 0 -213.5 -35.5t-145 -78.5t-103.5 -97q-6 -8 -18 -20h-30q14 13 35 37q55 61 112.5 107t163 81.5t259.5 35.5q166 0 274 -58t190.5 -167.5t220.5 -341.5l305 -510
l436 710h35zM434.5 1524.5q-24.5 24.5 -24.5 60.5q0 35 24.5 60t60.5 25q35 0 60 -25t25 -60q0 -36 -25 -60.5t-60 -24.5q-36 0 -60.5 24.5zM744.5 1524.5q-24.5 24.5 -24.5 60.5q0 35 24.5 60t60.5 25q35 0 60 -25t25 -60q0 -36 -25 -60.5t-60 -24.5q-36 0 -60.5 24.5z" />
    <glyph glyph-name="Zdotaccent" unicode="&#x17b;" horiz-adv-x="1191" 
d="M1031.5 1112q-59.5 -118 -146 -220.5t-230.5 -252.5q-129 -135 -206 -224t-132.5 -188.5t-63.5 -196.5h838v-30h-991q0 120 60 238t146.5 221t230.5 252q129 135 206 224t132.5 188.5t63.5 196.5h-809v30h961q0 -120 -59.5 -238zM550.5 1524.5q-24.5 24.5 -24.5 60.5
q0 35 24.5 60t60.5 25q35 0 60 -25t25 -60q0 -36 -25 -60.5t-60 -24.5q-36 0 -60.5 24.5z" />
    <glyph glyph-name="zdotaccent" unicode="&#x17c;" horiz-adv-x="1191" 
d="M1091 30v-30h-991l792 1320h-762v30h931l-791 -1320h821zM530.5 1524.5q-24.5 24.5 -24.5 60.5q0 35 24.5 60t60.5 25q35 0 60 -25t25 -60q0 -36 -25 -60.5t-60 -24.5q-36 0 -60.5 24.5z" />
    <glyph glyph-name="Zcaron" unicode="&#x17d;" horiz-adv-x="1191" 
d="M1031.5 1112q-59.5 -118 -146 -220.5t-230.5 -252.5q-129 -135 -206 -224t-132.5 -188.5t-63.5 -196.5h838v-30h-991q0 120 60 238t146.5 221t230.5 252q129 135 206 224t132.5 188.5t63.5 196.5h-809v30h961q0 -120 -59.5 -238zM800 1713q0 -13 -7 -23q-9 -13 -40.5 -46
t-45.5 -49q-71 -71 -88 -95h-16q-17 24 -88 95q-14 16 -45.5 49t-40.5 46q-7 10 -7 23q0 21 17 35q11 8 23 8q10 0 19.5 -5t15.5 -14q10 -15 62 -120q43 -88 52 -104q9 16 52 104q52 105 62 120q6 9 15.5 14t19.5 5q12 0 23 -8q17 -14 17 -35z" />
    <glyph glyph-name="zcaron" unicode="&#x17e;" horiz-adv-x="1191" 
d="M1091 30v-30h-991l792 1320h-762v30h931l-791 -1320h821zM780 1713q0 -13 -7 -23q-9 -13 -40.5 -46t-45.5 -49q-71 -71 -88 -95h-16q-17 24 -88 95q-14 16 -45.5 49t-40.5 46q-7 10 -7 23q0 21 17 35q11 8 23 8q10 0 19.5 -5t15.5 -14q10 -15 62 -120q43 -88 52 -104
q9 16 52 104q52 105 62 120q6 9 15.5 14t19.5 5q12 0 23 -8q17 -14 17 -35z" />
    <glyph glyph-name="uni0228" unicode="&#x228;" horiz-adv-x="913" 
d="M1813 -239q-14 -13 -35 -37q-55 -61 -112.5 -107t-163 -81.5t-259.5 -35.5q-147 0 -279 44.5t-234 106t-240 158.5q-93 66 -152 104t-120 62.5t-118 24.5v1350h730v-30h-610v-621h450v-30h-450v-642q67 -8 144.5 -41.5t153 -77.5t191.5 -117q138 -87 228.5 -138
t186.5 -87t179 -36q122 0 213.5 35.5t145 78.5t103.5 97q6 8 18 20h30zM1254 -500l-26 -87q52 0 99.5 -18t77 -52.5t29.5 -82.5q0 -78 -92 -121.5t-241 -60.5l10 30q109 13 166 55t57 97q0 54 -36.5 88.5t-100.5 34.5l37 117h20z" />
    <glyph glyph-name="uni0229" unicode="&#x229;" horiz-adv-x="930" 
d="M220 1320v-621h450v-30h-450v-639h610v-30h-730v1350h730v-30h-610zM476 0l-26 -87q52 0 99.5 -18t77 -52.5t29.5 -82.5q0 -78 -92 -121.5t-241 -60.5l10 30q109 13 166 55t57 97q0 54 -36.5 88.5t-100.5 34.5l37 117h20z" />
    <glyph glyph-name="circumflex" unicode="&#x2c6;" horiz-adv-x="458" 
d="M418 1543q0 -21 -17 -35q-11 -8 -23 -8q-10 0 -19.5 5t-15.5 14q-10 15 -62 120q-43 88 -52 104q-9 -16 -52 -104q-52 -105 -62 -120q-6 -9 -15.5 -14t-19.5 -5q-12 0 -23 8q-17 14 -17 35q0 13 7 23q9 13 40.5 46t45.5 49q71 71 88 95h16q17 -24 88 -95q14 -16 45.5 -49
t40.5 -46q7 -10 7 -23z" />
    <glyph glyph-name="caron" unicode="&#x2c7;" horiz-adv-x="458" 
d="M418 1713q0 -13 -7 -23q-9 -13 -40.5 -46t-45.5 -49q-71 -71 -88 -95h-16q-17 24 -88 95q-14 16 -45.5 49t-40.5 46q-7 10 -7 23q0 21 17 35q11 8 23 8q10 0 19.5 -5t15.5 -14q10 -15 62 -120q43 -88 52 -104q9 16 52 104q52 105 62 120q6 9 15.5 14t19.5 5q12 0 23 -8
q17 -14 17 -35z" />
    <glyph glyph-name="breve" unicode="&#x2d8;" horiz-adv-x="380" 
d="M50 1650q0 -30 35.5 -49.5t104.5 -19.5t104.5 19.5t35.5 49.5h30q0 -45 -24.5 -79t-64 -52.5t-81.5 -18.5t-81.5 18.5t-64 52.5t-24.5 79h30z" />
    <glyph glyph-name="dotaccent" unicode="&#x2d9;" horiz-adv-x="290" 
d="M84.5 1524.5q-24.5 24.5 -24.5 60.5q0 35 24.5 60t60.5 25q35 0 60 -25t25 -60q0 -36 -25 -60.5t-60 -24.5q-36 0 -60.5 24.5z" />
    <glyph glyph-name="ring" unicode="&#x2da;" horiz-adv-x="380" 
d="M60 1725.5q20 34.5 54.5 54.5t75.5 20t75.5 -20t54.5 -54.5t20 -75.5t-20 -75.5t-54.5 -54.5t-75.5 -20t-75.5 20t-54.5 54.5t-20 75.5t20 75.5zM105 1565q35 -35 85 -35t85 35t35 85t-35 85t-85 35t-85 -35t-35 -85t35 -85z" />
    <glyph glyph-name="ogonek" unicode="&#x2db;" horiz-adv-x="540" 
d="M195.5 -78.5q-45.5 -53.5 -45.5 -135.5q0 -84 39.5 -126t99.5 -42q68 0 111 27t79 85l21 -18q-38 -61 -93.5 -97.5t-147.5 -36.5q-50 0 -101 21t-84.5 63.5t-33.5 103.5q0 63 41 110t86.5 73t101.5 51h33q-61 -25 -106.5 -78.5z" />
    <glyph glyph-name="tilde" unicode="&#x2dc;" horiz-adv-x="700" 
d="M103.5 1607.5q23.5 38.5 62.5 60.5t84 22q51 0 81 -17.5t61 -50.5q26 -26 46.5 -39t51.5 -13q45 0 72.5 27.5t27.5 72.5h30q0 -49 -23.5 -87.5t-62.5 -60.5t-84 -22q-51 0 -81 17.5t-61 50.5q-27 27 -47 39.5t-51 12.5q-45 0 -72.5 -27.5t-27.5 -72.5h-30q0 49 23.5 87.5
z" />
    <glyph glyph-name="hungarumlaut" unicode="&#x2dd;" horiz-adv-x="462" 
d="M40 1508q10 14 31.5 58t27.5 57q45 94 58 114q6 9 15.5 14t19.5 5q12 0 23 -8q17 -14 17 -35q0 -13 -7 -23q-9 -13 -40.5 -46t-45.5 -49q-71 -71 -88 -95zM230 1508q10 14 31.5 58t27.5 57q45 94 58 114q6 9 15.5 14t19.5 5q12 0 23 -8q17 -14 17 -35q0 -13 -7 -23
q-9 -13 -40.5 -46t-45.5 -49q-71 -71 -88 -95z" />
    <glyph glyph-name="gravecomb" unicode="&#x300;" horiz-adv-x="0" 
d="M-92 1528.5q-49 19.5 -62 24.5q-89 33 -111 45q-10 5 -15 14.5t-5 21.5q0 19 12 30.5t29 11.5q11 0 21 -6q14 -8 51.5 -38t46.5 -38q88 -72 105 -82l-7 -12q-16 9 -65 28.5z" />
    <glyph glyph-name="acutecomb" unicode="&#x301;" horiz-adv-x="0" 
d="M-305 1512q17 10 105 82q9 8 46.5 38t51.5 38q11 6 21 6q11 0 21 -5.5t15 -15.5q5 -9 5 -21t-5 -21.5t-15 -14.5q-22 -12 -111 -45q-13 -5 -62 -24.5t-65 -28.5z" />
    <glyph glyph-name="uni0302" unicode="&#x302;" horiz-adv-x="0" 
d="M-40 1543q0 -21 -17 -35q-11 -8 -23 -8q-10 0 -19.5 5t-15.5 14q-10 15 -62 120q-43 88 -52 104q-9 -16 -52 -104q-52 -105 -62 -120q-6 -9 -15.5 -14t-19.5 -5q-12 0 -23 8q-17 14 -17 35q0 13 7 23q9 13 40.5 46t45.5 49q71 71 88 95h16q17 -24 88 -95q14 -16 45.5 -49
t40.5 -46q7 -10 7 -23z" />
    <glyph glyph-name="tildecomb" unicode="&#x303;" horiz-adv-x="0" 
d="M-596.5 1607.5q23.5 38.5 62.5 60.5t84 22q51 0 81 -17.5t61 -50.5q27 -26 47 -39t51 -13q45 0 72.5 27.5t27.5 72.5h30q0 -49 -23.5 -87.5t-62.5 -60.5t-84 -22q-51 0 -81 17.5t-61 50.5q-26 27 -46.5 39.5t-51.5 12.5q-45 0 -72.5 -27.5t-27.5 -72.5h-30
q0 49 23.5 87.5z" />
    <glyph glyph-name="uni0304" unicode="&#x304;" horiz-adv-x="0" 
d="M-40 1530v-30h-420v30h420z" />
    <glyph glyph-name="uni0306" unicode="&#x306;" horiz-adv-x="0" 
d="M-330 1650q0 -30 35.5 -49.5t104.5 -19.5t104.5 19.5t35.5 49.5h30q0 -45 -24.5 -79t-64 -52.5t-81.5 -18.5t-81.5 18.5t-64 52.5t-24.5 79h30z" />
    <glyph glyph-name="uni0307" unicode="&#x307;" horiz-adv-x="0" 
d="M-205.5 1524.5q-24.5 24.5 -24.5 60.5q0 35 24.5 60t60.5 25q35 0 60 -25t25 -60q0 -36 -25 -60.5t-60 -24.5q-36 0 -60.5 24.5z" />
    <glyph glyph-name="uni0308" unicode="&#x308;" horiz-adv-x="0" 
d="M-515.5 1524.5q-24.5 24.5 -24.5 60.5q0 35 24.5 60t60.5 25q35 0 60 -25t25 -60q0 -36 -25 -60.5t-60 -24.5q-36 0 -60.5 24.5zM-205.5 1524.5q-24.5 24.5 -24.5 60.5q0 35 24.5 60t60.5 25q35 0 60 -25t25 -60q0 -36 -25 -60.5t-60 -24.5q-36 0 -60.5 24.5z" />
    <glyph glyph-name="uni030A" unicode="&#x30a;" horiz-adv-x="0" 
d="M-320 1725.5q20 34.5 54.5 54.5t75.5 20t75.5 -20t54.5 -54.5t20 -75.5t-20 -75.5t-54.5 -54.5t-75.5 -20t-75.5 20t-54.5 54.5t-20 75.5t20 75.5zM-275 1565q35 -35 85 -35t85 35t35 85t-35 85t-85 35t-85 -35t-35 -85t35 -85z" />
    <glyph glyph-name="uni030B" unicode="&#x30b;" horiz-adv-x="0" 
d="M-422 1508q15 23 58 115q9 17 29.5 59t29.5 55q6 9 15.5 14t19.5 5q12 0 23 -8q17 -14 17 -35q0 -13 -7 -23q-9 -13 -40.5 -46t-45.5 -49q-71 -71 -88 -95zM-232 1508q15 23 58 115q9 17 29.5 59t29.5 55q6 9 15.5 14t19.5 5q12 0 23 -8q17 -14 17 -35q0 -13 -7 -23
q-9 -13 -40.5 -46t-45.5 -49q-71 -71 -88 -95z" />
    <glyph glyph-name="uni030C" unicode="&#x30c;" horiz-adv-x="0" 
d="M-40 1713q0 -13 -7 -23q-9 -13 -40.5 -46t-45.5 -49q-71 -71 -88 -95h-16q-17 24 -88 95q-14 16 -45.5 49t-40.5 46q-7 10 -7 23q0 21 17 35q11 8 23 8q10 0 19.5 -5t15.5 -14q10 -15 62 -120q43 -88 52 -104q9 16 52 104q52 105 62 120q6 9 15.5 14t19.5 5q12 0 23 -8
q17 -14 17 -35z" />
    <glyph glyph-name="uni0327" unicode="&#x327;" horiz-adv-x="0" 
d="M-220 0l-26 -87q52 0 99.5 -18t77 -52.5t29.5 -82.5q0 -78 -92 -121.5t-241 -60.5l10 30q109 13 166 55t57 97q0 54 -36.5 88.5t-100.5 34.5l37 117h20z" />
    <glyph glyph-name="uni0328" unicode="&#x328;" horiz-adv-x="0" 
d="M-344.5 -78.5q-45.5 -53.5 -45.5 -135.5q0 -84 39.5 -126t99.5 -42q68 0 111 27t79 85l21 -18q-38 -61 -93.5 -97.5t-147.5 -36.5q-50 0 -101 21t-84.5 63.5t-33.5 103.5q0 63 41 110t86.5 73t101.5 51h33q-61 -25 -106.5 -78.5z" />
    <glyph glyph-name="Wgrave" unicode="&#x1e80;" horiz-adv-x="1609" 
d="M1059 0l-275 825l-275 -825l-450 1350h127l371 -1113l211 636l-94 282q-55 166 -142 286.5t-199.5 185.5t-242.5 65q-121 0 -212 -35.5t-145 -80t-103 -98.5l-20 -22h-30q16 15 36 39q55 62 112.5 108.5t162.5 82.5t259 36q170 0 292.5 -60t209.5 -184.5t149 -322.5
l31 -92l95 287h32l-112 -335l260 -778l370 1113h32zM767 1528.5q-49 19.5 -62 24.5q-89 33 -111 45q-10 5 -15 14.5t-5 21.5q0 19 12 30.5t29 11.5q11 0 21 -6q14 -8 51.5 -38t46.5 -38q88 -72 105 -82l-7 -12q-16 9 -65 28.5z" />
    <glyph glyph-name="wgrave" unicode="&#x1e81;" horiz-adv-x="1650" 
d="M1100 0l-275 825l-275 -825l-450 1350h127l371 -1113l211 636l-159 477h127l96 -287l95 287h32l-112 -335l260 -778l370 1113h32zM808 1528.5q-49 19.5 -62 24.5q-89 33 -111 45q-10 5 -15 14.5t-5 21.5q0 19 12 30.5t29 11.5q11 0 21 -6q14 -8 51.5 -38t46.5 -38
q88 -72 105 -82l-7 -12q-16 9 -65 28.5z" />
    <glyph glyph-name="Wacute" unicode="&#x1e82;" horiz-adv-x="1609" 
d="M1059 0l-275 825l-275 -825l-450 1350h127l371 -1113l211 636l-94 282q-55 166 -142 286.5t-199.5 185.5t-242.5 65q-121 0 -212 -35.5t-145 -80t-103 -98.5l-20 -22h-30q16 15 36 39q55 62 112.5 108.5t162.5 82.5t259 36q170 0 292.5 -60t209.5 -184.5t149 -322.5
l31 -92l95 287h32l-112 -335l260 -778l370 1113h32zM823 1512q17 10 105 82q9 8 46.5 38t51.5 38q11 6 21 6q11 0 21 -5.5t15 -15.5q5 -9 5 -21t-5 -21.5t-15 -14.5q-22 -12 -111 -45q-13 -5 -62 -24.5t-65 -28.5z" />
    <glyph glyph-name="wacute" unicode="&#x1e83;" horiz-adv-x="1650" 
d="M1100 0l-275 825l-275 -825l-450 1350h127l371 -1113l211 636l-159 477h127l96 -287l95 287h32l-112 -335l260 -778l370 1113h32zM865 1512q17 10 105 82q9 8 46.5 38t51.5 38q11 6 21 6q11 0 21 -5.5t15 -15.5q5 -9 5 -21t-5 -21.5t-15 -14.5q-22 -12 -111 -45
q-13 -5 -62 -24.5t-65 -28.5z" />
    <glyph glyph-name="Wdieresis" unicode="&#x1e84;" horiz-adv-x="1609" 
d="M1059 0l-275 825l-275 -825l-450 1350h127l371 -1113l211 636l-94 282q-55 166 -142 286.5t-199.5 185.5t-242.5 65q-121 0 -212 -35.5t-145 -80t-103 -98.5l-20 -22h-30q16 15 36 39q55 62 112.5 108.5t162.5 82.5t259 36q122 0 220 -31t175 -95q4 32 27.5 53t56.5 21
q35 0 60 -25t25 -60q0 -34 -23 -58.5t-56 -26.5q97 -126 166 -345l31 -92l95 287h32l-112 -335l260 -778l370 1113h32zM878.5 1524.5q-24.5 24.5 -24.5 60.5q0 35 24.5 60t60.5 25q35 0 60 -25t25 -60q0 -36 -25 -60.5t-60 -24.5q-36 0 -60.5 24.5z" />
    <glyph glyph-name="wdieresis" unicode="&#x1e85;" horiz-adv-x="1650" 
d="M1100 0l-275 825l-275 -825l-450 1350h127l371 -1113l211 636l-159 477h127l96 -287l95 287h32l-112 -335l260 -778l370 1113h32zM589.5 1524.5q-24.5 24.5 -24.5 60.5q0 35 24.5 60t60.5 25q35 0 60 -25t25 -60q0 -36 -25 -60.5t-60 -24.5q-36 0 -60.5 24.5z
M899.5 1524.5q-24.5 24.5 -24.5 60.5q0 35 24.5 60t60.5 25q35 0 60 -25t25 -60q0 -36 -25 -60.5t-60 -24.5q-36 0 -60.5 24.5z" />
    <glyph glyph-name="uni1E9E" unicode="&#x1e9e;" horiz-adv-x="1018" 
d="M149.5 1204.5q49.5 71.5 128.5 108.5t167 37q84 0 149 -34.5t100.5 -96.5t35.5 -144q0 -51 -20 -92t-49 -71t-74 -67q-52 -44 -76.5 -74t-24.5 -66q0 -32 21.5 -57.5t53 -45t90.5 -49.5q84 -42 137 -77.5t91.5 -94t38.5 -141.5q0 -72 -45.5 -131.5t-122 -94t-164.5 -34.5
q-64 0 -127.5 32.5t-98.5 72.5l25 28q40 -46 93 -74.5t118 -28.5q90 0 146 59.5t56 170.5q0 58 -27.5 102t-67.5 75t-106 72q-59 37 -92 62t-56 58.5t-23 75.5q0 39 15.5 70.5t38.5 55t62 56.5q42 34 67.5 60.5t43 63.5t17.5 84q0 120 -61.5 182.5t-163.5 62.5
q-101 0 -163 -61t-62 -174v-1085h-120v1035q0 98 49.5 169.5z" />
    <glyph glyph-name="Ygrave" unicode="&#x1ef2;" horiz-adv-x="1237" 
d="M1137 1350l-467 -760v-590h-120v600l-329 550l-32 49q-126 189 -199.5 282.5t-164 149.5t-209.5 56q-122 0 -213.5 -35.5t-145 -78.5t-103.5 -97q-6 -8 -18 -20h-30q14 13 35 37q55 61 112.5 107t163 81.5t259.5 35.5q166 0 274 -58t190.5 -167.5t220.5 -341.5l305 -510
l436 710h35zM585 1528.5q-49 19.5 -62 24.5q-89 33 -111 45q-10 5 -15 14.5t-5 21.5q0 19 12 30.5t29 11.5q11 0 21 -6q14 -8 51.5 -38t46.5 -38q88 -72 105 -82l-7 -12q-16 9 -65 28.5z" />
    <glyph glyph-name="ygrave" unicode="&#x1ef3;" horiz-adv-x="1237" 
d="M240 1350l426 -710l436 710h35l-467 -760v-590h-120v600l-450 750h140zM585 1528.5q-49 19.5 -62 24.5q-89 33 -111 45q-10 5 -15 14.5t-5 21.5q0 19 12 30.5t29 11.5q11 0 21 -6q14 -8 51.5 -38t46.5 -38q88 -72 105 -82l-7 -12q-16 9 -65 28.5z" />
    <glyph glyph-name="endash" unicode="&#x2013;" horiz-adv-x="1080" 
d="M980 700v-30h-880v30h880z" />
    <glyph glyph-name="emdash" unicode="&#x2014;" horiz-adv-x="1380" 
d="M1280 700v-30h-1180v30h1180z" />
    <glyph glyph-name="quoteleft" unicode="&#x2018;" horiz-adv-x="423" 
d="M298.5 1089.5q24.5 -24.5 24.5 -60.5q0 -35 -27 -60t-63 -25q-37 0 -67.5 20.5t-48 57t-17.5 83.5q0 70 32 135t114 130v-27q-92 -82 -92 -187q0 -21 5 -38.5t10.5 -29t6.5 -10.5q9 18 26.5 27t35.5 9q36 0 60.5 -24.5z" />
    <glyph glyph-name="quoteright" unicode="&#x2019;" horiz-adv-x="423" 
d="M124.5 1224.5q-24.5 24.5 -24.5 60.5q0 35 27 60t63 25q37 0 67.5 -20.5t48 -57t17.5 -83.5q0 -70 -32 -135t-114 -130v27q92 82 92 187q0 21 -5 38.5t-10.5 29t-6.5 10.5q-9 -18 -26.5 -27t-35.5 -9q-36 0 -60.5 24.5z" />
    <glyph glyph-name="quotesinglbase" unicode="&#x201a;" horiz-adv-x="423" 
d="M124.5 4.5q-24.5 24.5 -24.5 60.5q0 35 27 60t63 25q37 0 67.5 -20.5t48 -57t17.5 -83.5q0 -70 -32 -135t-114 -130v27q92 82 92 187q0 21 -5 38.5t-10.5 29t-6.5 10.5q-9 -18 -26.5 -27t-35.5 -9q-36 0 -60.5 24.5z" />
    <glyph glyph-name="quotedblleft" unicode="&#x201c;" horiz-adv-x="726" 
d="M298.5 1089.5q24.5 -24.5 24.5 -60.5q0 -35 -27 -60t-63 -25q-37 0 -67.5 20.5t-48 57t-17.5 83.5q0 70 32 135t114 130v-27q-92 -82 -92 -187q0 -21 5 -38.5t10.5 -29t6.5 -10.5q9 18 26.5 27t35.5 9q36 0 60.5 -24.5zM601.5 1089.5q24.5 -24.5 24.5 -60.5
q0 -35 -27 -60t-63 -25q-37 0 -67.5 20.5t-48 57t-17.5 83.5q0 70 32 135t114 130v-27q-92 -82 -92 -187q0 -21 5 -38.5t10.5 -29t6.5 -10.5q9 18 26.5 27t35.5 9q36 0 60.5 -24.5z" />
    <glyph glyph-name="quotedblright" unicode="&#x201d;" horiz-adv-x="726" 
d="M124.5 1224.5q-24.5 24.5 -24.5 60.5q0 35 27 60t63 25q37 0 67.5 -20.5t48 -57t17.5 -83.5q0 -70 -32 -135t-114 -130v27q92 82 92 187q0 21 -5 38.5t-10.5 29t-6.5 10.5q-9 -18 -26.5 -27t-35.5 -9q-36 0 -60.5 24.5zM427.5 1224.5q-24.5 24.5 -24.5 60.5q0 35 27 60
t63 25q37 0 67.5 -20.5t48 -57t17.5 -83.5q0 -70 -32 -135t-114 -130v27q92 82 92 187q0 21 -5 38.5t-10.5 29t-6.5 10.5q-9 -18 -26.5 -27t-35.5 -9q-36 0 -60.5 24.5z" />
    <glyph glyph-name="quotedblbase" unicode="&#x201e;" horiz-adv-x="726" 
d="M124.5 4.5q-24.5 24.5 -24.5 60.5q0 35 27 60t63 25q37 0 67.5 -20.5t48 -57t17.5 -83.5q0 -70 -32 -135t-114 -130v27q92 82 92 187q0 21 -5 38.5t-10.5 29t-6.5 10.5q-9 -18 -26.5 -27t-35.5 -9q-36 0 -60.5 24.5zM427.5 4.5q-24.5 24.5 -24.5 60.5q0 35 27 60t63 25
q37 0 67.5 -20.5t48 -57t17.5 -83.5q0 -70 -32 -135t-114 -130v27q92 82 92 187q0 21 -5 38.5t-10.5 29t-6.5 10.5q-9 -18 -26.5 -27t-35.5 -9q-36 0 -60.5 24.5z" />
    <glyph glyph-name="dagger" unicode="&#x2020;" horiz-adv-x="780" 
d="M680 1020h-275v-1020h-30v1020h-275v30h275v300h30v-300h275v-30z" />
    <glyph glyph-name="daggerdbl" unicode="&#x2021;" horiz-adv-x="780" 
d="M405 1020v-690h275v-30h-275v-300h-30v300h-275v30h275v690h-275v30h275v300h30v-300h275v-30h-275z" />
    <glyph glyph-name="bullet" unicode="&#x2022;" horiz-adv-x="370" 
d="M124.5 284.5q-24.5 24.5 -24.5 60.5q0 35 24.5 60t60.5 25q35 0 60 -25t25 -60q0 -36 -25 -60.5t-60 -24.5q-36 0 -60.5 24.5z" />
    <glyph glyph-name="ellipsis" unicode="&#x2026;" horiz-adv-x="1010" 
d="M124.5 4.5q-24.5 24.5 -24.5 60.5q0 35 24.5 60t60.5 25q35 0 60 -25t25 -60q0 -36 -25 -60.5t-60 -24.5q-36 0 -60.5 24.5zM444.5 4.5q-24.5 24.5 -24.5 60.5q0 35 24.5 60t60.5 25q35 0 60 -25t25 -60q0 -36 -25 -60.5t-60 -24.5q-36 0 -60.5 24.5zM764.5 4.5
q-24.5 24.5 -24.5 60.5q0 35 24.5 60t60.5 25q35 0 60 -25t25 -60q0 -36 -25 -60.5t-60 -24.5q-36 0 -60.5 24.5z" />
    <glyph glyph-name="guilsinglleft" unicode="&#x2039;" horiz-adv-x="498" 
d="M142 700l256 -266l-22 -20l-276 286l276 286l22 -20z" />
    <glyph glyph-name="guilsinglright" unicode="&#x203a;" horiz-adv-x="498" 
d="M398 700l-276 -286l-22 20l256 266l-256 266l22 20z" />
    <glyph glyph-name="Euro" unicode="&#x20ac;" horiz-adv-x="1221" 
d="M619 1267.5q-83 -72.5 -136.5 -199t-68.5 -283.5h266v-30h-268q-3 -39 -3 -80t3 -80h268v-30h-266q15 -157 68.5 -283.5t136.5 -199t181 -72.5q96 0 180 69.5t141 189.5v-119q-66 -81 -148.5 -125.5t-172.5 -44.5q-121 0 -229.5 77t-181.5 211t-93 297h-196v30h193
q-4 35 -4 80t4 80h-193v30h196q20 163 93 297t181.5 211t229.5 77q90 0 172.5 -44.5t148.5 -125.5v-119q-57 120 -141 189.5t-180 69.5q-98 0 -181 -72.5z" />
    <glyph glyph-name="trademark" unicode="&#x2122;" horiz-adv-x="985" 
d="M100 1350h294v-9h-129v-396h-36v396h-129v9zM885 1350v-405h-36v316l-179 -322l-177 324v-318h-9v405l204 -358z" />
    <glyph glyph-name="product" unicode="&#x220f;" horiz-adv-x="1230" 
d="M1130 1320h-230v-1320h-120v1320h-330v-1320h-120v1320h-230v30h1030v-30z" />
    <glyph glyph-name="minus" unicode="&#x2212;" horiz-adv-x="780" 
d="M680 700v-30h-580v30h580z" />
    <glyph glyph-name="notequal" unicode="&#x2260;" horiz-adv-x="780" 
d="M447 835l-105 -270h338v-30h-350l-58 -150h-32l58 150h-198v30h210l105 270h-315v30h327l58 150h32l-58 -150h221v-30h-233z" />
    <glyph glyph-name="lessequal" unicode="&#x2264;" horiz-adv-x="498" 
d="M142 700l256 -266l-22 -20l-276 286l276 286l22 -20zM100 283h298v-30h-298v30z" />
    <glyph glyph-name="greaterequal" unicode="&#x2265;" horiz-adv-x="498" 
d="M100 434l256 266l-256 266l22 20l276 -286l-276 -286zM100 283h298v-30h-298v30z" />
    <glyph glyph-name="C_A" unicode="&#xe000;" horiz-adv-x="2410" 
d="M3450 -239q-14 -13 -35 -37q-55 -61 -112.5 -107t-163 -81.5t-259.5 -35.5q-193 0 -326 61.5t-219 169.5t-155 269l-141 347h-659q-76 -149 -169.5 -230t-194 -109t-221.5 -28q-188 0 -348 93.5t-253.5 253.5t-93.5 348t93.5 348t253.5 253.5t348 93.5q171 0 319 -77.5
t245 -211.5h-157q-100 101 -229 158t-268 57q-150 0 -271.5 -69t-190.5 -190.5t-69 -271.5q0 -185 99 -349t263 -263t350 -99q104 0 194 32.5t172 120.5t143 245l365 898l550 -1350q202 -470 630 -470q122 0 213.5 35.5t145 78.5t103.5 97q6 8 18 20h30zM2027 377l-315 775
l-285 -700l-9 -23l-23 -52h632z" />
    <glyph glyph-name="C_C" unicode="&#xe001;" horiz-adv-x="1459" 
d="M193.5 1023q93.5 160 253.5 253.5t348 93.5q171 0 319 -77.5t245 -211.5h-157q-100 101 -229 158t-268 57q-150 0 -271.5 -69t-190.5 -190.5t-69 -271.5q0 -185 99 -349t263 -263t350 -99q136 0 248.5 57t184.5 158h40q-97 -134 -245 -211.5t-319 -77.5q-188 0 -348 93.5
t-253.5 253.5t-93.5 348t93.5 348zM495 836q51 88 138.5 139t193.5 51q91 0 162.5 -39t112.5 -108h-159q-47 39 -100 61.5t-105 22.5q-61 0 -114.5 -31.5t-85 -85t-31.5 -115.5q0 -80 51.5 -160t132.5 -132t161 -52q52 0 98 22.5t78 61.5h38q-53 -69 -132 -108t-172 -39
q-92 0 -164.5 40.5t-113 113t-40.5 164.5q0 106 51 194z" />
    <glyph glyph-name="C_O" unicode="&#xe002;" horiz-adv-x="1459" 
d="M193.5 1023q93.5 160 253.5 253.5t348 93.5q171 0 319 -77.5t245 -211.5h-157q-100 101 -229 158t-268 57q-150 0 -271.5 -69t-190.5 -190.5t-69 -271.5q0 -185 99 -349t263 -263t350 -99q136 0 248.5 57t184.5 158h40q-97 -134 -245 -211.5t-319 -77.5q-188 0 -348 93.5
t-253.5 253.5t-93.5 348t93.5 348zM495 836q51 88 138.5 139t193.5 51q93 0 165.5 -41t113 -113t40.5 -163q0 -106 -50.5 -194.5t-138.5 -139.5t-195 -51q-92 0 -164.5 40.5t-113 113t-40.5 164.5q0 106 51 194zM966.5 418.5q53.5 31.5 85 85t31.5 114.5q0 80 -51.5 160.5
t-132.5 132.5t-161 52q-61 0 -114.5 -31.5t-85 -85t-31.5 -115.5q0 -80 51.5 -160t132.5 -132t161 -52q61 0 114.5 31.5z" />
    <glyph glyph-name="F_f" unicode="&#xe003;" horiz-adv-x="2163" 
d="M1453 1320v-621h450v-30h-450v-669h-120v1320h-610v-620h450v-30h-450v-670h-120v1320h-20q-117 0 -208 -38t-143 -115.5t-52 -190.5q0 -107 57.5 -190.5t140.5 -129.5l-17 -21q-47 24 -108.5 75.5t-107 122t-45.5 143.5q0 132 74 216t184.5 121t224.5 37h1480v-30h-610z
" />
    <glyph glyph-name="F_t" unicode="&#xe004;" horiz-adv-x="2223" 
d="M2123 1320h-430v-1320h-120v1320h-850v-620h450v-30h-450v-670h-120v1320h-20q-117 0 -208 -38t-143 -115.5t-52 -190.5q0 -107 57.5 -190.5t140.5 -129.5l-17 -21q-47 24 -108.5 75.5t-107 122t-45.5 143.5q0 132 74 216t184.5 121t224.5 37h1540v-30z" />
    <glyph glyph-name="L_I" unicode="&#xe005;" horiz-adv-x="493" 
d="M1813 -239q-14 -13 -35 -37q-55 -61 -112.5 -107t-163 -81.5t-259.5 -35.5q-147 0 -279 44.5t-234 106t-240 158.5q-93 66 -152 104t-120 62.5t-118 24.5v1350h120v-1323q67 -8 144.5 -41.5t153 -77.5t191.5 -117q138 -87 228.5 -138t186.5 -87t179 -36q122 0 213.5 35.5
t145 78.5t103.5 97q6 8 18 20h30zM440 120h-120v1230h120v-1230z" />
    <glyph glyph-name="O_O" unicode="&#xe006;" horiz-adv-x="2463" 
d="M2016 1276.5q160 -93.5 253.5 -253.5t93.5 -348t-93.5 -348t-253.5 -253.5t-348 -93.5q-122 0 -233.5 40.5t-202.5 114.5q-92 -74 -203.5 -114.5t-233.5 -40.5q-188 0 -348 93.5t-253.5 253.5t-93.5 348t93.5 348t253.5 253.5t348 93.5q122 0 233.5 -40.5t203.5 -114.5
q91 74 202.5 114.5t233.5 40.5q188 0 348 -93.5zM1059 80q82 26 148 75q-110 98 -172 233t-62 287q0 129 45 246.5t127 211.5q-94 77 -207 120t-233 43q-150 0 -271.5 -69t-190.5 -190.5t-69 -271.5q0 -185 99 -349t263 -263t350 -99q91 0 173 26zM2030 123q121 69 190 190
t69 272q0 184 -99 348.5t-263 263.5t-349 99q-92 0 -173.5 -26t-148.5 -75q110 -98 172 -233t62 -287q0 -129 -45 -246.5t-128 -211.5q95 -77 208.5 -120t233.5 -43q150 0 271 69zM1113 477q66 -138 181 -240q59 69 90.5 158t31.5 190q0 149 -66.5 287.5t-180.5 240.5
q-59 -70 -90.5 -159t-31.5 -189q0 -150 66 -288z" />
    <glyph glyph-name="O_Q" unicode="&#xe007;" horiz-adv-x="2462" 
d="M2320 437.5q-42 -113.5 -118.5 -205.5t-177.5 -153l316 -384h-40l-303 369q-152 -84 -330 -84q-122 0 -233.5 40.5t-202.5 113.5q-91 -73 -202.5 -113.5t-233.5 -40.5q-188 0 -348 93.5t-253.5 253.5t-93.5 348t93.5 348t253.5 253.5t348 93.5q122 0 233.5 -40.5
t202.5 -113.5q91 73 202.5 113.5t233.5 40.5q188 0 348 -93.5t253.5 -253.5t93.5 -348q0 -124 -42 -237.5zM1058.5 80q81.5 26 148.5 75q-110 97 -172.5 232.5t-62.5 287.5q0 129 45.5 247t127.5 211q-94 77 -207.5 120t-232.5 43q-150 0 -271.5 -69t-190.5 -190.5
t-69 -271.5q0 -185 99 -349t263 -263t350 -99q91 0 172.5 26zM1971 95l-141 172h40l131 -159q132 64 209.5 190t77.5 287q0 184 -99 348.5t-263 263.5t-349 99q-91 0 -173 -26t-148 -75q110 -98 172 -233t62 -287q0 -129 -45.5 -247t-127.5 -211q94 -77 207.5 -120
t233.5 -43q116 0 213 41zM1112.5 476.5q66.5 -138.5 181.5 -240.5q59 70 90.5 159t31.5 190q0 150 -66.5 288t-181.5 240q-59 -69 -90.5 -158t-31.5 -190q0 -150 66.5 -288.5z" />
    <glyph glyph-name="a_d" unicode="&#xe008;" horiz-adv-x="1938" 
d="M1544 1257.5q139 -92.5 216.5 -247.5t77.5 -335t-77.5 -335t-216.5 -247.5t-314 -92.5h-450v347h-472l-176 -347h-32l680 1350h450q175 0 314 -92.5zM1474 124q116 94 180 243.5t64 307.5t-64 307.5t-180 243.5t-264 94h-310v-1290h310q148 0 264 94zM780 377v899
l-457 -899h457z" />
    <glyph glyph-name="a_r" unicode="&#xe009;" horiz-adv-x="1799" 
d="M1699 0h-42l-587 600h-170v-600h-120v347h-472l-176 -347h-32l680 1350h470q100 0 192.5 -50t149.5 -136t57 -188q0 -100 -57.5 -186.5t-150 -138t-191.5 -51.5h-138zM1230 630q83 0 151.5 48t108 128t39.5 170q0 97 -37.5 175.5t-105.5 123.5t-156 45h-330v-690h330z
M780 377v899l-457 -899h457z" />
    <glyph glyph-name="c_K" unicode="&#xe010;" horiz-adv-x="1867" 
d="M1051 79.5q119 69.5 199 189.5v-119q-93 -81 -209.5 -125.5t-244.5 -44.5q-188 0 -348 93.5t-254 253.5t-94 348t93.5 348t253.5 253.5t348 93.5q128 0 245 -44.5t210 -125.5v-119q-80 120 -199.5 189.5t-255.5 69.5q-156 0 -288 -89.5t-209.5 -242.5t-77.5 -333
t77.5 -333t210 -242.5t288.5 -89.5q136 0 255 69.5zM2907 -239q-14 -13 -35 -37q-55 -61 -112.5 -107t-163 -81.5t-259.5 -35.5q-215 0 -369.5 94t-254.5 228.5t-226 354.5q-83 144 -141 233t-131.5 163t-161.5 111l-199 -199v-285h-120v950h120v-623l624 623h42l-448 -447
q121 -28 219 -108.5t171.5 -182.5t176.5 -270q125 -203 218 -323.5t227.5 -204.5t312.5 -84q122 0 213.5 35.5t145 78.5t103.5 97q6 8 18 20h30z" />
    <glyph glyph-name="c_a" unicode="&#xe011;" horiz-adv-x="2340" 
d="M1969 347h-655l-8 -20q-52 -128 -137 -205.5t-181 -109.5t-193 -32q-188 0 -348 93.5t-253.5 253.5t-93.5 348t93.5 348t253.5 253.5t348 93.5q128 0 245 -44.5t210 -125.5v-119q-80 120 -199.5 189.5t-255.5 69.5q-156 0 -288 -89.5t-209.5 -242.5t-77.5 -333t77.5 -333
t209.5 -242.5t288 -89.5q157 0 279 69.5t200 247.5l416 1023l550 -1350h-130zM1957 377l-315 775l-316 -775h631z" />
    <glyph glyph-name="c_c" unicode="&#xe012;" horiz-adv-x="1350" 
d="M193.5 1023q93.5 160 253.5 253.5t348 93.5q128 0 245 -44.5t210 -125.5v-119q-80 120 -199.5 189.5t-255.5 69.5q-156 0 -288 -89.5t-209.5 -242.5t-77.5 -333t77.5 -333t210 -242.5t288.5 -89.5q136 0 255 69.5t199 189.5v-119q-93 -81 -209.5 -125.5t-244.5 -44.5
q-188 0 -348 93.5t-254 253.5t-94 348t93.5 348zM498 844q53 78 138.5 124.5t178.5 46.5q59 0 116.5 -19t105.5 -54v-114q-30 74 -87.5 115.5t-134.5 41.5q-75 0 -132 -40t-87.5 -110.5t-30.5 -159.5t30.5 -159.5t87.5 -110.5t132 -40q77 0 134.5 41.5t87.5 115.5v-114
q-49 -35 -106 -54t-116 -19q-93 0 -178.5 46.5t-138.5 124.5t-53 169t53 169z" />
    <glyph glyph-name="c_h" unicode="&#xe013;" horiz-adv-x="1670" 
d="M1051 79.5q119 69.5 199 189.5v-119q-93 -81 -209.5 -125.5t-244.5 -44.5q-188 0 -348 93.5t-254 253.5t-94 348t93.5 348t253.5 253.5t348 93.5q128 0 245 -44.5t210 -125.5v-119q-80 120 -199.5 189.5t-255.5 69.5q-156 0 -288 -89.5t-209.5 -242.5t-77.5 -333
t77.5 -333t210 -242.5t288.5 -89.5q136 0 255 69.5zM1570 1350v-1350h-120v670h-596v-470h-120v950h120v-450h596v650h120z" />
    <glyph glyph-name="c_o" unicode="&#xe014;" horiz-adv-x="1350" 
d="M193.5 1023q93.5 160 253.5 253.5t348 93.5q128 0 245 -44.5t210 -125.5v-119q-80 120 -199.5 189.5t-255.5 69.5q-156 0 -288 -89.5t-209.5 -242.5t-77.5 -333t77.5 -333t209.5 -242.5t288 -89.5q136 0 255.5 69.5t199.5 189.5v-119q-93 -81 -210 -125.5t-245 -44.5
q-188 0 -348 93.5t-253.5 253.5t-93.5 348t93.5 348zM478 844q53 78 138.5 124.5t178.5 46.5t178.5 -46.5t138.5 -124.5t53 -169t-53 -169.5t-138.5 -124.5t-178.5 -46t-178.5 46.5t-138.5 124.5t-53 169t53 169zM575.5 515.5q30.5 -70.5 87.5 -110.5t132 -40t132 40
t87.5 110.5t30.5 159.5t-30.5 159.5t-87.5 110.5t-132 40t-132 -40t-87.5 -110.5t-30.5 -159.5t30.5 -159.5z" />
    <glyph glyph-name="d_c" unicode="&#xe015;" horiz-adv-x="1890" 
d="M1590.5 1270.5q-119.5 69.5 -255.5 69.5q-105 0 -201.5 -42t-173.5 -119q94 -95 146 -226.5t52 -277.5t-52 -277.5t-146 -226.5q77 -77 173.5 -119t201.5 -42q136 0 255.5 69.5t199.5 189.5v-119q-93 -81 -210 -125.5t-245 -44.5q-118 0 -227 38t-198 108
q-75 -61 -166.5 -93.5t-193.5 -32.5h-450v1350h450q102 0 193.5 -32.5t166.5 -93.5q89 70 198 108t227 38q128 0 245 -44.5t210 -125.5v-119q-80 120 -199.5 189.5zM704.5 68.5q81.5 38.5 146.5 108.5q-99 96 -155 225t-56 273t56 273t155 225q-65 70 -146.5 108.5
t-174.5 38.5h-310v-1290h310q93 0 174.5 38.5zM1002.5 444.5q35.5 114.5 35.5 230.5t-35.5 230.5t-100.5 206.5q-67 -90 -104.5 -202t-37.5 -235t37.5 -235t104.5 -202q65 92 100.5 206.5z" />
    <glyph glyph-name="e_a" unicode="&#xe016;" horiz-adv-x="1998" 
d="M1627 347h-655l-142 -347h-730v1350h730v-30h-610v-621h450v-30h-450v-639h590l538 1320l550 -1350h-130zM1615 377l-315 775l-316 -775h631z" />
    <glyph glyph-name="e_t" unicode="&#xe017;" horiz-adv-x="1840" 
d="M1740 1320h-430v-1320h-120v1320h-970v-621h450v-30h-450v-639h610v-30h-730v1350h1640v-30z" />
    <glyph glyph-name="e_v" unicode="&#xe018;" horiz-adv-x="2017" 
d="M220 1320v-621h450v-30h-450v-639h610v-30h-730v1350h847l468 -1152l470 1152h32l-550 -1350l-538 1320h-609z" />
    <glyph glyph-name="e_w" unicode="&#xe019;" horiz-adv-x="2367" 
d="M1817 0l-275 825l-275 -825l-440 1320h-607v-621h450v-30h-450v-639h610v-30h-730v1350h844l371 -1113l211 636l-159 477h127l96 -287l95 287h32l-112 -335l260 -778l370 1113h32z" />
    <glyph glyph-name="f_f" unicode="&#xe020;" horiz-adv-x="1660" 
d="M950 1320v-621h450v-30h-450v-669h-120v1320h-610v-620h450v-30h-450v-670h-120v1350h1460v-30h-610z" />
    <glyph glyph-name="f_t" unicode="&#xe021;" horiz-adv-x="1720" 
d="M1620 1320h-430v-1320h-120v1320h-850v-620h450v-30h-450v-670h-120v1350h1520v-30z" />
    <glyph glyph-name="h_e" unicode="&#xe022;" horiz-adv-x="1890" 
d="M1180 1320v-621h450v-30h-450v-639h610v-30h-730v670h-840v-670h-120v1350h120v-650h840v650h730v-30h-610z" />
    <glyph glyph-name="k_a" unicode="&#xe023;" horiz-adv-x="2293" 
d="M1922 347h-655l-142 -347h-145l-528 767l-232 -282v-485h-120v1350h120v-818l672 818h39l-400 -486l574 -835l538 1321l550 -1350h-130zM1910 377l-315 775l-316 -775h631z" />
    <glyph glyph-name="l_A" unicode="&#xe024;" horiz-adv-x="1479" 
d="M220 30h530v-30h-650v1350h120v-1320zM2519 -239q-14 -13 -35 -37q-55 -61 -112.5 -107t-163 -81.5t-259.5 -35.5q-193 0 -326 61.5t-219.5 170t-154.5 268.5l-141 347h-656l-80 -197h-32l489 1200l550 -1350q202 -470 630 -470q122 0 213.5 35.5t145 78.5t103.5 97
q6 8 18 20h30zM1096 377l-315 775l-316 -775h631z" />
    <glyph glyph-name="l_a" unicode="&#xe025;" horiz-adv-x="1479" 
d="M220 30h530v-30h-650v1350h120v-1320zM1249 0l-141 347h-656l-80 -197h-32l489 1200l550 -1350h-130zM1096 377l-315 775l-316 -775h631z" />
    <glyph glyph-name="l_e" unicode="&#xe026;" horiz-adv-x="1040" 
d="M220 30h530v-30h-650v1350h120v-1320zM490 1320v-555h290v-30h-290v-555h450v-30h-570v1200h570v-30h-450z" />
    <glyph glyph-name="l_i" unicode="&#xe027;" horiz-adv-x="850" 
d="M750 30v-30h-650v1350h120v-1320h530zM490 150h-120v1200h120v-1200z" />
    <glyph glyph-name="l_l" unicode="&#xe028;" horiz-adv-x="1120" 
d="M220 30h530v-30h-650v1350h120v-1320zM1020 180v-30h-650v1200h120v-1170h530z" />
    <glyph glyph-name="l_u" unicode="&#xe029;" horiz-adv-x="1303" 
d="M1203 1350v-696q0 -274 -107.5 -389t-268.5 -115q-107 0 -211 46t-175 157.5t-71 295.5v702h120v-702q0 -167 46 -272t121.5 -151t169.5 -46q152 0 249 106.5t97 367.5v696h30zM220 30h530v-30h-650v1350h120v-1320z" />
    <glyph glyph-name="n_n" unicode="&#xe030;" horiz-adv-x="2130" 
d="M2030 1350v-1350l-950 1127v-1127l-950 1127v-1127h-30v1350l2 -3l948 -1125v1128l2 -3l948 -1125v1128h30z" />
    <glyph glyph-name="o_g" unicode="&#xe031;" horiz-adv-x="2222" 
d="M2122 605v-455q-93 -81 -210 -125.5t-245 -44.5q-122 0 -233.5 40.5t-202.5 113.5q-91 -73 -202.5 -113.5t-233.5 -40.5q-188 0 -348 93.5t-253.5 253.5t-93.5 348t93.5 348t253.5 253.5t348 93.5q122 0 233.5 -40.5t202.5 -113.5q91 73 202.5 113.5t233.5 40.5
q108 0 208.5 -32t186.5 -92v-88q-79 86 -180.5 134t-214.5 48q-108 0 -207 -45t-177 -126q98 -96 152.5 -224t54.5 -270t-54.5 -270t-152.5 -224q78 -81 177 -126t207 -45q92 0 177.5 32.5t157.5 92.5v470h120zM1002 55q99 45 177 126q-98 96 -152.5 224t-54.5 270t54.5 270
t152.5 224q-78 81 -177 126t-207 45q-156 0 -288 -89.5t-209.5 -242.5t-77.5 -333t77.5 -333t209.5 -242.5t288 -89.5q108 0 207 45zM1333.5 908q-36.5 111 -102.5 200q-66 -89 -102.5 -200t-36.5 -233t36.5 -233t102.5 -200q66 89 102.5 200t36.5 233t-36.5 233z" />
    <glyph glyph-name="o_o" unicode="&#xe032;" horiz-adv-x="2462" 
d="M2015 1276.5q160 -93.5 253.5 -253.5t93.5 -348t-93.5 -348t-253.5 -253.5t-348 -93.5q-122 0 -233.5 40.5t-202.5 113.5q-91 -73 -202.5 -113.5t-233.5 -40.5q-188 0 -348 93.5t-253.5 253.5t-93.5 348t93.5 348t253.5 253.5t348 93.5q122 0 233.5 -40.5t202.5 -113.5
q91 73 202.5 113.5t233.5 40.5q188 0 348 -93.5zM1002 55q99 45 177 126q-98 96 -152.5 224t-54.5 270t54.5 270t152.5 224q-78 81 -177 126t-207 45q-156 0 -288 -89.5t-209.5 -242.5t-77.5 -333t77.5 -333t209.5 -242.5t288 -89.5q108 0 207 45zM1955 99.5
q132 89.5 209.5 242.5t77.5 333t-77.5 333t-209.5 242.5t-288 89.5q-108 0 -207 -45t-177 -126q98 -96 152.5 -224t54.5 -270t-54.5 -270t-152.5 -224q78 -81 177 -126t207 -45q156 0 288 89.5zM1128.5 908q-36.5 -111 -36.5 -233t36.5 -233t102.5 -200q66 89 102.5 200
t36.5 233t-36.5 233t-102.5 200q-66 -89 -102.5 -200z" />
    <glyph glyph-name="o_q" unicode="&#xe033;" horiz-adv-x="2462" 
d="M2295 377.5q-67 -139.5 -185 -237.5t-266 -137l254 -308h-40l-248 300q-69 -15 -143 -15q-122 0 -233.5 40.5t-202.5 113.5q-91 -73 -202.5 -113.5t-233.5 -40.5q-188 0 -348 93.5t-253.5 253.5t-93.5 348t93.5 348t253.5 253.5t348 93.5q122 0 233.5 -40.5t202.5 -113.5
q91 73 202.5 113.5t233.5 40.5q188 0 348 -93.5t253.5 -253.5t93.5 -348q0 -158 -67 -297.5zM1002 55q99 45 177 126q-98 96 -152.5 224t-54.5 270t54.5 270t152.5 224q-78 81 -177 126t-207 45q-156 0 -288 -89.5t-209.5 -242.5t-77.5 -333t77.5 -333t209.5 -242.5
t288 -89.5q108 0 207 45zM2035.5 166q96.5 94 151.5 226.5t55 282.5q0 180 -77.5 333t-209.5 242.5t-288 89.5q-108 0 -207 -45t-177 -126q98 -96 152.5 -224t54.5 -270t-54.5 -270t-152.5 -224q78 -81 177 -126t207 -45q60 0 119 14l-118 143h40l110 -134q121 39 217.5 133
zM1128.5 908q-36.5 -111 -36.5 -233t36.5 -233t102.5 -200q66 89 102.5 200t36.5 233t-36.5 233t-102.5 200q-66 -89 -102.5 -200z" />
    <glyph glyph-name="r_a" unicode="&#xe034;" horiz-adv-x="2188" 
d="M1817 347h-655l-142 -347h-43l-587 600h-170v-600h-120v1350h470q100 0 192.5 -50t149.5 -136t57 -188q0 -100 -57.5 -186.5t-150 -138t-191.5 -51.5h-138l565 -578l541 1328l550 -1350h-130zM550 630q83 0 151.5 48t108 128t39.5 170q0 97 -37.5 175.5t-105.5 123.5
t-156 45h-330v-690h330zM1805 377l-315 775l-316 -775h631z" />
    <glyph glyph-name="t_e" unicode="&#xe035;" horiz-adv-x="1910" 
d="M1200 1320v-621h450v-30h-450v-639h610v-30h-730v1320h-430v-1320h-120v1320h-430v30h1710v-30h-610z" />
    <glyph glyph-name="t_i" unicode="&#xe036;" horiz-adv-x="1180" 
d="M1080 1320h-430v-1320h-120v1320h-430v30h980v-30zM890 1200v-1200h-120v1200h120z" />
    <glyph glyph-name="t_j" unicode="&#xe037;" horiz-adv-x="1180" 
d="M1080 1350v-30h-430v-1320h-120v1320h-430v30h980zM771 1200h120v-1120q0 -176 -55.5 -297t-121.5 -183.5t-150 -119.5v30q106 75 156.5 222.5t50.5 347.5v1120z" />
    <glyph glyph-name="t_t" unicode="&#xe038;" horiz-adv-x="1793" 
d="M1693 1320h-430v-1320h-120v1320h-493v-1320h-120v1320h-430v30h1593v-30z" />
    <glyph glyph-name="t_y" unicode="&#xe039;" horiz-adv-x="2077" 
d="M1977 1350l-467 -760v-590h-120v600l-432 720h-308v-1320h-120v1320h-430v30h980l426 -710l436 710h35z" />
    <glyph glyph-name="v_a" unicode="&#xe040;" horiz-adv-x="1818" 
d="M1447 347h-656l-141 -347l-550 1350h130l468 -1152l470 1152l550 -1350h-130zM1435 377l-315 775l-316 -775h631z" />
    <glyph glyph-name="w_a" unicode="&#xe041;" horiz-adv-x="2200" 
d="M1829 347h-613l-116 -347l-275 825l-275 -825l-450 1350h127l371 -1113l211 636l-159 477h127l96 -287l95 287h32l-112 -335l260 -778l370 1113h32l550 -1350h-130zM1817 377l-325 799l-266 -799h591z" />
    <glyph glyph-name="i.loclTRK" 
d="M220 1350v-1350h-120v1350h120z" />
    </font>
</defs>
</svg>
